<?xml version="1.0" encoding="UTF-8" standalone="no"?>
<!DOCTYPE svg PUBLIC "-//W3C//DTD SVG 1.1//EN" "http://www.w3.org/Graphics/SVG/1.1/DTD/svg11.dtd">
<svg xmlns="http://www.w3.org/2000/svg" version="1.1" viewBox="0 0 200 200" width="200.0pt" height="200.0pt">
<path d="M 0.00 0.00 L 200.00 0.00 L 200.00 200.00 L 140.21 200.00 C 141.51 197.86 142.61 195.69 143.23 193.25 C 141.39 193.22 139.55 193.22 137.71 193.31 C 138.82 194.63 140.23 194.10 141.83 194.42 C 140.84 196.28 139.89 198.18 138.83 200.00 L 133.66 200.00 C 133.54 198.11 133.57 196.23 133.59 194.35 C 132.72 192.52 129.89 193.40 128.24 193.32 C 128.11 195.53 128.12 197.78 128.11 200.00 L 127.13 200.00 C 125.78 199.28 124.51 198.95 123.00 198.71 L 123.02 197.15 C 124.04 197.11 125.06 197.06 126.08 197.02 L 126.09 196.02 C 124.99 195.99 123.88 195.95 122.77 195.91 C 122.91 193.85 125.39 194.32 126.78 193.33 C 125.17 193.24 123.55 193.21 121.95 193.25 C 121.75 195.52 121.79 197.73 121.82 200.00 L 119.95 200.00 C 119.95 197.67 119.89 195.35 119.76 193.03 C 116.61 193.27 117.20 195.62 115.98 197.90 C 115.05 196.37 114.42 192.76 112.16 193.06 C 111.99 195.37 111.98 197.68 111.97 200.00 L 110.03 200.00 C 110.03 197.77 110.06 195.47 109.83 193.26 L 107.33 193.51 C 108.55 195.82 109.07 197.32 108.89 200.00 L 106.55 200.00 C 106.93 199.04 107.31 198.08 107.68 197.11 C 106.92 197.16 106.16 197.20 105.40 197.24 C 104.63 195.29 104.90 193.06 102.19 193.08 C 102.02 195.39 102.00 197.69 101.97 200.00 L 99.48 200.00 C 100.27 197.75 100.03 195.55 99.98 193.22 L 99.02 193.21 C 98.96 195.09 98.91 196.96 98.85 198.84 C 97.87 198.89 96.90 198.93 95.92 198.98 C 95.86 197.07 95.81 195.17 95.77 193.27 L 94.43 193.36 C 94.39 195.59 94.45 197.80 94.89 200.00 L 92.42 200.00 C 92.47 197.72 92.51 195.45 92.53 193.17 C 90.04 193.06 91.65 196.74 91.12 198.22 C 89.67 196.45 89.16 192.82 86.31 193.16 C 86.14 195.44 86.13 197.72 86.13 200.00 L 84.10 200.00 C 84.11 197.77 84.11 195.54 84.11 193.31 C 83.56 193.31 83.00 193.31 82.44 193.31 C 81.44 195.50 80.54 196.73 78.58 198.13 L 79.99 200.00 L 77.46 200.00 C 77.40 198.89 77.33 197.79 77.26 196.68 C 78.04 196.37 78.82 196.06 79.59 195.74 C 78.53 193.97 78.64 193.20 76.44 193.18 C 76.32 195.46 76.32 197.72 76.33 200.00 L 69.45 200.00 C 71.35 198.09 72.88 199.43 75.12 199.92 C 74.25 197.67 73.44 195.38 72.54 193.14 C 69.70 192.75 69.57 198.18 68.57 200.00 L 66.31 200.00 C 66.31 198.27 66.31 196.53 66.31 194.80 C 67.21 194.29 68.10 193.77 68.99 193.25 C 66.89 193.22 64.78 193.24 62.68 193.37 C 63.42 193.83 64.18 194.27 64.96 194.67 C 64.99 196.45 65.00 198.22 65.00 200.00 L 61.08 200.00 L 62.11 198.03 C 61.69 195.61 58.43 196.57 57.53 195.10 L 58.81 193.84 C 59.86 194.61 60.95 194.99 62.09 194.98 C 60.32 192.26 57.70 192.45 55.79 194.92 C 56.23 195.55 56.67 196.19 57.11 196.82 C 58.56 197.00 59.92 197.40 61.18 198.02 C 59.06 199.68 57.95 198.55 55.83 197.86 L 56.97 200.00 L 0.00 200.00 L 0.00 0.00 Z" fill="#ffffff" />
<path d="M 108.93 5.09 C 117.88 8.49 126.52 11.94 134.19 17.82 C 136.83 18.43 138.67 20.59 141.07 18.29 L 141.73 20.72 C 142.65 20.68 143.58 20.61 144.51 20.52 C 144.48 22.71 143.18 23.37 145.72 24.31 C 145.61 25.53 145.15 27.07 145.75 28.19 C 148.03 31.70 151.39 32.68 154.33 35.67 C 156.47 37.80 158.94 39.71 160.82 42.07 C 160.46 43.69 159.69 45.21 159.00 46.73 C 161.26 50.26 164.56 54.76 164.52 59.08 C 163.83 59.96 163.07 60.76 162.30 61.56 C 164.31 63.08 165.91 64.72 167.16 66.92 C 169.66 71.07 172.16 76.15 172.23 81.07 C 172.33 83.26 168.29 82.91 166.88 83.27 C 167.22 85.53 167.62 87.77 168.16 89.99 C 167.75 90.61 167.33 91.23 166.91 91.86 C 167.43 92.88 167.87 93.94 168.21 95.02 C 167.44 96.47 166.42 97.62 165.40 98.90 C 166.66 102.27 167.87 106.90 164.55 109.52 C 160.42 112.55 153.19 111.80 148.90 115.88 C 146.41 118.48 144.86 122.00 142.88 125.00 C 144.55 131.09 142.45 136.25 141.77 142.24 C 139.42 139.73 136.31 138.40 133.79 136.19 C 131.70 131.94 130.25 127.34 128.36 122.99 C 128.73 129.85 128.36 135.68 126.96 142.41 C 126.49 142.11 126.02 141.81 125.55 141.51 C 124.73 145.06 121.94 147.61 120.76 151.09 C 119.43 148.83 117.98 146.73 116.15 144.85 C 112.63 142.11 114.04 135.87 113.22 131.83 C 108.85 137.60 104.76 143.51 99.76 148.79 C 98.79 149.79 97.86 150.67 96.90 149.05 C 94.95 145.78 92.85 142.48 91.36 138.97 C 93.61 135.58 97.30 133.20 99.86 129.99 C 95.58 132.95 91.16 135.32 86.47 137.58 C 86.30 137.06 86.14 136.55 85.97 136.04 C 81.44 137.44 76.80 138.09 72.13 138.79 C 74.80 135.01 77.46 131.40 79.17 127.05 C 75.78 129.46 72.66 132.22 69.37 134.78 L 68.91 132.55 C 65.99 134.12 63.04 135.65 60.04 137.07 C 60.55 132.12 61.43 127.37 63.78 122.92 C 62.68 123.99 61.57 125.06 60.47 126.13 L 59.93 124.09 C 55.75 125.57 51.52 126.63 47.48 128.45 C 48.69 125.64 49.59 122.74 50.57 119.85 C 51.54 116.84 53.44 114.81 55.13 112.22 C 53.23 113.32 51.41 114.53 49.63 115.83 C 49.27 115.37 48.91 114.91 48.55 114.45 C 45.80 116.97 42.68 118.86 39.61 120.95 C 39.40 117.30 39.63 113.34 40.80 109.86 C 42.01 107.30 44.20 105.14 45.92 102.90 C 44.05 103.96 42.23 105.10 40.42 106.25 C 40.78 105.34 41.13 104.43 41.49 103.52 C 38.10 103.58 34.71 103.64 31.31 103.72 C 32.14 101.44 32.88 99.12 33.80 96.87 C 34.65 94.24 37.60 92.53 39.48 90.55 C 36.06 89.99 32.64 89.45 29.22 88.91 C 31.68 85.61 34.26 82.50 37.33 79.76 C 37.34 78.73 37.55 77.80 37.85 76.82 C 34.49 76.80 31.20 76.53 27.90 75.87 C 29.66 73.06 31.58 70.27 33.82 67.81 C 35.48 65.80 38.16 65.41 40.44 64.43 C 39.33 64.59 38.13 64.71 36.84 64.81 C 37.42 64.04 38.01 63.26 38.60 62.48 C 35.31 62.25 32.15 61.79 28.94 61.04 C 31.31 58.06 33.78 55.18 36.64 52.64 C 39.68 49.66 44.45 49.20 48.43 47.46 C 46.76 47.57 45.08 47.69 43.40 47.83 C 44.28 46.85 45.16 45.88 46.03 44.89 C 41.94 44.74 37.85 44.66 33.76 44.51 C 36.29 41.58 38.56 38.04 41.63 35.65 C 44.46 33.36 49.15 33.95 51.62 31.38 C 52.43 31.07 53.24 30.78 54.06 30.49 C 49.52 30.33 44.99 30.09 40.48 29.61 C 43.45 26.88 46.63 24.19 50.13 22.16 C 52.97 20.51 55.86 20.25 59.02 19.62 C 55.93 18.96 52.81 18.39 49.73 17.69 C 54.99 14.43 61.25 12.54 67.08 10.52 C 65.59 10.02 64.16 9.42 62.76 8.73 C 66.53 7.59 70.35 6.59 74.12 5.42 C 82.36 2.47 92.59 4.11 101.20 4.09 C 104.05 2.87 106.20 4.26 108.93 5.09 Z" fill="#00509e" />
<path d="M 105.46 5.50 C 106.50 5.80 107.54 6.12 108.58 6.45 C 117.50 10.07 128.72 13.83 135.19 21.23 C 133.72 21.34 132.25 21.45 130.78 21.55 C 128.46 20.12 126.16 18.54 123.70 17.35 C 119.54 15.43 114.79 14.33 110.56 12.83 L 109.86 10.83 C 109.62 11.82 109.35 12.80 109.09 13.78 C 114.61 15.35 120.29 16.97 125.43 19.56 C 128.03 21.12 130.68 21.71 130.79 25.32 C 125.94 25.64 122.60 23.02 118.14 21.79 C 110.79 19.65 103.37 18.58 95.83 17.42 C 98.29 17.15 100.88 17.50 103.33 17.69 C 101.35 15.24 99.26 13.03 96.89 10.96 C 96.77 10.22 96.66 9.48 96.54 8.75 C 92.48 9.07 88.90 9.82 84.70 9.47 C 87.14 9.08 90.03 9.28 92.02 7.80 C 97.51 8.27 102.90 10.21 108.17 11.76 C 108.62 11.21 109.07 10.66 109.52 10.11 C 108.11 8.62 106.75 7.10 105.46 5.50 Z" fill="#ffffff" />
<path d="M 97.54 9.77 C 98.38 9.40 101.36 9.75 100.77 11.17 C 99.34 11.04 98.26 10.57 97.54 9.77 Z" fill="#00509e" />
<path d="M 102.72 10.93 L 103.11 10.71 C 104.89 11.39 107.33 11.50 108.32 13.35 C 105.98 12.84 103.65 12.28 101.29 11.80 C 101.77 11.50 102.24 11.21 102.72 10.93 Z" fill="#00509e" />
<path d="M 85.58 17.41 C 92.08 18.21 98.55 19.30 104.99 20.44 C 111.49 21.73 118.95 23.03 124.76 26.31 C 125.26 27.36 125.52 28.57 125.83 29.69 C 124.45 29.76 123.08 29.83 121.70 29.90 C 122.17 31.22 122.63 32.55 123.09 33.88 C 122.08 34.02 121.07 34.13 120.05 34.20 C 108.14 30.38 95.12 29.55 82.72 28.36 L 83.49 29.49 C 95.24 31.30 108.73 31.51 119.95 35.98 C 120.23 37.04 120.51 38.11 120.78 39.18 C 119.67 39.44 118.55 39.70 117.43 39.96 C 117.78 41.33 118.12 42.70 118.47 44.07 C 117.66 44.57 116.85 45.06 116.04 45.56 C 104.76 41.54 92.88 41.54 80.99 41.56 C 76.07 41.98 70.93 41.28 66.10 42.19 C 63.51 43.41 61.01 44.16 58.19 44.68 C 59.89 43.84 62.64 43.84 62.83 41.56 C 70.17 40.88 77.20 41.71 84.45 40.47 C 86.07 39.51 87.50 38.18 88.96 37.00 C 85.55 33.90 81.67 31.58 77.73 29.24 C 79.62 29.31 81.51 29.46 83.40 29.42 C 82.16 27.05 79.18 27.89 77.01 27.95 C 73.27 29.30 70.01 29.63 66.03 29.56 C 68.26 29.20 70.48 28.90 72.72 28.69 L 72.34 27.29 C 77.60 27.29 82.79 27.23 87.99 28.18 C 90.84 29.03 93.61 26.84 96.17 25.75 C 93.88 23.34 91.20 21.47 88.52 19.53 C 87.54 18.83 86.56 18.12 85.58 17.41 Z" fill="#ffffff" />
<path d="M 141.85 29.18 C 143.80 30.95 145.56 32.85 147.35 34.77 C 146.53 35.46 145.72 36.15 144.90 36.84 C 142.99 35.13 141.02 33.47 139.14 31.72 C 139.29 28.95 139.26 29.54 141.85 29.18 Z" fill="#ffffff" />
<path d="M 142.44 39.09 C 141.64 39.88 140.84 40.68 140.04 41.47 C 138.10 39.92 136.00 38.50 134.19 36.79 C 134.07 35.98 134.11 35.14 134.32 34.28 C 137.71 33.22 139.92 37.35 142.44 39.09 Z" fill="#ffffff" />
<path d="M 148.14 36.34 C 151.75 38.18 155.35 39.31 158.35 41.78 C 148.99 46.94 141.03 53.96 134.09 62.04 C 132.18 64.33 130.38 66.69 128.29 68.83 C 134.60 71.35 137.46 79.81 134.75 85.86 C 132.33 92.04 125.45 95.72 118.97 94.09 C 111.87 92.52 107.09 85.10 108.72 77.97 C 110.26 70.25 118.57 65.12 126.13 67.78 C 126.73 67.26 127.33 66.73 127.93 66.20 L 126.10 64.40 C 127.77 64.50 129.43 64.59 131.09 64.67 C 130.15 62.99 129.20 61.31 128.25 59.62 C 130.14 60.12 132.04 60.61 133.94 61.08 C 133.12 59.15 132.24 57.23 131.52 55.26 C 133.23 54.74 136.09 56.31 137.84 56.61 C 136.87 54.38 135.89 52.16 134.95 49.92 C 137.19 50.73 139.43 51.58 141.66 52.43 C 140.80 50.07 139.94 47.72 139.10 45.36 C 141.60 46.37 144.10 47.39 146.61 48.36 C 145.55 45.71 144.46 43.07 143.38 40.42 C 145.93 41.80 148.48 43.19 151.08 44.49 C 150.11 41.77 149.11 39.06 148.14 36.34 Z" fill="#ffffff" />
<path d="M 131.92 39.38 C 133.93 40.85 135.88 42.40 137.84 43.91 C 137.02 44.72 136.20 45.53 135.37 46.34 C 133.35 45.05 131.37 43.70 129.54 42.14 C 130.22 41.08 131.01 40.16 131.92 39.38 Z" fill="#ffffff" />
<path d="M 69.79 43.07 C 81.31 42.70 93.08 42.72 104.53 44.15 C 108.40 45.12 113.61 45.26 116.62 48.05 C 115.81 48.61 115.00 49.17 114.20 49.73 C 114.54 50.56 114.88 51.38 115.22 52.21 C 114.55 52.68 113.84 53.04 113.08 53.28 C 110.05 52.93 107.06 52.32 104.00 52.20 C 93.89 51.65 83.80 54.02 73.74 53.74 C 77.45 53.28 78.60 52.54 81.10 49.83 C 77.64 46.95 73.54 45.45 69.79 43.07 Z" fill="#ffffff" />
<path d="M 156.08 45.09 C 159.02 48.50 162.28 53.11 162.70 57.70 C 161.39 60.58 155.46 58.08 152.99 58.31 C 148.93 59.04 145.77 60.61 141.52 59.28 C 143.98 52.37 150.32 49.09 156.08 45.09 Z" fill="#ffffff" />
<path d="M 128.85 45.95 C 130.41 46.91 131.94 47.94 133.48 48.96 C 132.74 49.84 132.00 50.72 131.27 51.60 C 129.81 50.78 128.28 50.01 126.92 49.03 C 126.09 47.24 127.57 46.74 128.85 45.95 Z" fill="#ffffff" />
<path d="M 124.94 51.88 C 126.44 52.62 127.92 53.40 129.41 54.16 C 128.87 55.09 128.32 56.02 127.77 56.95 C 126.15 56.15 123.51 55.62 122.66 53.92 C 123.09 52.98 123.85 52.30 124.94 51.88 Z" fill="#ffffff" />
<path d="M 112.26 54.58 C 112.76 55.50 113.25 56.42 113.75 57.34 C 113.05 57.87 112.35 58.40 111.65 58.93 C 112.14 59.68 112.63 60.43 113.13 61.18 C 111.78 62.43 110.99 63.11 109.02 62.92 C 102.62 62.47 96.39 62.33 90.01 63.16 C 83.92 63.53 77.81 65.07 71.73 64.73 C 72.77 64.51 73.81 64.29 74.86 64.09 C 75.73 63.06 76.60 62.02 77.47 60.99 C 73.93 59.42 70.03 58.50 66.68 56.58 C 71.22 55.80 75.85 55.59 80.47 55.09 C 91.19 54.08 101.53 52.64 112.26 54.58 Z" fill="#ffffff" />
<path d="M 126.21 59.89 C 125.74 60.62 125.26 61.34 124.76 62.05 C 123.29 62.42 120.49 61.35 121.25 59.28 C 122.75 57.50 124.52 59.38 126.21 59.89 Z" fill="#ffffff" />
<path d="M 150.00 59.97 C 151.95 59.10 153.19 59.72 154.83 60.80 C 152.76 63.38 148.99 63.61 147.16 66.07 C 149.94 66.08 152.63 66.14 155.31 66.95 C 155.05 68.03 154.80 69.13 154.55 70.22 C 158.63 69.34 158.82 66.36 160.87 63.38 C 162.68 64.26 164.16 65.07 165.17 66.88 C 167.61 70.91 170.16 75.44 170.87 80.15 C 169.90 82.21 166.76 80.81 164.99 80.86 C 162.84 80.32 160.99 83.61 158.85 83.07 C 157.12 81.94 159.43 78.82 159.87 77.25 C 156.43 79.65 153.35 82.45 150.12 85.15 C 146.76 87.22 147.84 92.74 148.26 96.02 C 148.77 93.44 148.21 90.05 149.76 87.88 C 151.40 85.51 154.05 83.76 156.18 81.85 L 157.03 84.03 C 159.97 85.50 161.78 83.83 164.33 82.57 C 165.85 84.67 166.99 88.67 164.49 90.45 C 161.66 92.02 157.44 91.00 154.31 90.87 C 154.84 91.88 155.36 92.89 155.88 93.90 C 159.70 92.66 163.21 91.00 166.72 94.00 C 165.08 96.11 163.25 98.01 161.32 99.84 C 165.65 99.69 165.21 103.60 164.60 106.63 C 163.43 109.21 160.57 109.73 158.01 109.67 C 153.68 109.57 149.26 109.80 144.97 109.20 C 141.03 108.73 137.87 105.85 136.60 102.16 C 135.28 98.65 133.68 95.54 131.66 92.38 C 134.57 89.68 136.02 86.74 137.15 82.99 C 140.22 83.03 142.37 84.72 145.04 85.93 C 143.09 83.84 140.69 82.32 138.66 80.35 C 136.93 78.62 136.44 76.54 135.71 74.31 C 137.95 70.84 139.01 67.02 140.23 63.13 C 143.67 62.52 146.79 61.29 150.00 59.97 Z" fill="#ffffff" />
<path d="M 156.95 60.90 C 157.66 61.31 158.36 61.71 159.05 62.13 C 156.98 62.73 155.08 63.66 153.17 64.65 C 154.27 63.15 155.40 61.92 156.95 60.90 Z" fill="#ffffff" />
<path d="M 110.23 64.71 C 111.09 65.88 111.96 67.04 112.83 68.20 C 111.87 69.57 110.89 70.92 109.90 72.26 C 103.39 71.02 97.52 72.21 91.01 72.92 C 85.67 73.51 80.42 74.59 75.06 74.89 C 75.21 75.52 75.37 76.16 75.52 76.80 C 80.23 75.61 85.19 75.20 90.01 74.51 C 96.50 73.77 102.24 72.20 108.80 73.51 C 107.84 76.05 107.24 78.37 106.98 81.08 C 100.90 81.28 94.95 81.66 89.04 83.19 C 82.55 84.86 75.86 86.13 69.48 88.13 L 68.70 89.37 C 81.83 86.98 93.52 82.35 107.13 82.49 C 107.44 83.72 107.75 84.95 108.07 86.18 C 97.75 89.55 87.29 92.45 77.00 95.90 C 73.41 97.21 69.81 98.73 66.43 100.52 C 66.03 101.18 65.66 101.86 65.32 102.55 C 62.96 104.01 60.55 105.40 58.13 106.76 C 59.93 105.38 61.83 104.15 63.63 102.78 L 63.27 101.04 C 67.09 99.21 70.89 97.37 74.84 95.80 C 76.66 95.21 76.91 94.36 77.67 92.68 C 74.62 91.63 71.49 90.98 68.31 90.51 L 68.94 88.03 C 66.53 88.95 64.12 89.84 61.75 90.82 C 60.60 93.49 57.45 94.59 55.04 95.90 C 56.60 94.45 59.60 93.37 59.49 90.99 C 63.93 89.07 68.30 87.55 73.02 86.44 C 75.47 86.16 76.61 83.17 78.08 81.49 C 74.00 80.06 69.85 79.85 65.65 78.93 C 67.75 77.13 71.49 77.39 74.09 77.09 C 74.29 76.48 74.48 75.87 74.67 75.26 C 70.01 75.87 65.43 76.76 60.90 78.00 C 59.78 80.74 55.38 81.58 52.92 82.78 C 54.64 81.33 58.70 80.59 58.58 78.04 C 64.98 75.81 71.56 75.21 78.16 73.89 L 77.52 72.44 C 74.46 70.17 70.12 69.30 66.64 67.57 C 71.03 66.70 75.53 66.37 79.97 65.75 C 90.17 64.57 99.97 63.02 110.23 64.71 Z" fill="#ffffff" />
<path d="M 122.92 65.31 C 122.89 67.09 119.99 66.38 119.52 65.16 C 120.40 64.15 122.25 64.02 122.92 65.31 Z" fill="#ffffff" />
<path d="M 126.74 69.49 C 126.54 70.24 126.33 70.99 126.12 71.74 C 123.44 71.07 120.99 71.25 118.28 71.52 L 117.25 69.64 C 120.69 68.65 123.26 68.69 126.74 69.49 Z" fill="#00509e" />
<path d="M 116.05 70.28 L 117.58 71.96 C 115.25 73.72 113.67 75.91 112.16 78.38 C 112.34 81.06 112.90 83.44 113.72 85.99 C 113.40 86.61 112.83 87.16 112.02 87.62 C 108.68 81.55 110.10 74.08 116.05 70.28 Z" fill="#00509e" />
<path d="M 127.90 70.10 C 134.08 74.08 135.58 81.88 131.83 88.08 C 131.11 87.77 130.39 87.46 129.66 87.14 C 130.98 84.59 132.05 82.11 131.84 79.17 C 131.09 76.13 129.10 74.29 127.04 72.13 L 127.90 70.10 Z" fill="#00509e" />
<path d="M 119.08 74.42 C 120.20 75.52 121.31 76.64 122.41 77.75 C 123.40 76.60 124.45 75.58 125.62 74.61 C 125.36 76.14 125.07 77.65 124.74 79.16 C 126.30 79.24 127.86 79.34 129.41 79.46 C 128.12 80.38 126.77 81.18 125.38 81.93 C 126.30 83.21 127.22 84.49 128.13 85.78 C 126.60 85.23 125.07 84.67 123.54 84.11 C 123.19 85.51 122.81 86.90 122.41 88.29 C 121.48 87.03 121.23 85.59 120.85 84.10 C 119.34 84.64 117.82 85.17 116.30 85.69 C 117.21 84.42 118.12 83.16 119.04 81.91 C 117.69 81.05 116.34 80.20 115.01 79.32 C 116.57 79.25 118.14 79.18 119.70 79.13 C 119.49 77.56 119.28 75.99 119.08 74.42 Z" fill="#00509e" />
<path d="M 114.39 87.29 C 116.72 88.50 118.83 89.97 121.35 90.89 L 120.88 92.75 C 117.37 92.17 114.99 90.83 112.69 88.13 L 114.39 87.29 Z" fill="#00509e" />
<path d="M 108.23 87.36 L 109.74 88.92 C 102.09 94.87 93.84 99.98 85.05 104.06 C 81.10 105.87 77.47 108.14 73.66 110.20 L 73.54 111.88 C 71.78 113.87 69.40 115.40 67.27 116.98 C 68.68 115.28 71.88 113.53 71.54 111.12 C 74.54 108.81 77.81 106.96 80.98 104.91 C 82.03 104.29 82.43 103.31 83.01 102.30 C 79.64 100.95 76.16 100.26 72.59 99.69 C 73.35 98.99 74.18 98.46 75.09 98.10 C 86.05 94.17 96.90 90.09 108.23 87.36 Z" fill="#ffffff" />
<path d="M 129.01 87.87 L 130.92 89.02 C 128.07 91.46 125.95 92.37 122.25 92.87 C 122.24 92.13 122.22 91.40 122.21 90.67 C 124.76 90.19 126.80 89.14 129.01 87.87 Z" fill="#00509e" />
<path d="M 109.98 89.88 C 111.61 91.47 113.28 92.88 115.13 94.20 C 112.08 103.21 103.22 110.10 95.05 114.30 C 95.75 114.58 96.45 114.85 97.15 115.13 C 103.39 110.93 109.29 106.72 113.76 100.54 C 113.33 109.72 108.31 117.46 103.36 124.87 C 103.65 121.72 103.88 118.57 103.99 115.41 C 101.65 115.64 99.31 115.93 96.97 116.19 C 95.93 115.80 94.89 115.40 93.84 115.02 C 92.66 115.76 91.48 116.49 90.28 117.19 C 90.76 114.56 91.34 111.96 91.89 109.34 C 88.40 108.41 84.86 108.00 81.31 107.37 C 91.65 102.66 101.38 97.42 109.98 89.88 Z" fill="#ffffff" />
<path d="M 130.73 93.17 C 133.95 98.75 136.20 104.27 137.68 110.55 C 135.83 110.16 133.99 109.75 132.15 109.28 C 131.05 104.24 129.03 99.42 128.10 94.36 C 128.97 93.94 129.85 93.55 130.73 93.17 Z" fill="#ffffff" />
<path d="M 117.95 95.29 C 118.94 95.44 119.93 95.60 120.92 95.75 C 120.85 102.18 120.82 108.60 120.88 115.02 C 118.67 116.67 116.55 118.41 114.63 120.39 C 113.48 120.49 112.33 120.58 111.18 120.67 C 110.86 119.88 110.55 119.08 110.23 118.28 C 110.92 118.37 111.61 118.46 112.30 118.55 L 113.64 119.68 C 115.40 114.09 114.68 107.80 116.31 102.13 C 116.70 100.81 116.66 99.50 116.63 98.14 C 117.07 97.19 117.51 96.24 117.95 95.29 Z" fill="#ffffff" />
<path d="M 123.39 95.89 L 126.52 94.94 L 126.82 95.81 C 128.38 100.27 129.57 104.83 131.24 109.25 C 129.92 111.78 128.52 114.26 127.11 116.74 C 126.45 111.94 125.41 107.23 124.23 102.53 C 123.77 100.43 123.09 98.04 123.39 95.89 Z" fill="#ffffff" />
<path d="M 122.28 101.28 L 122.61 101.14 C 123.44 106.53 124.91 111.78 125.80 117.16 C 124.42 116.50 123.05 115.84 121.67 115.17 C 121.75 110.53 121.86 105.90 122.28 101.28 Z" fill="#ffffff" />
<path d="M 138.54 107.96 C 139.50 108.52 140.46 109.07 141.44 109.60 C 144.46 110.88 147.60 111.22 150.84 111.52 C 146.56 114.55 145.29 118.92 142.77 123.23 C 141.26 119.35 139.53 115.74 139.48 111.48 C 139.19 110.30 138.87 109.12 138.54 107.96 Z" fill="#ffffff" />
<path d="M 105.64 125.43 C 108.09 125.96 110.52 126.53 112.94 127.18 C 112.88 130.25 110.97 132.01 109.23 134.30 C 108.12 131.30 106.95 128.34 105.64 125.43 Z" fill="#ffffff" />
<path d="M 99.68 132.45 C 102.88 133.34 106.08 134.09 109.35 134.62 C 107.23 137.28 105.12 139.96 102.95 142.59 C 102.07 139.14 100.92 135.78 99.68 132.45 Z" fill="#ffffff" />
<path d="M 93.18 139.19 C 94.26 139.65 95.34 140.11 96.42 140.57 C 98.49 141.42 100.60 142.18 102.72 142.92 C 101.27 144.54 99.80 146.13 98.30 147.69 C 96.61 144.85 94.90 142.02 93.18 139.19 Z" fill="#ffffff" />
<path d="M 17.00 161.65 C 19.05 161.64 21.09 161.65 23.14 161.65 C 23.15 164.48 23.15 167.31 23.19 170.13 L 24.93 169.78 C 27.22 167.37 28.78 164.22 30.86 161.60 C 33.24 161.63 35.61 161.64 37.99 161.65 C 35.40 165.34 32.71 168.94 30.15 172.65 C 32.97 176.44 35.88 180.18 38.58 184.05 C 36.14 184.06 33.70 184.05 31.25 184.04 C 29.40 181.46 27.66 178.78 25.71 176.28 C 25.19 175.48 24.36 175.06 23.22 175.02 C 23.14 178.03 23.14 181.04 23.15 184.05 C 21.10 184.05 19.05 184.05 17.00 184.05 C 17.00 176.58 17.00 169.11 17.00 161.65 Z" fill="#00509e" />
<path d="M 46.28 161.78 C 49.47 161.57 52.60 161.58 55.79 161.78 C 57.80 169.26 60.28 176.61 62.36 184.06 C 60.36 184.05 58.36 184.04 56.36 184.02 C 55.93 182.71 55.51 181.40 55.08 180.10 C 52.45 180.13 49.81 180.14 47.18 180.15 C 46.73 181.45 46.29 182.75 45.85 184.05 C 43.82 184.05 41.79 184.05 39.76 184.04 C 41.87 176.61 44.41 169.28 46.28 161.78 Z" fill="#00509e" />
<path d="M 70.24 161.78 C 73.43 161.58 76.56 161.58 79.76 161.78 C 81.70 169.27 84.27 176.59 86.36 184.05 C 84.35 184.05 82.33 184.05 80.32 184.03 C 79.90 182.72 79.48 181.41 79.06 180.10 C 76.42 180.13 73.77 180.14 71.13 180.15 C 70.70 181.45 70.26 182.75 69.84 184.05 C 67.81 184.05 65.79 184.05 63.77 184.04 C 65.81 176.59 68.37 169.27 70.24 161.78 Z" fill="#00509e" />
<path d="M 97.33 162.35 C 101.27 161.11 105.96 161.40 110.03 161.80 C 113.65 162.47 113.95 165.26 114.29 168.38 C 112.41 168.41 110.53 168.43 108.65 168.45 C 108.00 167.70 107.34 166.95 106.69 166.20 C 104.67 166.34 101.88 165.79 100.32 167.29 C 99.35 170.32 99.36 174.80 100.14 177.88 C 101.85 180.31 105.38 179.41 107.78 178.73 C 107.86 177.64 107.95 176.54 108.03 175.44 C 106.67 175.45 105.32 175.47 103.96 175.48 C 103.96 174.14 103.96 172.80 103.96 171.46 C 107.34 171.44 110.73 171.44 114.11 171.47 C 114.09 174.26 114.30 177.16 113.85 179.92 C 113.11 182.68 110.78 184.04 108.02 184.09 C 104.35 184.21 99.55 184.72 96.27 182.79 C 92.99 180.63 93.91 176.36 93.71 173.00 C 93.89 168.78 92.85 164.65 97.33 162.35 Z" fill="#00509e" />
<path d="M 118.01 161.68 C 123.41 161.61 128.81 161.64 134.20 161.65 C 134.20 163.20 134.20 164.76 134.20 166.31 C 130.85 166.32 127.50 166.32 124.15 166.33 C 124.08 167.77 124.02 169.21 123.95 170.64 C 127.19 170.81 130.42 170.84 133.66 170.79 C 133.63 172.13 133.60 173.46 133.58 174.80 C 130.41 174.79 127.23 174.80 124.06 174.84 C 124.06 176.28 124.06 177.72 124.06 179.16 C 127.55 179.19 131.04 179.19 134.52 179.21 C 134.55 180.80 134.57 182.38 134.59 183.97 C 129.08 184.14 123.57 184.01 118.06 184.06 C 118.06 176.60 118.13 169.14 118.01 161.68 Z" fill="#00509e" />
<path d="M 138.69 161.66 C 142.08 161.62 145.46 161.62 148.85 161.71 C 150.47 166.19 152.22 170.61 153.79 175.11 C 154.19 176.39 154.69 177.31 155.58 178.29 C 155.73 172.76 155.28 167.21 155.06 161.69 C 157.07 161.66 159.08 161.65 161.08 161.63 C 161.09 169.11 161.09 176.58 161.08 184.05 C 157.71 184.05 154.34 184.05 150.98 184.05 C 148.61 178.37 147.02 172.32 144.34 166.79 C 144.04 172.53 144.54 178.31 144.51 184.06 C 142.58 184.06 140.65 184.05 138.72 184.05 C 138.69 176.59 138.73 169.13 138.69 161.66 Z" fill="#00509e" />
<path d="M 164.32 161.67 C 170.22 161.62 176.11 161.64 182.01 161.65 C 182.00 163.34 181.99 165.03 181.98 166.72 C 180.00 166.73 178.03 166.75 176.05 166.78 C 176.04 172.54 176.06 178.30 176.04 184.05 C 174.02 184.05 172.00 184.05 169.98 184.05 C 169.89 178.25 170.15 172.45 169.87 166.66 C 168.03 166.68 166.20 166.70 164.37 166.71 C 164.35 165.03 164.33 163.35 164.32 161.67 Z" fill="#00509e" />
<path d="M 51.41 166.70 C 52.32 169.74 53.13 172.82 54.02 175.87 C 52.13 175.91 50.24 175.95 48.35 175.98 C 49.36 173.04 49.47 169.18 51.41 166.70 Z" fill="#ffffff" />
<path d="M 75.41 166.72 C 76.28 169.77 77.09 172.84 78.03 175.88 C 76.13 175.92 74.22 175.95 72.32 175.99 C 73.37 173.12 73.40 169.05 75.41 166.72 Z" fill="#ffffff" />
<path d="M 62.09 194.98 C 60.95 194.99 59.86 194.61 58.81 193.84 L 57.53 195.10 C 58.43 196.57 61.69 195.61 62.11 198.03 L 61.08 200.00 L 56.97 200.00 L 55.83 197.86 C 57.95 198.55 59.06 199.68 61.18 198.02 C 59.92 197.40 58.56 197.00 57.11 196.82 C 56.67 196.19 56.23 195.55 55.79 194.92 C 57.70 192.45 60.32 192.26 62.09 194.98 Z" fill="#00509e" />
<path d="M 62.68 193.37 C 64.78 193.24 66.89 193.22 68.99 193.25 C 68.10 193.77 67.21 194.29 66.31 194.80 C 66.31 196.53 66.31 198.27 66.31 200.00 L 65.00 200.00 C 65.00 198.22 64.99 196.45 64.96 194.67 C 64.18 194.27 63.42 193.83 62.68 193.37 Z" fill="#00509e" />
<path d="M 72.54 193.14 C 73.44 195.38 74.25 197.67 75.12 199.92 C 72.88 199.43 71.35 198.09 69.45 200.00 L 68.57 200.00 C 69.57 198.18 69.70 192.75 72.54 193.14 Z" fill="#00509e" />
<path d="M 76.44 193.18 C 78.64 193.20 78.53 193.97 79.59 195.74 C 78.82 196.06 78.04 196.37 77.26 196.68 C 77.33 197.79 77.40 198.89 77.46 200.00 L 76.33 200.00 C 76.32 197.72 76.32 195.46 76.44 193.18 Z" fill="#00509e" />
<path d="M 82.44 193.31 C 83.00 193.31 83.56 193.31 84.11 193.31 C 84.11 195.54 84.11 197.77 84.10 200.00 L 82.75 200.00 C 83.28 198.84 83.31 197.50 82.85 195.99 C 81.69 196.72 80.87 198.68 81.16 200.00 L 79.99 200.00 L 78.58 198.13 C 80.54 196.73 81.44 195.50 82.44 193.31 Z" fill="#00509e" />
<path d="M 86.31 193.16 C 89.16 192.82 89.67 196.45 91.12 198.22 C 91.65 196.74 90.04 193.06 92.53 193.17 C 92.51 195.45 92.47 197.72 92.42 200.00 L 90.39 200.00 C 89.47 198.20 88.54 196.44 87.31 194.83 C 87.26 196.55 87.25 198.28 87.24 200.00 L 86.13 200.00 C 86.13 197.72 86.14 195.44 86.31 193.16 Z" fill="#00509e" />
<path d="M 94.43 193.36 L 95.77 193.27 C 95.81 195.17 95.86 197.07 95.92 198.98 C 96.90 198.93 97.87 198.89 98.85 198.84 C 98.91 196.96 98.96 195.09 99.02 193.21 L 99.98 193.22 C 100.03 195.55 100.27 197.75 99.48 200.00 L 94.89 200.00 C 94.45 197.80 94.39 195.59 94.43 193.36 Z" fill="#00509e" />
<path d="M 102.19 193.08 C 104.90 193.06 104.63 195.29 105.40 197.24 C 106.16 197.20 106.92 197.16 107.68 197.11 C 107.31 198.08 106.93 199.04 106.55 200.00 L 104.99 200.00 C 105.36 198.54 104.54 196.79 103.24 196.06 C 102.87 197.53 102.93 198.84 103.42 200.00 L 101.97 200.00 C 102.00 197.69 102.02 195.39 102.19 193.08 Z" fill="#00509e" />
<path d="M 107.33 193.51 L 109.83 193.26 C 110.06 195.47 110.03 197.77 110.03 200.00 L 108.89 200.00 C 109.07 197.32 108.55 195.82 107.33 193.51 Z" fill="#00509e" />
<path d="M 112.16 193.06 C 114.42 192.76 115.05 196.37 115.98 197.90 C 117.20 195.62 116.61 193.27 119.76 193.03 C 119.89 195.35 119.95 197.67 119.95 200.00 L 118.69 200.00 C 118.76 198.53 118.81 197.07 118.84 195.60 C 117.63 196.90 117.01 198.40 116.33 200.00 L 114.89 200.00 C 115.29 198.56 114.45 196.82 113.21 196.04 C 112.79 197.52 112.83 198.84 113.33 200.00 L 111.97 200.00 C 111.98 197.68 111.99 195.37 112.16 193.06 Z" fill="#00509e" />
<path d="M 121.95 193.25 C 123.55 193.21 125.17 193.24 126.78 193.33 C 125.39 194.32 122.91 193.85 122.77 195.91 C 123.88 195.95 124.99 195.99 126.09 196.02 L 126.08 197.02 C 125.06 197.06 124.04 197.11 123.02 197.15 L 123.00 198.71 C 124.51 198.95 125.78 199.28 127.13 200.00 L 121.82 200.00 C 121.79 197.73 121.75 195.52 121.95 193.25 Z" fill="#00509e" />
<path d="M 128.24 193.32 C 129.89 193.40 132.72 192.52 133.59 194.35 C 133.57 196.23 133.54 198.11 133.66 200.00 L 132.41 200.00 C 133.20 197.19 128.02 197.09 129.47 200.00 L 128.11 200.00 C 128.12 197.78 128.11 195.53 128.24 193.32 Z" fill="#00509e" />
<path d="M 137.71 193.31 C 139.55 193.22 141.39 193.22 143.23 193.25 C 142.61 195.69 141.51 197.86 140.21 200.00 L 138.83 200.00 C 139.89 198.18 140.84 196.28 141.83 194.42 C 140.23 194.10 138.82 194.63 137.71 193.31 Z" fill="#00509e" />
<path d="M 130.20 194.26 C 131.01 193.85 131.76 194.13 132.43 195.09 C 133.40 196.84 129.17 197.76 129.31 195.92 C 129.16 194.86 129.46 194.30 130.20 194.26 Z" fill="#ffffff" />
<path d="M 71.78 195.08 C 72.95 195.54 73.45 197.89 71.99 198.28 C 70.53 198.14 70.37 195.33 71.78 195.08 Z" fill="#ffffff" />
<path d="M 87.31 194.83 C 88.54 196.44 89.47 198.20 90.39 200.00 L 87.24 200.00 C 87.25 198.28 87.26 196.55 87.31 194.83 Z" fill="#ffffff" />
<path d="M 82.85 195.99 C 83.31 197.50 83.28 198.84 82.75 200.00 L 81.16 200.00 C 80.87 198.68 81.69 196.72 82.85 195.99 Z" fill="#ffffff" />
<path d="M 103.24 196.06 C 104.54 196.79 105.36 198.54 104.99 200.00 L 103.42 200.00 C 102.93 198.84 102.87 197.53 103.24 196.06 Z" fill="#ffffff" />
<path d="M 113.21 196.04 C 114.45 196.82 115.29 198.56 114.89 200.00 L 113.33 200.00 C 112.83 198.84 112.79 197.52 113.21 196.04 Z" fill="#ffffff" />
<path d="M 118.84 195.60 C 118.81 197.07 118.76 198.53 118.69 200.00 L 116.33 200.00 C 117.01 198.40 117.63 196.90 118.84 195.60 Z" fill="#ffffff" />
<path d="M 132.41 200.00 L 129.47 200.00 C 128.02 197.09 133.20 197.19 132.41 200.00 Z" fill="#ffffff" />
</svg>