<?xml version="1.0" encoding="UTF-8" standalone="no"?>
<!DOCTYPE svg PUBLIC "-//W3C//DTD SVG 1.1//EN" "http://www.w3.org/Graphics/SVG/1.1/DTD/svg11.dtd">
<svg xmlns="http://www.w3.org/2000/svg" version="1.1" viewBox="0 0 200 200" width="200.0pt" height="200.0pt">
<path d="M 0.00 0.00 L 94.26 0.00 C 80.51 1.08 67.07 4.41 54.77 10.77 C 30.09 23.21 11.15 46.15 3.72 72.79 C 1.64 79.74 0.80 86.79 0.00 93.97 L 0.00 0.00 Z" fill="#ffffff" />
<path d="M 94.26 0.00 L 106.03 0.00 L 106.74 0.13 C 120.12 1.17 133.25 4.62 145.22 10.78 C 167.25 21.92 184.80 41.41 193.51 64.51 C 196.27 71.76 198.13 79.31 199.19 86.99 C 199.49 89.10 199.36 91.38 200.00 93.42 L 200.00 106.89 C 199.28 108.77 199.52 111.02 199.19 113.01 C 197.36 126.23 193.06 139.21 186.16 150.66 C 185.50 149.82 185.34 149.01 185.68 148.23 C 198.26 126.14 201.43 99.50 195.10 74.98 C 188.24 48.39 169.69 25.32 145.30 12.72 C 123.60 1.25 97.63 -1.26 74.02 5.10 C 52.07 11.09 32.55 24.89 19.50 43.51 C 8.76 58.76 2.29 77.35 1.83 96.00 C 0.91 114.21 5.38 132.36 14.28 148.27 C 14.42 148.74 14.55 149.21 14.66 149.68 L 13.36 150.11 C 5.50 136.32 1.19 121.55 0.00 105.73 L 0.00 93.97 C 0.80 86.79 1.64 79.74 3.72 72.79 C 11.15 46.15 30.09 23.21 54.77 10.77 C 67.07 4.41 80.51 1.08 94.26 0.00 Z" fill="#1671bb" />
<path d="M 106.03 0.00 L 200.00 0.00 L 200.00 93.42 C 199.36 91.38 199.49 89.10 199.19 86.99 C 198.13 79.31 196.27 71.76 193.51 64.51 C 184.80 41.41 167.25 21.92 145.22 10.78 C 133.25 4.62 120.12 1.17 106.74 0.13 L 106.03 0.00 Z" fill="#ffffff" />
<path d="M 145.30 12.72 C 169.69 25.32 188.24 48.39 195.10 74.98 C 201.43 99.50 198.26 126.14 185.68 148.23 C 185.12 147.98 184.56 147.71 184.01 147.44 C 197.41 124.77 200.14 95.84 192.14 70.84 C 181.80 37.43 152.49 11.23 118.02 5.09 C 102.99 2.05 86.85 3.03 72.18 7.42 C 44.99 15.43 22.09 35.96 11.08 62.07 C -0.59 89.05 0.92 122.12 16.00 147.46 C 15.43 147.74 14.86 148.01 14.28 148.27 C 5.38 132.36 0.91 114.21 1.83 96.00 C 2.29 77.35 8.76 58.76 19.50 43.51 C 32.55 24.89 52.07 11.09 74.02 5.10 C 97.63 -1.26 123.60 1.25 145.30 12.72 Z" fill="#d5e6f3" />
<path d="M 118.02 5.09 C 152.49 11.23 181.80 37.43 192.14 70.84 C 200.14 95.84 197.41 124.77 184.01 147.44 C 181.26 145.93 177.40 144.07 174.70 146.70 C 172.35 149.00 173.77 151.22 173.21 153.94 C 166.94 152.48 160.67 150.30 154.55 148.31 C 166.08 135.54 172.42 118.82 172.99 101.67 C 173.97 102.90 174.51 105.44 176.06 105.94 C 174.29 95.65 174.18 85.92 171.11 75.94 C 169.01 70.19 168.10 64.83 164.03 59.97 C 162.47 57.94 160.64 56.88 158.25 56.06 C 149.08 44.02 136.32 34.86 121.84 30.37 C 106.02 25.35 88.54 25.98 73.13 32.15 C 60.70 37.03 49.80 45.42 41.72 56.05 C 36.40 57.62 33.53 62.81 31.64 67.65 C 29.49 74.12 27.26 80.15 26.45 86.99 C 25.56 93.31 24.96 99.61 23.89 105.90 C 25.21 105.80 25.51 103.81 26.27 102.87 L 26.55 102.74 L 27.12 103.92 C 28.00 120.20 34.44 136.20 45.41 148.30 C 43.96 149.08 42.40 149.38 40.83 149.83 C 36.06 151.07 31.69 153.11 26.80 153.94 C 26.05 151.87 27.49 149.14 25.76 147.30 C 23.29 143.94 18.86 145.62 16.00 147.46 C 0.92 122.12 -0.59 89.05 11.08 62.07 C 22.09 35.96 44.99 15.43 72.18 7.42 C 86.85 3.03 102.99 2.05 118.02 5.09 Z" fill="#0069b7" />
<path d="M 89.30 11.37 C 90.21 11.24 91.12 11.12 92.03 11.02 C 92.53 13.53 93.15 16.19 92.93 18.75 C 93.46 18.85 94.00 18.89 94.56 18.88 C 94.30 16.29 94.14 13.70 94.17 11.10 C 95.10 10.89 96.03 10.85 96.93 10.96 C 97.18 13.87 97.27 16.78 97.52 19.68 C 97.25 20.20 96.73 20.54 95.96 20.71 C 94.86 19.21 93.08 19.60 91.91 20.79 C 89.37 21.68 88.15 17.98 86.06 16.95 C 86.31 18.45 86.49 19.94 86.59 21.42 L 84.90 21.91 L 83.49 21.54 C 83.30 18.61 82.87 15.72 82.25 12.85 C 82.91 12.09 84.07 11.86 85.74 12.16 C 87.14 13.35 87.89 15.07 89.64 15.69 C 89.36 14.20 89.25 12.76 89.30 11.37 Z" fill="#ffffff" />
<path d="M 98.96 10.72 C 101.69 10.86 104.43 10.89 107.17 10.96 L 107.60 12.01 L 107.08 13.25 C 106.19 13.27 105.31 13.33 104.44 13.43 C 104.39 15.71 104.46 18.01 104.28 20.28 C 103.10 20.53 101.98 20.49 100.92 20.16 C 100.84 17.86 101.13 15.54 100.97 13.25 C 100.02 13.16 99.09 13.00 98.18 12.76 C 97.97 11.55 98.23 10.87 98.96 10.72 Z" fill="#fffffe" />
<path d="M 109.18 11.22 C 111.40 11.77 115.42 11.25 116.97 12.89 L 116.48 14.65 C 114.96 14.47 113.44 14.27 111.92 14.05 C 112.21 16.53 114.47 14.59 115.78 16.14 C 115.92 19.12 113.47 17.43 111.66 17.63 L 111.72 18.81 C 113.93 19.33 116.39 17.97 116.12 21.26 C 114.03 22.27 110.57 20.64 108.14 20.71 C 107.71 17.93 108.69 14.12 109.18 11.22 Z" fill="#ffffff" />
<path d="M 80.68 13.14 C 80.87 15.86 83.34 19.36 81.80 21.79 C 79.98 23.38 74.79 25.21 73.17 22.76 C 72.47 20.51 71.20 17.64 71.26 15.35 C 72.17 14.93 73.06 14.77 73.93 14.85 C 75.12 16.50 74.85 19.13 76.15 20.84 C 77.30 21.18 78.22 20.84 78.93 19.84 C 78.74 17.79 77.84 15.82 77.39 13.82 C 78.60 13.04 79.70 12.82 80.68 13.14 Z" fill="#fffeff" />
<path d="M 118.92 12.87 C 121.32 13.10 124.71 13.85 126.65 15.35 C 129.70 18.01 127.71 23.17 123.85 23.60 C 121.54 23.56 119.21 22.48 116.94 22.02 L 116.52 21.17 C 117.34 18.41 118.00 15.60 118.92 12.87 Z" fill="#ffffff" />
<path d="M 121.50 16.36 C 122.58 16.46 123.64 16.90 124.57 17.44 C 125.34 18.77 124.58 19.70 123.60 20.59 C 122.41 20.54 121.40 20.49 120.52 19.58 C 120.79 18.49 121.16 17.43 121.50 16.36 Z" fill="#0064b5" />
<path d="M 65.02 17.70 C 67.02 19.61 68.08 23.54 69.57 26.05 C 68.69 26.64 67.78 27.17 66.82 27.64 C 66.09 26.78 65.49 25.79 65.01 24.68 C 64.11 24.56 63.16 24.97 62.16 25.92 C 62.68 26.93 63.18 27.95 63.67 28.97 C 62.82 29.57 61.91 30.04 60.96 30.39 C 59.39 28.35 57.61 24.50 56.71 22.05 C 57.42 21.41 58.24 20.89 59.17 20.49 C 59.90 21.22 60.51 22.13 60.98 23.22 C 61.90 23.31 62.85 22.92 63.84 22.06 C 63.31 21.08 62.84 20.08 62.43 19.05 C 63.29 18.59 64.15 18.14 65.02 17.70 Z" fill="#ffffff" />
<path d="M 134.99 17.65 C 137.25 18.89 139.76 19.75 141.93 21.11 C 141.92 21.85 141.58 22.53 140.92 23.15 C 139.31 22.68 137.91 21.68 136.28 21.23 C 135.75 23.81 139.67 22.50 139.12 24.92 C 138.35 27.11 136.44 24.84 135.07 24.74 C 134.60 25.86 133.97 26.81 133.20 27.58 C 132.13 27.21 131.32 26.66 130.78 25.90 C 132.05 23.29 133.13 19.77 134.99 17.65 Z" fill="#fefefe" />
<path d="M 54.03 23.55 L 55.98 25.25 C 54.57 26.24 52.95 26.37 51.67 27.64 C 50.34 28.80 50.52 31.11 52.12 31.96 C 53.34 32.63 55.72 31.69 56.05 30.33 C 54.44 30.53 53.53 30.06 53.31 28.91 C 54.47 27.94 55.72 27.03 57.05 26.31 C 58.01 27.47 58.79 28.77 59.70 29.98 C 58.71 32.55 54.76 34.86 52.01 35.26 C 48.88 34.97 46.37 30.97 48.07 28.08 C 49.34 25.80 51.80 24.67 54.03 23.55 Z" fill="#ffffff" />
<path d="M 142.40 24.42 C 144.80 22.22 148.81 24.37 150.59 26.44 C 153.45 29.14 150.48 34.35 147.02 34.53 C 144.66 34.31 142.43 32.86 140.97 31.04 C 139.36 28.82 140.45 26.01 142.40 24.42 Z" fill="#ffffff" />
<path d="M 145.48 26.57 C 146.73 26.64 147.73 27.45 148.35 28.51 C 148.75 30.71 146.12 32.27 144.46 30.46 C 142.74 29.17 143.78 27.22 145.48 26.57 Z" fill="#0067b6" />
<path d="M 121.84 30.37 C 136.32 34.86 149.08 44.02 158.25 56.06 C 157.02 57.20 155.34 58.30 154.89 60.00 C 154.63 63.53 155.61 67.44 154.78 70.87 C 153.03 74.36 150.57 77.42 146.67 78.54 C 144.01 77.62 145.54 73.32 148.52 74.17 C 147.83 75.19 145.84 75.90 146.03 77.24 C 149.15 77.34 151.69 74.43 152.65 71.69 C 154.14 69.11 152.65 65.84 153.57 62.96 C 153.05 61.19 154.07 60.06 153.66 58.45 C 154.89 57.62 156.21 56.95 155.71 55.24 C 152.69 55.43 151.04 57.17 150.73 60.17 C 149.87 59.48 148.81 58.85 148.18 57.95 C 148.25 56.82 149.49 54.59 148.11 53.94 C 146.14 52.87 145.74 51.08 144.35 49.48 C 143.28 49.20 142.66 50.03 141.86 50.60 C 140.03 52.20 134.35 51.15 134.63 54.34 L 135.77 54.85 C 138.41 53.55 141.06 53.77 143.87 53.32 C 141.43 54.42 138.68 55.39 136.10 56.18 C 134.22 55.26 133.66 53.72 132.02 56.06 C 132.73 58.14 133.61 59.67 135.87 60.27 C 137.83 60.97 138.04 61.45 137.67 63.48 C 136.84 63.45 136.01 63.42 135.18 63.39 C 134.74 63.78 134.42 64.28 134.21 64.88 C 135.64 65.81 137.16 65.41 138.78 65.48 C 138.43 65.86 138.06 66.22 137.67 66.57 C 135.92 67.04 133.84 66.50 132.19 67.23 C 129.14 68.98 128.02 72.54 128.50 75.88 C 128.84 77.34 126.29 78.14 125.46 79.12 L 125.89 77.81 C 124.97 76.92 123.63 76.24 123.06 75.10 C 124.32 75.29 125.53 75.64 126.80 75.76 L 127.00 75.00 C 127.16 73.01 128.00 70.12 126.40 68.59 C 122.78 65.96 117.86 68.01 115.26 71.09 C 105.09 71.23 94.88 71.25 84.70 71.08 C 82.79 68.84 80.04 67.51 77.12 67.31 C 75.41 67.61 73.31 68.08 72.74 69.97 C 72.71 72.04 72.54 73.94 72.16 75.98 L 72.84 75.89 C 74.23 75.73 75.55 75.29 76.92 75.07 C 76.35 76.22 75.07 76.86 74.12 77.77 L 74.52 79.00 C 73.58 78.17 72.13 77.71 71.48 76.66 C 71.42 73.70 71.56 70.09 68.96 68.07 C 67.00 66.17 64.60 67.03 62.08 66.71 C 62.82 64.73 65.72 66.64 65.30 64.07 C 65.00 62.82 63.29 63.66 62.33 63.49 C 62.01 61.51 62.17 60.94 64.12 60.25 C 66.40 59.65 67.21 58.12 67.98 56.07 C 67.48 55.36 66.89 54.91 66.20 54.73 C 65.44 55.22 64.67 55.70 63.90 56.17 C 61.26 55.50 58.70 54.28 56.14 53.34 C 58.94 53.89 61.54 53.49 64.20 54.85 L 65.34 54.34 C 65.55 51.14 60.01 52.21 58.15 50.62 C 57.50 50.06 56.81 49.62 56.07 49.29 C 54.13 50.55 54.14 52.86 51.88 53.93 C 50.44 54.60 51.74 56.81 51.83 57.97 C 51.05 58.78 50.12 59.47 49.23 60.17 C 49.41 57.71 45.96 53.84 43.71 55.99 C 44.54 56.90 45.16 57.89 46.30 58.47 C 46.02 60.08 46.87 61.20 46.37 62.96 C 47.36 65.95 45.79 69.07 47.35 71.72 C 48.09 74.23 51.37 78.00 54.22 77.00 C 53.17 75.56 51.65 74.64 50.63 73.15 C 52.14 73.56 53.50 74.20 54.49 75.44 C 54.72 76.77 54.83 78.00 53.36 78.56 C 49.49 77.71 46.90 74.22 45.21 70.88 C 44.44 67.42 45.28 63.54 45.13 60.00 C 44.67 58.31 42.96 57.18 41.72 56.05 C 49.80 45.42 60.70 37.03 73.13 32.15 C 88.54 25.98 106.02 25.35 121.84 30.37 Z" fill="#fefefe" />
<path d="M 44.09 30.14 C 45.99 31.94 48.73 34.50 49.56 37.00 C 48.78 39.55 45.66 42.48 42.98 42.68 C 40.75 41.68 39.30 39.14 37.56 37.46 C 36.14 36.28 38.48 35.42 39.11 34.60 C 41.00 35.72 42.01 38.28 44.01 39.25 C 45.07 38.81 46.65 37.69 45.55 36.45 C 44.49 34.97 42.70 33.71 41.97 32.09 C 42.64 31.41 43.35 30.76 44.09 30.14 Z" fill="#fefefe" />
<path d="M 153.39 31.40 C 156.18 29.72 159.65 32.64 161.12 34.91 C 163.47 38.39 158.92 43.58 155.13 41.83 C 153.14 40.80 151.29 39.21 150.47 37.07 C 149.89 34.62 151.51 32.69 153.39 31.40 Z" fill="#ffffff" />
<path d="M 155.29 34.24 C 157.46 33.91 159.75 36.78 157.53 38.46 C 154.90 40.19 151.81 35.74 155.29 34.24 Z" fill="#0269b7" />
<path d="M 165.72 39.13 C 167.40 41.07 169.07 43.01 170.76 44.94 L 170.12 46.01 L 169.08 46.44 C 168.41 45.81 167.73 45.19 167.04 44.58 C 165.30 45.97 163.77 47.62 162.00 48.96 C 161.15 48.64 160.40 47.95 159.75 46.90 C 160.70 44.95 163.40 43.57 164.90 41.94 L 163.17 39.88 C 163.92 38.40 164.44 37.78 165.72 39.13 Z" fill="#fefefe" />
<path d="M 34.10 40.09 C 37.43 38.29 41.99 42.29 40.83 45.89 C 40.10 47.87 38.50 49.61 36.71 50.70 C 33.38 52.28 29.01 48.57 29.98 45.04 C 30.68 42.98 32.26 41.20 34.10 40.09 Z" fill="#ffffff" />
<path d="M 34.39 43.42 C 35.82 42.49 37.54 43.46 37.82 45.02 C 37.69 46.75 35.48 48.78 33.92 47.12 C 32.40 45.88 33.20 44.50 34.39 43.42 Z" fill="#0064b4" />
<path d="M 171.96 46.55 C 173.18 48.51 175.41 50.70 175.60 53.04 C 175.04 54.92 173.93 54.79 172.33 55.23 C 171.80 57.42 170.10 58.64 168.00 57.30 C 166.48 55.76 165.34 53.78 164.09 52.01 C 166.09 50.01 169.43 48.01 171.96 46.55 Z" fill="#fefefe" />
<path d="M 27.32 49.33 C 29.63 48.90 30.06 50.67 30.86 52.35 C 32.24 52.28 33.61 52.26 34.99 52.27 C 35.92 53.20 34.02 54.69 33.63 55.64 C 31.91 56.02 29.11 54.42 28.77 57.06 C 29.62 57.73 30.48 58.39 31.34 59.03 C 30.83 59.96 30.29 60.89 29.74 61.80 C 27.00 60.41 24.52 58.45 21.86 56.89 L 21.88 56.09 C 23.57 54.03 24.80 50.37 27.32 49.33 Z" fill="#ffffff" />
<path d="M 56.07 49.29 C 56.81 49.62 57.50 50.06 58.15 50.62 C 56.95 51.16 55.81 51.77 54.71 52.45 L 56.14 53.34 C 58.70 54.28 61.26 55.50 63.90 56.17 C 64.67 55.70 65.44 55.22 66.20 54.73 C 66.89 54.91 67.48 55.36 67.98 56.07 C 67.21 58.12 66.40 59.65 64.12 60.25 C 62.17 60.94 62.01 61.51 62.33 63.49 C 63.29 63.66 65.00 62.82 65.30 64.07 C 65.72 66.64 62.82 64.73 62.08 66.71 C 64.60 67.03 67.00 66.17 68.96 68.07 C 71.56 70.09 71.42 73.70 71.48 76.66 C 72.13 77.71 73.58 78.17 74.52 79.00 C 74.64 79.47 74.75 79.96 74.84 80.44 C 75.49 80.71 76.14 80.99 76.79 81.26 C 76.59 82.52 75.89 84.02 74.93 84.88 C 74.26 84.72 73.59 84.56 72.92 84.41 C 73.61 85.78 74.81 86.91 75.76 88.11 C 76.52 89.05 77.29 89.99 78.06 90.92 L 78.39 91.35 C 78.77 91.94 79.14 92.52 79.53 93.10 L 80.09 93.97 L 80.92 95.42 C 81.78 97.77 84.28 101.39 82.84 103.75 C 81.16 104.13 79.54 104.58 77.80 104.60 L 76.67 104.46 C 76.86 101.45 76.44 97.34 73.12 96.22 L 72.66 96.97 C 71.72 95.08 70.71 93.36 70.67 91.19 C 70.08 91.59 69.49 92.00 68.91 92.40 C 68.43 91.89 67.95 91.37 67.47 90.85 C 67.03 90.74 66.57 90.63 66.12 90.54 C 65.04 87.91 63.43 86.34 61.87 84.05 C 56.15 83.54 55.77 90.31 51.93 92.65 C 46.82 92.70 41.81 90.12 38.30 86.52 C 35.69 89.37 32.76 91.42 31.16 95.10 C 30.48 96.05 30.20 98.08 28.81 98.01 C 28.40 96.14 28.72 94.17 28.53 92.27 C 28.08 95.79 27.69 99.60 26.27 102.87 C 25.51 103.81 25.21 105.80 23.89 105.90 C 24.96 99.61 25.56 93.31 26.45 86.99 C 27.26 80.15 29.49 74.12 31.64 67.65 C 33.53 62.81 36.40 57.62 41.72 56.05 C 42.96 57.18 44.67 58.31 45.13 60.00 C 45.28 63.54 44.44 67.42 45.21 70.88 C 46.90 74.22 49.49 77.71 53.36 78.56 C 54.83 78.00 54.72 76.77 54.49 75.44 C 53.50 74.20 52.14 73.56 50.63 73.15 L 50.01 72.11 C 51.14 71.46 51.36 70.52 50.66 69.26 C 49.87 69.06 49.54 69.73 49.65 71.26 C 48.44 67.84 48.53 63.70 49.23 60.17 C 50.12 59.47 51.05 58.78 51.83 57.97 C 51.74 56.81 50.44 54.60 51.88 53.93 C 54.14 52.86 54.13 50.55 56.07 49.29 Z" fill="#a4c2dc" />
<path d="M 144.35 49.48 C 145.74 51.08 146.14 52.87 148.11 53.94 C 149.49 54.59 148.25 56.82 148.18 57.95 C 148.81 58.85 149.87 59.48 150.73 60.17 L 150.89 61.88 C 149.22 62.79 149.61 66.10 151.01 67.09 C 151.05 68.58 150.98 69.87 150.32 71.23 C 150.44 69.69 150.10 69.02 149.31 69.21 C 148.66 70.54 148.88 71.51 149.98 72.10 C 149.68 72.87 149.20 73.56 148.52 74.17 C 145.54 73.32 144.01 77.62 146.67 78.54 C 150.57 77.42 153.03 74.36 154.78 70.87 C 155.61 67.44 154.63 63.53 154.89 60.00 C 155.34 58.30 157.02 57.20 158.25 56.06 C 160.64 56.88 162.47 57.94 164.03 59.97 C 168.10 64.83 169.01 70.19 171.11 75.94 C 174.18 85.92 174.29 95.65 176.06 105.94 C 174.51 105.44 173.97 102.90 172.99 101.67 C 172.50 98.51 171.78 95.41 171.42 92.22 C 171.29 94.14 171.62 96.16 171.21 98.05 L 170.26 97.79 C 168.02 93.11 165.94 90.30 161.93 86.99 C 157.50 89.61 153.25 93.34 147.55 92.42 C 144.22 89.49 144.00 84.97 139.00 83.90 C 137.23 83.94 137.33 85.39 136.60 86.60 C 135.98 86.90 135.36 87.20 134.74 87.50 C 134.55 88.35 134.46 89.22 134.26 90.07 C 133.35 91.01 132.11 91.64 131.05 92.39 C 130.47 91.98 129.89 91.58 129.30 91.18 C 129.25 93.28 128.33 95.03 127.34 96.83 C 126.75 96.19 126.18 96.19 125.65 96.81 C 123.35 98.55 123.23 101.77 123.32 104.41 L 122.16 104.64 C 120.38 104.66 118.88 103.74 117.12 103.77 C 115.74 101.36 118.16 97.73 119.07 95.39 L 119.94 93.82 L 120.43 93.04 C 120.89 92.37 121.34 91.69 121.81 91.02 C 122.62 90.05 123.43 89.07 124.22 88.08 C 125.17 86.87 126.40 85.75 127.10 84.37 C 126.42 84.53 125.75 84.70 125.07 84.88 C 124.25 84.06 123.60 83.02 123.12 81.77 C 123.74 81.22 124.42 80.72 125.14 80.29 C 125.25 79.90 125.35 79.51 125.46 79.12 C 126.29 78.14 128.84 77.34 128.50 75.88 C 128.02 72.54 129.14 68.98 132.19 67.23 C 133.84 66.50 135.92 67.04 137.67 66.57 C 138.06 66.22 138.43 65.86 138.78 65.48 C 137.16 65.41 135.64 65.81 134.21 64.88 C 134.42 64.28 134.74 63.78 135.18 63.39 C 136.01 63.42 136.84 63.45 137.67 63.48 C 138.04 61.45 137.83 60.97 135.87 60.27 C 133.61 59.67 132.73 58.14 132.02 56.06 C 133.66 53.72 134.22 55.26 136.10 56.18 C 138.68 55.39 141.43 54.42 143.87 53.32 L 145.23 52.72 C 144.26 51.85 143.14 51.14 141.86 50.60 C 142.66 50.03 143.28 49.20 144.35 49.48 Z" fill="#a4c2dc" />
<path d="M 171.14 50.48 C 172.44 49.76 173.74 52.00 171.92 52.36 C 170.78 52.12 170.52 51.49 171.14 50.48 Z" fill="#5995cc" />
<path d="M 58.15 50.62 C 60.01 52.21 65.55 51.14 65.34 54.34 L 64.20 54.85 C 61.54 53.49 58.94 53.89 56.14 53.34 L 54.71 52.45 C 55.81 51.77 56.95 51.16 58.15 50.62 Z" fill="#1d73bc" />
<path d="M 141.86 50.60 C 143.14 51.14 144.26 51.85 145.23 52.72 L 143.87 53.32 C 141.06 53.77 138.41 53.55 135.77 54.85 L 134.63 54.34 C 134.35 51.15 140.03 52.20 141.86 50.60 Z" fill="#1d73bc" />
<path d="M 27.83 52.39 C 28.85 53.79 27.14 57.20 25.43 55.58 C 24.90 54.03 26.32 52.56 27.83 52.39 Z" fill="#5396cc" />
<path d="M 168.18 52.27 C 169.82 51.35 170.81 53.53 169.76 54.71 C 168.18 55.60 166.80 53.43 168.18 52.27 Z" fill="#72a9d5" />
<path d="M 49.23 60.17 C 48.53 63.70 48.44 67.84 49.65 71.26 L 50.01 72.11 L 50.63 73.15 C 51.65 74.64 53.17 75.56 54.22 77.00 C 51.37 78.00 48.09 74.23 47.35 71.72 C 45.79 69.07 47.36 65.95 46.37 62.96 C 46.87 61.20 46.02 60.08 46.30 58.47 C 45.16 57.89 44.54 56.90 43.71 55.99 C 45.96 53.84 49.41 57.71 49.23 60.17 Z" fill="#1a74bc" />
<path d="M 155.71 55.24 C 156.21 56.95 154.89 57.62 153.66 58.45 C 154.07 60.06 153.05 61.19 153.57 62.96 C 152.65 65.84 154.14 69.11 152.65 71.69 C 151.69 74.43 149.15 77.34 146.03 77.24 C 145.84 75.90 147.83 75.19 148.52 74.17 C 149.20 73.56 149.68 72.87 149.98 72.10 L 150.32 71.23 C 150.98 69.87 151.05 68.58 151.01 67.09 C 151.21 65.37 151.19 63.59 150.89 61.88 L 150.73 60.17 C 151.04 57.17 152.69 55.43 155.71 55.24 Z" fill="#1c75bd" />
<path d="M 169.04 58.84 C 172.60 58.79 176.24 59.00 179.79 59.25 C 180.50 60.11 180.86 60.96 180.87 61.81 C 178.91 64.58 176.97 67.36 175.04 70.15 C 173.04 68.69 173.33 67.31 173.82 65.24 C 173.01 64.00 172.76 62.12 171.13 61.78 C 169.68 61.50 169.60 59.95 169.04 58.84 Z" fill="#ffffff" />
<path d="M 20.42 60.44 C 22.25 58.87 24.99 60.09 26.63 61.37 C 29.18 63.68 27.48 67.47 25.78 69.75 C 23.16 73.14 16.51 70.34 17.32 66.01 C 17.67 63.96 18.69 61.69 20.42 60.44 Z" fill="#ffffff" />
<path d="M 65.99 61.15 C 67.39 60.80 68.73 60.74 70.00 60.96 C 70.58 62.86 64.68 64.15 65.99 61.15 Z" fill="#df7375" />
<path d="M 130.00 60.95 C 131.27 60.74 132.60 60.81 134.00 61.16 C 135.26 64.17 129.39 62.86 130.00 60.95 Z" fill="#df7475" />
<path d="M 150.89 61.88 C 151.19 63.59 151.21 65.37 151.01 67.09 C 149.61 66.10 149.22 62.79 150.89 61.88 Z" fill="#eff4f8" />
<path d="M 174.93 61.98 C 176.84 61.03 177.35 62.80 175.73 63.74 C 174.70 63.60 174.44 63.01 174.93 61.98 Z" fill="#5d9ace" />
<path d="M 21.48 63.50 C 22.18 62.97 22.89 62.93 23.61 63.39 C 26.38 64.51 23.86 69.36 21.39 67.56 C 19.57 66.35 20.35 64.87 21.48 63.50 Z" fill="#0066b5" />
<path d="M 77.12 67.31 C 80.04 67.51 82.79 68.84 84.70 71.08 L 84.77 71.95 L 83.96 71.85 C 82.67 71.72 81.78 71.04 80.60 71.83 L 80.03 71.83 C 77.67 70.85 77.34 72.68 75.76 73.87 C 74.74 74.51 73.70 75.02 72.84 75.89 L 72.16 75.98 C 72.54 73.94 72.71 72.04 72.74 69.97 C 73.31 68.08 75.41 67.61 77.12 67.31 Z" fill="#a4c2dc" />
<path d="M 126.40 68.59 C 128.00 70.12 127.16 73.01 127.00 75.00 C 124.45 74.72 123.61 73.36 121.95 71.68 C 119.95 71.55 118.00 71.39 116.03 71.82 L 115.24 71.94 L 115.26 71.09 C 117.86 68.01 122.78 65.96 126.40 68.59 Z" fill="#a4c2dc" />
<path d="M 183.09 67.47 C 183.92 67.60 184.47 68.51 184.74 70.20 C 183.08 71.64 180.32 71.66 178.42 72.85 C 178.83 74.24 179.42 75.55 179.91 76.90 C 179.58 77.57 178.95 78.07 178.01 78.41 C 176.20 77.19 175.86 73.07 174.80 71.02 L 175.19 70.27 C 177.83 69.36 180.47 68.42 183.09 67.47 Z" fill="#feffff" />
<path d="M 50.66 69.26 C 51.36 70.52 51.14 71.46 50.01 72.11 L 49.65 71.26 C 49.54 69.73 49.87 69.06 50.66 69.26 Z" fill="#f9fafb" />
<path d="M 149.31 69.21 C 150.10 69.02 150.44 69.69 150.32 71.23 L 149.98 72.10 C 148.88 71.51 148.66 70.54 149.31 69.21 Z" fill="#fcfcfd" />
<path d="M 83.96 71.85 L 84.05 72.81 L 84.83 72.81 L 84.77 71.95 L 84.70 71.08 C 94.88 71.25 105.09 71.23 115.26 71.09 L 115.24 71.94 L 115.23 72.81 L 115.97 72.74 L 116.03 71.82 C 118.00 71.39 119.95 71.55 121.95 71.68 C 123.61 73.36 124.45 74.72 127.00 75.00 L 126.80 75.76 C 125.53 75.64 124.32 75.29 123.06 75.10 C 123.63 76.24 124.97 76.92 125.89 77.81 L 125.46 79.12 C 125.35 79.51 125.25 79.90 125.14 80.29 C 124.42 80.72 123.74 81.22 123.12 81.77 C 123.60 83.02 124.25 84.06 125.07 84.88 C 125.75 84.70 126.42 84.53 127.10 84.37 C 126.40 85.75 125.17 86.87 124.22 88.08 C 124.26 86.50 122.57 84.40 120.89 85.03 L 119.88 85.48 L 118.74 85.25 C 116.63 83.34 121.19 81.93 120.63 79.32 C 119.66 78.78 118.91 79.03 118.38 80.05 L 117.12 81.41 C 114.66 83.57 112.66 86.17 109.97 88.10 C 107.95 89.35 107.08 92.14 105.02 93.18 C 104.04 93.15 103.06 93.11 102.07 93.07 C 101.35 93.54 100.66 94.05 99.99 94.61 C 99.32 94.07 98.63 93.56 97.92 93.09 C 96.07 93.09 94.85 93.55 93.38 92.14 L 92.11 90.97 C 91.96 90.16 91.69 89.41 91.31 88.73 C 88.41 87.25 86.89 84.36 84.09 82.83 C 83.28 81.96 82.49 81.09 81.80 80.13 C 81.40 78.67 80.49 78.33 79.08 79.11 C 78.33 80.91 81.12 82.67 81.85 84.15 L 79.74 85.23 L 79.06 85.07 C 77.41 84.46 75.62 86.51 75.76 88.11 C 74.81 86.91 73.61 85.78 72.92 84.41 C 73.59 84.56 74.26 84.72 74.93 84.88 C 75.89 84.02 76.59 82.52 76.79 81.26 C 76.14 80.99 75.49 80.71 74.84 80.44 C 74.75 79.96 74.64 79.47 74.52 79.00 L 74.12 77.77 C 75.07 76.86 76.35 76.22 76.92 75.07 C 75.55 75.29 74.23 75.73 72.84 75.89 C 73.70 75.02 74.74 74.51 75.76 73.87 C 77.34 72.68 77.67 70.85 80.03 71.83 L 80.08 73.93 C 81.15 74.17 81.32 73.47 80.60 71.83 C 81.78 71.04 82.67 71.72 83.96 71.85 Z" fill="#0069b7" />
<path d="M 17.05 71.32 C 17.81 71.79 18.55 72.28 19.27 72.82 C 21.45 71.92 23.55 72.57 23.85 75.07 C 23.44 77.15 22.69 79.17 22.11 81.22 C 19.21 81.16 15.98 79.51 13.06 78.86 C 13.50 76.54 14.08 71.58 17.05 71.32 Z" fill="#ffffff" />
<path d="M 80.03 71.83 L 80.60 71.83 C 81.32 73.47 81.15 74.17 80.08 73.93 L 80.03 71.83 Z" fill="#744a6e" />
<path d="M 83.96 71.85 L 84.77 71.95 L 84.83 72.81 L 84.05 72.81 L 83.96 71.85 Z" fill="#88334e" />
<path d="M 115.24 71.94 L 116.03 71.82 L 115.97 72.74 L 115.23 72.81 L 115.24 71.94 Z" fill="#77395a" />
<path d="M 82.17 73.03 L 83.06 73.00 L 83.43 73.86 L 82.93 74.68 C 81.89 74.87 81.64 74.32 82.17 73.03 Z" fill="#754366" />
<path d="M 116.90 73.01 L 117.80 73.01 C 118.37 74.27 118.13 74.83 117.07 74.68 L 116.55 73.88 L 116.90 73.01 Z" fill="#724569" />
<path d="M 119.09 72.90 L 119.98 72.90 L 119.97 73.83 L 119.09 73.83 L 119.09 72.90 Z" fill="#8d3953" />
<path d="M 16.04 75.00 C 17.98 73.83 18.96 76.38 16.92 77.02 C 15.89 76.87 15.60 76.20 16.04 75.00 Z" fill="#5fa1d2" />
<path d="M 20.26 75.27 C 21.67 75.23 21.63 78.29 20.13 78.07 C 18.50 77.28 18.56 75.91 20.26 75.27 Z" fill="#609bcf" />
<path d="M 186.86 77.08 C 187.25 78.08 187.46 79.09 187.48 80.11 C 185.51 80.84 183.34 81.13 181.28 81.50 C 180.73 83.08 182.48 85.04 181.74 86.74 C 180.87 86.98 180.05 87.00 179.26 86.82 C 178.94 84.34 177.62 81.39 177.89 79.03 C 180.82 78.25 183.84 77.32 186.86 77.08 Z" fill="#ffffff" />
<path d="M 71.68 79.27 C 72.19 80.45 72.23 81.64 71.83 82.83 C 70.42 83.43 70.25 78.74 71.68 79.27 Z" fill="#e5eef5" />
<path d="M 79.08 79.11 C 80.49 78.33 81.40 78.67 81.80 80.13 L 79.91 79.47 C 79.66 81.58 83.02 82.80 83.03 84.78 C 82.41 85.35 81.74 85.80 81.02 86.11 L 79.74 85.23 L 81.85 84.15 C 81.12 82.67 78.33 80.91 79.08 79.11 Z" fill="#2d4d4c" />
<path d="M 120.63 79.32 C 121.19 81.93 116.63 83.34 118.74 85.25 L 119.88 85.48 C 119.38 85.76 118.88 85.89 118.37 85.85 C 117.52 85.13 116.76 84.32 116.09 83.41 C 113.92 84.71 112.48 86.86 110.62 88.50 C 108.76 89.44 107.68 91.49 106.21 92.94 L 106.79 94.05 C 108.91 92.88 111.10 90.79 112.84 89.02 C 112.37 90.73 109.73 92.17 110.06 93.80 C 111.11 94.41 112.52 94.64 113.41 95.46 C 113.12 98.16 112.02 100.89 111.27 103.51 C 110.84 104.95 109.06 105.44 108.66 106.92 C 110.59 110.34 114.82 108.24 117.76 108.27 C 118.04 109.91 116.95 110.57 116.25 111.88 C 116.19 112.92 116.36 113.96 116.76 115.00 C 117.23 117.20 119.29 117.59 117.80 119.86 C 116.03 120.64 115.05 117.88 113.03 118.33 C 110.42 117.90 108.95 119.96 106.41 119.50 C 106.36 118.15 107.09 117.24 107.62 116.06 C 107.65 114.31 107.72 112.57 107.79 110.82 C 106.32 109.45 105.07 106.95 103.14 106.32 C 101.04 106.34 98.96 106.34 96.86 106.31 C 94.94 106.93 93.66 109.44 92.24 110.83 C 92.30 112.57 92.36 114.31 92.39 116.06 C 92.90 117.22 93.57 118.19 93.59 119.50 C 91.03 119.96 89.58 117.89 86.97 118.33 C 84.93 117.96 84.04 120.40 82.20 119.97 C 81.85 119.35 81.65 118.72 81.60 118.08 C 82.97 116.28 83.64 114.11 83.81 111.88 C 83.06 110.56 81.88 109.96 82.21 108.28 C 85.24 108.31 87.78 109.65 90.90 108.16 L 90.07 109.21 C 91.00 111.52 90.46 113.27 89.55 115.47 C 88.08 115.91 86.61 116.35 85.13 116.78 C 84.60 115.60 85.41 114.16 85.66 112.93 L 85.52 115.42 C 88.97 117.05 89.97 114.61 90.15 111.71 C 89.33 111.13 88.28 111.16 87.00 111.78 C 88.89 111.50 89.86 110.70 89.91 109.38 C 88.46 109.29 86.98 109.32 85.49 109.48 C 84.49 108.59 83.49 108.28 82.49 108.56 C 82.74 109.49 83.18 110.35 83.81 111.14 C 84.32 113.48 82.68 117.27 82.34 119.51 C 83.21 119.05 84.11 118.55 85.04 118.01 C 88.00 118.82 89.91 116.79 92.12 119.35 L 93.24 119.03 C 92.99 117.81 92.13 117.06 91.52 116.04 C 92.48 113.86 92.17 112.39 92.13 110.13 C 94.11 107.62 96.29 105.39 98.42 103.02 L 98.84 102.53 C 98.17 102.00 97.49 101.49 96.79 100.99 C 100.98 101.02 105.10 101.10 109.19 102.08 C 108.45 102.68 107.91 103.38 107.58 104.18 C 108.24 106.21 110.03 104.40 110.29 103.10 C 111.57 101.16 112.44 97.30 112.11 95.01 C 111.14 94.92 110.21 94.98 109.33 95.18 C 108.38 96.48 108.29 97.23 106.52 96.50 C 106.03 95.88 105.79 95.05 105.80 94.00 C 104.57 93.95 103.34 93.99 102.13 94.12 C 100.93 96.82 99.06 96.83 97.78 94.16 C 96.62 93.98 95.43 93.93 94.21 94.01 C 94.24 95.39 93.80 96.33 92.88 96.84 C 90.51 96.00 91.00 94.32 87.83 95.06 C 87.61 97.57 88.51 100.74 89.48 103.09 C 89.88 104.15 90.43 104.79 91.13 104.98 L 92.05 104.94 C 92.44 104.36 92.83 103.78 93.22 103.20 C 94.12 102.88 95.12 102.81 96.22 102.99 C 94.85 104.26 93.61 106.66 91.76 107.12 C 90.68 105.42 88.96 104.85 88.48 102.80 C 87.83 100.38 86.81 97.95 86.57 95.45 C 87.49 94.64 88.88 94.41 89.95 93.80 C 90.23 92.15 87.62 90.67 87.11 88.98 C 88.84 90.78 91.09 92.94 93.23 94.09 L 93.38 92.14 C 94.85 93.55 96.07 93.09 97.92 93.09 C 98.63 93.56 99.32 94.07 99.99 94.61 C 100.66 94.05 101.35 93.54 102.07 93.07 C 103.06 93.11 104.04 93.15 105.02 93.18 C 107.08 92.14 107.95 89.35 109.97 88.10 C 112.66 86.17 114.66 83.57 117.12 81.41 C 115.81 85.16 120.35 81.16 119.87 79.88 L 118.38 80.05 C 118.91 79.03 119.66 78.78 120.63 79.32 Z" fill="#7d7f90" />
<path d="M 128.30 79.27 C 129.70 78.71 129.56 83.46 128.14 82.82 C 127.73 81.67 127.78 80.49 128.30 79.27 Z" fill="#e8eff6" />
<path d="M 79.91 79.47 L 81.80 80.13 C 82.49 81.09 83.28 81.96 84.09 82.83 C 86.53 86.56 89.27 88.18 92.11 90.97 L 93.38 92.14 L 93.23 94.09 C 91.09 92.94 88.84 90.78 87.11 88.98 L 86.30 88.68 C 85.03 88.78 84.55 89.81 84.85 91.77 C 83.09 93.00 82.55 95.07 80.09 93.97 L 79.53 93.10 L 80.70 92.10 L 81.95 92.50 L 83.17 92.05 C 82.47 90.26 84.14 88.46 82.80 87.23 C 80.74 88.13 79.57 86.35 78.16 88.19 C 78.87 89.48 78.84 90.38 78.06 90.92 C 77.29 89.99 76.52 89.05 75.76 88.11 C 76.91 87.77 78.56 86.17 79.06 85.07 L 79.74 85.23 L 81.02 86.11 C 81.74 85.80 82.41 85.35 83.03 84.78 C 83.02 82.80 79.66 81.58 79.91 79.47 Z" fill="#e5c301" />
<path d="M 118.38 80.05 L 119.87 79.88 C 120.35 81.16 115.81 85.16 117.12 81.41 L 118.38 80.05 Z" fill="#e3c200" />
<path d="M 13.17 82.12 C 15.28 81.29 16.17 82.21 17.29 83.85 C 18.78 83.12 20.07 82.19 21.79 82.10 C 21.77 83.48 21.48 84.72 20.91 85.82 C 19.34 86.54 17.10 86.46 17.24 88.73 C 18.28 89.10 19.34 89.38 20.45 89.58 C 20.65 91.49 20.25 92.59 19.25 92.86 C 16.44 92.25 13.56 91.84 10.71 91.39 C 11.30 88.58 10.86 84.14 13.17 82.12 Z" fill="#fefefe" />
<path d="M 84.09 82.83 C 86.89 84.36 88.41 87.25 91.31 88.73 C 91.69 89.41 91.96 90.16 92.11 90.97 C 89.27 88.18 86.53 86.56 84.09 82.83 Z" fill="#435c43" />
<path d="M 61.87 84.05 C 63.43 86.34 65.04 87.91 66.12 90.54 C 66.57 90.63 67.03 90.74 67.47 90.85 C 67.95 91.37 68.43 91.89 68.91 92.40 C 69.49 92.00 70.08 91.59 70.67 91.19 C 70.71 93.36 71.72 95.08 72.66 96.97 C 73.23 102.13 73.88 107.13 76.07 111.92 C 79.87 120.18 84.09 127.99 92.13 132.85 C 94.80 134.35 98.71 136.60 101.83 135.58 C 109.01 133.35 114.90 128.08 118.73 121.71 C 122.09 116.13 125.23 110.30 126.37 103.82 C 126.93 101.51 126.85 99.14 127.34 96.83 C 128.33 95.03 129.25 93.28 129.30 91.18 C 129.89 91.58 130.47 91.98 131.05 92.39 C 132.11 91.64 133.35 91.01 134.26 90.07 C 134.46 89.22 134.55 88.35 134.74 87.50 C 135.36 87.20 135.98 86.90 136.60 86.60 C 137.33 85.39 137.23 83.94 139.00 83.90 C 144.00 84.97 144.22 89.49 147.55 92.42 C 153.25 93.34 157.50 89.61 161.93 86.99 C 165.94 90.30 168.02 93.11 170.26 97.79 L 171.21 98.05 C 171.62 96.16 171.29 94.14 171.42 92.22 C 171.78 95.41 172.50 98.51 172.99 101.67 C 172.42 118.82 166.08 135.54 154.55 148.31 C 152.46 148.42 150.60 148.41 149.07 150.07 C 147.38 151.45 148.08 153.52 147.18 155.52 C 146.42 156.09 145.68 156.67 144.95 157.28 C 131.55 154.76 120.39 149.53 107.01 148.01 C 100.73 147.72 94.15 147.50 87.97 148.77 C 76.78 150.79 66.25 155.21 55.02 157.29 C 54.30 156.70 53.58 156.12 52.84 155.55 C 51.74 153.68 52.73 151.59 50.92 150.07 C 49.38 148.39 47.51 148.44 45.41 148.30 C 34.44 136.20 28.00 120.20 27.12 103.92 L 26.55 102.74 L 26.27 102.87 C 27.69 99.60 28.08 95.79 28.53 92.27 C 28.72 94.17 28.40 96.14 28.81 98.01 C 30.20 98.08 30.48 96.05 31.16 95.10 C 32.76 91.42 35.69 89.37 38.30 86.52 C 41.81 90.12 46.82 92.70 51.93 92.65 C 55.77 90.31 56.15 83.54 61.87 84.05 Z" fill="#fefefe" />
<path d="M 116.09 83.41 C 116.76 84.32 117.52 85.13 118.37 85.85 C 118.88 85.89 119.38 85.76 119.88 85.48 L 120.89 85.03 C 121.35 86.08 123.10 87.82 124.22 88.08 C 123.43 89.07 122.62 90.05 121.81 91.02 L 121.07 90.01 L 121.19 88.88 L 121.90 88.79 L 121.28 87.79 C 120.29 86.84 118.50 87.65 117.16 87.10 C 115.74 88.50 117.15 89.17 116.87 90.85 L 116.86 92.13 C 118.45 92.09 119.63 92.39 120.43 93.04 L 119.94 93.82 C 117.48 95.24 116.92 93.00 115.15 91.77 C 115.43 89.84 114.93 88.79 113.64 88.63 L 112.84 89.02 C 111.10 90.79 108.91 92.88 106.79 94.05 L 106.21 92.94 C 107.68 91.49 108.76 89.44 110.62 88.50 C 112.48 86.86 113.92 84.71 116.09 83.41 Z" fill="#e8c501" />
<path d="M 14.09 85.02 C 16.71 84.47 15.78 90.58 13.38 88.61 C 12.56 87.10 13.45 86.32 14.09 85.02 Z" fill="#67a0d1" />
<path d="M 79.06 85.07 C 78.56 86.17 76.91 87.77 75.76 88.11 C 75.62 86.51 77.41 84.46 79.06 85.07 Z" fill="#2a4d51" />
<path d="M 120.89 85.03 C 122.57 84.40 124.26 86.50 124.22 88.08 C 123.10 87.82 121.35 86.08 120.89 85.03 Z" fill="#254b54" />
<path d="M 60.96 85.82 C 62.45 87.07 63.36 89.25 64.17 91.00 C 63.01 94.35 59.19 96.22 59.41 99.99 C 59.57 102.16 58.53 103.33 57.44 105.01 C 57.84 106.22 59.48 107.68 58.87 108.91 C 57.69 109.84 55.95 109.61 56.03 111.44 C 56.70 111.34 57.37 111.24 58.04 111.14 C 57.81 113.22 57.40 113.89 55.27 113.73 C 52.91 117.91 48.29 118.84 46.25 123.25 C 44.81 125.69 45.12 128.11 44.79 130.81 C 44.01 131.27 43.50 131.85 43.24 132.54 C 44.80 133.08 46.46 133.75 48.11 133.86 L 49.07 133.96 C 49.35 134.71 49.63 135.47 49.89 136.23 L 48.93 136.35 C 47.71 135.89 46.53 135.36 45.26 135.02 C 46.11 136.54 48.58 138.15 48.21 139.97 L 46.41 139.95 C 46.21 138.54 45.73 137.43 44.25 137.06 C 43.97 138.03 43.54 138.89 42.96 139.63 C 41.71 138.62 41.28 138.32 41.40 136.67 C 41.39 135.73 40.30 134.86 39.95 133.98 C 40.08 133.24 40.20 132.50 40.32 131.76 C 39.36 130.30 38.76 128.67 38.36 126.98 C 38.73 126.01 39.34 125.13 39.63 124.13 C 38.95 122.11 39.78 120.35 39.50 118.29 C 42.42 117.46 45.02 117.42 46.16 114.08 C 47.38 111.85 45.88 107.40 48.50 106.46 C 48.30 104.29 48.61 102.25 48.81 100.09 C 45.94 102.83 46.48 106.59 44.99 109.91 C 43.90 112.53 40.69 113.86 38.03 113.09 C 35.37 111.86 33.63 109.12 34.34 106.15 C 35.56 101.99 37.94 98.86 37.64 94.24 L 36.19 93.67 C 36.62 92.51 36.60 92.07 36.17 90.90 C 36.74 90.15 37.34 89.40 37.95 88.68 C 39.58 88.77 39.21 92.46 39.63 93.72 C 40.75 93.24 41.77 92.59 42.90 92.14 C 42.85 93.78 40.09 95.40 40.93 96.79 C 42.24 96.57 43.51 96.23 44.85 96.14 C 43.83 97.55 42.47 98.39 41.16 99.58 L 42.73 100.34 C 42.21 100.95 41.68 101.56 41.15 102.17 C 41.26 102.75 41.78 103.26 42.72 103.71 C 40.28 103.94 38.48 103.75 37.26 106.25 C 35.40 109.35 39.45 113.03 42.12 110.10 C 44.99 106.14 46.07 101.03 49.02 97.00 C 50.52 93.94 53.80 93.31 55.49 90.51 C 56.85 88.43 58.81 87.01 60.96 85.82 Z" fill="#a4c2dc" />
<path d="M 139.03 85.83 C 142.03 87.30 143.88 89.57 145.82 92.19 C 151.26 95.32 153.22 100.85 155.67 106.31 C 156.52 108.19 157.62 110.99 159.99 111.20 C 162.80 111.09 164.18 107.77 162.33 105.63 C 161.06 103.61 159.34 104.00 157.27 103.71 C 157.77 103.38 158.26 103.05 158.76 102.72 C 159.10 101.89 157.66 101.05 157.26 100.34 L 158.80 99.56 C 157.55 98.40 156.02 97.53 155.14 96.11 C 156.47 96.22 157.74 96.56 159.05 96.80 C 159.82 95.48 157.33 93.79 157.04 92.33 C 158.01 92.51 158.97 92.70 159.94 92.90 C 160.62 91.51 160.80 89.60 161.94 88.54 C 162.58 89.32 163.21 90.11 163.83 90.91 C 163.37 92.07 163.33 92.49 163.76 93.65 C 161.32 93.83 162.56 96.60 162.73 98.21 C 163.48 102.20 167.66 106.86 164.77 110.72 C 162.65 114.10 158.31 114.08 155.77 111.23 C 153.30 107.74 154.37 103.39 151.24 100.10 C 151.16 102.05 151.78 104.14 151.34 106.03 C 150.74 107.00 150.06 107.92 149.42 108.86 C 150.56 108.15 151.63 107.38 152.89 106.89 C 153.39 109.95 152.66 113.64 154.93 116.07 C 156.38 117.63 158.58 117.66 160.50 118.29 C 160.18 120.09 160.93 121.74 160.50 123.48 C 160.08 124.66 161.28 125.89 161.67 127.01 C 161.34 127.46 161.00 127.89 160.64 128.31 C 160.59 129.08 160.54 129.86 160.51 130.63 C 160.21 131.00 159.93 131.38 159.64 131.76 C 159.76 132.50 159.89 133.24 160.01 133.98 C 157.89 136.00 159.42 138.18 156.97 139.52 L 156.05 139.84 C 156.09 138.87 156.08 137.90 156.04 136.94 C 154.43 137.34 153.82 138.35 153.56 139.91 L 151.77 140.03 C 151.36 138.31 153.67 136.83 154.22 135.22 C 153.15 135.56 152.08 135.93 151.02 136.33 L 150.05 136.23 L 150.65 134.56 C 152.56 133.63 154.75 133.30 156.74 132.55 C 156.51 131.85 155.99 131.27 155.19 130.81 C 154.75 128.13 155.21 125.71 153.73 123.27 C 151.63 118.75 147.08 117.88 144.53 113.79 C 141.75 114.28 141.51 109.92 140.83 108.05 C 141.37 107.03 142.03 106.06 142.56 105.02 C 141.52 103.28 140.27 102.22 140.53 99.99 C 140.85 96.24 136.92 94.34 135.81 91.01 C 136.60 89.27 137.53 87.02 139.03 85.83 Z" fill="#a4c2dc" />
<path d="M 82.80 87.23 C 84.14 88.46 82.47 90.26 83.17 92.05 L 81.95 92.50 L 80.70 92.10 C 82.09 91.20 82.74 89.31 81.02 88.35 C 80.11 89.33 79.31 90.39 78.39 91.35 L 78.06 90.92 C 78.84 90.38 78.87 89.48 78.16 88.19 C 79.57 86.35 80.74 88.13 82.80 87.23 Z" fill="#365041" />
<path d="M 117.16 87.10 C 118.50 87.65 120.29 86.84 121.28 87.79 C 120.24 87.87 119.21 87.99 118.18 88.15 L 118.01 89.06 L 117.93 90.91 L 116.87 90.85 C 117.15 89.17 115.74 88.50 117.16 87.10 Z" fill="#575a23" />
<path d="M 118.18 88.15 C 119.21 87.99 120.24 87.87 121.28 87.79 L 121.19 88.88 L 121.07 90.01 L 121.81 91.02 C 121.34 91.69 120.89 92.37 120.43 93.04 C 119.63 92.39 118.45 92.09 116.86 92.13 L 116.87 90.85 L 117.93 90.91 C 120.84 91.77 120.84 88.35 118.01 89.06 L 118.18 88.15 Z" fill="#1a5077" />
<path d="M 121.28 87.79 L 121.90 88.79 L 121.19 88.88 L 121.28 87.79 Z" fill="#404011" />
<path d="M 81.02 88.35 C 82.74 89.31 82.09 91.20 80.70 92.10 L 79.53 93.10 C 79.14 92.52 78.77 91.94 78.39 91.35 C 79.31 90.39 80.11 89.33 81.02 88.35 Z" fill="#1063ab" />
<path d="M 86.30 88.68 C 86.43 92.27 84.25 94.53 80.92 95.42 L 80.09 93.97 C 82.55 95.07 83.09 93.00 84.85 91.77 C 84.55 89.81 85.03 88.78 86.30 88.68 Z" fill="#184b6b" />
<path d="M 86.30 88.68 L 87.11 88.98 C 87.62 90.67 90.23 92.15 89.95 93.80 C 88.88 94.41 87.49 94.64 86.57 95.45 C 86.81 97.95 87.83 100.38 88.48 102.80 C 88.96 104.85 90.68 105.42 91.76 107.12 L 90.90 108.16 C 87.78 109.65 85.24 108.31 82.21 108.28 C 81.88 109.96 83.06 110.56 83.81 111.88 C 83.64 114.11 82.97 116.28 81.60 118.08 C 81.65 118.72 81.85 119.35 82.20 119.97 C 84.04 120.40 84.93 117.96 86.97 118.33 C 89.58 117.89 91.03 119.96 93.59 119.50 C 93.57 118.19 92.90 117.22 92.39 116.06 C 92.36 114.31 92.30 112.57 92.24 110.83 C 93.66 109.44 94.94 106.93 96.86 106.31 C 98.96 106.34 101.04 106.34 103.14 106.32 C 105.07 106.95 106.32 109.45 107.79 110.82 C 107.72 112.57 107.65 114.31 107.62 116.06 C 107.09 117.24 106.36 118.15 106.41 119.50 C 108.95 119.96 110.42 117.90 113.03 118.33 C 115.05 117.88 116.03 120.64 117.80 119.86 C 119.29 117.59 117.23 117.20 116.76 115.00 C 116.36 113.96 116.19 112.92 116.25 111.88 C 116.95 110.57 118.04 109.91 117.76 108.27 C 114.82 108.24 110.59 110.34 108.66 106.92 C 109.06 105.44 110.84 104.95 111.27 103.51 C 112.02 100.89 113.12 98.16 113.41 95.46 C 112.52 94.64 111.11 94.41 110.06 93.80 C 109.73 92.17 112.37 90.73 112.84 89.02 L 113.64 88.63 C 113.54 92.12 115.75 94.63 119.07 95.39 C 118.16 97.73 115.74 101.36 117.12 103.77 C 118.12 106.51 119.16 106.84 121.86 106.70 L 122.16 104.64 L 123.32 104.41 C 123.23 101.77 123.35 98.55 125.65 96.81 C 126.18 96.19 126.75 96.19 127.34 96.83 C 126.85 99.14 126.93 101.51 126.37 103.82 C 125.23 110.30 122.09 116.13 118.73 121.71 C 114.90 128.08 109.01 133.35 101.83 135.58 C 98.71 136.60 94.80 134.35 92.13 132.85 C 84.09 127.99 79.87 120.18 76.07 111.92 C 73.88 107.13 73.23 102.13 72.66 96.97 L 73.12 96.22 C 76.44 97.34 76.86 101.45 76.67 104.46 L 77.80 104.60 L 78.13 106.71 C 80.85 106.79 81.84 106.56 82.84 103.75 C 84.28 101.39 81.78 97.77 80.92 95.42 C 84.25 94.53 86.43 92.27 86.30 88.68 Z" fill="#0069b7" />
<path d="M 113.64 88.63 C 114.93 88.79 115.43 89.84 115.15 91.77 C 116.92 93.00 117.48 95.24 119.94 93.82 L 119.07 95.39 C 115.75 94.63 113.54 92.12 113.64 88.63 Z" fill="#1a4b68" />
<path d="M 118.01 89.06 C 120.84 88.35 120.84 91.77 117.93 90.91 L 118.01 89.06 Z" fill="#0066c2" />
<path d="M 35.23 91.05 L 36.17 90.90 C 36.60 92.07 36.62 92.51 36.19 93.67 C 36.04 94.71 35.88 95.76 35.74 96.80 C 35.09 97.46 34.30 98.00 33.37 98.42 C 32.67 99.84 32.59 103.63 30.58 103.47 C 30.79 101.65 30.92 99.83 31.03 98.00 C 31.59 95.06 33.69 93.74 35.23 91.05 Z" fill="#2e81c3" />
<path d="M 163.83 90.91 L 164.77 91.07 C 165.66 92.56 166.76 93.88 167.83 95.24 C 169.55 97.92 168.79 100.44 169.38 103.45 C 167.37 103.60 167.32 99.80 166.64 98.39 C 165.77 97.95 164.96 97.45 164.19 96.89 C 164.09 95.80 163.95 94.72 163.76 93.65 C 163.33 92.49 163.37 92.07 163.83 90.91 Z" fill="#2b7fc2" />
<path d="M 189.91 95.05 C 190.02 97.36 191.14 101.65 187.19 100.65 C 187.51 98.62 188.44 96.84 186.89 95.07 C 185.12 93.63 182.66 94.64 182.54 96.97 C 182.74 99.08 183.40 100.15 182.25 102.20 C 184.72 102.32 187.20 102.43 189.68 102.55 C 190.07 103.51 190.13 104.61 189.85 105.86 C 187.56 106.11 185.26 105.50 183.00 105.73 C 182.48 108.02 184.06 111.91 179.99 110.14 C 180.35 107.11 179.92 103.98 180.95 101.14 C 180.08 98.63 179.51 94.58 181.48 92.47 C 184.29 89.74 189.17 91.09 189.91 95.05 Z" fill="#ffffff" />
<path d="M 10.51 93.51 C 11.21 93.46 11.92 93.43 12.63 93.44 C 13.50 94.95 12.98 96.28 13.03 97.92 L 13.86 97.89 C 13.93 96.65 14.04 95.41 14.18 94.18 C 17.51 93.50 16.06 95.95 16.22 97.99 L 17.54 97.73 C 17.68 95.83 16.57 91.78 19.98 93.89 C 19.80 96.48 19.90 99.08 19.69 101.66 C 16.73 101.69 13.76 101.19 10.81 101.43 L 11.50 102.93 C 12.52 102.98 12.98 103.78 12.89 105.33 C 14.95 106.00 17.61 104.76 19.85 105.16 C 20.41 106.54 20.36 107.67 19.70 108.55 C 17.56 108.71 15.34 108.63 13.24 109.06 C 12.97 111.10 14.03 112.56 11.02 111.96 C 10.55 109.36 10.56 106.66 10.19 104.04 C 10.33 103.37 10.62 102.73 11.05 102.12 C 9.41 99.83 10.60 96.22 10.51 93.51 Z" fill="#ffffff" />
<path d="M 94.21 94.01 C 95.43 93.93 96.62 93.98 97.78 94.16 C 99.06 96.83 100.93 96.82 102.13 94.12 C 103.34 93.99 104.57 93.95 105.80 94.00 C 105.79 95.05 106.03 95.88 106.52 96.50 C 108.29 97.23 108.38 96.48 109.33 95.18 C 110.21 94.98 111.14 94.92 112.11 95.01 C 112.44 97.30 111.57 101.16 110.29 103.10 L 109.19 102.08 C 105.10 101.10 100.98 101.02 96.79 100.99 C 94.40 101.19 91.32 101.41 89.48 103.09 C 88.51 100.74 87.61 97.57 87.83 95.06 C 91.00 94.32 90.51 96.00 92.88 96.84 C 93.80 96.33 94.24 95.39 94.21 94.01 Z" fill="#fefefe" />
<path d="M 59.80 101.29 C 60.56 101.55 61.32 101.81 62.08 102.07 C 64.40 102.70 66.22 101.94 67.60 104.39 C 68.12 105.21 67.97 105.86 67.14 106.35 C 63.97 108.24 59.39 104.70 59.80 101.29 Z" fill="#a0bfda" />
<path d="M 96.79 100.99 C 97.49 101.49 98.17 102.00 98.84 102.53 L 98.42 103.02 L 96.22 102.99 C 95.12 102.81 94.12 102.88 93.22 103.20 C 92.83 103.78 92.44 104.36 92.05 104.94 C 92.87 102.62 89.78 102.64 91.13 104.98 C 90.43 104.79 89.88 104.15 89.48 103.09 C 91.32 101.41 94.40 101.19 96.79 100.99 Z" fill="#a6a6a5" />
<path d="M 109.19 102.08 L 110.29 103.10 C 110.03 104.40 108.24 106.21 107.58 104.18 C 107.91 103.38 108.45 102.68 109.19 102.08 Z" fill="#cdcbc9" />
<path d="M 140.03 102.03 C 140.30 105.27 134.94 108.55 132.19 105.89 C 131.95 101.59 137.23 102.45 140.03 102.03 Z" fill="#a0bfda" />
<path d="M 92.05 104.94 L 91.13 104.98 C 89.78 102.64 92.87 102.62 92.05 104.94 Z" fill="#edeae8" />
<path d="M 96.22 102.99 L 98.42 103.02 C 96.29 105.39 94.11 107.62 92.13 110.13 C 92.17 112.39 92.48 113.86 91.52 116.04 C 92.13 117.06 92.99 117.81 93.24 119.03 L 92.12 119.35 C 89.91 116.79 88.00 118.82 85.04 118.01 C 84.11 118.55 83.21 119.05 82.34 119.51 C 82.68 117.27 84.32 113.48 83.81 111.14 C 83.18 110.35 82.74 109.49 82.49 108.56 C 83.49 108.28 84.49 108.59 85.49 109.48 C 86.98 109.32 88.46 109.29 89.91 109.38 C 89.86 110.70 88.89 111.50 87.00 111.78 L 86.15 112.19 L 85.66 112.93 C 85.41 114.16 84.60 115.60 85.13 116.78 C 86.61 116.35 88.08 115.91 89.55 115.47 C 90.46 113.27 91.00 111.52 90.07 109.21 L 90.90 108.16 L 91.76 107.12 C 93.61 106.66 94.85 104.26 96.22 102.99 Z" fill="#f3d000" />
<path d="M 102.97 102.91 C 105.45 104.49 107.63 107.22 109.96 109.17 C 108.92 111.32 109.42 113.51 110.51 115.50 C 111.97 115.93 113.41 116.37 114.87 116.77 C 115.43 115.62 114.54 114.16 114.32 112.95 L 113.84 112.17 L 113.00 111.78 C 111.13 111.49 110.16 110.69 110.09 109.40 C 111.53 109.29 113.01 109.33 114.51 109.49 C 115.55 108.49 116.55 108.20 117.53 108.62 C 117.13 110.46 115.31 110.98 116.14 112.99 C 116.47 115.63 117.23 117.28 117.66 119.52 C 114.99 117.43 114.00 118.36 110.96 118.05 C 108.91 117.33 108.75 119.78 106.89 119.16 C 106.80 117.77 107.87 117.16 108.50 116.03 C 107.45 113.87 107.90 112.36 107.85 110.11 C 106.43 108.53 105.27 106.79 103.67 105.36 C 103.19 104.86 100.57 102.38 102.97 102.91 Z" fill="#f5d300" />
<path d="M 82.84 103.75 C 81.84 106.56 80.85 106.79 78.13 106.71 L 77.80 104.60 C 79.54 104.58 81.16 104.13 82.84 103.75 Z" fill="#485d91" />
<path d="M 117.12 103.77 C 118.88 103.74 120.38 104.66 122.16 104.64 L 121.86 106.70 C 119.16 106.84 118.12 106.51 117.12 103.77 Z" fill="#495d91" />
<path d="M 101.88 105.80 C 100.72 106.17 99.47 106.18 98.12 105.86 C 97.30 104.55 102.67 104.51 101.88 105.80 Z" fill="#beb5af" />
<path d="M 0.00 105.73 C 1.19 121.55 5.50 136.32 13.36 150.11 C 13.99 153.16 15.20 155.64 16.59 158.38 C 17.76 160.83 16.34 163.41 15.95 165.87 C 18.79 167.90 23.22 168.14 26.60 167.89 C 41.96 184.43 62.63 195.48 84.98 198.85 C 87.95 199.56 91.23 199.15 94.11 200.00 L 0.00 200.00 L 0.00 105.73 Z" fill="#ffffff" />
<path d="M 60.04 105.97 C 63.12 107.27 64.60 108.00 68.02 107.19 C 69.96 111.51 65.49 114.39 67.52 118.49 C 68.36 120.91 71.54 121.37 73.66 122.33 C 75.85 123.29 78.67 123.20 80.28 124.95 L 79.77 125.71 C 79.28 126.33 78.93 127.06 78.74 127.91 L 77.86 128.13 L 76.65 127.29 C 76.36 128.13 76.05 128.97 75.74 129.80 C 74.61 129.95 74.16 127.47 73.52 126.70 C 72.96 126.61 72.39 126.58 71.81 126.62 C 71.47 126.98 71.14 127.34 70.81 127.71 C 70.35 127.66 69.94 127.26 69.58 126.52 C 68.88 126.94 68.24 127.77 67.40 127.76 C 67.19 126.87 66.98 125.97 66.77 125.07 C 66.27 125.85 65.70 126.42 65.05 126.77 C 64.12 126.11 63.23 125.41 62.34 124.70 C 62.12 123.96 61.90 123.22 61.69 122.48 C 60.75 122.39 59.90 122.70 59.17 121.94 C 60.37 119.24 61.75 117.25 60.74 114.12 C 59.67 111.15 59.24 109.13 60.04 105.97 Z" fill="#a4c2dc" />
<path d="M 139.92 105.95 C 140.73 109.12 140.33 111.13 139.22 114.10 C 138.18 117.25 139.58 119.23 140.81 121.93 C 140.02 122.63 139.26 122.43 138.31 122.49 C 138.09 123.22 137.86 123.95 137.64 124.68 C 136.75 125.40 135.86 126.11 134.94 126.77 C 134.29 126.41 133.71 125.84 133.21 125.07 C 133.01 125.97 132.80 126.87 132.59 127.77 C 131.73 127.84 131.08 126.89 130.39 126.44 C 129.62 128.69 128.06 127.29 126.30 127.37 C 125.60 128.43 125.02 129.59 124.38 130.69 C 124.05 129.57 123.76 128.44 123.41 127.32 L 122.03 127.93 L 121.20 127.82 C 121.01 127.03 120.68 126.33 120.22 125.72 L 119.70 124.96 C 121.29 123.18 124.13 123.29 126.32 122.32 C 128.49 121.34 131.58 120.97 132.46 118.46 C 134.48 114.46 130.01 111.44 131.98 107.21 C 135.35 107.99 136.90 107.26 139.92 105.95 Z" fill="#a4c2dc" />
<path d="M 200.00 106.89 L 200.00 200.00 L 105.56 200.00 C 106.94 199.49 108.54 199.61 110.00 199.44 C 134.14 197.16 156.91 185.62 173.38 167.88 C 176.79 168.16 181.15 167.87 184.04 165.87 C 183.48 163.28 182.47 161.08 183.36 158.35 C 184.42 155.66 186.23 153.73 186.16 150.66 C 193.06 139.21 197.36 126.23 199.19 113.01 C 199.52 111.02 199.28 108.77 200.00 106.89 Z" fill="#ffffff" />
<path d="M 143.14 110.14 L 143.97 110.14 L 144.34 110.95 L 143.93 111.72 L 143.17 111.72 L 142.78 110.94 L 143.14 110.14 Z" fill="#e5eef5" />
<path d="M 20.61 112.26 C 21.06 114.83 21.72 117.38 21.98 119.98 C 19.05 120.86 15.95 121.13 12.97 121.88 C 12.22 119.89 11.03 115.78 11.73 113.91 C 14.87 113.40 13.80 115.86 14.31 117.89 L 15.65 117.77 C 15.37 116.51 14.93 115.36 14.98 114.09 C 19.10 112.35 16.19 117.45 19.04 117.29 C 19.12 115.77 17.79 113.79 18.42 112.42 C 19.08 112.14 19.81 112.09 20.61 112.26 Z" fill="#ffffff" />
<path d="M 86.15 112.19 L 87.00 111.78 C 88.28 111.16 89.33 111.13 90.15 111.71 C 89.97 114.61 88.97 117.05 85.52 115.42 L 85.66 112.93 L 86.15 112.19 Z" fill="#0055a8" />
<path d="M 109.74 111.67 C 110.65 111.14 111.74 111.18 113.00 111.78 L 113.84 112.17 L 114.32 112.95 C 114.84 114.87 114.45 115.87 113.15 115.93 C 110.04 116.10 110.30 113.88 109.74 111.67 Z" fill="#0158a6" />
<path d="M 181.96 111.46 C 183.95 111.67 185.89 112.19 187.87 112.46 C 189.87 112.56 189.06 114.59 188.71 115.80 C 186.46 116.24 181.34 113.02 181.32 117.09 C 182.24 119.03 186.04 118.54 187.86 119.28 C 188.07 120.58 187.82 121.63 187.09 122.43 C 184.68 121.45 179.31 122.12 178.59 119.08 C 178.41 116.66 178.81 111.84 181.96 111.46 Z" fill="#ffffff" />
<path d="M 177.89 121.28 C 180.86 122.29 183.88 123.19 186.83 124.22 C 186.08 126.58 185.65 130.70 183.01 131.61 C 182.13 131.40 181.33 130.91 180.63 130.14 C 178.14 130.63 176.69 130.67 175.80 127.97 C 176.30 125.70 177.01 123.43 177.89 121.28 Z" fill="#ffffff" />
<path d="M 18.05 122.57 C 19.64 123.20 20.06 125.38 20.71 126.78 C 21.80 126.30 22.89 126.05 23.98 126.04 C 24.30 126.93 24.57 127.84 24.78 128.78 C 22.18 129.93 18.50 131.07 15.74 131.69 C 15.03 129.55 14.02 127.24 14.07 124.97 C 14.02 123.09 16.55 122.23 18.05 122.57 Z" fill="#ffffff" />
<path d="M 80.28 124.95 C 81.32 125.65 81.57 126.35 81.02 127.06 L 80.13 126.86 L 79.77 125.71 L 80.28 124.95 Z" fill="#dd7475" />
<path d="M 119.70 124.96 L 120.22 125.72 L 119.87 126.86 L 118.98 127.06 C 118.41 126.37 118.65 125.67 119.70 124.96 Z" fill="#de7879" />
<path d="M 178.35 125.33 C 179.51 124.23 181.53 125.17 180.69 126.80 C 179.57 128.33 177.18 126.98 178.35 125.33 Z" fill="#76abd6" />
<path d="M 16.12 126.01 C 17.38 124.69 19.37 126.10 18.56 127.65 C 17.37 128.86 15.25 127.62 16.12 126.01 Z" fill="#74a9d6" />
<path d="M 182.16 126.18 C 183.92 125.12 185.01 127.83 182.95 128.25 C 181.82 128.14 181.56 127.45 182.16 126.18 Z" fill="#5a9ed0" />
<path d="M 77.86 128.13 L 78.74 127.91 L 78.94 128.83 L 78.13 129.02 L 77.86 128.13 Z" fill="#da5d5e" />
<path d="M 121.20 127.82 L 122.03 127.93 C 122.70 130.54 119.98 130.03 121.20 127.82 Z" fill="#e4888a" />
<path d="M 49.07 133.96 L 48.11 133.86 C 46.87 131.49 49.77 131.74 49.07 133.96 Z" fill="#edafaf" />
<path d="M 48.93 136.35 L 49.89 136.23 C 51.00 138.45 48.21 138.82 48.93 136.35 Z" fill="#d58389" />
<path d="M 150.05 136.23 L 151.02 136.33 C 151.86 138.79 149.04 138.46 150.05 136.23 Z" fill="#d38288" />
<path d="M 46.41 139.95 L 48.21 139.97 C 48.53 142.66 45.11 143.02 46.41 139.95 Z" fill="#eda6a6" />
<path d="M 151.77 140.03 L 153.56 139.91 C 154.08 141.23 153.91 141.98 153.03 142.18 C 152.12 141.96 151.70 141.25 151.77 140.03 Z" fill="#eca6a6" />
<path d="M 156.05 139.84 L 156.97 139.52 C 158.42 140.61 158.43 141.44 157.01 141.99 C 156.06 141.75 155.74 141.03 156.05 139.84 Z" fill="#eba3a3" />
<path d="M 25.76 147.30 C 27.49 149.14 26.05 151.87 26.80 153.94 C 31.69 153.11 36.06 151.07 40.83 149.83 C 42.40 149.38 43.96 149.08 45.41 148.30 C 47.51 148.44 49.38 148.39 50.92 150.07 C 52.73 151.59 51.74 153.68 52.84 155.55 C 51.88 155.58 51.22 156.08 50.86 157.05 C 50.99 158.93 54.06 158.00 55.02 157.29 C 66.25 155.21 76.78 150.79 87.97 148.77 C 94.15 147.50 100.73 147.72 107.01 148.01 C 120.39 149.53 131.55 154.76 144.95 157.28 C 145.88 158.05 149.00 158.86 149.15 157.07 C 148.76 156.19 148.10 155.67 147.18 155.52 C 148.08 153.52 147.38 151.45 149.07 150.07 C 150.60 148.41 152.46 148.42 154.55 148.31 C 160.67 150.30 166.94 152.48 173.21 153.94 C 173.77 151.22 172.35 149.00 174.70 146.70 C 177.40 144.07 181.26 145.93 184.01 147.44 C 184.56 147.71 185.12 147.98 185.68 148.23 C 185.34 149.01 185.50 149.82 186.16 150.66 C 186.23 153.73 184.42 155.66 183.36 158.35 C 182.47 161.08 183.48 163.28 184.04 165.87 C 181.15 167.87 176.79 168.16 173.38 167.88 C 172.72 167.60 172.05 167.41 171.37 167.32 L 169.40 167.05 C 166.18 166.09 163.12 164.78 160.01 163.51 L 159.18 163.88 C 159.11 166.34 160.12 168.37 160.72 170.67 C 150.89 174.10 138.98 172.45 129.19 169.47 C 127.48 169.09 126.30 168.08 124.52 168.84 C 122.55 166.86 119.19 166.36 116.62 165.42 C 105.90 161.81 94.09 161.82 83.37 165.40 C 80.79 166.35 77.43 166.86 75.46 168.85 C 74.56 168.48 73.74 168.45 73.00 168.78 C 65.29 171.48 57.16 172.75 48.99 172.52 C 45.70 172.44 42.36 171.83 39.28 170.68 C 39.78 168.36 40.86 166.32 40.84 163.87 L 39.99 163.50 C 36.88 164.75 33.82 166.10 30.59 167.05 L 28.59 167.33 C 27.91 167.43 27.25 167.61 26.60 167.89 C 23.22 168.14 18.79 167.90 15.95 165.87 C 16.34 163.41 17.76 160.83 16.59 158.38 C 15.20 155.64 13.99 153.16 13.36 150.11 L 14.66 149.68 C 14.55 149.21 14.42 148.74 14.28 148.27 C 14.86 148.01 15.43 147.74 16.00 147.46 C 18.86 145.62 23.29 143.94 25.76 147.30 Z" fill="#a3aab8" />
<path d="M 23.02 146.88 C 24.56 147.19 25.27 148.12 24.65 149.64 C 23.02 150.67 21.42 150.36 19.60 150.62 C 19.09 151.50 19.57 152.84 19.52 153.84 C 17.86 153.62 16.41 153.03 15.37 151.65 C 15.40 147.98 19.99 146.38 23.02 146.88 Z" fill="#a4c2dc" />
<path d="M 184.58 151.64 C 183.59 153.04 182.09 153.63 180.44 153.80 C 180.43 152.76 180.68 151.62 180.43 150.61 C 178.60 150.38 176.99 150.65 175.33 149.66 C 175.01 149.01 175.06 148.29 175.48 147.51 C 178.41 145.57 184.66 147.64 184.58 151.64 Z" fill="#a4c2dc" />
<path d="M 109.98 149.86 C 122.32 151.58 134.56 157.30 146.98 158.87 C 151.10 159.39 154.69 159.31 158.68 158.13 C 157.44 162.32 158.40 165.77 158.97 169.88 C 158.34 170.43 157.67 170.76 156.94 170.88 C 147.14 172.63 136.53 170.98 127.18 167.76 C 118.18 164.25 107.77 160.54 98.00 161.05 C 88.55 161.66 79.95 165.02 71.23 168.29 C 62.29 171.15 52.36 172.52 43.06 170.89 C 42.31 170.82 41.64 170.48 41.04 169.87 C 41.56 165.80 42.43 162.28 41.31 158.14 C 45.50 159.41 49.71 159.33 54.01 158.76 C 65.92 156.96 77.21 151.88 88.98 150.01 C 95.84 148.68 103.11 148.54 109.98 149.86 Z" fill="#fefefe" />
<path d="M 47.02 149.87 C 48.94 149.73 50.59 151.03 51.00 152.86 C 47.64 153.06 42.27 153.14 39.99 156.06 C 39.66 157.97 40.34 160.07 40.40 162.01 C 33.84 165.61 25.68 167.88 18.20 165.73 L 17.77 164.97 C 18.33 160.58 18.17 158.37 16.14 154.47 C 19.07 155.24 21.97 155.57 25.00 155.24 C 32.48 154.59 39.58 150.01 47.02 149.87 Z" fill="#fefefe" />
<path d="M 100.34 150.62 C 101.07 150.63 101.80 150.62 102.53 150.61 C 102.15 153.13 102.31 155.64 102.47 158.22 C 103.28 159.00 104.05 159.25 104.77 158.98 C 105.56 156.63 106.27 153.53 105.52 151.09 C 106.30 151.06 107.08 151.04 107.85 151.03 C 107.32 153.62 106.11 157.30 107.54 159.67 C 105.19 159.24 102.88 159.00 100.50 159.33 C 100.80 158.13 101.03 156.96 101.08 155.71 C 99.98 154.94 98.49 154.89 96.62 155.56 C 96.40 157.06 97.12 158.14 97.67 159.43 C 96.61 159.34 95.55 159.34 94.48 159.43 C 95.73 156.96 95.31 153.66 94.53 151.11 C 95.27 150.87 95.99 150.81 96.71 150.92 C 96.58 152.06 96.55 153.20 96.61 154.34 C 97.90 154.60 99.23 154.66 100.60 154.51 C 100.90 153.31 100.81 152.02 100.34 150.62 Z" fill="#0060b3" />
<path d="M 152.97 149.88 C 158.88 149.92 164.85 153.11 170.62 154.41 C 174.75 155.71 178.76 155.31 182.99 155.04 C 183.02 157.07 181.76 158.88 181.93 160.99 C 181.77 162.45 182.65 164.48 181.81 165.72 C 174.36 167.89 166.11 165.60 159.57 162.02 C 159.63 159.95 160.27 158.14 160.00 156.07 C 157.69 153.17 152.38 153.04 149.00 152.88 C 149.48 150.94 150.92 149.74 152.97 149.88 Z" fill="#fefefe" />
<path d="M 25.90 151.03 C 26.32 154.58 23.75 154.21 21.17 153.82 C 19.80 151.46 24.52 151.67 25.90 151.03 Z" fill="#f8f7f8" />
<path d="M 90.43 151.41 C 92.15 150.72 92.91 150.92 93.09 152.91 C 92.00 152.63 90.97 152.61 90.00 152.85 C 89.90 155.59 90.55 157.66 92.02 159.93 C 90.77 160.27 89.53 160.66 88.29 161.01 C 89.77 158.01 88.28 155.95 87.77 152.98 C 86.45 153.31 85.81 154.53 84.40 154.66 C 84.54 153.80 84.83 153.03 85.27 152.35 C 87.00 151.96 88.75 152.06 90.43 151.41 Z" fill="#64a2d2" />
<path d="M 177.12 151.78 L 178.91 152.23 C 180.13 154.88 173.52 154.72 174.04 152.03 C 173.43 150.11 176.29 151.78 177.12 151.78 Z" fill="#f7f7f7" />
<path d="M 115.70 154.72 L 114.39 154.80 C 113.87 153.42 112.29 151.53 111.56 153.94 C 112.82 155.33 114.29 156.24 115.08 158.02 C 114.64 159.19 113.89 160.16 112.87 160.90 C 111.57 161.43 110.22 160.33 109.05 159.85 C 108.93 158.90 108.93 157.94 109.04 156.96 C 110.46 158.03 110.56 160.75 112.87 159.86 C 113.94 156.82 109.41 156.96 109.95 154.03 C 109.86 150.79 116.14 151.80 115.70 154.72 Z" fill="#62a1d2" />
<path d="M 49.70 154.41 C 51.17 156.20 49.53 157.31 47.89 157.81 C 45.99 157.98 43.95 157.31 42.15 156.76 L 42.18 156.03 C 44.30 154.74 47.26 154.63 49.70 154.41 Z" fill="#a3c1db" />
<path d="M 79.78 154.04 C 79.97 157.07 82.09 159.87 81.99 162.81 C 79.35 161.74 77.11 160.20 74.58 158.95 C 74.66 160.70 75.23 162.21 76.43 163.50 C 77.47 164.96 75.37 165.27 74.39 164.90 C 74.63 161.96 73.48 159.39 71.83 157.04 C 72.60 156.10 73.44 155.97 74.33 156.62 C 76.21 157.38 78.08 159.21 80.11 159.28 C 79.84 157.72 78.74 156.42 78.00 155.02 C 78.22 154.40 78.82 154.08 79.78 154.04 Z" fill="#66a3d3" />
<path d="M 120.32 153.99 C 122.32 154.65 124.39 154.84 125.94 156.20 C 126.59 158.54 125.72 158.81 124.19 160.21 C 124.62 161.59 125.36 162.70 125.29 164.19 C 121.49 164.46 124.02 160.80 121.96 159.58 L 121.12 159.99 C 121.03 161.00 120.94 162.01 120.84 163.03 C 119.98 163.15 119.10 163.05 118.20 162.72 C 119.08 159.89 121.03 157.08 120.32 153.99 Z" fill="#4f95cc" />
<path d="M 150.30 154.41 C 152.72 154.65 155.71 154.73 157.79 156.05 L 157.84 156.76 C 156.04 157.31 154.01 157.98 152.11 157.81 C 150.46 157.34 148.78 156.20 150.30 154.41 Z" fill="#a3c1db" />
<path d="M 31.02 156.04 C 32.77 157.93 33.37 157.76 35.77 158.28 C 35.89 159.93 34.64 160.91 33.16 159.94 C 31.99 158.94 28.92 159.18 29.13 157.16 C 29.75 156.76 30.38 156.39 31.02 156.04 Z" fill="#629fd1" />
<path d="M 52.84 155.55 C 53.58 156.12 54.30 156.70 55.02 157.29 C 54.06 158.00 50.99 158.93 50.86 157.05 C 51.22 156.08 51.88 155.58 52.84 155.55 Z" fill="#2f75b1" />
<path d="M 122.25 156.12 C 124.78 154.27 125.07 160.26 122.29 158.78 C 121.89 157.98 121.88 157.10 122.25 156.12 Z" fill="#f2f7fb" />
<path d="M 147.18 155.52 C 148.10 155.67 148.76 156.19 149.15 157.07 C 149.00 158.86 145.88 158.05 144.95 157.28 C 145.68 156.67 146.42 156.09 147.18 155.52 Z" fill="#2e75b0" />
<path d="M 168.95 156.04 C 169.60 156.40 170.23 156.77 170.86 157.16 C 171.01 159.22 168.03 158.91 166.84 159.93 C 165.32 160.90 164.05 159.98 164.20 158.25 C 166.66 157.81 167.17 157.89 168.95 156.04 Z" fill="#619fd1" />
<path d="M 132.53 157.54 C 134.98 158.21 135.29 159.98 136.15 162.04 C 136.85 161.42 137.52 160.75 138.16 160.06 C 140.41 159.20 142.11 160.32 144.09 161.20 C 145.29 161.06 146.48 160.98 147.67 160.96 C 147.37 162.30 146.95 163.55 147.05 164.95 C 148.75 164.03 149.65 163.11 150.41 161.30 C 151.04 160.89 151.86 160.85 152.88 161.19 C 152.02 162.97 149.95 163.42 149.05 165.02 C 150.09 166.63 151.42 168.20 152.13 169.99 C 149.04 170.92 149.36 166.70 147.00 165.96 C 146.90 167.30 147.24 168.54 147.53 169.84 C 146.53 169.82 145.53 169.80 144.54 169.77 C 145.04 167.24 145.38 164.50 145.39 161.93 C 144.68 162.29 143.98 162.66 143.29 163.05 C 142.26 161.68 141.12 159.68 139.18 161.11 C 137.33 162.09 138.14 164.12 138.07 165.87 C 139.48 167.82 141.10 167.30 143.18 167.12 C 142.05 170.35 135.65 168.18 135.98 165.00 L 135.89 162.70 C 134.56 164.05 134.22 166.15 132.02 166.24 C 129.75 166.51 126.98 165.70 126.82 163.02 C 126.08 159.67 129.14 156.18 132.53 157.54 Z" fill="#599ccf" />
<path d="M 69.88 158.01 C 72.74 159.88 73.66 164.44 70.23 166.24 C 67.65 167.80 65.77 167.16 64.02 164.88 C 63.80 163.27 63.66 161.68 64.02 160.08 C 65.42 158.07 67.58 157.79 69.88 158.01 Z" fill="#5599ce" />
<path d="M 131.02 157.94 C 134.57 159.26 134.35 161.86 132.73 164.76 C 131.42 165.44 129.27 165.88 128.84 163.95 C 127.89 162.23 128.79 160.97 129.27 159.29 C 129.84 158.82 130.42 158.37 131.02 157.94 Z" fill="#fefefe" />
<path d="M 29.59 159.98 C 29.73 162.21 26.50 162.24 26.31 160.26 C 27.01 158.87 28.89 158.13 29.59 159.98 Z" fill="#5897ce" />
<path d="M 66.28 159.20 C 69.07 158.04 70.41 160.92 70.85 163.16 C 71.00 165.12 68.28 167.22 66.80 165.20 C 65.27 163.58 63.87 160.79 66.28 159.20 Z" fill="#fefefe" />
<path d="M 170.95 159.07 C 172.07 158.27 174.70 160.17 173.20 161.23 C 171.67 162.64 169.34 160.74 170.95 159.07 Z" fill="#5998cd" />
<path d="M 59.55 160.01 C 61.57 159.57 63.44 160.80 63.17 162.96 C 62.84 165.11 60.12 164.54 59.46 165.88 C 59.89 166.92 60.35 167.96 60.83 168.99 C 59.87 169.03 58.91 169.04 57.95 169.03 C 58.08 166.11 57.36 163.58 56.53 160.82 L 58.07 160.22 L 59.14 160.69 C 59.03 161.88 58.98 163.07 59.00 164.25 L 59.95 164.65 C 62.57 162.66 60.94 161.92 59.55 160.01 Z" fill="#4892cb" />
<path d="M 30.25 161.23 C 31.01 160.56 31.91 160.51 32.96 161.08 C 33.84 163.68 29.18 164.06 30.25 161.23 Z" fill="#3987c6" />
<path d="M 46.41 161.01 C 47.36 160.98 48.31 160.98 49.25 161.00 C 49.00 162.97 48.91 164.95 49.08 166.93 C 49.55 168.10 51.28 169.43 52.54 168.54 C 54.89 166.95 54.12 163.10 53.19 160.88 L 55.11 160.93 C 54.96 163.14 55.19 165.50 54.63 167.64 C 53.10 170.24 50.49 170.81 48.07 168.90 C 46.43 166.53 47.56 163.73 46.41 161.01 Z" fill="#559acf" />
<path d="M 167.03 161.07 C 168.28 160.21 170.74 160.91 169.65 162.70 C 168.51 164.04 166.36 162.60 167.03 161.07 Z" fill="#3a88c6" />
<path d="M 116.62 165.42 C 119.19 166.36 122.55 166.86 124.52 168.84 C 113.66 172.35 102.35 173.93 90.98 172.37 C 85.63 171.85 80.59 170.34 75.46 168.85 C 77.43 166.86 80.79 166.35 83.37 165.40 C 94.09 161.82 105.90 161.81 116.62 165.42 Z" fill="#fefefe" />
<path d="M 39.99 163.50 L 40.84 163.87 C 40.86 166.32 39.78 168.36 39.28 170.68 C 42.36 171.83 45.70 172.44 48.99 172.52 C 57.16 172.75 65.29 171.48 73.00 168.78 C 73.74 168.45 74.56 168.48 75.46 168.85 C 80.59 170.34 85.63 171.85 90.98 172.37 C 102.35 173.93 113.66 172.35 124.52 168.84 C 126.30 168.08 127.48 169.09 129.19 169.47 C 138.98 172.45 150.89 174.10 160.72 170.67 C 160.12 168.37 159.11 166.34 159.18 163.88 L 160.01 163.51 C 163.12 164.78 166.18 166.09 169.40 167.05 C 153.98 183.49 131.91 194.19 109.47 196.01 C 109.95 196.77 110.52 197.40 111.20 197.89 C 125.03 195.96 138.42 191.71 150.42 184.44 C 158.00 179.78 165.61 174.12 171.37 167.32 C 172.05 167.41 172.72 167.60 173.38 167.88 C 156.91 185.62 134.14 197.16 110.00 199.44 C 108.54 199.61 106.94 199.49 105.56 200.00 L 94.11 200.00 C 91.23 199.15 87.95 199.56 84.98 198.85 C 62.63 195.48 41.96 184.43 26.60 167.89 C 27.25 167.61 27.91 167.43 28.59 167.33 C 44.51 185.11 68.28 196.24 92.00 198.01 C 97.68 198.52 103.33 197.96 108.96 198.24 C 109.18 197.58 109.34 196.91 109.44 196.21 C 80.50 199.00 50.53 188.38 30.59 167.05 C 33.82 166.10 36.88 164.75 39.99 163.50 Z" fill="#0069b7" />
<path d="M 28.59 167.33 L 30.59 167.05 C 50.53 188.38 80.50 199.00 109.44 196.21 C 109.34 196.91 109.18 197.58 108.96 198.24 C 103.33 197.96 97.68 198.52 92.00 198.01 C 68.28 196.24 44.51 185.11 28.59 167.33 Z" fill="#d0e3f1" />
<path d="M 169.40 167.05 L 171.37 167.32 C 165.61 174.12 158.00 179.78 150.42 184.44 C 138.42 191.71 125.03 195.96 111.20 197.89 C 110.52 197.40 109.95 196.77 109.47 196.01 C 131.91 194.19 153.98 183.49 169.40 167.05 Z" fill="#d7e7f3" />
<path d="M 89.11 177.95 C 89.50 180.47 88.42 183.34 88.12 185.89 C 89.20 186.67 89.89 187.46 90.20 188.27 C 88.20 189.10 85.33 187.93 83.17 187.75 C 82.75 185.54 84.22 186.35 85.66 185.63 C 85.78 184.17 86.30 182.57 85.99 181.13 C 85.14 180.58 84.50 179.92 84.05 179.17 C 85.67 178.88 87.51 177.39 89.11 177.95 Z" fill="#a1c1db" />
<path d="M 99.41 180.94 C 100.34 183.81 99.37 188.27 96.00 189.11 C 94.36 189.21 91.44 189.97 92.12 187.28 C 93.84 187.05 96.55 187.72 96.90 185.36 C 95.16 185.38 93.84 185.95 92.38 184.64 C 90.99 182.66 91.58 179.77 93.81 178.73 C 95.83 177.63 98.79 178.62 99.41 180.94 Z" fill="#9fbfdb" />
<path d="M 107.76 181.81 C 106.72 183.71 107.95 184.23 108.52 185.98 C 108.40 188.60 106.31 189.39 104.01 189.46 C 102.42 189.38 99.69 189.43 100.89 187.01 C 102.62 187.07 104.08 187.57 105.71 186.71 C 106.47 184.09 103.85 185.43 102.69 183.95 C 103.20 182.40 105.58 182.75 105.06 180.91 C 103.88 180.51 102.51 180.56 100.94 181.05 C 98.76 177.16 110.07 177.41 107.76 181.81 Z" fill="#97bbd9" />
<path d="M 113.07 177.86 C 116.29 176.04 115.37 181.29 116.08 182.90 C 116.61 183.36 117.14 183.80 117.68 184.23 C 116.71 185.83 117.15 188.21 115.06 188.26 C 114.39 187.84 113.94 187.11 113.72 186.07 C 112.03 185.70 109.46 187.39 108.86 185.00 C 110.11 182.75 111.19 179.55 113.07 177.86 Z" fill="#abc6dd" />
<path d="M 95.19 180.11 C 97.65 179.85 97.07 182.30 96.89 183.91 C 94.34 184.48 93.25 181.79 95.19 180.11 Z" fill="#1e77bd" />
<path d="M 112.96 181.00 C 114.98 182.15 113.58 185.50 111.23 184.11 C 110.81 183.37 112.04 180.92 112.96 181.00 Z" fill="#3d88c4" />
</svg>