<?xml version="1.0" encoding="UTF-8" standalone="no"?>
<!DOCTYPE svg PUBLIC "-//W3C//DTD SVG 1.1//EN" "http://www.w3.org/Graphics/SVG/1.1/DTD/svg11.dtd">
<svg xmlns="http://www.w3.org/2000/svg" version="1.1" viewBox="0 0 200 200" width="200.0pt" height="200.0pt">
<path d="M 0.00 0.00 L 200.00 0.00 L 200.00 200.00 L 0.00 200.00 L 0.00 0.00 Z" fill="#ffffff" />
<path d="M 108.00 14.03 C 128.50 14.35 148.76 16.75 168.41 22.76 C 168.41 28.91 168.37 35.06 168.33 41.21 C 160.01 38.83 151.52 37.01 142.95 35.82 C 137.59 37.60 132.52 37.00 127.00 37.06 C 110.67 37.08 94.33 37.08 78.00 37.10 C 73.33 37.00 69.18 37.78 64.75 35.83 C 53.73 36.99 42.71 38.97 31.89 41.37 C 31.89 35.16 31.92 28.96 31.88 22.75 C 56.71 16.69 82.44 13.77 108.00 14.03 Z" fill="#082756" />
<path d="M 82.17 18.92 C 84.52 20.82 83.71 25.31 84.05 27.99 C 82.07 26.61 80.50 24.98 79.01 23.09 C 79.03 25.00 78.96 26.90 78.80 28.80 C 77.12 25.79 77.05 22.58 76.92 19.22 C 79.07 20.41 80.54 22.07 81.99 24.01 C 81.99 22.31 82.00 20.61 82.17 18.92 Z" fill="#bcc4d1" />
<path d="M 88.10 18.29 C 90.15 19.82 91.63 21.77 93.06 23.86 C 92.98 22.20 92.89 20.55 92.80 18.89 L 94.18 18.88 C 94.28 21.74 94.38 24.59 94.36 27.46 C 92.57 25.66 90.94 23.75 89.33 21.79 C 89.56 23.48 89.78 25.16 89.99 26.85 L 88.06 26.82 C 88.00 23.98 87.95 21.14 88.10 18.29 Z" fill="#d2d8e0" />
<path d="M 101.73 19.16 C 104.29 21.54 103.05 24.49 101.20 26.85 C 100.62 26.42 100.04 25.98 99.46 25.55 L 101.50 23.58 C 102.16 21.70 100.53 19.19 98.28 20.15 C 96.08 23.14 98.80 24.68 100.01 27.37 C 98.04 25.95 95.67 25.85 95.78 22.98 C 95.49 19.66 98.79 17.42 101.73 19.16 Z" fill="#eff1f4" />
<path d="M 104.76 18.49 C 106.48 18.71 108.18 18.88 109.87 19.26 C 109.95 20.51 109.65 21.68 109.38 22.88 C 109.82 24.32 110.25 25.76 110.67 27.21 C 109.23 25.78 107.86 24.30 106.44 22.85 C 106.33 24.04 106.22 25.24 106.11 26.44 C 105.60 26.42 105.09 26.40 104.57 26.38 C 104.66 23.75 104.71 21.12 104.76 18.49 Z" fill="#ffffff" />
<path d="M 110.62 18.91 C 113.81 18.98 116.99 19.28 120.18 19.47 C 120.13 20.44 120.08 21.40 120.03 22.37 C 120.86 22.47 121.69 22.57 122.52 22.67 C 123.06 21.15 123.42 20.16 124.65 19.15 C 124.54 21.86 124.27 24.55 124.03 27.25 C 123.51 27.33 123.00 27.41 122.49 27.49 C 122.59 26.29 122.68 25.09 122.78 23.90 L 120.41 23.77 C 119.84 25.22 119.25 26.53 118.26 27.75 C 118.19 25.03 118.39 22.32 118.60 19.60 C 117.42 19.94 116.24 20.27 115.06 20.60 C 114.97 22.66 114.89 24.72 114.80 26.78 L 113.10 26.68 C 113.27 24.67 113.44 22.66 113.63 20.66 C 112.62 20.08 111.62 19.50 110.62 18.91 Z" fill="#ffffff" />
<path d="M 76.08 23.98 C 76.55 27.20 74.19 27.83 72.09 29.45 C 69.83 27.58 67.79 26.44 68.79 23.03 C 70.09 19.01 75.84 19.79 76.08 23.98 Z" fill="#cdd3dd" />
<path d="M 106.44 20.24 C 108.28 19.08 109.49 21.75 107.28 22.19 C 106.11 21.90 105.83 21.25 106.44 20.24 Z" fill="#1a2c59" />
<path d="M 129.37 20.15 C 131.32 20.25 133.08 20.89 134.82 21.74 C 133.29 21.92 131.76 22.09 130.23 22.24 C 131.22 23.06 132.23 23.86 133.25 24.65 C 131.79 25.10 130.65 25.56 129.44 26.51 C 130.78 26.73 132.11 26.94 133.45 27.13 L 133.37 28.81 C 131.68 28.50 129.98 28.19 128.28 27.88 C 128.62 25.31 128.84 22.69 129.37 20.15 Z" fill="#c4cbd6" />
<path d="M 67.96 21.20 C 67.31 22.06 66.64 22.92 65.96 23.76 C 66.02 25.82 66.21 27.93 66.07 29.99 C 63.57 29.30 64.25 25.50 63.69 23.51 C 62.74 23.47 61.80 23.43 60.85 23.38 C 59.56 23.78 58.26 24.17 56.96 24.55 C 58.28 25.14 59.61 25.73 60.94 26.30 C 61.43 27.24 61.92 28.18 62.41 29.12 C 60.56 29.76 57.55 32.89 56.71 29.66 C 57.87 29.31 59.02 28.97 60.19 28.65 C 58.51 27.62 56.88 26.57 55.44 25.21 C 53.82 25.29 52.22 25.52 50.61 25.74 C 51.91 26.28 53.22 26.81 54.54 27.32 C 53.56 28.09 52.58 28.85 51.60 29.62 C 53.04 29.85 54.47 30.12 55.90 30.42 C 54.39 31.54 52.69 31.97 50.91 32.47 C 50.27 29.67 49.73 26.85 49.25 24.01 C 51.44 23.96 53.56 24.01 55.73 24.19 C 56.75 23.52 57.77 22.87 58.81 22.24 C 59.40 22.29 59.98 22.33 60.57 22.37 C 63.04 21.96 65.46 21.42 67.96 21.20 Z" fill="#aab5c5" />
<path d="M 136.16 20.62 C 138.20 22.20 138.76 24.39 139.67 26.69 C 140.10 24.43 140.21 22.77 142.07 21.22 C 141.87 24.41 141.25 27.54 140.53 30.65 C 139.22 28.82 138.10 26.87 137.02 24.89 C 136.44 26.63 135.88 28.31 134.89 29.87 C 134.82 26.71 135.17 23.62 136.16 20.62 Z" fill="#cad1db" />
<path d="M 73.63 22.34 C 74.16 23.74 74.08 25.43 74.18 26.91 C 73.17 26.94 72.16 26.97 71.15 27.00 C 70.73 25.94 70.33 24.88 69.95 23.81 C 71.19 22.38 71.60 21.45 73.63 22.34 Z" fill="#072655" />
<path d="M 144.14 22.71 C 145.91 22.83 148.28 23.04 149.28 24.73 C 151.11 26.90 148.89 29.96 146.78 30.92 C 145.30 30.93 143.79 30.69 142.32 30.51 C 142.83 27.93 143.20 25.17 144.14 22.71 Z" fill="#c3cad6" />
<path d="M 145.45 23.56 C 146.90 24.99 148.40 25.53 148.00 27.92 C 147.11 28.85 145.62 29.23 144.44 29.70 C 144.74 27.65 145.07 25.60 145.45 23.56 Z" fill="#1e3661" />
<path d="M 46.54 25.33 L 48.89 27.52 C 47.03 27.56 45.19 27.42 43.34 27.36 C 46.41 29.09 49.18 29.47 50.20 33.33 C 48.59 32.35 47.11 31.20 45.64 30.01 C 45.24 31.54 44.81 33.07 44.37 34.59 C 43.43 31.78 42.72 28.90 41.99 26.03 C 43.49 25.76 45.02 25.40 46.54 25.33 Z" fill="#bec6d2" />
<path d="M 154.30 24.78 C 155.96 25.21 157.63 25.66 159.30 26.11 L 158.94 27.13 C 157.52 27.26 156.10 27.40 154.68 27.57 C 155.76 28.31 156.85 29.05 157.94 29.78 C 155.45 30.21 154.23 31.78 152.55 33.43 C 153.01 30.52 153.64 27.65 154.30 24.78 Z" fill="#b6bfcd" />
<path d="M 40.59 26.74 C 41.10 27.67 41.61 28.60 42.11 29.53 C 41.04 30.59 39.94 31.64 38.84 32.66 C 38.93 33.46 39.03 34.26 39.13 35.05 C 38.56 35.21 38.00 35.37 37.43 35.53 C 36.78 32.98 36.09 30.44 35.42 27.89 C 37.13 27.49 38.86 27.10 40.59 26.74 Z" fill="#b6bfcd" />
<path d="M 161.40 27.36 C 163.30 26.28 164.41 28.04 166.00 28.85 C 164.29 28.96 162.59 29.05 160.88 29.12 C 160.79 30.37 160.84 31.59 161.04 32.78 C 162.13 33.65 163.25 34.48 164.39 35.27 C 162.40 35.27 160.62 35.37 159.18 33.68 C 157.88 31.22 158.85 28.46 161.40 27.36 Z" fill="#bac3d0" />
<path d="M 40.01 29.96 C 39.09 32.11 37.51 30.71 37.13 29.09 C 38.35 27.87 40.23 27.75 40.01 29.96 Z" fill="#435277" />
<path d="M 89.00 33.62 C 99.33 33.02 109.68 32.98 120.00 33.59 C 127.18 34.02 134.55 34.30 141.61 35.71 C 137.16 36.43 132.61 35.43 128.00 35.49 C 112.00 35.46 96.00 35.47 80.00 35.53 C 74.86 35.45 70.09 36.56 65.00 35.86 C 72.87 34.38 81.01 34.07 89.00 33.62 Z" fill="#ffffff" />
<path d="M 30.80 34.09 C 30.79 36.91 30.78 39.73 30.78 42.55 C 33.42 43.87 36.05 45.22 38.65 46.62 C 34.68 49.00 30.56 51.03 26.05 52.17 C 19.41 54.03 12.92 53.88 6.11 53.48 C 9.45 51.32 12.48 49.01 15.26 46.14 C 12.39 44.07 9.36 42.27 6.28 40.54 C 14.71 39.14 22.77 37.03 30.80 34.09 Z" fill="#082756" />
<path d="M 169.37 34.43 C 170.41 34.80 171.44 35.17 172.48 35.53 C 179.45 38.00 186.62 39.54 193.86 40.94 C 190.74 42.59 187.76 44.37 184.90 46.43 C 187.61 49.29 190.65 51.63 193.90 53.84 C 186.72 54.19 179.91 54.31 172.95 52.18 C 168.82 51.03 165.07 49.07 161.37 46.93 C 164.04 45.50 166.70 44.07 169.37 42.64 C 169.38 39.90 169.38 37.17 169.37 34.43 Z" fill="#082756" />
<path d="M 158.48 39.93 L 160.12 39.99 C 160.77 65.30 161.29 90.71 160.02 116.00 C 159.10 131.37 152.13 146.42 141.41 157.41 C 138.52 160.37 136.00 163.26 131.74 164.25 C 134.56 161.22 137.81 158.65 140.64 155.64 C 149.72 146.17 155.75 133.74 157.74 120.79 C 158.95 109.39 158.90 97.46 158.91 86.00 C 158.94 70.64 158.79 55.28 158.48 39.93 Z" fill="#334970" />
<path d="M 41.10 39.80 C 41.74 46.49 41.17 53.28 41.32 60.00 C 41.47 78.31 41.19 96.69 42.32 114.97 C 43.01 130.98 50.22 146.23 61.52 157.47 C 64.23 160.18 67.28 162.47 70.01 165.15 C 68.45 164.70 67.00 164.07 65.68 163.26 C 54.86 154.56 46.85 142.51 43.03 129.16 C 40.77 121.56 40.70 112.90 40.23 105.00 C 39.77 85.67 39.69 66.33 39.80 47.00 C 39.91 44.42 39.61 42.07 41.10 39.80 Z" fill="#000b40" />
<path d="M 32.05 42.39 C 34.30 41.95 36.55 41.52 38.80 41.09 C 38.84 42.77 38.87 44.46 38.90 46.14 C 36.61 44.92 34.31 43.68 32.05 42.39 Z" fill="#011d4e" />
<path d="M 161.30 40.92 C 163.60 41.49 165.89 42.07 168.17 42.68 C 165.83 43.95 163.47 45.18 161.11 46.41 C 161.17 44.58 161.23 42.75 161.30 40.92 Z" fill="#062353" />
<path d="M 94.09 54.86 C 100.33 59.57 103.01 67.52 103.24 75.10 C 108.65 70.71 114.35 66.73 119.56 62.08 C 117.35 59.63 114.55 57.96 112.19 55.71 C 110.34 51.56 115.74 47.82 118.98 50.99 C 120.52 53.80 121.63 56.70 123.73 59.19 C 127.19 56.80 129.69 53.65 132.58 50.67 C 136.50 48.13 140.91 54.23 137.22 57.17 C 133.74 59.04 130.50 60.65 127.65 63.49 C 130.18 67.02 134.30 68.05 135.71 72.17 C 138.77 73.01 141.53 73.78 143.74 76.22 C 146.39 79.12 150.10 80.44 152.92 83.05 C 154.70 85.72 155.56 89.07 156.80 92.03 C 153.38 90.58 151.23 89.02 148.70 86.32 C 146.60 83.87 143.93 83.88 140.95 83.18 C 143.14 84.90 145.75 86.27 147.72 88.25 C 149.48 90.59 150.41 93.65 151.49 96.35 C 149.10 95.56 146.87 94.49 144.66 93.31 C 141.64 91.69 138.64 91.33 136.29 88.61 L 139.70 90.04 C 139.05 88.96 138.39 87.89 137.73 86.82 C 138.77 86.77 139.81 86.73 140.85 86.67 C 141.80 87.22 142.74 87.77 143.68 88.32 C 142.64 88.90 141.59 89.49 140.55 90.08 C 143.75 91.79 146.92 93.56 150.17 95.18 C 148.76 91.98 148.18 88.88 144.84 87.15 C 140.47 84.78 137.75 80.69 133.11 78.66 C 135.38 79.12 137.63 79.62 139.88 80.18 C 141.16 79.10 142.45 78.04 143.74 76.98 C 141.24 75.26 139.20 73.44 135.96 73.50 C 134.20 74.22 132.57 75.34 130.97 76.34 C 129.07 78.57 127.07 80.67 125.45 83.12 L 127.70 84.05 L 125.56 85.59 C 125.23 84.65 124.90 83.70 124.57 82.76 C 124.27 83.57 123.98 84.39 123.69 85.21 C 122.77 85.18 121.86 85.15 120.94 85.11 C 116.86 83.62 113.53 79.56 110.17 76.86 C 106.58 79.55 103.08 82.35 99.74 85.34 C 105.41 86.56 111.08 86.53 116.85 86.34 C 117.20 87.64 117.54 88.94 117.89 90.25 C 115.52 90.15 113.26 90.28 110.93 90.68 C 111.03 89.74 111.13 88.81 111.23 87.87 C 108.10 88.27 105.17 88.70 102.40 90.30 C 101.68 89.19 100.96 88.08 100.25 86.96 C 99.56 87.56 98.87 88.15 98.19 88.75 C 98.87 89.96 99.55 91.17 100.23 92.38 C 99.55 91.68 98.88 90.98 98.21 90.27 C 96.58 90.20 94.96 90.11 93.34 90.05 L 95.80 88.46 C 97.18 86.68 94.43 87.13 93.39 86.46 L 93.73 85.46 C 92.09 85.23 90.46 84.97 88.83 84.71 C 89.10 83.72 89.37 82.73 89.65 81.74 C 88.32 81.73 87.00 81.72 85.67 81.71 C 87.40 81.32 89.85 81.39 91.27 80.38 C 91.98 79.28 92.64 78.16 93.24 77.00 C 92.14 77.74 91.04 78.48 89.95 79.24 C 90.25 77.91 90.63 76.56 90.77 75.20 C 90.44 73.78 89.48 72.48 88.80 71.20 C 89.18 70.70 89.55 70.20 89.93 69.70 C 87.48 67.98 84.98 66.65 82.26 65.43 C 80.30 65.75 78.28 65.13 76.91 66.85 C 73.92 70.20 69.74 72.57 67.12 76.15 C 65.93 78.71 66.67 79.02 68.51 80.74 C 70.44 79.61 72.39 78.55 74.46 77.68 C 73.19 78.79 71.87 79.84 70.54 80.86 C 72.00 81.08 73.46 81.30 74.92 81.54 C 75.67 81.28 76.41 81.01 77.16 80.74 C 76.83 80.23 76.50 79.72 76.16 79.21 L 78.37 77.76 C 76.46 77.27 74.54 76.81 72.62 76.35 C 75.33 76.19 78.02 75.92 80.71 75.60 C 80.04 77.09 79.18 77.73 79.76 79.37 C 80.79 78.20 81.82 77.02 82.86 75.85 C 81.54 74.33 80.26 72.77 79.00 71.19 C 78.58 72.08 78.17 72.96 77.75 73.85 C 77.40 73.36 77.05 72.88 76.70 72.40 C 74.07 74.34 71.33 76.04 68.29 77.25 C 70.74 75.22 73.46 73.58 75.85 71.46 C 76.61 71.57 77.37 71.68 78.13 71.80 C 78.13 70.31 78.12 68.83 78.09 67.34 C 79.67 67.51 81.25 67.66 82.83 67.78 C 83.81 68.31 84.80 68.85 85.78 69.39 C 86.24 70.74 86.72 72.09 87.22 73.43 L 88.97 74.03 L 89.27 75.98 C 88.57 75.57 87.87 75.16 87.17 74.74 C 86.27 76.26 85.46 77.96 84.28 79.27 C 83.13 80.14 81.33 80.19 79.96 80.47 C 78.68 81.24 77.42 82.02 76.17 82.81 C 76.33 86.45 76.18 89.91 75.66 93.52 C 76.08 94.14 76.51 94.75 76.93 95.37 C 72.64 97.09 72.53 100.97 72.04 104.98 C 71.72 107.82 73.42 109.31 74.87 111.46 C 76.93 110.35 78.95 109.19 80.94 107.95 C 79.97 107.41 79.00 106.88 78.03 106.34 C 78.67 104.58 79.32 102.82 79.98 101.06 C 79.51 100.97 79.05 100.88 78.58 100.78 C 78.47 99.58 78.35 98.38 78.22 97.18 C 79.54 97.47 80.87 97.74 82.20 98.00 C 81.83 98.59 81.47 99.17 81.11 99.75 C 81.41 101.56 81.34 103.33 81.16 105.15 C 82.20 106.92 83.33 108.45 84.73 109.96 C 84.71 108.87 84.69 107.79 84.66 106.70 L 85.33 108.74 C 86.71 108.54 88.08 108.34 89.46 108.16 C 85.62 110.15 81.81 111.00 77.54 111.52 C 72.91 112.13 69.08 114.27 65.32 116.91 C 65.48 118.13 65.63 119.34 65.77 120.55 C 67.87 121.36 69.75 122.37 72.06 122.41 C 73.99 122.65 76.75 122.51 78.23 123.92 C 74.92 125.19 70.54 125.25 67.30 123.71 C 65.37 122.51 62.86 120.52 63.96 117.94 C 65.24 114.24 70.03 112.97 73.19 111.35 C 72.21 110.31 71.24 109.27 70.28 108.22 C 65.70 112.00 61.00 115.64 56.48 119.48 C 54.98 120.70 53.30 122.11 51.42 122.65 C 50.05 121.71 48.92 120.48 48.19 118.99 C 48.65 116.83 51.06 115.34 52.58 113.90 C 50.34 113.05 48.15 112.12 45.98 111.10 C 49.16 108.18 51.43 104.49 54.48 101.50 C 57.95 98.98 61.38 96.18 65.11 94.07 C 68.13 92.52 70.72 94.57 73.30 95.95 C 73.61 94.45 73.91 92.94 74.21 91.44 C 70.08 89.38 66.22 87.36 63.66 83.34 C 61.61 79.95 60.29 75.96 60.09 72.00 C 60.13 65.47 62.98 59.18 68.29 55.26 C 75.49 49.31 86.79 48.89 94.09 54.86 Z" fill="#1879be" />
<path d="M 118.30 52.46 C 119.69 55.66 121.18 57.91 123.63 60.40 C 126.47 58.31 129.27 56.31 131.46 53.49 C 132.46 52.51 133.41 50.74 135.06 51.35 C 137.74 52.05 138.43 55.47 135.70 56.61 C 132.09 58.22 129.16 60.52 126.27 63.18 C 128.32 66.23 130.85 68.31 133.71 70.52 C 134.60 73.11 133.16 73.90 130.99 74.80 C 128.49 74.33 128.49 72.40 127.35 70.53 C 126.35 68.55 124.65 66.89 123.15 65.26 C 115.06 71.43 107.23 78.10 98.95 83.99 C 98.04 83.40 97.16 82.79 96.30 82.13 C 104.44 75.42 113.16 69.40 121.30 62.68 C 119.65 60.67 118.05 58.71 115.88 57.23 C 114.86 56.32 113.02 55.63 113.14 54.03 C 112.71 51.43 117.29 49.84 118.30 52.46 Z" fill="#fefefe" />
<path d="M 92.30 54.68 C 99.43 59.23 102.33 67.81 102.13 75.96 C 100.11 77.45 98.09 78.93 96.06 80.41 C 94.30 78.21 92.72 75.96 91.57 73.37 C 92.98 73.05 94.40 72.73 95.81 72.41 C 96.20 71.96 96.59 71.51 96.98 71.05 C 94.60 69.30 92.44 68.38 89.59 67.62 C 86.99 65.96 84.24 64.27 81.06 64.18 C 78.54 64.14 75.93 64.27 73.42 64.57 C 73.27 65.98 73.26 67.39 73.25 68.81 C 70.87 70.76 67.93 72.66 66.21 75.24 C 65.02 77.09 65.51 78.80 65.72 80.82 C 68.48 81.58 71.25 82.28 74.04 82.97 C 74.13 85.44 74.20 87.91 74.20 90.38 C 69.59 88.04 65.50 85.52 63.39 80.54 C 59.22 72.53 61.13 62.78 67.93 56.91 C 74.51 50.61 84.69 49.65 92.30 54.68 Z" fill="#fefefe" />
<path d="M 74.15 65.33 C 75.71 64.16 76.56 66.60 74.85 67.08 C 73.92 66.88 73.69 66.29 74.15 65.33 Z" fill="#edf5fa" />
<path d="M 79.58 69.11 C 80.72 68.22 82.90 68.44 83.36 69.97 C 83.26 71.85 78.62 70.75 79.58 69.11 Z" fill="#f7fafd" />
<path d="M 91.13 69.31 C 92.24 68.55 95.67 70.23 95.01 71.69 C 94.05 72.26 90.30 70.63 91.13 69.31 Z" fill="#e0edf6" />
<path d="M 121.10 68.42 C 123.51 71.11 126.04 73.55 129.20 75.36 C 125.40 77.62 123.97 81.24 121.08 84.29 C 119.94 83.61 119.46 82.46 119.63 80.81 C 119.04 81.38 118.46 81.94 117.87 82.50 C 118.04 81.29 118.92 79.78 118.50 78.59 C 117.60 79.01 116.73 79.53 115.87 80.02 C 114.49 78.74 113.05 77.47 111.80 76.06 C 114.59 73.20 117.94 70.85 121.10 68.42 Z" fill="#fefefe" />
<path d="M 84.27 72.11 C 86.04 70.88 86.50 73.33 84.79 73.82 C 83.85 73.66 83.67 73.09 84.27 72.11 Z" fill="#fdfdfe" />
<path d="M 119.25 73.33 C 119.91 73.94 119.91 73.94 119.25 73.33 Z" fill="#81b6db" />
<path d="M 124.29 72.95 C 123.01 75.06 122.16 78.22 119.09 77.89 C 119.41 75.06 122.21 74.28 124.29 72.95 Z" fill="#5da1d1" />
<path d="M 135.96 73.50 C 139.20 73.44 141.24 75.26 143.74 76.98 C 142.45 78.04 141.16 79.10 139.88 80.18 C 137.63 79.62 135.38 79.12 133.11 78.66 C 137.75 80.69 140.47 84.78 144.84 87.15 C 148.18 88.88 148.76 91.98 150.17 95.18 C 146.92 93.56 143.75 91.79 140.55 90.08 C 141.59 89.49 142.64 88.90 143.68 88.32 C 142.74 87.77 141.80 87.22 140.85 86.67 C 139.81 86.73 138.77 86.77 137.73 86.82 C 138.39 87.89 139.05 88.96 139.70 90.04 L 136.29 88.61 C 135.84 88.12 135.43 87.60 135.02 87.08 L 134.88 84.78 C 132.49 84.53 130.09 84.27 127.70 84.05 L 125.45 83.12 C 127.07 80.67 129.07 78.57 130.97 76.34 C 132.57 75.34 134.20 74.22 135.96 73.50 Z" fill="#fefefe" />
<path d="M 138.93 74.97 C 138.86 76.43 138.21 77.17 137.00 77.19 C 134.81 75.94 137.30 74.19 138.93 74.97 Z" fill="#77b0d9" />
<path d="M 145.69 79.37 C 147.76 80.50 150.13 81.49 151.89 83.07 C 153.68 85.03 154.37 88.21 155.21 90.62 C 153.00 89.18 151.10 87.50 149.23 85.66 C 147.13 83.48 144.37 83.00 141.61 82.00 C 142.16 80.70 142.71 79.41 143.27 78.12 C 144.08 78.54 144.88 78.95 145.69 79.37 Z" fill="#f8fbfd" />
<path d="M 94.14 80.10 C 93.83 81.32 92.67 83.68 91.11 82.93 C 90.30 81.38 93.03 80.39 94.14 80.10 Z" fill="#e8f2f8" />
<path d="M 134.25 82.23 C 134.91 82.89 134.91 82.89 134.25 82.23 Z" fill="#559dcf" />
<path d="M 83.02 83.30 L 83.84 83.31 L 84.24 84.03 L 83.82 84.75 L 83.00 84.74 L 82.60 84.02 L 83.02 83.30 Z" fill="#96c2e1" />
<path d="M 124.57 82.76 C 124.90 83.70 125.23 84.65 125.56 85.59 L 127.70 84.05 C 130.09 84.27 132.49 84.53 134.88 84.78 L 135.02 87.08 C 130.32 85.13 125.72 86.62 120.94 85.11 C 121.86 85.15 122.77 85.18 123.69 85.21 C 123.98 84.39 124.27 83.57 124.57 82.76 Z" fill="#87badd" />
<path d="M 96.28 84.47 C 98.18 83.64 98.13 86.50 97.82 87.62 C 96.52 87.09 95.19 85.88 96.28 84.47 Z" fill="#b5d4ea" />
<path d="M 87.26 85.27 C 87.89 85.91 87.89 85.91 87.26 85.27 Z" fill="#7db3da" />
<path d="M 81.63 87.04 C 82.08 88.24 81.51 88.83 79.91 88.81 C 79.81 87.22 80.38 86.63 81.63 87.04 Z" fill="#8dbddf" />
<path d="M 118.86 86.51 C 124.77 87.44 131.34 87.00 136.39 90.59 C 141.03 93.81 145.03 98.02 147.92 102.87 L 146.36 104.43 C 146.08 103.82 145.80 103.21 145.52 102.60 C 144.55 102.87 143.58 103.13 142.61 103.39 L 144.01 100.24 C 142.00 100.42 141.00 100.53 139.38 101.78 C 139.56 99.66 139.91 97.58 140.31 95.49 C 139.46 96.28 138.62 97.08 137.78 97.89 C 137.51 96.24 137.18 94.60 136.86 92.96 C 135.71 93.29 134.56 93.62 133.41 93.94 C 133.79 92.95 134.18 91.95 134.57 90.96 C 133.69 90.85 132.81 90.73 131.93 90.62 C 131.63 91.61 131.29 92.59 130.92 93.56 C 129.86 93.65 128.81 93.72 127.75 93.78 L 130.02 93.16 C 130.29 91.55 130.58 89.94 130.88 88.33 C 129.22 89.61 127.61 90.94 126.02 92.30 C 126.45 90.96 126.89 89.62 127.31 88.28 C 125.95 88.86 124.58 89.44 123.22 90.03 C 121.77 90.29 120.34 90.60 118.92 90.97 L 118.70 88.57 L 118.16 87.84 C 118.37 87.39 118.61 86.94 118.86 86.51 Z" fill="#1276bc" />
<path d="M 93.73 87.49 C 91.80 89.99 89.37 91.60 86.58 92.99 C 88.57 90.52 90.52 88.35 93.73 87.49 Z" fill="#9ec7e3" />
<path d="M 84.08 89.23 C 84.93 88.61 85.73 88.58 86.49 89.13 C 87.59 91.34 82.51 91.72 84.08 89.23 Z" fill="#8ebedf" />
<path d="M 80.82 89.83 C 80.63 90.99 79.54 92.67 78.20 91.89 C 77.61 90.45 79.72 89.75 80.82 89.83 Z" fill="#79b1d9" />
<path d="M 106.02 90.55 C 107.35 89.72 108.22 91.65 107.34 92.62 C 106.00 93.54 105.17 91.50 106.02 90.55 Z" fill="#78b1d9" />
<path d="M 109.17 90.04 L 109.99 90.02 L 110.42 90.74 L 110.04 91.48 L 109.23 91.50 L 108.79 90.78 L 109.17 90.04 Z" fill="#6eabd6" />
<path d="M 92.21 91.31 C 92.89 91.92 92.89 91.92 92.21 91.31 Z" fill="#6baad6" />
<path d="M 131.93 90.62 C 132.81 90.73 133.69 90.85 134.57 90.96 C 134.18 91.95 133.79 92.95 133.41 93.94 C 132.18 94.79 130.96 95.65 129.74 96.50 C 130.14 95.52 130.53 94.54 130.92 93.56 C 131.29 92.59 131.63 91.61 131.93 90.62 Z" fill="#b4d3ea" />
<path d="M 94.19 92.20 C 96.08 90.96 97.09 93.66 94.96 94.15 C 93.82 93.88 93.56 93.24 94.19 92.20 Z" fill="#97c3e2" />
<path d="M 101.39 92.05 C 102.65 91.45 103.63 93.58 102.86 94.49 C 101.65 95.10 100.66 92.92 101.39 92.05 Z" fill="#8ebedf" />
<path d="M 113.23 91.95 L 113.95 91.56 L 114.66 91.99 L 114.64 92.81 L 113.91 93.20 L 113.20 92.77 L 113.23 91.95 Z" fill="#a8cde7" />
<path d="M 136.86 92.96 C 137.18 94.60 137.51 96.24 137.78 97.89 L 136.68 99.01 C 135.59 97.32 134.50 95.63 133.41 93.94 C 134.56 93.62 135.71 93.29 136.86 92.96 Z" fill="#76b0d8" />
<path d="M 84.26 94.07 L 85.98 93.86 C 87.77 94.52 85.65 95.73 84.75 95.83 C 83.00 96.05 82.84 94.85 84.26 94.07 Z" fill="#c5ddee" />
<path d="M 106.20 94.25 C 106.86 94.90 106.86 94.90 106.20 94.25 Z" fill="#5da1d1" />
<path d="M 125.25 94.29 C 125.86 94.90 125.86 94.90 125.25 94.29 Z" fill="#accfe7" />
<path d="M 66.02 94.99 C 69.14 94.09 70.61 95.69 72.67 97.62 C 71.40 98.22 70.12 98.81 68.84 99.40 C 67.84 98.56 66.84 97.71 65.84 96.87 C 64.20 100.22 62.60 103.58 60.72 106.80 C 59.10 105.98 57.47 105.21 55.78 104.55 C 56.68 105.26 57.59 105.97 58.51 106.66 C 57.89 107.74 57.28 108.81 56.67 109.88 C 56.41 109.00 56.15 108.11 55.88 107.23 C 54.92 106.84 53.95 106.45 52.98 106.05 C 53.65 104.72 54.32 103.38 55.00 102.05 C 58.94 100.13 62.03 96.64 66.02 94.99 Z" fill="#ffffff" />
<path d="M 121.95 95.34 C 122.91 96.67 120.91 98.47 119.94 99.23 C 118.86 97.56 119.72 94.82 121.95 95.34 Z" fill="#91bfe0" />
<path d="M 89.27 96.32 C 91.85 97.08 94.41 97.86 96.96 98.72 C 93.89 100.25 91.75 98.71 88.80 97.80 L 89.27 96.32 Z" fill="#afd1e8" />
<path d="M 133.13 96.32 L 133.95 96.32 L 134.36 97.04 L 133.96 97.77 L 133.14 97.77 L 132.73 97.05 L 133.13 96.32 Z" fill="#86b9dd" />
<path d="M 83.24 97.28 C 83.73 97.76 83.73 97.76 83.24 97.28 Z" fill="#abcfe7" />
<path d="M 130.26 97.49 C 130.80 97.97 130.80 97.97 130.26 97.49 Z" fill="#73aed7" />
<path d="M 117.22 98.31 C 117.72 98.81 117.72 98.81 117.22 98.31 Z" fill="#8fbedf" />
<path d="M 141.28 98.23 L 142.00 97.81 L 142.73 98.19 L 142.74 99.01 L 142.02 99.44 L 141.29 99.05 L 141.28 98.23 Z" fill="#a1c9e5" />
<path d="M 65.97 99.05 C 67.40 98.82 68.26 100.58 66.69 101.13 C 65.14 101.37 64.37 99.69 65.97 99.05 Z" fill="#ddebf5" />
<path d="M 129.27 99.20 C 131.30 98.78 131.49 101.26 129.80 101.94 C 127.76 102.51 127.89 99.88 129.27 99.20 Z" fill="#7db4da" />
<path d="M 134.27 99.14 L 135.00 98.74 L 135.72 99.16 L 135.73 99.98 L 135.01 100.37 L 134.28 99.95 L 134.27 99.14 Z" fill="#6ba9d5" />
<path d="M 86.32 100.33 C 86.83 100.79 86.83 100.79 86.32 100.33 Z" fill="#abcee7" />
<path d="M 88.18 100.24 C 88.73 100.72 88.73 100.72 88.18 100.24 Z" fill="#70acd7" />
<path d="M 100.70 100.39 L 101.91 101.09 C 101.76 102.08 101.61 103.08 101.47 104.07 C 100.14 103.80 98.81 103.54 97.48 103.28 C 98.55 102.32 99.63 101.36 100.70 100.39 Z" fill="#3a8cc7" />
<path d="M 107.09 100.19 L 107.91 100.19 L 108.31 100.91 L 107.91 101.63 L 107.09 101.63 L 106.68 100.91 L 107.09 100.19 Z" fill="#accfe7" />
<path d="M 83.18 101.13 L 83.90 100.72 L 84.62 101.14 L 84.62 101.96 L 83.90 102.37 L 83.18 101.95 L 83.18 101.13 Z" fill="#c2dbee" />
<path d="M 92.31 101.27 C 92.80 101.77 92.80 101.77 92.31 101.27 Z" fill="#9fc8e4" />
<path d="M 96.34 101.75 C 96.54 102.45 96.74 103.16 96.94 103.86 C 98.09 104.52 99.26 105.13 100.45 105.72 C 99.55 106.93 98.66 108.16 97.79 109.39 C 98.42 110.57 99.05 111.75 99.67 112.94 C 100.54 113.26 101.40 113.58 102.27 113.91 C 100.36 114.19 99.01 114.32 97.15 113.76 C 97.47 116.76 101.17 116.49 103.33 117.46 C 103.53 118.17 103.72 118.88 103.92 119.60 C 105.83 118.68 107.74 117.78 109.62 116.79 L 107.68 116.76 C 107.42 116.17 107.15 115.59 106.89 115.01 C 108.37 114.14 109.85 113.30 111.36 112.50 C 110.59 113.56 109.81 114.61 109.03 115.66 L 110.26 116.45 C 111.88 114.94 113.53 113.45 115.17 111.96 C 114.71 110.79 114.26 109.63 113.81 108.46 C 114.78 109.22 115.74 109.98 116.70 110.75 C 114.74 107.15 115.43 104.95 116.69 101.31 C 116.97 104.24 115.75 109.43 118.67 111.29 C 122.09 113.41 125.97 114.78 129.49 116.74 C 124.41 116.54 119.06 115.32 114.02 115.91 C 112.01 116.35 112.31 118.23 111.49 119.82 C 110.96 119.48 110.43 119.14 109.90 118.81 C 109.72 119.18 109.55 119.56 109.37 119.94 C 109.44 121.12 109.50 122.30 109.56 123.48 C 110.52 122.86 111.48 122.24 112.44 121.62 C 113.38 121.95 114.33 122.28 115.27 122.61 C 114.96 121.46 114.64 120.30 114.32 119.15 C 115.43 119.07 116.54 118.99 117.65 118.91 C 117.18 119.70 116.71 120.49 116.24 121.27 C 118.10 122.08 119.97 122.82 121.88 123.49 C 121.46 122.74 121.04 122.00 120.62 121.25 L 122.67 120.69 C 121.00 120.02 120.10 119.05 119.99 117.79 C 121.31 118.25 122.44 119.02 123.59 119.80 C 123.94 119.63 124.29 119.45 124.64 119.28 C 127.32 119.73 129.99 119.88 132.70 119.87 L 133.73 122.59 C 134.10 121.36 134.44 120.12 134.78 118.89 C 136.87 115.58 138.70 112.50 139.07 108.49 C 137.78 109.54 136.50 110.58 135.20 111.61 C 136.52 109.41 138.03 107.35 139.51 105.26 C 138.15 105.54 136.80 105.82 135.44 106.10 C 136.79 105.47 138.15 104.84 139.50 104.23 C 137.70 102.32 135.64 102.99 133.28 102.69 C 133.19 103.49 133.11 104.29 133.02 105.08 C 132.87 103.38 132.73 101.68 132.62 99.98 C 133.44 100.76 134.26 101.55 135.09 102.34 C 136.51 102.31 137.92 102.26 139.34 102.20 C 139.61 104.09 139.88 105.98 140.15 107.87 L 141.88 106.53 C 141.51 109.22 141.50 112.10 140.71 114.71 C 140.21 116.19 138.17 117.05 136.99 117.95 C 136.89 119.41 136.82 120.87 136.74 122.33 C 139.26 122.11 141.76 122.05 144.29 122.14 C 144.39 120.98 144.49 119.82 144.61 118.67 C 144.52 118.25 144.44 117.83 144.35 117.41 C 145.72 116.93 147.08 116.44 148.44 115.93 C 147.67 115.32 146.91 114.71 146.13 114.11 C 146.70 112.34 147.25 110.58 147.82 108.82 C 147.49 107.82 147.16 106.81 146.82 105.81 L 146.36 104.43 L 147.92 102.87 C 149.66 106.76 151.72 111.68 151.12 116.00 C 150.28 118.69 148.61 121.66 146.56 123.61 C 144.42 124.92 141.30 124.81 138.88 125.33 C 133.64 122.31 126.23 121.92 120.79 124.59 C 119.16 124.09 117.53 123.57 115.90 123.05 C 114.51 123.88 113.12 124.71 111.74 125.56 C 109.06 124.61 107.65 123.75 105.80 121.59 C 104.14 121.59 102.48 121.62 100.83 121.65 C 101.11 122.88 101.41 124.11 101.70 125.34 C 93.59 123.47 87.02 127.13 79.69 124.07 C 82.08 123.68 84.47 123.45 86.87 123.34 C 87.94 123.60 89.02 123.80 90.11 123.96 C 91.72 123.32 93.15 122.23 94.77 121.60 C 96.80 121.24 98.97 121.20 101.04 121.07 C 98.78 119.29 95.54 115.72 93.19 119.45 C 92.48 119.10 91.78 118.75 91.07 118.39 C 88.96 118.84 86.84 119.22 84.71 119.57 C 83.95 120.85 83.18 122.12 82.40 123.39 L 82.63 120.01 C 77.79 120.36 73.16 120.21 68.60 118.40 C 70.41 117.83 72.23 117.31 74.06 116.78 L 74.28 119.35 C 75.94 118.13 77.59 116.90 79.23 115.65 L 77.62 118.84 C 79.07 118.07 80.51 117.27 81.94 116.45 C 85.03 117.49 87.50 118.12 90.82 117.38 C 89.65 116.59 88.48 115.80 87.31 115.01 C 89.98 115.43 92.64 115.83 95.32 116.13 C 94.38 114.89 93.42 113.65 92.46 112.42 C 92.97 112.11 93.48 111.80 93.99 111.49 L 91.82 110.00 C 93.60 110.04 95.39 110.07 97.18 110.10 C 94.54 107.69 91.70 105.52 89.13 103.03 C 91.81 104.35 94.52 105.56 97.39 106.42 C 96.12 104.78 94.77 103.21 93.40 101.66 C 94.38 101.68 95.36 101.71 96.34 101.75 Z" fill="#197abe" />
<path d="M 59.15 102.03 L 59.86 101.59 L 60.60 101.96 L 60.63 102.78 L 59.92 103.22 L 59.17 102.84 L 59.15 102.03 Z" fill="#71add7" />
<path d="M 67.31 101.99 C 66.30 104.00 65.01 105.05 62.89 105.77 C 63.27 103.14 64.80 102.25 67.31 101.99 Z" fill="#e1eef6" />
<path d="M 71.25 101.03 C 71.05 102.86 70.85 104.69 70.66 106.52 C 64.31 111.43 58.29 116.84 51.83 121.56 C 51.20 120.64 50.62 119.69 50.06 118.72 C 50.93 116.93 52.83 115.55 54.32 114.28 C 59.92 109.81 65.80 105.72 71.25 101.03 Z" fill="#fefefe" />
<path d="M 74.36 103.27 C 74.84 103.76 74.84 103.76 74.36 103.27 Z" fill="#a5cbe5" />
<path d="M 83.30 103.05 C 84.91 102.10 85.75 104.51 83.91 104.80 C 82.94 104.49 82.74 103.91 83.30 103.05 Z" fill="#c4ddee" />
<path d="M 128.50 103.15 C 129.09 104.34 127.28 105.66 126.26 104.90 C 125.66 103.76 127.54 102.40 128.50 103.15 Z" fill="#62a4d3" />
<path d="M 108.00 104.27 C 107.80 105.56 106.91 108.46 105.12 107.63 C 104.12 105.97 106.76 104.70 108.00 104.27 Z" fill="#74afd8" />
<path d="M 111.29 104.26 C 111.90 104.87 111.90 104.87 111.29 104.26 Z" fill="#a9cde6" />
<path d="M 85.20 105.06 C 86.57 104.04 88.01 106.29 86.16 106.73 C 85.13 106.49 84.80 105.93 85.20 105.06 Z" fill="#aacee7" />
<path d="M 144.28 105.26 C 144.80 105.78 144.80 105.78 144.28 105.26 Z" fill="#63a4d3" />
<path d="M 127.24 105.97 C 128.94 104.62 129.42 107.18 127.81 107.71 C 126.90 107.58 126.71 107.00 127.24 105.97 Z" fill="#5da2d1" />
<path d="M 133.92 105.64 C 133.62 107.31 133.37 109.10 132.76 110.69 C 131.92 112.01 130.27 112.85 129.04 113.77 C 130.45 110.91 132.06 108.22 133.92 105.64 Z" fill="#7bb2d9" />
<path d="M 52.15 106.62 C 52.33 107.41 52.50 108.20 52.67 108.99 C 52.37 110.13 52.07 111.27 51.74 112.41 C 51.05 111.64 50.37 110.86 49.72 110.05 C 50.49 108.88 51.30 107.74 52.15 106.62 Z" fill="#abcee7" />
<path d="M 52.15 106.62 C 53.29 107.09 54.43 107.58 55.55 108.08 C 54.51 109.95 54.01 111.75 51.74 112.41 C 52.07 111.27 52.37 110.13 52.67 108.99 C 52.50 108.20 52.33 107.41 52.15 106.62 Z" fill="#f0f7fb" />
<path d="M 101.27 107.60 C 103.43 109.28 105.57 110.88 108.01 112.14 C 107.56 112.57 107.10 112.99 106.64 113.42 C 106.28 114.79 106.35 117.38 104.96 118.11 C 103.78 117.34 103.18 115.54 102.43 114.38 C 103.69 113.65 104.95 112.92 106.21 112.19 L 103.79 109.90 C 103.46 111.10 103.13 112.31 102.79 113.51 C 101.32 112.37 99.86 111.23 98.40 110.07 C 99.33 109.22 100.29 108.39 101.27 107.60 Z" fill="#569dcf" />
<path d="M 111.77 106.97 C 111.43 108.26 110.14 110.74 108.49 109.93 C 107.85 108.13 110.33 107.06 111.77 106.97 Z" fill="#89bbdd" />
<path d="M 91.04 108.11 C 90.97 109.45 90.08 111.79 88.37 111.02 C 87.65 109.58 89.93 108.43 91.04 108.11 Z" fill="#abcfe7" />
<path d="M 113.15 109.31 C 113.24 110.17 113.17 110.98 112.94 111.75 C 111.76 112.03 110.51 112.03 109.19 111.74 C 110.24 110.43 111.37 109.37 113.15 109.31 Z" fill="#76afd8" />
<path d="M 123.33 110.22 C 123.81 110.71 123.81 110.71 123.33 110.22 Z" fill="#b2d2e9" />
<path d="M 115.99 112.12 C 117.62 111.00 119.06 113.83 116.95 114.17 C 115.80 113.83 115.48 113.14 115.99 112.12 Z" fill="#d3e6f2" />
<path d="M 135.01 112.32 C 135.26 113.59 135.02 116.26 133.14 115.65 C 132.18 114.32 133.94 112.91 135.01 112.32 Z" fill="#67a7d4" />
<path d="M 143.41 112.99 C 144.79 112.10 145.99 114.72 144.22 114.88 C 143.26 114.47 142.99 113.84 143.41 112.99 Z" fill="#6caad6" />
<path d="M 89.55 120.06 L 90.28 119.66 L 91.02 120.06 L 91.01 120.87 L 90.28 121.27 L 89.54 120.87 L 89.55 120.06 Z" fill="#70add7" />
<path d="M 97.56 122.29 C 98.10 122.78 98.10 122.78 97.56 122.29 Z" fill="#b4d3ea" />
<path d="M 98.97 123.25 C 99.50 123.77 99.50 123.77 98.97 123.25 Z" fill="#c4ddee" />
<path d="M 82.95 135.63 C 86.30 135.60 89.69 135.35 93.03 135.61 C 95.39 135.82 97.88 136.82 98.93 139.09 C 99.89 141.71 99.30 145.20 97.04 147.01 C 94.32 149.27 90.89 149.36 87.55 149.77 C 87.64 152.54 87.72 155.32 87.82 158.09 C 86.22 158.09 84.62 158.10 83.03 158.10 C 83.22 150.62 83.35 143.10 82.95 135.63 Z" fill="#042353" />
<path d="M 102.63 135.62 C 106.80 135.74 111.74 134.84 115.69 136.31 C 120.01 137.94 119.98 144.14 116.90 146.89 C 114.19 149.28 110.63 149.34 107.23 149.78 C 107.32 152.55 107.41 155.33 107.50 158.10 C 105.88 158.10 104.26 158.10 102.64 158.10 C 102.86 150.61 102.89 143.11 102.63 135.62 Z" fill="#082756" />
<path d="M 87.39 138.69 C 89.19 138.80 91.10 138.76 92.87 139.17 C 94.89 140.03 95.66 142.59 94.38 144.39 C 93.02 146.47 89.84 146.22 87.64 146.71 C 87.55 144.04 87.47 141.37 87.39 138.69 Z" fill="#ffffff" />
<path d="M 107.07 138.75 C 108.93 138.84 110.95 138.74 112.74 139.26 C 115.09 140.35 115.29 143.76 113.26 145.27 C 111.62 146.34 109.22 146.34 107.33 146.66 C 107.24 144.02 107.16 141.39 107.07 138.75 Z" fill="#ffffff" />
<path d="M 6.10 146.16 C 13.28 145.81 20.09 145.69 27.05 147.82 C 31.18 148.97 34.93 150.92 38.62 153.07 C 35.96 154.49 33.29 155.92 30.63 157.36 C 30.62 160.10 30.62 162.83 30.63 165.56 C 22.68 162.58 14.48 160.62 6.14 159.06 C 9.26 157.41 12.24 155.63 15.10 153.57 C 12.39 150.71 9.35 148.37 6.10 146.16 Z" fill="#082756" />
<path d="M 193.89 146.52 C 190.55 148.68 187.52 150.99 184.74 153.86 C 187.61 155.93 190.64 157.73 193.72 159.46 C 185.28 160.87 177.21 162.97 169.19 165.92 C 169.21 163.13 169.23 160.33 169.28 157.54 C 166.78 156.18 164.27 154.88 161.63 153.82 C 163.66 155.20 165.80 156.40 167.91 157.65 C 165.64 158.09 163.37 158.53 161.09 158.97 C 161.33 156.51 160.26 154.22 162.67 152.69 C 172.20 146.61 182.85 145.66 193.89 146.52 Z" fill="#082756" />
<path d="M 39.02 153.50 C 38.92 155.38 38.82 157.26 38.71 159.14 C 36.41 158.54 34.11 157.94 31.82 157.30 C 34.21 156.01 36.61 154.76 39.02 153.50 Z" fill="#0d2a58" />
<path d="M 31.66 158.79 C 52.37 164.73 73.52 166.75 95.00 166.85 C 119.58 166.75 144.11 163.96 168.11 158.63 C 168.11 164.84 168.08 171.05 168.12 177.25 C 155.58 180.33 142.83 182.57 130.00 183.99 C 97.64 187.64 62.92 186.79 31.59 177.24 C 31.59 171.09 31.63 164.94 31.66 158.79 Z" fill="#082756" />
<path d="M 54.46 170.04 C 56.95 169.90 58.42 169.63 59.91 171.99 C 58.61 171.91 57.30 171.82 56.00 171.73 L 56.00 172.82 C 57.07 173.14 58.13 173.47 59.19 173.81 C 57.86 174.40 56.53 174.97 55.19 175.55 C 56.68 176.38 58.19 177.20 59.67 178.05 C 57.59 178.05 55.52 178.02 53.45 177.96 C 53.74 175.33 53.94 172.64 54.46 170.04 Z" fill="#a9b4c4" />
<path d="M 139.49 169.82 C 140.05 170.49 140.60 171.16 141.15 171.83 C 140.77 172.34 140.39 172.85 140.01 173.36 C 140.68 174.17 141.35 174.98 142.01 175.80 C 141.97 174.41 141.94 173.01 141.91 171.62 C 143.22 171.31 144.59 170.82 145.94 170.92 C 147.70 172.24 147.16 174.88 147.30 176.83 C 146.26 177.22 145.21 177.60 144.16 177.99 C 143.55 177.45 142.93 176.90 142.31 176.36 C 139.71 178.46 139.31 178.48 136.05 177.83 C 133.45 179.06 130.74 179.13 127.96 179.54 C 127.43 177.75 126.89 175.97 126.32 174.20 C 127.22 173.71 128.11 173.22 129.00 172.73 L 129.00 176.82 C 129.61 176.29 130.23 175.76 130.84 175.23 C 130.50 174.18 130.21 173.13 129.97 172.06 C 131.19 170.71 132.25 170.69 133.97 170.89 C 134.69 172.77 135.14 174.76 135.77 176.68 C 135.97 174.81 136.04 172.92 136.27 171.05 C 137.16 170.01 138.25 170.05 139.49 169.82 Z" fill="#b8c0ce" />
<path d="M 65.78 171.24 C 68.21 171.56 70.64 171.89 73.07 172.26 C 72.07 172.70 71.08 173.13 70.08 173.55 C 69.92 175.56 69.74 177.57 69.56 179.58 C 68.95 179.61 68.34 179.63 67.72 179.66 C 67.86 177.53 67.98 175.40 68.07 173.26 C 67.23 172.99 66.39 172.71 65.55 172.43 C 64.23 172.48 62.90 172.54 61.58 172.59 C 62.83 173.59 64.11 174.56 65.38 175.53 C 64.99 176.75 65.05 178.09 63.93 178.86 C 62.57 179.02 61.21 179.13 59.84 179.19 L 59.87 176.90 C 61.09 177.18 62.30 177.46 63.52 177.74 C 62.32 176.16 60.94 174.64 59.91 172.94 C 61.13 169.86 63.17 171.19 65.78 171.24 Z" fill="#b3bdcb" />
<path d="M 138.95 171.13 L 139.04 172.86 C 136.81 173.68 136.66 170.55 138.95 171.13 Z" fill="#37476f" />
<path d="M 75.18 172.08 L 76.76 172.15 C 78.19 174.80 78.67 178.10 79.17 181.04 C 78.11 180.10 77.07 179.14 76.06 178.14 C 75.60 178.13 75.14 178.11 74.68 178.09 C 73.60 178.94 72.50 179.76 71.38 180.57 C 72.29 177.68 73.40 174.57 75.18 172.08 Z" fill="#b4bdcc" />
<path d="M 80.01 172.55 C 81.56 172.57 83.11 172.60 84.67 172.62 L 84.55 173.73 C 83.60 173.57 82.64 173.44 81.68 173.35 C 82.30 176.15 82.39 175.17 85.21 175.99 C 84.07 176.32 82.92 176.65 81.77 176.98 C 81.92 177.74 82.07 178.51 82.22 179.29 C 83.58 178.60 84.94 177.90 86.31 177.25 C 86.07 181.36 82.95 180.54 80.01 181.12 C 79.99 178.46 80.00 175.80 80.00 173.14 L 80.01 172.55 Z" fill="#929fb4" />
<path d="M 132.06 172.16 L 132.86 172.17 L 133.27 172.91 L 132.89 173.66 L 132.09 173.65 L 131.68 172.90 L 132.06 172.16 Z" fill="#051649" />
<path d="M 144.50 171.82 C 145.56 173.27 145.91 174.86 146.29 176.59 C 145.03 175.84 143.87 175.05 142.81 174.04 C 143.35 173.28 143.92 172.54 144.50 171.82 Z" fill="#223b66" />
<path d="M 88.87 172.14 C 89.02 174.39 89.05 176.65 89.06 178.91 C 90.09 179.42 91.53 179.82 92.32 180.69 C 90.62 181.14 88.74 180.99 87.00 181.02 C 87.29 177.99 86.34 174.34 88.87 172.14 Z" fill="#c1c8d4" />
<path d="M 94.86 172.31 C 95.06 175.24 95.00 178.16 95.00 181.09 L 93.16 180.82 C 93.14 178.26 92.29 173.86 94.86 172.31 Z" fill="#ced4dd" />
<path d="M 104.56 173.27 C 104.57 174.18 104.58 175.09 104.60 176.00 L 107.17 176.00 C 107.16 175.01 107.15 174.01 107.14 173.02 L 109.00 172.98 C 108.99 175.89 109.03 178.79 108.98 181.69 C 107.98 180.28 107.04 178.82 106.00 177.44 C 105.05 178.01 104.53 179.20 104.46 181.00 L 103.03 181.00 C 102.91 179.00 103.12 176.69 102.38 174.81 C 101.43 173.60 98.94 174.74 97.65 174.71 C 99.20 176.00 100.76 177.26 102.27 178.58 C 101.74 179.47 101.21 180.37 100.69 181.26 C 98.81 181.12 97.00 180.93 95.23 180.22 C 96.93 179.93 98.63 179.68 100.33 179.46 C 98.67 178.05 97.01 176.66 95.52 175.06 C 98.23 171.93 100.96 173.44 104.56 173.27 Z" fill="#bac3d0" />
<path d="M 110.57 172.93 C 112.15 172.87 113.72 172.80 115.29 172.73 L 115.29 173.97 C 113.98 174.21 112.67 174.45 111.37 174.71 C 112.69 175.35 114.03 175.94 115.37 176.53 C 114.10 177.07 112.84 177.61 111.57 178.16 C 113.28 178.68 114.99 179.21 116.70 179.75 C 114.87 180.46 112.96 180.82 111.03 181.13 C 110.88 178.40 110.74 175.66 110.57 172.93 Z" fill="#d2d8e0" />
<path d="M 116.80 172.46 C 120.11 172.74 122.84 171.79 123.63 175.97 C 123.28 180.26 120.62 179.99 117.20 180.57 C 117.05 177.87 116.93 175.17 116.80 172.46 Z" fill="#f0f2f5" />
<path d="M 118.41 173.45 C 119.61 174.03 122.01 174.32 121.84 176.10 C 122.22 178.17 120.29 178.44 119.02 179.60 C 118.77 177.56 118.57 175.51 118.41 173.45 Z" fill="#001c4d" />
<path d="M 138.00 174.65 C 139.53 173.84 140.40 175.75 139.87 177.01 C 138.34 177.37 136.88 176.08 138.00 174.65 Z" fill="#1e315e" />
<path d="M 132.11 175.35 C 133.52 174.54 134.64 176.77 133.62 177.78 C 132.08 178.66 131.20 176.43 132.11 175.35 Z" fill="#17305d" />
</svg>