<?xml version="1.0" encoding="UTF-8" standalone="no"?>
<!DOCTYPE svg PUBLIC "-//W3C//DTD SVG 1.1//EN" "http://www.w3.org/Graphics/SVG/1.1/DTD/svg11.dtd">
<svg xmlns="http://www.w3.org/2000/svg" version="1.1" viewBox="0 0 200 200" width="200.0pt" height="200.0pt">
<path d="M 0.00 0.00 L 95.56 0.00 C 79.65 1.01 64.10 5.24 50.28 13.27 C 32.80 23.29 18.51 38.66 9.82 56.84 C 3.96 68.91 0.96 81.97 0.00 95.32 L 0.00 0.00 Z" fill="#ffffff" />
<path d="M 95.56 0.00 L 104.72 0.00 L 105.66 0.08 C 121.64 1.25 137.22 5.74 151.00 14.01 C 168.54 24.42 182.76 40.26 191.13 58.88 C 203.94 86.93 202.72 120.77 187.80 147.78 C 173.65 173.99 147.52 193.01 118.19 198.30 C 97.01 202.11 74.76 199.20 55.49 189.50 C 29.78 176.80 10.22 152.75 3.19 124.93 C 1.40 118.19 0.61 111.33 0.00 104.40 L 0.00 95.32 C 0.96 81.97 3.96 68.91 9.82 56.84 C 18.51 38.66 32.80 23.29 50.28 13.27 C 64.10 5.24 79.65 1.01 95.56 0.00 Z" fill="#0093d6" />
<path d="M 104.72 0.00 L 200.00 0.00 L 200.00 200.00 L 0.00 200.00 L 0.00 104.40 C 0.61 111.33 1.40 118.19 3.19 124.93 C 10.22 152.75 29.78 176.80 55.49 189.50 C 74.76 199.20 97.01 202.11 118.19 198.30 C 147.52 193.01 173.65 173.99 187.80 147.78 C 202.72 120.77 203.94 86.93 191.13 58.88 C 182.76 40.26 168.54 24.42 151.00 14.01 C 137.22 5.74 121.64 1.25 105.66 0.08 L 104.72 0.00 Z" fill="#ffffff" />
<path d="M 84.49 6.68 C 99.36 4.32 114.69 5.31 129.03 9.96 C 146.18 15.48 161.65 26.02 173.07 39.96 C 182.17 50.99 188.69 64.11 192.00 78.02 C 197.12 99.54 194.52 122.74 184.50 142.48 C 172.31 166.89 149.32 185.31 122.81 191.79 C 100.08 197.42 75.46 194.38 54.89 183.13 C 28.79 169.06 10.19 142.45 6.34 113.00 C 3.74 94.11 6.85 74.53 15.50 57.51 C 28.80 30.81 55.01 11.42 84.49 6.68 Z" fill="#012442" />
<path d="M 99.22 13.22 C 101.65 12.33 104.49 12.79 106.34 14.66 C 109.09 17.32 108.77 22.44 105.90 24.90 C 102.88 27.41 97.73 26.65 95.98 22.97 C 94.04 19.43 95.44 14.79 99.22 13.22 Z" fill="#ffffff" />
<path d="M 91.58 13.95 C 89.81 15.88 87.65 15.44 85.39 16.40 C 82.57 18.41 83.22 23.28 86.22 24.81 C 87.85 25.79 90.20 24.77 91.97 24.45 L 92.68 26.13 C 89.80 26.88 87.39 27.97 84.50 26.49 C 80.24 24.43 79.59 18.18 83.36 15.30 C 85.90 13.25 88.56 13.72 91.58 13.95 Z" fill="#ffffff" />
<path d="M 114.60 14.17 C 115.64 14.25 116.69 14.45 117.71 14.67 C 118.36 18.23 118.76 21.76 119.21 25.35 C 121.48 22.53 123.72 19.68 126.00 16.87 C 127.00 17.09 128.00 17.31 129.00 17.54 C 127.98 21.78 126.87 26.01 125.87 30.27 C 125.00 30.09 124.13 29.91 123.26 29.73 C 124.10 26.39 124.93 23.05 125.74 19.71 C 123.25 23.01 120.96 26.38 117.92 29.22 C 117.02 25.33 116.55 21.39 115.87 17.46 C 115.06 20.54 114.49 23.73 113.42 26.73 L 111.49 27.29 C 112.17 22.87 113.34 18.45 114.60 14.17 Z" fill="#ffffff" />
<path d="M 100.05 15.01 C 102.12 14.12 104.27 14.90 105.06 17.04 C 105.98 19.73 105.37 23.99 102.01 24.57 C 97.26 24.72 96.69 17.10 100.05 15.01 Z" fill="#012442" />
<path d="M 75.75 15.68 C 75.49 18.73 74.69 21.74 74.51 24.79 C 74.77 26.56 75.46 28.28 76.01 29.98 L 73.70 31.12 C 72.95 29.30 72.34 27.34 71.31 25.66 C 69.52 23.46 67.19 21.68 65.19 19.66 C 66.18 19.40 67.17 19.17 68.17 18.97 C 69.88 20.10 71.30 21.75 72.76 23.19 C 73.30 20.07 72.45 17.42 75.75 15.68 Z" fill="#e0e5e8" />
<path d="M 135.24 20.25 C 137.70 21.21 141.04 22.44 142.12 25.04 C 141.73 26.99 140.41 27.56 138.89 28.56 C 139.60 30.59 140.51 31.95 138.73 33.78 C 135.93 36.05 132.12 33.13 129.33 32.06 C 131.31 28.14 132.98 24.01 135.24 20.25 Z" fill="#eaedef" />
<path d="M 59.32 21.57 L 61.39 22.01 C 62.99 25.93 63.81 30.19 65.15 34.21 C 64.41 34.78 63.67 35.35 62.93 35.92 C 60.32 33.64 57.73 31.35 55.14 29.04 C 56.12 32.30 57.07 35.56 57.99 38.83 C 57.23 39.34 56.46 39.84 55.69 40.35 C 52.35 37.32 49.01 34.30 45.68 31.26 C 46.37 30.72 47.07 30.17 47.76 29.62 C 50.40 32.17 53.01 34.75 55.64 37.31 C 54.70 33.87 53.44 30.37 52.90 26.84 L 54.14 25.49 C 57.28 27.61 60.01 30.41 62.87 32.90 C 61.58 29.15 60.28 25.42 59.32 21.57 Z" fill="#ffffff" />
<path d="M 136.46 23.08 C 138.13 22.51 140.14 24.33 139.03 25.99 C 138.67 27.46 136.33 27.08 135.30 26.66 C 135.28 25.31 135.88 24.25 136.46 23.08 Z" fill="#495e74" />
<path d="M 147.84 27.04 C 149.40 28.34 153.92 30.17 153.19 32.57 C 151.71 31.85 150.29 31.04 148.88 30.20 C 148.27 31.05 147.65 31.90 147.04 32.75 C 148.54 34.17 150.08 34.84 150.08 37.19 C 148.66 36.32 147.26 35.43 145.87 34.52 C 145.11 35.59 144.35 36.65 143.59 37.72 C 145.36 39.28 147.28 39.98 147.58 42.63 C 144.98 41.24 142.60 39.54 140.20 37.85 C 142.74 34.24 145.17 30.54 147.84 27.04 Z" fill="#e7eaed" />
<path d="M 134.45 27.90 C 136.78 27.95 136.95 29.94 137.41 31.69 C 136.63 32.09 135.84 32.49 135.05 32.89 C 134.15 32.46 133.24 32.02 132.34 31.59 C 133.02 30.34 133.69 29.10 134.45 27.90 Z" fill="#2e4660" />
<path d="M 90.50 33.68 C 98.27 32.67 106.32 32.82 113.99 34.48 C 131.03 38.01 146.34 48.55 155.89 63.06 C 163.32 74.22 167.19 87.61 167.01 101.00 C 166.79 112.50 163.66 123.90 157.81 133.82 C 149.50 148.11 135.77 159.04 119.98 163.94 C 106.01 168.32 90.75 167.97 77.00 162.91 C 64.52 158.37 53.52 150.02 45.74 139.26 C 37.50 127.94 32.95 114.00 33.08 100.00 C 32.92 84.31 38.65 68.77 48.80 56.82 C 59.29 44.33 74.33 35.92 90.50 33.68 Z" fill="#ffffff" />
<path d="M 88.52 36.83 C 94.28 35.86 100.18 35.65 105.99 36.13 C 122.67 37.50 138.52 45.99 149.21 58.81 C 156.65 67.67 161.62 78.55 163.39 89.99 C 165.79 104.74 162.73 120.23 155.02 133.01 C 146.63 147.06 132.75 157.62 116.95 161.89 C 103.62 165.57 89.19 164.77 76.35 159.65 C 62.19 154.07 50.24 143.30 43.19 129.81 C 31.98 108.85 33.75 82.00 47.75 62.76 C 57.31 49.24 72.22 39.76 88.52 36.83 Z" fill="#0093d6" />
<path d="M 88.20 51.78 C 93.31 53.35 96.99 57.66 98.31 62.77 C 99.59 67.04 97.89 71.76 94.92 74.90 C 92.48 77.14 89.24 78.57 86.49 80.39 C 91.61 81.27 95.90 80.62 100.64 82.37 C 106.44 84.51 111.78 87.93 117.30 90.70 C 124.63 94.81 132.05 98.99 138.79 104.02 C 136.36 104.92 133.90 105.71 131.42 106.44 C 135.60 108.63 139.77 110.85 143.92 113.08 C 145.11 113.82 146.88 114.58 147.35 115.99 C 144.03 118.76 140.22 119.06 136.06 119.12 C 134.45 120.72 132.81 122.26 131.13 123.78 C 131.94 126.48 133.22 127.73 130.76 130.00 C 130.96 128.84 131.02 127.65 130.94 126.42 L 129.69 126.81 C 128.83 126.70 128.02 126.76 127.25 127.00 C 127.41 126.01 127.58 125.02 127.75 124.03 C 126.96 125.09 126.18 126.16 125.42 127.24 C 126.08 128.70 126.92 129.91 126.93 131.57 C 124.17 133.26 124.45 134.02 124.16 137.12 L 123.78 136.96 C 121.39 137.84 118.22 138.46 116.61 140.60 C 114.78 142.76 114.93 146.21 114.55 148.91 C 112.42 148.66 110.07 148.01 107.95 148.42 C 105.33 149.62 103.36 152.36 101.30 154.32 C 101.38 151.51 101.57 148.72 101.85 145.93 C 100.09 145.61 98.32 145.29 96.56 144.96 C 99.89 142.50 103.37 140.34 106.59 137.73 C 103.49 138.60 100.10 139.37 97.77 141.76 C 95.58 144.04 94.01 147.06 92.27 149.71 C 91.82 147.47 91.39 145.23 90.96 142.99 C 87.89 144.35 84.79 145.57 81.55 146.48 C 82.61 144.41 83.76 142.40 84.93 140.39 C 83.47 140.08 82.00 139.77 80.54 139.45 C 81.96 138.09 83.51 136.08 85.47 135.61 C 89.55 134.50 94.65 134.73 98.04 132.00 C 100.02 130.61 101.90 127.64 100.93 125.21 C 99.12 123.61 96.92 122.48 95.05 120.92 C 92.80 119.05 91.13 116.65 89.41 114.30 C 82.41 112.92 74.71 111.12 68.51 107.47 C 65.52 105.73 63.50 103.23 61.30 100.63 C 59.48 100.37 57.12 100.85 55.95 99.07 C 54.33 97.00 55.90 95.03 56.47 92.87 C 56.64 94.76 56.20 96.46 55.88 98.31 C 57.51 99.05 59.14 99.74 60.81 100.39 C 60.23 99.69 59.64 98.99 59.04 98.31 C 60.12 97.70 60.37 96.96 59.76 96.07 L 58.09 96.01 C 58.80 95.33 59.51 94.64 60.22 93.95 L 58.43 94.03 L 58.11 93.09 C 60.58 92.91 60.52 91.12 59.02 89.61 C 58.79 87.92 58.54 86.24 58.33 84.56 C 58.88 85.17 59.50 85.64 60.19 85.97 C 60.64 85.29 60.83 84.58 60.76 83.85 C 59.97 83.59 59.14 83.62 58.26 83.94 L 58.18 83.11 C 60.87 82.20 61.98 82.05 62.99 79.25 C 64.11 78.28 65.25 77.33 66.38 76.38 C 67.53 76.38 68.07 75.92 68.01 75.01 L 66.32 75.50 L 66.16 73.53 C 68.70 74.87 71.05 76.47 73.40 78.11 C 72.27 76.83 71.12 75.55 69.97 74.29 C 70.29 73.93 70.61 73.58 70.93 73.22 C 72.28 71.93 72.81 70.36 73.46 68.65 C 71.45 69.91 69.66 71.28 68.06 73.02 C 67.42 73.01 66.78 73.00 66.14 73.00 C 65.35 73.69 64.58 74.38 63.81 75.08 C 64.15 75.65 64.49 76.22 64.84 76.79 C 64.18 77.11 63.52 77.43 62.86 77.74 C 60.88 77.40 58.48 75.81 57.14 78.10 C 57.14 79.39 57.26 80.68 57.31 81.97 L 57.02 83.04 C 56.54 80.95 55.01 78.73 56.97 76.94 C 58.95 74.82 61.00 76.38 63.34 76.83 L 63.86 73.59 L 61.80 73.05 C 62.92 71.20 64.03 69.34 65.08 67.45 C 63.95 63.98 66.42 60.86 68.18 58.08 C 72.80 52.58 81.20 49.35 88.20 51.78 Z" fill="#221d1a" />
<path d="M 88.01 53.02 C 95.13 55.06 99.88 64.39 96.14 71.10 C 94.06 75.67 88.99 77.74 84.37 78.70 L 83.07 76.25 C 83.50 75.82 83.94 75.38 84.37 74.95 C 83.37 74.25 82.38 73.54 81.38 72.84 C 84.08 71.24 88.26 69.78 89.16 66.44 C 89.71 64.24 88.10 62.58 86.22 61.78 C 84.13 60.89 81.70 61.79 79.85 62.84 C 76.37 64.93 73.14 67.44 69.74 69.65 L 72.22 65.81 C 69.09 67.78 66.39 70.25 63.52 72.56 C 65.24 69.33 66.39 67.30 70.10 66.14 C 67.77 65.82 66.51 66.34 65.07 64.19 C 67.40 64.81 69.23 65.55 71.64 64.79 C 68.83 63.62 67.17 64.79 67.24 60.90 C 68.96 61.69 70.65 62.51 72.32 63.42 C 73.65 62.19 74.99 60.96 76.36 59.77 C 73.37 59.90 70.40 60.26 67.43 60.65 C 71.95 54.58 80.51 50.22 88.01 53.02 Z" fill="#ffffff" />
<path d="M 79.39 53.97 C 80.62 53.96 81.84 53.96 83.07 53.97 C 85.70 55.69 85.95 56.85 86.36 59.89 L 84.66 60.01 C 84.49 59.02 84.28 58.03 84.04 57.05 C 82.94 55.67 80.85 54.97 79.39 53.97 Z" fill="#676767" />
<path d="M 85.03 62.75 C 86.97 63.01 88.67 64.64 87.84 66.70 C 86.32 69.47 83.05 70.38 80.35 71.57 C 79.25 69.68 78.09 67.85 76.86 66.04 C 79.23 64.67 82.17 62.36 85.03 62.75 Z" fill="#0093d6" />
<path d="M 73.63 67.41 C 74.73 68.07 75.81 68.74 76.89 69.43 C 77.66 70.98 78.28 72.56 78.94 74.16 C 79.53 73.80 80.12 73.44 80.71 73.08 C 81.09 73.98 81.48 74.87 81.87 75.76 L 80.61 77.06 C 81.24 77.47 81.87 77.89 82.50 78.30 C 83.78 79.46 85.08 80.56 86.45 81.61 C 86.35 82.56 86.24 83.52 86.15 84.48 C 83.37 84.24 82.27 80.66 81.11 78.58 C 80.77 78.99 80.43 79.41 80.10 79.82 C 80.97 81.60 81.76 83.40 82.50 85.23 L 80.31 82.66 C 80.10 83.69 79.90 84.71 79.70 85.74 C 78.98 84.47 78.26 83.20 77.55 81.94 L 76.82 82.33 L 77.26 79.69 C 78.01 80.46 78.76 81.21 79.54 81.95 L 79.62 82.02 L 79.61 81.86 L 79.54 81.95 L 77.70 78.78 C 78.59 78.35 79.48 77.94 80.37 77.51 C 78.48 75.05 76.37 72.77 74.40 70.37 C 74.13 69.39 73.87 68.40 73.63 67.41 Z" fill="#ba732c" />
<path d="M 73.46 68.65 C 72.81 70.36 72.28 71.93 70.93 73.22 L 68.06 73.02 C 69.66 71.28 71.45 69.91 73.46 68.65 Z" fill="#018fd3" />
<path d="M 72.61 71.71 C 74.51 73.12 76.24 74.71 77.96 76.32 C 77.55 76.74 77.13 77.15 76.72 77.57 C 75.18 75.73 73.71 73.86 72.61 71.71 Z" fill="#af6a28" />
<path d="M 66.14 73.00 C 66.78 73.00 67.42 73.01 68.06 73.02 L 70.93 73.22 C 70.61 73.58 70.29 73.93 69.97 74.29 C 71.12 75.55 72.27 76.83 73.40 78.11 C 71.05 76.47 68.70 74.87 66.16 73.53 L 66.32 75.50 L 66.38 76.38 C 65.25 77.33 64.11 78.28 62.99 79.25 C 61.98 82.05 60.87 82.20 58.18 83.11 L 58.26 83.94 L 58.33 84.56 C 58.54 86.24 58.79 87.92 59.02 89.61 L 58.01 89.66 C 58.01 88.83 58.01 88.00 58.00 87.16 C 57.06 86.61 56.12 86.06 55.19 85.50 L 55.02 87.22 L 54.95 88.80 L 54.94 91.19 C 54.06 89.77 52.77 88.87 53.00 87.06 C 53.94 86.00 55.03 85.06 56.04 84.07 L 57.00 83.06 L 57.02 83.04 L 57.31 81.97 C 57.26 80.68 57.14 79.39 57.14 78.10 C 58.48 75.81 60.88 77.40 62.86 77.74 C 63.52 77.43 64.18 77.11 64.84 76.79 C 64.49 76.22 64.15 75.65 63.81 75.08 C 64.58 74.38 65.35 73.69 66.14 73.00 Z" fill="#94581f" />
<path d="M 66.32 75.50 L 68.01 75.01 C 68.07 75.92 67.53 76.38 66.38 76.38 L 66.32 75.50 Z" fill="#0076b6" />
<path d="M 69.31 76.24 C 72.97 79.70 74.59 84.38 77.79 88.11 C 79.38 87.37 80.88 86.32 82.53 85.75 C 84.42 85.42 86.36 85.44 88.26 85.16 C 88.58 84.14 88.83 83.09 89.02 82.03 C 97.72 81.44 104.71 85.07 111.95 89.32 C 110.55 90.09 106.99 90.50 106.28 91.86 C 108.16 92.80 111.24 90.54 113.24 90.13 C 114.40 90.51 115.51 91.10 116.61 91.63 C 113.14 92.90 109.80 93.53 106.11 93.69 C 104.71 91.43 103.58 90.28 101.24 89.07 C 101.82 89.96 102.41 90.84 103.02 91.70 L 102.65 92.10 C 102.91 95.39 100.63 97.75 99.13 100.56 C 99.65 100.90 100.17 101.24 100.69 101.57 L 98.78 102.65 L 100.98 103.90 C 100.15 104.04 99.33 104.16 98.50 104.29 C 94.53 104.44 90.60 104.26 86.64 104.20 C 91.12 106.73 95.36 105.79 100.03 104.52 L 100.48 108.13 C 96.73 107.97 92.60 108.09 88.97 107.11 C 86.21 106.41 83.74 104.82 81.31 103.38 L 83.68 102.68 C 83.09 101.69 82.50 100.69 81.90 99.70 C 81.33 100.75 80.76 101.79 80.19 102.84 L 78.65 99.06 C 78.31 99.80 77.98 100.53 77.65 101.27 C 81.55 105.37 86.20 108.39 91.95 108.94 C 101.19 109.69 110.60 108.79 119.82 108.21 C 123.16 108.06 126.47 106.96 129.79 107.06 C 133.49 108.57 136.86 110.87 140.51 112.54 L 139.17 113.22 C 138.78 113.43 138.38 113.64 137.98 113.84 C 138.84 114.44 139.69 115.04 140.55 115.63 L 140.20 116.09 C 138.63 115.76 137.07 115.37 135.51 115.02 C 137.00 116.17 138.53 117.25 140.05 118.36 C 136.79 117.93 134.15 116.38 131.29 114.92 C 132.47 116.37 133.72 117.75 134.97 119.14 C 130.93 121.60 124.73 119.17 121.27 116.56 C 122.14 116.46 123.00 116.36 123.87 116.27 C 124.83 115.65 125.80 115.02 126.77 114.40 C 125.45 113.92 124.13 113.43 122.82 112.93 C 123.30 113.71 123.79 114.48 124.28 115.26 C 122.76 115.05 121.00 114.37 119.49 114.77 L 118.90 115.25 C 117.02 114.62 115.23 113.47 113.53 112.46 C 113.41 112.79 113.30 113.12 113.18 113.44 C 115.85 115.33 118.57 117.03 120.03 120.09 C 120.42 122.00 120.14 124.07 120.10 126.00 L 119.21 126.00 L 118.48 123.14 C 118.14 124.52 117.81 125.90 117.50 127.29 C 117.20 126.28 116.89 125.27 116.58 124.27 C 116.33 125.19 116.10 126.12 115.87 127.05 C 113.25 122.97 108.33 120.25 104.32 117.67 C 99.08 114.17 93.55 114.15 87.50 112.65 C 80.13 111.06 71.03 108.91 65.40 103.60 C 60.66 99.16 60.01 92.72 61.61 86.70 C 62.74 82.38 65.93 78.99 69.31 76.24 Z" fill="#ffffff" />
<path d="M 73.84 76.24 C 75.75 76.68 76.37 78.14 77.26 79.69 L 76.79 79.63 C 75.00 79.44 74.04 77.90 73.84 76.24 Z" fill="#b1702b" />
<path d="M 59.20 77.87 C 61.13 77.40 61.61 79.19 60.90 80.65 L 60.37 80.71 C 59.97 79.38 59.30 79.22 58.37 80.22 L 57.96 79.95 C 58.07 78.97 58.49 78.27 59.20 77.87 Z" fill="#181a1d" />
<path d="M 60.37 80.71 L 59.28 80.84 L 58.37 80.22 C 59.30 79.22 59.97 79.38 60.37 80.71 Z" fill="#0073ad" />
<path d="M 72.91 78.10 C 74.23 79.50 75.53 80.91 76.82 82.33 C 77.57 83.75 78.27 85.17 78.75 86.71 C 75.83 85.09 74.44 80.75 72.91 78.10 Z" fill="#d98832" />
<path d="M 79.54 81.95 L 79.61 81.86 L 79.62 82.02 L 79.54 81.95 Z" fill="#261709" />
<path d="M 57.00 83.06 L 56.04 84.07 C 55.03 85.06 53.94 86.00 53.00 87.06 C 52.77 88.87 54.06 89.77 54.94 91.19 L 54.95 88.80 C 57.45 89.48 57.57 86.56 55.02 87.22 L 55.19 85.50 C 56.12 86.06 57.06 86.61 58.00 87.16 C 58.01 88.00 58.01 88.83 58.01 89.66 L 57.33 90.06 L 55.78 90.17 L 56.43 92.68 C 54.61 91.10 51.45 90.10 52.02 87.12 C 52.66 84.90 55.22 84.20 57.00 83.06 Z" fill="#253336" />
<path d="M 58.26 83.94 C 59.14 83.62 59.97 83.59 60.76 83.85 C 60.83 84.58 60.64 85.29 60.19 85.97 C 59.50 85.64 58.88 85.17 58.33 84.56 L 58.26 83.94 Z" fill="#008bcd" />
<path d="M 55.02 87.22 C 57.57 86.56 57.45 89.48 54.95 88.80 L 55.02 87.22 Z" fill="#006499" />
<path d="M 87.45 87.78 C 85.07 89.53 81.95 90.76 79.98 92.97 C 78.53 95.19 78.21 98.08 77.04 100.48 C 75.28 93.94 81.12 87.82 87.45 87.78 Z" fill="#5b5b5b" />
<path d="M 55.78 90.17 L 57.33 90.06 C 57.49 91.10 57.75 92.12 58.11 93.09 L 58.43 94.03 L 60.22 93.95 C 59.51 94.64 58.80 95.33 58.09 96.01 C 57.67 96.81 57.98 97.58 59.04 98.31 C 59.64 98.99 60.23 99.69 60.81 100.39 C 59.14 99.74 57.51 99.05 55.88 98.31 C 56.20 96.46 56.64 94.76 56.47 92.87 L 56.43 92.68 L 55.78 90.17 Z" fill="#8f531b" />
<path d="M 57.33 90.06 L 58.01 89.66 L 59.02 89.61 C 60.52 91.12 60.58 92.91 58.11 93.09 C 57.75 92.12 57.49 91.10 57.33 90.06 Z" fill="#055680" />
<path d="M 117.80 92.28 C 119.10 92.99 120.35 93.76 121.61 94.53 C 115.70 95.77 109.56 97.08 103.49 96.65 L 105.26 95.27 C 109.65 94.59 113.69 94.23 117.80 92.28 Z" fill="#f5f5f5" />
<path d="M 90.84 94.99 C 92.47 94.99 94.10 94.99 95.73 95.00 C 95.16 95.50 94.59 96.00 94.02 96.49 C 95.09 97.17 96.15 97.87 97.20 98.58 C 94.81 98.47 92.43 98.30 90.05 98.05 C 90.64 97.51 91.23 96.96 91.82 96.42 L 90.84 94.99 Z" fill="#5f5f5f" />
<path d="M 58.09 96.01 L 59.76 96.07 C 60.37 96.96 60.12 97.70 59.04 98.31 C 57.98 97.58 57.67 96.81 58.09 96.01 Z" fill="#006ba7" />
<path d="M 123.01 95.29 C 123.99 95.86 124.97 96.42 125.94 96.98 C 118.05 99.67 109.85 100.46 101.56 100.47 L 103.46 98.22 C 110.11 97.85 116.58 97.12 123.01 95.29 Z" fill="#fbfbfb" />
<path d="M 62.79 97.09 C 64.91 97.33 67.02 97.63 69.16 97.80 L 69.00 98.90 L 66.93 99.36 C 68.39 99.69 69.86 99.97 71.33 100.25 C 70.95 100.63 70.57 101.01 70.18 101.39 C 72.83 102.46 72.66 102.93 73.44 105.61 C 70.74 104.07 68.50 102.01 66.40 99.74 C 65.69 99.38 64.98 99.01 64.28 98.64 C 63.77 98.14 63.27 97.62 62.79 97.09 Z" fill="#727272" />
<path d="M 79.09 97.01 C 79.87 96.89 80.68 96.91 81.51 97.09 C 81.77 98.40 81.15 99.52 80.09 100.25 C 79.34 99.17 79.01 98.09 79.09 97.01 Z" fill="#535353" />
<path d="M 127.02 98.05 C 128.62 98.30 130.13 99.76 131.50 100.61 C 121.62 103.41 111.54 104.33 101.30 104.03 L 102.45 102.12 C 107.52 101.27 112.75 101.39 117.81 100.37 C 120.95 99.85 123.92 98.66 127.02 98.05 Z" fill="#ffffff" />
<path d="M 89.84 99.43 C 92.14 98.76 94.53 98.77 96.86 99.27 C 94.65 100.45 92.00 101.06 89.84 99.43 Z" fill="#3f3f3f" />
<path d="M 99.12 101.18 C 96.18 103.75 91.40 103.60 88.07 101.96 C 91.79 101.83 95.42 101.61 99.12 101.18 Z" fill="#414141" />
<path d="M 132.70 101.22 C 134.07 102.02 135.38 102.89 136.70 103.75 C 130.29 105.38 123.64 106.99 117.01 107.18 C 112.81 107.41 108.62 107.65 104.44 107.99 C 103.76 107.08 103.08 106.17 102.41 105.26 C 112.31 105.25 123.34 104.76 132.70 101.22 Z" fill="#f7f7f6" />
<path d="M 101.79 107.23 L 102.34 107.22 L 102.35 107.77 L 101.80 107.78 L 101.79 107.23 Z" fill="#afafaf" />
<path d="M 139.17 113.22 C 142.24 112.75 144.12 114.63 146.50 116.18 C 143.30 116.07 141.58 115.21 139.17 113.22 Z" fill="#eae8e8" />
<path d="M 90.97 114.60 C 92.16 114.80 93.36 115.00 94.55 115.22 C 100.02 115.97 104.56 118.74 108.75 122.16 C 107.31 122.44 105.87 122.74 104.45 123.12 C 104.91 124.68 105.38 126.23 105.85 127.79 C 104.45 130.09 103.12 132.41 101.88 134.80 C 102.94 135.44 104.00 136.07 105.06 136.70 C 102.43 137.72 99.60 138.53 97.42 140.41 C 95.55 142.03 94.24 144.41 92.91 146.47 C 92.59 144.86 92.26 143.25 91.91 141.65 C 89.08 142.47 86.37 143.54 83.70 144.79 C 84.56 143.30 85.55 141.79 86.21 140.20 C 85.07 139.50 83.91 138.84 82.72 138.22 C 86.64 135.94 90.81 136.22 95.00 134.98 C 98.32 133.80 101.69 131.11 102.38 127.48 C 102.75 126.06 102.56 124.67 101.26 123.79 C 98.23 121.74 95.19 120.10 92.94 117.09 C 92.27 116.26 91.62 115.43 90.97 114.60 Z" fill="#ffffff" />
<path d="M 140.20 116.09 C 141.34 115.77 142.01 116.10 142.21 117.08 C 141.13 117.49 140.46 117.15 140.20 116.09 Z" fill="#d5d5d5" />
<path d="M 120.59 117.85 C 121.59 118.34 122.59 118.82 123.60 119.30 C 125.63 120.25 127.55 121.30 129.46 122.48 C 128.04 123.36 126.48 124.15 125.21 125.25 C 123.98 126.98 125.15 128.70 125.64 130.48 C 123.99 132.46 123.46 133.85 123.06 136.49 C 122.09 135.41 121.10 134.33 120.12 133.25 C 120.90 127.91 122.23 123.19 120.59 117.85 Z" fill="#0093d6" />
<path d="M 105.96 123.08 C 107.94 123.19 108.45 126.27 106.05 125.87 C 105.83 124.94 105.80 124.02 105.96 123.08 Z" fill="#c8c7c7" />
<path d="M 109.49 122.33 C 112.47 124.97 116.19 126.97 114.69 131.67 C 112.87 134.19 109.66 135.85 107.17 137.65 C 105.99 136.41 104.79 135.19 103.59 133.97 C 105.22 131.16 107.00 128.41 108.47 125.51 C 108.83 124.46 109.17 123.39 109.49 122.33 Z" fill="#0093d6" />
<path d="M 127.75 124.03 C 127.58 125.02 127.41 126.01 127.25 127.00 L 127.20 128.35 C 127.34 130.09 127.45 131.84 127.54 133.58 C 124.98 132.41 125.00 134.91 126.40 136.31 L 125.42 136.92 C 125.02 137.77 124.63 138.62 124.26 139.48 L 127.22 138.40 C 126.81 140.17 126.21 142.00 126.11 143.82 C 127.15 145.19 127.96 146.36 129.90 145.99 C 131.80 145.03 131.76 143.48 132.30 141.65 C 130.99 140.49 129.69 139.33 128.40 138.15 C 129.65 138.06 130.90 137.97 132.15 137.87 C 133.38 140.25 134.85 142.06 133.90 144.91 C 133.06 146.17 131.94 147.27 130.93 148.39 C 128.74 147.86 126.49 147.99 125.01 146.04 C 123.38 144.37 124.22 141.48 124.10 139.34 C 124.14 138.60 124.16 137.87 124.16 137.12 C 124.45 134.02 124.17 133.26 126.93 131.57 C 126.92 129.91 126.08 128.70 125.42 127.24 C 126.18 126.16 126.96 125.09 127.75 124.03 Z" fill="#c77f32" />
<path d="M 130.94 126.42 C 131.02 127.65 130.96 128.84 130.76 130.00 L 129.58 130.07 C 129.45 129.26 129.37 128.44 129.34 127.60 L 129.69 126.81 L 130.94 126.42 Z" fill="#c37125" />
<path d="M 127.25 127.00 C 128.02 126.76 128.83 126.70 129.69 126.81 L 129.34 127.60 L 127.20 128.35 L 127.25 127.00 Z" fill="#002b4c" />
<path d="M 116.07 127.25 C 117.29 127.59 118.52 127.91 119.75 128.21 C 119.42 130.06 119.11 131.91 118.83 133.77 C 119.74 134.62 120.65 135.47 121.56 136.32 C 119.35 137.26 117.26 137.78 115.72 139.77 C 113.89 142.02 113.77 144.55 113.28 147.29 C 111.53 147.19 109.69 146.98 107.94 147.15 C 105.52 147.66 103.83 150.06 102.16 151.72 C 102.58 149.48 102.93 147.24 103.22 144.98 C 101.98 144.72 100.75 144.46 99.52 144.20 C 104.44 140.92 109.49 137.74 114.19 134.14 C 116.71 132.33 115.86 129.95 116.07 127.25 Z" fill="#ffffff" />
<path d="M 127.20 128.35 L 129.34 127.60 C 129.37 128.44 129.45 129.26 129.58 130.07 L 130.76 130.00 C 130.42 130.40 130.09 130.81 129.76 131.21 C 130.30 132.93 130.77 134.68 131.34 136.39 L 131.54 136.76 L 132.15 137.87 C 130.90 137.97 129.65 138.06 128.40 138.15 C 129.69 139.33 130.99 140.49 132.30 141.65 C 131.76 143.48 131.80 145.03 129.90 145.99 C 127.96 146.36 127.15 145.19 126.11 143.82 C 126.21 142.00 126.81 140.17 127.22 138.40 L 124.26 139.48 C 124.63 138.62 125.02 137.77 125.42 136.92 L 126.40 136.31 L 127.45 135.70 C 127.56 134.98 127.59 134.28 127.54 133.58 C 127.45 131.84 127.34 130.09 127.20 128.35 Z" fill="#2e2217" />
<path d="M 127.54 133.58 C 127.59 134.28 127.56 134.98 127.45 135.70 L 126.40 136.31 C 125.00 134.91 124.98 132.41 127.54 133.58 Z" fill="#0d2939" />
<path d="M 129.15 133.15 L 129.75 133.37 C 130.65 134.57 130.45 135.42 129.15 135.92 C 128.74 135.00 128.74 134.08 129.15 133.15 Z" fill="#e58831" />
<path d="M 131.54 136.76 C 133.71 138.79 135.79 140.15 135.40 143.49 C 134.89 148.74 128.40 151.16 124.65 147.35 C 122.07 144.79 122.73 142.39 124.10 139.34 C 124.22 141.48 123.38 144.37 125.01 146.04 C 126.49 147.99 128.74 147.86 130.93 148.39 C 131.94 147.27 133.06 146.17 133.90 144.91 C 134.85 142.06 133.38 140.25 132.15 137.87 L 131.54 136.76 Z" fill="#172931" />
<path d="M 126.49 142.40 C 128.22 142.16 129.94 141.92 131.67 141.69 C 130.87 143.00 130.05 144.30 129.17 145.57 C 128.26 144.53 127.37 143.47 126.49 142.40 Z" fill="#0082c0" />
<path d="M 47.95 152.72 L 49.75 154.71 C 48.88 158.03 47.12 161.18 45.79 164.35 C 48.92 162.10 51.96 159.76 55.14 157.60 C 55.40 158.39 55.62 159.19 55.82 160.00 C 55.15 163.29 53.58 166.45 52.42 169.61 C 55.12 167.45 57.70 164.89 60.68 163.14 L 62.96 163.78 C 59.43 166.85 55.56 169.54 51.83 172.42 C 51.06 171.88 50.30 171.35 49.53 170.81 C 50.68 167.65 51.85 164.49 53.09 161.35 C 50.43 163.38 47.75 165.39 45.07 167.39 C 44.31 166.86 43.55 166.32 42.79 165.78 C 44.06 162.42 45.33 159.05 46.68 155.72 C 47.10 154.72 47.52 153.71 47.95 152.72 Z" fill="#e4e7eb" />
<path d="M 152.22 154.59 C 150.92 155.74 149.60 156.85 148.39 158.10 C 150.90 159.91 154.64 158.35 157.06 159.87 C 159.01 161.23 158.71 163.68 157.33 165.35 C 156.00 167.16 154.16 167.28 152.11 167.78 C 153.16 166.09 157.11 164.47 155.83 162.15 C 153.43 160.87 149.31 162.62 147.35 160.66 C 144.95 157.79 148.88 153.23 152.22 154.59 Z" fill="#ffffff" />
<path d="M 143.81 162.01 C 145.73 163.60 145.19 165.56 145.40 167.77 C 147.13 168.74 148.86 169.71 150.59 170.69 C 149.85 171.29 149.10 171.88 148.36 172.48 C 146.26 171.15 144.17 169.93 141.73 169.35 C 142.67 171.18 143.68 172.96 144.71 174.74 C 143.94 175.16 143.18 175.57 142.41 175.99 C 140.12 172.24 137.76 168.54 135.42 164.82 C 137.74 163.62 141.14 160.49 143.81 162.01 Z" fill="#ebeef0" />
<path d="M 142.97 165.15 C 142.86 166.47 142.26 167.78 141.80 169.02 C 140.63 167.67 139.52 166.28 138.51 164.80 C 140.34 164.39 141.63 163.15 142.97 165.15 Z" fill="#001d3c" />
<path d="M 67.35 166.64 C 67.99 166.67 68.62 166.73 69.25 166.82 C 68.99 171.60 68.42 176.36 68.08 181.13 C 67.16 180.73 66.24 180.33 65.32 179.92 C 65.52 178.68 65.72 177.44 65.92 176.19 C 64.55 175.54 63.18 174.88 61.81 174.23 C 59.96 175.61 59.08 176.69 56.55 176.25 C 60.01 172.96 63.47 169.40 67.35 166.64 Z" fill="#ffffff" />
<path d="M 133.69 166.46 C 132.53 168.12 130.99 169.06 129.31 170.09 C 129.77 171.05 130.23 172.01 130.69 172.97 C 132.20 172.41 133.72 171.86 135.26 171.40 C 135.18 173.48 132.85 173.86 131.44 174.89 C 132.00 176.07 132.54 177.24 133.09 178.42 C 135.31 177.80 136.87 176.15 139.10 177.62 C 136.60 178.96 134.02 180.09 131.43 181.23 C 129.66 177.22 127.87 173.23 126.09 169.23 C 128.56 168.14 131.04 167.10 133.69 166.46 Z" fill="#ffffff" />
<path d="M 67.20 168.80 C 66.92 170.77 66.63 172.74 66.32 174.71 C 65.12 174.13 63.91 173.55 62.71 172.97 C 64.19 171.57 65.69 170.18 67.20 168.80 Z" fill="#526278" />
<path d="M 76.89 170.15 C 79.30 173.49 80.54 177.72 82.36 181.41 C 83.16 178.45 83.89 175.48 84.68 172.53 L 86.76 173.01 C 85.56 177.44 84.46 181.89 83.08 186.28 C 79.76 183.21 78.59 178.27 76.67 174.17 C 75.83 177.43 75.01 180.69 73.98 183.89 L 72.54 182.23 C 73.19 178.17 74.46 174.10 75.71 170.18 L 76.89 170.15 Z" fill="#fefefe" />
<path d="M 123.09 171.87 C 125.30 173.74 124.02 175.91 123.37 178.16 C 124.87 179.75 126.34 181.36 127.71 183.06 C 123.97 184.31 122.32 180.11 119.56 178.37 C 119.88 180.44 120.29 182.49 120.74 184.54 C 119.91 184.77 119.08 185.00 118.25 185.23 C 117.14 180.97 115.95 176.75 114.93 172.47 C 117.21 172.12 121.04 170.39 123.09 171.87 Z" fill="#ffffff" />
<path d="M 112.51 174.59 C 110.84 174.91 109.17 175.19 107.49 175.45 C 107.65 176.60 107.81 177.75 107.97 178.90 C 109.34 178.71 110.70 178.52 112.07 178.33 L 112.34 180.13 C 110.89 180.37 109.44 180.61 107.99 180.86 C 108.21 182.12 108.43 183.39 108.64 184.66 C 111.01 184.68 112.91 183.70 114.74 185.70 C 111.90 186.32 109.04 186.65 106.16 186.98 C 105.61 182.62 105.07 178.25 104.59 173.87 C 107.12 173.91 110.82 171.96 112.51 174.59 Z" fill="#e5e9ec" />
<path d="M 118.14 173.51 C 119.12 173.33 120.10 173.17 121.09 173.05 C 121.34 174.02 122.27 175.56 121.46 176.43 C 120.66 177.09 119.81 177.61 118.95 178.18 C 118.66 176.63 118.31 175.08 118.14 173.51 Z" fill="#001535" />
<path d="M 90.11 173.50 C 92.90 173.82 96.49 173.57 98.92 175.09 C 102.99 177.61 101.91 184.82 97.51 186.42 C 94.99 187.34 91.83 186.79 89.19 186.70 C 89.54 182.30 89.93 177.91 90.11 173.50 Z" fill="#eff1f3" />
<path d="M 92.81 175.20 C 94.66 175.85 97.30 175.82 98.18 177.88 C 99.33 180.74 98.07 182.87 96.36 185.11 C 94.91 185.06 93.47 185.01 92.02 184.97 C 92.29 181.71 92.53 178.45 92.81 175.20 Z" fill="#012341" />
</svg>