<?xml version="1.0" encoding="UTF-8" standalone="no"?>
<!DOCTYPE svg PUBLIC "-//W3C//DTD SVG 1.1//EN" "http://www.w3.org/Graphics/SVG/1.1/DTD/svg11.dtd">
<svg xmlns="http://www.w3.org/2000/svg" version="1.1" viewBox="0 0 200 200" width="200.0pt" height="200.0pt">
<path d="M 0.00 0.00 L 200.00 0.00 L 200.00 200.00 L 100.42 200.00 C 105.23 195.94 110.38 192.32 115.03 188.05 C 135.26 170.34 151.13 148.13 159.55 122.47 C 166.25 102.57 167.94 81.34 165.05 60.57 C 155.12 63.84 145.12 65.58 134.76 63.16 C 120.61 60.32 108.73 51.72 100.03 40.41 C 91.25 51.72 79.46 60.33 65.24 63.17 C 54.86 65.60 44.94 63.78 34.98 60.61 C 31.69 83.50 34.31 106.94 42.65 128.51 C 51.89 152.80 67.87 173.64 87.65 190.34 C 91.46 193.72 95.72 196.54 99.46 200.00 L 0.00 200.00 L 0.00 0.00 Z" fill="#ffffff" />
<path d="M 100.03 0.33 C 101.51 4.49 102.81 8.71 104.27 12.87 C 108.66 12.88 113.05 12.88 117.43 12.90 C 113.84 15.52 110.23 18.12 106.66 20.76 C 108.16 24.91 109.48 29.11 110.77 33.32 C 107.17 30.77 103.62 28.16 100.02 25.60 C 96.44 28.15 92.90 30.76 89.30 33.29 C 90.56 29.08 91.91 24.89 93.35 20.74 C 89.79 18.11 86.20 15.51 82.63 12.89 C 87.02 12.88 91.41 12.89 95.81 12.85 C 97.22 8.68 98.53 4.48 100.03 0.33 Z" fill="#fed501" />
<path d="M 100.03 40.41 C 108.73 51.72 120.61 60.32 134.76 63.16 C 145.12 65.58 155.12 63.84 165.05 60.57 C 167.94 81.34 166.25 102.57 159.55 122.47 C 151.13 148.13 135.26 170.34 115.03 188.05 C 110.38 192.32 105.23 195.94 100.42 200.00 L 99.46 200.00 C 95.72 196.54 91.46 193.72 87.65 190.34 C 67.87 173.64 51.89 152.80 42.65 128.51 C 34.31 106.94 31.69 83.50 34.98 60.61 C 44.94 63.78 54.86 65.60 65.24 63.17 C 79.46 60.33 91.25 51.72 100.03 40.41 Z" fill="#000000" />
<path d="M 100.02 47.97 C 106.01 54.24 112.71 59.67 120.60 63.37 C 132.86 69.41 147.56 70.34 160.67 66.78 C 160.96 67.18 161.14 67.61 161.19 68.08 C 163.19 89.59 159.68 111.31 151.24 131.18 C 140.44 156.67 122.16 177.75 100.02 194.11 C 77.88 177.74 59.61 156.69 48.81 131.19 C 40.12 110.84 36.86 88.67 38.90 66.65 C 46.73 69.05 54.88 69.13 62.97 68.39 C 77.54 66.32 90.08 58.60 100.02 47.97 Z" fill="#ffffff" />
<path d="M 100.03 52.49 C 110.17 62.30 122.34 69.48 136.50 71.34 C 143.88 72.79 151.06 71.90 158.36 70.52 C 159.42 80.75 158.26 90.76 157.04 100.90 C 152.36 101.13 147.68 101.05 143.00 101.06 C 109.76 101.05 76.53 101.06 43.29 101.05 C 41.36 90.94 40.90 80.77 41.66 70.51 C 49.18 71.98 56.62 72.79 64.22 71.24 C 78.16 69.26 90.00 62.11 100.03 52.49 Z" fill="#000000" />
<path d="M 74.52 79.64 C 73.11 80.50 71.68 81.35 70.25 82.19 C 67.69 80.93 65.08 79.47 62.43 81.52 C 59.85 84.17 59.88 89.83 63.07 91.98 C 66.01 93.57 67.99 91.94 70.42 90.33 C 71.84 91.20 73.28 92.07 74.70 92.94 C 71.16 97.00 65.85 98.54 60.86 96.11 C 53.72 92.79 53.46 81.15 60.23 77.30 C 65.09 74.60 70.62 75.95 74.52 79.64 Z" fill="#ffffff" />
<path d="M 95.67 76.47 C 97.43 76.26 99.23 76.32 101.00 76.29 C 103.55 83.12 106.03 89.98 108.71 96.76 C 106.78 96.78 104.86 96.79 102.94 96.80 C 102.63 95.61 102.31 94.43 102.00 93.25 C 99.52 93.21 97.04 93.19 94.56 93.19 C 94.17 94.39 93.77 95.59 93.38 96.80 C 91.53 96.79 89.67 96.79 87.82 96.79 C 90.60 90.10 92.68 83.06 95.67 76.47 Z" fill="#ffffff" />
<path d="M 136.80 76.34 C 139.42 76.34 142.05 76.34 144.67 76.34 C 144.67 83.15 144.67 89.97 144.67 96.78 C 143.05 96.79 141.43 96.79 139.81 96.79 C 139.78 91.58 139.83 86.39 139.65 81.19 C 138.21 86.38 136.77 91.57 135.38 96.78 C 134.03 96.78 132.68 96.79 131.33 96.80 C 129.78 91.70 128.28 86.56 127.18 81.35 C 127.10 86.49 126.99 91.63 127.05 96.78 C 125.30 96.79 123.55 96.79 121.80 96.79 C 121.79 89.98 121.79 83.16 121.79 76.34 C 124.40 76.34 127.00 76.33 129.61 76.32 C 131.06 80.81 132.07 85.42 133.34 89.97 C 134.43 85.41 135.75 80.91 136.80 76.34 Z" fill="#ffffff" />
<path d="M 98.13 82.14 C 99.00 84.48 99.85 86.85 100.60 89.24 C 99.04 89.24 97.47 89.24 95.91 89.23 C 96.64 86.86 97.40 84.51 98.13 82.14 Z" fill="#000000" />
<path d="M 44.10 105.95 C 50.81 105.98 57.52 105.87 64.23 106.04 C 64.18 121.64 64.28 137.25 64.18 152.85 C 54.44 138.72 47.69 122.72 44.10 105.95 Z" fill="#000000" />
<path d="M 68.75 105.95 C 74.67 105.95 80.58 105.95 86.50 105.96 C 86.49 130.27 86.52 154.59 86.48 178.91 C 80.11 172.81 74.09 166.36 68.74 159.34 C 68.77 141.55 68.74 123.75 68.75 105.95 Z" fill="#000000" />
<path d="M 91.28 105.95 C 97.10 105.95 102.93 105.95 108.75 105.95 C 108.73 131.75 108.81 157.54 108.72 183.33 C 105.83 185.67 102.95 188.02 100.01 190.29 C 97.08 188.01 94.21 185.66 91.33 183.33 C 91.20 157.54 91.31 131.74 91.28 105.95 Z" fill="#000000" />
<path d="M 113.52 105.95 C 119.44 105.95 125.36 105.95 131.28 105.96 C 131.29 123.75 131.26 141.54 131.29 159.33 C 126.00 166.34 119.91 172.85 113.55 178.91 C 113.48 154.59 113.53 130.27 113.52 105.95 Z" fill="#000000" />
<path d="M 135.82 106.07 C 142.51 105.85 149.21 105.99 155.90 105.96 C 152.40 122.62 145.62 138.78 135.87 152.76 C 135.77 137.20 135.87 121.64 135.82 106.07 Z" fill="#000000" />
</svg>