<?xml version="1.0" encoding="UTF-8" standalone="no"?>
<!DOCTYPE svg PUBLIC "-//W3C//DTD SVG 1.1//EN" "http://www.w3.org/Graphics/SVG/1.1/DTD/svg11.dtd">
<svg xmlns="http://www.w3.org/2000/svg" version="1.1" viewBox="0 0 200 200" width="200.0pt" height="200.0pt">
<path d="M 0.00 0.00 L 174.66 0.00 C 126.56 39.78 78.28 79.39 30.13 119.11 C 30.10 128.45 30.11 137.78 30.12 147.12 C 78.36 107.38 126.60 67.63 174.85 27.92 C 174.87 18.61 174.90 9.30 174.83 0.00 L 200.00 0.00 L 200.00 200.00 L 87.58 200.00 C 91.28 196.52 95.30 193.47 99.18 190.20 C 114.45 177.68 129.63 165.05 144.94 152.58 C 145.05 143.21 145.02 133.83 144.96 124.46 C 120.22 145.02 95.27 165.33 70.53 185.88 C 76.04 190.61 82.07 194.86 87.19 200.00 L 0.00 200.00 L 0.00 0.00 Z" fill="#ffffff" />
<path d="M 174.66 0.00 L 174.83 0.00 C 174.90 9.30 174.87 18.61 174.85 27.92 C 126.60 67.63 78.36 107.38 30.12 147.12 C 30.11 137.78 30.10 128.45 30.13 119.11 C 78.28 79.39 126.56 39.78 174.66 0.00 Z" fill="#c8102e" />
<path d="M 43.13 24.59 C 45.55 26.42 47.74 28.50 49.96 30.56 C 47.68 32.34 45.43 34.16 43.20 36.00 C 41.17 34.23 39.02 32.64 36.79 31.14 C 36.94 28.40 41.28 26.34 43.13 24.59 Z" fill="#2d2926" />
<path d="M 62.65 24.54 C 65.39 26.69 68.07 28.91 70.65 31.27 C 70.64 37.85 70.63 44.42 70.65 51.00 C 70.61 54.84 71.02 58.38 69.82 62.11 C 71.59 60.44 73.45 58.86 75.33 57.30 C 75.34 50.14 75.24 42.98 75.39 35.82 C 77.56 34.07 79.61 32.27 82.09 30.96 C 82.78 37.70 82.07 44.58 82.52 51.37 C 84.53 49.76 86.73 48.25 88.53 46.40 C 89.28 42.96 88.74 38.95 88.82 35.40 C 86.72 33.82 84.29 32.29 82.60 30.26 C 84.65 28.14 86.90 26.38 89.18 24.53 C 91.50 26.56 94.63 28.30 96.37 30.83 C 96.72 35.93 96.41 41.08 96.50 46.20 C 94.86 47.30 93.40 48.27 92.56 50.13 C 91.42 52.43 89.51 53.63 87.60 55.19 C 86.42 55.21 85.25 55.25 84.08 55.30 C 83.44 56.11 82.37 57.01 82.28 58.08 C 81.81 62.12 81.87 66.21 81.41 70.26 C 79.77 71.23 77.62 74.30 75.57 73.55 C 75.21 71.27 75.36 69.09 75.42 66.79 C 75.02 66.51 74.61 66.23 74.21 65.94 C 70.79 69.38 66.77 72.09 63.31 75.49 C 62.07 67.80 62.94 60.33 62.51 52.58 C 61.79 53.50 61.07 54.42 60.35 55.35 C 59.04 56.18 57.74 57.04 56.46 57.90 C 56.68 61.90 56.12 65.59 57.57 69.44 L 55.57 68.01 C 55.44 69.25 55.30 70.48 55.15 71.72 C 54.53 70.96 53.91 70.20 53.30 69.43 C 54.55 72.57 50.79 73.88 49.02 75.82 C 49.13 75.06 49.25 74.30 49.36 73.54 C 49.03 71.22 48.83 68.89 48.64 66.55 C 50.73 64.40 52.69 62.16 54.50 59.78 C 52.06 61.57 49.71 63.48 47.32 65.34 C 47.50 65.90 47.68 66.47 47.86 67.04 C 44.78 69.53 41.70 72.05 38.71 74.66 C 35.48 72.39 32.41 69.95 29.38 67.42 C 29.37 60.94 29.34 54.45 29.34 47.97 C 29.22 45.88 29.99 44.18 30.82 42.33 C 32.46 40.74 33.87 39.02 35.20 37.16 C 33.05 38.75 30.97 40.42 28.87 42.07 C 28.24 43.90 27.39 45.17 26.15 46.72 C 26.45 43.04 27.45 39.50 29.33 36.30 C 31.16 33.97 33.85 32.22 36.11 30.32 C 36.89 40.71 35.98 51.27 36.53 61.71 C 37.70 62.73 38.87 63.74 40.05 64.75 C 42.96 62.35 45.87 59.95 48.82 57.59 C 48.92 50.36 48.84 43.13 48.87 35.90 C 51.08 34.11 53.25 32.28 55.29 30.31 C 55.99 31.22 56.69 32.12 57.41 33.02 C 57.49 38.11 57.47 43.20 57.43 48.30 C 56.86 49.41 56.31 50.52 55.76 51.64 C 58.09 49.90 60.34 48.06 62.60 46.24 C 62.65 42.76 62.65 39.28 62.59 35.80 C 60.24 33.99 58.02 32.09 55.88 30.05 C 58.16 28.24 60.41 26.40 62.65 24.54 Z" fill="#2d2926" />
<path d="M 37.39 32.99 C 37.95 37.61 37.57 42.35 37.66 47.00 C 37.57 51.57 38.00 56.31 37.30 60.83 C 36.37 56.39 36.90 51.53 36.80 47.00 C 36.92 42.40 36.34 37.48 37.39 32.99 Z" fill="#2d2926" />
<path d="M 83.72 41.00 C 83.66 44.01 83.92 46.80 83.27 49.77 C 82.42 43.88 82.70 37.74 83.19 31.83 C 83.92 34.74 83.67 37.97 83.72 41.00 Z" fill="#2d2926" />
<path d="M 174.83 33.74 C 174.90 42.82 174.85 51.91 174.87 61.00 C 132.20 96.10 89.56 131.25 46.91 166.39 C 41.37 161.86 35.84 157.33 30.36 152.74 C 78.51 113.07 126.67 73.40 174.83 33.74 Z" fill="#2d2926" />
<path d="M 95.65 47.65 L 96.17 47.44 L 96.36 47.96 L 95.84 48.17 L 95.65 47.65 Z" fill="#2d2926" />
<path d="M 84.08 55.30 C 85.25 55.25 86.42 55.21 87.60 55.19 C 86.26 56.26 84.94 57.38 83.64 58.50 C 83.70 61.83 83.70 65.15 83.64 68.48 C 82.89 69.07 82.15 69.66 81.41 70.26 C 81.87 66.21 81.81 62.12 82.28 58.08 C 82.37 57.01 83.44 56.11 84.08 55.30 Z" fill="#2d2926" />
<path d="M 81.05 58.73 C 79.66 60.78 78.20 62.77 76.78 64.80 C 76.19 64.49 75.60 64.18 75.01 63.88 C 76.92 62.04 78.92 60.30 81.05 58.73 Z" fill="#ffffff" />
<path d="M 159.41 79.69 C 159.52 88.69 159.41 97.69 159.47 106.69 C 128.69 132.16 97.83 157.54 66.98 182.92 C 61.43 178.41 55.94 173.84 50.43 169.29 C 83.66 141.91 116.91 114.54 150.14 87.16 C 153.19 84.62 156.23 82.08 159.41 79.69 Z" fill="#c8102e" />
<path d="M 144.96 124.46 C 145.02 133.83 145.05 143.21 144.94 152.58 C 129.63 165.05 114.45 177.68 99.18 190.20 C 95.30 193.47 91.28 196.52 87.58 200.00 L 87.19 200.00 C 82.07 194.86 76.04 190.61 70.53 185.88 C 95.27 165.33 120.22 145.02 144.96 124.46 Z" fill="#2d2926" />
</svg>