<?xml version="1.0" encoding="UTF-8" standalone="no"?>
<!DOCTYPE svg PUBLIC "-//W3C//DTD SVG 1.1//EN" "http://www.w3.org/Graphics/SVG/1.1/DTD/svg11.dtd">
<svg xmlns="http://www.w3.org/2000/svg" version="1.1" viewBox="0 0 200 200" width="200.0pt" height="200.0pt">
<path d="M 0.00 0.00 L 200.00 0.00 L 200.00 200.00 L 0.00 200.00 L 0.00 0.00 Z" fill="#ffffff" />
<path d="M 87.49 3.83 C 106.45 1.48 125.91 4.43 143.05 12.96 C 161.12 21.81 176.30 36.48 185.80 54.21 C 199.74 79.90 201.10 111.66 189.49 138.48 C 181.27 157.73 166.66 174.11 148.49 184.50 C 122.76 199.41 90.40 201.43 62.98 189.96 C 46.52 183.18 32.13 171.74 21.64 157.39 C 2.47 131.47 -2.22 96.26 9.16 66.13 C 16.38 46.66 30.06 29.74 47.52 18.50 C 59.54 10.71 73.29 5.70 87.49 3.83 Z" fill="#00703c" />
<path d="M 89.22 6.21 C 105.86 4.26 123.06 6.82 138.39 13.62 C 163.74 24.72 183.55 47.30 191.09 73.95 C 197.26 95.39 195.63 118.92 186.37 139.22 C 174.26 166.18 149.16 186.55 120.22 192.64 C 101.67 196.64 81.83 194.97 64.28 187.72 C 48.69 181.35 34.90 170.69 24.74 157.26 C 14.76 144.15 8.33 128.39 6.33 112.03 C 3.93 93.26 7.31 73.81 15.98 56.99 C 30.12 29.24 58.20 9.59 89.22 6.21 Z" fill="#ffffff" />
<path d="M 89.50 8.84 C 103.06 7.36 116.86 8.67 129.78 13.12 C 147.74 19.16 163.64 30.95 174.71 46.32 C 192.15 70.14 196.83 102.15 187.16 130.02 C 181.35 147.07 170.40 162.19 156.12 173.15 C 142.56 183.58 126.04 190.13 109.00 191.68 C 93.81 193.15 78.23 190.80 64.18 184.81 C 48.26 178.06 34.36 166.70 24.54 152.47 C 7.80 128.57 3.67 96.92 13.49 69.47 C 19.53 52.35 30.78 37.13 45.37 26.34 C 58.22 16.74 73.58 10.69 89.50 8.84 Z" fill="#00703c" />
<path d="M 91.47 17.60 C 101.80 15.76 112.69 17.28 122.12 21.88 C 132.30 26.81 140.70 35.24 145.56 45.45 C 150.53 55.79 151.75 67.87 149.03 79.01 C 145.30 94.86 133.38 108.32 118.16 114.08 C 104.72 119.26 89.21 118.33 76.53 111.49 C 65.16 105.47 56.36 95.02 52.39 82.78 C 47.29 67.40 50.14 49.87 59.94 36.97 C 67.49 26.81 79.00 19.75 91.47 17.60 Z" fill="#ffffff" />
<path d="M 93.50 19.79 C 99.24 19.04 105.14 19.22 110.79 20.51 C 126.23 23.92 139.32 35.35 144.87 50.14 C 149.58 62.52 148.88 77.00 142.79 88.79 C 134.84 104.65 117.81 115.23 100.00 114.85 C 82.48 115.10 65.76 104.75 57.78 89.23 C 51.40 77.14 50.64 62.37 55.66 49.67 C 61.80 33.82 76.62 22.02 93.50 19.79 Z" fill="#00703c" />
<path d="M 99.65 20.62 C 88.98 29.82 76.24 36.38 62.54 39.67 C 71.55 27.82 84.72 20.98 99.65 20.62 Z" fill="#ffffff" />
<path d="M 100.65 20.61 C 115.44 20.96 128.93 27.79 137.77 39.68 C 125.17 36.58 113.28 31.12 103.25 22.82 C 102.38 22.09 101.51 21.36 100.65 20.61 Z" fill="#ffffff" />
<path d="M 100.14 21.61 C 110.85 30.93 123.69 37.12 137.41 40.55 C 137.39 50.46 135.95 60.31 132.76 69.71 C 126.85 87.22 115.20 102.56 100.15 113.25 C 89.31 105.24 80.19 95.03 73.71 83.20 C 66.44 70.16 62.99 55.46 63.04 40.56 C 76.69 37.13 89.50 30.89 100.14 21.61 Z" fill="#ffffff" />
<path d="M 100.16 24.72 C 110.18 33.52 121.58 39.07 134.52 42.15 C 135.26 68.61 121.82 94.90 100.16 110.06 C 78.70 94.69 65.42 68.70 65.77 42.28 C 72.86 40.24 79.79 38.00 86.24 34.36 C 91.30 31.72 95.71 28.24 100.16 24.72 Z" fill="#00703c" />
<path d="M 99.56 26.88 L 100.35 26.49 L 101.11 26.90 L 101.09 27.69 L 100.30 28.06 L 99.52 27.69 L 99.56 26.88 Z" fill="#ffffff" />
<path d="M 98.08 28.23 C 101.98 27.91 103.79 28.95 106.88 31.16 C 102.47 31.29 98.06 31.28 93.66 30.92 C 95.11 29.99 96.59 29.09 98.08 28.23 Z" fill="#ffffff" />
<path d="M 50.35 31.83 C 51.11 31.81 51.88 31.77 52.64 31.72 C 52.21 32.50 51.77 33.28 51.34 34.06 C 51.89 34.46 52.44 34.87 52.99 35.27 C 51.75 36.00 50.51 36.73 49.28 37.49 C 48.33 36.59 47.40 35.67 46.48 34.74 C 48.00 33.05 47.60 31.12 50.35 31.83 Z" fill="#ffffff" />
<path d="M 147.67 31.30 C 148.56 31.76 149.44 32.22 150.33 32.68 C 150.88 32.08 151.43 31.48 151.98 30.87 C 152.43 32.31 152.93 33.62 153.76 34.88 C 152.74 35.88 151.75 36.90 150.75 37.92 C 150.42 37.23 150.09 36.54 149.76 35.84 C 148.87 35.89 147.98 35.94 147.08 35.99 C 147.69 35.33 148.29 34.66 148.90 34.00 C 148.49 33.10 148.08 32.20 147.67 31.30 Z" fill="#ffffff" />
<path d="M 96.00 31.37 C 101.14 31.61 105.79 30.74 110.62 33.06 C 110.15 33.52 109.68 33.99 109.20 34.45 C 106.06 33.50 103.07 33.00 99.85 33.89 C 96.05 35.02 92.41 34.40 88.54 34.17 C 89.53 33.56 90.52 32.96 91.53 32.37 C 93.01 31.72 94.35 31.26 96.00 31.37 Z" fill="#ffffff" />
<path d="M 96.30 34.87 C 94.22 36.67 92.14 38.47 90.18 40.39 C 89.09 39.73 88.01 39.06 86.92 38.40 C 84.91 39.51 82.95 40.69 81.01 41.94 L 85.54 43.43 C 79.30 45.02 72.40 44.47 66.04 43.97 C 68.03 42.74 70.12 41.96 72.37 41.35 C 77.36 39.99 81.85 37.73 86.45 35.44 C 89.45 33.80 92.97 34.85 96.30 34.87 Z" fill="#ffffff" />
<path d="M 99.90 34.64 C 106.47 33.22 113.63 36.12 117.26 41.81 C 121.83 49.08 121.60 59.50 116.38 66.37 C 113.28 70.51 108.01 72.75 102.89 71.57 C 97.99 70.37 95.40 62.77 99.77 59.52 C 101.68 59.13 104.28 58.83 104.92 61.19 C 105.89 63.04 105.04 64.06 104.15 65.67 C 102.50 65.45 100.90 65.05 99.29 64.66 C 100.43 66.71 100.94 68.69 103.49 69.36 C 107.60 70.23 111.75 66.70 112.84 62.88 C 113.89 59.62 112.53 56.53 111.57 53.44 C 112.51 50.86 113.69 48.68 112.96 45.88 C 111.89 41.09 107.63 37.05 102.50 37.73 C 97.52 38.46 94.33 43.08 94.40 47.95 C 94.33 58.96 94.43 69.98 94.36 81.00 C 94.38 84.11 94.25 87.41 94.87 90.46 C 95.46 93.28 97.46 95.67 98.97 98.06 C 97.25 97.50 95.35 97.12 93.76 96.26 C 91.79 95.00 91.06 92.39 90.16 90.35 C 88.35 90.31 86.55 90.22 84.74 90.11 C 85.90 88.04 87.64 86.48 87.59 84.02 C 87.69 77.14 87.58 70.24 87.59 63.35 C 86.98 62.54 86.38 61.71 85.79 60.88 C 86.38 60.04 86.98 59.19 87.59 58.36 C 87.55 53.97 87.84 49.53 87.48 45.16 C 87.51 43.19 84.81 42.20 83.51 41.08 C 84.70 40.55 85.88 40.03 87.07 39.50 C 88.20 40.22 89.34 40.94 90.47 41.67 C 93.27 38.76 95.89 35.85 99.90 34.64 Z" fill="#ffffff" />
<path d="M 113.36 35.35 C 118.10 37.60 122.62 39.94 127.74 41.30 C 130.12 41.90 132.24 42.69 134.31 44.05 C 129.52 44.50 124.79 44.36 119.96 44.47 C 117.76 40.48 115.49 37.67 111.56 35.22 C 112.16 35.26 112.76 35.30 113.36 35.35 Z" fill="#ffffff" />
<path d="M 102.92 38.58 C 107.21 38.14 109.32 41.26 111.75 44.15 C 106.42 44.31 101.10 44.47 95.77 44.09 C 97.71 41.61 99.40 38.69 102.92 38.58 Z" fill="#ffffff" />
<path d="M 38.49 41.09 C 39.46 41.51 40.43 41.94 41.39 42.37 C 42.42 41.88 43.44 41.36 44.45 40.83 C 44.12 41.89 43.79 42.95 43.47 44.01 C 44.43 44.75 45.40 45.48 46.36 46.22 C 45.17 46.34 43.98 46.45 42.79 46.57 C 42.48 47.67 42.16 48.77 41.84 49.87 C 41.31 48.79 40.78 47.71 40.24 46.62 C 39.07 46.60 37.90 46.57 36.73 46.54 C 37.61 45.79 38.50 45.03 39.39 44.28 C 39.08 43.22 38.78 42.16 38.49 41.09 Z" fill="#ffffff" />
<path d="M 138.46 40.54 C 145.05 50.42 148.00 62.26 146.22 74.06 C 144.26 87.96 135.66 100.54 123.50 107.53 C 116.67 111.57 109.01 113.44 101.13 113.88 C 108.31 108.53 114.89 102.51 120.28 95.32 C 132.24 79.66 138.56 60.24 138.46 40.54 Z" fill="#ffffff" />
<path d="M 156.01 40.78 C 156.99 41.38 157.97 41.96 158.96 42.53 C 159.95 42.01 160.94 41.49 161.92 40.95 C 161.59 42.03 161.26 43.12 160.93 44.21 C 161.81 45.00 162.69 45.78 163.56 46.57 C 162.38 46.59 161.19 46.62 160.01 46.64 C 159.57 47.72 159.14 48.79 158.70 49.87 C 158.29 48.77 157.88 47.66 157.47 46.56 C 156.28 46.44 155.10 46.33 153.91 46.21 C 154.88 45.51 155.85 44.80 156.83 44.10 C 156.56 43.00 156.29 41.89 156.01 40.78 Z" fill="#ffffff" />
<path d="M 62.12 40.37 C 61.45 69.09 76.02 97.08 99.22 113.85 C 83.96 113.41 69.55 105.58 61.23 92.75 C 51.48 78.12 51.08 58.30 60.24 43.29 C 60.86 42.31 61.49 41.34 62.12 40.37 Z" fill="#ffffff" />
<path d="M 66.84 44.43 C 73.32 44.92 79.70 44.50 86.16 44.34 L 86.88 47.26 C 80.22 47.41 73.56 47.31 66.90 47.42 L 66.84 44.43 Z" fill="#ffffff" />
<path d="M 95.73 44.38 C 100.79 44.79 105.88 44.30 110.92 44.62 L 113.02 46.49 C 107.13 47.75 101.41 47.39 95.45 47.18 L 95.73 44.38 Z" fill="#ffffff" />
<path d="M 118.89 44.88 C 123.70 44.56 128.47 44.62 133.30 44.54 L 133.45 46.86 C 129.35 46.81 125.09 47.24 121.04 46.64 L 118.89 44.88 Z" fill="#ffffff" />
<path d="M 66.35 47.78 C 73.30 47.59 80.28 47.51 87.23 47.73 L 85.94 50.01 C 79.96 50.62 73.80 50.32 67.79 50.17 C 67.30 49.38 66.82 48.58 66.35 47.78 Z" fill="#ffffff" />
<path d="M 95.27 47.44 C 101.01 47.76 106.59 47.72 112.32 47.22 L 112.16 50.43 C 106.54 50.43 100.91 50.33 95.30 49.95 C 95.29 49.11 95.28 48.28 95.27 47.44 Z" fill="#ffffff" />
<path d="M 119.95 47.49 C 124.44 47.17 128.89 47.27 133.38 47.28 L 133.19 50.28 C 129.44 50.22 125.42 50.66 121.74 49.94 L 119.95 47.49 Z" fill="#ffffff" />
<path d="M 66.63 50.67 C 73.31 50.62 79.97 50.84 86.65 50.50 L 86.49 53.29 C 80.37 53.16 74.15 53.70 68.07 53.12 L 66.63 50.67 Z" fill="#ffffff" />
<path d="M 95.24 50.39 C 100.89 50.70 106.57 50.62 112.22 51.01 C 111.46 51.68 110.67 52.30 109.85 52.88 C 105.17 53.78 100.10 53.23 95.35 53.16 C 95.31 52.24 95.27 51.31 95.24 50.39 Z" fill="#ffffff" />
<path d="M 120.63 50.60 C 124.80 50.64 128.97 50.73 133.14 50.65 L 133.13 53.38 C 129.45 53.37 125.65 53.57 122.00 53.04 L 120.63 50.60 Z" fill="#ffffff" />
<path d="M 37.36 52.48 C 37.29 54.00 37.22 55.53 37.15 57.06 C 38.51 57.64 39.88 58.23 41.24 58.81 C 39.90 59.29 38.58 59.83 37.30 60.42 C 36.85 61.84 36.59 63.32 36.28 64.77 C 35.50 63.56 34.71 62.36 33.92 61.15 C 32.42 61.42 30.92 61.69 29.41 61.96 C 30.32 60.74 31.23 59.52 32.13 58.30 C 31.36 57.02 30.59 55.74 29.81 54.46 C 31.24 54.90 32.68 55.33 34.12 55.74 C 35.23 54.68 36.29 53.58 37.36 52.48 Z" fill="#ffffff" />
<path d="M 163.07 52.45 C 164.10 53.58 165.13 54.72 166.16 55.85 C 167.61 55.35 169.07 54.85 170.52 54.34 C 169.76 55.66 168.99 56.98 168.23 58.30 C 169.12 59.54 170.01 60.77 170.90 62.01 C 169.45 61.71 168.00 61.40 166.56 61.10 C 165.64 62.37 164.74 63.64 163.83 64.91 C 163.68 63.38 163.53 61.85 163.38 60.31 C 161.90 59.87 160.42 59.42 158.95 58.98 C 160.36 58.32 161.76 57.66 163.17 57.01 C 163.14 55.49 163.10 53.97 163.07 52.45 Z" fill="#ffffff" />
<path d="M 67.60 53.60 C 73.94 53.79 80.27 53.61 86.61 53.63 L 86.51 56.32 C 80.30 56.24 74.09 56.29 67.87 56.40 L 67.60 53.60 Z" fill="#ffffff" />
<path d="M 95.21 53.51 C 100.23 53.70 105.24 53.79 110.26 53.42 C 110.68 54.32 111.10 55.22 111.52 56.12 C 106.14 56.31 100.78 56.35 95.39 56.24 C 95.33 55.33 95.27 54.42 95.21 53.51 Z" fill="#ffffff" />
<path d="M 121.34 53.51 C 125.37 53.68 129.40 53.70 133.43 53.88 L 131.93 56.06 C 128.45 56.49 124.87 56.21 121.38 56.31 L 121.34 53.51 Z" fill="#ffffff" />
<path d="M 68.04 56.81 C 74.47 56.73 80.95 56.51 87.37 56.88 C 86.62 57.78 85.84 58.66 85.03 59.50 C 79.54 59.53 74.09 59.07 68.60 59.42 C 68.41 58.55 68.23 57.68 68.04 56.81 Z" fill="#ffffff" />
<path d="M 95.35 56.64 C 100.72 56.76 106.08 56.72 111.45 56.51 C 111.78 57.42 112.12 58.33 112.46 59.24 C 107.09 60.41 102.72 57.38 97.61 59.28 C 97.33 61.02 97.03 62.77 96.76 64.52 C 96.21 64.91 95.66 65.30 95.11 65.69 C 95.36 62.66 95.44 59.68 95.35 56.64 Z" fill="#ffffff" />
<path d="M 121.52 56.90 C 125.06 56.44 128.73 56.75 132.30 56.64 L 132.11 59.40 C 128.12 59.37 124.13 59.32 120.15 59.19 L 121.52 56.90 Z" fill="#ffffff" />
<path d="M 68.20 59.89 C 72.77 59.70 77.46 59.45 82.01 59.97 C 82.98 60.05 83.83 60.39 84.55 61.01 C 83.20 62.31 80.78 62.13 79.00 62.32 C 75.89 62.40 72.59 62.71 69.52 62.14 L 68.20 59.89 Z" fill="#ffffff" />
<path d="M 105.17 60.24 C 107.50 59.95 109.84 59.75 112.18 59.57 L 112.23 62.53 C 109.19 62.16 106.63 63.76 105.17 60.24 Z" fill="#ffffff" />
<path d="M 120.86 59.66 C 124.68 59.69 128.49 59.72 132.31 59.92 L 130.75 62.12 C 127.10 62.65 123.26 62.27 119.57 62.25 C 120.00 61.39 120.43 60.52 120.86 59.66 Z" fill="#ffffff" />
<path d="M 68.88 62.72 C 74.25 62.96 79.59 62.35 84.93 62.44 C 85.92 62.95 86.71 63.86 87.30 65.20 C 81.69 65.28 75.96 65.70 70.36 65.29 L 68.88 62.72 Z" fill="#ffffff" />
<path d="M 111.79 62.71 C 111.25 63.79 110.71 64.86 110.16 65.93 C 108.41 65.69 106.67 65.43 104.93 65.15 C 106.88 62.27 108.68 62.90 111.79 62.71 Z" fill="#ffffff" />
<path d="M 119.82 62.58 C 123.64 62.67 127.45 62.70 131.27 62.60 C 130.96 63.61 130.64 64.61 130.33 65.62 C 126.33 65.41 122.33 65.28 118.33 65.16 C 118.82 64.30 119.32 63.44 119.82 62.58 Z" fill="#ffffff" />
<path d="M 69.75 65.77 C 75.32 65.73 80.89 65.62 86.46 65.60 L 86.63 68.39 C 81.54 68.22 76.38 68.72 71.31 68.30 L 69.75 65.77 Z" fill="#ffffff" />
<path d="M 96.47 65.26 C 97.37 68.09 98.47 69.77 100.42 71.98 C 98.69 71.85 96.95 71.72 95.22 71.61 C 95.27 69.97 95.29 68.33 95.38 66.69 C 95.73 66.21 96.10 65.73 96.47 65.26 Z" fill="#ffffff" />
<path d="M 106.14 65.68 C 107.50 65.93 108.87 66.19 110.23 66.48 C 107.32 67.67 104.66 70.02 101.83 67.16 C 103.25 66.63 104.67 66.04 106.14 65.68 Z" fill="#ffffff" />
<path d="M 118.09 65.51 L 118.74 65.52 C 122.53 65.53 126.32 65.69 130.11 65.89 C 129.91 66.82 129.71 67.74 129.50 68.66 C 125.06 68.41 120.62 68.22 116.17 68.22 C 116.81 67.32 117.45 66.42 118.09 65.51 Z" fill="#ffffff" />
<path d="M 32.15 67.57 C 32.62 69.48 33.08 71.38 33.54 73.29 C 35.41 73.63 37.27 73.97 39.13 74.32 C 37.51 75.39 35.88 76.44 34.25 77.51 C 34.57 79.38 34.88 81.26 35.20 83.13 C 33.69 81.89 32.19 80.64 30.69 79.39 C 28.95 80.25 27.20 81.10 25.46 81.95 C 26.20 80.16 26.95 78.38 27.70 76.60 C 26.35 75.20 24.99 73.80 23.64 72.40 C 25.58 72.51 27.53 72.63 29.47 72.75 C 30.36 71.03 31.25 69.30 32.15 67.57 Z" fill="#ffffff" />
<path d="M 70.78 68.76 C 76.00 68.72 81.21 68.63 86.43 68.64 L 86.67 71.36 C 81.89 71.27 77.07 71.73 72.31 71.41 L 70.78 68.76 Z" fill="#ffffff" />
<path d="M 116.11 68.56 C 120.39 68.40 124.75 68.70 129.03 68.90 C 128.86 69.81 128.69 70.72 128.52 71.64 C 123.20 71.51 117.89 71.32 112.59 70.86 C 113.76 70.08 114.93 69.31 116.11 68.56 Z" fill="#ffffff" />
<path d="M 168.09 67.65 C 168.60 68.55 169.10 69.45 169.60 70.34 C 170.05 71.15 170.49 71.96 170.94 72.76 C 172.85 72.63 174.76 72.49 176.67 72.35 C 175.32 73.77 173.97 75.18 172.63 76.59 C 173.38 78.38 174.14 80.17 174.88 81.96 C 173.15 81.10 171.43 80.24 169.71 79.37 C 168.23 80.62 166.75 81.87 165.28 83.12 C 165.50 81.22 165.72 79.32 165.95 77.42 C 164.43 76.38 162.91 75.34 161.41 74.28 C 163.23 73.93 165.05 73.59 166.86 73.24 L 167.23 71.57 C 167.52 70.26 167.81 68.96 168.09 67.65 Z" fill="#ffffff" />
<path d="M 72.21 71.79 C 76.97 71.76 81.73 71.61 86.49 71.61 C 86.50 74.70 86.51 77.79 86.56 80.88 C 83.07 80.88 79.58 80.88 76.09 80.78 C 74.80 77.78 73.47 74.80 72.21 71.79 Z" fill="#ffffff" />
<path d="M 109.21 72.25 C 115.16 70.47 121.64 72.01 128.01 71.86 C 127.78 72.78 127.54 73.70 127.31 74.62 C 116.62 74.31 105.87 74.30 95.18 74.54 L 95.36 72.04 C 99.95 71.85 104.79 73.29 109.21 72.25 Z" fill="#ffffff" />
<path d="M 95.87 74.87 C 106.30 74.37 116.89 74.57 127.34 74.88 C 126.73 75.86 126.08 76.81 125.41 77.74 C 115.20 77.96 104.91 77.95 94.70 77.68 L 95.87 74.87 Z" fill="#ffffff" />
<path d="M 95.30 78.23 C 105.40 78.22 115.51 78.19 125.61 78.25 C 123.86 81.38 122.09 84.50 120.19 87.55 C 111.94 87.22 103.69 87.39 95.43 87.34 C 95.39 84.30 95.36 81.27 95.30 78.23 Z" fill="#ffffff" />
<path d="M 76.03 81.46 C 79.54 81.22 83.05 81.21 86.56 81.24 L 86.60 83.85 C 82.78 83.50 78.51 85.22 76.03 81.46 Z" fill="#ffffff" />
<path d="M 77.96 84.29 C 81.07 84.20 84.17 84.22 87.27 84.44 C 86.54 85.47 85.77 86.47 84.96 87.43 C 83.59 87.68 82.21 87.83 80.81 87.87 L 80.21 87.19 C 79.45 86.23 78.70 85.26 77.96 84.29 Z" fill="#ffffff" />
<path d="M 83.27 89.64 C 82.43 89.92 81.68 89.63 81.04 88.77 C 81.72 87.51 84.35 88.16 83.27 89.64 Z" fill="#ffffff" />
<path d="M 95.23 87.67 C 103.55 87.61 111.82 87.53 120.13 87.83 C 119.41 88.76 118.69 89.69 117.97 90.61 C 110.64 90.16 103.33 90.41 96.00 90.41 L 95.23 87.67 Z" fill="#ffffff" />
<path d="M 48.80 88.53 C 50.25 91.56 52.03 94.44 53.34 97.53 C 54.33 100.04 53.18 102.56 51.12 104.10 C 48.14 106.20 44.71 107.72 41.44 109.31 C 37.68 111.25 32.17 111.03 29.23 107.73 C 27.68 105.61 27.21 102.58 26.45 100.09 C 22.49 101.25 18.51 102.35 14.54 103.46 C 14.45 100.52 14.41 97.60 14.43 94.66 C 25.87 92.57 37.34 90.59 48.80 88.53 Z" fill="#ffffff" />
<path d="M 161.28 90.40 C 160.62 91.97 159.97 93.54 159.30 95.10 C 158.06 95.16 156.82 95.29 155.60 95.48 C 154.97 96.32 154.37 97.18 153.79 98.06 C 156.08 98.87 159.00 101.04 161.34 99.23 C 165.53 96.57 168.65 93.24 173.95 92.85 C 178.03 92.85 183.14 93.78 185.54 97.49 C 187.40 100.29 186.85 104.68 186.40 107.83 C 185.87 111.02 184.14 113.78 180.83 114.56 C 176.94 115.42 173.96 113.87 170.47 112.50 C 171.30 110.25 172.10 107.99 172.87 105.73 C 175.38 105.99 178.39 107.78 178.76 103.95 C 179.77 100.31 174.58 99.57 172.20 100.36 C 167.72 102.35 164.39 107.20 158.99 106.83 C 155.25 106.35 150.87 104.48 148.31 101.66 C 145.68 98.62 148.19 93.91 150.34 91.34 C 152.98 88.26 157.85 90.02 161.28 90.40 Z" fill="#ffffff" />
<path d="M 82.05 89.99 C 84.94 90.79 87.83 91.54 90.75 92.25 C 88.84 92.87 86.92 93.45 84.99 93.97 C 84.00 92.65 83.02 91.33 82.05 89.99 Z" fill="#ffffff" />
<path d="M 95.39 90.84 C 103.04 90.56 110.63 90.46 118.27 90.97 C 117.07 91.80 115.82 93.81 114.21 93.50 C 108.56 93.25 102.89 93.59 97.27 93.33 L 95.39 90.84 Z" fill="#ffffff" />
<path d="M 84.77 94.21 C 86.52 93.84 88.26 93.49 90.01 93.15 C 90.68 94.19 91.35 95.23 92.01 96.27 C 90.59 96.43 89.16 96.57 87.74 96.69 C 86.73 95.88 85.75 95.05 84.77 94.21 Z" fill="#ffffff" />
<path d="M 96.75 93.88 C 103.06 93.57 109.36 93.66 115.68 93.85 C 114.84 94.77 114.00 95.68 113.16 96.59 C 108.77 96.28 104.39 96.69 100.00 96.52 C 98.86 95.72 97.78 94.84 96.75 93.88 Z" fill="#ffffff" />
<path d="M 45.19 94.98 C 45.92 96.33 46.58 97.71 47.25 99.09 C 43.70 101.13 39.98 102.89 35.88 103.42 C 34.41 101.92 34.09 100.08 33.37 98.16 C 37.30 97.07 41.22 95.91 45.19 94.98 Z" fill="#00703c" />
<path d="M 87.38 97.18 C 88.85 96.96 90.33 96.73 91.80 96.52 C 94.11 97.46 96.46 98.30 98.82 99.13 C 95.93 99.26 93.05 99.50 90.16 99.53 C 89.22 98.76 88.30 97.98 87.38 97.18 Z" fill="#ffffff" />
<path d="M 101.52 96.94 C 105.39 96.74 109.23 96.72 113.10 96.88 C 112.17 97.83 111.22 98.77 110.27 99.71 C 106.19 99.37 102.12 99.12 98.03 99.00 C 99.20 98.33 100.36 97.64 101.52 96.94 Z" fill="#ffffff" />
<path d="M 90.15 100.15 C 96.88 99.20 103.49 99.40 110.23 100.16 C 109.19 101.02 108.14 101.89 107.10 102.75 C 102.43 102.33 97.81 102.43 93.14 102.53 C 92.13 101.75 91.13 100.96 90.15 100.15 Z" fill="#ffffff" />
<path d="M 93.08 102.94 C 97.83 102.62 102.55 102.54 107.27 103.31 C 103.16 106.66 96.88 106.90 93.08 102.94 Z" fill="#ffffff" />
<path d="M 141.58 104.76 C 155.80 109.55 169.98 114.53 184.17 119.42 C 183.36 122.30 182.47 125.15 181.50 127.99 C 178.10 126.50 174.70 125.00 171.30 123.53 C 169.94 126.42 168.52 129.26 166.97 132.06 C 169.96 135.04 172.95 138.03 175.94 141.01 C 174.11 144.09 172.20 147.10 170.19 150.06 C 159.24 136.29 148.31 122.51 137.29 108.80 C 138.69 107.43 140.10 106.04 141.58 104.76 Z" fill="#ffffff" />
<path d="M 59.84 105.44 C 61.35 106.91 62.87 108.37 64.40 109.82 C 53.62 124.07 42.98 138.41 32.21 152.66 C 30.17 149.75 28.19 146.81 26.25 143.83 C 29.28 140.60 32.28 137.34 35.29 134.09 C 33.30 131.08 31.51 128.02 29.87 124.81 C 26.41 126.33 22.96 127.86 19.50 129.39 C 18.55 126.50 17.68 123.60 16.87 120.67 C 31.18 115.56 45.52 110.53 59.84 105.44 Z" fill="#ffffff" />
<path d="M 102.81 106.61 C 102.07 107.33 101.19 107.81 100.17 108.05 C 99.20 107.82 98.30 107.35 97.47 106.64 C 99.04 105.77 101.25 105.70 102.81 106.61 Z" fill="#ffffff" />
<path d="M 69.83 113.92 C 71.54 114.81 73.18 115.79 74.84 116.75 C 65.37 129.15 56.08 141.67 46.62 154.08 C 49.12 156.35 51.67 158.54 54.32 160.62 C 52.59 163.52 50.88 166.42 49.16 169.32 C 43.32 164.79 38.08 159.66 33.29 154.05 C 45.56 140.76 57.50 127.14 69.83 113.92 Z" fill="#ffffff" />
<path d="M 129.62 114.72 C 131.43 113.86 133.15 114.10 134.82 115.15 C 137.78 117.05 140.30 119.75 142.92 122.09 C 145.95 124.98 149.63 128.00 151.10 132.03 C 152.07 134.39 151.26 136.44 150.86 138.81 C 157.11 142.85 163.30 146.97 169.52 151.04 C 167.43 153.68 165.29 156.28 163.07 158.82 C 157.35 154.24 151.71 149.53 145.95 145.01 C 144.68 143.83 143.61 144.52 142.05 144.58 C 146.56 151.70 151.53 158.55 156.22 165.56 C 152.87 168.23 149.45 170.75 145.89 173.12 C 137.10 155.28 128.45 137.38 119.63 119.56 C 123.05 118.12 126.27 116.31 129.62 114.72 Z" fill="#ffffff" />
<path d="M 149.29 114.18 C 154.51 116.27 159.71 118.43 164.90 120.60 C 163.74 122.65 162.58 124.69 161.40 126.72 C 157.36 122.54 153.29 118.39 149.29 114.18 Z" fill="#00703c" />
<path d="M 53.00 114.91 C 48.84 119.48 44.65 124.04 40.41 128.53 C 38.99 126.34 37.61 124.13 36.26 121.89 C 41.85 119.58 47.40 117.20 53.00 114.91 Z" fill="#00703c" />
<path d="M 79.58 119.17 C 81.36 119.50 83.11 120.13 84.84 120.66 C 83.81 129.45 82.79 138.24 81.73 147.03 C 85.39 138.89 88.67 130.58 92.12 122.35 C 93.98 122.52 95.84 122.69 97.70 122.86 C 96.36 143.87 95.25 164.92 93.82 185.92 C 89.86 185.60 85.99 185.04 82.10 184.26 C 83.89 173.71 85.69 163.16 87.47 152.60 C 82.89 159.75 78.54 167.04 73.92 174.16 C 73.81 165.48 73.79 156.79 73.58 148.10 C 69.59 157.73 65.47 167.30 61.31 176.86 C 57.91 174.96 54.60 172.96 51.32 170.86 C 59.32 156.03 67.43 141.27 75.45 126.45 C 76.78 124.01 78.01 121.45 79.58 119.17 Z" fill="#ffffff" />
<path d="M 117.71 120.16 C 125.92 138.52 134.01 156.93 142.24 175.29 C 138.46 177.27 134.63 179.06 130.70 180.72 C 124.65 161.02 118.76 141.27 112.68 121.58 C 114.36 121.10 116.04 120.63 117.71 120.16 Z" fill="#ffffff" />
<path d="M 133.35 121.67 C 136.34 124.91 139.43 128.64 141.68 132.43 C 143.52 135.35 140.16 137.33 138.37 139.10 C 134.61 133.39 130.85 127.68 127.26 121.86 C 129.24 121.58 131.85 119.63 133.35 121.67 Z" fill="#00703c" />
<path d="M 110.97 122.06 C 111.49 124.07 112.02 126.07 112.54 128.07 C 110.18 128.41 107.83 128.72 105.46 129.00 C 106.07 134.08 106.60 139.17 107.28 144.25 C 110.32 143.74 113.35 143.16 116.36 142.51 C 117.09 145.21 117.83 147.91 118.56 150.61 C 115.14 151.51 111.68 152.19 108.18 152.74 C 109.06 159.91 109.87 167.09 110.72 174.26 C 115.30 173.58 119.68 172.58 124.12 171.26 C 125.05 174.84 126.02 178.42 126.92 182.01 C 117.50 184.92 108.40 186.22 98.53 186.20 C 98.92 165.10 99.45 144.04 99.81 122.94 C 103.55 122.80 107.25 122.50 110.97 122.06 Z" fill="#ffffff" />
</svg>