<?xml version="1.0" encoding="UTF-8" standalone="no"?>
<!DOCTYPE svg PUBLIC "-//W3C//DTD SVG 1.1//EN" "http://www.w3.org/Graphics/SVG/1.1/DTD/svg11.dtd">
<svg xmlns="http://www.w3.org/2000/svg" version="1.1" viewBox="0 0 200 200" width="200.0pt" height="200.0pt">
<path d="M 0.00 0.00 L 94.05 0.00 C 84.90 0.79 75.79 3.27 67.75 7.77 C 62.28 10.61 57.92 14.79 52.27 17.32 C 40.25 23.14 27.35 24.28 14.19 23.39 C 13.82 31.59 14.06 39.82 14.01 48.02 C 15.02 79.66 21.55 112.04 37.33 139.77 C 51.74 165.54 73.74 185.97 99.59 200.00 L 0.00 200.00 L 0.00 0.00 Z" fill="#ffffff" />
<path d="M 94.05 0.00 L 105.99 0.00 C 115.14 0.80 124.21 3.27 132.25 7.77 C 137.72 10.61 142.08 14.79 147.73 17.32 C 159.75 23.14 172.65 24.28 185.81 23.39 C 186.18 31.59 185.94 39.82 185.99 48.02 C 184.99 79.38 178.55 111.55 163.05 139.11 C 148.64 165.16 126.46 185.90 100.37 200.00 L 99.59 200.00 C 73.74 185.97 51.74 165.54 37.33 139.77 C 21.55 112.04 15.02 79.66 14.01 48.02 C 14.06 39.82 13.82 31.59 14.19 23.39 C 27.35 24.28 40.25 23.14 52.27 17.32 C 57.92 14.79 62.28 10.61 67.75 7.77 C 75.79 3.27 84.90 0.79 94.05 0.00 Z" fill="#000000" />
<path d="M 105.99 0.00 L 200.00 0.00 L 200.00 200.00 L 100.37 200.00 C 126.46 185.90 148.64 165.16 163.05 139.11 C 178.55 111.55 184.99 79.38 185.99 48.02 C 185.94 39.82 186.18 31.59 185.81 23.39 C 172.65 24.28 159.75 23.14 147.73 17.32 C 142.08 14.79 137.72 10.61 132.25 7.77 C 124.21 3.27 115.14 0.80 105.99 0.00 Z" fill="#ffffff" />
<path d="M 94.04 3.64 C 106.07 2.68 118.10 4.41 128.88 10.00 C 134.89 12.87 139.69 17.46 145.76 20.24 C 157.27 26.06 169.63 27.45 182.37 27.00 C 183.49 56.88 180.47 87.69 169.93 115.84 C 164.22 131.07 156.27 145.37 146.00 158.00 C 133.31 173.67 117.51 186.32 100.00 196.22 C 87.08 188.78 74.94 180.22 64.49 169.51 C 42.27 147.82 28.66 119.46 22.40 89.26 C 18.08 68.95 16.84 47.72 17.63 27.01 C 33.36 27.69 48.71 24.95 61.79 15.79 C 71.18 8.80 82.32 4.39 94.04 3.64 Z" fill="#ffffff" />
<path d="M 113.74 14.57 C 120.59 16.17 126.84 19.37 132.49 23.51 C 144.40 32.02 158.51 35.94 173.02 36.65 C 172.95 67.24 168.80 97.68 155.36 125.46 C 143.37 150.36 123.72 170.95 100.00 185.00 C 78.18 172.06 59.74 153.60 47.62 131.24 C 31.84 102.16 27.04 69.37 26.98 36.65 C 39.51 36.03 51.73 33.04 62.62 26.69 C 66.43 24.51 69.75 21.69 73.59 19.57 C 85.45 12.73 100.57 11.55 113.74 14.57 Z" fill="#000000" />
<path d="M 100.01 28.45 C 104.46 42.31 108.91 56.18 113.49 70.00 C 128.18 70.03 142.88 69.94 157.57 70.05 C 145.70 78.67 133.81 87.28 121.91 95.86 C 126.27 109.87 130.99 123.77 135.45 137.75 C 123.65 129.11 111.86 120.45 100.00 111.88 C 88.09 120.44 76.29 129.16 64.38 137.71 C 68.99 123.80 73.49 109.85 78.04 95.91 C 66.16 87.31 54.28 78.69 42.43 70.05 C 57.12 69.94 71.81 70.03 86.50 70.00 C 90.88 56.11 95.56 42.32 100.01 28.45 Z" fill="#ffffff" />
</svg>