<?xml version="1.0" encoding="UTF-8" standalone="no"?>
<!DOCTYPE svg PUBLIC "-//W3C//DTD SVG 1.1//EN" "http://www.w3.org/Graphics/SVG/1.1/DTD/svg11.dtd">
<svg xmlns="http://www.w3.org/2000/svg" version="1.1" viewBox="0 0 200 200" width="200.0pt" height="200.0pt">
<path d="M 0.00 0.00 L 200.00 0.00 L 200.00 200.00 L 0.00 200.00 L 0.00 0.00 Z" fill="#ffffff" />
<path d="M 11.27 11.34 C 70.19 11.17 129.82 11.32 188.82 11.27 C 188.82 28.60 188.82 45.93 188.82 63.25 C 129.61 63.26 70.40 63.26 11.19 63.25 C 11.25 45.97 11.09 28.61 11.27 11.34 Z" fill="#000000" />
<path d="M 152.47 19.59 C 157.96 19.23 163.51 19.55 169.01 19.42 C 171.59 19.48 174.69 19.30 176.58 21.41 C 179.28 23.76 177.93 28.93 178.21 32.17 C 175.75 32.17 173.29 32.18 170.84 32.17 C 170.51 30.30 170.06 28.55 169.40 26.76 C 165.19 26.93 160.96 26.63 156.76 26.92 C 155.69 27.29 154.91 28.43 154.09 29.19 C 154.16 34.41 154.09 39.63 154.14 44.85 C 154.78 45.59 155.42 46.33 156.06 47.08 C 160.30 47.01 164.64 47.38 168.85 46.90 C 170.20 46.17 170.23 43.54 170.71 42.19 C 173.25 42.19 175.79 42.20 178.34 42.20 C 178.34 44.47 178.41 46.79 178.19 49.05 C 177.75 52.14 175.46 55.12 172.04 54.88 C 165.36 54.93 158.65 55.04 151.98 54.82 C 148.24 54.73 146.93 51.26 146.88 48.03 C 146.80 40.34 146.80 32.63 146.84 24.93 C 146.71 21.70 149.52 19.80 152.47 19.59 Z" fill="#ffffff" />
<path d="M 25.95 19.83 C 34.91 19.61 43.90 19.82 52.87 19.75 C 52.87 22.07 52.86 24.38 52.86 26.70 C 45.39 26.67 37.92 26.75 30.45 26.65 C 29.63 29.25 29.68 30.80 30.57 33.36 C 36.26 33.35 42.00 33.13 47.69 33.44 C 50.25 33.59 52.98 35.09 52.85 37.97 C 52.89 42.22 53.05 46.53 52.72 50.76 C 51.92 52.70 50.46 55.06 48.03 54.80 C 39.30 54.85 30.55 54.81 21.82 54.79 C 21.82 52.15 21.81 49.51 21.82 46.87 C 29.30 46.86 36.79 46.86 44.28 46.87 C 44.65 44.69 44.64 42.75 44.35 40.56 C 38.89 40.52 33.43 40.61 27.98 40.55 C 25.62 40.63 22.86 39.42 21.92 37.16 C 21.67 32.78 21.73 28.32 21.81 23.94 C 21.80 21.64 23.68 19.86 25.95 19.83 Z" fill="#ffffff" />
<path d="M 63.44 19.72 C 71.97 19.76 80.51 19.64 89.03 19.76 C 92.17 19.48 94.24 22.29 94.50 25.14 C 94.66 28.91 94.70 32.81 94.45 36.58 C 94.16 39.55 92.02 41.68 89.02 41.89 C 83.19 42.13 77.33 41.89 71.49 41.98 C 71.49 46.26 71.49 50.54 71.48 54.82 C 68.80 54.82 66.11 54.81 63.43 54.81 C 63.44 43.11 63.42 31.41 63.44 19.72 Z" fill="#ffffff" />
<path d="M 105.24 19.60 C 115.61 19.58 125.98 19.59 136.35 19.59 C 136.35 21.88 136.35 24.16 136.35 26.44 C 128.40 26.46 120.45 26.44 112.50 26.45 C 112.51 29.15 112.51 31.84 112.50 34.53 C 118.39 34.55 124.28 34.53 130.17 34.55 C 130.18 37.05 130.18 39.56 130.18 42.06 C 124.29 42.07 118.40 42.07 112.51 42.07 C 112.50 46.32 112.50 50.58 112.51 54.84 C 110.09 54.84 107.66 54.85 105.24 54.85 C 105.24 43.10 105.25 31.35 105.24 19.60 Z" fill="#ffffff" />
<path d="M 71.32 27.19 C 76.13 27.08 81.05 26.93 85.84 27.30 C 87.05 29.04 87.53 33.25 85.40 34.45 C 80.74 34.95 75.95 34.53 71.26 34.66 C 71.26 32.17 71.15 29.67 71.32 27.19 Z" fill="#000000" />
<path d="M 11.29 74.16 C 35.64 74.17 60.00 74.16 84.35 74.16 C 84.33 103.85 84.43 133.54 84.30 163.22 C 59.93 133.56 35.64 103.83 11.29 74.16 Z" fill="#d10811" />
<path d="M 115.64 74.16 C 140.00 74.16 164.37 74.17 188.73 74.15 C 164.37 103.84 140.07 133.58 115.69 163.25 C 115.56 133.56 115.67 103.86 115.64 74.16 Z" fill="#000000" />
</svg>