<?xml version="1.0" encoding="UTF-8" standalone="no"?>
<!DOCTYPE svg PUBLIC "-//W3C//DTD SVG 1.1//EN" "http://www.w3.org/Graphics/SVG/1.1/DTD/svg11.dtd">
<svg xmlns="http://www.w3.org/2000/svg" version="1.1" viewBox="0 0 200 200" width="200.0pt" height="200.0pt">
<path d="M 0.00 0.00 L 200.00 0.00 L 200.00 200.00 L 0.00 200.00 L 0.00 0.00 Z" fill="#ffffff" />
<path d="M 65.14 1.32 L 65.76 1.25 C 66.94 4.75 68.31 8.16 69.36 11.70 C 72.96 12.71 77.26 11.45 81.02 12.04 C 79.62 15.12 74.82 17.17 72.70 20.03 C 73.39 23.84 75.53 27.28 75.95 31.10 L 75.03 31.24 C 72.03 29.37 69.17 26.95 65.98 25.47 C 62.78 27.14 60.19 30.73 56.87 31.96 C 56.34 28.25 59.12 24.11 58.86 20.20 C 56.11 17.91 53.00 16.07 50.25 13.80 L 50.05 13.02 C 53.82 12.51 57.69 12.65 61.49 12.44 C 63.03 8.85 63.45 4.80 65.14 1.32 Z" fill="#ffd530" />
<path d="M 142.07 2.14 L 142.81 2.03 C 143.32 4.75 144.18 7.34 144.86 10.01 C 145.27 11.34 145.24 12.56 146.38 13.51 C 150.19 13.95 154.05 13.89 157.86 14.27 C 155.03 17.00 151.40 18.84 148.42 21.42 C 148.42 25.15 150.56 29.19 150.91 33.07 C 147.66 32.53 144.34 27.50 140.98 26.56 C 137.62 28.35 134.58 31.41 131.17 32.86 C 131.57 28.82 134.24 24.97 134.54 20.94 C 132.23 18.07 128.04 15.97 126.13 13.03 C 129.94 12.40 133.98 13.23 137.81 12.76 C 139.61 9.42 140.52 5.61 142.07 2.14 Z" fill="#ffd530" />
<path d="M 120.01 36.00 C 147.47 42.55 170.48 64.10 178.99 91.00 C 182.98 102.79 183.90 115.68 182.31 128.00 C 178.84 154.86 161.38 179.08 137.13 191.10 C 124.13 197.74 109.55 200.61 94.99 199.72 C 71.43 198.56 48.66 186.38 34.29 167.70 C 18.74 147.98 13.05 121.35 19.15 97.00 C 26.02 67.70 49.84 43.58 79.01 36.22 C 92.26 32.67 106.72 32.53 120.01 36.00 Z" fill="#0763ab" />
<path d="M 96.01 39.34 C 109.81 38.52 123.78 41.56 135.99 48.05 C 159.73 60.31 176.17 85.24 177.46 112.00 C 178.70 129.32 173.76 146.70 163.86 160.92 C 149.42 181.89 124.53 195.01 99.00 194.25 C 70.67 194.32 43.72 177.24 31.03 152.01 C 26.78 143.85 24.30 135.08 22.99 126.00 C 22.22 115.39 22.44 105.04 25.75 94.84 C 28.01 86.86 31.76 79.28 36.48 72.47 C 49.94 53.10 72.37 40.30 96.01 39.34 Z" fill="#ffffff" />
<path d="M 154.94 69.02 C 171.82 88.11 177.46 115.97 169.00 140.03 C 161.98 161.41 144.38 178.88 123.00 185.84 C 111.38 189.85 98.56 190.37 86.51 188.30 C 68.74 184.90 52.53 174.76 41.77 160.20 C 28.90 143.15 24.35 120.56 29.41 99.84 C 36.00 70.93 61.47 47.91 91.00 44.63 C 114.76 41.33 139.33 50.87 154.94 69.02 Z" fill="#0763ab" />
<path d="M 99.49 47.54 C 100.53 47.46 101.43 47.63 102.18 48.04 C 102.83 51.96 101.57 56.39 102.43 60.29 C 104.61 60.34 107.46 59.65 109.38 60.69 L 109.29 62.22 C 106.30 62.84 102.19 62.38 99.13 61.93 C 99.20 57.14 99.11 52.30 99.49 47.54 Z" fill="#ffffff" />
<path d="M 92.19 48.74 C 92.96 49.34 94.95 50.74 93.83 51.77 C 91.76 53.17 91.00 51.00 89.01 50.64 C 84.26 50.97 85.05 55.65 86.11 58.90 C 87.17 61.09 90.12 61.59 91.73 59.75 C 92.67 58.21 92.92 56.26 95.23 57.79 C 96.23 60.79 91.84 63.89 88.99 63.47 C 83.97 63.33 81.83 58.43 82.28 53.98 C 82.77 49.20 87.99 46.85 92.19 48.74 Z" fill="#ffffff" />
<path d="M 116.23 49.17 C 117.12 49.10 118.01 49.40 118.90 50.09 C 117.97 53.40 116.33 56.60 115.81 60.00 C 115.47 62.46 119.70 64.36 120.88 61.81 C 122.39 58.83 123.13 55.43 124.40 52.33 C 125.67 51.59 127.42 52.21 126.90 53.95 C 126.11 56.98 124.93 59.90 123.85 62.84 C 121.86 68.42 110.87 64.76 112.84 58.97 C 113.91 55.69 114.90 52.36 116.23 49.17 Z" fill="#ffffff" />
<path d="M 68.75 55.23 C 69.70 56.37 69.70 57.19 68.74 57.69 C 66.91 58.88 64.89 59.84 63.15 61.16 C 63.41 62.05 63.80 62.90 64.31 63.72 C 66.65 63.58 68.70 60.95 71.01 60.39 C 71.99 61.20 72.22 61.97 71.72 62.72 C 69.83 63.82 67.90 64.89 66.10 66.13 C 66.52 67.26 67.11 68.47 68.04 69.28 C 70.46 68.66 72.59 66.61 74.95 65.64 C 76.55 66.74 76.28 67.88 74.59 68.59 C 72.05 70.01 69.66 71.80 67.02 72.99 L 66.32 72.68 C 63.98 68.78 61.68 64.83 59.34 60.92 L 59.79 60.09 C 62.71 58.71 65.72 55.99 68.75 55.23 Z" fill="#ffffff" />
<path d="M 133.15 56.05 C 135.89 56.51 139.15 58.95 141.26 60.81 C 142.78 63.95 141.19 65.41 138.54 66.88 C 140.21 70.46 136.93 74.16 133.30 72.67 C 131.08 71.31 127.49 69.95 125.99 67.94 C 128.03 63.96 130.61 59.73 133.15 56.05 Z" fill="#ffffff" />
<path d="M 134.27 59.38 C 135.75 59.82 137.23 60.61 138.45 61.55 C 139.46 62.74 138.72 63.71 137.69 64.50 C 136.17 64.13 134.73 63.38 133.42 62.57 C 132.64 61.43 133.79 60.38 134.27 59.38 Z" fill="#0763ab" />
<path d="M 131.65 64.32 C 133.15 65.27 135.64 66.25 136.30 68.00 C 136.34 72.40 130.36 68.93 129.70 67.08 C 130.33 66.16 130.91 65.16 131.65 64.32 Z" fill="#0763ab" />
<path d="M 52.51 65.51 C 53.00 64.93 53.71 64.88 54.64 65.36 C 55.87 66.80 52.50 68.31 53.05 69.85 C 55.67 72.29 58.54 74.46 61.22 76.82 C 62.59 77.64 60.71 78.84 59.98 79.23 C 56.70 77.37 54.01 74.36 50.94 72.14 C 49.42 71.97 48.69 75.21 47.15 74.90 C 46.51 74.32 46.20 73.74 46.24 73.15 C 48.26 70.56 50.40 68.04 52.51 65.51 Z" fill="#ffffff" />
<path d="M 108.52 66.27 C 119.26 67.97 129.28 73.34 136.81 81.16 L 136.96 81.97 C 135.36 82.11 132.92 83.22 131.45 82.55 C 128.90 80.34 126.36 78.24 123.38 76.62 C 109.19 68.13 90.81 68.16 76.61 76.61 C 73.86 78.34 70.36 80.22 68.60 83.01 C 71.54 91.98 73.56 100.66 75.18 109.99 C 76.35 121.30 78.11 134.64 75.47 145.81 C 75.30 141.79 74.99 137.94 74.18 133.99 C 72.97 120.66 71.04 107.35 69.80 93.98 C 68.73 89.69 68.90 85.27 68.04 81.00 C 66.27 81.01 64.44 81.46 62.69 81.76 L 62.12 82.81 C 63.70 89.81 63.44 96.97 64.89 104.00 C 65.97 117.36 68.00 130.39 69.22 143.52 C 70.57 149.62 70.30 155.86 71.48 162.00 C 72.07 164.86 72.12 167.70 72.40 170.59 C 74.18 170.93 76.37 170.58 78.11 170.08 C 78.53 166.50 77.16 162.65 77.23 159.00 C 77.37 156.00 76.25 153.21 76.23 150.25 C 86.10 145.40 97.17 143.46 107.99 145.99 C 114.44 146.86 120.48 149.22 126.87 150.30 C 126.60 150.89 126.21 151.35 125.71 151.67 C 112.25 161.81 93.45 163.06 78.91 154.44 L 77.52 154.42 C 77.57 155.79 77.45 158.36 79.17 158.81 C 95.98 167.34 117.11 164.53 131.03 151.80 C 132.36 151.77 136.24 151.54 136.69 152.97 C 129.57 160.27 120.20 165.56 110.15 167.42 C 99.72 169.83 88.65 168.18 78.88 164.01 C 78.61 166.24 78.92 168.56 78.81 170.82 C 76.67 171.36 74.32 171.73 72.12 171.83 C 70.90 167.87 70.93 163.11 70.15 159.02 C 66.80 156.30 63.52 153.58 60.76 150.24 C 50.50 138.35 46.11 121.30 49.76 106.00 C 51.45 97.32 55.75 89.80 61.22 82.97 C 61.41 79.82 63.57 81.31 65.19 79.17 C 76.53 68.49 93.19 63.45 108.52 66.27 Z" fill="#ffffff" />
<path d="M 149.00 67.03 C 151.38 69.28 153.43 71.96 155.75 74.30 C 156.35 75.69 154.21 76.79 153.47 75.52 C 151.93 74.12 150.76 72.00 149.00 70.94 C 148.04 71.29 147.29 71.97 146.76 72.98 C 148.14 74.76 149.75 76.31 151.17 78.06 C 151.02 78.75 150.58 79.34 149.84 79.81 C 148.01 78.99 146.79 76.10 144.93 75.02 C 143.72 74.87 142.79 76.27 142.05 77.06 C 142.78 79.19 145.54 81.08 146.84 83.06 C 146.86 83.68 146.51 84.25 145.80 84.78 L 145.19 84.77 C 142.76 82.29 140.34 79.62 138.14 76.94 L 138.21 76.25 C 141.71 73.33 145.28 69.46 149.00 67.03 Z" fill="#ffffff" />
<path d="M 126.90 83.11 L 126.95 83.92 C 121.59 85.80 115.58 86.05 109.97 85.40 C 104.59 83.86 99.14 83.26 93.86 81.25 C 88.67 79.90 83.60 78.70 78.21 79.68 C 81.60 77.88 85.22 76.10 88.99 75.26 C 101.87 71.42 116.49 74.75 126.90 83.11 Z" fill="#ffffff" />
<path d="M 42.28 79.28 C 46.06 77.31 48.99 80.01 48.91 83.91 C 51.13 83.96 54.09 82.88 56.10 83.78 C 55.91 84.76 55.40 85.65 54.57 86.45 C 52.16 86.82 49.71 86.90 47.32 87.35 L 46.38 89.03 C 47.48 91.08 53.91 91.66 50.03 94.67 C 45.69 92.78 41.47 90.15 37.35 87.77 C 38.67 84.86 40.22 81.74 42.28 79.28 Z" fill="#ffffff" />
<path d="M 46.52 83.30 C 45.91 84.72 45.20 87.09 43.93 87.91 C 42.98 87.63 42.07 87.26 41.18 86.79 C 40.84 85.49 42.13 83.91 42.79 82.84 C 43.73 81.24 45.88 81.68 46.52 83.30 Z" fill="#0763ab" />
<path d="M 138.74 83.18 C 146.63 92.24 151.14 104.00 151.41 116.00 C 151.63 126.55 148.43 136.81 142.77 145.67 L 142.09 145.93 C 141.79 143.66 141.27 141.37 141.18 139.09 C 144.56 132.16 146.74 124.78 146.61 117.00 C 146.72 106.47 142.98 96.33 136.60 88.01 C 136.74 86.90 136.69 82.27 138.74 83.18 Z" fill="#ffffff" />
<path d="M 91.03 84.91 C 98.65 87.49 101.22 97.59 97.95 104.38 L 96.78 104.39 C 95.57 100.07 94.14 94.88 95.56 90.50 C 93.80 90.51 91.57 90.27 90.25 91.66 C 91.91 91.21 93.33 90.04 95.07 90.90 C 94.93 91.92 94.73 92.93 94.48 93.94 C 92.69 93.88 90.89 93.89 89.10 93.91 C 89.00 92.77 88.82 91.65 88.58 90.55 C 85.66 89.94 83.37 89.93 80.44 90.45 C 80.64 92.98 80.81 95.53 81.23 98.04 C 83.01 98.54 81.98 95.18 82.52 94.14 C 83.19 92.42 84.60 89.97 86.87 91.11 C 87.92 92.50 88.18 94.53 86.82 95.81 C 85.59 96.66 84.18 95.41 83.00 94.99 L 82.94 97.28 C 85.00 97.35 86.83 96.45 88.95 96.91 L 91.30 97.31 C 92.94 97.94 95.36 96.34 95.39 98.95 C 95.42 100.13 94.63 100.53 93.02 100.15 C 89.89 99.67 86.88 99.20 83.72 99.76 C 83.08 99.54 82.44 99.33 81.79 99.13 C 81.54 101.89 82.39 104.92 82.30 107.78 L 83.72 107.83 C 83.41 106.42 83.38 105.10 83.62 103.88 C 86.43 102.16 89.25 102.80 92.16 103.81 L 92.99 104.09 C 94.46 104.46 95.96 104.25 97.44 104.58 C 96.08 110.09 88.69 113.08 83.61 110.38 C 74.93 105.96 74.49 91.69 82.30 86.23 C 84.94 84.55 88.01 83.57 91.03 84.91 Z" fill="#ffffff" />
<path d="M 136.02 83.86 C 134.90 89.19 134.13 94.48 133.79 99.96 C 124.03 99.89 114.25 100.02 104.49 99.89 C 104.54 95.16 104.12 90.24 104.59 85.55 C 107.41 85.37 110.10 87.13 112.99 87.08 C 118.05 87.55 122.57 86.02 127.50 85.31 C 130.13 84.85 133.40 83.28 136.02 83.86 Z" fill="#ffffff" />
<path d="M 163.00 87.60 C 164.68 89.95 165.55 93.23 166.40 96.00 C 166.17 99.58 163.51 100.46 160.43 99.35 C 159.83 102.05 158.86 103.04 156.00 102.95 C 153.05 103.03 152.24 99.68 151.36 97.51 C 150.94 96.07 149.34 93.80 150.33 92.40 C 154.54 90.79 158.75 89.11 163.00 87.60 Z" fill="#ffffff" />
<path d="M 80.44 90.45 C 83.37 89.93 85.66 89.94 88.58 90.55 C 88.82 91.65 89.00 92.77 89.10 93.91 C 89.03 94.91 88.98 95.91 88.95 96.91 C 86.83 96.45 85.00 97.35 82.94 97.28 L 83.00 94.99 C 84.18 95.41 85.59 96.66 86.82 95.81 C 88.18 94.53 87.92 92.50 86.87 91.11 C 84.60 89.97 83.19 92.42 82.52 94.14 C 81.98 95.18 83.01 98.54 81.23 98.04 C 80.81 95.53 80.64 92.98 80.44 90.45 Z" fill="#0763ab" />
<path d="M 61.20 91.03 L 62.16 90.92 C 64.43 95.49 60.81 97.53 59.72 101.78 C 53.86 116.41 57.29 133.66 67.70 145.36 C 69.30 146.73 69.03 149.37 69.05 151.30 C 67.71 151.52 66.99 149.74 66.02 148.99 C 57.77 140.24 52.89 128.06 53.33 116.00 C 53.35 107.21 56.35 98.33 61.20 91.03 Z" fill="#0763ab" />
<path d="M 161.86 91.14 C 162.89 92.74 165.28 96.87 162.00 97.36 C 160.16 97.02 159.39 93.81 159.17 92.23 C 160.06 91.85 160.96 91.49 161.86 91.14 Z" fill="#0763ab" />
<path d="M 156.58 93.34 C 157.24 95.23 159.27 97.82 157.60 99.61 C 154.81 101.51 153.07 96.28 153.27 94.33 C 154.36 93.95 155.47 93.62 156.58 93.34 Z" fill="#0763ab" />
<path d="M 89.10 93.91 C 90.89 93.89 92.69 93.88 94.48 93.94 C 95.00 95.50 94.81 96.65 93.92 97.38 C 93.05 97.33 92.17 97.31 91.30 97.31 L 88.95 96.91 C 88.98 95.91 89.03 94.91 89.10 93.91 Z" fill="#ee3126" />
<path d="M 135.75 93.89 C 136.55 93.93 137.16 94.44 137.59 95.43 C 140.38 100.25 142.01 105.52 143.03 110.98 C 143.70 117.83 143.38 126.72 139.99 132.82 C 138.59 132.09 138.85 129.58 138.33 128.17 C 135.71 117.61 133.95 107.07 135.14 96.14 C 135.21 95.34 135.42 94.59 135.75 93.89 Z" fill="#ffffff" />
<path d="M 36.49 95.61 C 41.01 94.23 46.54 96.16 47.71 101.14 C 48.29 103.65 46.36 107.91 43.97 109.07 C 39.64 110.97 33.35 108.86 32.31 103.87 C 31.86 100.82 33.41 96.73 36.49 95.61 Z" fill="#ffffff" />
<path d="M 37.34 98.36 C 39.14 97.48 41.13 98.50 42.80 99.23 C 45.19 99.96 45.54 103.52 44.21 105.21 C 42.18 107.77 38.23 106.62 36.06 104.95 C 33.71 102.79 34.75 99.72 37.34 98.36 Z" fill="#0763ab" />
<path d="M 81.79 99.13 C 82.44 99.33 83.08 99.54 83.72 99.76 L 83.48 102.53 C 86.12 103.48 89.57 101.49 92.16 103.81 C 89.25 102.80 86.43 102.16 83.62 103.88 C 83.38 105.10 83.41 106.42 83.72 107.83 L 82.30 107.78 C 82.39 104.92 81.54 101.89 81.79 99.13 Z" fill="#0763ab" />
<path d="M 83.72 99.76 C 86.88 99.20 89.89 99.67 93.02 100.15 C 93.76 100.23 94.48 100.35 95.21 100.49 C 96.06 101.72 96.34 102.88 96.05 103.96 C 95.09 104.25 94.08 104.29 92.99 104.09 L 92.16 103.81 C 89.57 101.49 86.12 103.48 83.48 102.53 L 83.72 99.76 Z" fill="#ee3126" />
<path d="M 104.49 99.89 C 114.25 100.02 124.03 99.89 133.79 99.96 C 133.41 105.46 134.06 110.85 134.51 116.32 C 130.79 116.98 126.76 116.32 123.00 116.25 C 116.68 116.20 110.60 115.04 104.30 114.34 C 104.81 109.57 104.26 104.69 104.49 99.89 Z" fill="#ee3126" />
<path d="M 154.95 105.87 C 156.27 105.29 157.83 106.46 159.15 106.81 C 162.61 108.00 166.08 109.26 169.54 110.50 C 169.92 111.58 170.01 112.67 169.82 113.76 C 164.85 115.51 160.19 118.25 155.21 119.86 C 155.11 118.95 155.09 118.06 155.16 117.17 C 155.89 115.97 157.64 116.34 158.33 115.03 C 158.15 113.33 158.68 110.81 157.72 109.38 C 156.90 109.15 156.09 108.91 155.28 108.66 C 154.72 107.74 154.61 106.81 154.95 105.87 Z" fill="#ffffff" />
<path d="M 160.55 110.43 C 162.31 110.88 164.52 111.14 165.78 112.51 C 164.33 112.64 161.82 114.62 160.61 113.59 C 160.60 112.54 160.58 111.48 160.55 110.43 Z" fill="#0763ab" />
<path d="M 38.90 116.11 C 40.20 117.57 39.60 120.16 40.10 122.00 C 41.89 122.60 43.94 121.66 45.78 122.22 C 45.82 123.07 45.83 123.92 45.82 124.76 C 40.93 124.92 36.03 125.91 31.16 125.90 C 31.06 123.26 30.67 120.60 30.74 117.97 C 30.83 113.94 37.13 112.87 38.90 116.11 Z" fill="#ffffff" />
<path d="M 104.30 114.34 C 110.60 115.04 116.68 116.20 123.00 116.25 C 126.76 116.32 130.79 116.98 134.51 116.32 C 135.43 121.22 136.50 126.13 137.67 130.97 C 128.40 132.06 120.30 129.92 111.16 129.30 C 104.74 128.41 98.48 127.50 91.97 127.84 C 87.19 127.52 82.56 129.49 77.91 129.47 C 77.80 125.58 77.53 121.71 77.20 117.84 L 77.80 117.00 C 86.32 113.72 95.30 113.30 104.30 114.34 Z" fill="#ffffff" />
<path d="M 36.25 117.62 C 37.62 118.65 37.54 121.01 37.57 122.55 C 36.14 122.67 34.69 122.77 33.25 122.75 C 33.18 121.28 33.03 119.72 33.33 118.26 C 34.15 117.47 35.17 117.07 36.25 117.62 Z" fill="#0763ab" />
<path d="M 155.10 121.93 L 155.95 121.51 C 160.53 122.70 165.46 122.57 169.92 124.01 C 170.02 124.84 169.76 125.64 169.13 126.39 C 167.32 126.63 165.19 125.77 163.47 126.35 C 163.41 128.07 162.78 130.02 163.21 131.68 C 165.13 132.18 169.92 131.61 168.02 135.06 C 163.43 135.02 158.36 134.07 153.82 133.09 C 153.29 132.29 153.37 131.30 154.05 130.14 C 155.90 130.31 158.93 131.97 160.41 130.56 C 160.56 128.84 161.20 126.92 160.82 125.22 C 158.99 124.90 157.16 124.75 155.31 124.59 C 155.05 123.76 154.98 122.87 155.10 121.93 Z" fill="#ffffff" />
<path d="M 91.97 127.84 C 98.48 127.50 104.74 128.41 111.16 129.30 C 120.30 129.92 128.40 132.06 137.67 130.97 C 138.37 133.97 139.39 136.94 139.84 139.98 C 140.38 143.57 141.93 147.79 141.39 151.39 C 138.75 152.07 135.51 150.99 132.84 150.54 C 123.51 148.94 114.41 145.21 104.99 144.32 C 95.95 142.90 86.27 144.27 78.01 148.20 L 77.10 148.04 C 77.24 141.82 78.05 135.72 77.91 129.47 C 82.56 129.49 87.19 127.52 91.97 127.84 Z" fill="#ee3126" />
<path d="M 45.22 139.78 C 44.93 139.11 44.66 138.44 44.39 137.76 L 44.47 137.34 C 47.49 135.42 46.05 130.27 42.40 131.38 C 41.29 133.82 42.62 137.06 41.56 139.57 C 40.53 141.83 37.15 142.21 35.46 140.51 C 33.24 137.72 31.86 133.74 35.22 131.16 C 37.40 130.79 37.11 133.08 36.40 134.39 C 35.53 135.99 36.32 139.23 38.65 138.68 C 40.30 135.19 37.10 130.94 41.56 128.56 C 47.92 125.43 51.97 138.63 45.22 139.78 Z" fill="#ffffff" />
<path d="M 152.82 136.18 C 157.13 137.53 161.33 139.24 165.70 140.41 C 165.56 142.03 165.93 142.75 164.05 143.26 C 159.83 141.60 155.51 140.20 151.22 138.72 C 151.55 137.40 150.82 135.97 152.82 136.18 Z" fill="#ffffff" />
<path d="M 150.32 140.24 C 152.15 141.38 153.31 143.69 154.72 145.31 C 156.49 147.85 158.96 150.19 160.31 152.95 C 159.50 154.35 158.91 155.59 157.01 155.16 C 152.38 154.37 147.78 153.57 143.13 152.88 C 144.17 149.78 145.09 150.08 148.07 150.46 C 149.38 149.24 150.19 147.46 151.05 145.92 C 150.80 144.77 149.84 143.84 149.28 142.81 C 149.55 141.93 149.90 141.08 150.32 140.24 Z" fill="#ffffff" />
<path d="M 51.76 142.24 C 53.25 144.78 54.96 147.26 56.17 149.94 L 55.69 150.67 C 51.78 153.02 47.88 155.42 43.92 157.68 C 41.76 155.06 40.32 151.76 38.38 148.95 L 38.78 147.90 L 40.03 147.37 C 42.11 148.56 42.61 152.96 44.92 153.67 L 46.80 152.76 C 46.93 150.52 44.26 148.22 43.57 146.04 C 44.30 144.96 45.06 144.65 45.82 145.14 C 46.99 147.00 48.08 148.92 49.20 150.82 C 50.50 150.58 51.73 149.59 52.75 148.78 C 51.55 146.52 49.92 144.43 48.92 142.07 C 49.66 140.30 51.08 140.65 51.76 142.24 Z" fill="#ffffff" />
<path d="M 152.37 148.35 C 153.92 147.60 155.50 150.81 156.00 151.92 C 154.45 151.81 152.92 151.57 151.38 151.42 C 151.08 150.15 151.84 149.42 152.37 148.35 Z" fill="#0763ab" />
<path d="M 133.41 162.42 C 136.39 160.96 139.94 164.73 138.65 167.68 C 137.66 169.92 135.39 171.06 133.07 169.95 C 130.12 168.42 130.31 163.73 133.41 162.42 Z" fill="#ffffff" />
<path d="M 62.24 164.22 C 65.19 162.52 68.54 164.73 68.48 168.01 C 68.14 171.39 63.88 173.37 61.49 170.53 C 59.47 168.37 60.15 165.99 62.24 164.22 Z" fill="#ffffff" />
<path d="M 115.77 169.24 C 117.37 173.77 118.26 178.50 119.67 183.10 C 118.85 184.82 116.70 184.41 116.55 182.45 C 115.91 179.72 115.18 177.02 114.40 174.32 C 113.39 175.16 112.44 176.59 111.13 176.89 C 110.83 174.99 110.89 174.58 112.15 173.14 C 113.40 171.73 113.67 169.57 115.77 169.24 Z" fill="#ffffff" />
<path d="M 88.64 170.32 C 88.99 171.21 89.05 172.08 88.81 172.93 C 87.71 176.88 86.69 180.79 85.60 184.74 C 84.92 185.04 84.15 185.03 83.29 184.72 C 82.66 181.71 85.10 177.83 85.14 174.75 C 84.06 174.84 82.99 174.91 81.91 174.96 C 81.20 173.07 82.80 172.68 84.17 172.17 C 85.98 171.69 86.87 170.06 88.64 170.32 Z" fill="#ffffff" />
<path d="M 96.04 171.50 C 99.69 172.19 100.25 175.90 100.12 179.01 C 99.79 181.95 99.44 185.36 96.04 186.23 C 94.38 186.98 92.97 186.25 91.47 185.53 C 89.53 183.95 90.81 181.15 92.86 182.94 C 95.01 185.37 96.92 183.29 97.02 180.81 C 94.24 181.02 91.33 181.51 90.55 178.04 C 89.60 174.19 91.97 170.91 96.04 171.50 Z" fill="#ffffff" />
<path d="M 109.85 174.11 C 110.50 175.32 109.36 176.85 108.96 178.03 C 111.67 180.48 111.98 183.64 108.80 185.78 C 106.00 187.65 101.33 186.00 101.35 182.40 C 102.12 182.29 102.87 182.28 103.62 182.37 C 105.02 184.04 105.41 184.54 107.66 183.66 C 108.06 182.43 108.08 181.29 107.72 180.25 C 106.73 179.13 104.89 179.71 104.77 178.05 C 105.58 176.77 107.61 176.98 107.23 175.04 C 106.36 172.58 104.29 173.86 103.56 175.68 C 102.81 175.72 102.07 175.71 101.32 175.65 C 100.57 171.09 108.65 169.85 109.85 174.11 Z" fill="#ffffff" />
<path d="M 95.51 173.64 C 97.32 174.81 97.57 176.73 96.58 178.59 C 95.52 179.08 94.48 179.07 93.46 178.55 C 92.55 176.93 93.04 173.19 95.51 173.64 Z" fill="#0763ab" />
</svg>