<?xml version="1.0" encoding="UTF-8" standalone="no"?>
<!DOCTYPE svg PUBLIC "-//W3C//DTD SVG 1.1//EN" "http://www.w3.org/Graphics/SVG/1.1/DTD/svg11.dtd">
<svg xmlns="http://www.w3.org/2000/svg" version="1.1" viewBox="0 0 200 200" width="200.0pt" height="200.0pt">
<path d="M 0.00 0.00 L 45.70 0.00 C 43.87 5.41 42.13 10.86 40.33 16.28 C 34.75 16.22 29.18 16.22 23.61 16.26 C 28.05 19.64 32.62 22.83 37.10 26.17 C 35.40 31.54 33.68 36.91 31.90 42.26 C 36.61 39.05 41.17 35.65 45.81 32.35 C 50.27 35.69 54.70 39.02 59.32 42.15 C 57.82 36.75 55.95 31.47 54.32 26.10 C 58.88 22.82 63.42 19.52 68.01 16.28 C 62.36 16.22 56.70 16.25 51.05 16.21 C 49.21 10.83 47.57 5.39 45.76 0.00 L 200.00 0.00 L 200.00 200.00 L 100.55 200.00 C 105.49 196.76 110.78 194.13 115.64 190.74 C 135.68 177.50 152.07 159.02 162.01 137.10 C 173.22 112.79 176.46 86.60 176.70 60.08 C 159.37 57.21 140.70 54.87 124.53 47.53 C 114.96 43.25 106.80 37.00 100.06 28.99 C 96.51 32.84 93.02 36.66 88.78 39.78 C 77.64 48.14 64.42 52.29 50.97 55.24 C 41.86 57.30 32.66 58.57 23.45 60.01 C 23.88 67.68 23.86 75.36 24.41 83.02 C 26.38 103.64 31.02 123.92 40.69 142.36 C 51.37 163.39 68.05 180.58 87.99 193.01 C 91.73 195.44 95.77 197.37 99.35 200.00 L 0.00 200.00 L 0.00 0.00 Z" fill="#ffffff" />
<path d="M 45.70 0.00 L 45.76 0.00 C 47.57 5.39 49.21 10.83 51.05 16.21 C 56.70 16.25 62.36 16.22 68.01 16.28 C 63.42 19.52 58.88 22.82 54.32 26.10 C 55.95 31.47 57.82 36.75 59.32 42.15 C 54.70 39.02 50.27 35.69 45.81 32.35 C 41.17 35.65 36.61 39.05 31.90 42.26 C 33.68 36.91 35.40 31.54 37.10 26.17 C 32.62 22.83 28.05 19.64 23.61 16.26 C 29.18 16.22 34.75 16.22 40.33 16.28 C 42.13 10.86 43.87 5.41 45.70 0.00 Z" fill="#fedd00" />
<path d="M 153.43 0.57 C 155.88 5.47 157.03 11.08 158.91 16.25 C 164.48 16.23 170.05 16.21 175.62 16.27 C 171.20 19.66 166.63 22.89 162.12 26.17 C 163.86 31.52 165.68 36.84 167.37 42.21 C 162.66 39.12 158.20 35.73 153.71 32.35 C 149.01 35.50 144.60 39.03 139.90 42.17 C 141.47 36.79 143.35 31.50 144.97 26.13 C 140.47 22.88 135.94 19.65 131.51 16.30 C 137.06 16.20 142.59 16.23 148.15 16.25 C 150.07 11.07 151.39 5.69 153.43 0.57 Z" fill="#fedd00" />
<path d="M 100.06 28.99 C 106.80 37.00 114.96 43.25 124.53 47.53 C 140.70 54.87 159.37 57.21 176.70 60.08 C 176.46 86.60 173.22 112.79 162.01 137.10 C 152.07 159.02 135.68 177.50 115.64 190.74 C 110.78 194.13 105.49 196.76 100.55 200.00 L 99.35 200.00 C 95.77 197.37 91.73 195.44 87.99 193.01 C 68.05 180.58 51.37 163.39 40.69 142.36 C 31.02 123.92 26.38 103.64 24.41 83.02 C 23.86 75.36 23.88 67.68 23.45 60.01 C 32.66 58.57 41.86 57.30 50.97 55.24 C 64.42 52.29 77.64 48.14 88.78 39.78 C 93.02 36.66 96.51 32.84 100.06 28.99 Z" fill="#000000" />
<path d="M 100.03 34.02 C 102.64 36.52 105.20 39.07 107.93 41.43 C 99.21 50.80 90.13 59.85 81.24 69.06 C 79.91 68.47 78.57 67.89 77.23 67.31 C 76.04 67.77 74.85 68.23 73.65 68.69 C 72.67 69.34 71.68 69.98 70.69 70.62 C 70.66 69.46 70.63 68.29 70.61 67.13 C 65.99 66.78 62.36 66.03 58.67 63.07 C 57.06 64.09 55.44 65.09 53.80 66.08 C 58.29 61.42 62.11 55.26 68.67 53.65 C 80.83 49.68 91.14 43.21 100.03 34.02 Z" fill="#d92029" />
<path d="M 127.94 52.71 C 135.92 55.31 143.84 57.66 152.08 59.29 C 146.14 65.61 140.05 71.78 134.06 78.05 C 131.56 80.86 127.63 81.39 124.14 82.97 C 123.23 81.93 122.16 80.92 121.47 79.71 C 120.65 77.55 120.65 74.66 119.08 72.95 C 117.33 70.87 115.78 68.75 114.44 66.37 C 119.08 61.96 123.28 57.09 127.94 52.71 Z" fill="#d92029" />
<path d="M 104.74 59.82 C 105.69 59.97 106.64 60.14 107.58 60.32 C 107.09 62.02 106.58 63.72 106.09 65.42 C 107.27 65.00 108.44 64.55 109.60 64.07 C 113.41 66.36 115.23 69.70 117.44 73.39 C 116.62 74.64 115.78 75.87 114.91 77.09 C 114.89 75.31 114.88 73.53 114.88 71.75 C 113.74 73.65 112.59 75.54 111.37 77.39 C 111.23 75.66 111.10 73.94 110.97 72.21 C 109.93 73.95 108.90 75.70 107.85 77.44 C 107.52 74.69 107.11 72.47 105.51 70.19 C 106.05 73.13 106.53 75.92 106.17 78.93 C 106.83 78.74 107.49 78.56 108.16 78.38 C 110.87 78.14 113.55 77.63 116.24 77.23 C 116.75 77.46 117.27 77.69 117.78 77.92 C 118.25 77.41 118.72 76.89 119.19 76.38 C 119.90 78.50 120.67 80.59 121.68 82.59 C 121.45 83.00 121.21 83.40 120.97 83.80 C 120.86 85.48 120.74 87.15 120.59 88.82 C 119.49 89.90 118.39 90.83 117.69 92.23 C 117.45 95.32 117.86 98.49 118.03 101.58 C 117.08 97.51 116.56 93.38 116.08 89.23 C 114.14 93.80 115.09 97.96 115.75 102.65 C 112.97 100.69 111.95 98.10 110.73 95.09 C 110.74 93.36 110.71 91.63 110.64 89.91 C 108.41 94.92 109.98 99.19 111.48 104.09 C 109.83 102.81 107.97 101.86 107.09 99.88 C 105.70 96.94 105.48 93.43 104.42 90.29 C 104.13 94.38 105.34 98.07 106.34 101.98 C 104.87 100.76 102.96 99.70 101.80 98.14 C 100.49 95.56 100.38 92.23 99.83 89.41 C 99.17 92.51 99.06 95.64 98.85 98.79 C 95.58 95.98 95.02 92.52 94.02 88.55 C 93.38 91.10 92.99 93.70 92.54 96.29 C 90.96 94.06 90.69 91.90 90.47 89.23 C 89.84 91.21 89.18 93.18 88.31 95.07 C 88.27 92.86 88.30 90.66 88.38 88.45 C 87.33 90.52 86.33 92.61 85.10 94.58 C 85.95 90.97 86.12 87.72 89.52 85.52 C 93.56 81.97 99.52 82.61 102.34 78.36 C 104.31 75.73 103.80 72.96 103.01 70.01 C 102.63 72.91 103.08 75.71 101.16 78.13 C 99.78 79.85 96.98 81.79 94.80 80.36 C 97.31 78.62 99.88 78.10 100.84 74.87 C 101.85 70.92 99.15 68.17 95.96 66.39 C 97.57 68.91 100.22 70.75 99.72 74.04 C 99.54 77.22 97.01 77.65 94.64 78.80 C 94.26 79.41 93.88 80.02 93.49 80.63 C 92.72 80.74 91.94 80.83 91.15 80.89 C 90.73 79.44 90.46 77.94 90.15 76.46 C 90.83 76.02 91.51 75.59 92.19 75.15 C 92.85 75.94 93.52 76.72 94.18 77.50 C 95.42 76.75 96.66 76.00 97.81 75.11 C 97.85 73.57 97.33 72.45 96.24 71.74 C 94.83 70.20 92.93 71.32 91.13 71.47 C 90.64 70.96 90.14 70.46 89.64 69.96 C 89.74 68.26 89.85 66.57 89.96 64.87 C 91.43 64.68 92.91 64.48 94.38 64.28 C 95.83 65.15 97.28 65.87 98.84 66.53 C 98.03 65.75 97.21 64.97 96.38 64.20 C 98.04 64.50 99.70 64.74 101.38 64.90 C 99.81 63.65 98.09 62.82 96.24 62.03 C 98.57 61.54 100.86 61.02 103.15 60.32 C 103.67 60.15 104.20 59.98 104.74 59.82 Z" fill="#fedd00" />
<path d="M 108.84 60.57 C 109.10 61.73 109.35 62.90 109.60 64.07 C 108.44 64.55 107.27 65.00 106.09 65.42 C 106.58 63.72 107.09 62.02 107.58 60.32 C 108.00 60.40 108.42 60.49 108.84 60.57 Z" fill="#000000" />
<path d="M 58.61 64.76 C 61.98 66.90 65.58 67.91 69.48 68.55 C 69.05 71.03 68.72 73.51 68.38 76.00 C 67.85 79.91 65.89 82.93 64.09 86.34 C 65.29 88.48 66.05 91.39 67.86 93.09 C 71.10 95.33 74.82 96.87 78.18 98.94 C 77.15 99.88 76.13 100.83 75.11 101.78 C 73.03 100.91 71.45 100.36 69.21 100.56 C 67.33 100.94 65.46 101.36 63.59 101.77 C 61.67 99.77 59.92 97.73 58.93 95.11 C 60.44 95.27 61.94 95.47 63.44 95.70 C 61.59 94.25 59.82 92.92 58.60 90.88 C 60.98 91.67 63.08 92.96 65.26 94.17 C 63.82 92.56 62.30 91.03 60.74 89.53 L 62.54 87.08 C 61.30 87.36 60.06 87.64 58.83 87.92 L 58.83 90.62 C 56.21 88.67 53.72 86.81 51.88 84.06 C 48.77 79.44 47.98 74.32 47.39 68.90 C 51.87 68.34 54.89 67.31 58.61 64.76 Z" fill="#fedd00" />
<path d="M 61.78 68.84 L 57.42 70.45 L 59.97 71.05 C 59.76 71.70 59.55 72.35 59.34 73.01 C 57.27 72.81 55.21 72.60 53.17 72.15 C 54.15 71.59 55.12 71.03 56.09 70.45 C 58.34 68.78 58.88 67.73 61.78 68.84 Z" fill="#000000" />
<path d="M 80.87 71.11 C 82.83 74.34 80.00 76.44 78.49 79.09 C 80.28 82.21 82.24 85.16 84.39 88.04 C 82.60 90.92 81.47 94.06 80.22 97.19 C 78.44 91.77 76.64 86.47 73.71 81.53 C 71.43 79.28 70.42 77.62 69.70 74.47 C 70.93 73.24 72.11 71.97 73.25 70.65 C 74.25 71.27 75.25 71.89 76.24 72.53 C 76.73 74.20 77.25 75.85 77.88 77.46 C 77.98 76.03 77.94 74.62 77.75 73.22 C 76.96 71.68 75.37 70.47 74.22 69.22 C 76.24 69.92 80.11 68.48 80.87 71.11 Z" fill="#fedd00" />
<path d="M 172.88 69.65 C 173.06 79.38 171.74 88.91 170.31 98.50 C 169.65 101.96 169.43 105.13 166.71 107.70 C 153.46 121.28 140.53 135.19 127.14 148.64 C 123.67 144.94 122.11 142.14 121.32 137.05 C 124.40 137.64 127.77 138.80 130.84 137.69 C 135.41 136.14 138.62 131.90 138.61 127.03 C 138.98 120.73 136.17 115.97 133.15 110.73 C 134.41 109.44 135.66 108.15 136.92 106.85 C 139.35 108.35 141.78 109.85 144.24 111.29 C 143.59 108.15 142.53 105.04 142.17 101.85 C 143.62 99.56 145.77 97.59 147.65 95.65 C 156.07 86.99 164.41 78.26 172.88 69.65 Z" fill="#d92029" />
<path d="M 79.43 70.69 C 80.77 72.37 80.74 74.40 79.39 76.06 C 78.90 74.31 78.92 72.44 79.43 70.69 Z" fill="#000000" />
<path d="M 46.73 72.94 C 47.38 76.76 48.14 80.41 50.23 83.74 C 52.40 87.36 55.47 89.61 58.66 92.23 C 50.72 100.82 42.49 109.39 34.11 117.56 C 31.52 109.10 29.91 100.46 28.55 91.74 C 34.50 85.36 40.74 79.27 46.73 72.94 Z" fill="#d92029" />
<path d="M 61.87 72.99 C 62.35 73.84 62.83 74.68 63.31 75.52 C 62.28 77.01 61.33 78.52 60.43 80.09 C 61.60 80.31 62.77 80.54 63.93 80.77 C 63.19 82.73 62.50 84.69 61.41 86.49 L 60.92 82.52 C 59.33 84.47 58.53 86.57 55.67 86.90 C 56.71 85.76 57.77 84.62 58.84 83.50 C 57.71 83.28 56.58 83.06 55.45 82.84 C 55.59 83.57 55.73 84.30 55.87 85.03 L 54.62 85.00 C 53.60 82.93 52.14 80.99 51.36 78.82 C 51.10 76.42 52.88 74.83 54.52 73.41 C 56.11 73.47 57.70 73.56 59.29 73.69 C 60.15 73.48 61.01 73.23 61.87 72.99 Z" fill="#000000" />
<path d="M 73.87 73.83 C 75.00 75.06 76.22 76.74 76.25 78.47 C 76.06 79.31 75.61 79.38 74.92 78.69 C 73.96 77.23 73.62 75.55 73.87 73.83 Z" fill="#000000" />
<path d="M 118.15 74.27 L 118.98 74.28 L 119.39 74.99 L 118.97 75.70 L 118.14 75.69 L 117.74 74.98 L 118.15 74.27 Z" fill="#fedd00" />
<path d="M 56.40 75.20 C 56.82 76.11 57.22 77.02 57.62 77.93 L 54.23 76.99 L 54.10 79.58 C 56.28 79.55 58.45 79.63 60.62 79.75 C 60.00 80.04 59.39 80.33 58.77 80.62 C 56.64 82.16 55.39 80.63 53.20 80.10 C 53.17 78.88 53.15 77.65 53.13 76.43 L 54.98 76.86 C 55.44 76.30 55.92 75.75 56.40 75.20 Z" fill="#fedd00" />
<path d="M 60.40 75.39 C 61.65 76.79 59.88 78.49 58.50 77.32 C 57.36 75.78 58.81 74.05 60.40 75.39 Z" fill="#fedd00" />
<path d="M 69.17 78.36 C 70.84 78.68 70.59 80.73 68.97 80.90 C 68.59 80.04 68.66 79.19 69.17 78.36 Z" fill="#d92029" />
<path d="M 110.09 79.10 C 110.85 81.70 111.53 84.33 112.47 86.88 C 113.08 84.42 113.67 81.97 114.57 79.60 C 114.59 82.62 114.53 85.65 114.60 88.67 C 112.93 87.52 111.12 86.81 110.33 84.80 C 109.47 83.00 109.92 81.00 110.09 79.10 Z" fill="#000000" />
<path d="M 104.78 80.55 C 105.03 82.48 105.21 84.41 105.34 86.35 C 106.09 84.33 106.83 82.31 107.74 80.35 C 107.59 83.22 107.26 86.07 106.89 88.92 C 104.51 86.37 102.59 84.03 104.78 80.55 Z" fill="#000000" />
<path d="M 134.55 83.42 C 136.95 85.41 137.55 88.09 138.17 90.99 C 138.78 94.15 140.09 97.10 141.13 100.22 L 140.10 101.14 C 139.77 101.34 139.43 101.53 139.08 101.72 C 139.86 99.43 136.77 99.91 138.23 101.83 L 136.64 101.37 C 137.49 100.11 137.79 98.92 137.54 97.81 C 136.15 97.23 135.92 100.38 136.14 101.20 L 135.46 100.97 C 133.17 95.53 138.77 90.25 134.90 86.08 C 132.92 83.31 128.13 83.29 126.60 86.54 C 123.95 91.16 125.22 95.78 126.56 100.56 C 129.16 109.05 135.71 114.10 137.34 122.96 C 138.46 127.65 136.94 133.12 132.65 135.69 C 129.30 137.62 126.06 136.82 122.47 136.31 C 122.35 134.80 122.22 133.29 122.10 131.78 C 125.10 132.42 128.13 133.46 131.08 132.02 C 132.81 130.95 134.28 129.17 134.40 127.06 C 135.01 122.00 132.08 117.51 129.80 113.25 C 126.00 106.42 122.15 100.15 122.53 92.00 C 122.45 88.17 124.03 84.36 127.47 82.45 C 129.64 81.83 132.79 81.76 134.55 83.42 Z" fill="#fedd00" />
<path d="M 90.05 95.23 C 91.30 95.97 92.56 96.72 93.83 97.45 L 94.07 94.06 C 95.62 96.47 97.56 98.61 99.05 101.05 C 99.94 103.54 98.67 105.48 96.94 107.16 C 94.86 107.86 93.14 106.42 91.29 105.65 C 86.76 106.91 83.74 107.55 79.36 105.15 C 83.73 104.87 87.89 105.10 92.02 103.41 C 87.82 103.60 82.72 102.85 78.86 104.74 C 77.68 104.04 76.51 103.34 75.34 102.64 C 78.42 99.78 81.92 99.42 85.82 98.49 C 84.04 98.19 82.26 97.90 80.47 97.63 C 81.36 96.96 82.26 96.30 83.16 95.65 C 85.45 95.33 87.74 95.30 90.05 95.23 Z" fill="#fedd00" />
<path d="M 99.59 97.56 C 102.63 101.27 106.65 102.50 110.84 104.39 C 110.89 109.19 110.53 114.84 112.75 119.24 C 114.66 123.44 118.51 126.40 120.47 130.46 C 121.74 134.04 119.70 138.89 121.52 142.49 C 123.02 146.49 126.07 148.99 129.73 150.96 C 129.53 151.85 129.33 152.74 129.13 153.63 C 127.73 151.76 126.33 150.34 124.35 149.06 C 125.49 150.92 127.32 152.80 127.82 154.95 C 128.44 157.56 129.31 159.98 130.35 162.45 C 129.41 162.71 128.47 162.97 127.53 163.23 L 131.26 164.09 C 130.06 164.60 128.85 165.10 127.65 165.60 C 126.32 162.92 125.46 163.36 122.83 162.91 C 122.53 159.76 123.58 155.53 120.54 153.48 C 116.00 150.54 110.51 150.03 106.56 145.45 C 102.03 139.96 103.05 130.73 99.10 124.94 C 96.93 121.68 93.53 119.02 90.89 116.08 C 88.59 113.59 86.77 110.79 85.00 107.91 C 87.03 107.58 89.06 107.25 91.09 106.92 C 92.63 107.48 94.21 108.21 95.85 108.47 C 97.87 108.23 99.35 105.66 100.61 104.29 C 101.00 105.70 101.37 107.11 101.75 108.51 C 99.99 109.27 98.32 110.18 96.67 111.13 C 98.67 110.81 100.67 110.45 102.66 110.06 L 99.09 112.45 C 99.58 113.38 100.08 114.31 100.57 115.23 C 102.03 114.71 103.49 114.17 104.94 113.62 C 104.61 114.48 104.26 115.33 103.90 116.18 C 105.19 117.13 106.47 118.10 107.76 119.05 C 106.89 116.98 105.97 114.92 105.10 112.85 C 104.44 111.22 103.72 109.61 103.01 108.00 C 101.93 105.61 100.89 103.25 100.04 100.77 C 99.88 99.70 99.73 98.63 99.59 97.56 Z" fill="#fedd00" />
<path d="M 137.54 97.81 C 137.79 98.92 137.49 100.11 136.64 101.37 L 136.14 101.20 C 135.92 100.38 136.15 97.23 137.54 97.81 Z" fill="#000000" />
<path d="M 139.08 101.72 L 138.23 101.83 C 136.77 99.91 139.86 99.43 139.08 101.72 Z" fill="#000000" />
<path d="M 135.46 100.97 L 136.14 101.20 L 136.64 101.37 L 138.23 101.83 L 139.08 101.72 C 139.43 101.53 139.77 101.34 140.10 101.14 C 140.85 104.04 142.07 106.71 143.04 109.53 C 142.02 108.16 141.04 106.76 140.07 105.35 L 139.22 107.37 L 138.79 105.82 C 136.45 104.98 136.33 103.01 135.46 100.97 Z" fill="#fedd00" />
<path d="M 112.49 102.20 C 114.17 102.06 115.70 102.80 116.82 104.01 C 114.97 104.41 113.14 104.27 112.49 102.20 Z" fill="#fedd00" />
<path d="M 77.06 105.43 C 79.37 106.04 81.57 107.12 83.77 108.02 C 86.50 112.57 89.57 116.43 93.30 120.19 C 80.64 133.30 67.99 146.44 55.30 159.53 C 50.68 153.40 46.53 146.99 43.11 140.12 C 52.34 130.68 61.52 121.19 70.69 111.70 C 72.76 109.60 74.70 107.20 77.06 105.43 Z" fill="#d92029" />
<path d="M 101.75 108.51 L 101.93 108.43 C 102.29 108.29 102.65 108.14 103.01 108.00 C 103.72 109.61 104.44 111.22 105.10 112.85 L 104.94 113.62 C 103.49 114.17 102.03 114.71 100.57 115.23 C 100.08 114.31 99.58 113.38 99.09 112.45 L 102.66 110.06 C 100.67 110.45 98.67 110.81 96.67 111.13 C 98.32 110.18 99.99 109.27 101.75 108.51 Z" fill="#000000" />
<path d="M 105.10 112.85 C 105.97 114.92 106.89 116.98 107.76 119.05 C 106.47 118.10 105.19 117.13 103.90 116.18 C 104.26 115.33 104.61 114.48 104.94 113.62 L 105.10 112.85 Z" fill="#000000" />
<path d="M 129.58 114.75 C 131.39 118.32 133.84 122.95 133.29 127.04 C 132.73 130.96 128.24 132.85 124.77 131.41 C 121.81 130.45 120.50 128.15 118.56 125.92 C 122.12 122.14 125.65 118.13 129.58 114.75 Z" fill="#d92029" />
<path d="M 99.69 128.42 C 100.89 131.52 101.18 133.02 100.35 136.29 C 99.65 137.62 102.02 138.66 102.62 139.61 C 98.14 141.28 94.11 142.51 89.27 141.49 C 90.38 138.84 92.37 137.14 94.35 135.19 C 92.77 136.01 90.31 136.77 89.45 138.43 C 89.00 139.48 88.63 141.58 89.69 142.36 C 91.49 142.96 93.58 142.84 95.46 142.96 C 94.24 144.24 92.85 145.57 91.93 147.09 C 91.52 149.48 91.74 152.00 91.68 154.42 C 90.97 152.93 90.27 151.44 89.58 149.93 C 89.94 153.90 89.25 156.82 87.86 160.43 C 86.18 161.11 84.56 161.85 83.01 162.80 C 84.42 162.44 85.82 162.06 87.21 161.65 C 87.77 162.63 88.32 163.61 88.87 164.59 C 86.26 166.01 83.45 166.41 80.59 167.06 L 81.68 164.90 C 80.14 165.32 78.61 165.76 77.08 166.21 C 76.07 165.52 75.05 164.84 74.03 164.16 C 75.26 163.16 76.48 162.16 77.69 161.13 L 74.11 162.08 L 74.37 160.11 L 69.54 161.34 L 73.06 158.98 C 75.30 158.77 77.62 160.42 79.83 160.83 C 80.80 160.43 81.75 159.98 82.68 159.49 C 82.68 155.74 82.58 152.00 82.40 148.25 L 84.81 149.80 C 81.56 145.07 80.25 137.88 84.17 133.16 C 87.82 128.87 94.55 128.85 99.69 128.42 Z" fill="#fedd00" />
<path d="M 102.95 141.98 C 104.75 144.64 106.22 147.18 109.00 148.96 C 112.83 151.33 117.20 152.76 121.17 154.92 C 110.35 166.56 99.25 177.97 88.15 189.35 C 81.87 185.19 76.01 180.72 70.33 175.78 C 72.93 173.10 75.51 170.41 78.11 167.74 C 81.23 167.58 84.73 167.73 87.70 166.69 C 90.41 165.10 89.19 163.16 88.84 160.69 C 91.58 152.61 97.26 147.90 102.95 141.98 Z" fill="#d92029" />
<path d="M 73.78 161.63 C 73.82 162.52 73.71 163.42 73.44 164.34 C 72.23 165.22 70.53 165.04 71.05 163.16 C 71.61 162.05 72.52 161.53 73.78 161.63 Z" fill="#fedd00" />
<path d="M 117.14 163.51 C 120.08 163.58 123.01 164.09 125.96 164.24 C 126.47 164.96 126.98 165.69 127.49 166.41 C 130.14 165.63 131.11 165.98 133.72 167.03 C 130.71 168.94 127.44 170.20 124.08 171.33 L 125.23 168.64 C 123.54 169.16 121.85 169.67 120.16 170.18 L 120.15 168.98 C 121.32 168.69 122.48 168.39 123.65 168.09 C 120.63 167.04 118.65 168.55 115.88 169.59 C 116.10 168.32 116.53 167.20 117.16 166.24 C 118.65 165.76 120.16 165.33 121.68 164.95 C 118.76 164.57 116.60 165.24 113.92 166.32 C 114.94 165.41 115.89 164.11 117.14 163.51 Z" fill="#fedd00" />
<path d="M 72.24 166.25 C 72.77 166.75 72.77 166.75 72.24 166.25 Z" fill="#d92029" />
<path d="M 114.88 167.40 C 116.11 168.39 114.76 170.84 113.74 168.94 C 113.63 167.76 114.02 167.24 114.88 167.40 Z" fill="#fedd00" />
<path d="M 117.03 170.16 L 117.87 170.13 L 118.34 170.83 L 117.97 171.56 L 117.14 171.59 L 116.66 170.89 L 117.03 170.16 Z" fill="#fedd00" />
</svg>