<?xml version="1.0" encoding="UTF-8" standalone="no"?>
<!DOCTYPE svg PUBLIC "-//W3C//DTD SVG 1.1//EN" "http://www.w3.org/Graphics/SVG/1.1/DTD/svg11.dtd">
<svg xmlns="http://www.w3.org/2000/svg" version="1.1" viewBox="0 0 200 200" width="200.0pt" height="200.0pt">
<path d="M 0.00 0.00 L 200.00 0.00 L 200.00 200.00 L 100.20 200.00 C 124.38 190.73 145.85 173.67 159.83 151.80 C 172.60 131.99 178.81 108.49 178.92 85.00 C 178.98 71.50 178.89 58.00 178.96 44.50 C 170.26 46.51 160.94 48.84 152.22 45.62 C 146.97 43.74 143.39 39.28 142.09 33.92 C 139.54 25.56 141.66 16.00 143.98 7.79 C 134.79 3.37 124.09 2.02 114.04 0.93 C 100.65 -0.55 87.22 0.34 73.95 2.51 C 67.74 3.54 61.66 5.08 55.96 7.81 C 58.83 16.28 61.12 26.73 58.27 35.47 C 56.57 40.76 52.39 44.52 47.05 45.94 C 38.32 48.46 29.67 46.31 21.04 44.56 C 21.11 59.71 20.99 74.86 21.10 90.00 C 22.19 111.66 28.08 132.85 39.79 151.22 C 53.77 173.36 75.42 190.67 99.84 200.00 L 0.00 200.00 L 0.00 0.00 Z" fill="#ffffff" />
<path d="M 114.04 0.93 C 124.09 2.02 134.79 3.37 143.98 7.79 C 141.66 16.00 139.54 25.56 142.09 33.92 C 143.39 39.28 146.97 43.74 152.22 45.62 C 160.94 48.84 170.26 46.51 178.96 44.50 C 178.89 58.00 178.98 71.50 178.92 85.00 C 178.81 108.49 172.60 131.99 159.83 151.80 C 145.85 173.67 124.38 190.73 100.20 200.00 L 99.84 200.00 C 75.42 190.67 53.77 173.36 39.79 151.22 C 28.08 132.85 22.19 111.66 21.10 90.00 C 20.99 74.86 21.11 59.71 21.04 44.56 C 29.67 46.31 38.32 48.46 47.05 45.94 C 52.39 44.52 56.57 40.76 58.27 35.47 C 61.12 26.73 58.83 16.28 55.96 7.81 C 61.66 5.08 67.74 3.54 73.95 2.51 C 87.22 0.34 100.65 -0.55 114.04 0.93 Z" fill="#000000" />
<path d="M 86.99 4.11 C 93.12 3.99 98.93 2.99 105.01 3.68 C 116.66 4.24 128.89 5.52 139.93 9.48 C 137.83 18.71 136.33 28.10 139.68 37.26 C 141.71 42.70 145.72 46.77 151.17 48.78 C 159.27 51.63 167.56 50.39 175.74 48.65 C 175.52 64.75 176.29 80.97 175.04 97.03 C 173.37 113.40 168.79 129.35 160.78 143.76 C 147.61 167.69 125.37 186.55 100.01 196.49 C 73.06 185.97 49.63 165.26 36.81 139.21 C 28.46 122.35 24.51 103.79 24.31 85.03 C 24.25 72.89 24.31 60.75 24.28 48.61 C 32.04 50.22 41.15 51.25 48.83 48.87 C 54.59 47.05 59.12 42.86 61.17 37.16 C 64.34 28.49 62.76 18.20 59.96 9.64 C 68.56 6.14 77.86 5.23 86.99 4.11 Z" fill="#fefefe" />
<path d="M 100.00 9.02 C 111.29 9.25 122.43 10.05 132.91 14.57 C 131.30 22.04 131.37 30.09 133.51 37.45 C 135.45 44.15 139.81 49.95 146.29 52.81 C 154.42 56.53 162.18 55.43 170.77 55.00 C 170.91 65.00 170.80 75.00 170.83 85.00 C 170.88 106.44 165.48 127.78 153.95 145.96 C 141.33 165.97 121.98 181.30 100.02 189.93 C 84.92 184.04 71.02 174.91 59.72 163.27 C 46.84 150.18 37.69 133.72 33.05 115.98 C 30.22 104.94 28.82 93.40 29.09 82.00 C 29.14 73.00 28.99 63.99 29.18 55.00 C 36.67 55.34 43.65 56.35 50.96 53.88 C 56.81 52.01 61.72 47.98 64.47 42.45 C 68.71 34.16 68.68 23.55 67.11 14.57 C 77.50 10.04 88.79 9.24 100.00 9.02 Z" fill="#000000" />
<path d="M 99.72 13.94 C 99.91 19.01 99.91 24.10 99.92 29.17 C 102.92 31.91 106.31 34.51 108.82 37.65 C 105.81 36.54 103.84 34.31 101.57 32.15 C 102.34 34.09 103.25 35.90 103.48 38.00 C 102.22 36.25 101.05 34.42 99.98 32.54 L 100.91 37.09 L 99.66 37.42 C 99.46 36.25 99.28 35.07 99.09 33.90 C 98.29 35.25 97.42 36.55 96.47 37.79 L 97.70 33.04 C 96.27 34.91 95.21 36.71 92.95 37.64 C 94.71 34.68 96.79 32.15 98.85 29.40 C 98.80 26.30 98.75 23.20 98.54 20.11 C 96.17 21.14 94.19 22.63 92.11 24.14 C 89.69 25.89 86.99 25.73 84.13 26.11 C 87.46 23.94 89.66 21.08 92.00 17.96 C 93.96 15.28 96.71 14.76 99.72 13.94 Z" fill="#fefefe" />
<path d="M 84.44 38.29 C 94.62 38.43 104.80 38.33 114.98 38.34 C 116.32 42.09 115.97 45.81 115.60 49.68 C 110.56 49.30 106.09 47.29 101.00 47.28 C 95.86 47.06 90.95 48.27 86.19 50.12 C 86.81 45.79 86.59 42.17 84.44 38.29 Z" fill="#fefefe" />
<path d="M 87.70 40.10 C 89.31 39.04 89.76 41.81 88.87 42.71 C 87.32 43.64 86.81 40.98 87.70 40.10 Z" fill="#868686" />
<path d="M 93.67 40.10 C 95.30 39.05 95.75 41.77 94.85 42.68 C 93.30 43.61 92.77 40.99 93.67 40.10 Z" fill="#808080" />
<path d="M 100.91 40.13 C 101.75 41.09 101.06 43.67 99.54 42.59 C 98.62 41.58 99.37 39.14 100.91 40.13 Z" fill="#797979" />
<path d="M 105.28 40.07 C 107.04 39.02 107.90 41.46 106.78 42.63 C 105.12 43.64 104.16 41.18 105.28 40.07 Z" fill="#909090" />
<path d="M 111.15 40.08 C 112.87 39.03 113.84 41.43 112.68 42.61 C 111.00 43.69 110.10 41.22 111.15 40.08 Z" fill="#909090" />
<path d="M 133.91 42.06 C 136.53 46.76 139.81 50.82 144.71 53.27 C 152.86 57.41 161.14 56.85 169.95 56.08 C 169.80 57.00 169.60 57.91 169.36 58.80 C 160.54 66.68 151.43 74.34 142.52 82.14 C 142.12 79.15 141.48 76.25 140.75 73.33 C 137.39 73.37 134.03 73.37 130.67 73.38 C 134.63 65.86 136.15 57.48 132.77 49.43 C 130.32 49.47 127.87 49.47 125.42 49.47 C 128.22 46.96 131.04 44.49 133.91 42.06 Z" fill="#fefefe" />
<path d="M 90.18 50.58 C 104.15 50.64 118.13 50.64 132.11 50.58 C 134.94 58.57 133.27 66.57 129.20 73.76 C 124.64 72.21 121.24 69.22 116.23 68.81 C 110.84 67.57 105.92 68.96 100.54 69.10 C 100.63 69.52 100.72 69.94 100.80 70.37 C 107.25 69.39 112.86 69.06 119.31 70.33 C 119.75 71.51 120.18 72.69 120.61 73.87 C 119.75 72.82 118.89 71.76 118.05 70.69 C 117.76 72.70 116.69 73.65 114.83 73.55 C 114.31 72.48 113.83 71.64 112.96 70.83 C 112.01 73.27 112.08 73.22 109.55 73.57 C 109.08 72.14 108.56 71.33 108.00 71.13 C 107.49 71.23 107.01 71.98 106.55 73.38 C 105.87 73.38 105.19 73.38 104.52 73.38 C 104.02 72.53 103.55 71.67 103.12 70.78 C 102.53 71.70 101.90 72.57 101.22 73.40 C 99.56 73.71 98.57 73.01 98.24 71.31 L 101.35 70.71 C 100.13 70.38 98.92 70.09 97.69 69.84 C 96.61 70.87 96.63 72.07 96.38 73.45 L 93.21 73.26 C 94.12 72.52 95.20 71.88 95.96 70.98 C 94.19 71.23 92.44 71.62 90.71 72.16 C 95.03 65.68 93.24 57.20 90.18 50.58 Z" fill="#fefefe" />
<path d="M 95.89 53.01 L 96.12 54.97 C 95.39 57.22 93.53 55.68 93.83 53.95 C 94.19 53.01 94.87 52.70 95.89 53.01 Z" fill="#3d3d3d" />
<path d="M 100.02 53.01 C 102.90 52.03 102.51 57.07 100.13 55.85 C 99.62 55.03 99.58 54.08 100.02 53.01 Z" fill="#494949" />
<path d="M 105.33 53.23 C 106.19 53.08 107.05 52.95 107.92 52.84 C 107.64 53.97 107.32 55.08 106.97 56.19 C 104.81 55.88 105.54 54.92 105.33 53.23 Z" fill="#8d8d8d" />
<path d="M 112.88 53.11 C 113.44 54.03 113.44 54.94 112.87 55.84 C 110.40 57.23 110.28 51.58 112.88 53.11 Z" fill="#484848" />
<path d="M 117.08 53.01 C 119.00 52.40 119.75 54.40 118.66 55.77 C 116.86 57.01 116.49 54.15 117.08 53.01 Z" fill="#373737" />
<path d="M 122.90 53.13 L 125.22 52.75 C 124.69 54.87 124.95 55.68 122.71 56.56 C 122.76 55.42 122.78 54.27 122.90 53.13 Z" fill="#888888" />
<path d="M 127.79 52.79 L 130.08 53.12 C 130.25 54.26 130.23 55.42 130.24 56.56 C 128.11 55.68 128.31 54.81 127.79 52.79 Z" fill="#8a8a8a" />
<path d="M 74.86 54.21 C 80.10 54.34 85.35 54.26 90.60 54.30 C 91.26 58.27 92.38 61.99 92.06 66.08 C 87.80 66.08 83.55 66.08 79.30 66.08 C 78.56 61.66 77.34 57.96 74.86 54.21 Z" fill="#fefefe" />
<path d="M 80.17 56.13 C 82.01 55.82 82.37 58.82 80.86 59.48 C 78.91 59.82 78.63 56.82 80.17 56.13 Z" fill="#8e8e8e" />
<path d="M 85.32 56.53 C 86.99 55.49 87.87 57.90 86.84 59.04 C 85.08 60.10 84.10 57.73 85.32 56.53 Z" fill="#656565" />
<path d="M 40.70 62.96 C 44.95 63.27 49.93 62.48 53.94 64.02 C 56.26 64.86 57.01 66.74 58.39 68.62 C 54.21 67.32 50.02 66.15 45.63 65.81 C 45.63 70.15 45.61 74.49 45.64 78.82 C 49.92 77.69 51.71 76.63 53.96 72.69 C 54.98 73.29 55.91 73.98 56.74 74.76 C 56.08 77.01 54.59 78.49 52.94 80.05 C 54.22 81.34 55.83 82.71 56.61 84.36 C 57.63 86.61 57.47 89.51 58.02 91.91 C 60.17 93.40 62.17 93.77 62.78 96.71 C 59.99 96.45 57.56 96.73 55.69 94.28 C 53.29 91.31 55.12 87.04 52.74 84.27 C 50.83 82.38 48.15 82.22 45.65 81.74 C 45.63 83.46 45.59 85.17 45.55 86.88 C 44.49 86.27 43.46 85.62 42.44 84.93 C 41.99 79.05 42.53 73.07 42.24 67.16 C 42.17 65.56 41.37 64.38 40.70 62.96 Z" fill="#fefefe" />
<path d="M 66.08 67.08 C 74.72 67.24 83.37 67.10 92.01 67.16 C 91.02 69.09 90.03 71.01 89.01 72.92 C 88.18 72.31 87.51 71.60 86.99 70.77 L 85.90 73.29 C 83.01 73.92 83.36 72.58 82.01 70.68 C 81.61 71.55 81.20 72.41 80.77 73.26 C 77.93 74.02 78.34 72.47 77.00 70.65 C 76.48 71.59 75.93 72.51 75.35 73.42 C 73.69 73.79 72.56 72.87 71.97 70.65 C 71.37 71.81 70.99 73.03 70.62 74.27 C 71.32 74.43 72.03 74.59 72.73 74.74 C 79.20 85.92 81.66 98.97 76.85 111.29 C 70.91 112.50 65.17 114.19 59.74 116.92 C 64.40 110.67 67.89 103.70 69.26 95.98 C 71.34 86.24 69.59 76.26 66.08 67.08 Z" fill="#fefefe" />
<path d="M 46.73 67.90 C 49.22 67.95 52.06 67.73 54.44 68.51 C 57.49 69.43 60.26 71.67 63.09 73.23 C 61.82 74.54 60.56 75.86 59.33 77.21 C 59.06 76.29 58.77 75.38 58.44 74.48 C 55.13 71.24 51.09 71.10 46.70 71.27 C 46.71 70.15 46.72 69.02 46.73 67.90 Z" fill="#fefefe" />
<path d="M 41.17 69.99 C 41.17 71.31 41.16 72.64 41.15 73.97 C 39.11 76.74 37.46 79.34 39.22 82.83 C 42.05 87.99 47.70 88.78 53.09 88.25 C 53.10 89.37 53.10 90.49 53.11 91.61 C 47.94 92.27 42.41 91.16 38.59 87.43 C 35.84 84.75 34.19 80.47 35.71 76.75 C 36.66 73.71 38.83 71.96 41.17 69.99 Z" fill="#fefefe" />
<path d="M 124.40 72.59 C 124.46 73.26 124.51 73.93 124.56 74.61 C 129.65 74.40 134.74 74.53 139.83 74.46 C 142.07 82.95 143.22 91.30 140.86 99.92 C 138.60 109.40 132.15 117.15 123.78 121.94 C 121.54 118.07 118.03 112.08 113.05 111.70 C 104.38 111.91 95.39 115.89 87.80 119.84 C 86.17 120.65 84.46 121.04 82.72 121.52 C 81.07 125.00 76.35 125.83 74.25 128.86 C 74.74 132.67 77.53 134.12 80.55 135.80 C 79.50 136.67 78.46 137.55 77.42 138.43 C 74.11 137.20 70.99 137.70 67.55 137.62 C 70.52 140.27 72.79 139.38 76.48 139.08 C 74.73 140.71 72.97 142.31 71.19 143.90 C 67.84 140.07 63.97 142.55 59.37 141.70 C 60.49 142.42 61.63 143.68 62.98 143.87 C 64.89 143.90 66.83 143.60 68.73 143.41 C 69.34 143.83 69.95 144.24 70.56 144.66 C 65.37 148.55 60.67 153.08 55.70 157.24 C 47.70 147.89 41.56 137.13 37.20 125.64 C 47.30 117.16 57.10 108.31 67.23 99.88 C 65.30 107.32 61.04 113.16 56.70 119.32 C 63.13 116.58 69.34 113.73 76.31 112.56 C 73.82 118.63 69.35 122.73 65.50 127.81 C 69.14 126.80 72.56 125.20 76.20 124.20 C 78.55 123.39 80.80 123.32 82.61 121.55 C 77.96 122.20 73.54 123.91 69.10 125.37 C 73.45 120.21 77.22 114.80 79.03 108.22 C 82.39 96.60 79.67 84.76 73.80 74.47 C 87.53 74.52 101.27 74.45 115.00 74.51 C 117.89 74.48 120.54 74.89 123.16 73.40 L 120.26 71.63 C 121.73 71.65 123.04 72.09 124.40 72.59 Z" fill="#fefefe" />
<path d="M 80.36 77.20 C 81.31 77.02 82.27 76.86 83.23 76.73 C 83.08 78.05 82.89 79.35 82.67 80.65 C 81.91 80.75 81.14 80.81 80.37 80.85 C 80.31 79.63 80.31 78.41 80.36 77.20 Z" fill="#646464" />
<path d="M 85.93 76.98 L 88.19 76.99 C 87.76 79.11 88.67 80.41 86.10 81.08 C 86.03 79.71 85.98 78.35 85.93 76.98 Z" fill="#2f2f2f" />
<path d="M 90.82 76.99 L 93.13 76.98 C 93.05 78.34 92.97 79.70 92.88 81.06 C 90.27 80.43 91.25 79.11 90.82 76.99 Z" fill="#282828" />
<path d="M 95.84 76.96 C 96.84 76.98 97.84 77.00 98.84 77.02 C 98.78 78.36 98.71 79.70 98.64 81.04 C 97.89 80.88 97.15 80.69 96.41 80.48 C 96.18 79.32 95.99 78.14 95.84 76.96 Z" fill="#676767" />
<path d="M 101.84 76.95 L 104.17 77.07 C 103.73 79.24 104.49 80.36 101.96 81.12 C 101.91 79.73 101.87 78.34 101.84 76.95 Z" fill="#3e3e3e" />
<path d="M 106.87 76.98 L 109.21 76.99 C 108.76 79.10 109.71 80.43 107.12 81.05 C 107.03 79.70 106.94 78.34 106.87 76.98 Z" fill="#252525" />
<path d="M 111.76 76.91 C 112.76 76.96 113.75 77.01 114.74 77.06 C 114.15 78.98 115.37 81.51 112.33 80.78 C 112.11 79.50 111.92 78.20 111.76 76.91 Z" fill="#6b6b6b" />
<path d="M 117.35 77.23 C 118.29 77.03 119.24 76.86 120.19 76.71 C 119.94 78.36 120.11 79.86 118.98 81.22 C 116.71 80.74 117.57 79.00 117.35 77.23 Z" fill="#737373" />
<path d="M 122.73 76.96 L 125.07 76.99 C 125.04 78.37 124.99 79.75 124.94 81.14 C 124.24 80.96 123.53 80.78 122.83 80.58 C 122.77 79.37 122.75 78.17 122.73 76.96 Z" fill="#656565" />
<path d="M 127.87 77.00 L 130.35 76.95 C 129.82 78.89 131.10 81.39 128.16 81.06 C 128.04 79.71 127.94 78.35 127.87 77.00 Z" fill="#707070" />
<path d="M 132.77 76.95 C 133.73 76.97 134.70 76.99 135.67 77.02 C 135.62 78.37 135.57 79.72 135.52 81.06 C 132.49 80.81 133.28 79.34 132.77 76.95 Z" fill="#6f6f6f" />
<path d="M 59.65 82.14 C 60.95 83.26 62.22 84.42 63.49 85.58 C 61.89 86.83 60.31 88.09 58.71 89.34 C 58.06 86.41 58.52 84.72 59.65 82.14 Z" fill="#c1c1c1" />
<path d="M 117.00 84.48 C 113.89 87.54 112.25 89.91 111.77 94.38 C 116.31 93.87 118.66 92.18 121.68 88.95 C 121.56 94.09 121.55 99.24 121.68 104.38 C 118.60 100.85 116.36 99.70 111.79 98.72 C 112.19 103.49 114.02 105.92 117.43 109.03 C 112.14 108.87 106.84 108.87 101.55 109.03 C 104.92 105.96 106.84 103.45 107.17 98.73 C 102.67 99.70 100.34 100.83 97.32 104.34 C 97.45 99.23 97.44 94.10 97.33 88.99 C 100.32 92.17 102.69 93.90 107.19 94.38 C 106.76 89.88 105.07 87.55 101.94 84.50 C 106.96 84.59 111.98 84.63 117.00 84.48 Z" fill="#d2404b" />
<path d="M 42.54 91.58 C 43.45 91.72 44.35 91.87 45.25 92.04 C 45.76 93.59 46.29 95.13 46.83 96.66 C 44.76 96.61 42.69 96.59 40.61 96.65 C 41.79 95.10 42.09 93.43 42.54 91.58 Z" fill="#fefefe" />
<path d="M 115.60 115.91 C 114.42 118.55 111.89 120.10 111.00 123.01 C 109.90 126.53 108.35 129.60 109.55 133.31 L 110.64 130.45 C 111.69 132.21 111.72 132.35 111.10 134.22 C 110.24 133.84 109.38 133.47 108.53 133.09 C 108.22 135.02 107.25 136.23 105.62 136.73 C 106.47 131.22 107.56 125.77 109.53 120.53 C 110.51 118.38 109.20 116.64 109.07 114.22 C 111.51 112.34 115.12 112.08 115.60 115.91 Z" fill="#f3b567" />
<path d="M 106.88 114.65 C 107.20 115.41 107.51 116.17 107.83 116.93 C 106.01 118.20 104.39 118.91 102.23 119.44 C 92.92 122.06 85.36 126.85 76.98 131.09 C 77.13 129.32 77.07 128.66 78.62 127.67 C 85.31 122.83 92.71 119.33 100.38 116.35 C 102.49 115.55 104.67 115.07 106.88 114.65 Z" fill="#f3b567" />
<path d="M 117.90 116.51 C 119.05 118.22 122.60 121.53 120.60 123.54 C 119.68 123.89 118.72 123.81 117.71 123.29 C 117.26 123.35 116.81 123.40 116.35 123.46 C 116.95 124.65 117.35 125.89 117.54 127.15 C 116.06 127.44 114.98 128.02 113.75 128.83 L 115.08 130.04 L 112.81 130.95 C 110.88 130.39 111.24 128.91 110.80 127.31 C 112.02 127.10 113.25 126.88 114.46 126.63 C 113.66 125.80 112.89 124.94 112.15 124.05 C 112.64 123.09 113.17 122.15 113.75 121.24 L 115.40 122.92 C 115.94 120.44 115.69 118.25 117.90 116.51 Z" fill="#f3b567" />
<path d="M 106.15 120.41 C 107.41 121.65 106.53 123.47 105.04 124.01 C 100.82 125.52 96.46 126.47 92.38 128.40 C 88.50 129.95 84.96 132.32 81.04 133.74 C 80.32 133.26 79.62 132.76 78.94 132.23 C 84.97 127.84 92.01 124.71 98.87 121.83 C 101.00 121.16 103.98 119.62 106.15 120.41 Z" fill="#f3b567" />
<path d="M 105.80 126.09 C 105.71 127.17 105.56 128.24 105.36 129.31 C 103.05 130.58 100.12 130.78 97.62 131.61 C 94.36 132.50 91.56 134.22 88.46 135.44 C 86.65 136.30 85.22 135.28 83.42 134.89 C 86.94 132.34 90.78 130.37 94.79 128.72 C 98.42 127.31 101.84 125.96 105.80 126.09 Z" fill="#f3b567" />
<path d="M 104.43 131.65 C 104.09 133.42 104.65 134.95 102.94 136.07 C 98.88 136.82 94.52 136.48 90.43 136.12 C 94.81 133.71 99.42 132.03 104.43 131.65 Z" fill="#f3b567" />
<path d="M 102.88 138.14 C 104.50 138.20 104.70 139.74 105.44 140.87 C 101.47 141.06 97.72 142.25 93.72 142.13 L 93.82 141.26 C 96.87 140.48 99.78 138.48 102.88 138.14 Z" fill="#dddddd" />
<path d="M 113.01 137.93 C 116.22 138.86 118.93 140.59 122.40 140.77 C 117.99 142.52 114.34 140.63 109.59 140.67 C 110.55 139.62 111.33 137.77 113.01 137.93 Z" fill="#fefefe" />
<path d="M 80.47 139.11 C 84.39 139.42 87.74 137.76 90.78 140.87 C 87.95 141.04 85.13 141.10 82.29 140.95 C 81.68 140.34 81.07 139.73 80.47 139.11 Z" fill="#e0e0e0" />
<path d="M 139.32 138.97 C 136.66 142.38 132.23 140.70 128.46 140.86 C 131.63 137.65 135.23 139.29 139.32 138.97 Z" fill="#e2e2e2" />
<path d="M 75.48 143.70 C 80.14 144.36 83.66 142.21 87.51 145.62 C 83.46 145.26 78.24 147.44 75.48 143.70 Z" fill="#fefefe" />
<path d="M 111.55 143.74 C 114.25 143.72 116.99 144.61 119.67 144.91 C 118.78 145.52 117.91 146.42 116.85 146.71 C 114.10 146.57 111.36 145.84 108.63 145.43 C 109.58 144.84 110.54 144.21 111.55 143.74 Z" fill="#fefefe" />
<path d="M 127.95 143.33 C 130.52 143.75 132.72 144.07 135.28 143.33 C 134.53 144.22 133.78 145.12 133.04 146.02 C 129.79 146.01 126.54 146.02 123.29 145.87 C 124.65 144.78 125.95 142.85 127.95 143.33 Z" fill="#bababa" />
<path d="M 99.88 144.24 C 100.93 144.68 101.90 145.35 102.86 145.94 C 98.68 145.94 93.95 148.38 90.53 145.48 C 93.63 145.10 96.76 144.30 99.88 144.24 Z" fill="#fefefe" />
<path d="M 85.30 152.15 C 87.65 152.24 90.01 152.23 92.36 152.18 C 92.20 153.38 91.97 154.56 91.67 155.74 C 90.98 156.52 90.30 157.30 89.62 158.08 C 88.49 155.73 87.29 153.86 85.30 152.15 Z" fill="#fefefe" />
<path d="M 109.97 152.17 C 112.38 152.23 114.77 152.22 117.17 152.11 C 113.24 155.30 112.01 160.44 109.72 165.01 C 108.55 165.00 107.37 164.99 106.20 164.98 C 107.82 161.39 109.72 157.89 111.09 154.20 C 110.73 153.52 110.35 152.84 109.97 152.17 Z" fill="#fefefe" />
<path d="M 101.00 153.44 C 104.09 153.26 106.67 154.40 109.40 155.66 C 108.88 156.69 108.36 157.73 107.84 158.77 C 103.76 156.13 98.95 156.07 95.07 159.15 C 89.41 163.35 89.91 172.44 95.73 176.24 C 97.74 177.48 98.37 179.46 99.37 181.48 C 96.93 180.76 94.61 180.05 92.67 178.33 C 89.02 175.27 87.64 170.62 87.76 165.98 C 88.06 159.21 94.31 153.55 101.00 153.44 Z" fill="#fefefe" />
<path d="M 94.30 160.76 C 96.84 165.59 98.73 170.64 101.35 175.43 C 102.58 172.62 103.89 169.84 105.24 167.09 L 107.91 168.90 C 105.66 173.61 103.44 178.33 101.32 183.10 C 98.48 176.87 95.05 170.72 92.71 164.30 C 93.19 163.10 93.72 161.92 94.30 160.76 Z" fill="#fefefe" />
<path d="M 105.40 165.95 C 108.17 166.07 110.93 166.09 113.69 166.09 C 113.25 166.66 112.80 167.23 112.36 167.80 C 112.36 172.49 112.35 177.18 112.38 181.87 C 109.26 181.89 106.14 181.89 103.02 181.89 C 103.56 180.76 104.11 179.62 104.65 178.49 C 106.00 178.22 107.32 177.99 108.63 177.58 C 109.25 174.68 109.18 171.34 108.74 168.42 C 107.72 167.48 106.56 166.75 105.40 165.95 Z" fill="#fefefe" />
</svg>