<?xml version="1.0" encoding="UTF-8" standalone="no"?>
<!DOCTYPE svg PUBLIC "-//W3C//DTD SVG 1.1//EN" "http://www.w3.org/Graphics/SVG/1.1/DTD/svg11.dtd">
<svg xmlns="http://www.w3.org/2000/svg" version="1.1" viewBox="0 0 200 200" width="200.0pt" height="200.0pt">
<path d="M 0.00 0.00 L 18.24 0.00 C 18.24 24.67 18.25 49.33 18.24 74.00 C 18.24 80.33 18.17 86.76 18.87 93.05 C 21.01 109.44 26.15 125.38 34.34 139.75 C 46.31 160.94 64.58 178.85 85.02 191.88 C 89.57 194.84 94.43 197.20 99.05 200.00 L 0.00 200.00 L 0.00 0.00 Z" fill="#ffffff" />
<path d="M 18.24 0.00 L 181.61 0.00 C 181.91 4.97 181.68 10.02 181.64 15.00 C 181.66 35.00 181.50 54.99 181.46 75.00 C 181.56 85.75 180.65 96.36 177.92 106.79 C 172.83 129.13 160.84 149.60 145.33 166.31 C 132.43 180.09 117.16 191.61 100.24 200.00 L 99.05 200.00 C 94.43 197.20 89.57 194.84 85.02 191.88 C 64.58 178.85 46.31 160.94 34.34 139.75 C 26.15 125.38 21.01 109.44 18.87 93.05 C 18.17 86.76 18.24 80.33 18.24 74.00 C 18.25 49.33 18.24 24.67 18.24 0.00 Z" fill="#000000" />
<path d="M 181.61 0.00 L 200.00 0.00 L 200.00 200.00 L 100.24 200.00 C 117.16 191.61 132.43 180.09 145.33 166.31 C 160.84 149.60 172.83 129.13 177.92 106.79 C 180.65 96.36 181.56 85.75 181.46 75.00 C 181.50 54.99 181.66 35.00 181.64 15.00 C 181.68 10.02 181.91 4.97 181.61 0.00 Z" fill="#ffffff" />
<path d="M 20.73 2.62 C 46.71 2.62 72.68 2.68 98.66 2.64 C 98.84 25.25 98.69 47.88 98.74 70.50 C 72.71 70.53 46.68 70.51 20.65 70.51 C 20.66 47.88 20.68 25.25 20.73 2.62 Z" fill="#ff0000" />
<path d="M 43.25 4.62 C 44.35 4.90 45.46 5.17 46.56 5.42 C 53.93 6.69 60.81 5.16 68.20 7.70 C 75.62 10.14 80.28 17.12 83.10 24.03 C 79.87 28.28 78.82 33.54 75.47 37.76 C 73.82 37.79 72.16 37.82 70.51 37.85 C 72.12 34.61 73.77 31.72 74.00 28.02 C 74.36 21.52 71.26 14.52 64.82 12.17 C 58.37 9.40 52.44 10.76 45.86 12.02 C 45.35 10.53 44.83 9.05 44.31 7.56 C 43.96 6.58 43.60 5.60 43.25 4.62 Z" fill="#ffffff" />
<path d="M 58.82 12.13 C 59.70 16.33 59.41 20.08 58.50 24.24 C 56.57 21.96 55.24 19.67 52.13 18.92 C 46.36 17.43 40.19 21.64 37.73 26.73 C 32.86 35.60 37.01 48.67 46.83 52.09 C 51.70 54.14 56.36 53.33 61.26 52.00 C 61.27 53.54 61.28 55.09 61.29 56.63 C 53.01 59.06 44.16 58.13 37.19 52.83 C 31.06 48.05 28.01 41.40 25.92 34.10 C 26.64 33.82 27.37 33.54 28.10 33.26 C 31.40 26.74 34.19 20.69 40.51 16.50 C 46.00 12.48 52.22 11.97 58.82 12.13 Z" fill="#ffffff" />
<path d="M 93.17 14.50 C 93.64 20.20 93.32 25.03 88.09 28.40 C 87.83 26.84 87.56 25.28 87.30 23.71 C 86.10 23.15 84.90 22.60 83.70 22.06 C 82.84 20.54 81.98 19.03 81.11 17.52 C 86.13 17.58 88.94 17.19 93.17 14.50 Z" fill="#ffffff" />
<path d="M 60.23 16.15 C 63.59 16.84 66.89 17.33 70.30 17.56 C 70.90 19.13 71.50 20.69 72.08 22.26 L 68.88 22.26 C 68.87 27.94 68.73 33.57 69.14 39.23 C 75.29 39.21 80.97 39.95 86.72 37.17 C 86.69 39.45 86.82 41.88 86.41 44.14 C 85.67 46.58 83.71 48.34 82.07 50.19 C 81.30 48.58 81.03 45.62 79.34 44.65 C 76.56 43.99 73.50 44.44 70.66 44.08 C 67.82 42.63 65.37 40.44 62.60 38.84 C 62.05 30.59 64.03 23.75 60.23 16.15 Z" fill="#ffffff" />
<path d="M 46.38 20.19 C 48.42 20.15 50.47 20.13 52.52 20.13 C 52.60 26.26 52.57 32.40 52.55 38.53 C 56.80 38.78 60.76 39.14 64.48 41.45 C 70.14 44.93 73.45 50.59 77.34 55.77 C 79.09 58.08 81.25 59.93 84.24 60.23 C 86.44 60.01 88.63 58.99 90.73 58.33 C 89.67 60.50 88.64 63.17 86.91 64.91 C 85.21 66.54 82.90 67.70 80.87 68.88 C 73.97 62.90 70.88 54.70 64.87 48.14 C 61.47 44.48 57.25 44.21 52.61 43.51 C 52.57 46.37 52.56 49.23 52.52 52.09 C 50.44 51.67 48.38 51.21 46.32 50.71 C 46.30 40.53 46.20 30.36 46.38 20.19 Z" fill="#ffffff" />
<path d="M 101.74 24.72 C 127.53 24.68 153.31 24.63 179.10 24.61 C 179.03 32.81 179.06 41.02 178.86 49.22 C 163.58 49.08 148.27 49.44 133.00 48.85 C 122.56 48.81 112.12 48.84 101.67 48.82 C 101.69 40.79 101.70 32.75 101.74 24.72 Z" fill="#ff0000" />
<path d="M 62.58 47.75 C 63.36 48.55 64.14 49.37 64.90 50.19 C 65.83 51.25 66.71 52.35 67.49 53.53 C 69.21 55.73 68.68 59.30 69.22 61.98 C 69.47 64.74 71.25 66.66 72.74 68.88 C 68.25 69.26 64.24 69.67 60.35 66.93 C 61.02 64.61 62.20 62.42 62.38 59.99 C 62.63 55.92 62.42 51.82 62.58 47.75 Z" fill="#ffffff" />
<path d="M 46.55 58.79 C 47.45 58.92 48.35 59.05 49.24 59.17 C 50.29 59.30 51.33 59.43 52.38 59.56 C 53.06 63.53 54.01 65.76 56.57 68.86 C 51.74 69.48 48.37 69.30 43.97 67.13 C 44.70 65.32 45.46 63.56 46.02 61.69 C 46.20 60.72 46.38 59.75 46.55 58.79 Z" fill="#ffffff" />
<path d="M 178.77 73.44 C 178.92 81.55 178.22 89.52 177.18 97.56 C 125.57 97.64 73.96 97.56 22.35 97.60 C 20.97 89.59 20.53 81.54 20.59 73.42 C 73.31 73.29 126.05 73.47 178.77 73.44 Z" fill="#ff0000" />
<path d="M 28.95 122.40 C 76.11 122.29 123.28 122.32 170.44 122.38 C 166.87 130.81 162.80 138.66 157.84 146.36 C 119.06 146.39 80.28 146.26 41.50 146.34 C 36.46 138.78 32.35 130.81 28.95 122.40 Z" fill="#ff0000" />
<path d="M 62.35 170.73 C 87.12 170.74 111.91 170.63 136.68 170.87 C 127.69 180.28 116.59 187.92 105.31 194.32 C 102.50 195.63 100.32 197.83 97.19 195.87 C 84.56 189.12 72.58 180.79 62.35 170.73 Z" fill="#ff0000" />
</svg>