<?xml version="1.0" encoding="UTF-8" standalone="no"?>
<!DOCTYPE svg PUBLIC "-//W3C//DTD SVG 1.1//EN" "http://www.w3.org/Graphics/SVG/1.1/DTD/svg11.dtd">
<svg xmlns="http://www.w3.org/2000/svg" version="1.1" viewBox="0 0 200 200" width="200.0pt" height="200.0pt">
<path d="M 0.00 0.00 L 99.71 0.00 C 87.85 8.18 73.59 15.19 59.01 16.04 C 49.59 16.15 40.64 13.19 32.72 8.18 C 23.38 18.83 14.01 29.46 4.68 40.13 C 12.54 46.18 19.35 53.10 22.49 62.76 C 24.47 68.43 24.59 74.28 24.07 80.22 C 22.37 93.31 15.96 103.88 13.13 117.07 C 11.61 125.80 10.49 134.33 13.11 142.97 C 16.34 153.01 23.65 161.76 32.20 167.78 C 36.25 170.69 40.69 172.62 45.20 174.67 C 63.47 183.12 81.76 191.53 100.02 199.99 C 117.75 191.74 135.52 183.58 153.27 175.38 C 158.55 172.92 163.67 170.86 168.40 167.36 C 178.10 160.38 185.94 149.98 188.11 138.05 C 189.30 128.12 187.65 118.54 184.69 109.08 C 181.87 100.01 177.38 90.90 176.20 81.51 C 174.98 73.28 175.91 64.37 179.96 56.99 C 183.67 50.00 189.20 45.01 195.26 40.11 C 185.99 29.43 176.61 18.84 167.28 8.21 C 159.65 13.02 151.06 15.90 142.00 16.07 C 126.15 15.40 113.38 8.41 100.25 0.26 L 100.69 0.11 L 101.02 0.00 L 200.00 0.00 L 200.00 200.00 L 0.00 200.00 L 0.00 0.00 Z" fill="#ffffff" />
<path d="M 99.71 0.00 L 101.02 0.00 L 100.69 0.11 L 100.25 0.26 C 113.38 8.41 126.15 15.40 142.00 16.07 C 151.06 15.90 159.65 13.02 167.28 8.21 C 176.61 18.84 185.99 29.43 195.26 40.11 C 189.20 45.01 183.67 50.00 179.96 56.99 C 175.91 64.37 174.98 73.28 176.20 81.51 C 177.38 90.90 181.87 100.01 184.69 109.08 C 187.65 118.54 189.30 128.12 188.11 138.05 C 185.94 149.98 178.10 160.38 168.40 167.36 C 163.67 170.86 158.55 172.92 153.27 175.38 C 135.52 183.58 117.75 191.74 100.02 199.99 C 81.76 191.53 63.47 183.12 45.20 174.67 C 40.69 172.62 36.25 170.69 32.20 167.78 C 23.65 161.76 16.34 153.01 13.11 142.97 C 10.49 134.33 11.61 125.80 13.13 117.07 C 15.96 103.88 22.37 93.31 24.07 80.22 C 24.59 74.28 24.47 68.43 22.49 62.76 C 19.35 53.10 12.54 46.18 4.68 40.13 C 14.01 29.46 23.38 18.83 32.72 8.18 C 40.64 13.19 49.59 16.15 59.01 16.04 C 73.59 15.19 87.85 8.18 99.71 0.00 Z" fill="#000000" />
<path d="M 100.01 8.18 C 103.51 9.88 106.70 12.14 110.19 13.85 C 120.19 18.93 131.66 22.86 143.00 22.50 C 151.08 22.63 158.75 20.30 165.88 16.63 C 172.43 24.28 179.21 31.72 185.75 39.38 C 175.73 48.39 168.88 60.20 169.12 74.00 C 168.43 92.72 179.41 106.24 181.28 124.51 C 182.56 131.78 181.95 139.14 178.62 145.80 C 174.06 154.95 165.81 162.34 156.55 166.55 C 141.01 173.68 125.49 180.87 109.97 188.04 C 106.67 189.52 103.43 191.31 99.99 192.45 C 97.27 191.56 94.68 190.18 92.08 188.98 C 77.69 182.32 63.28 175.69 48.88 169.05 C 43.86 166.73 39.03 164.75 34.62 161.33 C 26.99 155.54 20.53 147.34 18.63 137.78 C 17.75 130.88 18.31 123.71 20.04 116.97 C 22.65 105.41 28.68 94.63 30.30 83.06 C 31.59 75.27 31.08 66.94 28.41 59.49 C 25.56 51.42 20.31 45.12 14.20 39.29 C 20.95 31.82 27.46 24.14 34.18 16.65 C 40.96 20.14 48.33 22.47 56.01 22.49 C 67.81 23.04 79.43 19.12 89.83 13.83 C 93.31 12.11 96.51 9.86 100.01 8.18 Z" fill="#ffffff" />
<path d="M 100.00 14.31 C 109.82 19.96 119.76 24.71 131.01 26.75 C 139.69 28.59 148.42 28.03 157.02 26.07 C 116.24 47.47 75.26 68.56 34.50 89.99 C 36.25 82.16 36.67 73.95 35.57 66.00 C 33.93 55.64 28.74 46.59 21.60 39.03 C 26.19 33.78 30.76 28.53 35.37 23.31 C 42.37 25.99 49.44 27.95 57.00 27.86 C 72.71 28.00 86.66 22.02 100.00 14.31 Z" fill="#000000" />
<path d="M 88.51 25.69 C 89.34 26.96 90.18 28.24 91.02 29.51 C 93.53 29.56 96.05 29.62 98.57 29.67 C 96.62 30.43 94.69 31.21 92.75 31.97 C 93.37 33.28 94.00 34.58 94.64 35.88 C 92.53 35.20 90.24 33.83 87.99 33.83 C 85.99 34.35 84.04 35.19 82.10 35.90 C 82.83 34.60 83.55 33.31 84.28 32.02 C 82.27 31.24 80.26 30.44 78.25 29.68 C 80.76 29.62 83.28 29.56 85.79 29.50 C 86.70 28.23 87.60 26.96 88.51 25.69 Z" fill="#ffffff" />
<path d="M 66.32 29.07 C 67.38 30.61 68.42 32.16 69.45 33.71 C 72.50 33.71 75.56 33.73 78.61 33.80 C 76.25 34.84 73.85 35.81 71.46 36.77 C 72.35 38.40 73.25 40.02 74.16 41.63 C 71.64 40.68 68.95 39.32 66.25 39.07 C 63.65 39.42 61.06 40.65 58.61 41.55 C 59.46 39.95 60.32 38.36 61.17 36.76 C 58.77 35.81 56.38 34.83 54.01 33.80 C 57.04 33.74 60.08 33.77 63.10 33.62 C 63.60 32.96 64.09 32.29 64.57 31.61 C 65.16 30.76 65.74 29.92 66.32 29.07 Z" fill="#ffffff" />
<path d="M 109.82 30.33 C 110.44 31.27 111.05 32.22 111.67 33.16 C 113.60 33.24 115.52 33.32 117.45 33.41 C 115.92 33.92 114.40 34.43 112.88 34.96 C 113.37 35.96 113.86 36.95 114.35 37.95 C 112.82 37.38 111.29 36.80 109.76 36.21 C 108.20 36.78 106.64 37.35 105.07 37.90 L 106.58 34.98 C 105.05 34.40 103.53 33.82 101.99 33.27 C 103.87 33.26 105.77 33.25 107.65 33.13 C 108.38 32.21 109.11 31.27 109.82 30.33 Z" fill="#ffffff" />
<path d="M 156.51 31.29 C 158.03 31.70 159.49 32.33 160.96 32.89 C 159.01 35.00 157.06 37.10 155.11 39.21 C 154.28 38.73 153.45 38.25 152.63 37.77 C 153.85 35.58 155.05 33.33 156.51 31.29 Z" fill="#000000" />
<path d="M 149.96 38.69 C 156.52 42.72 162.85 47.18 169.25 51.45 C 167.23 52.53 165.21 53.60 163.19 54.67 C 162.06 53.93 160.92 53.18 159.79 52.43 C 156.00 54.31 152.26 56.29 148.50 58.22 C 148.51 59.57 148.51 60.93 148.52 62.28 C 146.45 63.35 144.38 64.43 142.30 65.47 C 142.40 57.73 142.58 49.99 142.71 42.25 C 145.13 41.04 147.46 39.75 149.96 38.69 Z" fill="#000000" />
<path d="M 47.11 39.08 C 48.38 40.88 49.65 42.68 50.92 44.48 C 54.65 44.56 58.37 44.63 62.10 44.68 C 59.09 45.76 56.13 46.98 53.13 48.09 C 54.13 49.95 55.14 51.80 56.14 53.65 C 53.15 52.62 50.18 51.51 47.17 50.50 C 44.11 51.51 41.08 52.62 38.05 53.72 C 39.09 51.85 40.13 49.97 41.19 48.10 C 38.18 46.98 35.20 45.76 32.18 44.68 C 35.91 44.63 39.64 44.56 43.38 44.49 C 44.64 42.70 45.87 40.89 47.11 39.08 Z" fill="#ffffff" />
<path d="M 148.50 44.67 C 150.90 46.26 153.26 47.91 155.62 49.57 C 153.26 50.81 150.89 52.03 148.54 53.28 C 148.52 50.41 148.50 47.54 148.50 44.67 Z" fill="#ffffff" />
<path d="M 63.66 50.20 C 65.10 52.34 66.54 54.48 67.98 56.61 C 72.11 56.68 76.24 56.73 80.37 56.82 C 77.11 58.17 73.84 59.47 70.58 60.83 C 71.78 62.94 72.95 65.06 74.12 67.19 C 70.63 65.93 67.15 64.66 63.65 63.42 C 60.18 64.68 56.69 65.92 53.20 67.15 C 54.37 65.03 55.55 62.92 56.74 60.82 C 53.48 59.47 50.21 58.17 46.95 56.83 C 51.08 56.73 55.21 56.68 59.34 56.61 C 60.78 54.47 62.23 52.34 63.66 50.20 Z" fill="#ffffff" />
<path d="M 124.60 51.77 C 127.04 50.68 129.54 50.28 131.34 52.64 C 133.10 55.33 135.61 58.38 132.73 61.27 C 136.87 61.40 137.32 64.15 139.14 67.15 C 137.30 68.13 135.46 69.10 133.62 70.08 C 132.70 68.95 131.88 65.78 130.00 66.25 C 126.53 67.37 123.36 69.52 120.09 71.13 C 120.90 72.71 121.73 74.29 122.56 75.86 C 120.69 76.78 118.84 77.73 116.98 78.66 C 113.80 72.68 110.74 66.64 107.57 60.65 C 113.25 57.69 118.87 54.62 124.60 51.77 Z" fill="#000000" />
<path d="M 126.88 56.72 C 127.40 58.15 128.00 59.49 128.74 60.81 C 125.10 62.83 121.40 64.71 117.73 66.68 C 116.99 65.19 116.25 63.70 115.50 62.21 C 119.26 60.25 122.86 58.14 126.88 56.72 Z" fill="#ffffff" />
<path d="M 165.03 62.50 C 163.52 69.89 163.07 77.34 164.55 84.78 C 166.68 98.18 173.59 109.31 175.71 122.77 C 176.71 128.94 177.28 134.93 174.92 140.88 C 171.25 150.26 163.01 157.86 153.90 161.92 C 147.95 164.60 142.07 167.43 136.11 170.06 C 136.12 139.19 136.06 108.31 136.13 77.43 C 145.83 72.59 155.35 67.39 165.03 62.50 Z" fill="#000000" />
<path d="M 94.43 67.48 C 100.87 71.76 107.29 76.05 113.70 80.36 C 111.69 81.45 109.66 82.52 107.64 83.60 C 106.50 82.84 105.37 82.08 104.23 81.32 C 100.50 83.21 96.80 85.15 93.08 87.06 C 93.08 88.43 93.08 89.81 93.08 91.18 C 90.99 92.24 88.90 93.32 86.81 94.39 C 86.94 86.64 87.10 78.90 87.23 71.15 C 89.64 69.94 92.03 68.70 94.43 67.48 Z" fill="#000000" />
<path d="M 93.11 73.63 C 95.41 75.22 97.72 76.82 100.01 78.44 C 97.72 79.71 95.40 80.93 93.11 82.18 C 93.09 79.33 93.08 76.48 93.11 73.63 Z" fill="#ffffff" />
<path d="M 74.17 77.98 C 74.95 79.35 75.74 80.71 76.52 82.08 C 71.72 84.70 66.79 87.09 62.01 89.75 L 63.56 91.86 C 65.04 91.91 66.21 91.15 67.51 90.53 C 70.76 88.82 73.98 87.06 77.26 85.40 C 77.88 86.67 78.50 87.95 79.11 89.23 C 74.66 91.52 70.24 93.85 65.79 96.13 C 66.21 97.14 66.64 98.16 67.06 99.18 C 71.93 96.62 76.83 94.13 81.68 91.53 C 82.46 92.97 83.24 94.40 84.01 95.84 C 77.31 99.37 70.59 102.88 63.85 106.33 C 60.78 100.28 57.58 94.31 54.52 88.26 C 61.06 84.81 67.63 81.42 74.17 77.98 Z" fill="#000000" />
<path d="M 120.03 85.89 C 119.99 116.46 120.14 147.05 119.96 177.62 C 113.24 180.41 106.77 184.01 100.00 186.58 C 93.28 184.00 86.83 180.47 80.17 177.68 C 80.16 153.97 80.10 130.26 80.20 106.55 C 93.53 99.76 106.75 92.76 120.03 85.89 Z" fill="#000000" />
<path d="M 48.03 92.71 C 50.65 92.82 51.86 95.44 53.38 97.17 C 51.56 98.16 49.74 99.15 47.91 100.11 C 47.27 99.62 46.62 99.13 45.98 98.64 C 42.56 100.15 38.77 101.61 35.87 104.01 C 34.61 106.32 36.96 109.83 38.35 111.69 C 40.00 114.02 42.81 111.41 44.74 110.74 C 47.39 109.01 51.54 108.44 50.67 104.36 C 52.42 103.46 54.18 102.57 55.93 101.67 C 56.69 104.26 58.57 107.10 56.50 109.58 C 54.15 112.18 50.29 113.60 47.26 115.31 C 43.82 116.95 40.20 119.65 36.19 118.61 C 33.85 117.72 32.42 114.67 31.26 112.60 C 30.11 110.25 28.48 107.60 28.34 104.96 C 28.70 101.42 32.37 99.55 35.14 98.02 C 39.12 96.09 43.57 93.04 48.03 92.71 Z" fill="#000000" />
<path d="M 64.13 114.96 C 64.15 133.37 64.13 151.78 64.13 170.19 C 57.45 167.15 50.77 164.10 44.13 160.96 C 34.49 156.10 25.79 146.88 23.71 136.02 C 37.18 129.00 50.67 122.01 64.13 114.96 Z" fill="#000000" />
<path d="M 90.07 166.87 C 90.47 166.94 90.86 167.01 91.26 167.09 C 91.35 170.08 91.30 173.08 91.29 176.07 C 90.71 176.07 90.13 176.07 89.55 176.08 C 89.51 172.94 89.90 170.09 88.48 167.16 C 89.01 167.06 89.54 166.96 90.07 166.87 Z" fill="#ffffff" />
<path d="M 96.70 166.60 L 97.49 166.63 C 100.49 169.31 98.37 175.19 95.08 176.62 C 95.47 175.49 95.88 174.36 96.30 173.23 C 95.03 172.28 93.60 171.91 93.79 170.01 C 93.74 167.74 94.79 167.22 96.70 166.60 Z" fill="#ffffff" />
<path d="M 103.65 166.86 C 103.67 169.93 103.67 173.00 103.67 176.08 L 101.90 176.08 C 101.93 172.98 101.82 169.91 101.35 166.84 C 102.12 166.85 102.88 166.85 103.65 166.86 Z" fill="#ffffff" />
<path d="M 110.22 165.94 C 110.61 168.31 110.84 170.71 111.25 173.08 C 111.02 174.07 110.79 175.06 110.57 176.05 L 109.22 176.09 L 109.18 173.82 C 108.18 173.72 107.18 173.62 106.17 173.52 C 107.11 170.69 108.10 168.12 110.22 165.94 Z" fill="#ffffff" />
<path d="M 96.33 171.62 C 95.46 170.80 95.22 169.71 95.59 168.35 C 97.98 167.87 97.80 170.59 96.33 171.62 Z" fill="#000000" />
<path d="M 108.22 171.20 L 108.83 171.19 L 108.83 171.81 L 108.22 171.81 L 108.22 171.20 Z" fill="#000000" />
</svg>