<?xml version="1.0" encoding="UTF-8" standalone="no"?>
<!DOCTYPE svg PUBLIC "-//W3C//DTD SVG 1.1//EN" "http://www.w3.org/Graphics/SVG/1.1/DTD/svg11.dtd">
<svg xmlns="http://www.w3.org/2000/svg" version="1.1" viewBox="0 0 200 200" width="200.0pt" height="200.0pt">
<path d="M 0.00 0.00 L 93.41 0.00 C 87.18 1.30 80.90 2.10 74.78 3.87 C 63.25 6.46 51.82 9.67 40.72 13.73 C 35.23 15.82 29.46 18.20 24.75 21.76 C 21.47 24.39 19.98 27.77 20.12 31.99 C 20.13 59.98 20.13 88.01 20.12 116.00 C 20.17 121.07 19.70 125.78 21.39 130.64 C 24.52 140.00 30.58 148.69 36.74 156.31 C 46.30 167.89 57.54 178.23 70.11 186.47 C 77.33 191.24 85.09 195.79 93.29 198.63 C 97.48 200.10 101.68 200.28 105.91 198.88 C 113.89 196.30 121.43 191.94 128.46 187.42 C 136.61 182.08 144.27 176.05 151.25 169.24 C 160.74 160.08 170.23 149.40 176.04 137.47 C 178.43 132.97 180.00 128.14 180.00 123.01 C 179.99 92.67 180.01 62.32 180.00 31.98 C 179.96 28.62 179.21 26.17 177.18 23.50 C 173.18 19.22 166.86 16.73 161.52 14.54 C 149.75 10.06 137.54 6.67 125.27 3.88 C 119.17 2.07 112.91 1.32 106.71 0.00 L 200.00 0.00 L 200.00 200.00 L 0.00 200.00 L 0.00 0.00 Z" fill="#ffffff" />
<path d="M 93.41 0.00 L 106.71 0.00 C 112.91 1.32 119.17 2.07 125.27 3.88 C 116.70 3.07 108.41 0.77 99.76 0.46 C 91.30 0.90 83.16 3.09 74.78 3.87 C 80.90 2.10 87.18 1.30 93.41 0.00 Z" fill="#4f96c8" />
<path d="M 99.76 0.46 C 99.89 2.16 100.03 3.85 100.17 5.54 C 102.51 6.02 104.86 6.52 107.21 6.93 C 104.83 6.64 102.44 6.44 100.04 6.37 C 90.36 6.71 80.64 9.07 71.24 11.25 C 60.15 14.01 49.05 17.15 38.46 21.46 C 34.80 23.07 30.60 24.87 27.78 27.77 C 26.41 29.27 26.63 31.11 26.53 33.00 C 26.58 60.33 26.54 87.67 26.55 115.00 C 26.62 119.84 26.04 124.65 27.73 129.25 C 30.88 137.99 36.75 146.01 42.50 153.22 C 42.87 155.15 43.40 156.80 44.70 158.31 C 51.40 166.63 58.51 174.44 67.00 180.99 C 69.05 182.59 70.90 184.39 72.64 186.32 L 70.11 186.47 C 57.54 178.23 46.30 167.89 36.74 156.31 C 30.58 148.69 24.52 140.00 21.39 130.64 C 19.70 125.78 20.17 121.07 20.12 116.00 C 20.13 88.01 20.13 59.98 20.12 31.99 C 19.98 27.77 21.47 24.39 24.75 21.76 C 29.46 18.20 35.23 15.82 40.72 13.73 C 51.82 9.67 63.25 6.46 74.78 3.87 C 83.16 3.09 91.30 0.90 99.76 0.46 Z" fill="#1a4e9b" />
<path d="M 99.76 0.46 C 108.41 0.77 116.70 3.07 125.27 3.88 C 137.54 6.67 149.75 10.06 161.52 14.54 C 166.86 16.73 173.18 19.22 177.18 23.50 C 178.40 27.24 179.18 31.05 179.13 35.00 C 179.05 60.33 179.12 85.67 179.10 111.00 C 178.98 118.37 179.86 125.15 177.25 132.24 C 176.91 120.69 177.49 109.11 176.88 97.59 C 175.73 97.33 174.59 97.08 173.45 96.82 C 173.45 93.62 173.45 90.42 173.45 87.22 C 163.20 87.20 152.96 87.22 142.71 87.21 C 142.57 76.83 142.69 66.45 142.66 56.07 C 138.76 54.50 134.83 53.37 130.72 52.51 C 130.54 64.07 130.65 75.65 130.67 87.21 C 126.69 87.21 122.70 87.21 118.72 87.21 C 118.55 74.61 118.76 61.99 118.62 49.39 C 114.70 48.46 110.80 47.59 106.79 47.11 C 106.47 68.64 106.71 90.23 106.68 111.77 C 105.87 112.44 105.08 113.14 104.32 113.86 C 104.11 113.52 103.90 113.18 103.68 112.84 C 102.56 111.96 101.35 111.79 99.98 111.68 C 99.78 86.43 100.00 61.17 99.87 35.91 C 104.95 35.73 110.00 35.99 114.99 37.05 C 127.58 39.62 140.08 42.82 152.27 46.91 C 152.27 53.27 152.26 59.64 152.28 66.00 C 154.16 66.56 156.04 67.11 157.92 67.67 C 158.04 69.32 158.15 70.96 158.26 72.61 C 164.45 74.49 170.65 76.47 176.94 77.96 C 177.43 67.99 176.95 57.99 177.18 48.00 C 177.13 44.88 177.45 41.41 176.54 38.40 C 175.66 37.32 174.53 36.40 173.51 35.45 C 173.36 32.51 173.96 28.80 171.25 26.80 C 166.15 22.88 159.51 20.59 153.50 18.42 C 138.44 13.36 122.93 9.36 107.21 6.93 C 104.86 6.52 102.51 6.02 100.17 5.54 C 100.03 3.85 99.89 2.16 99.76 0.46 Z" fill="#124790" />
<path d="M 100.04 6.37 C 99.99 13.29 99.97 20.21 100.05 27.14 C 93.85 27.38 87.53 28.85 81.47 30.18 C 69.92 32.90 58.39 36.04 47.26 40.20 C 47.23 64.80 47.27 89.40 47.25 114.00 C 47.28 116.86 47.04 119.81 47.45 122.65 C 48.04 124.83 49.33 126.89 50.46 128.83 C 52.85 132.77 55.59 136.48 58.55 140.01 C 62.29 144.51 66.44 148.69 70.76 152.62 C 74.45 155.98 78.35 159.08 82.42 161.97 C 86.35 164.74 90.45 167.27 94.68 169.57 C 96.39 170.49 98.14 171.35 99.94 172.10 C 100.05 179.29 99.97 186.48 100.03 193.67 C 95.11 192.89 90.76 190.89 86.36 188.65 C 69.53 179.89 54.75 167.69 42.50 153.22 C 36.75 146.01 30.88 137.99 27.73 129.25 C 26.04 124.65 26.62 119.84 26.55 115.00 C 26.54 87.67 26.58 60.33 26.53 33.00 C 26.63 31.11 26.41 29.27 27.78 27.77 C 30.60 24.87 34.80 23.07 38.46 21.46 C 49.05 17.15 60.15 14.01 71.24 11.25 C 80.64 9.07 90.36 6.71 100.04 6.37 Z" fill="#ffffff" />
<path d="M 100.04 6.37 C 102.44 6.44 104.83 6.64 107.21 6.93 C 122.93 9.36 138.44 13.36 153.50 18.42 C 159.51 20.59 166.15 22.88 171.25 26.80 C 173.96 28.80 173.36 32.51 173.51 35.45 C 173.37 47.69 173.48 59.94 173.44 72.19 C 168.26 70.72 163.09 69.19 157.92 67.67 C 156.04 67.11 154.16 66.56 152.28 66.00 C 152.26 59.64 152.27 53.27 152.27 46.91 C 152.27 44.66 152.27 42.42 152.26 40.18 C 137.53 34.70 121.59 30.50 106.11 27.79 C 104.10 27.49 102.08 27.25 100.05 27.14 C 99.97 20.21 99.99 13.29 100.04 6.37 Z" fill="#e8e9e9" />
<path d="M 177.18 23.50 C 179.21 26.17 179.96 28.62 180.00 31.98 C 180.01 62.32 179.99 92.67 180.00 123.01 C 180.00 128.14 178.43 132.97 176.04 137.47 C 176.46 135.73 176.85 133.98 177.25 132.24 C 179.86 125.15 178.98 118.37 179.10 111.00 C 179.12 85.67 179.05 60.33 179.13 35.00 C 179.18 31.05 178.40 27.24 177.18 23.50 Z" fill="#2582bf" />
<path d="M 100.05 27.14 C 102.08 27.25 104.10 27.49 106.11 27.79 C 104.13 27.88 102.15 28.07 100.19 28.34 C 99.97 30.87 99.92 33.37 99.87 35.91 C 89.78 37.86 79.77 40.03 69.89 42.87 C 63.54 44.72 57.27 46.37 51.26 49.18 C 50.94 68.11 51.23 87.06 51.13 106.00 C 50.99 113.74 51.65 121.14 50.46 128.83 C 49.33 126.89 48.04 124.83 47.45 122.65 C 47.04 119.81 47.28 116.86 47.25 114.00 C 47.27 89.40 47.23 64.80 47.26 40.20 C 58.39 36.04 69.92 32.90 81.47 30.18 C 87.53 28.85 93.85 27.38 100.05 27.14 Z" fill="#214985" />
<path d="M 100.19 28.34 C 102.15 28.07 104.13 27.88 106.11 27.79 C 121.59 30.50 137.53 34.70 152.26 40.18 C 152.27 42.42 152.27 44.66 152.27 46.91 C 140.08 42.82 127.58 39.62 114.99 37.05 C 110.00 35.99 104.95 35.73 99.87 35.91 C 99.92 33.37 99.97 30.87 100.19 28.34 Z" fill="#1c437d" />
<path d="M 99.87 35.91 C 100.00 61.17 99.78 86.43 99.98 111.68 C 99.19 111.70 98.40 111.74 97.61 111.78 C 97.62 114.61 97.62 117.43 97.66 120.26 L 96.98 120.20 C 95.87 118.72 94.79 117.21 93.71 115.71 C 94.57 114.61 95.44 113.51 96.30 112.41 L 95.36 111.41 C 94.95 109.30 94.75 107.15 94.71 105.00 C 94.77 85.65 94.78 66.29 94.72 46.93 C 90.71 47.29 86.84 48.03 82.94 49.05 C 82.52 65.35 82.89 81.69 82.76 98.00 C 82.83 106.45 82.60 114.91 82.91 123.35 C 78.61 122.54 74.86 122.38 70.97 124.67 C 71.48 121.42 71.44 118.27 71.42 115.00 C 71.26 94.00 71.58 72.98 71.26 51.99 C 67.24 52.89 63.33 53.99 59.43 55.33 C 59.32 77.88 59.43 100.44 59.38 123.00 C 59.28 128.83 59.95 134.27 58.55 140.01 C 55.59 136.48 52.85 132.77 50.46 128.83 C 51.65 121.14 50.99 113.74 51.13 106.00 C 51.23 87.06 50.94 68.11 51.26 49.18 C 57.27 46.37 63.54 44.72 69.89 42.87 C 79.77 40.03 89.78 37.86 99.87 35.91 Z" fill="#1a4e9b" />
<path d="M 173.51 35.45 C 174.53 36.40 175.66 37.32 176.54 38.40 C 177.45 41.41 177.13 44.88 177.18 48.00 C 176.95 57.99 177.43 67.99 176.94 77.96 C 170.65 76.47 164.45 74.49 158.26 72.61 C 158.15 70.96 158.04 69.32 157.92 67.67 C 163.09 69.19 168.26 70.72 173.44 72.19 C 173.48 59.94 173.37 47.69 173.51 35.45 Z" fill="#1c437d" />
<path d="M 94.72 46.93 C 94.78 66.29 94.77 85.65 94.71 105.00 C 94.75 107.15 94.95 109.30 95.36 111.41 C 94.02 112.44 92.79 113.58 91.56 114.73 C 91.50 113.57 91.43 112.42 91.35 111.27 C 88.64 112.35 90.13 117.72 89.80 120.10 L 91.65 120.14 C 91.72 119.01 91.78 117.88 91.85 116.75 C 92.77 117.84 93.69 118.94 94.67 119.97 C 94.68 120.94 94.68 121.91 94.69 122.88 C 91.84 122.89 89.00 122.89 86.16 122.89 C 86.14 124.32 86.13 125.75 86.12 127.18 C 85.09 126.74 84.05 126.32 83.01 125.91 C 82.98 125.06 82.95 124.20 82.91 123.35 C 82.60 114.91 82.83 106.45 82.76 98.00 C 82.89 81.69 82.52 65.35 82.94 49.05 C 86.84 48.03 90.71 47.29 94.72 46.93 Z" fill="#1a7dbd" />
<path d="M 106.79 47.11 C 110.80 47.59 114.70 48.46 118.62 49.39 C 118.76 61.99 118.55 74.61 118.72 87.21 C 115.81 87.21 112.90 87.22 109.99 87.22 C 113.13 93.57 116.33 99.88 119.46 106.23 C 118.09 111.82 118.76 117.08 118.70 122.89 L 117.00 122.90 C 117.00 123.99 116.99 125.09 116.99 126.18 C 115.94 126.16 114.90 126.14 113.86 126.11 C 113.85 125.04 113.85 123.98 113.85 122.91 C 112.54 122.91 111.24 122.91 109.93 122.92 C 109.92 126.06 109.91 129.20 109.88 132.34 C 108.70 130.49 107.53 128.65 106.36 126.80 C 106.51 124.67 106.64 122.55 106.73 120.43 C 108.82 119.89 110.50 120.51 111.48 118.20 C 109.91 118.12 108.34 118.06 106.77 118.01 C 106.84 116.31 107.07 114.76 107.54 113.13 C 108.62 113.75 109.70 114.37 110.78 115.00 C 110.89 113.93 111.00 112.87 111.10 111.81 C 109.63 111.77 108.15 111.76 106.68 111.77 C 106.71 90.23 106.47 68.64 106.79 47.11 Z" fill="#1a7dbd" />
<path d="M 71.26 51.99 C 71.58 72.98 71.26 94.00 71.42 115.00 C 71.44 118.27 71.48 121.42 70.97 124.67 C 68.14 128.85 68.01 134.14 71.29 138.12 C 71.55 142.98 71.58 147.81 70.76 152.62 C 66.44 148.69 62.29 144.51 58.55 140.01 C 59.95 134.27 59.28 128.83 59.38 123.00 C 59.43 100.44 59.32 77.88 59.43 55.33 C 63.33 53.99 67.24 52.89 71.26 51.99 Z" fill="#1a7dbd" />
<path d="M 130.72 52.51 C 134.83 53.37 138.76 54.50 142.66 56.07 C 142.69 66.45 142.57 76.83 142.71 87.21 C 138.70 87.21 134.68 87.21 130.67 87.21 C 130.65 75.65 130.54 64.07 130.72 52.51 Z" fill="#1a7dbd" />
<path d="M 109.99 87.22 C 112.90 87.22 115.81 87.21 118.72 87.21 C 122.70 87.21 126.69 87.21 130.67 87.21 C 134.68 87.21 138.70 87.21 142.71 87.21 C 152.96 87.22 163.20 87.20 173.45 87.22 C 173.45 90.42 173.45 93.62 173.45 96.82 C 173.44 105.23 173.45 113.64 173.46 122.04 C 173.70 130.20 168.51 138.51 164.00 145.00 C 153.16 159.85 139.29 172.91 123.78 182.78 C 116.54 187.21 108.46 192.12 100.03 193.67 C 99.97 186.48 100.05 179.29 99.94 172.10 L 100.70 171.77 C 102.77 170.79 104.80 169.73 106.80 168.61 C 110.99 166.26 115.01 163.68 118.89 160.85 C 123.12 157.77 127.11 154.45 130.92 150.85 C 135.09 146.97 139.04 142.89 142.66 138.50 L 143.16 137.87 C 146.25 134.05 149.33 129.93 151.47 125.50 C 152.85 122.80 152.43 119.71 152.50 116.76 C 152.47 113.80 152.46 110.84 152.44 107.89 C 149.21 107.88 145.97 107.88 142.73 107.88 C 138.65 107.90 134.58 107.84 130.50 107.89 C 127.13 107.90 123.74 107.97 120.38 107.76 L 119.46 106.23 C 116.33 99.88 113.13 93.57 109.99 87.22 Z" fill="#e8e9e9" />
<path d="M 173.45 96.82 C 174.59 97.08 175.73 97.33 176.88 97.59 C 177.49 109.11 176.91 120.69 177.25 132.24 C 176.85 133.98 176.46 135.73 176.04 137.47 C 170.23 149.40 160.74 160.08 151.25 169.24 C 144.27 176.05 136.61 182.08 128.46 187.42 C 121.43 191.94 113.89 196.30 105.91 198.88 C 101.68 200.28 97.48 200.10 93.29 198.63 C 85.09 195.79 77.33 191.24 70.11 186.47 L 72.64 186.32 C 70.90 184.39 69.05 182.59 67.00 180.99 C 58.51 174.44 51.40 166.63 44.70 158.31 C 43.40 156.80 42.87 155.15 42.50 153.22 C 54.75 167.69 69.53 179.89 86.36 188.65 C 90.76 190.89 95.11 192.89 100.03 193.67 C 108.46 192.12 116.54 187.21 123.78 182.78 C 139.29 172.91 153.16 159.85 164.00 145.00 C 168.51 138.51 173.70 130.20 173.46 122.04 C 173.45 113.64 173.44 105.23 173.45 96.82 Z" fill="#1c437d" />
<path d="M 119.46 106.23 L 120.38 107.76 C 123.74 107.97 127.13 107.90 130.50 107.89 C 130.56 110.83 130.71 113.76 130.74 116.70 C 130.76 118.75 130.82 120.80 130.80 122.85 C 129.47 122.86 128.14 122.87 126.81 122.88 C 124.99 125.25 123.11 127.55 121.03 129.69 C 120.95 127.43 120.90 125.16 120.87 122.89 L 118.70 122.89 C 118.76 117.08 118.09 111.82 119.46 106.23 Z" fill="#124790" />
<path d="M 130.50 107.89 C 134.58 107.84 138.65 107.90 142.73 107.88 C 142.70 110.85 142.70 113.82 142.74 116.79 C 142.80 123.83 142.55 130.84 143.16 137.87 L 142.66 138.50 C 142.21 131.25 142.74 124.00 142.25 116.76 C 138.40 116.56 134.59 116.54 130.74 116.70 C 130.71 113.76 130.56 110.83 130.50 107.89 Z" fill="#216e9e" />
<path d="M 142.73 107.88 C 145.97 107.88 149.21 107.88 152.44 107.89 C 152.46 110.84 152.47 113.80 152.50 116.76 C 149.25 116.73 146.00 116.74 142.74 116.79 C 142.70 113.82 142.70 110.85 142.73 107.88 Z" fill="#1c437d" />
<path d="M 99.98 111.68 C 101.35 111.79 102.56 111.96 103.68 112.84 C 103.53 114.27 103.35 115.70 103.14 117.12 C 103.54 118.25 103.94 119.37 104.33 120.50 C 102.64 119.93 101.46 118.90 100.20 117.69 C 99.82 119.47 98.97 120.32 97.66 120.26 C 97.62 117.43 97.62 114.61 97.61 111.78 C 98.40 111.74 99.19 111.70 99.98 111.68 Z" fill="#ccd5e2" />
<path d="M 91.35 111.27 C 91.43 112.42 91.50 113.57 91.56 114.73 C 92.79 113.58 94.02 112.44 95.36 111.41 L 96.30 112.41 C 95.44 113.51 94.57 114.61 93.71 115.71 C 94.79 117.21 95.87 118.72 96.98 120.20 L 94.67 119.97 C 93.69 118.94 92.77 117.84 91.85 116.75 C 91.78 117.88 91.72 119.01 91.65 120.14 L 89.80 120.10 C 90.13 117.72 88.64 112.35 91.35 111.27 Z" fill="#e6eff6" />
<path d="M 106.68 111.77 C 108.15 111.76 109.63 111.77 111.10 111.81 C 111.00 112.87 110.89 113.93 110.78 115.00 C 109.70 114.37 108.62 113.75 107.54 113.13 C 107.07 114.76 106.84 116.31 106.77 118.01 C 108.34 118.06 109.91 118.12 111.48 118.20 C 110.50 120.51 108.82 119.89 106.73 120.43 C 104.55 118.20 104.39 116.95 104.32 113.86 C 105.08 113.14 105.87 112.44 106.68 111.77 Z" fill="#c4d4df" />
<path d="M 99.45 113.53 C 100.90 112.17 102.86 114.08 101.56 115.57 C 99.88 116.93 98.10 115.26 99.45 113.53 Z" fill="#7794bd" />
<path d="M 103.68 112.84 C 103.90 113.18 104.11 113.52 104.32 113.86 C 104.39 116.95 104.55 118.20 106.73 120.43 C 106.64 122.55 106.51 124.67 106.36 126.80 C 105.54 125.50 104.72 124.20 103.90 122.91 C 102.69 122.91 101.49 122.92 100.28 122.93 C 100.23 128.42 100.37 133.91 100.20 139.40 C 100.14 140.61 100.09 141.81 100.03 143.02 C 98.23 143.04 96.43 143.05 94.62 143.07 C 94.58 141.89 94.53 140.70 94.48 139.52 C 95.41 139.50 96.34 139.49 97.27 139.48 C 97.27 138.38 97.28 137.28 97.28 136.18 C 96.35 136.15 95.41 136.13 94.48 136.11 C 94.78 135.14 95.10 134.18 95.44 133.21 C 96.07 132.78 96.71 132.35 97.34 131.92 C 96.75 130.45 96.13 128.99 95.49 127.54 C 95.94 127.08 96.38 126.62 96.83 126.16 C 96.84 125.07 96.86 123.97 96.88 122.87 L 94.69 122.88 C 94.68 121.91 94.68 120.94 94.67 119.97 L 96.98 120.20 L 97.66 120.26 C 98.97 120.32 99.82 119.47 100.20 117.69 C 101.46 118.90 102.64 119.93 104.33 120.50 C 103.94 119.37 103.54 118.25 103.14 117.12 C 103.35 115.70 103.53 114.27 103.68 112.84 Z" fill="#1f4987" />
<path d="M 130.74 116.70 C 134.59 116.54 138.40 116.56 142.25 116.76 C 142.74 124.00 142.21 131.25 142.66 138.50 C 139.04 142.89 135.09 146.97 130.92 150.85 C 130.77 148.21 130.67 145.56 130.63 142.91 C 131.59 142.62 132.55 142.33 133.52 142.04 C 132.71 140.78 131.91 139.52 131.10 138.27 L 130.80 137.80 C 130.08 133.15 131.68 128.85 130.38 124.27 C 130.51 124.02 130.64 123.77 130.76 123.51 L 130.80 122.85 C 130.82 120.80 130.76 118.75 130.74 116.70 Z" fill="#1a7dbd" />
<path d="M 142.74 116.79 C 146.00 116.74 149.25 116.73 152.50 116.76 C 152.43 119.71 152.85 122.80 151.47 125.50 C 149.33 129.93 146.25 134.05 143.16 137.87 C 142.55 130.84 142.80 123.83 142.74 116.79 Z" fill="#124790" />
<path d="M 82.91 123.35 C 82.95 124.20 82.98 125.06 83.01 125.91 L 83.05 126.89 C 80.58 126.56 77.08 125.46 74.84 126.80 C 72.53 128.08 72.88 131.57 73.30 133.75 C 74.40 136.57 77.03 136.00 79.50 136.37 L 79.58 133.64 L 77.15 133.52 C 77.16 132.42 77.17 131.32 77.18 130.22 C 79.16 130.21 81.14 130.21 83.12 130.20 C 83.14 133.08 83.12 135.97 83.05 138.85 C 78.95 139.60 75.18 139.97 71.29 138.12 C 68.01 134.14 68.14 128.85 70.97 124.67 C 74.86 122.38 78.61 122.54 82.91 123.35 Z" fill="#ffffff" />
<path d="M 86.16 122.89 C 89.00 122.89 91.84 122.89 94.69 122.88 L 96.88 122.87 C 96.86 123.97 96.84 125.07 96.83 126.16 C 94.57 126.20 92.31 126.23 90.05 126.26 C 90.06 127.35 90.07 128.43 90.08 129.51 C 91.93 129.40 93.77 129.27 95.62 129.12 C 95.75 130.63 96.26 131.73 94.87 132.84 C 93.26 132.82 91.65 132.78 90.04 132.72 C 90.09 133.82 90.14 134.92 90.19 136.02 C 91.62 136.05 93.05 136.09 94.48 136.11 C 95.41 136.13 96.35 136.15 97.28 136.18 C 97.28 137.28 97.27 138.38 97.27 139.48 C 96.34 139.49 95.41 139.50 94.48 139.52 C 91.58 139.53 88.98 139.72 86.44 138.07 C 86.15 134.44 86.11 130.82 86.12 127.18 C 86.13 125.75 86.14 124.32 86.16 122.89 Z" fill="#ffffff" />
<path d="M 100.28 122.93 C 101.49 122.92 102.69 122.91 103.90 122.91 C 104.72 124.20 105.54 125.50 106.36 126.80 C 107.53 128.65 108.70 130.49 109.88 132.34 C 109.91 129.20 109.92 126.06 109.93 122.92 C 111.24 122.91 112.54 122.91 113.85 122.91 C 113.85 123.98 113.85 125.04 113.86 126.11 C 113.86 130.58 113.86 135.06 113.85 139.53 L 111.23 139.68 C 109.29 138.68 108.23 136.35 107.04 134.58 C 106.13 133.09 105.22 131.59 104.31 130.10 C 104.29 133.29 104.40 136.52 103.84 139.68 C 102.63 139.58 101.41 139.49 100.20 139.40 C 100.37 133.91 100.23 128.42 100.28 122.93 Z" fill="#e8e9e9" />
<path d="M 117.00 122.90 L 118.70 122.89 L 120.87 122.89 C 120.90 125.16 120.95 127.43 121.03 129.69 C 123.11 127.55 124.99 125.25 126.81 122.88 C 128.14 122.87 129.47 122.86 130.80 122.85 L 130.76 123.51 C 130.64 123.77 130.51 124.02 130.38 124.27 C 128.61 126.43 126.77 128.54 125.00 130.70 C 126.88 133.11 128.84 135.45 130.80 137.80 L 131.10 138.27 C 129.91 140.06 129.07 139.58 127.08 139.28 C 124.88 137.02 123.09 134.38 120.99 132.01 C 120.94 134.50 120.90 136.99 120.89 139.48 L 118.70 139.49 L 116.89 139.50 C 117.12 135.07 116.93 130.62 116.99 126.18 C 116.99 125.09 117.00 123.99 117.00 122.90 Z" fill="#e8e9e9" />
<path d="M 130.38 124.27 C 131.68 128.85 130.08 133.15 130.80 137.80 C 128.84 135.45 126.88 133.11 125.00 130.70 C 126.77 128.54 128.61 126.43 130.38 124.27 Z" fill="#1b437e" />
<path d="M 83.05 126.89 C 83.08 127.99 83.10 129.09 83.12 130.20 C 81.14 130.21 79.16 130.21 77.18 130.22 C 77.17 131.32 77.16 132.42 77.15 133.52 L 79.58 133.64 L 79.50 136.37 C 77.03 136.00 74.40 136.57 73.30 133.75 C 72.88 131.57 72.53 128.08 74.84 126.80 C 77.08 125.46 80.58 126.56 83.05 126.89 Z" fill="#214985" />
<path d="M 83.01 125.91 C 84.05 126.32 85.09 126.74 86.12 127.18 C 86.11 130.82 86.15 134.44 86.44 138.07 C 86.23 139.27 85.99 140.46 85.73 141.65 C 84.78 142.20 83.83 142.74 82.88 143.29 C 82.94 141.81 82.99 140.33 83.05 138.85 C 83.12 135.97 83.14 133.08 83.12 130.20 C 83.10 129.09 83.08 127.99 83.05 126.89 L 83.01 125.91 Z" fill="#216e9e" />
<path d="M 90.05 126.26 C 92.31 126.23 94.57 126.20 96.83 126.16 C 96.38 126.62 95.94 127.08 95.49 127.54 C 96.13 128.99 96.75 130.45 97.34 131.92 C 96.71 132.35 96.07 132.78 95.44 133.21 C 95.10 134.18 94.78 135.14 94.48 136.11 C 93.05 136.09 91.62 136.05 90.19 136.02 C 90.14 134.92 90.09 133.82 90.04 132.72 C 91.65 132.78 93.26 132.82 94.87 132.84 C 96.26 131.73 95.75 130.63 95.62 129.12 C 93.77 129.27 91.93 129.40 90.08 129.51 C 90.07 128.43 90.06 127.35 90.05 126.26 Z" fill="#216e9e" />
<path d="M 113.86 126.11 C 114.90 126.14 115.94 126.16 116.99 126.18 C 116.93 130.62 117.12 135.07 116.89 139.50 C 116.80 140.61 116.70 141.72 116.60 142.82 C 115.51 142.82 114.42 142.81 113.33 142.81 C 112.64 141.76 111.94 140.72 111.23 139.68 L 113.85 139.53 C 113.86 135.06 113.86 130.58 113.86 126.11 Z" fill="#216e9e" />
<path d="M 104.31 130.10 C 105.22 131.59 106.13 133.09 107.04 134.58 C 106.86 137.46 106.71 140.34 106.67 143.23 C 105.53 143.01 104.39 142.79 103.25 142.57 C 103.45 141.61 103.65 140.64 103.84 139.68 C 104.40 136.52 104.29 133.29 104.31 130.10 Z" fill="#1c437d" />
<path d="M 120.99 132.01 C 123.09 134.38 124.88 137.02 127.08 139.28 C 129.07 139.58 129.91 140.06 131.10 138.27 C 131.91 139.52 132.71 140.78 133.52 142.04 C 132.55 142.33 131.59 142.62 130.63 142.91 C 130.67 145.56 130.77 148.21 130.92 150.85 C 127.11 154.45 123.12 157.77 118.89 160.85 C 118.48 153.71 118.68 146.64 118.70 139.49 L 120.89 139.48 C 120.90 136.99 120.94 134.50 120.99 132.01 Z" fill="#124790" />
<path d="M 107.04 134.58 C 108.23 136.35 109.29 138.68 111.23 139.68 C 111.94 140.72 112.64 141.76 113.33 142.81 C 114.42 142.81 115.51 142.82 116.60 142.82 C 116.70 141.72 116.80 140.61 116.89 139.50 L 118.70 139.49 C 118.68 146.64 118.48 153.71 118.89 160.85 C 115.01 163.68 110.99 166.26 106.80 168.61 C 106.51 160.15 106.68 151.69 106.67 143.23 C 106.71 140.34 106.86 137.46 107.04 134.58 Z" fill="#1a7dbd" />
<path d="M 71.29 138.12 C 75.18 139.97 78.95 139.60 83.05 138.85 C 82.99 140.33 82.94 141.81 82.88 143.29 C 82.63 149.53 83.01 155.74 82.42 161.97 C 78.35 159.08 74.45 155.98 70.76 152.62 C 71.58 147.81 71.55 142.98 71.29 138.12 Z" fill="#1a4e9b" />
<path d="M 86.44 138.07 C 88.98 139.72 91.58 139.53 94.48 139.52 C 94.53 140.70 94.58 141.89 94.62 143.07 C 94.88 151.90 94.75 160.74 94.68 169.57 C 90.45 167.27 86.35 164.74 82.42 161.97 C 83.01 155.74 82.63 149.53 82.88 143.29 C 83.83 142.74 84.78 142.20 85.73 141.65 C 85.99 140.46 86.23 139.27 86.44 138.07 Z" fill="#1a7dbd" />
<path d="M 100.20 139.40 C 101.41 139.49 102.63 139.58 103.84 139.68 C 103.65 140.64 103.45 141.61 103.25 142.57 C 104.39 142.79 105.53 143.01 106.67 143.23 C 106.68 151.69 106.51 160.15 106.80 168.61 C 104.80 169.73 102.77 170.79 100.70 171.77 C 100.09 168.54 99.72 165.30 99.83 162.00 C 100.00 155.67 99.76 149.34 100.03 143.02 C 100.09 141.81 100.14 140.61 100.20 139.40 Z" fill="#124790" />
<path d="M 94.62 143.07 C 96.43 143.05 98.23 143.04 100.03 143.02 C 99.76 149.34 100.00 155.67 99.83 162.00 C 99.72 165.30 100.09 168.54 100.70 171.77 L 99.94 172.10 C 98.14 171.35 96.39 170.49 94.68 169.57 C 94.75 160.74 94.88 151.90 94.62 143.07 Z" fill="#1a4e9b" />
</svg>