<?xml version="1.0" encoding="UTF-8" standalone="no"?>
<!DOCTYPE svg PUBLIC "-//W3C//DTD SVG 1.1//EN" "http://www.w3.org/Graphics/SVG/1.1/DTD/svg11.dtd">
<svg xmlns="http://www.w3.org/2000/svg" version="1.1" viewBox="0 0 200 200" width="200.0pt" height="200.0pt">
<path d="M 0.00 0.00 L 200.00 0.00 L 200.00 200.00 L 0.00 200.00 L 0.00 0.00 Z" fill="#ffffff" />
<path d="M 100.43 5.09 C 109.75 13.46 122.30 18.51 134.51 20.78 C 152.02 24.00 169.53 21.91 186.52 17.06 C 183.05 23.34 180.52 30.04 178.66 36.96 C 172.23 60.75 172.72 86.65 176.79 110.80 C 179.30 123.53 176.33 137.31 167.88 147.31 C 160.59 145.11 153.23 143.34 145.75 141.90 C 148.70 139.72 151.57 137.80 153.86 134.88 C 158.40 129.29 160.44 122.09 160.74 114.99 C 160.93 110.63 159.85 106.60 159.27 102.19 C 157.30 87.82 157.06 72.81 159.73 58.51 C 161.49 49.65 163.97 41.19 168.98 33.59 C 156.57 37.34 143.99 39.48 131.01 37.89 C 119.85 36.56 108.70 32.50 100.35 24.78 C 92.06 32.47 81.08 36.44 70.01 37.87 C 56.92 39.50 44.35 37.37 31.83 33.65 C 33.99 37.19 35.90 40.84 37.26 44.77 C 43.17 61.14 43.82 79.84 42.05 97.00 C 41.42 105.05 38.91 111.84 40.47 119.99 C 41.95 129.56 46.85 136.85 55.07 141.92 C 47.58 143.27 40.18 145.09 32.89 147.30 C 26.53 139.98 23.37 130.63 23.07 121.00 C 22.74 115.82 23.96 111.07 24.67 106.00 C 26.32 94.75 27.12 83.38 26.86 72.00 C 26.38 53.53 23.15 33.41 14.16 17.04 C 29.67 21.53 45.89 23.64 61.98 21.45 C 76.09 19.50 89.53 14.44 100.43 5.09 Z" fill="#000000" />
<path d="M 100.27 28.13 C 104.22 30.43 107.70 33.29 111.99 35.01 C 128.64 42.42 146.69 41.78 164.04 37.34 C 154.00 59.41 153.98 85.52 158.10 109.01 C 159.68 119.33 156.43 131.35 147.69 137.73 C 145.20 139.43 142.71 141.39 139.51 140.77 C 132.07 139.66 124.64 138.67 117.13 138.23 C 117.02 136.46 116.91 134.69 116.80 132.92 C 119.43 130.53 121.06 128.88 121.49 125.16 C 118.31 125.52 115.26 125.60 112.07 125.37 C 113.85 122.96 115.15 120.87 115.60 117.82 C 111.72 117.83 108.01 118.32 104.40 116.61 C 99.81 114.66 97.64 110.36 93.29 107.72 C 88.39 104.67 87.46 99.46 83.12 95.86 C 81.50 94.47 79.11 94.28 77.20 95.14 C 75.33 97.15 73.99 99.70 72.52 101.99 C 73.63 102.48 74.74 102.97 75.85 103.46 C 75.15 108.61 73.11 114.21 75.88 119.09 C 77.97 123.22 81.79 124.15 85.01 126.99 C 87.89 129.50 86.15 134.61 86.23 137.96 C 79.47 138.54 72.72 139.02 66.02 140.08 C 63.73 140.41 61.35 140.92 59.05 140.87 C 56.26 140.23 53.66 138.30 51.49 136.50 C 44.60 130.55 41.76 120.86 42.27 112.01 C 42.77 106.65 43.99 101.40 44.40 96.02 C 46.38 76.66 44.92 55.22 36.61 37.36 C 52.10 41.23 67.84 42.30 83.19 37.17 C 89.52 35.23 94.87 31.84 100.27 28.13 Z" fill="#c9302f" />
<path d="M 108.37 43.38 C 110.07 42.34 112.59 42.62 114.14 43.84 C 117.37 46.33 119.10 50.45 121.57 53.41 C 123.50 55.46 126.16 56.77 128.19 58.75 C 130.52 60.99 132.33 63.29 135.37 64.63 C 139.11 66.47 142.75 66.11 146.77 66.03 C 146.30 69.02 145.12 71.10 143.43 73.54 C 146.56 73.73 149.53 73.63 152.65 73.25 C 152.39 76.99 150.69 78.53 148.16 80.94 C 148.19 83.73 148.54 87.03 147.54 89.67 C 147.08 90.55 146.35 90.89 145.34 90.68 C 142.72 87.88 141.04 84.50 138.00 82.00 C 135.01 79.32 131.92 77.75 128.03 76.78 C 128.42 79.55 129.22 82.20 129.81 84.93 C 127.61 85.95 126.07 84.36 123.94 83.76 C 122.12 82.61 119.51 86.83 117.63 85.41 C 116.64 82.74 119.20 78.98 116.99 76.02 C 114.28 72.68 109.62 71.87 107.34 67.64 C 104.24 62.54 106.45 56.97 106.97 51.46 C 105.88 51.01 104.80 50.56 103.72 50.12 C 105.21 47.86 106.54 45.37 108.37 43.38 Z" fill="#000000" />
<path d="M 59.38 45.64 C 62.50 47.50 64.52 51.54 66.60 54.44 C 68.72 57.56 71.92 58.71 74.58 61.42 C 76.83 63.70 78.78 65.95 81.86 67.16 C 85.44 68.78 88.92 68.42 92.73 68.26 C 92.35 71.34 91.04 73.59 89.36 76.11 C 92.51 76.05 95.65 75.86 98.79 75.64 C 98.30 79.26 96.75 80.85 94.19 83.17 C 94.24 86.20 94.50 89.59 93.44 92.47 C 92.77 92.80 92.01 92.95 91.19 92.93 C 88.65 89.98 86.95 86.67 83.85 84.16 C 81.02 81.65 77.75 80.05 74.16 78.94 C 74.35 81.90 75.10 84.61 76.11 87.38 C 73.36 87.99 71.55 86.51 69.03 85.75 C 67.19 86.35 65.19 88.91 63.33 87.61 C 63.27 84.48 64.96 80.74 62.89 78.15 C 59.94 74.88 55.54 74.02 53.24 69.74 C 50.36 64.88 52.34 59.22 53.07 54.06 C 51.97 53.46 50.87 52.85 49.77 52.25 C 51.04 50.34 52.25 48.38 53.64 46.55 C 54.62 44.68 57.76 44.87 59.38 45.64 Z" fill="#000000" />
<path d="M 109.61 44.84 C 110.71 45.16 111.82 45.47 112.91 45.80 C 111.70 47.41 110.57 49.09 109.36 50.70 C 109.04 49.94 108.72 49.17 108.41 48.41 L 106.56 50.43 C 106.91 48.12 108.39 46.79 109.61 44.84 Z" fill="#ffffff" />
<path d="M 112.91 45.80 C 116.27 49.40 118.33 53.80 122.13 57.03 C 121.01 56.88 119.88 56.73 118.76 56.58 C 118.27 58.00 117.79 59.43 117.29 60.85 C 117.95 61.25 118.62 61.64 119.28 62.04 C 118.53 62.76 117.78 63.49 117.03 64.21 C 119.11 68.76 121.95 70.41 126.88 70.97 C 126.48 71.51 126.07 72.02 125.69 72.56 C 121.68 71.33 117.86 70.26 115.43 66.55 C 113.95 64.29 114.24 61.75 114.16 59.17 L 112.82 59.08 C 112.82 62.59 112.93 65.82 115.29 68.68 C 118.25 72.35 122.41 73.19 126.76 74.23 C 126.03 77.27 125.99 79.51 126.63 82.58 C 123.18 81.54 122.34 81.20 119.48 83.42 C 120.00 80.44 120.73 77.80 118.94 75.03 C 116.42 71.01 111.55 70.31 109.67 66.22 C 107.50 60.98 108.51 56.08 109.36 50.70 C 110.57 49.09 111.70 47.41 112.91 45.80 Z" fill="#ffffff" />
<path d="M 58.79 48.15 C 62.42 51.44 63.98 56.09 68.11 58.99 C 66.92 59.05 65.73 59.11 64.54 59.18 C 64.18 60.43 63.81 61.67 63.44 62.92 C 64.02 63.56 64.60 64.20 65.18 64.85 C 64.46 65.40 63.74 65.96 63.01 66.52 C 64.19 68.59 65.09 70.53 67.33 71.66 C 72.05 74.27 77.28 73.76 82.48 73.78 L 82.52 75.51 C 76.28 75.52 68.07 75.22 63.12 70.86 C 59.85 67.99 60.33 64.63 59.96 60.69 C 57.89 63.76 59.12 68.08 61.16 70.84 C 64.16 74.58 68.33 75.56 72.80 76.45 C 72.01 79.53 71.95 81.72 72.67 84.83 C 69.67 83.93 68.30 83.62 65.55 85.48 C 65.90 82.76 66.65 80.37 65.23 77.82 C 62.63 73.06 57.18 72.78 55.39 67.84 C 53.55 62.54 54.52 56.12 55.99 50.83 C 56.80 50.22 57.58 49.59 58.34 48.92 C 57.12 49.12 55.89 49.27 54.66 49.38 C 53.88 46.79 57.56 46.97 58.79 48.15 Z" fill="#ffffff" />
<path d="M 53.43 50.09 C 55.23 50.26 54.23 52.84 52.74 51.96 C 52.27 51.13 52.50 50.51 53.43 50.09 Z" fill="#ffffff" />
<path d="M 120.76 58.16 C 122.32 58.26 123.87 58.36 125.43 58.48 C 125.56 59.91 125.76 61.35 125.79 62.78 C 124.84 63.04 123.89 63.31 122.94 63.59 C 123.04 64.30 123.14 65.00 123.25 65.70 C 122.14 66.25 121.03 66.80 119.92 67.36 C 119.59 66.62 119.26 65.88 118.93 65.14 C 119.69 64.71 120.44 64.28 121.20 63.85 C 121.39 62.68 121.57 61.50 121.77 60.33 C 121.43 59.61 121.09 58.88 120.76 58.16 Z" fill="#ffffff" />
<path d="M 66.60 60.55 C 68.20 60.60 69.81 60.65 71.40 60.71 C 71.57 62.14 71.77 63.57 71.83 65.01 C 70.92 65.33 69.99 65.61 69.06 65.87 C 69.12 66.66 69.19 67.45 69.25 68.24 C 67.15 68.95 66.58 69.70 64.49 68.20 C 65.41 67.43 66.33 66.67 67.25 65.91 C 67.45 64.83 67.62 63.75 67.78 62.66 C 67.38 61.96 66.99 61.25 66.60 60.55 Z" fill="#ffffff" />
<path d="M 128.44 61.95 C 130.16 63.53 131.62 65.23 133.73 66.27 C 137.01 67.94 140.77 68.00 144.36 68.42 C 143.08 69.97 141.78 71.49 140.43 72.98 C 141.56 73.88 142.71 75.35 144.14 75.72 C 146.19 75.99 148.31 75.78 150.37 75.79 C 148.84 77.56 147.36 78.77 145.33 79.91 C 145.92 82.60 146.24 85.19 146.14 87.97 C 142.25 81.06 135.91 77.34 128.90 74.19 C 131.82 74.32 134.74 74.45 137.66 74.57 C 137.95 72.77 138.21 70.97 138.46 69.16 C 136.00 69.97 133.63 70.77 131.00 70.72 C 127.56 70.50 123.95 70.66 122.42 66.96 C 124.83 67.22 127.15 67.80 129.52 68.25 C 131.14 68.57 131.34 68.33 132.56 67.27 C 129.82 66.68 127.25 66.82 124.93 64.98 C 125.70 63.68 127.21 62.82 128.44 61.95 Z" fill="#ffffff" />
<path d="M 74.50 64.28 C 76.16 65.82 77.45 67.42 79.56 68.37 C 81.59 69.50 83.56 69.25 84.16 71.84 C 80.10 72.91 76.11 73.48 71.98 72.46 C 70.09 72.12 69.43 70.74 68.27 69.41 C 71.78 69.60 75.13 70.62 78.64 70.85 C 78.37 70.38 78.11 69.90 77.84 69.42 C 75.05 69.11 72.86 68.73 70.54 67.00 C 71.86 66.08 73.16 65.15 74.50 64.28 Z" fill="#ffffff" />
<path d="M 85.21 70.36 C 86.94 70.40 88.66 70.47 90.39 70.56 C 89.11 72.17 87.83 73.77 86.49 75.31 C 87.58 76.22 88.65 77.57 90.03 78.01 C 92.12 78.31 94.29 78.17 96.40 78.23 C 94.87 79.85 93.23 81.11 91.33 82.27 C 91.94 84.95 92.26 87.52 92.12 90.28 C 90.67 88.19 89.47 86.15 87.63 84.37 C 84.13 81.01 79.85 79.03 75.71 76.63 C 78.37 76.66 81.04 76.74 83.70 76.81 C 84.12 74.75 83.94 72.07 85.21 70.36 Z" fill="#ffffff" />
<path d="M 128.82 71.68 C 131.36 71.35 134.00 71.55 136.56 71.48 L 136.46 73.20 C 133.70 73.15 131.01 73.19 128.27 72.74 C 128.17 72.25 128.36 71.90 128.82 71.68 Z" fill="#ffffff" />
<path d="M 77.20 95.14 C 79.11 94.28 81.50 94.47 83.12 95.86 C 87.46 99.46 88.39 104.67 93.29 107.72 C 97.64 110.36 99.81 114.66 104.40 116.61 C 108.01 118.32 111.72 117.83 115.60 117.82 C 115.15 120.87 113.85 122.96 112.07 125.37 C 115.26 125.60 118.31 125.52 121.49 125.16 C 121.06 128.88 119.43 130.53 116.80 132.92 C 116.91 134.69 117.02 136.46 117.13 138.23 L 115.23 138.04 C 114.82 135.94 114.48 133.83 114.10 131.72 C 116.17 130.60 117.65 129.43 119.23 127.67 C 117.02 127.61 114.62 127.95 112.46 127.46 C 111.25 126.80 110.24 125.74 109.19 124.85 C 110.52 123.37 111.82 121.86 113.09 120.34 C 109.57 119.90 106.00 119.80 102.75 118.25 C 100.56 117.23 99.07 115.60 97.37 113.94 C 96.46 114.52 95.54 115.11 94.63 115.70 C 94.49 113.85 94.30 112.02 94.02 110.19 C 92.52 110.17 91.01 110.14 89.50 110.12 C 90.47 111.93 90.44 113.06 90.21 115.02 C 88.99 116.26 87.92 117.58 86.91 119.00 C 86.10 117.24 86.30 115.60 87.50 114.08 C 85.58 112.17 87.06 110.58 87.48 108.38 C 88.62 108.54 89.76 108.70 90.90 108.86 C 87.18 105.77 85.23 101.48 81.97 98.04 C 80.76 96.69 78.99 97.15 77.33 96.95 C 77.58 97.94 77.85 98.92 78.11 99.90 C 78.69 99.16 79.28 98.43 79.87 97.69 L 80.97 99.29 C 80.28 99.53 79.59 99.76 78.90 100.00 C 77.25 105.33 76.38 111.66 78.02 117.07 C 79.75 122.29 85.11 122.49 87.87 127.17 C 89.36 129.45 88.64 132.32 88.40 134.85 C 91.30 133.29 92.25 133.38 95.42 134.43 C 94.61 130.75 94.47 126.84 96.62 123.58 C 96.30 122.37 94.42 122.47 93.53 123.03 C 93.42 123.99 93.56 124.97 93.57 125.94 C 90.09 124.56 86.75 123.72 84.23 120.76 C 81.91 117.96 80.69 113.53 82.52 110.17 C 82.91 112.49 82.84 115.01 83.59 117.24 C 85.26 120.88 88.79 123.04 92.76 123.39 C 91.11 122.02 89.40 120.73 87.63 119.51 C 89.04 118.92 90.46 118.33 91.88 117.74 C 91.82 116.85 91.76 115.96 91.70 115.07 L 93.85 115.13 C 94.08 119.30 98.67 118.25 101.57 119.23 C 99.10 121.65 94.21 118.66 91.18 118.74 C 92.14 120.03 92.40 121.44 94.16 121.78 C 98.65 123.08 102.83 122.77 107.12 120.98 L 106.99 124.92 C 106.26 124.36 105.52 123.80 104.79 123.25 C 101.80 123.39 99.02 123.15 96.28 124.61 C 99.47 124.99 102.39 125.42 105.52 124.43 C 105.93 125.04 106.33 125.66 106.74 126.28 C 103.76 126.31 100.77 126.21 97.79 126.10 C 104.02 129.00 109.76 132.07 113.72 137.92 C 112.45 137.85 111.18 137.77 109.91 137.73 C 107.01 132.97 102.23 130.01 96.92 128.66 C 97.30 131.68 97.94 134.63 98.68 137.58 C 96.58 137.49 94.49 137.32 92.41 136.99 L 91.97 134.68 L 91.77 136.39 L 90.20 137.56 C 88.87 137.69 87.55 137.82 86.23 137.96 C 86.15 134.61 87.89 129.50 85.01 126.99 C 81.79 124.15 77.97 123.22 75.88 119.09 C 73.11 114.21 75.15 108.61 75.85 103.46 C 74.74 102.97 73.63 102.48 72.52 101.99 C 73.99 99.70 75.33 97.15 77.20 95.14 Z" fill="#000000" />
<path d="M 76.32 99.21 C 77.98 99.36 77.64 101.84 76.13 101.99 C 74.53 101.76 74.93 99.46 76.32 99.21 Z" fill="#ffffff" />
<path d="M 96.92 128.66 C 102.23 130.01 107.01 132.97 109.91 137.73 C 106.17 137.65 102.42 137.69 98.68 137.58 C 97.94 134.63 97.30 131.68 96.92 128.66 Z" fill="#c9302f" />
<path d="M 158.04 145.73 C 163.50 147.15 169.01 148.63 174.23 150.76 C 176.48 151.62 178.10 153.17 179.68 154.92 C 177.09 158.02 173.00 161.56 173.03 165.92 C 178.54 172.17 187.22 174.24 195.20 174.91 C 191.46 177.00 187.66 178.98 183.88 180.98 C 186.78 184.91 189.73 188.80 192.59 192.76 C 180.63 193.85 169.22 189.91 161.05 181.03 C 163.10 177.25 163.79 174.71 163.20 170.33 C 150.41 166.18 137.38 162.95 124.01 161.38 C 94.98 157.67 65.03 160.96 37.37 170.47 C 37.07 174.87 37.50 177.23 39.66 181.05 C 31.33 189.90 20.21 193.89 8.12 192.70 C 11.01 188.78 13.93 184.88 16.83 180.97 C 13.07 179.02 9.32 177.09 5.69 174.93 C 14.14 174.25 21.76 171.88 28.04 165.97 C 27.09 161.27 24.01 158.65 21.32 155.01 C 22.78 152.16 25.36 151.22 28.15 150.08 C 33.68 148.04 39.43 146.52 45.16 145.12 C 82.10 136.40 121.19 136.60 158.04 145.73 Z" fill="#000000" />
<path d="M 99.78 142.65 C 100.84 145.07 101.84 147.50 103.01 149.87 C 103.85 151.81 104.97 153.20 104.23 155.44 C 103.44 154.04 102.69 152.61 101.98 151.16 C 99.84 151.45 96.21 150.26 95.13 152.63 C 94.69 152.69 94.26 152.75 93.82 152.80 L 95.30 149.06 C 97.33 149.66 99.37 150.06 101.45 150.43 C 100.74 148.39 99.85 146.44 98.98 144.46 C 98.26 145.99 97.55 147.53 96.84 149.07 L 95.49 148.73 C 96.76 147.11 97.10 142.29 99.78 142.65 Z" fill="#ffffff" />
<path d="M 75.91 143.70 L 76.07 143.66 C 75.99 147.86 77.37 152.19 76.47 156.25 C 73.27 152.86 69.82 149.73 66.34 146.63 C 66.71 150.27 67.28 153.83 67.39 157.49 C 64.78 154.38 65.76 148.86 64.64 145.00 C 65.40 144.97 66.17 144.94 66.93 144.90 C 69.65 147.82 72.59 150.51 75.57 153.16 C 75.26 150.11 74.91 147.07 74.38 144.06 C 74.89 143.95 75.40 143.83 75.91 143.70 Z" fill="#ffffff" />
<path d="M 88.61 143.44 C 92.99 144.90 93.18 153.13 88.54 154.38 C 85.96 154.98 83.19 154.86 80.56 155.00 C 80.56 151.12 80.31 147.35 79.72 143.52 C 82.60 143.30 85.76 142.86 88.61 143.44 Z" fill="#ffffff" />
<path d="M 107.54 142.77 C 108.12 142.85 108.70 142.93 109.28 143.02 C 108.91 146.47 108.73 149.94 108.61 153.41 C 111.41 153.52 114.21 153.63 117.02 153.62 C 116.98 154.15 116.95 154.68 116.92 155.21 C 113.66 154.78 110.39 154.62 107.10 154.51 C 107.35 150.60 107.56 146.69 107.54 142.77 Z" fill="#ffffff" />
<path d="M 119.97 143.89 C 120.46 143.62 120.96 143.36 121.47 143.11 C 121.33 145.19 121.15 147.27 120.99 149.35 C 124.20 147.64 127.21 144.10 130.98 144.28 C 128.91 145.73 126.76 147.04 124.61 148.35 C 126.31 151.02 128.03 153.68 129.76 156.33 C 129.02 156.18 128.27 156.03 127.52 155.87 C 126.26 153.56 124.86 151.33 123.43 149.12 C 122.51 149.71 121.58 150.30 120.66 150.90 C 120.57 152.47 120.48 154.03 120.40 155.60 C 119.85 155.36 119.29 155.11 118.73 154.87 C 119.37 151.23 119.46 147.54 119.97 143.89 Z" fill="#ffffff" />
<path d="M 60.98 145.44 C 61.30 148.76 62.35 152.14 62.26 155.47 C 61.58 157.61 58.72 158.15 56.79 158.42 C 55.21 158.56 53.01 158.52 52.31 156.78 C 51.20 153.57 50.80 150.04 50.42 146.68 C 53.46 148.51 51.94 154.26 54.08 156.82 C 56.11 157.73 58.95 156.90 60.77 155.78 C 61.21 152.67 60.01 149.18 59.46 146.11 C 59.96 145.88 60.47 145.66 60.98 145.44 Z" fill="#ffffff" />
<path d="M 81.53 144.49 C 83.68 144.44 85.95 144.22 88.09 144.55 C 91.13 146.09 91.43 151.94 88.06 153.25 C 86.09 153.66 84.02 153.69 82.02 153.83 C 81.86 150.72 81.69 147.60 81.53 144.49 Z" fill="#000000" />
<path d="M 137.90 145.63 C 141.29 146.20 145.90 146.09 148.59 148.40 C 145.46 148.17 142.42 147.53 139.33 146.95 C 139.05 148.24 138.78 149.54 138.50 150.83 C 140.66 151.14 142.83 151.45 145.00 151.73 C 144.66 152.13 144.31 152.54 143.97 152.94 C 142.10 152.60 140.23 152.27 138.36 151.93 C 138.05 153.83 137.75 155.74 137.46 157.64 C 136.99 157.39 136.52 157.15 136.04 156.90 C 136.77 153.16 137.22 149.38 137.90 145.63 Z" fill="#ffffff" />
<path d="M 44.01 149.32 C 48.70 149.50 50.66 157.31 46.82 159.82 C 44.34 161.14 41.33 161.56 38.64 162.35 C 37.91 158.49 37.02 154.67 35.77 150.95 C 38.45 150.33 41.25 149.40 44.01 149.32 Z" fill="#ffffff" />
<path d="M 164.79 152.17 C 164.48 152.67 164.18 153.17 163.87 153.67 C 161.32 151.45 158.74 149.56 155.24 151.22 C 152.26 152.91 152.16 157.10 154.93 159.08 C 157.80 161.17 160.23 159.67 163.31 159.23 C 162.28 162.43 156.78 161.77 154.52 160.42 C 150.53 158.29 150.39 152.62 154.17 150.23 C 158.11 148.06 161.40 150.14 164.79 152.17 Z" fill="#ffffff" />
<path d="M 44.10 150.54 C 47.17 151.50 48.38 156.04 46.46 158.50 C 44.66 159.85 41.98 160.13 39.87 160.77 C 39.13 157.74 38.39 154.71 37.64 151.68 C 39.75 151.22 41.94 150.60 44.10 150.54 Z" fill="#000000" />
<path d="M 93.36 154.18 L 94.00 153.86 C 95.13 154.43 95.13 154.94 94.00 155.37 L 93.17 154.91 L 93.36 154.18 Z" fill="#000000" />
<path d="M 146.26 157.40 C 148.06 156.25 149.21 158.93 147.09 159.37 C 145.94 159.06 145.66 158.40 146.26 157.40 Z" fill="#ffffff" />
<path d="M 97.02 161.11 C 99.20 161.03 101.38 160.94 103.55 160.86 C 102.49 161.90 101.42 162.93 100.34 163.97 C 99.24 163.01 98.13 162.06 97.02 161.11 Z" fill="#c9302f" />
<path d="M 93.11 161.14 C 95.95 163.04 98.55 164.94 100.34 167.94 C 102.69 164.56 106.43 160.33 111.01 161.29 C 119.73 161.83 128.43 162.88 137.01 164.56 C 127.16 169.54 117.02 174.60 107.77 180.64 C 105.00 182.43 102.62 184.41 100.37 186.81 C 98.00 184.37 95.45 182.23 92.58 180.41 C 83.41 174.48 73.44 169.49 63.70 164.57 C 73.41 162.64 83.22 161.57 93.11 161.14 Z" fill="#000000" />
<path d="M 165.32 161.91 C 167.10 160.77 168.30 163.52 166.13 163.88 C 165.00 163.57 164.73 162.91 165.32 161.91 Z" fill="#ffffff" />
</svg>