<?xml version="1.0" encoding="UTF-8" standalone="no"?>
<!DOCTYPE svg PUBLIC "-//W3C//DTD SVG 1.1//EN" "http://www.w3.org/Graphics/SVG/1.1/DTD/svg11.dtd">
<svg xmlns="http://www.w3.org/2000/svg" version="1.1" viewBox="0 0 200 200" width="200.0pt" height="200.0pt">
<path d="M 0.00 0.00 L 200.00 0.00 L 200.00 200.00 L 0.00 200.00 L 0.00 0.00 Z" fill="#ffffff" />
<path d="M 99.96 2.22 C 101.37 3.32 101.29 5.42 101.74 6.99 C 102.63 8.93 102.59 10.98 103.61 12.91 C 102.05 12.61 100.56 11.49 98.98 11.65 C 97.36 11.67 96.58 13.65 94.95 13.69 C 92.10 14.13 89.01 13.42 86.24 14.14 C 87.50 16.28 91.79 18.27 93.75 20.26 C 96.46 22.17 98.19 20.36 101.00 21.14 C 103.02 21.52 104.47 20.14 106.45 21.31 L 106.76 23.01 C 108.74 25.89 109.18 29.31 110.56 32.50 C 109.94 32.50 109.33 32.48 108.71 32.42 C 107.58 29.98 105.24 30.27 103.56 28.45 C 102.02 27.09 101.27 25.81 98.93 26.52 C 96.28 28.26 93.19 30.99 90.21 31.84 C 89.98 28.23 92.48 24.51 92.58 20.91 C 91.10 17.80 85.00 16.85 84.27 13.39 C 87.66 13.14 91.74 13.87 94.92 12.88 C 96.62 10.65 96.87 7.42 97.97 4.84 C 98.40 4.13 98.92 2.07 99.96 2.22 Z" fill="#fecc01" />
<path d="M 105.16 44.67 C 109.17 46.35 112.28 50.09 112.81 54.46 C 113.75 58.70 112.12 63.16 109.30 66.33 C 112.07 76.31 116.58 87.51 119.62 97.54 C 120.02 98.28 120.80 98.61 121.98 98.51 C 132.29 98.47 142.33 99.14 152.58 99.40 C 154.90 96.13 157.15 93.54 161.13 92.24 C 169.86 89.12 179.75 97.98 177.98 107.01 C 177.16 114.90 168.57 120.46 161.02 117.96 C 159.94 117.68 158.55 116.66 157.57 117.63 C 153.23 121.29 148.62 124.65 144.30 128.33 C 143.97 136.28 144.65 145.15 143.98 152.96 C 142.61 153.11 141.20 152.27 139.90 151.87 C 139.34 150.93 138.92 149.92 138.38 148.97 C 138.29 145.72 138.29 142.47 138.30 139.23 C 141.09 138.56 140.19 142.29 141.50 143.72 C 141.04 140.45 141.03 136.57 141.52 133.30 C 139.92 134.76 141.53 136.70 138.77 137.05 C 137.75 134.79 138.61 131.42 138.27 128.87 C 139.30 126.05 141.59 129.03 142.92 129.84 C 143.54 128.51 143.50 127.31 142.79 126.24 C 139.69 126.40 136.58 125.70 133.53 126.24 C 133.47 126.76 133.71 127.33 134.25 127.96 C 134.52 133.61 134.28 139.33 134.37 145.00 C 134.53 146.62 134.04 147.46 133.30 148.79 C 134.35 149.22 135.40 149.63 136.47 150.02 C 136.33 151.12 136.41 152.17 136.70 153.17 C 138.57 158.33 139.52 165.12 141.89 170.11 C 147.32 171.17 151.53 174.14 153.51 179.46 C 156.96 187.90 148.84 197.57 140.14 197.24 C 133.87 196.56 128.05 191.46 127.55 184.99 C 127.34 183.62 128.00 182.26 126.63 181.42 C 121.18 177.37 115.62 173.42 110.06 169.52 C 107.90 169.25 105.98 170.32 103.85 169.02 C 100.81 167.36 98.20 170.28 94.98 169.65 C 92.92 169.72 92.19 167.97 90.19 169.24 C 84.23 173.21 78.57 177.69 72.56 181.60 C 71.86 183.53 72.77 186.00 71.94 188.03 C 70.22 193.99 65.19 198.06 59.00 198.50 C 54.54 198.02 50.25 196.08 47.83 192.12 C 44.65 187.78 44.81 181.35 48.16 177.15 C 50.36 173.94 53.79 172.15 57.56 171.49 C 59.86 165.18 61.44 158.27 63.17 151.76 C 61.41 150.32 58.51 153.73 56.26 152.83 C 56.40 144.91 56.30 136.92 56.19 129.00 C 51.80 125.05 46.83 121.52 42.26 117.74 C 41.10 116.69 40.12 117.54 38.88 117.86 C 34.57 119.46 29.28 118.23 25.99 115.03 C 22.85 112.53 21.41 107.79 21.47 103.93 C 22.49 102.11 22.16 100.09 23.40 98.39 C 26.72 92.87 34.15 89.71 40.13 92.85 C 43.27 94.22 44.98 96.58 47.01 99.15 C 51.26 99.49 55.74 99.20 60.00 98.83 C 66.51 98.75 73.03 98.61 79.55 98.47 C 83.48 88.71 86.77 76.78 90.48 66.97 C 89.83 65.01 88.03 63.57 87.47 61.49 C 85.83 57.15 86.63 52.12 89.56 48.52 C 92.84 43.89 100.11 42.35 105.16 44.67 Z" fill="#1a171b" />
<path d="M 97.13 47.19 C 103.48 45.19 110.18 50.40 109.93 57.01 C 110.00 60.99 107.42 63.05 105.50 65.94 C 109.20 76.78 113.08 87.61 116.54 98.53 C 116.90 99.50 117.25 101.22 118.33 101.59 C 130.48 101.99 142.50 102.35 154.66 102.58 C 156.58 99.62 157.85 96.83 161.47 95.57 C 164.45 94.97 168.57 94.84 170.98 97.04 C 173.33 99.06 174.95 101.82 174.85 105.00 C 175.17 109.56 171.53 114.29 167.02 115.01 C 164.08 115.97 160.75 114.20 158.13 113.18 C 153.43 116.77 148.84 120.51 144.23 124.18 C 142.24 125.79 140.28 125.12 137.94 125.10 C 143.67 120.11 149.85 115.56 155.74 110.74 C 156.67 110.13 157.73 108.87 158.91 108.98 C 160.89 110.53 162.23 112.08 165.00 111.83 C 168.51 112.08 171.05 109.09 171.63 105.89 C 172.08 101.66 168.25 97.88 163.98 98.52 C 159.94 99.10 158.27 101.97 157.77 105.75 C 149.96 106.14 141.86 105.36 134.00 105.40 C 129.91 105.50 125.89 105.03 121.82 104.76 L 121.42 103.51 C 120.76 103.46 120.12 103.48 119.49 103.58 L 119.06 104.31 C 118.05 104.55 117.01 104.64 115.93 104.58 C 115.33 104.11 114.73 103.63 114.14 103.15 L 114.31 102.05 C 110.19 89.50 105.40 76.47 101.57 63.98 C 103.45 62.52 105.32 61.51 106.26 59.17 C 108.06 54.97 104.41 50.10 100.00 50.02 C 95.94 50.01 92.34 53.90 93.17 58.03 C 93.46 61.21 96.34 62.14 98.14 64.06 C 96.30 71.19 93.21 78.10 91.27 85.18 C 90.15 87.91 89.09 90.63 88.40 93.51 C 87.46 97.27 85.40 100.47 84.88 104.32 C 84.24 103.77 83.68 103.13 83.20 102.39 C 81.74 102.52 81.24 103.27 81.31 104.67 C 70.54 105.51 59.80 105.44 49.00 105.82 C 46.73 105.81 44.38 106.11 42.13 105.78 C 41.42 103.75 41.36 101.88 39.64 100.34 C 36.51 97.31 30.94 98.00 28.95 101.99 C 26.39 106.34 29.96 112.20 35.00 111.85 C 37.85 112.07 38.98 110.31 41.06 108.84 C 42.62 109.38 43.94 110.76 45.25 111.74 C 50.15 115.62 54.97 119.62 59.98 123.34 L 60.65 124.07 C 59.89 125.41 57.43 126.24 56.30 124.75 C 51.42 120.97 46.67 116.96 41.74 113.28 C 38.92 114.13 36.45 116.10 33.09 114.98 C 29.18 114.50 25.50 110.98 25.08 107.01 C 24.22 102.99 26.09 98.76 29.55 96.56 C 31.85 94.86 35.20 95.10 37.89 95.47 C 41.56 96.46 43.11 99.26 44.89 102.31 L 45.87 102.60 C 57.81 102.29 69.72 102.00 81.66 101.59 C 83.24 99.55 83.72 96.55 84.56 94.14 C 87.76 84.77 91.08 75.37 94.13 65.97 C 93.66 64.11 91.45 63.08 90.80 61.13 C 87.89 55.75 91.33 48.67 97.13 47.19 Z" fill="#ffffff" />
<path d="M 100.00 50.02 C 104.41 50.10 108.06 54.97 106.26 59.17 C 105.32 61.51 103.45 62.52 101.57 63.98 C 105.40 76.47 110.19 89.50 114.31 102.05 L 114.14 103.15 C 112.73 103.59 110.63 104.41 110.48 106.14 C 110.01 108.64 112.62 110.52 114.95 109.92 C 114.87 108.52 112.84 109.03 112.41 107.59 C 112.29 106.51 112.97 105.34 114.00 104.99 C 115.31 105.40 114.99 106.77 116.58 106.59 C 116.68 105.74 116.46 105.07 115.93 104.58 C 117.01 104.64 118.05 104.55 119.06 104.31 C 119.15 106.98 115.47 109.27 116.39 111.55 C 117.22 111.69 118.06 111.82 118.90 111.93 C 119.44 114.12 121.76 115.49 123.59 116.48 C 124.32 114.78 126.70 113.28 126.58 111.43 C 123.70 109.90 123.62 115.06 121.20 113.86 C 121.15 112.37 123.03 111.12 123.63 109.78 C 123.83 108.97 122.34 108.24 121.64 108.52 C 120.84 109.63 120.62 111.33 118.88 111.07 C 118.56 109.06 120.76 106.47 121.82 104.76 C 125.89 105.03 129.91 105.50 134.00 105.40 C 141.86 105.36 149.96 106.14 157.77 105.75 C 158.27 101.97 159.94 99.10 163.98 98.52 C 168.25 97.88 172.08 101.66 171.63 105.89 C 171.05 109.09 168.51 112.08 165.00 111.83 C 162.23 112.08 160.89 110.53 158.91 108.98 C 157.73 108.87 156.67 110.13 155.74 110.74 C 149.85 115.56 143.67 120.11 137.94 125.10 C 134.45 125.16 130.45 125.63 127.08 124.82 C 125.65 122.67 123.97 120.66 122.43 118.57 C 117.75 114.31 112.41 111.03 106.00 110.31 C 102.08 109.21 97.70 109.44 93.91 110.93 L 93.20 111.23 C 91.75 111.42 90.41 111.46 89.12 112.23 C 85.82 113.96 82.22 115.92 79.59 118.60 C 78.04 120.67 76.41 122.71 74.99 124.88 C 72.69 125.87 69.40 125.30 67.04 124.58 C 64.91 125.34 61.83 124.53 59.98 123.34 C 54.97 119.62 50.15 115.62 45.25 111.74 C 43.94 110.76 42.62 109.38 41.06 108.84 C 38.98 110.31 37.85 112.07 35.00 111.85 C 29.96 112.20 26.39 106.34 28.95 101.99 C 30.94 98.00 36.51 97.31 39.64 100.34 C 41.36 101.88 41.42 103.75 42.13 105.78 C 44.38 106.11 46.73 105.81 49.00 105.82 C 59.80 105.44 70.54 105.51 81.31 104.67 C 83.09 105.67 83.36 108.39 84.47 110.05 L 84.20 111.10 C 81.53 112.34 81.29 109.50 81.38 107.61 C 80.42 107.22 79.48 106.78 78.57 106.29 C 77.88 107.07 78.14 108.77 78.21 109.75 C 79.81 110.63 80.43 112.13 81.48 113.51 C 83.35 113.75 84.10 110.70 85.98 110.73 C 88.45 110.59 90.32 108.66 89.66 106.12 C 89.00 103.84 86.79 104.14 84.88 104.32 C 85.40 100.47 87.46 97.27 88.40 93.51 C 89.09 90.63 90.15 87.91 91.27 85.18 C 93.21 78.10 96.30 71.19 98.14 64.06 C 96.34 62.14 93.46 61.21 93.17 58.03 C 92.34 53.90 95.94 50.01 100.00 50.02 Z" fill="#fecc01" />
<path d="M 98.38 98.36 C 99.08 98.31 99.80 98.32 100.53 98.38 C 100.45 101.42 100.72 104.47 100.61 107.49 C 97.53 106.88 94.27 108.35 91.39 107.60 C 91.04 105.74 92.00 104.52 91.40 102.48 C 92.73 102.38 94.43 101.84 95.67 102.41 C 97.12 103.32 96.17 106.54 98.21 106.14 C 99.11 103.83 98.23 100.83 98.38 98.36 Z" fill="#1a171b" />
<path d="M 83.20 102.39 C 83.68 103.13 84.24 103.77 84.88 104.32 C 86.79 104.14 89.00 103.84 89.66 106.12 C 90.32 108.66 88.45 110.59 85.98 110.73 C 84.10 110.70 83.35 113.75 81.48 113.51 C 80.43 112.13 79.81 110.63 78.21 109.75 C 78.14 108.77 77.88 107.07 78.57 106.29 C 79.48 106.78 80.42 107.22 81.38 107.61 C 81.29 109.50 81.53 112.34 84.20 111.10 L 84.47 110.05 C 83.36 108.39 83.09 105.67 81.31 104.67 C 81.24 103.27 81.74 102.52 83.20 102.39 Z" fill="#1a171b" />
<path d="M 114.14 103.15 C 114.73 103.63 115.33 104.11 115.93 104.58 C 116.46 105.07 116.68 105.74 116.58 106.59 C 114.99 106.77 115.31 105.40 114.00 104.99 C 112.97 105.34 112.29 106.51 112.41 107.59 C 112.84 109.03 114.87 108.52 114.95 109.92 C 112.62 110.52 110.01 108.64 110.48 106.14 C 110.63 104.41 112.73 103.59 114.14 103.15 Z" fill="#1a171b" />
<path d="M 119.49 103.58 C 120.12 103.48 120.76 103.46 121.42 103.51 L 121.82 104.76 C 120.76 106.47 118.56 109.06 118.88 111.07 C 120.62 111.33 120.84 109.63 121.64 108.52 C 122.34 108.24 123.83 108.97 123.63 109.78 C 123.03 111.12 121.15 112.37 121.20 113.86 C 123.62 115.06 123.70 109.90 126.58 111.43 C 126.70 113.28 124.32 114.78 123.59 116.48 C 121.76 115.49 119.44 114.12 118.90 111.93 C 118.06 111.82 117.22 111.69 116.39 111.55 C 115.47 109.27 119.15 106.98 119.06 104.31 L 119.49 103.58 Z" fill="#1a171b" />
<path d="M 85.25 106.18 C 87.00 104.00 89.19 108.83 87.00 109.17 C 85.83 108.91 85.19 107.27 85.25 106.18 Z" fill="#fecc01" />
<path d="M 101.01 110.40 C 111.10 110.29 121.22 115.92 126.03 124.84 C 124.60 125.34 123.34 125.38 122.24 124.97 L 122.09 122.88 C 119.66 122.33 119.76 120.19 118.56 118.38 C 117.81 118.30 116.97 118.63 116.04 119.37 C 114.78 118.74 113.65 118.21 112.21 118.20 C 112.78 119.37 114.07 120.16 114.87 121.19 C 116.30 122.22 115.28 124.55 114.01 125.24 C 105.33 125.15 96.64 125.21 87.96 125.25 C 86.60 125.09 85.86 123.28 86.11 122.09 C 87.06 120.67 88.63 119.58 89.74 118.27 C 87.94 118.12 86.70 119.29 85.02 119.32 C 84.48 118.87 83.90 118.53 83.29 118.32 C 82.38 120.59 80.54 122.00 79.48 123.97 L 78.96 125.06 C 78.13 125.21 77.29 125.32 76.45 125.38 L 76.36 124.35 C 80.15 117.65 86.16 113.98 93.20 111.23 L 93.91 110.93 C 96.29 110.74 98.62 110.35 101.01 110.40 Z" fill="#ffffff" />
<path d="M 75.46 111.51 C 76.76 111.47 77.66 111.23 78.53 112.41 C 80.96 115.14 77.39 119.54 74.23 117.74 C 71.71 115.84 72.92 112.65 75.46 111.51 Z" fill="#1a171b" />
<path d="M 109.91 115.07 C 109.21 116.70 108.12 119.26 107.09 120.62 C 103.09 120.08 98.77 119.89 94.82 120.79 C 93.36 120.15 92.68 116.63 92.02 115.08 C 96.86 110.02 104.73 110.98 109.91 115.07 Z" fill="#1a171b" />
<path d="M 131.91 113.08 C 132.70 114.38 130.84 114.76 130.41 115.77 C 131.32 117.42 132.49 119.10 130.69 120.68 C 128.41 123.37 124.25 120.04 125.17 117.17 C 126.41 115.56 128.18 115.01 129.55 113.55 C 130.10 112.87 131.48 111.59 131.91 113.08 Z" fill="#1a171b" />
<path d="M 74.99 113.11 C 76.31 112.93 77.97 114.33 77.72 115.74 C 76.38 117.70 73.36 114.59 74.99 113.11 Z" fill="#fecc01" />
<path d="M 69.47 116.54 C 71.49 117.62 72.46 119.38 74.82 120.16 C 74.92 120.96 74.54 121.76 73.68 122.57 C 71.76 120.15 67.10 119.42 67.38 116.12 C 67.50 114.30 69.17 115.16 69.47 116.54 Z" fill="#1a171b" />
<path d="M 128.21 117.10 C 131.33 116.21 130.00 119.68 127.91 119.89 C 125.76 119.64 126.95 117.69 128.21 117.10 Z" fill="#fecc01" />
<path d="M 79.48 123.97 C 80.32 126.41 81.60 125.64 83.58 125.60 C 83.59 126.03 83.58 126.46 83.54 126.89 C 82.14 126.06 80.86 126.01 79.71 126.73 C 78.88 129.78 80.17 133.64 78.92 136.71 C 77.88 136.68 76.90 136.85 75.99 137.21 C 74.96 138.38 75.49 140.52 75.38 142.00 C 75.46 143.58 75.10 145.44 76.38 146.65 C 77.78 148.13 78.57 146.59 79.21 145.40 C 80.76 145.67 83.05 146.45 83.35 144.16 C 83.78 144.54 84.21 144.91 84.65 145.28 C 83.40 146.22 82.06 145.89 81.60 147.73 C 79.37 147.33 77.30 147.80 75.06 147.88 L 74.16 147.35 C 75.18 146.97 75.62 146.19 75.48 145.03 C 75.12 139.01 75.67 132.84 75.20 126.79 C 73.51 125.77 72.05 126.14 71.19 127.91 L 71.12 126.26 C 73.02 125.96 74.73 126.48 76.45 125.38 C 77.29 125.32 78.13 125.21 78.96 125.06 L 79.48 123.97 Z" fill="#fecc01" />
<path d="M 62.59 125.37 C 64.02 125.81 65.01 126.64 66.62 126.56 C 67.58 128.27 66.89 129.99 66.69 131.83 C 65.30 130.14 66.09 127.17 63.00 127.24 C 60.28 126.98 60.08 130.14 60.86 131.98 C 62.15 134.16 64.54 134.09 66.08 135.93 C 69.02 139.38 68.92 144.63 66.20 148.17 C 65.32 149.04 64.25 150.97 62.85 150.28 C 63.63 148.22 65.22 147.64 64.85 144.98 C 65.09 142.06 62.15 142.04 60.32 140.70 C 56.90 138.80 56.83 134.46 57.28 131.06 C 57.51 128.13 59.51 125.48 62.59 125.37 Z" fill="#ffffff" />
<path d="M 77.97 125.83 C 80.16 127.59 79.21 131.48 79.38 134.01 C 78.86 136.35 75.01 135.76 75.34 133.05 C 75.55 130.88 74.52 125.67 77.97 125.83 Z" fill="#1a171b" />
<path d="M 86.45 126.28 C 88.97 125.72 91.46 125.83 94.01 125.87 C 96.08 125.79 96.60 126.84 95.82 128.65 C 94.28 127.94 93.52 126.48 91.59 127.59 C 91.37 129.56 91.01 132.28 91.78 134.13 C 92.64 134.08 93.27 133.45 93.68 132.24 C 93.92 134.44 93.86 136.57 93.60 138.77 C 93.12 137.68 93.46 135.78 91.80 136.01 C 91.01 137.84 91.30 141.31 91.72 143.28 C 94.10 144.58 95.83 142.16 96.70 140.24 C 96.52 141.46 97.07 143.99 95.80 144.67 C 93.15 145.24 89.78 145.54 87.15 145.06 C 87.69 139.40 87.37 133.61 87.39 127.92 C 87.07 127.38 86.76 126.83 86.45 126.28 Z" fill="#ffffff" />
<path d="M 99.43 126.32 C 102.53 125.71 108.53 124.92 110.64 127.89 C 111.05 131.01 111.61 133.68 108.38 135.41 C 108.38 137.59 110.27 139.80 110.75 142.01 C 111.24 143.46 112.41 146.05 114.20 144.30 C 114.68 138.38 114.56 132.11 114.20 126.16 C 115.58 125.59 117.36 125.93 118.79 126.18 C 118.21 132.36 118.22 139.63 118.78 145.82 C 116.83 145.66 114.75 145.64 112.88 145.00 C 111.33 144.35 109.82 145.66 108.15 144.74 C 106.61 142.76 105.83 137.98 104.24 136.35 C 103.60 138.80 103.23 142.21 104.73 144.41 C 103.32 145.04 100.96 144.46 99.33 144.71 C 100.09 141.44 99.72 138.32 99.80 135.00 C 99.74 132.01 100.03 129.26 99.43 126.32 Z" fill="#ffffff" />
<path d="M 122.22 126.16 C 124.91 125.45 128.18 125.82 130.93 126.18 C 131.73 127.03 131.80 127.94 131.13 128.92 C 129.57 128.46 127.74 126.12 126.48 128.36 C 126.50 130.78 126.49 133.19 126.49 135.61 C 128.09 135.76 128.57 134.29 129.56 133.31 C 129.19 136.05 129.12 138.98 129.48 141.72 C 128.31 140.27 129.21 136.75 126.45 137.37 C 126.47 140.42 126.61 143.47 126.51 146.51 C 124.77 147.02 123.32 146.88 122.16 146.09 C 122.75 143.38 122.52 140.75 122.56 138.00 C 122.48 133.99 122.80 130.13 122.22 126.16 Z" fill="#ffffff" />
<path d="M 133.53 126.24 C 136.58 125.70 139.69 126.40 142.79 126.24 C 143.50 127.31 143.54 128.51 142.92 129.84 C 141.59 129.03 139.30 126.05 138.27 128.87 C 138.61 131.42 137.75 134.79 138.77 137.05 C 141.53 136.70 139.92 134.76 141.52 133.30 C 141.03 136.57 141.04 140.45 141.50 143.72 C 140.19 142.29 141.09 138.56 138.30 139.23 C 138.29 142.47 138.29 145.72 138.38 148.97 C 137.86 149.47 137.22 149.82 136.47 150.02 C 135.40 149.63 134.35 149.22 133.30 148.79 C 134.04 147.46 134.53 146.62 134.37 145.00 C 134.28 139.33 134.52 133.61 134.25 127.96 C 133.71 127.33 133.47 126.76 133.53 126.24 Z" fill="#ffffff" />
<path d="M 75.20 126.79 C 75.67 132.84 75.12 139.01 75.48 145.03 C 75.62 146.19 75.18 146.97 74.16 147.35 C 73.27 147.38 70.86 148.33 70.37 147.41 C 71.87 145.78 71.20 144.02 71.34 142.00 C 71.25 137.31 71.51 132.59 71.19 127.91 C 72.05 126.14 73.51 125.77 75.20 126.79 Z" fill="#ffffff" />
<path d="M 79.71 126.73 C 80.86 126.01 82.14 126.06 83.54 126.89 C 83.13 132.62 83.47 138.42 83.35 144.16 C 83.05 146.45 80.76 145.67 79.21 145.40 C 79.24 142.67 79.89 139.27 78.92 136.71 C 80.17 133.64 78.88 129.78 79.71 126.73 Z" fill="#ffffff" />
<path d="M 104.28 127.27 C 108.56 126.77 108.57 134.66 104.39 134.66 C 103.48 132.89 103.42 129.04 104.28 127.27 Z" fill="#1a171b" />
<path d="M 75.99 137.21 C 76.90 136.85 77.88 136.68 78.92 136.71 C 79.89 139.27 79.24 142.67 79.21 145.40 C 78.57 146.59 77.78 148.13 76.38 146.65 C 75.10 145.44 75.46 143.58 75.38 142.00 C 75.49 140.52 74.96 138.38 75.99 137.21 Z" fill="#1a171b" />
<path d="M 57.30 145.14 C 57.88 145.06 58.30 145.40 58.54 146.15 C 59.08 147.88 61.04 148.54 61.37 150.29 C 59.67 150.78 58.30 150.70 57.26 150.03 C 57.28 148.40 57.27 146.77 57.30 145.14 Z" fill="#ffffff" />
<path d="M 91.23 146.31 C 93.51 145.99 95.69 145.63 98.01 145.78 C 98.74 145.92 98.93 146.50 98.57 147.53 C 96.76 147.77 94.72 147.20 93.02 147.84 C 92.97 149.40 95.66 150.21 96.61 151.34 C 97.24 153.41 95.30 155.20 95.82 156.98 C 97.36 156.76 98.61 155.30 99.95 154.55 C 102.13 154.36 103.46 157.57 105.57 157.61 C 105.13 155.69 104.21 154.10 104.17 152.06 C 104.34 150.26 108.03 149.83 107.94 147.97 C 106.22 147.37 104.21 147.76 102.40 147.53 C 102.02 146.50 102.21 145.92 102.99 145.81 C 105.50 145.63 108.14 145.77 110.56 146.49 C 111.58 147.64 111.89 149.29 112.92 150.48 C 115.91 150.45 118.99 148.01 121.99 147.48 C 124.12 147.56 126.18 148.27 128.25 148.85 L 128.68 149.91 C 126.71 155.22 123.31 160.33 118.75 163.76 C 116.54 165.51 114.03 166.38 111.53 167.64 C 109.57 168.47 107.23 169.83 105.07 169.12 L 105.07 168.20 C 106.92 167.36 109.04 166.86 110.76 165.76 C 111.33 164.68 109.56 163.73 109.05 162.88 C 108.37 161.85 108.03 160.62 107.49 159.51 C 102.90 160.42 99.50 160.52 94.90 159.43 C 93.35 160.49 92.76 163.46 91.36 165.02 C 92.94 167.17 96.80 167.14 98.07 169.00 C 96.23 169.90 93.80 168.85 91.99 168.23 C 89.13 167.01 86.36 165.97 83.97 164.01 C 79.02 160.84 75.69 155.12 73.38 149.84 C 73.76 149.08 74.31 148.43 75.06 147.88 C 77.30 147.80 79.37 147.33 81.60 147.73 C 83.70 148.64 85.75 149.58 87.97 150.17 C 89.56 149.48 89.75 146.99 91.23 146.31 Z" fill="#ffffff" />
<path d="M 72.74 149.28 C 73.67 150.58 73.32 152.49 74.36 153.82 C 76.07 156.36 77.69 159.01 79.59 161.40 C 80.88 163.10 82.90 163.67 84.18 165.36 C 77.62 170.06 71.06 174.83 64.43 179.42 C 63.75 180.86 65.94 182.27 65.64 183.97 C 66.49 188.18 62.89 191.39 59.00 191.73 C 56.34 191.66 53.83 189.83 52.62 187.53 C 51.80 184.46 52.15 181.78 54.64 179.66 C 56.84 177.52 59.26 178.27 62.01 178.40 L 62.67 177.84 C 64.89 172.00 65.94 165.91 67.91 160.00 C 68.36 156.42 70.44 153.19 70.25 149.65 L 70.66 149.46 C 71.35 149.08 72.04 149.02 72.74 149.28 Z" fill="#fecc01" />
<path d="M 122.46 149.43 C 122.39 151.00 122.04 152.52 121.69 154.05 C 122.23 154.93 122.59 155.83 122.80 156.75 C 121.02 157.72 119.28 158.26 118.11 160.03 C 117.31 160.79 116.79 162.54 115.62 162.65 C 115.45 158.83 112.51 161.86 110.33 161.69 C 110.89 159.45 115.55 158.49 114.75 156.04 C 114.36 154.82 114.40 153.83 114.86 153.07 C 115.86 153.34 116.86 153.55 117.88 153.70 C 119.74 153.11 120.47 149.65 122.46 149.43 Z" fill="#1a171b" />
<path d="M 67.32 150.31 C 68.18 149.69 69.15 149.47 70.25 149.65 C 70.44 153.19 68.36 156.42 67.91 160.00 C 65.94 165.91 64.89 172.00 62.67 177.84 L 62.01 178.40 C 59.26 178.27 56.84 177.52 54.64 179.66 C 52.15 181.78 51.80 184.46 52.62 187.53 C 53.83 189.83 56.34 191.66 59.00 191.73 C 62.89 191.39 66.49 188.18 65.64 183.97 C 65.94 182.27 63.75 180.86 64.43 179.42 C 71.06 174.83 77.62 170.06 84.18 165.36 C 85.51 165.50 86.44 166.03 86.97 166.96 L 86.28 168.00 C 80.42 172.31 74.06 176.28 68.49 180.92 C 68.78 183.43 69.09 186.03 68.46 188.54 C 67.28 190.91 65.59 192.97 63.15 194.12 C 59.17 195.59 54.26 194.93 51.43 191.58 C 47.50 187.71 48.03 180.69 52.34 177.31 C 54.67 175.13 57.34 174.76 60.40 174.53 C 61.58 170.34 62.45 166.12 63.93 162.00 C 65.31 158.16 65.72 154.04 67.32 150.31 Z" fill="#ffffff" />
<path d="M 79.30 150.18 C 81.08 150.12 81.90 152.80 83.33 153.69 C 84.55 153.60 85.72 153.23 86.94 153.09 C 86.98 154.39 86.81 155.72 86.43 157.09 C 87.37 158.85 90.76 159.61 90.68 161.65 C 89.13 161.71 87.27 159.95 86.05 160.85 L 85.57 162.76 C 83.22 159.77 81.76 158.16 78.34 156.34 C 78.62 155.58 79.09 154.86 79.76 154.19 C 79.59 152.86 79.44 151.52 79.30 150.18 Z" fill="#1a171b" />
<path d="M 132.53 150.40 C 134.84 158.23 136.79 165.62 139.37 173.58 C 144.48 173.15 148.62 175.70 150.43 180.46 C 150.88 183.14 151.15 187.01 149.25 189.22 C 147.06 191.87 144.69 194.01 141.00 193.67 C 136.85 194.10 133.61 191.45 131.64 188.05 C 130.93 185.43 130.78 182.97 130.71 180.28 C 125.46 176.56 120.28 172.67 114.95 169.08 C 114.24 168.72 113.95 168.06 114.07 167.10 C 114.74 166.45 115.70 166.19 116.94 166.33 C 122.82 170.68 129.00 174.75 134.79 179.21 C 134.79 181.47 133.63 183.33 134.38 185.69 C 135.70 190.48 142.03 191.89 145.53 188.54 C 148.74 185.23 147.94 179.24 143.49 177.49 C 141.28 176.54 139.54 177.28 137.35 177.61 C 135.28 174.80 135.44 170.19 134.06 166.89 C 131.75 161.67 131.43 155.93 129.24 150.72 C 129.88 148.78 130.98 148.67 132.53 150.40 Z" fill="#ffffff" />
<path d="M 128.91 151.39 L 129.24 150.72 C 131.43 155.93 131.75 161.67 134.06 166.89 C 135.44 170.19 135.28 174.80 137.35 177.61 C 139.54 177.28 141.28 176.54 143.49 177.49 C 147.94 179.24 148.74 185.23 145.53 188.54 C 142.03 191.89 135.70 190.48 134.38 185.69 C 133.63 183.33 134.79 181.47 134.79 179.21 C 129.00 174.75 122.82 170.68 116.94 166.33 C 117.23 165.78 117.62 165.36 118.11 165.06 C 123.33 161.73 126.30 156.84 128.91 151.39 Z" fill="#fecc01" />
</svg>