<?xml version="1.0" encoding="UTF-8" standalone="no"?>
<!DOCTYPE svg PUBLIC "-//W3C//DTD SVG 1.1//EN" "http://www.w3.org/Graphics/SVG/1.1/DTD/svg11.dtd">
<svg xmlns="http://www.w3.org/2000/svg" version="1.1" viewBox="0 0 200 200" width="200.0pt" height="200.0pt">
<path d="M 0.00 0.00 L 200.00 0.00 L 200.00 200.00 L 0.00 200.00 L 0.00 0.00 Z" fill="#ffffff" />
<path d="M 100.00 4.84 C 116.68 4.93 133.23 7.00 149.18 11.99 C 149.22 17.16 149.11 22.00 151.16 26.86 C 154.15 34.48 160.15 40.07 167.52 43.41 C 167.51 66.95 167.53 90.49 167.51 114.03 C 167.38 131.49 161.28 148.66 150.20 162.17 C 137.45 177.91 118.89 189.32 99.82 195.74 C 76.98 188.18 54.45 172.80 42.45 151.53 C 35.82 139.89 32.43 126.38 32.48 113.00 C 32.47 89.81 32.49 66.62 32.47 43.44 C 38.35 40.49 43.44 36.49 46.65 30.64 C 50.05 24.90 50.61 18.67 50.43 12.13 C 66.48 6.97 83.18 4.93 100.00 4.84 Z" fill="#000000" />
<path d="M 128.45 9.11 C 127.81 10.02 127.17 10.92 126.52 11.83 L 124.28 9.90 C 123.55 10.36 122.87 10.90 122.19 11.42 L 119.20 10.02 C 118.10 15.79 117.45 21.62 116.47 27.41 C 117.46 27.56 118.45 27.70 119.44 27.85 C 120.11 23.79 120.67 19.73 121.06 15.64 C 123.47 20.07 125.45 24.69 127.68 29.22 C 128.62 29.33 129.57 29.44 130.51 29.55 C 131.39 24.01 132.25 18.47 133.01 12.91 C 131.16 12.01 129.98 11.25 128.88 9.49 C 134.92 10.43 140.84 11.90 146.71 13.60 C 146.88 18.77 147.27 23.73 149.41 28.52 C 151.01 32.41 153.56 35.53 156.21 38.73 C 138.29 32.17 119.07 29.00 100.00 29.21 C 80.75 29.01 61.31 32.19 43.25 38.89 C 46.47 35.25 49.32 31.46 50.87 26.79 C 52.50 22.57 52.70 18.24 52.69 13.77 C 77.53 6.19 102.87 5.84 128.45 9.11 Z" fill="#ffffff" />
<path d="M 80.24 10.59 C 81.17 10.34 82.12 10.11 83.07 9.90 C 83.43 14.72 83.89 19.52 84.36 24.33 C 86.12 24.26 87.89 24.19 89.66 24.13 C 89.68 25.07 89.70 26.01 89.71 26.95 C 87.03 27.18 84.35 27.38 81.67 27.62 C 81.27 21.94 80.39 16.27 80.24 10.59 Z" fill="#000000" />
<path d="M 92.13 9.43 L 92.99 9.43 C 96.53 9.42 100.06 9.40 103.59 9.56 C 102.42 14.77 98.29 19.12 95.48 23.76 C 97.87 23.75 100.26 23.74 102.65 23.71 C 102.88 24.68 103.10 25.65 103.33 26.63 C 99.44 26.75 95.55 26.76 91.67 26.64 C 92.53 21.41 97.01 16.94 99.68 12.41 C 97.14 12.40 94.60 12.40 92.06 12.39 L 92.13 9.43 Z" fill="#000000" />
<path d="M 106.40 9.38 C 109.36 9.61 112.33 9.83 115.29 10.10 C 115.25 11.04 115.21 11.99 115.18 12.94 C 113.22 12.83 111.26 12.71 109.30 12.58 C 109.05 13.82 108.81 15.07 108.57 16.31 C 110.35 16.45 112.12 16.58 113.90 16.72 C 113.87 17.69 113.84 18.65 113.82 19.62 C 112.07 19.50 110.33 19.37 108.59 19.24 C 108.50 20.86 108.42 22.48 108.34 24.10 C 110.34 24.19 112.33 24.28 114.32 24.39 C 114.26 25.38 114.20 26.38 114.14 27.38 C 111.14 27.20 108.14 26.91 105.14 26.63 C 105.55 20.87 105.76 15.11 106.40 9.38 Z" fill="#000000" />
<path d="M 66.61 12.58 C 69.25 11.83 72.28 11.22 75.01 11.76 C 77.87 12.66 78.72 16.79 77.23 19.10 C 75.74 20.57 73.15 20.96 71.20 21.62 C 71.73 23.97 72.33 26.36 72.56 28.77 L 69.92 29.89 C 68.81 24.14 67.38 18.39 66.61 12.58 Z" fill="#000000" />
<path d="M 124.52 12.69 L 124.96 12.49 C 126.70 12.52 128.45 12.55 130.20 12.54 C 129.48 16.43 128.96 20.35 128.30 24.25 C 126.63 20.62 125.04 16.97 123.15 13.44 C 123.61 13.19 124.06 12.93 124.52 12.69 Z" fill="#ffffff" />
<path d="M 70.26 14.68 C 71.56 14.49 72.88 14.40 74.20 14.37 C 74.59 15.29 74.98 16.21 75.35 17.14 C 73.75 17.69 72.14 18.23 70.52 18.72 C 70.41 17.38 70.27 16.02 70.26 14.68 Z" fill="#ffffff" />
<path d="M 90.30 31.76 C 95.54 31.14 100.92 31.50 106.19 31.38 C 106.43 39.28 106.29 47.17 106.30 55.08 C 100.72 57.69 95.37 60.60 90.11 63.80 C 90.32 53.14 89.86 42.40 90.30 31.76 Z" fill="#c20016" />
<path d="M 87.79 31.74 C 87.81 40.83 87.72 49.92 87.85 59.00 C 87.81 61.06 87.94 63.29 87.41 65.28 C 82.19 69.48 76.59 73.14 71.62 77.69 C 71.61 62.99 71.66 48.29 71.60 33.58 C 76.96 32.67 82.37 32.18 87.79 31.74 Z" fill="#0000b2" />
<path d="M 108.59 31.53 C 113.97 31.88 119.33 32.37 124.68 33.01 C 124.75 38.13 124.74 43.24 124.65 48.35 C 119.15 49.95 113.85 51.88 108.58 54.12 C 108.56 46.59 108.55 39.06 108.59 31.53 Z" fill="#0000b2" />
<path d="M 127.27 33.57 C 132.66 34.10 138.00 35.58 143.27 36.80 C 143.26 39.23 143.26 41.67 143.25 44.10 C 137.82 45.05 132.48 46.21 127.14 47.60 C 127.20 42.93 126.91 38.22 127.27 33.57 Z" fill="#c20016" />
<path d="M 69.40 33.93 C 69.39 49.24 69.49 64.55 69.35 79.85 C 63.42 85.45 58.20 91.67 53.27 98.16 C 53.21 81.11 53.30 64.05 53.23 47.00 C 53.26 43.97 52.93 40.72 53.59 37.76 C 58.58 35.76 64.16 35.05 69.40 33.93 Z" fill="#c20016" />
<path d="M 145.58 37.40 C 150.51 38.94 155.37 40.62 160.19 42.46 C 155.25 42.91 150.32 43.33 145.38 43.79 C 145.45 41.66 145.51 39.53 145.58 37.40 Z" fill="#0000b2" />
<path d="M 50.88 38.33 C 50.85 58.56 50.87 78.81 50.88 99.03 C 50.98 102.63 48.73 105.03 47.06 108.03 C 42.69 115.11 39.71 122.73 36.64 130.43 C 35.40 124.35 34.71 118.20 34.72 112.00 C 34.72 89.59 34.75 67.17 34.70 44.76 C 39.96 42.25 45.36 40.19 50.88 38.33 Z" fill="#0000b2" />
<path d="M 165.26 44.67 C 165.27 53.87 165.26 63.07 165.27 72.28 C 146.90 72.29 128.63 76.70 112.45 85.44 C 94.77 94.94 79.75 109.60 70.46 127.45 C 63.56 140.60 60.09 155.23 60.04 170.07 C 51.92 162.43 45.20 153.46 40.80 143.17 C 39.74 140.58 38.42 137.78 38.12 134.97 C 38.45 131.63 40.03 128.34 41.17 125.19 C 51.83 98.07 72.45 75.85 97.88 61.87 C 118.48 50.47 141.77 44.87 165.26 44.67 Z" fill="#ffffff" />
<path d="M 152.47 49.56 C 155.99 55.48 159.08 61.65 162.43 67.67 C 161.26 67.75 160.08 67.83 158.90 67.91 C 158.04 66.32 157.16 64.72 156.28 63.13 C 153.81 63.39 151.35 63.65 148.89 63.90 C 148.32 65.71 147.75 67.52 147.19 69.34 C 146.06 69.44 144.92 69.54 143.79 69.64 C 145.71 63.25 147.62 56.85 149.54 50.46 C 150.52 50.16 151.50 49.86 152.47 49.56 Z" fill="#000000" />
<path d="M 138.48 51.58 C 139.91 57.78 141.08 64.03 142.24 70.28 C 141.16 70.39 140.08 70.50 139.00 70.61 C 137.99 64.55 136.72 58.53 135.41 52.52 C 136.43 52.21 137.46 51.90 138.48 51.58 Z" fill="#000000" />
<path d="M 129.02 54.92 C 131.53 55.45 132.85 57.54 132.90 60.01 C 133.23 62.45 131.50 63.38 130.10 65.02 C 132.71 66.95 135.26 68.96 137.78 71.01 C 136.52 71.33 135.27 71.65 134.01 71.97 C 131.44 69.90 128.88 67.82 126.31 65.74 C 127.05 68.24 127.91 70.72 128.57 73.25 C 127.68 73.86 126.78 74.44 125.85 75.00 C 123.84 68.92 122.05 62.77 120.14 56.67 C 122.95 55.91 126.09 54.72 129.02 54.92 Z" fill="#000000" />
<path d="M 151.70 54.51 C 152.69 56.39 153.69 58.28 154.70 60.15 C 153.08 60.30 151.46 60.45 149.84 60.59 C 150.15 59.58 150.45 58.56 150.76 57.55 C 151.07 56.54 151.38 55.52 151.70 54.51 Z" fill="#ffffff" />
<path d="M 124.09 58.84 C 125.58 58.41 127.07 57.98 128.55 57.56 C 129.04 58.73 129.51 59.89 129.96 61.07 C 128.46 61.64 126.96 62.20 125.46 62.77 C 125.00 61.46 124.54 60.15 124.09 58.84 Z" fill="#ffffff" />
<path d="M 108.42 61.50 C 112.33 59.87 116.95 61.14 119.49 64.51 C 122.60 68.64 121.79 74.57 117.61 77.64 C 113.24 81.07 106.85 79.70 103.97 75.05 C 100.86 70.19 103.12 63.60 108.42 61.50 Z" fill="#000000" />
<path d="M 112.01 63.60 C 114.57 64.51 116.90 65.29 117.86 68.10 C 119.45 72.04 116.13 76.43 112.00 76.43 C 107.52 76.45 104.13 71.41 106.41 67.36 C 107.56 64.98 109.73 64.44 112.01 63.60 Z" fill="#ffffff" />
<path d="M 98.56 66.57 C 99.19 67.37 99.80 68.18 100.42 68.99 C 99.44 69.62 98.46 70.24 97.48 70.86 C 100.32 75.22 103.04 79.67 105.83 84.06 C 104.91 84.61 103.98 85.16 103.05 85.71 C 100.33 81.32 97.55 76.97 94.86 72.56 C 93.91 73.08 92.97 73.59 92.02 74.10 C 91.45 73.28 90.88 72.47 90.31 71.65 C 93.00 69.90 95.75 68.09 98.56 66.57 Z" fill="#000000" />
<path d="M 88.60 72.61 C 88.46 76.57 88.30 80.53 88.12 84.48 C 92.27 85.45 96.44 86.31 100.52 87.56 C 99.36 88.26 98.22 89.06 96.97 89.59 C 93.59 89.14 90.28 88.05 86.95 87.34 C 88.68 89.54 90.44 91.70 92.16 93.90 C 91.34 94.56 90.51 95.22 89.69 95.87 C 85.74 90.98 81.80 86.09 77.92 81.14 C 78.74 80.48 79.56 79.82 80.38 79.16 C 81.96 81.05 83.54 82.96 85.13 84.84 C 85.25 81.88 85.37 78.92 85.50 75.97 L 85.54 75.19 C 86.56 74.33 87.58 73.47 88.60 72.61 Z" fill="#000000" />
<path d="M 165.39 74.44 C 165.16 82.42 163.83 90.18 160.53 97.48 C 154.36 111.55 142.68 121.94 128.77 128.10 C 126.23 113.49 119.81 100.42 110.38 89.05 C 127.37 79.43 145.85 74.60 165.39 74.44 Z" fill="#f1ca0b" />
<path d="M 74.15 84.05 C 78.70 88.54 83.09 93.19 87.52 97.79 C 86.71 98.52 85.90 99.24 85.08 99.97 C 80.96 95.42 76.38 91.23 72.47 86.51 L 74.15 84.05 Z" fill="#000000" />
<path d="M 70.03 87.68 C 73.43 93.66 76.70 99.73 79.91 105.82 C 79.21 106.59 78.52 107.35 77.82 108.12 C 71.41 106.04 65.05 103.81 58.61 101.79 C 59.32 100.95 60.03 100.10 60.74 99.25 C 65.65 100.89 70.56 102.55 75.51 104.05 C 73.15 99.61 70.70 95.22 68.38 90.76 C 68.92 89.73 69.47 88.70 70.03 87.68 Z" fill="#000000" />
<path d="M 108.34 90.28 C 117.84 101.30 124.27 114.64 126.60 129.03 C 117.44 132.44 107.78 134.30 98.00 134.36 C 92.40 134.46 87.49 133.20 81.94 134.68 C 74.89 136.32 69.41 140.76 65.25 146.54 C 66.69 142.25 68.06 137.97 69.90 133.83 C 77.45 116.64 90.27 102.22 105.91 91.93 C 106.72 91.38 107.53 90.83 108.34 90.28 Z" fill="#ffffff" />
<path d="M 165.16 92.50 C 165.23 101.32 165.50 110.19 165.01 119.00 C 163.88 136.15 156.56 152.34 144.89 164.90 C 132.93 177.72 117.30 187.27 100.78 192.98 C 105.54 189.33 110.20 185.67 114.09 181.06 C 122.83 171.03 128.03 158.22 129.28 145.01 C 129.73 140.06 129.44 135.31 129.20 130.38 C 144.76 123.69 157.57 111.71 163.72 95.75 C 164.20 94.67 164.68 93.58 165.16 92.50 Z" fill="#c20016" />
<path d="M 54.06 113.27 C 54.50 114.19 54.94 115.12 55.38 116.04 C 53.11 118.08 50.91 119.54 51.18 122.97 C 51.56 127.59 56.89 130.31 60.79 127.68 C 63.58 125.90 63.57 123.33 63.72 120.32 C 64.70 120.00 65.68 119.68 66.66 119.37 C 66.69 121.15 66.87 123.06 66.52 124.81 C 65.41 128.99 61.36 132.13 56.98 131.80 C 51.52 131.71 47.20 126.37 48.15 120.99 C 48.62 117.20 51.30 115.44 54.06 113.27 Z" fill="#000000" />
<path d="M 44.03 130.22 C 45.04 130.50 46.05 130.79 47.05 131.08 C 46.39 133.15 45.69 135.22 44.99 137.28 C 46.30 137.71 47.62 138.14 48.93 138.57 C 49.59 136.53 50.26 134.49 50.92 132.45 C 51.92 132.83 52.92 133.20 53.93 133.57 C 53.24 135.59 52.56 137.60 51.89 139.62 C 54.45 140.51 57.01 141.37 59.59 142.18 C 59.41 143.24 59.22 144.29 59.03 145.35 C 52.97 143.46 46.98 141.33 40.99 139.25 C 41.67 137.16 42.39 135.09 43.10 133.02 C 43.41 132.08 43.72 131.15 44.03 130.22 Z" fill="#000000" />
<path d="M 127.04 131.41 C 127.70 141.08 127.08 150.64 123.78 159.82 C 119.10 173.57 109.43 184.93 97.13 192.52 C 93.57 191.11 90.08 189.61 86.62 187.98 C 89.77 187.71 92.77 187.56 95.84 186.72 C 104.55 184.29 111.71 177.17 114.28 168.51 C 116.15 161.98 115.60 154.65 112.41 148.61 C 109.78 143.27 105.45 139.59 100.44 136.57 C 109.71 136.22 118.27 134.32 127.04 131.41 Z" fill="#80b03e" />
<path d="M 92.67 136.41 C 98.11 137.61 102.43 140.14 106.51 143.87 C 104.83 145.33 103.15 146.79 101.47 148.24 C 98.59 147.75 95.69 147.39 92.78 147.08 C 91.27 144.96 89.78 142.82 88.27 140.69 C 89.72 139.23 91.13 137.78 92.67 136.41 Z" fill="#ffffff" />
<path d="M 86.46 142.06 C 87.93 144.00 89.26 145.99 90.64 148.00 C 89.08 150.70 87.54 153.42 85.99 156.13 C 83.68 156.80 81.31 157.65 78.93 157.99 C 77.33 156.53 76.04 154.67 74.70 152.98 C 75.96 150.21 77.19 147.43 78.43 144.66 C 81.10 143.77 83.75 142.81 86.46 142.06 Z" fill="#ffffff" />
<path d="M 72.17 142.05 C 73.60 142.90 74.98 143.82 76.37 144.73 C 75.00 147.29 73.66 149.87 72.40 152.49 C 69.66 153.89 67.46 155.62 64.21 155.52 C 65.28 151.18 67.10 147.49 70.09 144.16 C 70.77 143.44 71.46 142.74 72.17 142.05 Z" fill="#ffffff" />
<path d="M 108.01 145.61 C 112.05 150.98 113.37 156.86 113.19 163.51 C 111.82 163.81 110.45 164.11 109.09 164.41 C 107.29 162.64 105.48 160.88 103.67 159.11 C 103.57 155.96 103.44 152.81 103.30 149.66 C 104.84 148.28 106.39 146.90 108.01 145.61 Z" fill="#ffffff" />
<path d="M 63.86 156.96 C 64.40 157.20 64.79 157.48 65.03 157.82 C 65.74 161.21 66.07 165.01 64.96 168.36 C 63.65 164.57 63.36 160.92 63.86 156.96 Z" fill="#ffffff" />
<path d="M 86.83 158.14 C 88.53 159.88 90.23 161.62 91.94 163.35 C 90.78 165.94 89.57 168.50 88.29 171.03 C 85.72 171.58 83.17 172.20 80.61 172.82 C 79.21 170.87 77.81 168.92 76.38 166.99 C 77.34 164.80 78.25 162.57 79.32 160.42 C 81.77 159.53 84.32 158.84 86.83 158.14 Z" fill="#ffffff" />
<path d="M 102.36 161.08 C 103.90 162.58 105.43 164.09 106.95 165.61 C 105.81 168.26 104.85 171.07 103.40 173.58 C 100.81 175.10 97.67 175.83 94.85 176.84 C 93.40 175.22 91.96 173.60 90.51 171.98 C 91.72 169.41 92.73 166.63 94.29 164.26 C 96.54 162.65 99.79 162.06 102.36 161.08 Z" fill="#ffffff" />
<path d="M 67.37 167.27 C 69.88 167.67 72.37 168.11 74.87 168.55 C 76.20 170.48 77.53 172.41 78.88 174.32 C 78.29 176.00 77.69 177.68 77.09 179.35 C 75.49 179.51 73.89 179.66 72.29 179.81 C 69.62 177.13 67.29 174.30 65.65 170.86 C 66.19 169.65 66.78 168.46 67.37 167.27 Z" fill="#ffffff" />
<path d="M 62.18 169.31 L 62.69 169.18 C 63.70 170.32 64.05 171.54 63.94 173.05 C 62.04 172.43 61.71 171.12 62.18 169.31 Z" fill="#80b03e" />
<path d="M 103.36 176.23 C 104.12 177.07 104.87 177.92 105.63 178.76 C 103.35 180.54 101.13 182.26 98.46 183.43 C 95.43 184.61 92.93 185.98 89.77 184.26 C 91.54 182.57 93.34 180.62 95.45 179.34 C 97.95 178.04 100.73 177.24 103.36 176.23 Z" fill="#ffffff" />
<path d="M 75.90 181.37 C 80.50 181.68 85.14 183.32 89.23 185.42 C 85.95 185.58 82.94 185.20 79.84 184.07 C 78.25 183.37 76.52 183.20 75.90 181.37 Z" fill="#ffffff" />
</svg>