<?xml version="1.0" encoding="UTF-8" standalone="no"?>
<!DOCTYPE svg PUBLIC "-//W3C//DTD SVG 1.1//EN" "http://www.w3.org/Graphics/SVG/1.1/DTD/svg11.dtd">
<svg xmlns="http://www.w3.org/2000/svg" version="1.1" viewBox="0 0 200 200" width="200.0pt" height="200.0pt">
<path d="M 0.00 0.00 L 76.55 0.00 C 75.57 2.76 74.10 5.43 72.78 8.04 C 69.82 8.72 66.84 9.10 63.82 9.34 C 66.02 11.48 68.20 13.65 70.37 15.82 C 69.74 18.67 69.29 21.56 68.89 24.46 C 71.49 23.06 74.11 21.69 76.75 20.35 C 79.37 21.78 82.01 23.16 84.65 24.57 C 84.32 21.63 83.06 18.40 83.38 15.47 C 85.30 13.30 87.58 11.47 89.54 9.34 C 87.49 9.12 85.43 8.94 83.37 8.82 C 83.95 9.84 85.00 10.27 86.52 10.09 C 84.84 11.67 83.30 13.37 81.64 14.97 C 82.03 17.22 82.44 19.47 82.81 21.73 C 80.80 20.68 78.80 19.61 76.82 18.52 C 74.74 19.57 72.64 20.60 70.59 21.71 C 70.96 19.49 71.35 17.27 71.80 15.07 C 70.20 13.38 68.56 11.74 66.81 10.20 C 69.11 9.81 71.41 9.41 73.70 8.97 C 74.66 6.94 75.69 4.95 76.74 2.97 C 77.93 5.34 78.71 7.70 80.67 9.60 C 81.31 9.12 81.95 8.64 82.59 8.16 C 79.23 8.36 78.39 2.54 76.83 0.30 L 76.69 0.00 L 123.38 0.00 C 122.03 2.49 120.95 5.16 119.46 7.57 L 117.41 8.18 C 118.05 8.65 118.69 9.12 119.34 9.60 C 121.12 7.64 122.09 5.31 123.32 3.01 C 124.30 5.00 125.27 6.99 126.23 8.99 C 128.52 9.40 130.81 9.81 133.10 10.22 C 131.37 12.04 128.39 13.76 128.00 16.35 L 127.08 15.77 C 126.77 13.66 129.60 12.07 130.76 10.59 C 129.00 10.31 127.22 10.04 125.46 9.72 C 124.78 8.17 124.04 6.68 123.24 5.20 C 122.43 6.76 121.63 8.32 120.81 9.88 C 119.10 10.12 117.39 10.36 115.68 10.59 C 116.88 11.79 118.07 12.99 119.29 14.17 C 119.09 15.93 118.91 17.70 118.73 19.46 C 120.23 18.67 121.73 17.87 123.23 17.07 C 124.63 17.85 126.03 18.62 127.44 19.39 L 128.45 17.40 C 128.87 18.80 129.17 20.22 129.37 21.67 C 127.29 20.62 125.20 19.59 123.14 18.51 C 121.13 19.63 119.10 20.69 117.06 21.73 C 117.51 19.48 117.93 17.22 118.31 14.96 C 116.64 13.39 115.11 11.68 113.45 10.10 C 114.96 10.26 116.02 9.83 116.64 8.81 C 114.54 8.94 112.45 9.11 110.37 9.34 C 112.53 11.50 114.70 13.64 116.88 15.77 C 116.31 18.69 115.78 21.60 115.30 24.53 C 117.95 23.16 120.59 21.77 123.20 20.34 C 125.84 21.72 128.49 23.08 131.13 24.47 C 130.64 21.57 130.18 18.67 129.65 15.78 C 131.79 13.59 133.96 11.43 136.18 9.33 C 133.14 9.10 130.16 8.73 127.19 8.06 C 125.81 5.43 124.42 2.86 123.57 0.00 L 200.00 0.00 L 200.00 200.00 L 100.08 200.00 C 116.77 191.53 133.85 181.42 147.52 168.52 C 154.11 162.12 160.76 154.84 164.27 146.23 C 166.21 141.37 167.13 136.23 167.08 131.00 C 167.08 100.57 167.07 70.12 167.08 39.69 C 145.41 35.60 123.70 31.69 102.02 27.60 C 99.36 27.06 97.09 27.79 94.48 28.24 C 73.96 32.10 53.42 35.83 32.90 39.66 C 32.92 70.76 32.87 101.91 32.93 133.00 C 33.06 143.50 37.93 152.59 44.67 160.36 C 59.14 177.38 80.10 189.92 99.80 200.00 L 0.00 200.00 L 0.00 0.00 Z" fill="#ffffff" />
<path d="M 76.55 0.00 L 76.69 0.00 L 76.83 0.30 C 78.39 2.54 79.23 8.36 82.59 8.16 C 81.95 8.64 81.31 9.12 80.67 9.60 C 78.71 7.70 77.93 5.34 76.74 2.97 C 75.69 4.95 74.66 6.94 73.70 8.97 C 71.41 9.41 69.11 9.81 66.81 10.20 C 68.56 11.74 70.20 13.38 71.80 15.07 C 71.35 17.27 70.96 19.49 70.59 21.71 C 72.64 20.60 74.74 19.57 76.82 18.52 C 78.80 19.61 80.80 20.68 82.81 21.73 C 82.44 19.47 82.03 17.22 81.64 14.97 C 83.30 13.37 84.84 11.67 86.52 10.09 C 85.00 10.27 83.95 9.84 83.37 8.82 C 85.43 8.94 87.49 9.12 89.54 9.34 C 87.58 11.47 85.30 13.30 83.38 15.47 C 83.06 18.40 84.32 21.63 84.65 24.57 C 82.01 23.16 79.37 21.78 76.75 20.35 C 74.11 21.69 71.49 23.06 68.89 24.46 C 69.29 21.56 69.74 18.67 70.37 15.82 C 68.20 13.65 66.02 11.48 63.82 9.34 C 66.84 9.10 69.82 8.72 72.78 8.04 C 74.10 5.43 75.57 2.76 76.55 0.00 Z" fill="#019a93" />
<path d="M 123.38 0.00 L 123.57 0.00 C 124.42 2.86 125.81 5.43 127.19 8.06 C 130.16 8.73 133.14 9.10 136.18 9.33 C 133.96 11.43 131.79 13.59 129.65 15.78 C 130.18 18.67 130.64 21.57 131.13 24.47 C 128.49 23.08 125.84 21.72 123.20 20.34 C 120.59 21.77 117.95 23.16 115.30 24.53 C 115.78 21.60 116.31 18.69 116.88 15.77 C 114.70 13.64 112.53 11.50 110.37 9.34 C 112.45 9.11 114.54 8.94 116.64 8.81 C 116.02 9.83 114.96 10.26 113.45 10.10 C 115.11 11.68 116.64 13.39 118.31 14.96 C 117.93 17.22 117.51 19.48 117.06 21.73 C 119.10 20.69 121.13 19.63 123.14 18.51 C 125.20 19.59 127.29 20.62 129.37 21.67 C 129.17 20.22 128.87 18.80 128.45 17.40 L 128.00 16.35 C 128.39 13.76 131.37 12.04 133.10 10.22 C 130.81 9.81 128.52 9.40 126.23 8.99 C 125.27 6.99 124.30 5.00 123.32 3.01 C 122.09 5.31 121.12 7.64 119.34 9.60 C 118.69 9.12 118.05 8.65 117.41 8.18 L 119.46 7.57 C 120.95 5.16 122.03 2.49 123.38 0.00 Z" fill="#019a93" />
<path d="M 76.71 5.15 C 77.50 6.73 78.31 8.30 79.12 9.88 C 80.82 10.12 82.52 10.34 84.22 10.56 C 83.01 11.83 81.80 13.09 80.59 14.35 C 80.84 16.06 81.08 17.76 81.33 19.47 C 79.81 18.69 78.29 17.90 76.77 17.12 C 75.16 17.94 73.53 18.70 71.91 19.51 C 72.26 17.80 72.58 16.09 72.91 14.39 C 71.66 13.13 70.42 11.87 69.20 10.59 C 70.98 10.32 72.74 10.10 74.49 9.64 C 74.83 8.94 75.17 8.24 75.51 7.54 C 75.90 6.74 76.30 5.94 76.71 5.15 Z" fill="#ffc733" />
<path d="M 123.24 5.20 C 124.04 6.68 124.78 8.17 125.46 9.72 C 127.22 10.04 129.00 10.31 130.76 10.59 C 129.60 12.07 126.77 13.66 127.08 15.77 L 128.00 16.35 L 128.45 17.40 L 127.44 19.39 C 126.03 18.62 124.63 17.85 123.23 17.07 C 121.73 17.87 120.23 18.67 118.73 19.46 C 118.91 17.70 119.09 15.93 119.29 14.17 C 118.07 12.99 116.88 11.79 115.68 10.59 C 117.39 10.36 119.10 10.12 120.81 9.88 C 121.63 8.32 122.43 6.76 123.24 5.20 Z" fill="#ffc733" />
<path d="M 102.02 27.60 C 123.70 31.69 145.41 35.60 167.08 39.69 C 167.07 70.12 167.08 100.57 167.08 131.00 C 167.13 136.23 166.21 141.37 164.27 146.23 C 160.76 154.84 154.11 162.12 147.52 168.52 C 133.85 181.42 116.77 191.53 100.08 200.00 L 99.80 200.00 C 80.10 189.92 59.14 177.38 44.67 160.36 C 37.93 152.59 33.06 143.50 32.93 133.00 C 32.87 101.91 32.92 70.76 32.90 39.66 C 53.42 35.83 73.96 32.10 94.48 28.24 C 97.09 27.79 99.36 27.06 102.02 27.60 Z" fill="#019a93" />
<path d="M 98.19 31.50 C 99.65 31.21 101.06 31.35 102.50 31.63 C 122.72 35.47 142.98 39.05 163.18 42.96 C 163.14 72.64 163.17 102.32 163.17 132.00 C 163.22 136.41 162.31 140.61 160.68 144.69 C 157.14 153.60 149.59 161.24 142.70 167.71 C 130.03 178.97 115.03 187.99 99.96 195.66 C 81.87 186.40 62.98 174.92 49.26 159.73 C 44.41 154.41 39.91 148.05 38.00 141.02 C 36.56 136.09 36.90 131.09 36.85 126.00 C 36.85 98.31 36.87 70.62 36.84 42.93 C 57.27 39.01 77.75 35.35 98.19 31.50 Z" fill="#ffc733" />
<path d="M 97.20 34.23 C 100.68 33.43 103.63 34.48 107.02 35.06 C 124.91 38.45 142.85 41.60 160.73 45.08 C 160.55 74.08 160.85 104.06 160.64 133.01 C 160.28 143.45 154.86 151.59 147.92 158.93 C 134.84 173.18 117.01 183.96 99.97 192.83 C 83.67 184.36 66.89 174.23 53.98 161.02 C 48.50 155.33 43.60 149.61 40.94 142.03 C 38.84 136.10 39.29 130.18 39.26 124.00 C 39.21 97.54 39.34 71.29 39.24 45.06 C 58.53 41.34 77.90 37.95 97.20 34.23 Z" fill="#ffffff" />
<path d="M 59.37 47.58 C 61.43 50.06 63.23 52.76 65.12 55.37 C 69.17 55.52 73.20 55.46 77.25 55.39 L 77.26 54.25 C 74.04 53.62 70.65 53.44 67.52 52.48 C 65.93 51.87 64.59 50.21 65.56 48.51 C 66.41 46.51 69.08 46.24 70.97 46.20 C 80.49 46.17 90.02 46.30 99.54 46.15 C 99.54 47.16 99.56 48.16 99.60 49.17 C 97.21 49.14 94.81 49.14 92.42 49.16 C 92.43 51.72 92.43 54.28 92.44 56.84 C 90.92 56.77 89.39 56.75 87.87 56.78 C 87.97 54.24 87.99 51.69 87.97 49.15 C 81.86 49.19 75.74 49.10 69.62 49.14 C 72.45 51.97 78.98 50.04 81.79 53.34 C 82.13 54.30 82.40 56.85 80.89 56.90 C 74.81 57.58 68.66 57.82 62.58 58.54 C 61.82 57.51 61.04 56.49 60.26 55.47 C 57.58 55.47 54.91 55.42 52.23 55.40 C 51.00 57.11 49.78 58.81 48.60 60.55 C 46.62 60.96 44.65 61.38 42.69 61.85 C 46.01 57.13 49.35 52.41 52.79 47.78 C 54.15 45.71 57.91 45.58 59.37 47.58 Z" fill="#019a93" />
<path d="M 108.39 47.56 C 110.78 50.40 112.65 53.62 115.05 56.47 C 115.16 53.44 114.82 50.29 115.32 47.30 C 117.14 45.46 120.50 46.01 122.24 47.72 C 124.55 49.76 126.72 51.96 129.08 53.96 C 129.09 51.37 129.11 48.79 129.11 46.20 C 130.64 46.21 132.17 46.22 133.70 46.21 C 133.70 49.71 133.69 53.20 133.72 56.69 C 136.17 53.75 138.13 50.45 140.61 47.54 C 142.34 45.20 146.27 46.05 147.63 48.39 C 150.86 52.87 154.07 57.36 157.29 61.84 C 155.31 61.39 153.34 60.96 151.36 60.54 C 150.14 58.84 148.94 57.13 147.75 55.42 C 145.05 55.42 142.34 55.47 139.64 55.48 C 138.88 56.49 138.13 57.50 137.38 58.51 C 134.10 58.06 130.72 58.13 127.47 57.54 C 124.69 55.43 122.37 52.72 119.69 50.46 C 119.68 52.66 119.70 54.86 119.71 57.07 C 116.65 56.91 113.58 56.93 110.51 56.78 C 108.57 54.45 104.23 55.74 101.48 55.44 C 100.95 55.89 100.42 56.34 99.89 56.79 C 98.29 56.76 96.68 56.70 95.07 56.71 C 97.48 53.85 99.41 50.64 101.78 47.77 C 103.22 45.80 106.90 45.52 108.39 47.56 Z" fill="#019a93" />
<path d="M 56.15 49.49 C 56.95 50.62 57.75 51.75 58.50 52.90 C 56.95 52.92 55.40 52.94 53.85 52.95 C 54.61 51.79 55.37 50.63 56.15 49.49 Z" fill="#ffffff" />
<path d="M 105.21 49.41 C 105.98 50.57 106.76 51.73 107.52 52.90 C 105.96 52.92 104.41 52.94 102.85 52.95 C 103.63 51.77 104.41 50.58 105.21 49.41 Z" fill="#ffffff" />
<path d="M 143.79 49.53 C 144.58 50.66 145.36 51.80 146.13 52.95 C 144.56 52.94 142.99 52.92 141.42 52.90 C 142.18 51.76 142.99 50.64 143.79 49.53 Z" fill="#ffffff" />
<path d="M 117.00 60.99 C 130.08 61.65 142.99 62.74 155.82 65.51 C 157.39 65.79 158.77 66.35 160.19 67.08 C 155.99 66.82 151.99 65.67 147.82 65.17 C 139.61 64.01 131.30 63.07 123.00 62.89 C 107.69 61.91 92.31 61.90 77.00 62.89 C 67.62 63.12 58.24 64.20 48.97 65.64 C 45.66 66.09 42.89 67.30 39.60 66.66 C 64.43 60.40 91.54 60.35 117.00 60.99 Z" fill="#ffc733" />
<path d="M 43.94 68.89 C 46.38 68.98 48.83 69.00 51.27 68.98 L 51.24 70.05 C 49.46 70.04 47.69 70.04 45.91 70.03 L 45.88 71.35 C 47.93 71.40 49.97 71.47 52.01 71.43 L 52.53 69.94 C 55.01 68.22 60.40 68.15 61.30 71.89 C 60.82 72.60 60.35 73.31 59.88 74.02 C 57.18 74.62 52.91 75.51 51.80 72.03 C 50.05 72.52 48.37 72.44 46.55 72.53 C 45.79 73.42 45.77 74.93 44.34 74.53 C 43.26 73.06 43.94 70.62 43.94 68.89 Z" fill="#019a93" />
<path d="M 64.05 69.05 C 65.82 68.90 68.84 68.50 70.09 70.06 C 71.95 72.35 69.90 73.49 68.12 74.74 C 67.56 74.23 67.01 73.72 66.45 73.22 C 69.46 72.30 68.82 72.24 67.97 69.94 C 66.72 69.99 65.48 70.08 64.24 70.22 C 63.22 72.39 64.77 73.11 65.90 74.70 L 62.24 73.65 C 61.19 71.66 61.61 69.51 64.05 69.05 Z" fill="#019a93" />
<path d="M 70.99 68.99 C 73.70 68.97 76.41 68.97 79.11 68.99 L 79.06 69.95 C 78.05 70.09 77.04 70.23 76.03 70.37 C 75.95 72.58 77.12 74.28 74.25 74.81 C 74.15 73.26 74.08 71.71 74.00 70.16 C 73.00 70.10 72.00 70.03 71.00 69.97 L 70.99 68.99 Z" fill="#019a93" />
<path d="M 80.12 69.06 C 82.64 68.93 85.13 68.96 87.64 69.23 C 87.97 70.54 88.32 71.85 88.68 73.16 C 86.61 75.17 82.84 74.27 80.16 74.42 C 80.16 72.63 80.15 70.84 80.12 69.06 Z" fill="#019a93" />
<path d="M 91.40 69.46 C 93.28 68.65 95.76 69.08 97.78 69.03 C 97.75 70.81 98.02 72.80 97.50 74.52 C 96.31 74.69 95.86 73.69 94.96 73.05 C 94.01 73.05 93.07 73.06 92.12 73.07 C 91.06 74.08 89.98 74.52 88.87 74.40 C 89.53 72.80 90.08 70.63 91.40 69.46 Z" fill="#019a93" />
<path d="M 99.40 69.15 C 100.09 69.08 100.79 69.03 101.49 69.00 C 101.48 70.41 101.48 71.82 101.47 73.23 C 103.38 73.24 105.30 73.25 107.21 73.33 L 106.53 74.32 C 104.17 74.66 101.70 74.37 99.32 74.38 C 99.31 72.64 99.28 70.89 99.40 69.15 Z" fill="#019a93" />
<path d="M 107.93 68.98 L 109.94 69.01 C 109.97 70.43 110.00 71.84 110.03 73.26 C 111.94 73.24 113.84 73.25 115.74 73.32 C 114.37 75.39 110.23 74.13 108.05 74.45 C 108.01 72.62 107.98 70.80 107.93 68.98 Z" fill="#019a93" />
<path d="M 121.41 69.40 C 124.02 68.61 127.64 68.33 129.20 71.10 C 126.82 70.66 124.70 69.83 122.21 70.17 C 122.20 71.11 122.10 72.06 121.92 73.00 C 124.69 73.51 126.29 73.16 128.80 72.05 C 128.80 73.40 128.27 74.11 127.22 74.19 C 124.72 74.76 121.87 74.75 119.86 72.93 C 120.15 71.36 119.69 70.17 121.41 69.40 Z" fill="#019a93" />
<path d="M 129.94 68.98 L 131.94 69.02 C 131.97 70.41 132.00 71.80 132.03 73.19 C 133.82 73.24 135.59 73.38 137.34 73.61 C 137.99 72.03 138.17 70.59 138.11 68.86 C 138.84 69.09 139.56 69.21 140.28 69.19 C 140.38 70.84 139.18 73.44 141.88 73.26 L 143.98 73.13 C 144.01 71.75 144.05 70.38 144.09 69.00 L 146.20 68.97 C 146.14 70.62 146.05 72.26 145.93 73.90 C 143.22 74.60 141.49 74.59 138.78 73.85 C 135.85 74.13 133.06 74.71 130.06 74.47 C 130.02 72.64 129.99 70.81 129.94 68.98 Z" fill="#019a93" />
<path d="M 147.79 68.98 C 150.62 69.08 153.28 68.48 155.80 69.90 C 155.65 71.19 155.89 72.47 155.77 73.75 C 153.38 74.86 150.16 74.45 147.62 74.25 C 147.71 72.49 147.77 70.74 147.79 68.98 Z" fill="#019a93" />
<path d="M 58.72 72.69 C 56.97 73.87 55.77 73.55 53.91 72.87 C 53.01 68.74 60.04 69.03 58.72 72.69 Z" fill="#ffffff" />
<path d="M 82.13 70.24 C 83.24 69.82 85.52 69.32 86.09 70.76 C 84.82 71.25 83.50 71.25 82.13 70.74 L 82.13 70.24 Z" fill="#ffffff" />
<path d="M 96.00 71.04 C 95.73 72.55 93.11 72.16 92.05 71.90 C 91.99 69.80 95.32 68.95 96.00 71.04 Z" fill="#ffffff" />
<path d="M 153.84 70.72 C 152.42 71.25 151.08 71.26 149.82 70.76 C 150.27 69.38 153.23 69.49 153.84 70.72 Z" fill="#ffffff" />
<path d="M 86.05 72.41 C 86.34 73.76 82.77 73.31 82.09 72.85 C 82.87 71.70 84.96 71.80 86.05 72.41 Z" fill="#ffffff" />
<path d="M 153.86 72.40 C 154.01 73.69 150.62 73.34 149.90 72.89 C 150.50 71.65 152.84 71.83 153.86 72.40 Z" fill="#ffffff" />
<path d="M 83.17 81.17 C 82.58 82.14 81.97 83.09 81.34 84.04 L 84.37 84.10 C 81.55 85.91 80.75 88.68 76.84 88.11 C 78.22 87.09 80.61 86.19 80.45 84.12 C 80.32 82.07 81.69 81.95 83.17 81.17 Z" fill="#ffc733" />
<path d="M 116.83 81.19 C 118.28 81.95 119.66 82.12 119.54 84.12 C 119.42 86.14 121.66 87.10 123.05 88.06 C 119.23 88.66 118.29 85.92 115.58 84.05 L 118.54 84.06 C 117.94 83.12 117.37 82.16 116.83 81.19 Z" fill="#ffc733" />
<path d="M 121.10 82.46 C 122.41 82.16 123.14 84.37 123.02 85.38 C 121.69 85.39 120.48 83.66 121.10 82.46 Z" fill="#ffc733" />
<path d="M 78.89 82.71 C 78.85 84.30 78.23 85.15 77.01 85.27 C 77.00 83.70 77.63 82.84 78.89 82.71 Z" fill="#ffc733" />
<path d="M 75.47 84.36 C 76.94 84.26 75.39 88.63 74.08 87.84 C 73.41 86.78 74.56 84.96 75.47 84.36 Z" fill="#ffc733" />
<path d="M 124.11 84.43 C 125.18 84.21 126.60 87.10 125.97 87.94 C 124.59 88.41 123.49 85.43 124.11 84.43 Z" fill="#ffc733" />
<path d="M 102.80 88.53 C 114.52 89.92 124.10 100.10 124.17 112.00 C 124.57 117.58 122.30 122.02 119.96 126.86 C 119.34 126.53 118.72 126.19 118.11 125.86 C 116.32 127.50 114.98 129.31 113.72 131.39 C 115.05 130.51 116.25 129.43 117.31 128.15 C 117.57 128.43 117.82 128.72 118.06 129.01 C 115.58 131.05 112.82 133.66 109.73 134.71 C 107.50 134.40 105.53 134.12 103.27 134.62 C 103.28 132.97 103.31 131.31 103.35 129.65 C 106.70 128.41 109.50 126.50 112.24 124.26 C 112.24 121.10 112.22 117.94 112.19 114.79 C 109.56 112.99 106.80 111.46 104.00 109.97 C 101.26 111.64 98.65 113.41 95.84 114.96 C 98.34 112.89 101.04 111.44 103.75 109.60 C 103.87 107.74 104.01 105.86 104.04 103.99 C 103.93 102.66 104.39 100.63 102.93 99.92 C 100.55 98.23 97.64 97.06 94.96 95.95 C 91.99 97.37 89.31 98.95 86.81 101.09 C 86.66 104.42 86.56 107.75 86.53 111.08 C 89.12 112.87 91.89 114.25 94.77 115.52 C 94.63 118.67 94.58 121.80 94.63 124.95 C 95.47 125.63 96.32 126.31 97.16 126.99 C 96.22 126.46 95.27 125.93 94.32 125.40 C 91.71 126.37 89.59 126.67 86.80 126.58 C 86.75 128.04 86.69 129.50 86.63 130.95 C 88.73 132.52 90.59 134.10 93.10 135.01 C 97.05 136.56 101.20 134.98 105.27 136.64 C 101.33 136.73 96.79 137.12 93.00 135.85 C 84.77 133.34 78.12 126.45 76.33 117.97 C 75.41 112.97 75.60 107.43 77.83 102.78 C 81.86 93.34 92.63 87.22 102.80 88.53 Z" fill="#019a93" />
<path d="M 127.15 87.10 C 127.86 88.04 128.45 89.04 128.93 90.09 C 128.70 90.74 128.47 91.40 128.24 92.05 C 128.75 92.85 129.27 93.65 129.78 94.45 C 129.78 93.22 129.78 91.98 129.79 90.74 L 130.86 91.34 C 131.28 93.77 130.09 95.72 131.39 98.29 C 129.67 96.91 129.48 94.34 127.22 94.11 C 128.55 95.65 129.49 97.31 130.05 99.09 C 128.60 98.07 127.19 97.03 125.83 95.91 C 126.14 95.42 126.45 94.93 126.77 94.44 C 125.63 93.70 124.63 92.92 123.73 91.89 C 125.11 92.20 126.48 92.54 127.83 92.92 C 127.28 92.25 126.81 91.51 126.42 90.70 C 126.50 89.47 126.74 88.27 127.15 87.10 Z" fill="#ffc733" />
<path d="M 78.43 89.10 C 78.66 90.48 75.84 91.32 74.78 91.05 C 74.88 89.70 77.30 88.35 78.43 89.10 Z" fill="#ffc733" />
<path d="M 99.03 89.13 C 103.62 88.68 108.93 90.80 112.17 94.01 C 112.40 95.65 112.27 97.38 112.22 99.03 C 109.50 99.36 106.81 99.79 104.13 100.32 C 101.25 98.33 98.17 96.80 94.95 95.45 C 95.22 94.00 95.49 92.54 95.75 91.09 C 94.58 91.21 93.42 91.33 92.25 91.45 L 92.12 90.21 C 94.44 89.77 96.68 89.28 99.03 89.13 Z" fill="#ffffff" />
<path d="M 121.47 89.04 C 122.60 88.07 125.28 89.70 125.27 91.10 C 124.15 91.46 121.09 90.58 121.47 89.04 Z" fill="#ffc733" />
<path d="M 112.91 93.94 C 116.59 95.28 118.72 98.22 120.58 101.50 C 121.74 103.94 123.20 106.41 122.50 109.18 C 121.87 112.61 123.58 115.59 122.26 119.05 C 121.69 121.66 119.27 122.64 119.68 125.47 C 118.50 125.73 117.31 125.99 116.13 126.26 C 114.95 125.67 113.76 125.07 112.58 124.47 C 112.80 121.23 112.79 118.00 112.66 114.77 C 114.52 112.75 116.15 110.67 117.68 108.39 C 118.89 108.95 120.11 109.49 121.33 110.03 C 120.14 109.13 118.88 108.35 117.60 107.60 C 116.35 104.44 114.70 101.74 112.64 99.05 C 112.73 97.35 112.82 95.65 112.91 93.94 Z" fill="#ffffff" />
<path d="M 85.07 94.74 L 82.71 98.73 C 83.91 99.47 85.10 100.20 86.30 100.93 C 86.36 104.25 86.43 107.56 86.34 110.89 C 84.50 112.95 82.76 115.16 81.28 117.50 C 79.33 116.04 76.93 115.95 76.95 113.03 C 76.02 107.54 78.23 103.01 81.09 98.53 C 82.29 97.15 83.62 95.89 85.07 94.74 Z" fill="#ffffff" />
<path d="M 127.52 99.15 C 129.24 98.86 131.65 101.07 131.35 102.86 C 129.83 102.66 127.61 100.73 127.52 99.15 Z" fill="#ffc733" />
<path d="M 62.33 102.96 C 62.87 103.28 63.41 103.61 63.95 103.94 C 64.26 105.57 64.48 107.21 64.62 108.87 C 62.11 109.23 62.83 104.57 62.33 102.96 Z" fill="#ffc733" />
<path d="M 128.56 103.50 C 131.65 103.24 132.39 107.07 133.23 109.24 C 130.36 108.25 129.66 105.99 128.56 103.50 Z" fill="#ffc733" />
<path d="M 60.98 107.63 C 63.74 110.14 64.55 111.79 64.36 115.65 C 62.68 114.38 61.93 112.77 61.25 110.85 C 61.13 109.78 61.05 108.71 60.98 107.63 Z" fill="#ffc733" />
<path d="M 139.07 107.70 C 138.74 110.78 138.23 113.62 135.68 115.69 C 135.55 112.17 136.10 109.77 139.07 107.70 Z" fill="#ffc733" />
<path d="M 70.50 108.25 C 70.11 109.79 69.70 111.32 69.29 112.85 C 71.86 115.37 69.89 120.43 67.76 122.62 C 67.68 119.12 68.67 116.21 66.69 113.05 C 67.15 112.08 67.61 111.12 68.09 110.17 C 68.62 109.02 69.42 108.38 70.50 108.25 Z" fill="#ffc733" />
<path d="M 129.50 108.28 C 131.48 108.67 132.39 111.47 133.37 113.03 C 131.17 116.21 132.31 119.13 132.29 122.70 C 130.04 120.52 129.64 117.82 129.23 114.86 C 129.74 114.26 130.26 113.66 130.77 113.05 C 130.32 111.46 129.90 109.88 129.50 108.28 Z" fill="#ffc733" />
<path d="M 60.64 114.42 C 63.46 116.10 64.14 117.95 64.89 121.07 C 63.05 120.55 62.29 119.13 61.36 117.63 C 61.10 116.57 60.86 115.50 60.64 114.42 Z" fill="#ffc733" />
<path d="M 139.26 114.42 C 138.80 117.40 137.92 119.87 135.01 121.30 C 135.76 118.23 136.44 116.08 139.26 114.42 Z" fill="#ffc733" />
<path d="M 76.93 115.49 C 78.54 116.30 80.13 117.14 81.73 117.98 C 82.67 120.85 83.81 123.03 85.59 125.45 C 86.91 127.03 86.22 129.35 86.24 131.27 C 81.52 128.47 78.85 123.85 77.21 118.75 C 77.09 117.67 77.00 116.58 76.93 115.49 Z" fill="#ffffff" />
<path d="M 60.31 119.86 C 63.26 121.01 66.45 123.96 66.34 127.34 C 63.28 125.43 61.28 123.43 60.31 119.86 Z" fill="#ffc733" />
<path d="M 139.65 119.85 C 138.52 123.49 136.81 125.32 133.65 127.35 C 133.62 123.71 136.56 121.20 139.65 119.85 Z" fill="#ffc733" />
<path d="M 73.13 124.41 C 75.95 127.54 75.72 131.14 75.30 135.07 C 72.02 133.12 72.56 127.60 73.13 124.41 Z" fill="#ffc733" />
<path d="M 126.83 124.46 C 127.40 127.95 127.89 132.83 124.56 135.16 C 124.07 131.22 124.00 127.56 126.83 124.46 Z" fill="#ffc733" />
<path d="M 61.61 126.77 C 65.07 127.28 68.08 129.42 68.99 132.92 C 65.38 131.48 63.66 130.01 61.61 126.77 Z" fill="#ffc733" />
<path d="M 138.35 126.76 C 136.27 130.04 134.57 131.47 130.93 132.96 C 131.86 129.44 134.86 127.27 138.35 126.76 Z" fill="#ffc733" />
<path d="M 76.65 130.09 C 77.35 130.84 78.03 131.61 78.70 132.39 C 80.07 134.99 80.23 137.45 80.12 140.36 C 76.67 137.85 76.21 134.07 76.65 130.09 Z" fill="#ffc733" />
<path d="M 123.13 130.11 C 123.67 134.01 123.32 137.95 119.78 140.32 C 119.79 137.49 119.95 134.90 121.27 132.36 C 121.88 131.60 122.50 130.85 123.13 130.11 Z" fill="#ffc733" />
<path d="M 63.40 132.57 C 67.18 132.81 70.70 134.16 72.39 137.78 C 68.69 137.05 65.46 135.98 63.40 132.57 Z" fill="#ffc733" />
<path d="M 136.57 132.59 C 134.50 135.93 131.25 137.06 127.58 137.77 C 129.23 134.17 132.80 132.77 136.57 132.59 Z" fill="#ffc733" />
<path d="M 107.85 135.77 C 107.01 136.24 106.11 136.28 105.17 135.88 C 105.40 134.37 107.56 134.22 107.85 135.77 Z" fill="#019a93" />
<path d="M 80.84 135.90 C 85.08 137.98 86.97 140.56 88.49 144.98 C 84.04 143.87 81.57 140.24 80.84 135.90 Z" fill="#ffc733" />
<path d="M 119.16 135.83 C 118.24 140.21 116.05 143.79 111.47 145.01 C 113.08 140.33 114.77 138.12 119.16 135.83 Z" fill="#ffc733" />
<path d="M 67.07 138.84 C 71.01 138.64 74.47 138.89 76.89 142.39 C 73.11 142.39 69.71 141.75 67.07 138.84 Z" fill="#ffc733" />
<path d="M 132.86 138.86 C 130.21 141.77 126.82 142.39 123.04 142.38 C 125.47 138.90 128.92 138.63 132.86 138.86 Z" fill="#ffc733" />
<path d="M 87.73 141.02 C 92.22 141.59 95.73 143.20 98.34 147.00 C 93.78 146.53 90.03 145.25 87.73 141.02 Z" fill="#ffc733" />
<path d="M 112.21 141.04 C 109.82 145.29 106.26 146.46 101.64 147.02 C 104.19 143.16 107.72 141.59 112.21 141.04 Z" fill="#ffc733" />
<path d="M 83.60 146.85 C 78.94 147.75 76.11 147.47 71.82 145.52 C 75.54 142.87 80.40 143.92 83.60 146.85 Z" fill="#ffc733" />
<path d="M 128.08 145.52 C 123.85 147.51 120.93 147.72 116.32 146.85 C 119.59 143.95 124.31 142.85 128.08 145.52 Z" fill="#ffc733" />
<path d="M 90.28 148.90 C 87.56 151.66 82.17 151.57 78.81 150.18 C 82.44 147.49 86.13 147.48 90.28 148.90 Z" fill="#ffc733" />
<path d="M 121.16 150.19 C 117.45 151.74 113.67 151.21 110.07 149.70 L 110.03 148.82 C 114.14 147.37 117.56 147.65 121.16 150.19 Z" fill="#ffc733" />
<path d="M 98.10 149.33 C 95.77 153.46 90.90 154.05 86.61 154.01 C 89.50 150.16 93.67 149.89 98.10 149.33 Z" fill="#ffc733" />
<path d="M 101.89 149.34 C 106.34 149.85 110.44 150.23 113.38 154.01 C 109.98 154.04 107.04 153.71 104.05 151.98 C 103.23 151.20 102.51 150.32 101.89 149.34 Z" fill="#ffc733" />
<path d="M 122.85 154.10 C 123.54 155.41 124.22 156.72 124.91 158.02 C 123.16 158.69 122.11 157.84 120.46 157.22 C 120.81 158.26 121.14 159.31 121.45 160.36 C 120.04 159.21 119.45 157.75 118.76 156.13 C 119.87 156.19 120.98 156.23 122.09 156.25 C 122.34 155.53 122.59 154.81 122.85 154.10 Z" fill="#019a93" />
<path d="M 76.98 154.59 C 78.12 154.77 78.87 155.91 79.23 158.02 C 79.69 157.30 80.16 156.58 80.62 155.86 L 81.40 157.72 L 83.01 157.06 C 82.51 158.98 81.08 159.33 83.37 160.82 C 83.90 159.95 84.44 159.09 84.96 158.22 C 86.81 158.59 88.57 159.12 90.33 159.79 C 90.21 161.01 90.10 162.23 89.99 163.45 C 88.57 161.96 87.76 162.01 85.79 161.85 L 86.18 158.61 C 85.45 159.70 84.72 160.79 84.00 161.90 C 83.03 161.47 82.06 161.04 81.09 160.62 C 81.02 159.52 80.95 158.41 80.90 157.30 C 80.40 158.26 79.89 159.21 79.36 160.15 C 78.19 159.38 78.11 158.32 77.72 157.07 C 76.81 157.46 75.90 157.84 74.98 158.22 C 75.65 157.01 76.30 155.80 76.98 154.59 Z" fill="#019a93" />
<path d="M 116.67 157.09 C 118.54 157.20 119.15 159.07 119.04 160.68 C 117.16 160.33 116.01 159.04 116.67 157.09 Z" fill="#019a93" />
<path d="M 115.06 158.86 C 115.07 158.85 115.07 158.85 115.06 158.86 Z" fill="#019a93" />
<path d="M 109.31 159.51 C 110.67 159.28 112.02 159.01 113.35 158.69 C 111.69 160.57 112.21 161.15 112.50 163.38 C 111.02 162.26 111.33 160.53 109.34 160.18 L 109.31 159.51 Z" fill="#019a93" />
<path d="M 87.28 160.25 L 88.09 159.84 L 88.88 160.16 L 88.85 160.90 C 87.66 161.53 87.13 161.31 87.28 160.25 Z" fill="#ffffff" />
<path d="M 97.15 159.76 C 96.62 160.72 96.08 161.67 95.53 162.62 L 98.55 160.78 C 98.60 161.90 98.66 163.01 98.72 164.12 C 96.02 164.56 93.87 163.47 91.38 162.63 L 90.82 161.65 C 92.18 162.11 93.51 162.62 94.82 163.17 C 94.10 160.00 94.69 160.79 97.15 159.76 Z" fill="#019a93" />
<path d="M 103.93 160.16 C 103.99 161.45 104.03 162.74 104.04 164.04 C 102.81 164.10 100.97 164.72 99.90 163.96 C 99.74 162.74 99.62 161.51 99.56 160.27 C 101.04 160.59 100.90 164.96 102.69 162.90 C 102.84 161.52 103.26 160.60 103.93 160.16 Z" fill="#019a93" />
<path d="M 105.03 159.63 C 105.77 160.58 106.24 161.70 106.44 163.00 C 107.58 162.79 108.73 162.60 109.88 162.42 C 109.11 164.34 106.81 163.78 105.16 163.93 C 105.07 162.50 105.03 161.07 105.03 159.63 Z" fill="#019a93" />
<path d="M 115.20 160.12 L 115.90 160.06 C 116.51 161.08 116.25 161.59 115.15 161.59 L 114.80 160.89 L 115.20 160.12 Z" fill="#019a93" />
<path d="M 102.84 172.53 L 104.10 173.05 C 104.11 174.47 104.81 176.42 103.45 177.40 C 101.71 178.09 100.49 177.07 99.92 175.41 L 102.30 175.30 C 101.50 174.60 100.72 173.89 99.95 173.15 C 100.91 172.92 101.87 172.71 102.84 172.53 Z" fill="#019a93" />
<path d="M 109.04 172.96 C 108.85 175.20 109.77 176.89 107.20 178.06 C 107.39 176.76 107.59 175.46 107.80 174.16 C 106.80 174.50 105.09 175.86 104.88 173.94 C 105.98 172.11 107.30 172.55 109.04 172.96 Z" fill="#019a93" />
<path d="M 95.11 173.91 C 93.85 175.62 93.03 177.28 90.82 177.89 C 90.63 174.45 92.20 175.81 93.41 173.55 L 90.79 174.46 C 90.95 171.61 93.71 172.46 95.11 173.91 Z" fill="#019a93" />
<path d="M 95.75 172.77 C 96.94 172.76 98.14 172.74 99.34 172.72 C 99.54 174.40 99.40 176.09 98.94 177.80 C 97.92 175.82 97.58 176.51 98.34 174.01 L 96.81 173.61 C 97.06 175.12 97.27 176.63 97.45 178.16 C 95.72 177.17 95.15 175.38 95.75 172.77 Z" fill="#019a93" />
<path d="M 105.49 176.02 L 106.10 175.59 L 106.72 176.06 L 106.71 176.91 L 106.06 177.38 L 105.47 176.93 L 105.49 176.02 Z" fill="#019a93" />
</svg>