<?xml version="1.0" encoding="UTF-8" standalone="no"?>
<!DOCTYPE svg PUBLIC "-//W3C//DTD SVG 1.1//EN" "http://www.w3.org/Graphics/SVG/1.1/DTD/svg11.dtd">
<svg xmlns="http://www.w3.org/2000/svg" version="1.1" viewBox="0 0 200 200" width="200.0pt" height="200.0pt">
<path d="M 0.00 0.00 L 97.24 0.00 C 86.34 0.55 75.68 3.00 65.88 7.87 C 48.28 16.43 34.19 31.85 27.35 50.19 C 22.87 61.92 21.49 74.57 23.01 87.00 C 25.97 111.61 42.08 135.08 64.45 145.87 C 64.46 143.26 64.69 140.67 64.77 138.06 C 65.53 137.52 66.34 137.12 67.20 136.88 L 67.77 136.71 C 71.90 135.57 76.08 134.38 80.34 133.86 L 80.78 133.80 C 94.52 132.27 108.53 132.33 122.27 133.88 L 122.73 133.92 C 126.54 134.39 131.94 135.09 134.71 137.93 C 134.87 141.00 134.78 144.10 134.85 147.18 C 135.96 151.42 137.48 156.19 140.53 159.47 C 143.92 163.36 149.25 165.97 154.48 165.21 C 160.43 164.10 164.65 158.90 165.26 153.00 C 165.56 149.53 164.15 146.34 164.41 142.90 C 165.49 142.67 166.55 142.60 167.59 142.69 C 169.82 148.86 169.89 155.70 166.62 161.53 C 163.74 165.81 159.20 168.79 154.03 169.31 C 150.19 170.12 146.42 168.63 142.98 167.05 C 133.87 161.31 130.38 150.74 130.56 140.41 C 127.57 138.80 123.83 138.24 120.52 137.64 C 113.04 137.20 105.50 136.14 98.00 136.04 C 91.49 136.15 85.00 137.20 78.53 137.78 C 75.45 138.65 70.70 138.97 68.49 141.41 C 68.29 150.80 65.68 161.83 57.07 167.07 C 52.97 169.12 47.29 171.40 42.77 169.73 C 37.23 168.76 32.80 164.10 31.23 158.82 C 29.90 154.03 30.23 149.29 31.46 144.51 C 31.81 142.82 33.46 141.67 34.93 143.12 C 35.18 145.22 34.79 147.08 34.11 149.05 C 33.77 153.84 33.71 158.18 37.07 161.97 C 40.72 166.32 47.13 167.41 52.22 165.19 C 59.29 162.29 64.01 154.71 64.17 147.16 L 63.30 147.31 C 63.10 152.52 60.72 157.47 56.98 161.04 C 53.14 158.90 47.58 156.30 46.10 151.86 C 45.97 147.49 49.57 143.31 47.17 138.81 C 45.52 135.96 43.61 133.15 41.92 130.33 L 41.07 130.83 C 41.00 132.87 40.00 134.38 39.15 136.15 C 37.98 140.40 40.11 145.45 42.87 148.59 L 43.28 148.93 C 42.74 150.03 42.24 150.13 41.79 149.24 C 40.02 146.68 35.79 144.32 36.00 141.02 C 35.66 136.09 38.69 132.67 39.01 127.99 C 38.64 126.18 37.71 124.66 36.42 123.36 L 36.27 123.18 C 35.15 121.67 33.97 120.25 32.99 118.65 C 29.75 122.40 28.86 129.31 31.67 133.62 L 31.75 133.74 C 31.98 135.65 33.24 137.20 33.03 139.06 C 32.37 138.48 31.88 137.71 31.56 136.75 C 29.97 133.15 27.89 129.83 26.67 126.03 C 25.66 122.12 29.64 117.82 29.16 114.00 C 29.00 111.84 28.48 109.18 27.19 107.41 L 27.13 106.81 L 26.97 104.87 L 26.01 104.75 C 24.35 106.50 23.23 109.61 22.60 111.96 C 21.77 114.38 23.16 116.88 22.09 119.13 L 21.96 117.81 C 21.11 115.11 19.57 113.01 19.88 110.00 C 19.49 106.04 24.24 101.53 22.74 97.24 C 21.36 94.40 20.72 92.38 20.65 89.16 C 18.40 87.77 15.51 92.52 15.77 94.43 C 15.46 95.98 15.16 97.34 16.04 98.79 C 15.98 99.84 15.67 100.75 15.11 101.50 C 14.71 99.01 13.70 96.93 14.14 94.33 C 15.47 90.51 14.75 86.90 13.92 83.11 C 12.53 79.74 8.35 76.41 4.84 75.85 C 5.50 79.95 4.80 83.90 5.00 88.01 C 5.98 90.96 6.68 93.75 9.22 95.78 C 11.91 97.90 12.28 100.86 13.68 103.68 L 14.28 104.67 L 13.36 106.00 C 11.44 100.72 6.60 98.69 1.36 98.33 C 0.99 99.23 0.96 100.06 1.27 100.81 C 2.26 103.93 2.99 107.18 5.68 109.33 C 8.42 111.59 11.44 111.45 14.62 112.36 C 18.26 114.68 18.67 118.11 20.52 121.61 C 21.09 122.74 21.99 123.67 22.01 124.92 C 21.39 124.47 20.83 123.95 20.33 123.35 C 17.70 116.99 11.97 113.13 4.97 114.08 C 6.96 118.10 8.95 122.89 13.35 124.65 C 15.30 125.27 17.27 125.91 19.28 126.23 C 21.36 127.34 23.19 128.35 24.76 130.16 C 25.24 131.53 28.51 134.09 26.93 135.31 L 26.41 134.22 C 25.41 132.48 23.76 131.08 22.36 129.65 C 19.59 126.41 14.12 126.18 10.32 127.14 C 12.76 132.43 17.27 136.72 23.17 137.66 C 26.04 138.18 32.16 138.87 31.19 143.17 C 27.73 140.75 24.17 140.42 20.07 141.06 C 19.69 145.20 22.94 149.86 26.83 151.29 C 27.42 152.26 25.71 155.25 24.90 155.94 C 19.40 155.38 13.32 157.90 11.48 163.44 C 9.98 170.55 7.86 177.88 6.59 184.99 C 8.25 190.46 13.40 195.08 18.35 197.67 C 27.24 201.78 35.81 199.42 45.00 198.73 C 53.40 197.56 61.18 196.68 69.81 195.12 C 70.47 196.05 71.12 196.99 71.76 197.94 C 90.41 193.41 109.90 193.39 128.57 197.83 C 128.91 196.94 129.41 196.21 130.05 195.64 C 137.23 196.61 143.63 197.70 150.99 198.55 C 153.42 199.52 156.85 198.23 158.72 200.00 L 0.00 200.00 L 0.00 0.00 Z" fill="#ffffff" />
<path d="M 97.24 0.00 L 103.01 0.00 L 103.72 0.12 C 115.96 0.78 127.94 4.26 138.54 10.45 C 154.01 19.39 166.15 33.75 172.37 50.50 C 181.13 73.83 177.76 101.01 163.31 121.35 C 156.17 131.64 146.54 140.17 135.41 145.93 C 135.00 147.38 135.79 149.12 136.23 150.52 C 137.54 154.56 139.43 158.25 142.72 161.03 L 145.09 159.94 C 143.25 156.04 142.70 151.99 143.77 147.75 C 144.63 146.04 147.04 143.30 148.30 142.11 C 148.18 145.10 150.17 147.16 150.54 150.02 C 151.02 152.78 149.78 154.68 148.99 157.22 C 151.04 156.14 154.12 153.65 153.85 151.02 C 154.24 146.57 151.14 143.98 152.58 139.47 C 153.80 136.61 155.88 134.11 157.44 131.42 C 157.46 130.80 157.80 130.37 158.47 130.12 C 158.38 133.08 160.69 135.00 160.85 137.96 C 160.96 142.98 157.58 145.85 156.66 150.25 C 159.13 148.24 161.20 145.72 163.45 143.46 C 164.77 141.16 164.07 137.45 163.31 134.99 C 161.85 131.51 160.22 127.13 162.87 123.79 C 161.38 127.38 161.85 130.76 163.45 134.22 C 164.71 136.91 164.57 139.67 164.49 142.58 C 166.76 142.20 167.37 141.43 168.49 139.52 C 165.71 139.17 165.81 137.51 167.16 135.79 L 166.68 138.53 L 167.93 138.50 C 167.86 135.97 170.07 134.47 170.48 132.53 L 171.68 132.48 C 170.83 130.56 172.17 129.34 172.73 127.57 C 174.67 124.10 172.75 120.15 171.39 116.84 C 170.78 113.67 171.07 110.37 172.54 107.46 C 173.25 106.50 173.55 105.34 173.44 104.00 C 175.37 106.03 176.34 109.31 177.17 111.95 L 176.96 113.16 C 176.26 110.58 175.65 107.73 174.05 105.56 C 172.54 107.44 172.12 109.69 171.58 111.97 C 170.33 116.83 174.92 120.70 173.71 125.99 C 173.18 128.38 171.53 130.13 171.76 132.72 C 173.53 131.29 175.94 130.22 175.88 127.92 C 177.78 127.82 178.89 125.93 180.59 125.81 C 181.00 126.64 181.78 127.03 182.94 126.99 C 182.50 127.45 181.79 127.53 180.82 127.23 C 178.64 128.72 176.98 130.99 174.91 132.43 C 174.25 130.92 170.70 133.15 173.18 133.69 L 173.20 134.13 L 172.15 134.36 C 172.29 138.37 172.10 133.23 170.23 133.64 C 169.34 135.40 168.54 137.19 167.82 139.01 C 170.20 139.19 171.58 137.23 173.94 137.01 C 177.96 136.31 181.58 135.64 184.54 132.57 C 185.85 131.06 188.35 129.15 187.96 126.94 C 186.57 126.82 185.17 126.77 183.77 126.78 C 185.15 125.84 187.93 126.74 189.58 126.85 C 187.52 129.35 186.23 132.28 183.24 134.21 C 179.92 136.92 176.07 136.79 172.11 137.90 C 170.87 138.31 169.94 139.64 168.63 139.52 C 168.36 140.60 168.01 141.65 167.59 142.69 C 166.55 142.60 165.49 142.67 164.41 142.90 C 164.15 146.34 165.56 149.53 165.26 153.00 C 164.65 158.90 160.43 164.10 154.48 165.21 C 149.25 165.97 143.92 163.36 140.53 159.47 C 137.48 156.19 135.96 151.42 134.85 147.18 C 134.78 144.10 134.87 141.00 134.71 137.93 C 131.94 135.09 126.54 134.39 122.73 133.92 C 126.14 132.95 130.63 135.31 133.97 136.27 C 142.58 131.54 149.63 124.65 155.55 116.88 L 155.41 115.83 C 153.41 115.66 150.68 116.05 148.88 115.11 C 147.62 110.13 151.41 107.82 152.65 103.46 C 149.83 103.22 147.59 103.68 144.99 102.24 C 142.40 101.51 142.36 103.39 140.49 104.19 C 137.66 104.32 135.21 103.55 132.72 105.32 C 130.42 106.07 129.80 108.23 127.84 109.32 C 126.91 109.11 125.99 108.97 125.06 108.91 C 122.83 110.31 122.15 112.71 119.19 112.89 C 121.40 111.76 122.85 110.34 124.49 108.51 C 126.47 108.62 130.88 109.15 129.36 105.78 C 125.83 105.67 123.16 105.13 120.03 103.49 C 117.00 103.05 114.09 102.45 111.00 102.64 C 108.08 102.86 105.47 101.68 102.99 103.09 C 102.39 104.13 101.97 105.23 101.27 106.21 C 100.45 106.57 99.58 106.86 98.69 107.07 L 97.90 107.02 C 99.43 106.55 101.84 106.12 101.65 104.03 C 101.01 94.06 101.51 83.99 101.32 74.00 C 101.12 70.90 102.13 67.56 101.35 64.58 C 97.87 64.43 94.13 64.27 90.67 64.70 C 90.43 78.60 90.96 92.56 90.49 106.46 L 90.13 106.34 C 90.53 99.58 90.23 92.77 90.32 86.00 C 90.21 80.64 90.56 75.22 90.09 69.89 C 88.59 69.85 87.08 69.88 85.58 69.98 C 84.77 72.90 85.58 76.91 85.13 80.02 C 86.75 79.34 87.89 76.72 89.46 78.97 C 89.09 80.18 88.46 80.83 87.57 80.90 L 86.89 79.05 C 86.24 79.68 85.63 80.34 85.07 81.03 C 85.53 88.95 84.98 97.01 85.40 104.94 L 84.41 105.13 C 85.33 103.28 84.56 100.37 84.73 98.28 C 83.36 98.28 81.93 98.34 80.44 98.45 C 81.57 101.46 75.31 104.19 77.13 106.76 C 79.13 106.15 81.04 105.76 83.09 105.44 L 83.48 106.02 C 81.46 106.29 79.67 106.21 77.77 107.11 C 74.18 107.13 70.59 107.14 67.00 107.10 C 63.35 106.88 60.69 109.82 56.90 109.45 C 51.42 112.66 46.14 110.54 40.47 111.57 C 45.89 121.01 53.86 129.11 63.03 134.96 C 64.36 135.86 65.65 136.47 67.20 136.88 C 66.34 137.12 65.53 137.52 64.77 138.06 C 64.69 140.67 64.46 143.26 64.45 145.87 C 42.08 135.08 25.97 111.61 23.01 87.00 C 21.49 74.57 22.87 61.92 27.35 50.19 C 34.19 31.85 48.28 16.43 65.88 7.87 C 75.68 3.00 86.34 0.55 97.24 0.00 Z" fill="#010100" />
<path d="M 103.01 0.00 L 200.00 0.00 L 200.00 200.00 L 176.13 200.00 C 183.05 197.78 190.82 192.34 192.88 184.99 C 191.44 178.47 189.47 170.70 188.04 164.00 C 187.75 160.77 184.11 157.80 181.25 156.70 C 178.89 155.51 176.72 156.16 174.22 155.84 C 173.79 154.36 172.54 152.69 172.60 151.19 C 176.47 149.85 180.73 144.44 179.62 140.48 C 176.90 140.22 173.89 140.25 171.31 141.25 C 170.07 141.85 169.05 143.48 167.59 142.69 C 168.01 141.65 168.36 140.60 168.63 139.52 C 169.94 139.64 170.87 138.31 172.11 137.90 C 176.07 136.79 179.92 136.92 183.24 134.21 C 186.23 132.28 187.52 129.35 189.58 126.85 C 187.93 126.74 185.15 125.84 183.77 126.78 L 182.94 126.99 C 181.78 127.03 181.00 126.64 180.59 125.81 L 180.71 125.72 C 183.97 125.35 187.56 124.34 189.93 121.93 C 191.90 119.99 192.77 117.63 194.27 115.26 C 194.70 114.72 194.84 114.13 194.68 113.49 C 190.70 113.48 186.89 114.04 183.82 116.77 C 182.86 117.30 182.41 119.26 181.23 118.72 C 180.26 117.34 182.32 115.25 182.94 113.95 C 185.50 110.58 189.48 111.85 192.82 109.85 C 196.82 107.81 198.45 102.31 198.84 98.18 C 194.25 97.47 187.90 100.64 186.73 105.44 L 186.62 105.81 C 185.85 106.76 185.20 106.79 184.66 105.92 L 185.36 105.38 L 186.02 104.86 L 185.97 103.92 L 186.07 103.20 C 186.93 102.89 187.23 102.10 186.97 100.84 L 187.34 100.09 C 188.40 97.76 189.54 96.15 191.43 94.43 C 193.46 92.66 193.95 90.31 194.79 87.87 C 195.37 84.29 194.18 80.64 194.97 76.96 C 195.16 76.38 195.00 75.83 194.49 75.28 C 191.74 76.77 187.67 78.57 186.61 81.75 C 184.65 85.50 185.20 91.01 185.83 95.03 C 186.12 96.93 185.21 98.26 184.78 100.06 C 184.28 101.41 183.99 102.69 183.84 104.12 C 183.54 103.43 183.28 102.72 183.07 101.98 L 183.59 100.74 C 184.80 97.97 184.55 94.98 183.89 92.11 C 183.09 90.53 181.40 87.91 179.34 88.30 C 178.74 90.64 179.32 92.74 177.95 94.94 C 175.56 99.18 178.08 103.24 179.90 107.11 C 180.29 109.51 180.50 114.06 178.02 115.38 C 177.80 114.22 177.51 113.08 177.17 111.95 C 176.34 109.31 175.37 106.03 173.44 104.00 C 173.55 105.34 173.25 106.50 172.54 107.46 C 171.07 110.37 170.78 113.67 171.39 116.84 C 172.75 120.15 174.67 124.10 172.73 127.57 C 172.17 129.34 170.83 130.56 171.68 132.48 L 170.48 132.53 C 170.07 134.47 167.86 135.97 167.93 138.50 L 166.68 138.53 L 167.16 135.79 C 167.99 133.98 168.63 132.08 169.31 130.21 C 170.30 129.43 170.53 124.54 169.27 124.01 C 169.13 121.93 168.22 120.02 167.33 118.13 C 165.75 119.43 165.10 121.48 163.54 122.92 L 162.87 123.79 C 160.22 127.13 161.85 131.51 163.31 134.99 C 164.07 137.45 164.77 141.16 163.45 143.46 C 161.20 145.72 159.13 148.24 156.66 150.25 C 157.58 145.85 160.96 142.98 160.85 137.96 C 160.69 135.00 158.38 133.08 158.47 130.12 C 157.80 130.37 157.46 130.80 157.44 131.42 C 155.88 134.11 153.80 136.61 152.58 139.47 C 151.14 143.98 154.24 146.57 153.85 151.02 C 154.12 153.65 151.04 156.14 148.99 157.22 C 149.78 154.68 151.02 152.78 150.54 150.02 C 150.17 147.16 148.18 145.10 148.30 142.11 C 147.04 143.30 144.63 146.04 143.77 147.75 C 142.70 151.99 143.25 156.04 145.09 159.94 L 142.72 161.03 C 139.43 158.25 137.54 154.56 136.23 150.52 C 135.79 149.12 135.00 147.38 135.41 145.93 C 146.54 140.17 156.17 131.64 163.31 121.35 C 177.76 101.01 181.13 73.83 172.37 50.50 C 166.15 33.75 154.01 19.39 138.54 10.45 C 127.94 4.26 115.96 0.78 103.72 0.12 L 103.01 0.00 Z" fill="#ffffff" />
<path d="M 117.03 4.11 C 129.83 7.05 141.84 13.61 151.40 22.60 C 163.05 33.57 171.23 48.36 173.92 64.16 C 176.82 79.70 174.42 96.24 167.41 110.40 C 160.52 124.53 149.17 136.01 135.49 143.66 C 135.06 141.85 135.28 139.86 135.33 138.02 C 151.24 128.60 163.27 113.08 167.96 95.15 C 174.30 72.24 167.88 46.67 151.65 29.35 C 138.59 14.97 119.44 6.41 100.00 6.48 C 84.60 6.28 69.15 11.52 56.92 20.87 C 39.29 34.18 28.45 55.84 29.08 78.00 C 29.02 102.56 43.02 125.79 64.14 138.08 C 64.53 139.79 64.06 141.73 64.05 143.48 C 43.61 132.60 28.87 111.94 25.41 89.02 C 23.54 77.20 24.50 64.84 28.38 53.49 C 34.20 35.95 46.75 20.89 62.84 11.82 C 79.10 2.53 98.82 -0.23 117.03 4.11 Z" fill="#fefefe" />
<path d="M 132.17 16.75 C 128.30 18.85 124.38 17.05 120.56 18.67 L 119.06 18.27 C 117.42 17.46 115.36 16.12 113.50 16.92 C 109.17 18.79 104.82 17.78 100.00 18.00 C 90.21 17.91 80.37 18.19 70.60 17.88 C 70.44 17.02 70.22 16.18 69.92 15.37 C 89.21 5.83 113.32 6.40 132.17 16.75 Z" fill="#08719c" />
<path d="M 69.92 15.37 C 70.22 16.18 70.44 17.02 70.60 17.88 C 80.37 18.19 90.21 17.91 100.00 18.00 C 104.82 17.78 109.17 18.79 113.50 16.92 C 113.69 18.85 113.67 20.78 113.60 22.71 C 112.01 24.37 111.78 26.36 109.03 26.03 C 91.93 25.85 74.74 26.17 57.67 25.90 C 57.53 25.06 57.32 24.24 57.03 23.45 C 60.94 20.24 65.37 17.57 69.92 15.37 Z" fill="#0681b0" />
<path d="M 113.91 17.00 C 115.59 16.83 117.34 18.06 119.06 18.27 L 120.56 18.67 L 120.86 19.00 C 121.20 20.01 121.88 20.73 122.92 21.14 C 123.64 22.11 124.40 23.04 125.15 23.99 C 121.60 22.66 121.19 18.76 117.02 18.39 L 116.20 18.96 C 116.23 23.29 116.31 27.62 116.36 31.96 L 115.86 34.71 C 115.25 34.81 114.64 34.90 114.03 34.99 C 113.89 29.00 113.93 22.99 113.91 17.00 Z" fill="#9d9b71" />
<path d="M 132.17 16.75 C 135.36 18.54 138.49 20.41 141.35 22.71 C 138.23 25.54 134.21 22.60 131.51 25.45 C 129.19 25.53 127.20 25.07 125.15 23.99 C 124.40 23.04 123.64 22.11 122.92 21.14 C 123.24 19.43 122.55 18.72 120.86 19.00 L 120.56 18.67 C 124.38 17.05 128.30 18.85 132.17 16.75 Z" fill="#067faf" />
<path d="M 116.20 18.96 L 117.02 18.39 C 121.19 18.76 121.60 22.66 125.15 23.99 C 127.20 25.07 129.19 25.53 131.51 25.45 C 131.46 29.33 131.56 33.22 131.65 37.11 C 129.36 37.45 126.99 36.94 124.79 36.28 C 123.15 35.36 121.85 33.76 120.33 32.63 C 119.17 32.03 117.64 32.14 116.36 31.96 C 116.31 27.62 116.23 23.29 116.20 18.96 Z" fill="#f3e49f" />
<path d="M 120.86 19.00 C 122.55 18.72 123.24 19.43 122.92 21.14 C 121.88 20.73 121.20 20.01 120.86 19.00 Z" fill="#066084" />
<path d="M 113.60 22.71 C 113.43 26.65 114.27 31.44 113.40 35.17 L 111.37 35.33 C 110.33 32.90 107.10 34.20 105.00 34.00 C 86.53 34.00 67.95 34.22 49.51 33.89 C 49.46 32.74 49.45 31.59 49.47 30.44 C 51.80 27.92 54.33 25.57 57.03 23.45 C 57.32 24.24 57.53 25.06 57.67 25.90 C 74.74 26.17 91.93 25.85 109.03 26.03 C 111.78 26.36 112.01 24.37 113.60 22.71 Z" fill="#0491c5" />
<path d="M 141.35 22.71 C 144.48 25.18 147.57 27.81 150.18 30.83 C 148.80 31.50 147.61 32.12 146.03 32.03 C 141.76 32.01 137.61 32.32 133.40 31.46 C 133.21 33.23 133.19 35.11 132.80 36.84 L 131.65 37.11 C 131.56 33.22 131.46 29.33 131.51 25.45 C 134.21 22.60 138.23 25.54 141.35 22.71 Z" fill="#058dc0" />
<path d="M 49.47 30.44 C 49.45 31.59 49.46 32.74 49.51 33.89 C 67.95 34.22 86.53 34.00 105.00 34.00 C 107.10 34.20 110.33 32.90 111.37 35.33 C 110.66 35.59 109.99 35.93 109.37 36.35 C 108.94 38.08 109.15 39.94 109.40 41.69 L 108.67 43.43 C 106.77 43.17 104.93 42.76 103.00 42.82 C 85.33 42.93 67.67 42.80 50.00 42.84 C 46.76 42.78 43.85 43.29 40.81 41.88 C 43.25 37.79 46.22 33.93 49.47 30.44 Z" fill="#03a3da" />
<path d="M 133.40 31.46 C 137.61 32.32 141.76 32.01 146.03 32.03 C 147.61 32.12 148.80 31.50 150.18 30.83 C 151.84 32.69 153.51 34.48 154.90 36.56 C 154.57 37.66 154.47 38.75 154.39 39.89 C 145.95 40.28 137.45 39.86 129.00 40.11 C 126.17 40.31 123.48 39.26 120.73 39.80 C 120.57 38.65 120.92 36.83 120.09 35.93 C 118.68 35.52 117.25 35.18 115.86 34.71 L 116.36 31.96 C 117.64 32.14 119.17 32.03 120.33 32.63 C 121.85 33.76 123.15 35.36 124.79 36.28 C 126.99 36.94 129.36 37.45 131.65 37.11 L 132.80 36.84 C 133.19 35.11 133.21 33.23 133.40 31.46 Z" fill="#039ed5" />
<path d="M 118.95 35.91 C 120.88 36.58 120.08 38.68 120.24 40.24 C 116.69 38.90 113.18 38.65 109.59 40.07 C 109.37 39.04 109.35 37.95 109.52 36.82 C 111.84 34.89 116.16 35.44 118.95 35.91 Z" fill="#f3e5a0" />
<path d="M 154.90 36.56 C 157.73 40.41 160.26 44.54 162.19 48.92 C 160.82 49.54 159.57 50.18 158.02 50.13 C 150.69 50.15 143.34 50.12 136.00 50.10 C 134.68 50.07 133.37 50.29 132.08 50.76 C 131.05 50.77 130.01 50.57 128.99 50.17 C 128.79 48.41 129.27 46.33 128.56 44.71 C 124.93 43.56 121.45 44.01 117.82 43.25 C 118.76 40.73 120.71 42.96 120.73 39.80 C 123.48 39.26 126.17 40.31 129.00 40.11 C 137.45 39.86 145.95 40.28 154.39 39.89 C 154.47 38.75 154.57 37.66 154.90 36.56 Z" fill="#03afe9" />
<path d="M 117.00 42.00 C 117.00 43.13 112.71 43.32 112.89 42.07 C 112.72 40.11 116.74 40.40 117.00 42.00 Z" fill="#f2e8a2" />
<path d="M 40.81 41.88 C 43.85 43.29 46.76 42.78 50.00 42.84 C 67.67 42.80 85.33 42.93 103.00 42.82 C 104.93 42.76 106.77 43.17 108.67 43.43 L 109.40 41.69 C 110.27 41.90 111.13 42.13 111.99 42.35 C 111.35 44.21 112.02 46.29 111.37 48.00 L 109.24 48.36 C 86.82 48.22 64.40 48.33 41.99 48.31 C 40.40 48.40 39.30 47.86 37.96 47.12 C 38.83 45.33 39.79 43.59 40.81 41.88 Z" fill="#02b1eb" />
<path d="M 112.31 43.46 C 114.52 43.53 116.80 43.43 118.98 43.79 C 122.01 44.60 125.11 44.04 128.14 45.07 C 128.95 46.60 128.40 48.88 128.35 50.58 C 129.50 50.92 131.64 50.78 132.19 52.01 C 132.24 53.24 132.31 54.47 132.41 55.69 C 130.54 56.09 127.66 55.78 126.32 54.19 L 128.45 53.29 L 126.90 51.49 C 126.44 52.35 126.02 53.26 125.61 54.20 C 123.74 55.02 122.71 52.94 123.59 51.36 C 122.95 51.29 122.31 51.29 121.68 51.36 C 121.69 52.50 121.79 53.64 121.97 54.78 L 119.21 54.89 C 118.64 53.79 118.59 52.52 119.07 51.08 C 115.82 50.36 118.56 53.85 114.56 54.27 C 114.38 53.09 114.33 51.90 114.39 50.70 C 113.79 50.68 113.18 50.68 112.57 50.70 C 112.47 51.79 112.59 52.89 112.94 54.00 L 109.55 53.67 C 109.69 52.03 109.74 50.39 109.71 48.74 C 113.70 47.99 117.94 49.63 122.01 49.35 C 123.57 49.04 125.70 50.14 127.03 49.44 C 122.21 48.71 117.40 48.86 112.57 48.11 C 111.92 46.95 111.83 45.40 112.31 43.46 Z" fill="#f3e49f" />
<path d="M 37.96 47.12 C 39.30 47.86 40.40 48.40 41.99 48.31 C 64.40 48.33 86.82 48.22 109.24 48.36 C 109.72 52.25 108.28 54.97 108.67 58.82 C 105.14 57.19 101.74 57.77 98.00 57.71 C 79.67 57.72 61.33 57.68 43.00 57.72 C 39.57 57.52 36.90 58.70 34.51 55.54 C 35.49 52.69 36.64 49.83 37.96 47.12 Z" fill="#24bcef" />
<path d="M 162.19 48.92 C 163.79 52.51 165.17 56.18 166.10 60.00 C 162.72 61.13 158.74 60.50 155.17 60.76 C 155.17 59.97 155.17 59.18 155.17 58.40 C 151.44 57.84 147.01 58.07 143.20 58.28 C 143.15 61.38 143.10 64.49 143.26 67.59 C 142.47 67.13 142.06 66.24 142.01 64.92 C 142.34 62.70 142.31 60.62 141.76 58.44 C 139.59 58.56 137.40 58.76 135.26 59.14 C 134.77 61.06 134.44 63.01 134.04 64.95 C 133.67 62.38 134.02 59.73 133.61 57.18 C 131.86 55.15 133.30 52.78 132.08 50.76 C 133.37 50.29 134.68 50.07 136.00 50.10 C 143.34 50.12 150.69 50.15 158.02 50.13 C 159.57 50.18 160.82 49.54 162.19 48.92 Z" fill="#2bbeef" />
<path d="M 109.22 54.39 C 112.13 54.44 115.22 54.30 118.09 54.46 C 120.31 55.90 123.74 55.13 126.32 55.34 C 128.47 56.56 130.78 55.95 133.11 56.78 C 133.55 59.12 133.48 61.77 133.37 64.15 C 130.52 64.07 127.82 63.29 124.94 63.61 C 120.00 62.36 114.52 62.92 109.47 63.25 C 108.73 60.75 109.23 57.11 109.22 54.39 Z" fill="#f6e7a1" />
<path d="M 34.51 55.54 C 36.90 58.70 39.57 57.52 43.00 57.72 C 61.33 57.68 79.67 57.72 98.00 57.71 C 101.74 57.77 105.14 57.19 108.67 58.82 C 108.65 60.02 108.70 61.20 108.82 62.39 C 88.57 62.06 68.26 62.34 48.00 62.25 C 42.87 62.19 37.87 62.45 32.75 61.97 C 33.29 59.81 33.77 57.65 34.51 55.54 Z" fill="#45c6f1" />
<path d="M 112.06 58.00 C 114.04 56.84 115.13 59.22 113.62 60.51 C 111.94 61.35 111.64 59.14 112.06 58.00 Z" fill="#4a4631" />
<path d="M 118.31 58.30 C 120.35 57.31 121.35 58.65 120.56 60.57 C 118.90 61.95 117.25 59.97 118.31 58.30 Z" fill="#7b7350" />
<path d="M 124.30 58.36 C 126.73 57.26 126.86 62.51 124.04 60.98 C 123.55 60.01 123.64 59.14 124.30 58.36 Z" fill="#4b4732" />
<path d="M 141.76 58.44 C 142.31 60.62 142.34 62.70 142.01 64.92 C 141.08 65.35 140.17 65.81 139.28 66.30 C 138.55 68.09 138.73 70.34 138.69 72.24 L 138.13 71.81 C 138.22 69.59 138.17 67.71 137.65 65.54 C 136.69 65.48 135.76 65.52 134.84 65.67 L 134.04 64.95 C 134.44 63.01 134.77 61.06 135.26 59.14 C 137.40 58.76 139.59 58.56 141.76 58.44 Z" fill="#4fc9f2" />
<path d="M 130.63 59.38 C 130.93 61.19 130.50 62.77 128.35 61.67 C 127.28 59.46 128.41 58.20 130.63 59.38 Z" fill="#78714f" />
<path d="M 143.57 58.51 C 147.18 58.18 150.94 58.34 154.58 58.42 C 154.67 61.33 154.89 64.48 154.43 67.34 C 151.08 67.92 147.03 67.73 143.61 67.43 C 143.42 64.47 143.49 61.48 143.57 58.51 Z" fill="#f3e49f" />
<path d="M 166.10 60.00 C 168.18 67.83 168.68 75.94 167.99 83.99 C 167.62 85.42 168.23 88.75 165.72 87.49 C 165.63 80.18 165.87 72.81 165.48 65.51 C 163.90 65.36 162.31 65.41 160.73 65.60 C 159.41 63.51 157.59 64.36 155.47 64.15 C 155.09 63.15 154.99 62.01 155.17 60.76 C 158.74 60.50 162.72 61.13 166.10 60.00 Z" fill="#57cdf4" />
<path d="M 32.75 61.97 C 37.87 62.45 42.87 62.19 48.00 62.25 C 68.26 62.34 88.57 62.06 108.82 62.39 C 108.17 63.12 107.50 63.84 106.82 64.54 C 106.84 65.62 106.85 66.70 106.86 67.78 C 105.46 67.82 104.05 67.87 102.65 67.91 C 102.02 67.03 101.73 65.78 101.78 64.15 C 97.97 64.09 94.12 63.99 90.31 64.24 C 90.22 65.93 90.22 67.63 90.15 69.33 C 88.30 69.57 86.45 69.44 84.61 69.76 C 72.74 69.85 60.87 69.77 49.00 69.80 C 45.67 69.85 42.64 69.45 39.38 70.36 C 36.77 70.45 34.15 70.24 31.53 70.27 C 31.40 67.53 32.19 64.66 32.75 61.97 Z" fill="#60cef3" />
<path d="M 107.79 63.91 C 112.03 63.10 116.68 63.37 121.02 63.33 C 123.21 63.21 124.81 64.71 126.99 63.81 C 127.68 64.46 128.32 65.16 128.90 65.91 L 127.26 66.69 C 127.65 67.88 128.19 68.34 129.42 68.41 C 129.81 67.06 129.36 65.44 129.23 64.04 L 133.96 64.67 C 134.17 66.01 133.76 66.69 132.71 66.72 C 132.68 67.32 132.68 67.93 132.69 68.53 C 133.40 68.71 134.15 68.74 134.92 68.63 C 132.92 65.70 136.44 65.21 137.85 67.06 C 137.54 79.17 137.94 91.45 137.77 103.60 C 134.37 102.85 132.58 105.94 129.43 105.61 C 129.58 96.79 129.29 87.94 129.58 79.12 L 128.53 79.22 C 128.71 87.96 128.68 96.75 128.55 105.49 C 127.10 105.47 125.81 105.07 124.66 104.30 C 124.98 95.70 124.75 87.06 124.80 78.45 L 124.22 78.11 C 124.27 86.90 124.27 95.69 124.21 104.47 C 121.42 104.37 120.98 103.64 121.26 100.99 C 121.28 93.50 121.27 86.00 121.28 78.50 L 120.46 78.41 C 120.39 86.68 120.58 95.01 120.37 103.27 C 116.10 101.84 111.94 102.36 107.55 102.14 C 107.69 92.10 107.62 82.04 107.61 72.00 C 107.69 69.54 106.64 66.10 107.79 63.91 Z" fill="#f3e49f" />
<path d="M 90.67 64.70 C 94.13 64.27 97.87 64.43 101.35 64.58 C 102.13 67.56 101.12 70.90 101.32 74.00 C 101.51 83.99 101.01 94.06 101.65 104.03 C 101.84 106.12 99.43 106.55 97.90 107.02 C 95.50 106.92 92.78 107.28 90.49 106.46 C 90.96 92.56 90.43 78.60 90.67 64.70 Z" fill="#f3e49f" />
<path d="M 118.94 67.94 C 116.99 68.31 115.62 67.84 116.69 65.75 C 118.25 64.17 119.53 66.13 118.94 67.94 Z" fill="#6c6547" />
<path d="M 122.13 65.10 C 122.88 64.92 123.49 65.28 123.98 66.15 C 124.61 68.17 121.62 68.83 121.16 66.99 C 121.14 66.14 121.47 65.51 122.13 65.10 Z" fill="#666043" />
<path d="M 142.01 64.92 C 142.06 66.24 142.47 67.13 143.26 67.59 L 144.58 68.38 C 144.64 70.48 144.60 72.59 144.65 74.69 C 143.70 75.19 142.91 75.26 142.29 74.91 C 142.02 74.05 141.77 73.19 141.53 72.33 C 140.58 72.30 139.64 72.27 138.69 72.24 C 138.73 70.34 138.55 68.09 139.28 66.30 C 140.17 65.81 141.08 65.35 142.01 64.92 Z" fill="#73d5f5" />
<path d="M 155.20 64.52 C 156.59 64.53 157.98 64.60 159.36 64.74 L 159.74 65.81 C 159.00 74.86 159.44 84.13 159.61 93.18 C 158.75 94.85 157.07 96.12 155.85 97.55 L 154.91 97.27 C 154.44 92.50 154.91 87.74 154.63 82.98 C 154.72 80.94 152.91 80.17 153.52 78.01 C 154.01 74.74 153.41 71.34 153.79 68.13 L 155.18 67.29 C 155.15 66.37 155.16 65.44 155.20 64.52 Z" fill="#f3e49f" />
<path d="M 111.06 65.96 C 113.09 64.59 113.87 67.24 112.59 68.48 C 111.11 69.12 110.31 67.08 111.06 65.96 Z" fill="#514c35" />
<path d="M 164.99 65.84 C 165.80 72.65 165.09 80.27 165.55 87.23 C 163.15 87.95 162.19 90.29 160.05 90.89 C 159.44 87.03 159.78 82.92 159.71 79.00 C 159.78 75.05 159.47 71.00 159.96 67.08 C 160.58 64.93 163.29 65.96 164.99 65.84 Z" fill="#f8e8a2" />
<path d="M 101.89 68.64 C 103.25 68.15 105.79 68.08 107.11 68.71 C 107.55 79.66 107.28 90.70 107.24 101.67 C 105.43 101.95 103.66 102.21 101.91 102.75 C 101.56 91.49 101.57 79.91 101.89 68.64 Z" fill="#f7e8a1" />
<path d="M 145.07 68.09 C 147.68 68.30 150.82 67.65 153.28 68.43 C 153.20 72.00 153.48 75.54 153.03 79.11 C 152.35 78.86 151.67 78.62 150.99 78.38 C 150.34 78.67 149.70 78.97 149.06 79.28 C 148.69 78.09 148.93 75.88 148.05 75.00 C 147.07 74.88 146.07 74.83 145.06 74.86 C 145.06 72.61 145.04 70.35 145.07 68.09 Z" fill="#f3e49f" />
<path d="M 39.38 70.36 C 42.64 69.45 45.67 69.85 49.00 69.80 C 60.87 69.77 72.74 69.85 84.61 69.76 L 84.95 73.21 C 81.66 74.16 78.05 73.60 74.64 73.63 C 73.81 76.31 74.62 79.33 73.63 81.80 C 73.45 79.65 73.31 77.44 72.92 75.31 C 66.78 76.24 60.33 75.82 54.13 75.70 C 53.16 75.50 52.21 75.23 51.27 74.90 C 51.09 74.45 50.88 74.02 50.64 73.60 C 46.86 73.83 43.05 73.65 39.25 73.73 C 39.19 72.61 39.23 71.49 39.38 70.36 Z" fill="#7fd8f6" />
<path d="M 85.58 69.98 C 87.08 69.88 88.59 69.85 90.09 69.89 C 90.56 75.22 90.21 80.64 90.32 86.00 C 90.23 92.77 90.53 99.58 90.13 106.34 C 88.54 105.84 87.06 105.18 85.40 104.94 C 84.98 97.01 85.53 88.95 85.07 81.03 C 85.63 80.34 86.24 79.68 86.89 79.05 L 87.57 80.90 C 88.46 80.83 89.09 80.18 89.46 78.97 C 87.89 76.72 86.75 79.34 85.13 80.02 C 85.58 76.91 84.77 72.90 85.58 69.98 Z" fill="#f6e7a1" />
<path d="M 31.70 70.54 C 33.96 70.74 36.22 70.72 38.49 70.71 C 39.10 74.16 38.63 77.94 38.81 81.48 C 39.79 88.21 39.15 95.22 39.32 102.11 C 38.15 102.44 37.03 102.54 35.95 102.39 C 31.82 92.49 30.40 80.99 31.70 70.54 Z" fill="#f5e6a0" />
<path d="M 118.12 73.09 C 120.70 71.96 120.79 76.91 118.15 75.86 C 117.64 74.95 117.63 74.02 118.12 73.09 Z" fill="#4c4732" />
<path d="M 122.34 73.28 C 124.17 72.08 124.81 74.68 123.90 75.89 C 121.98 76.59 121.49 74.63 122.34 73.28 Z" fill="#4c4732" />
<path d="M 126.35 73.33 C 128.62 71.79 129.75 75.01 127.92 76.00 C 126.19 76.30 125.50 74.67 126.35 73.33 Z" fill="#7c7551" />
<path d="M 132.98 73.02 C 133.15 75.03 133.13 77.10 130.61 75.53 C 130.45 73.30 130.37 72.63 132.98 73.02 Z" fill="#7b7451" />
<path d="M 138.35 72.58 L 141.14 72.83 C 142.06 74.61 140.92 76.97 141.36 78.99 C 141.45 87.13 141.04 95.18 141.35 103.34 L 138.31 103.58 C 138.46 93.30 138.12 82.80 138.35 72.58 Z" fill="#fff3a9" />
<path d="M 39.24 74.22 C 43.04 74.24 46.88 74.12 50.68 74.29 C 50.71 77.53 50.76 80.77 50.42 84.00 C 50.23 90.02 50.47 96.04 50.32 102.06 C 46.72 102.48 43.46 102.85 39.84 102.11 C 39.70 92.40 39.40 83.69 39.24 74.22 Z" fill="#f3e49f" />
<path d="M 51.27 74.90 C 52.21 75.23 53.16 75.50 54.13 75.70 C 60.33 75.82 66.78 76.24 72.92 75.31 C 73.31 77.44 73.45 79.65 73.63 81.80 C 70.43 82.11 70.96 81.11 70.52 78.69 C 68.08 79.09 64.89 78.23 62.69 79.13 C 61.43 79.75 61.12 80.99 60.13 81.93 C 59.23 81.67 58.33 81.40 57.43 81.13 C 55.44 80.60 53.19 81.10 51.14 80.88 C 51.14 78.89 51.07 76.88 51.27 74.90 Z" fill="#98e0f7" />
<path d="M 75.85 73.68 C 77.31 75.17 78.05 75.72 76.71 77.79 C 77.67 78.70 78.48 78.65 79.16 77.64 C 77.37 75.58 78.60 74.20 80.79 74.70 C 81.99 75.22 82.01 76.21 80.85 77.67 C 81.60 78.71 82.41 78.71 83.30 77.64 L 82.15 75.38 C 83.33 75.06 83.86 75.08 85.01 75.54 C 84.73 77.56 84.64 79.61 84.72 81.69 C 81.26 81.73 77.80 81.72 74.35 81.68 C 74.78 78.76 73.61 75.85 75.85 73.68 Z" fill="#f9eaa2" />
<path d="M 95.54 75.51 C 96.36 76.06 96.34 78.92 94.93 78.69 C 93.60 79.11 93.01 77.23 93.26 76.22 C 93.88 75.62 94.64 75.38 95.54 75.51 Z" fill="#78714f" />
<path d="M 194.49 75.28 C 195.00 75.83 195.16 76.38 194.97 76.96 C 194.18 80.64 195.37 84.29 194.79 87.87 C 193.95 90.31 193.46 92.66 191.43 94.43 C 189.54 96.15 188.40 97.76 187.34 100.09 C 186.92 99.39 186.07 99.38 184.78 100.06 C 185.21 98.26 186.12 96.93 185.83 95.03 C 185.20 91.01 184.65 85.50 186.61 81.75 C 187.44 83.28 186.69 85.33 186.58 87.00 C 186.16 90.34 186.90 93.85 187.12 97.21 C 189.04 95.51 191.39 92.95 192.71 90.74 C 194.10 86.75 193.64 81.91 193.19 77.78 L 190.95 78.23 L 190.43 78.40 L 190.16 78.92 C 189.12 79.88 188.13 81.65 186.61 81.75 C 187.67 78.57 191.74 76.77 194.49 75.28 Z" fill="#bbad4e" />
<path d="M 4.84 75.85 C 8.35 76.41 12.53 79.74 13.92 83.11 C 14.75 86.90 15.47 90.51 14.14 94.33 C 13.37 91.55 14.07 88.56 13.36 85.71 C 13.27 82.28 9.40 78.08 6.14 77.73 C 6.51 82.47 5.02 86.62 7.13 90.84 C 8.28 94.07 10.75 95.46 12.85 98.23 C 13.19 99.97 14.43 101.99 13.68 103.68 C 12.28 100.86 11.91 97.90 9.22 95.78 C 6.68 93.75 5.98 90.96 5.00 88.01 C 4.80 83.90 5.50 79.95 4.84 75.85 Z" fill="#aba368" />
<path d="M 141.93 75.68 C 143.69 75.32 146.36 75.08 148.05 75.66 C 148.28 76.83 148.50 78.00 148.69 79.18 C 147.92 81.98 144.53 81.20 142.36 81.05 C 141.83 79.23 141.76 77.57 141.93 75.68 Z" fill="#f7e8a1" />
<path d="M 6.14 77.73 C 9.40 78.08 13.27 82.28 13.36 85.71 C 12.45 89.90 13.02 93.81 12.85 98.23 C 10.75 95.46 8.28 94.07 7.13 90.84 C 5.02 86.62 6.51 82.47 6.14 77.73 Z" fill="#fbe22d" />
<path d="M 43.03 78.02 C 44.91 77.31 45.56 79.37 44.57 80.65 C 42.58 82.09 42.53 79.22 43.03 78.02 Z" fill="#4e4933" />
<path d="M 190.43 78.40 L 190.95 78.23 L 190.16 78.92 L 190.43 78.40 Z" fill="#a59416" />
<path d="M 190.95 78.23 L 193.19 77.78 C 193.64 81.91 194.10 86.75 192.71 90.74 C 191.39 92.95 189.04 95.51 187.12 97.21 C 186.90 93.85 186.16 90.34 186.58 87.00 C 186.69 85.33 187.44 83.28 186.61 81.75 C 188.13 81.65 189.12 79.88 190.16 78.92 L 190.95 78.23 Z" fill="#fde221" />
<path d="M 46.14 79.11 L 47.07 78.56 C 49.68 78.64 48.75 82.62 46.45 81.52 C 45.98 80.77 45.88 79.97 46.14 79.11 Z" fill="#78714f" />
<path d="M 62.69 79.13 C 62.74 83.34 62.80 87.56 62.76 91.77 C 61.76 92.39 60.79 93.06 59.76 93.64 C 59.27 92.12 58.48 91.16 57.38 90.74 C 57.33 87.54 57.36 84.33 57.43 81.13 C 58.33 81.40 59.23 81.67 60.13 81.93 C 61.12 80.99 61.43 79.75 62.69 79.13 Z" fill="#c1ecfa" />
<path d="M 63.29 79.29 C 65.59 79.41 68.17 78.96 70.39 79.56 C 70.99 86.08 70.63 92.80 70.62 99.36 C 68.12 99.40 65.74 100.08 63.21 99.91 C 63.34 93.04 63.23 86.16 63.29 79.29 Z" fill="#f3e49f" />
<path d="M 149.71 79.14 L 152.30 79.21 C 152.91 80.42 154.19 81.57 154.28 82.94 C 154.55 87.99 154.06 93.02 154.65 98.07 C 153.03 99.38 153.22 100.32 153.01 102.24 C 151.70 103.37 148.98 102.55 147.31 102.79 C 148.26 95.61 146.99 88.29 147.66 81.17 C 148.54 80.87 149.23 80.19 149.71 79.14 Z" fill="#f4e59f" />
<path d="M 50.88 81.68 C 52.71 81.07 54.88 81.51 56.79 81.36 C 56.98 87.23 56.79 93.19 56.87 99.07 C 57.50 101.56 55.37 101.37 54.00 102.72 C 52.89 102.51 51.77 102.40 50.66 102.39 C 50.82 95.49 50.42 88.56 50.88 81.68 Z" fill="#f3e49f" />
<path d="M 141.88 81.64 C 143.53 81.63 145.18 81.57 146.83 81.44 C 146.96 82.51 146.98 83.57 146.86 84.63 C 145.08 84.84 143.41 84.75 141.86 84.35 L 141.88 81.64 Z" fill="#f3e8a2" />
<path d="M 71.19 82.24 C 75.70 82.27 80.22 82.19 84.73 82.26 C 84.75 87.42 84.77 92.58 84.72 97.73 C 79.99 97.47 75.81 98.00 71.18 98.82 C 71.13 93.30 71.11 87.76 71.19 82.24 Z" fill="#f3e49f" />
<path d="M 150.14 83.14 C 152.33 82.58 152.78 85.32 151.51 86.40 C 149.26 86.95 149.82 84.48 150.14 83.14 Z" fill="#5b553c" />
<path d="M 13.36 85.71 C 14.07 88.56 13.37 91.55 14.14 94.33 C 13.70 96.93 14.71 99.01 15.11 101.50 C 15.41 103.01 16.15 107.12 18.02 107.09 C 18.38 104.35 17.50 101.11 16.04 98.79 C 15.16 97.34 15.46 95.98 15.77 94.43 C 17.12 93.36 17.80 91.68 19.01 90.45 C 20.22 92.21 20.37 94.95 21.34 96.97 C 22.88 102.20 18.60 105.17 18.79 109.99 C 18.61 112.23 19.46 114.11 19.95 116.23 C 18.04 115.02 16.85 111.62 14.02 110.97 C 10.30 110.11 6.87 110.03 4.61 106.43 C 3.72 104.67 1.96 101.70 2.83 99.82 C 6.53 99.75 10.03 101.95 11.80 105.18 C 12.69 106.30 13.52 108.42 15.21 108.21 C 15.87 107.22 15.56 106.04 14.28 104.67 L 13.68 103.68 C 14.43 101.99 13.19 99.97 12.85 98.23 C 13.02 93.81 12.45 89.90 13.36 85.71 Z" fill="#fbe22d" />
<path d="M 141.92 85.65 C 142.88 84.92 146.17 84.93 147.10 85.71 C 147.45 91.08 147.45 96.69 147.13 102.07 C 145.93 102.53 144.88 102.14 143.96 100.90 C 145.71 99.60 146.57 98.38 143.95 97.45 C 141.91 99.13 146.08 102.05 142.11 101.98 C 141.52 96.60 141.80 91.05 141.92 85.65 Z" fill="#faeba4" />
<path d="M 150.43 88.50 C 152.90 88.00 152.66 92.61 150.09 91.89 C 149.53 90.42 149.65 89.29 150.43 88.50 Z" fill="#615b40" />
<path d="M 167.20 88.05 L 167.28 88.95 C 165.45 98.33 161.87 107.98 156.11 115.67 C 153.99 115.51 151.87 115.27 149.74 115.14 C 147.96 112.58 150.25 109.12 151.63 106.81 C 153.18 104.45 153.23 101.81 154.19 99.27 C 157.12 97.06 159.78 94.77 161.18 91.28 C 162.86 89.32 164.40 87.70 167.20 88.05 Z" fill="#43ac8b" />
<path d="M 179.34 88.30 C 181.40 87.91 183.09 90.53 183.89 92.11 C 184.55 94.98 184.80 97.97 183.59 100.74 C 182.66 97.53 184.64 91.18 180.25 89.90 C 180.19 92.89 178.97 95.28 178.00 98.01 C 177.85 101.06 179.97 104.15 180.94 107.00 C 181.33 109.42 181.00 111.73 180.92 114.16 C 182.83 112.76 183.95 110.97 186.44 110.55 C 190.21 109.83 193.56 109.15 195.61 105.54 C 196.42 103.74 197.71 101.05 197.12 99.13 C 195.03 99.33 192.99 100.13 191.19 101.19 C 189.44 102.30 188.61 104.61 186.73 105.44 C 187.90 100.64 194.25 97.47 198.84 98.18 C 198.45 102.31 196.82 107.81 192.82 109.85 C 189.48 111.85 185.50 110.58 182.94 113.95 C 182.32 115.25 180.26 117.34 181.23 118.72 C 182.41 119.26 182.86 117.30 183.82 116.77 C 186.89 114.04 190.70 113.48 194.68 113.49 C 194.84 114.13 194.70 114.72 194.27 115.26 C 192.77 117.63 191.90 119.99 189.93 121.93 C 187.56 124.34 183.97 125.35 180.71 125.72 C 183.06 123.64 186.24 123.83 188.63 121.65 C 190.59 119.83 191.95 117.31 193.05 114.90 C 190.13 114.50 186.75 115.61 184.52 117.56 C 182.37 119.43 181.25 122.35 179.40 124.37 C 178.82 125.12 178.02 125.33 177.00 125.00 C 177.10 122.25 179.82 119.72 180.04 116.80 C 177.28 117.25 178.00 122.99 175.02 123.03 C 175.04 119.72 176.76 116.52 176.96 113.16 L 177.17 111.95 C 177.51 113.08 177.80 114.22 178.02 115.38 C 180.50 114.06 180.29 109.51 179.90 107.11 C 178.08 103.24 175.56 99.18 177.95 94.94 C 179.32 92.74 178.74 90.64 179.34 88.30 Z" fill="#b1a657" />
<path d="M 20.65 89.16 C 20.72 92.38 21.36 94.40 22.74 97.24 C 24.24 101.53 19.49 106.04 19.88 110.00 C 19.57 113.01 21.11 115.11 21.96 117.81 C 21.15 118.88 20.67 120.15 20.52 121.61 C 18.67 118.11 18.26 114.68 14.62 112.36 C 11.44 111.45 8.42 111.59 5.68 109.33 C 2.99 107.18 2.26 103.93 1.27 100.81 C 0.96 100.06 0.99 99.23 1.36 98.33 C 6.60 98.69 11.44 100.72 13.36 106.00 L 14.28 104.67 C 15.56 106.04 15.87 107.22 15.21 108.21 C 13.52 108.42 12.69 106.30 11.80 105.18 C 10.03 101.95 6.53 99.75 2.83 99.82 C 1.96 101.70 3.72 104.67 4.61 106.43 C 6.87 110.03 10.30 110.11 14.02 110.97 C 16.85 111.62 18.04 115.02 19.95 116.23 C 19.46 114.11 18.61 112.23 18.79 109.99 C 18.60 105.17 22.88 102.20 21.34 96.97 C 20.37 94.95 20.22 92.21 19.01 90.45 C 17.80 91.68 17.12 93.36 15.77 94.43 C 15.51 92.52 18.40 87.77 20.65 89.16 Z" fill="#b2a758" />
<path d="M 34.50 90.42 C 37.13 88.07 38.08 92.46 35.89 93.00 C 34.05 93.26 34.53 91.60 34.50 90.42 Z" fill="#746d4c" />
<path d="M 44.72 90.30 C 45.27 91.68 45.71 93.82 43.47 93.43 C 42.52 92.49 42.60 89.68 44.72 90.30 Z" fill="#5d583d" />
<path d="M 46.27 90.22 C 48.63 88.02 49.66 93.12 47.14 93.05 C 46.17 92.11 45.88 91.17 46.27 90.22 Z" fill="#7f7854" />
<path d="M 143.34 90.24 C 144.10 89.47 144.86 89.48 145.61 90.29 C 146.43 91.71 145.07 93.72 143.53 92.48 C 142.97 91.77 142.91 91.02 143.34 90.24 Z" fill="#5c573c" />
<path d="M 180.25 89.90 C 184.64 91.18 182.66 97.53 183.59 100.74 L 183.07 101.98 C 181.70 102.65 181.74 105.45 182.21 106.65 C 183.13 106.95 183.80 104.81 183.84 104.12 C 183.99 102.69 184.28 101.41 184.78 100.06 C 186.07 99.38 186.92 99.39 187.34 100.09 L 186.97 100.84 C 185.92 101.31 185.62 102.09 186.07 103.20 L 185.97 103.92 L 185.23 104.42 L 185.36 105.38 L 184.66 105.92 C 182.98 106.82 184.14 108.78 185.87 108.07 C 186.83 107.41 187.08 106.65 186.62 105.81 L 186.73 105.44 C 188.61 104.61 189.44 102.30 191.19 101.19 C 192.99 100.13 195.03 99.33 197.12 99.13 C 197.71 101.05 196.42 103.74 195.61 105.54 C 193.56 109.15 190.21 109.83 186.44 110.55 C 183.95 110.97 182.83 112.76 180.92 114.16 C 181.00 111.73 181.33 109.42 180.94 107.00 C 179.97 104.15 177.85 101.06 178.00 98.01 C 178.97 95.28 180.19 92.89 180.25 89.90 Z" fill="#fde221" />
<path d="M 57.38 90.74 C 58.48 91.16 59.27 92.12 59.76 93.64 C 60.79 93.06 61.76 92.39 62.76 91.77 C 62.66 95.12 62.91 98.46 62.63 101.80 C 60.96 101.55 59.27 101.33 57.58 101.14 C 57.03 97.93 57.58 94.09 57.38 90.74 Z" fill="#f3fbfe" />
<path d="M 93.33 96.33 C 95.56 94.71 96.80 96.61 95.59 98.59 C 93.60 99.52 93.05 98.04 93.33 96.33 Z" fill="#5f593e" />
<path d="M 150.03 95.98 C 152.81 94.37 152.75 99.72 150.29 98.67 C 149.72 97.86 149.64 96.97 150.03 95.98 Z" fill="#44402d" />
<path d="M 16.04 98.79 C 17.50 101.11 18.38 104.35 18.02 107.09 C 16.15 107.12 15.41 103.01 15.11 101.50 C 15.67 100.75 15.98 99.84 16.04 98.79 Z" fill="#a39b69" />
<path d="M 72.86 99.25 C 74.52 98.74 76.19 98.36 77.88 98.09 L 77.86 99.83 C 77.11 100.70 76.67 101.60 76.55 102.51 C 74.96 103.60 74.36 105.01 73.33 106.56 C 71.78 106.49 70.23 106.49 68.67 106.54 C 68.98 105.55 69.25 104.55 69.49 103.54 C 71.07 102.33 71.73 100.78 72.86 99.25 Z" fill="#f6e7a1" />
<path d="M 80.31 98.49 C 80.19 99.99 79.00 101.94 77.57 102.37 C 77.47 101.41 78.57 97.27 80.31 98.49 Z" fill="#ddd394" />
<path d="M 84.73 98.28 C 84.56 100.37 85.33 103.28 84.41 105.13 L 83.09 105.44 C 81.04 105.76 79.13 106.15 77.13 106.76 C 75.31 104.19 81.57 101.46 80.44 98.45 C 81.93 98.34 83.36 98.28 84.73 98.28 Z" fill="#f3e49f" />
<path d="M 68.60 99.84 L 69.11 100.68 C 68.24 102.65 67.35 103.45 65.92 104.78 C 66.65 104.52 67.34 104.15 68.00 103.69 L 68.91 104.65 L 68.39 106.40 C 64.67 105.87 62.53 108.07 59.08 108.92 C 59.40 106.16 62.07 104.74 62.68 102.05 L 63.45 101.47 L 63.68 100.33 C 65.42 100.48 66.92 100.26 68.60 99.84 Z" fill="#f2e39f" />
<path d="M 71.71 99.25 C 71.57 100.50 70.87 101.75 69.60 103.02 L 68.97 102.66 C 68.91 100.75 69.87 99.74 71.71 99.25 Z" fill="#e8dc99" />
<path d="M 186.97 100.84 C 187.23 102.10 186.93 102.89 186.07 103.20 C 185.62 102.09 185.92 101.31 186.97 100.84 Z" fill="#a5a07c" />
<path d="M 59.58 101.70 C 59.92 102.51 59.62 103.39 58.68 104.34 C 58.55 106.56 56.22 106.65 56.45 109.16 C 53.31 110.78 50.85 110.78 47.51 110.81 C 47.75 108.96 48.91 107.83 49.48 106.17 C 50.38 105.74 51.31 105.39 52.27 105.11 C 51.63 106.47 50.91 107.81 50.11 109.14 C 51.77 108.39 52.01 105.55 53.49 104.65 L 53.00 103.21 L 54.31 103.22 C 56.36 101.37 56.75 101.44 59.58 101.70 Z" fill="#f2e39e" />
<path d="M 61.94 102.02 C 62.56 102.53 59.64 107.23 58.91 105.85 C 58.60 104.96 60.56 101.12 61.94 102.02 Z" fill="#e3d695" />
<path d="M 77.57 102.37 L 77.35 102.70 L 77.57 102.37 Z" fill="#fff5ab" />
<path d="M 183.07 101.98 C 183.28 102.72 183.54 103.43 183.84 104.12 C 183.80 104.81 183.13 106.95 182.21 106.65 C 181.74 105.45 181.70 102.65 183.07 101.98 Z" fill="#8e864d" />
<path d="M 36.44 102.90 C 38.54 102.51 40.48 102.54 42.59 102.75 C 43.89 104.46 40.48 106.20 39.92 107.92 C 41.21 107.24 41.27 106.29 43.00 105.88 C 44.41 106.91 41.14 109.08 41.18 110.72 L 39.82 110.61 C 39.25 108.38 36.37 105.30 36.44 102.90 Z" fill="#efe19d" />
<path d="M 45.52 103.00 C 46.29 104.01 44.02 105.74 43.00 105.88 C 43.01 103.95 43.16 102.80 45.52 103.00 Z" fill="#f0e19d" />
<path d="M 50.46 102.25 L 50.53 103.10 C 50.56 103.94 50.48 104.79 50.29 105.63 C 47.93 106.16 48.20 109.98 45.55 110.98 L 41.42 110.89 C 42.71 108.22 44.58 105.77 46.40 103.44 C 47.45 102.73 48.80 102.33 50.46 102.25 Z" fill="#f8eaa3" />
<path d="M 68.00 102.60 L 68.97 102.66 L 69.16 103.90 L 68.00 103.69 L 68.00 102.60 Z" fill="#fff6ab" />
<path d="M 77.35 102.70 C 77.28 103.92 76.09 106.89 74.45 106.57 C 73.81 105.48 76.41 102.85 77.35 102.70 Z" fill="#e6d897" />
<path d="M 102.99 103.09 C 105.47 101.68 108.08 102.86 111.00 102.64 C 114.09 102.45 117.00 103.05 120.03 103.49 C 123.16 105.13 125.83 105.67 129.36 105.78 C 130.88 109.15 126.47 108.62 124.49 108.51 C 122.85 110.34 121.40 111.76 119.19 112.89 C 122.15 112.71 122.83 110.31 125.06 108.91 C 125.99 108.97 126.91 109.11 127.84 109.32 C 129.80 108.23 130.42 106.07 132.72 105.32 C 135.21 103.55 137.66 104.32 140.49 104.19 C 142.36 103.39 142.40 101.51 144.99 102.24 C 147.59 103.68 149.83 103.22 152.65 103.46 C 151.41 107.82 147.62 110.13 148.88 115.11 C 150.68 116.05 153.41 115.66 155.41 115.83 L 155.55 116.88 C 149.63 124.65 142.58 131.54 133.97 136.27 C 130.63 135.31 126.14 132.95 122.73 133.92 L 122.27 133.88 L 121.39 132.63 C 117.19 132.39 113.24 131.17 109.00 131.44 C 99.74 131.70 90.70 130.69 81.57 132.66 L 80.78 133.80 L 80.34 133.86 C 78.41 132.76 76.09 133.80 74.00 134.02 C 71.50 134.63 69.27 134.25 67.77 136.71 L 67.20 136.88 C 65.65 136.47 64.36 135.86 63.03 134.96 C 53.86 129.11 45.89 121.01 40.47 111.57 C 46.14 110.54 51.42 112.66 56.90 109.45 C 60.69 109.82 63.35 106.88 67.00 107.10 C 70.59 107.14 74.18 107.13 77.77 107.11 C 79.67 106.21 81.46 106.29 83.48 106.02 C 84.90 105.97 86.11 105.84 87.43 106.54 C 89.79 107.72 92.18 107.93 94.76 108.21 L 94.78 108.90 C 92.88 109.10 90.97 108.90 89.07 109.07 C 87.46 110.09 86.80 112.08 85.01 112.99 C 80.72 116.15 75.27 116.85 70.09 117.12 L 70.13 118.01 C 76.81 118.83 85.57 116.26 89.34 110.35 C 95.06 110.08 100.25 109.07 105.97 109.83 C 108.98 111.87 109.83 117.20 113.01 119.23 C 115.15 119.40 117.71 118.57 119.73 119.28 C 124.05 121.85 127.79 125.40 132.10 128.00 L 133.11 128.14 C 133.04 126.85 131.47 126.17 130.57 125.40 C 127.63 123.38 124.85 121.16 121.93 119.10 C 119.59 117.09 116.20 118.32 113.21 117.83 C 110.60 115.04 109.50 110.84 106.66 108.33 C 103.85 107.72 101.10 108.64 98.69 107.07 C 99.58 106.86 100.45 106.57 101.27 106.21 C 101.97 105.23 102.39 104.13 102.99 103.09 Z" fill="#43ac8b" />
<path d="M 185.23 104.42 L 185.97 103.92 L 186.02 104.86 L 185.36 105.38 L 185.23 104.42 Z" fill="#8e8547" />
<path d="M 26.01 104.75 L 26.97 104.87 L 27.13 106.81 C 24.84 107.68 24.21 109.76 23.79 111.97 C 23.23 115.72 23.75 119.56 25.23 123.05 C 26.45 121.95 26.66 119.06 27.49 117.49 C 29.05 113.76 26.90 110.88 27.19 107.41 C 28.48 109.18 29.00 111.84 29.16 114.00 C 29.64 117.82 25.66 122.12 26.67 126.03 C 27.89 129.83 29.97 133.15 31.56 136.75 C 30.90 136.32 30.25 135.86 29.62 135.37 C 28.79 135.79 27.98 136.00 27.19 136.01 L 26.93 135.31 C 28.51 134.09 25.24 131.53 24.76 130.16 L 26.97 130.13 C 26.08 127.63 25.52 124.31 23.33 122.65 C 22.56 121.69 22.20 120.34 22.09 119.13 C 23.16 116.88 21.77 114.38 22.60 111.96 C 23.23 109.61 24.35 106.50 26.01 104.75 Z" fill="#aea249" />
<path d="M 83.09 105.44 L 84.41 105.13 L 85.40 104.94 C 87.06 105.18 88.54 105.84 90.13 106.34 L 90.49 106.46 C 92.78 107.28 95.50 106.92 97.90 107.02 L 98.69 107.07 C 101.10 108.64 103.85 107.72 106.66 108.33 C 109.50 110.84 110.60 115.04 113.21 117.83 C 116.20 118.32 119.59 117.09 121.93 119.10 C 124.85 121.16 127.63 123.38 130.57 125.40 C 131.47 126.17 133.04 126.85 133.11 128.14 L 132.10 128.00 C 127.79 125.40 124.05 121.85 119.73 119.28 C 117.71 118.57 115.15 119.40 113.01 119.23 C 109.83 117.20 108.98 111.87 105.97 109.83 C 100.25 109.07 95.06 110.08 89.34 110.35 C 85.57 116.26 76.81 118.83 70.13 118.01 L 70.09 117.12 C 75.27 116.85 80.72 116.15 85.01 112.99 C 86.80 112.08 87.46 110.09 89.07 109.07 C 90.97 108.90 92.88 109.10 94.78 108.90 L 94.76 108.21 C 92.18 107.93 89.79 107.72 87.43 106.54 C 86.11 105.84 84.90 105.97 83.48 106.02 L 83.09 105.44 Z" fill="#31755e" />
<path d="M 58.91 105.85 L 59.69 106.45 C 58.93 108.37 58.04 109.22 57.04 109.00 C 56.61 108.10 58.03 106.03 58.91 105.85 Z" fill="#d5c98c" />
<path d="M 184.66 105.92 C 185.20 106.79 185.85 106.76 186.62 105.81 C 187.08 106.65 186.83 107.41 185.87 108.07 C 184.14 108.78 182.98 106.82 184.66 105.92 Z" fill="#ae9d27" />
<path d="M 27.13 106.81 L 27.19 107.41 C 26.90 110.88 29.05 113.76 27.49 117.49 C 26.66 119.06 26.45 121.95 25.23 123.05 C 23.75 119.56 23.23 115.72 23.79 111.97 C 24.21 109.76 24.84 107.68 27.13 106.81 Z" fill="#fbe22d" />
<path d="M 174.05 105.56 C 175.65 107.73 176.26 110.58 176.96 113.16 C 176.76 116.52 175.04 119.72 175.02 123.03 C 178.00 122.99 177.28 117.25 180.04 116.80 C 179.82 119.72 177.10 122.25 177.00 125.00 C 178.02 125.33 178.82 125.12 179.40 124.37 C 181.25 122.35 182.37 119.43 184.52 117.56 C 186.75 115.61 190.13 114.50 193.05 114.90 C 191.95 117.31 190.59 119.83 188.63 121.65 C 186.24 123.83 183.06 123.64 180.71 125.72 L 180.59 125.81 C 178.89 125.93 177.78 127.82 175.88 127.92 C 175.94 130.22 173.53 131.29 171.76 132.72 C 171.53 130.13 173.18 128.38 173.71 125.99 C 174.92 120.70 170.33 116.83 171.58 111.97 C 172.12 109.69 172.54 107.44 174.05 105.56 Z" fill="#fde221" />
<path d="M 4.97 114.08 C 11.97 113.13 17.70 116.99 20.33 123.35 C 18.58 122.88 17.76 120.73 16.59 119.43 C 14.23 116.48 10.75 115.10 7.03 115.05 C 8.07 118.78 10.98 123.14 15.03 123.98 C 16.65 124.61 18.44 124.50 19.28 126.23 C 17.27 125.91 15.30 125.27 13.35 124.65 C 8.95 122.89 6.96 118.10 4.97 114.08 Z" fill="#b0a450" />
<path d="M 7.03 115.05 C 10.75 115.10 14.23 116.48 16.59 119.43 C 17.76 120.73 18.58 122.88 20.33 123.35 C 20.83 123.95 21.39 124.47 22.01 124.92 C 21.99 123.67 21.09 122.74 20.52 121.61 C 20.67 120.15 21.15 118.88 21.96 117.81 L 22.09 119.13 C 22.20 120.34 22.56 121.69 23.33 122.65 C 25.52 124.31 26.08 127.63 26.97 130.13 L 24.76 130.16 C 23.19 128.35 21.36 127.34 19.28 126.23 C 18.44 124.50 16.65 124.61 15.03 123.98 C 10.98 123.14 8.07 118.78 7.03 115.05 Z" fill="#fbe22d" />
<path d="M 167.33 118.13 C 168.22 120.02 169.13 121.93 169.27 124.01 C 168.42 123.25 167.65 122.39 166.96 121.44 C 165.86 122.04 164.72 122.54 163.54 122.92 C 165.10 121.48 165.75 119.43 167.33 118.13 Z" fill="#b5a73b" />
<path d="M 108.91 118.85 L 108.87 119.79 C 103.28 120.59 97.64 121.10 92.10 122.19 C 89.58 122.53 88.79 126.70 86.27 126.87 C 87.26 124.85 88.66 122.86 90.40 121.41 C 93.46 120.51 96.78 120.02 99.97 119.81 C 102.93 119.12 105.86 118.62 108.91 118.85 Z" fill="#2c725c" />
<path d="M 32.99 118.65 C 33.97 120.25 35.15 121.67 36.27 123.18 C 35.08 122.74 33.95 122.14 32.88 121.37 C 30.40 124.78 30.96 128.33 31.94 132.18 L 31.67 133.62 C 28.86 129.31 29.75 122.40 32.99 118.65 Z" fill="#b1a656" />
<path d="M 180.30 120.16 C 181.21 120.23 181.09 120.28 179.94 120.30 L 180.30 120.16 Z" fill="#ffffff" />
<path d="M 32.88 121.37 C 33.95 122.14 35.08 122.74 36.27 123.18 L 36.42 123.36 C 36.74 126.18 38.43 128.02 37.31 131.04 C 35.88 134.69 34.92 137.77 34.73 141.75 C 33.82 141.54 32.91 141.29 32.02 140.99 C 32.63 140.25 33.35 139.57 34.18 138.96 C 34.02 137.26 33.60 134.45 31.75 133.74 L 31.67 133.62 L 31.94 132.18 C 30.96 128.33 30.40 124.78 32.88 121.37 Z" fill="#fbe22d" />
<path d="M 166.96 121.44 C 167.65 122.39 168.42 123.25 169.27 124.01 C 168.68 125.53 168.69 128.70 169.31 130.21 C 168.63 132.08 167.99 133.98 167.16 135.79 C 165.81 137.51 165.71 139.17 168.49 139.52 C 167.37 141.43 166.76 142.20 164.49 142.58 C 164.57 139.67 164.71 136.91 163.45 134.22 C 161.85 130.76 161.38 127.38 162.87 123.79 L 163.54 122.92 C 164.72 122.54 165.86 122.04 166.96 121.44 Z" fill="#fde221" />
<path d="M 179.07 121.94 L 179.88 121.90 L 179.90 122.77 L 179.10 122.80 L 179.07 121.94 Z" fill="#d2d2d2" />
<path d="M 36.42 123.36 C 37.71 124.66 38.64 126.18 39.01 127.99 C 38.69 132.67 35.66 136.09 36.00 141.02 C 35.79 144.32 40.02 146.68 41.79 149.24 C 42.24 150.13 42.74 150.03 43.28 148.93 C 44.80 150.08 44.25 151.93 42.13 150.88 C 40.16 149.52 38.36 146.15 36.20 145.59 C 36.28 146.30 36.33 147.01 36.38 147.71 C 35.63 148.46 35.16 149.29 34.95 150.20 C 36.31 150.75 37.96 150.12 39.21 150.77 C 41.00 152.39 41.82 154.60 44.10 155.84 C 45.17 156.71 47.66 157.17 47.03 159.00 C 44.17 159.47 41.85 156.30 38.99 156.00 C 37.42 156.05 35.98 155.96 35.86 157.94 C 36.61 159.59 38.68 163.37 40.84 162.85 C 43.17 161.32 45.06 159.68 48.02 159.61 C 50.29 160.24 51.08 162.94 52.91 163.85 C 53.76 163.32 54.53 162.72 55.21 162.03 C 52.91 159.15 47.87 157.74 45.89 154.17 C 43.69 150.40 46.74 146.06 46.97 142.03 C 46.44 138.66 44.14 135.93 42.10 133.30 C 40.06 135.35 39.55 138.23 40.11 140.99 C 40.59 143.59 42.90 145.95 42.87 148.59 C 40.11 145.45 37.98 140.40 39.15 136.15 C 40.00 134.38 41.00 132.87 41.07 130.83 L 41.92 130.33 C 43.61 133.15 45.52 135.96 47.17 138.81 C 49.57 143.31 45.97 147.49 46.10 151.86 C 47.58 156.30 53.14 158.90 56.98 161.04 C 60.72 157.47 63.10 152.52 63.30 147.31 L 64.17 147.16 C 64.01 154.71 59.29 162.29 52.22 165.19 C 47.13 167.41 40.72 166.32 37.07 161.97 C 33.71 158.18 33.77 153.84 34.11 149.05 C 34.79 147.08 35.18 145.22 34.93 143.12 C 33.46 141.67 31.81 142.82 31.46 144.51 C 30.23 149.29 29.90 154.03 31.23 158.82 C 32.80 164.10 37.23 168.76 42.77 169.73 C 47.29 171.40 52.97 169.12 57.07 167.07 C 65.68 161.83 68.29 150.80 68.49 141.41 C 70.70 138.97 75.45 138.65 78.53 137.78 C 85.00 137.20 91.49 136.15 98.00 136.04 C 105.50 136.14 113.04 137.20 120.52 137.64 C 123.83 138.24 127.57 138.80 130.56 140.41 C 130.38 150.74 133.87 161.31 142.98 167.05 C 146.42 168.63 150.19 170.12 154.03 169.31 C 159.20 168.79 163.74 165.81 166.62 161.53 C 169.89 155.70 169.82 148.86 167.59 142.69 C 169.05 143.48 170.07 141.85 171.31 141.25 C 173.89 140.25 176.90 140.22 179.62 140.48 C 180.73 144.44 176.47 149.85 172.60 151.19 C 172.54 152.69 173.79 154.36 174.22 155.84 C 176.72 156.16 178.89 155.51 181.25 156.70 C 184.11 157.80 187.75 160.77 188.04 164.00 C 189.47 170.70 191.44 178.47 192.88 184.99 C 190.82 192.34 183.05 197.78 176.13 200.00 L 158.72 200.00 C 156.85 198.23 153.42 199.52 150.99 198.55 C 143.63 197.70 137.23 196.61 130.05 195.64 C 129.41 196.21 128.91 196.94 128.57 197.83 C 109.90 193.39 90.41 193.41 71.76 197.94 C 71.12 196.99 70.47 196.05 69.81 195.12 C 61.18 196.68 53.40 197.56 45.00 198.73 C 35.81 199.42 27.24 201.78 18.35 197.67 C 13.40 195.08 8.25 190.46 6.59 184.99 C 7.86 177.88 9.98 170.55 11.48 163.44 C 13.32 157.90 19.40 155.38 24.90 155.94 C 25.71 155.25 27.42 152.26 26.83 151.29 C 22.94 149.86 19.69 145.20 20.07 141.06 C 24.17 140.42 27.73 140.75 31.19 143.17 C 32.16 138.87 26.04 138.18 23.17 137.66 C 17.27 136.72 12.76 132.43 10.32 127.14 C 14.12 126.18 19.59 126.41 22.36 129.65 C 23.76 131.08 25.41 132.48 26.41 134.22 C 23.78 133.63 22.28 130.33 19.89 129.05 C 17.60 127.55 15.23 127.85 12.62 127.95 C 12.28 129.88 15.16 132.22 16.49 133.49 C 20.96 137.38 25.93 136.15 30.92 138.86 L 31.56 136.75 C 31.88 137.71 32.37 138.48 33.03 139.06 C 33.24 137.20 31.98 135.65 31.75 133.74 C 33.60 134.45 34.02 137.26 34.18 138.96 C 33.35 139.57 32.63 140.25 32.02 140.99 C 32.91 141.29 33.82 141.54 34.73 141.75 C 34.92 137.77 35.88 134.69 37.31 131.04 C 38.43 128.02 36.74 126.18 36.42 123.36 Z" fill="#ada359" />
<path d="M 169.27 124.01 C 170.53 124.54 170.30 129.43 169.31 130.21 C 168.69 128.70 168.68 125.53 169.27 124.01 Z" fill="#949076" />
<path d="M 179.49 127.18 C 179.36 127.86 178.87 128.17 178.01 128.13 C 178.23 127.40 178.73 127.09 179.49 127.18 Z" fill="#f6f6f6" />
<path d="M 182.94 126.99 L 183.77 126.78 C 185.17 126.77 186.57 126.82 187.96 126.94 C 188.35 129.15 185.85 131.06 184.54 132.57 C 181.58 135.64 177.96 136.31 173.94 137.01 C 171.58 137.23 170.20 139.19 167.82 139.01 C 168.54 137.19 169.34 135.40 170.23 133.64 C 172.10 133.23 172.29 138.37 172.15 134.36 L 173.20 134.13 L 173.18 133.69 L 174.91 132.43 C 176.98 130.99 178.64 128.72 180.82 127.23 C 181.79 127.53 182.50 127.45 182.94 126.99 Z" fill="#fde221" />
<path d="M 12.62 127.95 C 15.23 127.85 17.60 127.55 19.89 129.05 C 22.28 130.33 23.78 133.63 26.41 134.22 L 26.93 135.31 L 27.19 136.01 C 27.98 136.00 28.79 135.79 29.62 135.37 C 30.25 135.86 30.90 136.32 31.56 136.75 L 30.92 138.86 C 25.93 136.15 20.96 137.38 16.49 133.49 C 15.16 132.22 12.28 129.88 12.62 127.95 Z" fill="#fbe22d" />
<path d="M 178.01 128.13 C 177.57 129.25 176.84 129.92 175.82 130.13 C 176.08 128.63 176.80 127.96 178.01 128.13 Z" fill="#e5e5e5" />
<path d="M 175.82 130.13 C 175.53 130.44 175.53 130.44 175.82 130.13 Z" fill="#ffffff" />
<path d="M 109.00 131.44 C 113.24 131.17 117.19 132.39 121.39 132.63 L 122.27 133.88 C 108.53 132.33 94.52 132.27 80.78 133.80 L 81.57 132.66 C 90.70 130.69 99.74 131.70 109.00 131.44 Z" fill="#649888" />
<path d="M 174.91 132.43 L 173.18 133.69 C 170.70 133.15 174.25 130.92 174.91 132.43 Z" fill="#d0d0d0" />
<path d="M 80.34 133.86 C 76.08 134.38 71.90 135.57 67.77 136.71 C 69.27 134.25 71.50 134.63 74.00 134.02 C 76.09 133.80 78.41 132.76 80.34 133.86 Z" fill="#6b9286" />
<path d="M 158.09 131.73 C 159.43 134.84 161.23 137.30 160.03 140.85 C 159.34 144.70 156.20 146.90 156.32 150.93 C 159.32 149.22 161.18 145.60 164.02 144.19 C 163.76 146.54 164.90 148.44 164.81 150.71 C 163.68 150.56 162.56 150.44 161.43 150.34 L 161.01 150.94 L 160.57 151.57 L 160.25 152.01 C 157.74 153.03 157.75 156.15 154.53 156.77 C 152.85 156.61 153.71 158.99 153.48 159.98 C 150.14 158.31 149.44 162.80 147.17 163.86 C 145.98 163.12 144.76 162.46 143.51 161.89 C 143.70 161.12 144.45 160.43 145.74 159.81 C 142.67 154.60 142.55 148.13 147.15 143.73 C 148.74 144.16 148.68 146.47 149.47 147.78 C 151.21 151.80 149.39 155.33 147.55 158.89 C 150.18 156.83 152.81 155.71 154.26 152.50 C 154.85 148.99 153.45 146.31 152.71 143.01 C 152.07 139.70 154.45 136.94 156.11 134.35 C 156.58 133.26 157.24 132.39 158.09 131.73 Z" fill="#fde221" />
<path d="M 42.10 133.30 C 44.14 135.93 46.44 138.66 46.97 142.03 C 46.74 146.06 43.69 150.40 45.89 154.17 C 47.87 157.74 52.91 159.15 55.21 162.03 C 54.53 162.72 53.76 163.32 52.91 163.85 C 51.08 162.94 50.29 160.24 48.02 159.61 C 45.06 159.68 43.17 161.32 40.84 162.85 C 38.68 163.37 36.61 159.59 35.86 157.94 C 35.98 155.96 37.42 156.05 38.99 156.00 C 41.85 156.30 44.17 159.47 47.03 159.00 C 47.66 157.17 45.17 156.71 44.10 155.84 C 41.82 154.60 41.00 152.39 39.21 150.77 C 37.96 150.12 36.31 150.75 34.95 150.20 C 35.16 149.29 35.63 148.46 36.38 147.71 C 36.33 147.01 36.28 146.30 36.20 145.59 C 38.36 146.15 40.16 149.52 42.13 150.88 C 44.25 151.93 44.80 150.08 43.28 148.93 L 42.87 148.59 C 42.90 145.95 40.59 143.59 40.11 140.99 C 39.55 138.23 40.06 135.35 42.10 133.30 Z" fill="#fbe22d" />
<path d="M 98.00 136.90 C 104.99 137.28 112.03 137.76 118.97 138.60 C 122.38 138.64 126.39 139.47 129.47 140.94 C 129.67 147.04 130.81 153.72 133.98 159.04 C 135.36 161.90 137.84 163.75 139.51 166.32 C 138.29 166.12 137.09 165.83 135.90 165.46 L 135.82 165.42 C 134.46 164.34 132.91 164.01 131.27 163.62 C 130.49 162.45 130.88 161.21 129.69 160.28 C 126.86 158.21 123.88 158.67 120.57 158.79 C 118.61 159.98 116.91 160.16 114.67 160.39 C 118.40 162.20 119.58 159.19 122.99 159.71 C 125.43 159.56 128.35 159.87 129.90 161.99 L 129.16 163.02 C 126.71 162.54 124.52 161.87 122.01 162.51 C 116.68 162.47 111.13 161.69 105.78 162.26 L 106.55 162.61 C 111.15 162.67 115.63 162.93 120.19 163.53 C 119.39 166.70 118.90 169.82 118.42 173.05 C 114.95 172.42 111.50 171.64 108.03 171.01 C 104.34 171.03 100.68 170.74 97.00 170.96 C 91.70 170.71 86.37 172.29 81.16 173.10 C 80.09 169.91 80.06 166.56 79.12 163.33 C 83.85 163.02 88.47 162.61 93.22 162.60 C 92.60 162.20 91.87 162.03 91.03 162.08 C 86.02 161.90 80.97 162.59 75.96 162.40 C 73.76 162.08 71.89 163.17 69.72 163.00 L 69.43 162.02 C 71.50 160.13 75.31 159.57 78.03 159.74 C 80.10 160.67 82.09 161.33 84.39 160.76 C 82.23 160.00 79.97 159.59 77.81 158.73 C 74.33 158.81 68.38 159.04 68.24 163.73 C 65.53 163.96 63.31 165.81 60.73 166.11 L 61.15 165.24 C 66.99 159.34 69.40 149.99 69.42 141.91 C 71.24 139.83 75.52 139.60 78.12 138.91 C 84.70 137.98 91.36 137.26 98.00 136.90 Z" fill="#fefefe" />
<path d="M 21.19 142.15 C 23.83 141.62 28.19 141.80 30.00 144.10 C 29.95 145.58 28.47 149.79 26.96 150.16 C 23.84 148.95 21.45 145.45 21.19 142.15 Z" fill="#fbe22d" />
<path d="M 178.87 141.86 C 178.05 145.35 175.84 149.20 172.10 150.01 C 170.79 148.28 170.05 146.06 169.14 144.10 C 171.71 141.50 175.46 141.05 178.87 141.86 Z" fill="#fde221" />
<path d="M 86.19 142.96 C 86.38 145.83 86.15 148.73 86.26 151.60 C 87.74 151.61 89.22 151.62 90.71 151.63 L 90.91 153.60 C 88.88 153.84 85.71 154.26 83.84 153.43 C 83.91 150.28 83.87 147.14 83.86 143.99 C 83.78 142.86 84.55 142.52 86.19 142.96 Z" fill="#066781" />
<path d="M 95.58 142.85 C 97.78 142.87 99.98 142.84 102.18 142.88 L 102.82 143.98 C 102.46 146.42 99.05 144.42 97.48 145.42 C 97.48 146.13 97.58 146.80 97.77 147.44 C 99.28 147.44 100.83 147.29 102.33 147.46 C 102.35 148.15 102.35 148.84 102.32 149.52 C 100.76 149.68 99.17 149.53 97.60 149.56 C 97.11 151.68 99.01 154.20 95.75 154.07 C 95.05 150.67 95.40 146.38 95.58 142.85 Z" fill="#005775" />
<path d="M 112.03 142.54 C 113.14 142.67 115.70 143.36 115.09 144.93 C 113.25 146.48 112.26 144.14 110.14 145.09 C 107.21 146.77 107.67 151.17 111.06 151.89 C 112.62 151.94 115.57 149.65 115.30 152.88 C 112.28 155.13 108.62 154.63 106.66 151.38 C 104.08 147.56 107.48 142.02 112.03 142.54 Z" fill="#19728b" />
<path d="M 170.02 149.54 C 171.46 150.81 172.66 154.01 173.05 155.95 C 171.91 156.77 170.70 157.35 169.42 157.70 C 170.02 154.99 169.87 152.28 170.02 149.54 Z" fill="#fbfbfc" />
<path d="M 29.36 150.72 C 29.40 153.17 29.72 155.56 30.07 157.98 C 28.74 157.41 27.42 156.78 26.20 156.00 C 26.65 154.92 27.13 153.84 27.62 152.78 C 27.92 151.63 28.50 150.95 29.36 150.72 Z" fill="#f2f2f5" />
<path d="M 160.57 151.57 L 161.01 150.94 C 162.13 150.87 163.24 150.82 164.35 150.78 C 164.86 152.21 164.92 153.74 164.56 155.36 C 162.41 155.18 160.22 154.97 158.09 155.40 C 158.28 154.30 159.00 153.17 160.25 152.01 L 160.57 151.57 Z" fill="#ffffff" />
<path d="M 35.03 152.19 C 36.07 151.89 37.11 151.60 38.15 151.31 C 39.52 152.16 40.43 153.95 41.31 155.27 C 38.78 154.77 37.35 155.00 35.02 155.92 C 34.79 154.62 34.79 153.37 35.03 152.19 Z" fill="#fefefe" />
<path d="M 157.62 155.23 C 159.42 156.13 161.52 155.13 163.51 155.66 L 163.98 156.74 C 162.74 159.26 161.29 161.30 158.99 162.97 C 157.39 161.91 156.29 160.36 154.23 160.43 C 154.15 159.47 154.12 158.50 154.12 157.53 C 155.83 157.53 156.41 156.18 157.62 155.23 Z" fill="#fde221" />
<path d="M 29.61 159.35 C 30.52 161.10 31.63 162.64 30.63 164.65 C 29.02 168.04 25.32 168.31 22.01 167.95 L 22.18 166.28 C 24.28 165.62 27.31 165.77 27.77 163.02 C 26.27 157.09 15.59 160.47 16.35 166.00 C 16.30 168.46 18.33 170.47 20.15 171.85 C 24.84 175.22 31.55 175.14 37.02 174.43 C 41.74 174.18 46.33 172.06 50.99 171.05 C 59.14 168.92 66.72 163.85 75.01 163.44 C 77.15 163.28 79.36 164.54 78.17 166.94 C 76.35 168.96 71.79 170.85 71.24 173.77 C 72.27 175.04 73.18 176.22 75.01 175.99 C 79.39 175.33 83.55 173.46 88.00 172.93 C 93.34 171.54 98.46 172.06 104.00 171.99 C 110.61 171.62 117.60 174.50 124.02 175.88 C 125.64 175.99 128.18 175.03 128.02 173.06 C 126.90 170.34 123.11 168.88 121.13 166.80 C 120.82 165.98 120.83 165.11 121.17 164.20 C 125.55 161.61 131.96 165.80 135.82 165.42 L 135.90 165.46 C 137.72 167.87 141.80 168.29 144.44 169.58 C 153.67 172.49 162.14 175.75 172.00 174.28 C 176.34 173.95 181.66 171.44 182.97 166.95 C 184.31 161.69 176.52 158.08 172.73 160.73 C 171.18 162.10 171.59 164.70 173.67 165.28 C 174.91 165.91 178.17 165.74 177.02 167.94 C 174.19 168.35 171.36 167.70 169.23 165.74 C 167.50 162.06 168.98 159.09 172.49 157.48 C 177.86 155.71 184.32 157.88 186.85 163.14 C 187.25 165.81 187.23 168.33 185.63 170.62 C 182.42 176.02 175.84 177.64 170.00 178.11 C 157.13 178.33 145.97 173.91 134.55 168.50 C 133.10 167.67 129.70 167.39 130.09 169.89 C 131.48 172.98 135.32 173.68 135.90 176.86 C 134.35 178.96 131.41 179.10 129.05 178.74 C 125.30 178.14 121.82 177.88 118.29 176.68 C 112.08 174.40 104.52 174.75 98.00 174.74 C 93.60 174.64 89.12 174.91 84.80 175.72 C 79.11 177.37 72.95 179.19 66.98 179.00 C 64.99 179.05 62.70 177.29 64.07 175.16 C 65.59 173.32 68.07 172.33 69.21 169.96 C 69.34 167.85 67.72 167.83 66.13 168.13 C 59.65 170.74 53.70 173.96 46.80 175.76 C 38.69 178.28 28.89 179.36 20.82 176.25 C 16.23 174.50 12.64 171.03 11.99 166.00 C 12.50 158.03 24.02 153.99 29.61 159.35 Z" fill="#fde221" />
<path d="M 84.94 159.21 C 87.96 158.97 90.98 159.15 94.00 158.82 C 100.78 158.12 107.36 159.23 114.17 159.17 L 114.24 160.35 C 109.17 160.96 104.14 159.65 99.00 160.00 C 94.20 159.68 89.52 161.00 84.82 160.34 L 84.94 159.21 Z" fill="#ababab" />
<path d="M 158.24 163.06 C 156.16 165.45 151.11 164.95 148.34 164.30 C 148.54 162.82 150.21 161.03 151.42 160.18 C 153.68 159.69 156.70 161.54 158.24 163.06 Z" fill="#ffffff" />
<path d="M 23.95 161.09 C 25.31 160.94 27.17 162.66 26.06 163.95 C 24.53 164.65 22.77 164.86 21.16 165.31 C 20.61 166.62 21.71 170.18 20.05 170.42 C 17.98 168.56 16.77 165.94 18.23 163.28 C 19.76 161.78 21.77 160.83 23.95 161.09 Z" fill="#fde321" />
<path d="M 47.93 160.62 C 48.95 161.43 52.97 164.37 50.03 165.25 C 47.66 164.86 43.38 166.20 41.86 164.01 C 42.66 162.24 46.01 160.72 47.93 160.62 Z" fill="#ffffff" />
<path d="M 93.78 161.14 C 97.57 160.92 101.42 160.93 105.21 161.14 L 105.29 162.37 C 101.87 162.66 97.12 162.65 93.70 162.38 L 93.78 161.14 Z" fill="#b6b6b6" />
<path d="M 175.01 161.03 C 177.99 160.45 183.03 163.33 181.85 166.81 C 181.30 167.96 180.37 170.00 178.93 170.08 C 178.20 168.72 178.53 166.94 178.36 165.42 C 176.78 164.59 174.83 164.47 173.14 163.86 C 172.56 162.53 173.48 160.88 175.01 161.03 Z" fill="#fee421" />
<path d="M 32.02 163.82 C 33.17 164.22 33.79 165.60 34.67 166.42 C 37.44 169.16 40.97 170.95 44.93 170.88 L 44.81 171.72 C 40.60 172.86 36.23 173.40 31.91 173.94 C 31.49 170.66 32.16 167.16 32.02 163.82 Z" fill="#fefefe" />
<path d="M 167.30 163.18 C 167.83 166.58 168.07 169.93 168.06 173.37 C 165.88 174.13 162.58 172.89 160.16 172.84 C 157.68 172.15 153.61 172.25 152.00 170.05 C 157.02 170.35 161.52 168.66 165.00 165.02 C 165.59 163.96 166.35 163.35 167.30 163.18 Z" fill="#fefefe" />
<path d="M 30.24 167.87 C 31.11 169.14 30.82 172.40 29.94 173.67 C 27.36 173.23 24.56 172.88 22.20 171.79 C 21.83 171.05 21.80 170.21 22.12 169.26 C 25.07 169.21 27.46 168.83 30.24 167.87 Z" fill="#fee321" />
<path d="M 169.08 167.89 C 170.76 167.98 172.29 168.87 173.98 169.01 C 175.60 169.42 177.35 168.56 177.72 170.73 C 176.24 173.00 171.59 173.34 169.13 173.04 C 169.04 171.33 169.02 169.61 169.08 167.89 Z" fill="#fee421" />
<path d="M 11.25 169.02 C 12.67 170.94 13.53 172.97 15.49 174.48 C 19.64 177.92 25.72 179.23 31.00 179.34 C 41.91 179.41 52.35 175.63 62.13 171.11 C 64.00 170.38 65.96 169.03 67.97 169.00 C 67.90 172.24 61.58 173.33 62.38 176.83 C 64.26 182.44 67.77 188.27 69.11 193.93 C 62.30 195.80 54.99 196.16 47.98 197.13 C 40.37 198.46 32.71 199.01 24.98 198.59 C 17.99 197.64 11.62 192.73 8.33 186.58 C 7.18 184.73 7.97 183.15 8.34 181.21 C 9.49 177.18 10.39 173.12 11.25 169.02 Z" fill="#fde221" />
<path d="M 78.77 169.08 C 79.32 170.62 79.83 172.10 79.86 173.75 C 77.72 174.20 75.09 174.86 72.99 174.04 C 72.77 172.44 77.41 168.47 78.77 169.08 Z" fill="#cfb03b" />
<path d="M 121.08 168.75 C 123.27 169.80 125.68 171.41 126.67 173.72 C 124.28 175.60 122.74 174.56 120.23 173.64 C 119.81 172.73 119.61 168.62 121.08 168.75 Z" fill="#cfb03b" />
<path d="M 131.13 169.14 C 133.21 168.71 134.57 169.85 136.38 170.61 C 146.45 175.39 157.72 179.44 169.00 179.22 C 174.32 179.15 180.13 177.80 184.24 174.26 C 185.78 173.07 186.41 170.73 188.07 169.84 C 189.47 174.84 190.81 179.91 191.62 185.04 C 191.32 186.72 190.44 188.12 189.48 189.50 C 185.97 193.96 181.44 197.47 175.80 198.70 C 166.63 199.59 158.03 198.65 149.01 197.13 C 142.98 196.42 137.02 195.66 131.01 194.76 L 130.66 193.93 C 132.17 187.89 135.69 182.18 136.93 176.07 C 136.20 173.08 132.42 172.08 131.13 169.14 Z" fill="#fde221" />
<path d="M 99.00 175.92 C 105.58 175.88 112.65 175.80 118.96 178.05 C 123.83 179.74 129.06 179.94 134.17 179.82 L 134.25 180.94 C 132.08 185.82 130.49 191.70 128.02 196.27 C 124.80 196.48 121.30 195.02 118.03 194.77 C 109.28 193.05 100.87 193.46 91.99 193.61 C 85.65 194.05 79.09 195.46 72.92 196.47 L 72.01 196.22 C 69.27 191.09 67.27 185.42 65.02 180.03 C 70.05 180.19 75.39 179.80 80.20 178.25 C 86.08 176.12 92.80 175.79 99.00 175.92 Z" fill="#fde221" />
<path d="M 17.14 179.96 C 18.70 179.81 19.06 181.11 18.36 182.30 C 17.52 184.56 16.87 186.90 15.90 189.11 L 14.72 189.15 C 14.65 188.19 14.70 187.23 14.87 186.26 C 13.10 184.32 12.65 185.18 10.33 185.57 L 10.23 184.20 C 12.61 182.92 14.80 181.33 17.14 179.96 Z" fill="#282405" />
<path d="M 101.62 180.77 L 102.42 182.07 C 101.56 182.30 100.68 182.45 99.77 182.51 C 99.75 184.91 99.90 187.34 99.76 189.74 L 98.22 189.75 C 98.04 187.39 98.19 184.99 98.12 182.62 C 97.27 182.51 96.43 182.35 95.61 182.15 L 95.61 181.01 C 97.53 180.58 99.65 180.89 101.62 180.77 Z" fill="#020200" />
<path d="M 88.18 181.25 C 90.28 181.15 93.48 179.95 94.57 182.45 C 95.82 183.94 94.27 185.03 93.42 186.18 C 93.84 187.65 95.86 188.36 95.27 190.11 C 92.62 191.06 92.43 185.57 90.01 186.82 C 90.16 187.75 90.29 188.69 90.41 189.63 C 89.82 190.80 89.20 190.62 88.55 189.64 C 88.36 187.03 87.49 183.73 88.18 181.25 Z" fill="#3c3508" />
<path d="M 103.28 181.17 L 104.93 180.98 C 105.39 183.15 103.52 187.88 106.08 188.83 C 109.10 188.13 107.19 183.49 108.25 181.27 L 109.77 181.26 C 109.74 183.54 109.35 185.87 109.09 188.14 C 108.50 191.11 103.65 190.71 103.18 187.91 C 103.07 185.67 103.21 183.41 103.28 181.17 Z" fill="#000000" />
<path d="M 111.62 181.41 C 112.20 181.39 112.73 181.51 113.20 181.76 C 114.18 183.14 114.43 186.35 115.90 187.01 C 116.58 185.38 115.44 181.72 117.97 181.99 C 118.03 184.88 117.10 187.95 116.71 190.84 C 113.71 192.42 114.99 185.26 112.47 186.19 C 112.30 187.60 112.50 189.37 111.79 190.63 C 110.91 190.53 110.59 190.02 110.81 189.10 C 111.14 186.54 111.34 183.97 111.62 181.41 Z" fill="#000000" />
<path d="M 16.91 182.18 C 16.89 183.05 16.52 183.97 15.79 184.96 C 12.80 184.40 15.01 181.96 16.91 182.18 Z" fill="#928814" />
<path d="M 81.21 182.10 C 86.33 180.03 88.92 186.70 86.04 190.03 C 84.48 192.01 80.90 191.42 79.94 189.07 C 78.58 186.56 78.73 183.80 81.21 182.10 Z" fill="#2a2505" />
<path d="M 147.56 182.55 C 148.26 182.43 148.80 182.59 149.16 183.04 C 148.93 185.47 148.85 189.29 146.91 191.00 C 145.99 191.06 145.09 191.02 144.20 190.89 C 143.49 189.85 142.03 188.22 144.01 187.56 C 144.67 188.12 145.33 188.68 145.99 189.24 C 147.33 187.12 146.59 184.77 147.56 182.55 Z" fill="#474009" />
<path d="M 22.02 183.00 C 22.35 185.22 17.46 190.04 21.67 190.79 C 23.61 189.05 23.38 185.37 25.78 184.40 L 26.19 185.88 C 25.19 187.89 24.58 190.48 22.92 192.04 C 21.06 193.16 17.62 191.27 17.96 188.99 C 18.42 187.27 19.37 185.68 19.96 183.99 C 20.18 182.94 20.87 182.61 22.02 183.00 Z" fill="#2a2606" />
<path d="M 60.54 184.83 C 59.32 184.28 58.13 184.03 56.96 184.07 C 56.31 186.94 58.24 185.47 60.01 185.87 C 62.08 185.78 62.96 189.24 61.34 190.34 C 59.67 191.98 55.95 191.64 55.96 188.88 C 56.93 188.74 57.94 189.08 58.99 189.89 C 59.69 189.55 60.27 188.99 60.74 188.24 C 59.04 186.51 56.26 188.54 55.18 185.79 C 53.87 182.30 61.50 180.78 60.54 184.83 Z" fill="#0d0b02" />
<path d="M 73.14 183.77 C 74.70 183.68 76.35 182.80 77.87 183.16 C 78.01 185.88 74.97 183.82 73.78 185.92 L 74.65 187.26 C 75.80 186.83 76.91 186.67 78.00 186.77 C 78.38 189.05 76.06 187.92 74.84 189.01 C 75.12 190.19 75.37 191.38 75.61 192.57 L 73.93 192.60 C 73.48 190.02 72.84 187.51 72.14 184.99 C 72.09 184.13 72.43 183.73 73.14 183.77 Z" fill="#000000" />
<path d="M 82.50 183.61 C 85.35 182.98 85.74 187.00 84.85 188.85 C 81.69 191.50 79.26 184.68 82.50 183.61 Z" fill="#fce221" />
<path d="M 90.01 183.07 C 91.16 182.66 94.12 182.54 92.64 184.54 C 91.25 185.43 89.14 185.29 90.01 183.07 Z" fill="#e3d31f" />
<path d="M 122.13 183.01 C 124.61 182.38 124.20 185.47 124.64 187.00 C 124.67 188.83 125.59 191.20 124.91 192.89 C 122.98 192.72 123.40 191.55 122.76 190.09 C 119.85 189.36 120.22 191.12 118.00 191.86 L 117.68 190.97 C 118.99 188.25 120.53 185.59 122.13 183.01 Z" fill="#312c06" />
<path d="M 152.51 183.37 C 152.69 185.37 150.77 190.00 153.09 190.91 C 154.72 189.94 154.71 186.79 154.99 185.01 C 154.81 183.79 155.49 183.45 157.02 184.01 C 157.21 186.42 156.18 188.48 155.95 190.87 C 154.61 193.15 151.44 192.76 150.00 190.83 C 150.06 188.96 149.76 187.21 150.44 185.42 C 151.12 184.08 150.32 182.01 152.51 183.37 Z" fill="#50480a" />
<path d="M 176.90 183.13 L 177.49 184.07 C 177.00 184.70 176.40 185.31 175.69 185.91 C 176.08 188.07 177.33 190.15 177.19 192.32 L 175.93 192.57 C 174.87 190.66 174.40 188.16 173.83 186.03 C 173.02 186.19 172.20 186.32 171.38 186.42 L 171.11 185.16 C 172.74 184.00 174.98 183.78 176.90 183.13 Z" fill="#4a420a" />
<path d="M 54.13 183.83 C 54.35 186.46 52.11 185.85 50.31 186.02 L 50.35 187.66 C 51.59 187.35 52.84 187.12 54.09 186.96 C 56.42 190.92 49.82 187.12 51.00 191.15 C 52.56 191.13 54.41 190.56 55.89 191.13 C 55.43 193.22 51.67 192.98 50.04 193.12 C 48.61 191.07 49.15 187.50 48.14 185.04 C 49.91 184.08 52.14 183.82 54.13 183.83 Z" fill="#453e09" />
<path d="M 158.11 184.09 C 160.94 183.99 159.87 187.75 160.57 189.59 C 162.91 190.24 161.48 183.11 165.04 185.01 C 163.97 187.67 162.76 190.25 161.79 192.95 C 159.08 193.99 159.59 191.70 159.02 189.98 C 158.90 187.80 157.59 186.27 158.11 184.09 Z" fill="#373107" />
<path d="M 28.07 185.10 C 29.71 185.19 31.32 185.46 32.85 186.06 C 34.88 188.40 34.26 192.08 31.94 193.99 C 30.37 194.29 28.63 194.02 27.04 193.90 C 26.85 191.24 27.45 187.72 28.07 185.10 Z" fill="#383207" />
<path d="M 36.62 185.56 C 37.85 185.57 38.60 185.69 38.86 187.09 C 39.39 189.48 40.82 191.77 41.07 194.16 C 40.16 194.79 39.31 194.18 38.51 192.33 C 37.83 192.29 37.14 192.27 36.45 192.29 C 36.00 193.15 35.08 195.70 34.00 193.93 C 34.56 191.22 35.70 188.24 36.62 185.56 Z" fill="#3d3608" />
<path d="M 47.11 188.15 C 45.69 188.24 44.55 186.38 43.35 187.31 C 42.41 189.29 42.54 192.16 45.04 192.85 C 45.88 192.06 46.39 190.64 47.57 190.42 C 49.45 192.81 45.99 195.10 43.82 194.26 C 40.91 193.46 40.01 188.79 41.66 186.63 C 43.14 184.51 48.14 184.75 47.11 188.15 Z" fill="#4b430a" />
<path d="M 169.78 186.17 C 170.34 188.67 172.26 191.41 172.02 193.92 C 170.22 193.69 170.49 192.25 169.07 191.74 C 166.50 191.19 167.26 193.57 164.95 193.96 C 164.60 191.55 166.56 188.55 167.07 186.08 C 167.19 184.53 169.64 184.57 169.78 186.17 Z" fill="#322c07" />
<path d="M 122.96 186.06 C 122.95 187.24 123.52 190.05 121.41 188.64 C 120.20 187.81 121.99 185.58 122.96 186.06 Z" fill="#aa9916" />
<path d="M 29.20 187.15 C 33.10 186.15 31.84 189.42 31.94 191.82 C 31.13 192.30 30.30 192.53 29.45 192.53 C 28.53 191.35 29.11 188.63 29.20 187.15 Z" fill="#e6d41f" />
<path d="M 37.83 188.27 C 38.16 189.23 38.22 190.13 38.00 190.99 C 35.35 191.88 36.79 188.06 37.83 188.27 Z" fill="#ae9b17" />
<path d="M 168.22 187.94 C 169.05 187.89 169.30 188.57 168.99 189.99 C 166.82 190.27 167.32 189.22 168.22 187.94 Z" fill="#bbb11b" />
</svg>