<?xml version="1.0" encoding="UTF-8" standalone="no"?>
<!DOCTYPE svg PUBLIC "-//W3C//DTD SVG 1.1//EN" "http://www.w3.org/Graphics/SVG/1.1/DTD/svg11.dtd">
<svg xmlns="http://www.w3.org/2000/svg" version="1.1" viewBox="0 0 200 200" width="200.0pt" height="200.0pt">
<path d="M 0.00 0.00 L 99.61 0.00 C 93.67 6.81 83.74 8.20 75.25 9.10 C 70.05 9.39 65.10 10.02 59.91 9.99 C 52.84 9.79 45.83 8.98 38.75 8.92 C 33.66 7.92 28.53 8.22 23.50 6.87 C 26.75 18.65 29.38 30.90 30.07 43.13 C 30.87 48.99 31.06 54.75 30.74 60.65 C 30.02 65.79 29.91 70.92 28.81 76.00 C 27.62 81.67 26.47 87.33 25.66 93.06 C 24.62 102.61 23.58 111.66 24.89 121.24 C 25.60 133.06 28.99 144.85 34.35 155.40 C 36.18 158.83 38.29 162.14 40.55 165.31 C 46.44 173.33 53.53 180.02 61.84 185.48 C 70.02 191.03 79.25 195.12 88.73 197.85 C 93.13 198.96 97.48 200.32 102.02 199.30 C 117.27 196.28 132.12 189.93 144.43 180.37 C 156.10 171.26 165.31 159.16 170.28 145.16 C 172.88 138.12 174.52 130.77 175.28 123.32 C 176.75 111.25 175.65 98.60 173.63 86.66 C 171.74 77.61 169.87 68.81 169.58 59.52 C 168.90 52.36 169.89 45.43 170.16 38.28 C 171.19 27.68 173.02 17.16 175.78 6.86 C 171.75 7.42 167.74 8.05 163.68 8.27 C 158.44 9.05 153.26 9.08 147.98 9.34 C 146.45 9.46 144.92 9.60 143.39 9.75 C 133.87 9.60 123.91 9.63 114.57 7.64 C 108.95 6.38 103.73 4.40 99.80 0.00 L 200.00 0.00 L 200.00 200.00 L 0.00 200.00 L 0.00 0.00 Z" fill="#ffffff" />
<path d="M 99.61 0.00 L 99.80 0.00 C 103.73 4.40 108.95 6.38 114.57 7.64 C 112.41 8.42 110.25 9.20 108.04 9.81 C 108.00 10.81 107.96 11.82 107.92 12.83 C 105.13 11.81 102.63 10.32 100.01 8.96 C 92.81 13.49 84.64 15.23 76.26 15.91 C 76.11 14.40 75.96 12.89 75.81 11.38 C 74.99 11.13 74.16 10.88 73.34 10.63 C 73.98 10.12 74.61 9.61 75.25 9.10 C 83.74 8.20 93.67 6.81 99.61 0.00 Z" fill="#016ea6" />
<path d="M 23.50 6.87 C 28.53 8.22 33.66 7.92 38.75 8.92 C 39.39 9.88 40.04 10.85 40.69 11.81 C 38.93 11.99 37.17 12.18 35.41 12.38 C 34.83 13.07 34.25 13.74 33.66 14.41 L 31.98 14.23 C 33.96 21.78 34.75 29.70 35.51 37.45 C 32.51 38.88 31.49 40.21 30.07 43.13 C 29.38 30.90 26.75 18.65 23.50 6.87 Z" fill="#014c80" />
<path d="M 175.78 6.86 C 173.02 17.16 171.19 27.68 170.16 38.28 C 169.15 36.87 168.15 35.45 167.12 34.05 C 166.35 36.37 166.38 38.56 164.29 40.16 C 165.07 31.39 165.98 22.84 168.03 14.22 C 166.83 14.38 165.63 14.53 164.43 14.67 C 163.30 13.80 162.18 12.93 161.06 12.06 C 163.24 11.36 165.45 10.94 167.73 10.66 C 166.39 9.85 165.06 9.02 163.68 8.27 C 167.74 8.05 171.75 7.42 175.78 6.86 Z" fill="#02abed" />
<path d="M 114.57 7.64 C 123.91 9.63 133.87 9.60 143.39 9.75 C 140.53 10.63 137.68 11.06 134.71 11.28 C 135.19 13.18 135.89 14.75 136.91 16.41 C 126.93 16.21 117.50 16.05 107.92 12.83 C 107.96 11.82 108.00 10.81 108.04 9.81 C 110.25 9.20 112.41 8.42 114.57 7.64 Z" fill="#0185bf" />
<path d="M 163.68 8.27 C 165.06 9.02 166.39 9.85 167.73 10.66 C 165.45 10.94 163.24 11.36 161.06 12.06 C 162.18 12.93 163.30 13.80 164.43 14.67 C 158.48 15.24 152.56 15.96 146.56 16.04 C 147.29 14.26 148.20 12.98 149.50 11.59 C 149.00 10.84 148.49 10.09 147.98 9.34 C 153.26 9.08 158.44 9.05 163.68 8.27 Z" fill="#009edd" />
<path d="M 38.75 8.92 C 45.83 8.98 52.84 9.79 59.91 9.99 C 59.34 11.14 58.10 12.47 58.13 13.77 C 58.69 14.65 59.28 15.51 59.92 16.35 C 51.11 16.03 42.40 15.59 33.66 14.41 C 34.25 13.74 34.83 13.07 35.41 12.38 C 37.17 12.18 38.93 11.99 40.69 11.81 C 40.04 10.85 39.39 9.88 38.75 8.92 Z" fill="#015488" />
<path d="M 75.25 9.10 C 74.61 9.61 73.98 10.12 73.34 10.63 C 74.16 10.88 74.99 11.13 75.81 11.38 C 75.96 12.89 76.11 14.40 76.26 15.91 C 70.77 16.15 65.41 16.54 59.92 16.35 C 59.28 15.51 58.69 14.65 58.13 13.77 C 58.10 12.47 59.34 11.14 59.91 9.99 C 65.10 10.02 70.05 9.39 75.25 9.10 Z" fill="#006096" />
<path d="M 100.01 8.96 C 102.63 10.32 105.13 11.81 107.92 12.83 C 117.50 16.05 126.93 16.21 136.91 16.41 C 140.13 16.37 143.35 16.19 146.56 16.04 C 152.56 15.96 158.48 15.24 164.43 14.67 C 165.63 14.53 166.83 14.38 168.03 14.22 C 165.98 22.84 165.07 31.39 164.29 40.16 C 163.97 43.01 163.89 45.88 163.96 48.75 C 163.64 57.90 164.27 66.96 165.84 75.98 C 166.73 80.62 167.86 85.20 168.59 89.87 C 170.44 100.46 170.63 111.17 170.04 121.88 C 168.46 139.11 162.23 155.56 150.25 168.25 C 139.29 180.17 124.26 188.31 108.79 192.71 C 105.95 193.45 103.01 194.41 100.06 194.58 C 96.74 194.35 93.41 193.34 90.22 192.42 C 81.41 189.76 72.94 186.09 65.18 181.11 C 57.53 176.13 50.65 170.07 45.12 162.77 C 42.57 159.39 40.35 155.78 38.39 152.03 C 33.22 141.86 30.71 130.83 29.80 119.50 C 29.51 109.53 29.74 99.71 31.49 89.86 C 33.04 81.32 35.03 72.98 35.82 64.30 C 36.22 55.44 36.50 46.27 35.51 37.45 C 34.75 29.70 33.96 21.78 31.98 14.23 L 33.66 14.41 C 42.40 15.59 51.11 16.03 59.92 16.35 C 65.41 16.54 70.77 16.15 76.26 15.91 C 84.64 15.23 92.81 13.49 100.01 8.96 Z" fill="#fcfefc" />
<path d="M 143.39 9.75 C 144.92 9.60 146.45 9.46 147.98 9.34 C 148.49 10.09 149.00 10.84 149.50 11.59 C 148.20 12.98 147.29 14.26 146.56 16.04 C 143.35 16.19 140.13 16.37 136.91 16.41 C 135.89 14.75 135.19 13.18 134.71 11.28 C 137.68 11.06 140.53 10.63 143.39 9.75 Z" fill="#0193d0" />
<path d="M 99.99 12.96 C 107.41 16.84 115.52 18.71 123.84 19.22 C 131.55 20.11 139.27 20.14 147.00 19.49 C 152.69 18.91 158.37 19.03 164.03 18.04 C 160.61 35.70 159.66 54.16 162.02 72.02 C 163.11 79.74 165.28 87.23 166.12 95.00 C 167.54 103.07 167.02 110.80 167.06 119.00 C 166.08 134.93 161.06 150.39 150.76 162.77 C 140.19 175.64 125.71 183.97 109.95 188.87 C 105.76 190.02 101.57 191.71 97.18 190.76 C 78.86 186.59 61.33 177.37 49.24 162.76 C 38.99 150.34 34.02 134.92 32.94 119.00 C 32.89 115.00 32.97 111.00 32.93 107.00 C 33.05 92.38 37.63 79.24 38.86 64.99 C 39.99 49.30 38.99 33.54 36.11 18.09 C 42.72 19.05 49.36 19.07 56.01 19.68 C 65.11 20.40 74.11 19.58 83.14 18.45 C 89.13 17.63 94.61 15.65 99.99 12.96 Z" fill="#f57921" />
<path d="M 99.97 19.97 C 103.54 20.95 106.80 22.75 110.47 23.48 C 125.46 27.01 142.22 26.14 157.45 24.81 C 155.86 38.49 154.01 52.32 155.81 66.01 C 156.25 76.61 159.62 86.51 160.72 97.01 C 161.98 106.40 162.09 115.91 160.73 125.30 C 159.85 124.04 158.97 122.78 158.08 121.53 C 158.01 124.21 157.97 126.88 157.87 129.55 C 155.64 130.62 153.49 131.78 151.38 133.07 C 153.52 134.55 155.74 135.81 158.08 136.96 C 156.27 142.80 153.69 148.38 150.29 153.47 C 150.27 150.15 150.84 147.03 151.69 143.84 C 148.68 144.40 145.24 146.00 142.23 145.74 C 139.21 143.89 136.89 141.01 133.97 138.96 C 133.84 142.59 134.10 146.16 134.62 149.75 C 131.46 152.24 127.93 154.13 124.88 156.76 C 128.11 158.11 131.51 158.98 134.76 160.27 C 137.18 161.01 138.01 164.23 139.16 166.23 C 129.46 174.70 117.35 180.58 104.93 183.81 C 102.51 184.40 100.35 185.11 97.85 184.47 C 89.84 182.61 82.09 179.74 74.82 175.89 C 74.93 174.68 75.04 173.46 75.16 172.24 C 77.89 171.20 80.56 170.05 83.10 168.59 C 80.58 167.17 78.03 165.84 75.39 164.67 C 74.67 164.35 73.96 164.04 73.25 163.73 C 72.28 160.57 71.34 157.41 70.38 154.25 C 68.63 155.75 66.92 157.29 65.20 158.83 C 64.17 159.33 63.10 159.59 62.01 159.61 C 58.78 158.66 55.54 157.80 52.26 157.07 C 47.37 150.60 43.71 143.23 41.49 135.43 C 37.30 120.56 37.77 105.64 40.25 90.53 C 41.31 90.97 42.39 91.39 43.46 91.80 C 42.94 93.22 42.41 94.64 41.89 96.06 C 43.94 95.30 45.98 94.54 48.04 93.80 C 50.75 93.57 53.42 93.72 56.12 93.86 C 55.46 92.81 54.80 91.75 54.14 90.70 C 55.39 89.86 56.65 89.02 57.91 88.18 C 55.68 88.25 53.42 88.33 51.19 88.27 C 50.16 87.76 49.12 87.27 48.07 86.80 C 45.46 88.81 44.03 91.02 40.28 90.30 C 41.80 82.20 43.80 74.29 44.25 66.02 C 45.96 52.36 44.23 38.51 42.58 24.90 C 58.44 26.06 74.46 27.07 90.15 23.35 C 93.58 22.61 96.64 20.96 99.97 19.97 Z" fill="#002a54" />
<path d="M 84.23 31.35 C 85.66 32.75 87.01 34.17 88.56 35.44 C 87.55 38.02 88.07 41.24 88.04 43.98 C 89.33 43.99 90.63 44.00 91.92 44.00 C 92.28 43.52 92.64 43.05 93.01 42.58 C 93.57 41.96 94.14 41.35 94.72 40.75 C 95.11 42.31 95.46 43.88 95.80 45.45 C 95.52 46.70 93.98 47.26 93.07 48.08 C 91.76 48.96 90.98 50.60 90.13 51.90 C 89.10 49.09 87.91 46.42 86.09 44.01 C 87.57 41.41 86.91 38.89 86.99 36.01 L 85.69 36.00 C 85.68 37.90 85.67 39.80 85.67 41.70 C 85.11 42.16 84.54 42.63 83.98 43.09 C 84.01 42.02 84.05 40.95 84.10 39.89 C 85.99 37.29 84.50 34.24 84.23 31.35 Z" fill="#0095d1" />
<path d="M 96.06 33.93 C 96.15 34.92 96.24 35.91 96.34 36.89 L 95.94 37.31 C 95.51 38.45 95.10 39.59 94.72 40.75 C 94.14 41.35 93.57 41.96 93.01 42.58 C 92.03 42.38 91.04 42.18 90.05 41.98 C 90.02 40.08 89.99 38.21 89.81 36.32 C 91.85 35.42 93.94 34.64 96.06 33.93 Z" fill="#02a9e7" />
<path d="M 167.12 34.05 C 168.15 35.45 169.15 36.87 170.16 38.28 C 169.89 45.43 168.90 52.36 169.58 59.52 C 167.79 61.08 167.05 63.05 166.19 65.18 C 165.76 59.62 164.99 54.23 163.96 48.75 C 163.89 45.88 163.97 43.01 164.29 40.16 C 166.38 38.56 166.35 36.37 167.12 34.05 Z" fill="#039cd9" />
<path d="M 50.36 36.23 L 51.12 35.81 L 51.90 36.14 L 51.91 36.92 L 51.15 37.34 L 50.37 37.00 L 50.36 36.23 Z" fill="#b9c9d2" />
<path d="M 57.59 36.96 C 57.99 36.64 58.40 36.32 58.80 36.01 C 60.32 35.99 61.84 35.97 63.36 35.94 C 62.61 37.27 61.73 38.31 61.82 39.93 C 61.43 41.93 62.48 43.51 60.09 44.30 C 60.01 41.79 60.08 39.33 59.45 36.88 C 56.72 38.67 57.18 38.67 54.73 36.88 C 54.29 39.23 56.47 39.14 57.96 40.33 C 58.00 41.18 58.04 42.03 58.08 42.88 C 56.74 43.47 54.92 44.80 53.62 43.44 C 53.10 42.66 52.79 41.75 52.68 40.68 C 53.87 41.48 55.05 42.29 56.23 43.11 C 56.13 40.65 54.68 40.60 52.90 39.49 C 52.96 38.68 53.03 37.88 53.12 37.09 C 54.17 35.29 56.24 35.81 57.59 36.96 Z" fill="#ccd4db" />
<path d="M 65.44 36.17 C 66.36 35.87 67.04 35.95 67.46 36.39 C 68.47 38.90 68.95 41.73 69.46 44.36 C 68.45 43.69 67.45 42.04 66.16 42.00 C 65.19 42.75 64.30 43.61 63.37 44.41 C 63.87 41.62 64.48 38.85 65.44 36.17 Z" fill="#d0d7df" />
<path d="M 70.00 35.67 C 72.72 36.35 72.70 39.06 73.90 41.23 C 73.91 39.50 73.92 37.76 73.91 36.02 L 75.04 36.07 C 75.05 38.79 75.05 41.51 74.91 44.23 C 72.64 43.78 72.23 40.25 71.25 38.46 C 71.35 40.43 71.40 42.41 71.36 44.39 L 70.20 43.54 C 69.75 40.99 69.99 38.26 70.00 35.67 Z" fill="#e7ebed" />
<path d="M 76.09 35.96 C 77.65 36.18 79.91 35.51 80.82 37.09 C 80.76 39.65 81.69 41.91 79.92 44.13 C 79.52 43.40 79.12 42.66 78.73 41.92 L 80.12 41.50 C 79.37 40.87 78.62 40.24 77.87 39.62 C 78.11 41.10 78.37 42.58 78.65 44.06 L 75.97 43.67 C 76.01 41.10 76.04 38.53 76.09 35.96 Z" fill="#dee3e8" />
<path d="M 82.03 36.05 L 83.90 36.08 C 83.97 37.35 84.04 38.62 84.10 39.89 C 84.05 40.95 84.01 42.02 83.98 43.09 C 84.54 42.63 85.11 42.16 85.67 41.70 C 85.67 39.80 85.68 37.90 85.69 36.00 L 86.99 36.01 C 86.91 38.89 87.57 41.41 86.09 44.01 C 85.17 43.95 84.25 43.89 83.33 43.82 C 82.87 43.22 82.40 42.61 81.94 42.01 C 81.99 40.02 82.01 38.04 82.03 36.05 Z" fill="#dce5ec" />
<path d="M 88.56 35.44 L 89.81 36.32 C 89.99 38.21 90.02 40.08 90.05 41.98 C 91.04 42.18 92.03 42.38 93.01 42.58 C 92.64 43.05 92.28 43.52 91.92 44.00 C 90.63 44.00 89.33 43.99 88.04 43.98 C 88.07 41.24 87.55 38.02 88.56 35.44 Z" fill="#b9e3ef" />
<path d="M 103.34 35.89 L 105.03 36.13 C 106.32 38.58 106.84 41.59 107.30 44.31 C 106.10 43.51 104.83 41.99 103.32 41.95 L 102.63 44.14 C 101.13 43.56 99.62 42.99 98.12 42.40 L 99.28 40.74 L 97.41 40.19 C 97.51 41.92 96.99 42.87 96.11 44.27 C 95.83 41.92 95.78 39.60 95.94 37.31 L 96.34 36.89 C 97.18 37.87 97.86 38.79 99.10 39.33 C 98.80 38.12 98.51 36.91 98.20 35.70 C 100.39 36.30 101.10 37.64 100.18 39.60 C 100.70 40.73 101.22 41.87 101.75 43.00 C 102.06 40.55 102.55 38.22 103.34 35.89 Z" fill="#d1d8df" />
<path d="M 108.30 36.28 C 109.40 35.96 110.56 35.89 111.79 36.06 L 112.43 38.81 C 111.60 38.16 110.77 37.51 109.94 36.86 C 109.66 37.35 109.37 37.83 109.07 38.31 C 110.98 39.28 112.46 40.32 113.93 41.87 C 114.15 39.26 113.70 36.55 116.81 35.67 C 117.71 38.53 118.48 41.40 119.07 44.34 L 117.48 43.40 L 116.59 41.75 C 115.24 42.21 114.68 43.29 113.83 44.33 C 113.28 43.63 112.72 42.92 112.17 42.21 C 111.68 43.47 111.19 44.73 110.72 45.99 L 109.49 45.99 C 108.86 44.19 108.14 42.41 107.47 40.62 C 108.47 41.45 109.47 42.27 110.46 43.09 C 111.77 40.48 109.52 40.91 107.95 39.68 C 107.58 38.42 107.70 37.29 108.30 36.28 Z" fill="#d2d8df" />
<path d="M 119.51 36.00 L 121.02 35.99 L 120.97 39.13 C 122.17 37.58 122.85 36.07 124.99 35.67 C 124.31 36.80 123.67 37.93 123.05 39.09 C 123.36 40.43 123.76 41.76 124.26 43.06 C 124.83 42.24 125.40 41.42 125.97 40.61 C 126.55 41.44 127.13 42.27 127.70 43.11 C 128.02 42.54 128.34 41.98 128.66 41.41 C 127.26 40.26 124.28 39.69 125.03 37.39 C 126.54 35.27 128.20 35.77 130.08 37.02 L 129.97 38.49 C 128.88 37.99 127.78 37.49 126.67 37.00 C 127.05 39.15 128.59 39.33 130.25 40.25 C 129.78 42.17 129.15 44.04 128.70 45.96 C 127.99 45.88 127.28 45.80 126.56 45.72 C 126.88 44.40 126.43 43.87 125.77 42.72 C 125.17 43.24 124.57 43.77 123.97 44.29 C 123.03 43.05 122.08 41.82 121.09 40.62 C 121.05 41.66 121.00 42.70 120.96 43.74 L 119.59 44.06 C 119.57 41.37 119.50 38.69 119.51 36.00 Z" fill="#d9dee3" />
<path d="M 131.00 36.01 C 131.00 38.68 131.00 41.34 131.00 44.01 C 133.30 43.88 135.59 43.80 137.89 43.90 C 136.86 47.32 134.89 50.21 133.55 53.48 C 132.83 54.97 133.88 56.14 134.49 57.46 C 136.15 60.29 137.78 63.11 139.01 66.16 C 135.23 65.48 131.18 63.10 127.37 63.36 C 125.25 65.51 123.46 67.97 121.26 70.06 C 120.45 66.65 120.23 63.07 119.26 59.71 C 117.38 57.05 113.58 55.53 110.92 53.68 C 113.17 51.96 115.70 50.65 117.93 48.91 C 118.91 47.61 119.11 45.62 119.59 44.06 L 120.96 43.74 C 121.00 42.70 121.05 41.66 121.09 40.62 C 122.08 41.82 123.03 43.05 123.97 44.29 C 124.57 43.77 125.17 43.24 125.77 42.72 C 126.43 43.87 126.88 44.40 126.56 45.72 C 127.28 45.80 127.99 45.88 128.70 45.96 C 129.15 44.04 129.78 42.17 130.25 40.25 C 128.59 39.33 127.05 39.15 126.67 37.00 C 127.78 37.49 128.88 37.99 129.97 38.49 L 130.08 37.02 L 131.00 36.01 Z" fill="#011d42" />
<path d="M 131.00 36.01 C 132.60 35.98 134.20 36.00 135.80 36.07 C 134.91 37.02 133.73 37.66 132.25 37.98 C 133.17 38.81 134.23 39.01 135.40 39.35 C 134.44 40.24 133.41 41.04 132.37 41.83 C 133.58 42.09 134.79 42.37 136.00 42.65 C 136.00 40.44 135.98 38.23 135.97 36.02 L 138.00 35.99 C 138.00 37.00 138.00 38.00 138.00 39.00 L 139.60 38.99 C 139.94 37.56 139.41 36.34 140.95 35.57 C 141.11 38.54 141.11 41.52 140.90 44.49 C 139.39 43.40 139.82 42.00 139.49 40.33 L 138.13 40.41 C 138.07 41.57 137.99 42.74 137.89 43.90 C 135.59 43.80 133.30 43.88 131.00 44.01 C 131.00 41.34 131.00 38.68 131.00 36.01 Z" fill="#bcc4ce" />
<path d="M 142.24 36.20 L 143.03 35.82 L 143.82 36.19 L 143.82 36.95 L 143.03 37.32 L 142.24 36.96 L 142.24 36.20 Z" fill="#c6d7dd" />
<path d="M 145.00 35.90 C 146.73 36.17 148.88 35.39 149.83 37.28 C 149.94 39.64 149.89 42.00 149.94 44.37 C 147.69 43.54 148.21 42.29 147.58 40.25 C 146.64 41.80 146.59 43.39 145.10 44.50 C 144.93 41.63 145.00 38.78 145.00 35.90 Z" fill="#c1c9d2" />
<path d="M 78.20 37.33 L 78.98 37.36 L 79.39 38.14 L 79.02 38.90 L 78.23 38.87 L 77.83 38.09 L 78.20 37.33 Z" fill="#1a294b" />
<path d="M 146.91 37.40 L 147.70 37.41 L 148.11 38.17 L 147.75 38.93 L 146.96 38.92 L 146.54 38.16 L 146.91 37.40 Z" fill="#20375a" />
<path d="M 35.51 37.45 C 36.50 46.27 36.22 55.44 35.82 64.30 C 35.29 63.32 34.75 62.35 34.19 61.40 C 33.04 61.13 31.89 60.88 30.74 60.65 C 31.06 54.75 30.87 48.99 30.07 43.13 C 31.49 40.21 32.51 38.88 35.51 37.45 Z" fill="#005d91" />
<path d="M 50.21 38.04 L 52.00 37.92 C 52.00 40.07 52.02 42.22 51.96 44.36 C 49.16 43.75 50.59 40.15 50.21 38.04 Z" fill="#becad4" />
<path d="M 66.18 38.26 L 66.82 38.24 C 67.22 39.17 67.24 40.09 66.86 41.03 C 65.73 40.76 65.50 39.84 66.18 38.26 Z" fill="#344863" />
<path d="M 104.91 38.18 C 105.17 39.16 105.19 40.09 104.97 40.96 C 102.40 41.84 103.23 38.60 104.91 38.18 Z" fill="#64708c" />
<path d="M 116.90 40.17 C 116.66 41.12 116.09 41.34 115.17 40.84 C 114.14 39.21 116.45 38.38 116.90 40.17 Z" fill="#637190" />
<path d="M 163.96 48.75 C 164.99 54.23 165.76 59.62 166.19 65.18 C 167.05 63.05 167.79 61.08 169.58 59.52 C 169.87 68.81 171.74 77.61 173.63 86.66 C 172.09 88.10 170.71 89.41 168.59 89.87 C 167.86 85.20 166.73 80.62 165.84 75.98 C 164.27 66.96 163.64 57.90 163.96 48.75 Z" fill="#0289c1" />
<path d="M 67.85 54.41 C 69.37 56.22 70.80 58.10 72.22 59.99 L 73.91 59.68 L 75.38 60.23 C 75.39 61.00 75.38 61.77 75.38 62.54 C 73.91 63.23 72.45 63.92 70.99 64.61 C 71.00 68.02 70.99 71.44 70.97 74.85 C 69.38 74.78 67.80 74.72 66.21 74.65 C 62.82 77.23 59.41 79.80 55.95 82.31 C 56.48 80.63 57.03 78.95 57.62 77.29 C 59.27 76.51 60.04 76.26 60.61 74.45 C 62.06 70.25 64.15 65.86 64.28 61.46 C 65.20 58.98 66.46 56.66 67.85 54.41 Z" fill="#02a3e3" />
<path d="M 83.01 57.99 C 81.00 60.23 78.95 62.43 76.89 64.62 C 74.92 64.61 72.95 64.61 70.99 64.61 C 72.45 63.92 73.91 63.23 75.38 62.54 C 75.38 61.77 75.39 61.00 75.38 60.23 L 73.91 59.68 C 76.92 58.94 79.90 58.24 83.01 57.99 Z" fill="#0082bc" />
<path d="M 30.74 60.65 C 31.89 60.88 33.04 61.13 34.19 61.40 C 34.75 62.35 35.29 63.32 35.82 64.30 C 35.03 72.98 33.04 81.32 31.49 89.86 C 29.51 90.87 27.57 91.93 25.66 93.06 C 26.47 87.33 27.62 81.67 28.81 76.00 C 29.91 70.92 30.02 65.79 30.74 60.65 Z" fill="#01689f" />
<path d="M 64.28 61.46 C 64.15 65.86 62.06 70.25 60.61 74.45 C 60.04 76.26 59.27 76.51 57.62 77.29 C 58.16 75.32 58.61 73.34 59.01 71.34 C 57.01 70.16 55.05 68.93 53.10 67.66 C 57.18 65.59 61.13 64.62 64.28 61.46 Z" fill="#027fba" />
<path d="M 70.99 64.61 C 72.95 64.61 74.92 64.61 76.89 64.62 C 85.90 64.81 95.75 63.99 104.50 66.37 C 114.52 69.16 122.31 78.38 121.84 89.00 C 121.87 94.05 119.96 98.54 117.00 102.55 C 121.25 105.54 123.91 109.00 125.85 113.82 C 126.72 116.26 127.07 118.47 127.09 121.06 C 127.11 121.88 127.14 122.70 127.16 123.53 C 127.25 127.67 126.43 131.01 124.69 134.73 C 122.34 139.25 119.32 142.70 115.08 145.52 C 113.18 146.56 111.20 147.45 109.16 148.19 C 107.36 148.62 105.54 148.96 103.71 149.25 C 92.90 150.38 81.84 149.46 70.97 149.78 C 70.99 124.81 70.96 99.83 70.97 74.85 C 70.99 71.44 71.00 68.02 70.99 64.61 Z" fill="#fefffe" />
<path d="M 75.56 69.09 C 82.27 68.91 89.06 68.83 95.76 69.41 C 94.84 69.64 93.92 69.90 93.01 70.16 C 92.72 71.79 92.41 73.41 92.09 75.02 C 92.99 74.65 93.89 74.27 94.79 73.90 C 95.37 74.55 95.96 75.21 96.55 75.87 C 96.88 73.02 97.37 71.72 99.39 69.68 C 100.81 69.96 102.21 70.31 103.60 70.72 C 101.13 74.74 98.77 78.84 96.47 82.96 C 94.34 82.88 92.20 82.91 90.07 82.90 L 90.02 83.94 C 86.70 84.52 83.38 85.04 80.11 85.86 C 83.28 87.84 86.60 89.52 90.00 91.07 C 90.00 92.21 90.00 93.35 90.00 94.49 C 85.10 94.45 80.21 94.47 75.32 94.46 C 75.31 85.99 75.27 77.59 75.56 69.09 Z" fill="#002a54" />
<path d="M 95.76 69.41 C 96.97 69.47 98.18 69.56 99.39 69.68 C 97.37 71.72 96.88 73.02 96.55 75.87 C 95.96 75.21 95.37 74.55 94.79 73.90 C 93.89 74.27 92.99 74.65 92.09 75.02 C 92.41 73.41 92.72 71.79 93.01 70.16 C 93.92 69.90 94.84 69.64 95.76 69.41 Z" fill="#00a7e2" />
<path d="M 103.60 70.72 C 104.43 70.97 105.22 71.27 105.99 71.62 C 107.97 74.81 109.54 78.30 111.66 81.40 C 112.82 82.28 114.94 81.93 116.34 82.19 L 116.34 82.20 C 115.11 83.13 113.85 83.82 113.04 85.18 C 110.70 88.99 108.27 93.04 106.88 97.29 C 104.11 96.32 102.28 96.79 99.67 97.84 C 103.13 95.16 104.25 91.40 102.73 87.26 C 101.41 84.72 99.08 83.73 96.47 82.96 C 98.77 78.84 101.13 74.74 103.60 70.72 Z" fill="#019edd" />
<path d="M 105.99 71.62 C 111.01 73.70 114.26 77.20 116.34 82.19 C 114.94 81.93 112.82 82.28 111.66 81.40 C 109.54 78.30 107.97 74.81 105.99 71.62 Z" fill="#012b56" />
<path d="M 144.23 74.21 C 145.47 75.31 146.70 76.41 147.94 77.51 C 149.66 77.43 151.39 77.36 153.11 77.29 C 152.30 78.53 151.49 79.77 150.68 81.01 C 151.10 81.87 151.53 82.72 151.95 83.58 C 150.92 83.59 149.88 83.61 148.85 83.62 C 147.82 84.40 146.79 85.18 145.77 85.96 C 145.38 84.74 145.00 83.51 144.61 82.28 C 143.44 81.63 142.26 80.97 141.08 80.31 C 142.18 79.63 143.27 78.93 144.37 78.24 C 144.32 76.90 144.28 75.56 144.23 74.21 Z" fill="#0299d7" />
<path d="M 116.34 82.20 C 117.02 84.34 117.29 86.55 117.39 88.79 C 116.54 89.26 115.68 89.74 114.82 90.21 C 114.97 92.17 115.32 93.91 116.02 95.75 C 115.45 96.91 114.81 98.04 114.13 99.14 C 111.70 98.60 109.29 97.95 106.88 97.29 C 108.27 93.04 110.70 88.99 113.04 85.18 C 113.85 83.82 115.11 83.13 116.34 82.20 Z" fill="#0280b7" />
<path d="M 90.02 83.94 C 89.96 86.31 89.99 88.69 90.00 91.07 C 86.60 89.52 83.28 87.84 80.11 85.86 C 83.38 85.04 86.70 84.52 90.02 83.94 Z" fill="#0278b0" />
<path d="M 48.07 86.80 C 49.12 87.27 50.16 87.76 51.19 88.27 C 51.83 88.62 52.47 88.98 53.11 89.34 C 51.74 91.90 50.84 92.78 48.04 93.80 C 45.98 94.54 43.94 95.30 41.89 96.06 C 42.41 94.64 42.94 93.22 43.46 91.80 C 42.39 91.39 41.31 90.97 40.25 90.53 L 40.28 90.30 C 44.03 91.02 45.46 88.81 48.07 86.80 Z" fill="#0196d1" />
<path d="M 94.38 87.11 C 95.56 87.35 96.70 87.65 97.80 88.16 C 99.66 89.10 98.73 91.26 98.94 92.95 C 97.41 93.57 95.88 94.16 94.32 94.72 C 94.27 92.20 94.19 89.62 94.38 87.11 Z" fill="#029fdf" />
<path d="M 173.63 86.66 C 175.65 98.60 176.75 111.25 175.28 123.32 C 174.70 121.83 174.03 120.38 173.37 118.93 C 172.91 120.57 172.45 122.20 172.00 123.84 C 171.35 123.19 170.69 122.53 170.04 121.88 C 170.63 111.17 170.44 100.46 168.59 89.87 C 170.71 89.41 172.09 88.10 173.63 86.66 Z" fill="#0377ac" />
<path d="M 51.19 88.27 C 53.42 88.33 55.68 88.25 57.91 88.18 C 56.65 89.02 55.39 89.86 54.14 90.70 C 54.80 91.75 55.46 92.81 56.12 93.86 C 53.42 93.72 50.75 93.57 48.04 93.80 C 50.84 92.78 51.74 91.90 53.11 89.34 C 52.47 88.98 51.83 88.62 51.19 88.27 Z" fill="#0080b5" />
<path d="M 117.39 88.79 C 117.29 91.21 117.08 93.53 116.02 95.75 C 115.32 93.91 114.97 92.17 114.82 90.21 C 115.68 89.74 116.54 89.26 117.39 88.79 Z" fill="#143b65" />
<path d="M 31.49 89.86 C 29.74 99.71 29.51 109.53 29.80 119.50 C 29.37 118.12 28.89 116.75 28.44 115.37 C 28.15 116.79 27.95 118.11 27.09 119.32 C 26.54 114.75 26.90 110.19 26.51 105.60 C 25.93 111.05 27.01 116.02 24.89 121.24 C 23.58 111.66 24.62 102.61 25.66 93.06 C 27.57 91.93 29.51 90.87 31.49 89.86 Z" fill="#0373aa" />
<path d="M 140.28 90.26 C 142.47 91.86 144.66 93.76 147.14 94.89 C 149.59 95.77 152.38 95.84 154.95 96.17 C 154.06 97.19 153.17 98.21 152.28 99.23 C 152.80 100.40 153.32 101.56 153.84 102.73 C 150.40 101.24 147.20 101.67 143.64 101.37 C 141.19 98.72 139.13 97.07 135.86 95.47 C 137.18 95.19 138.51 94.90 139.83 94.62 C 139.98 93.17 140.13 91.72 140.28 90.26 Z" fill="#021d41" />
<path d="M 106.88 97.29 C 109.29 97.95 111.70 98.60 114.13 99.14 C 107.95 106.82 99.36 107.62 90.11 107.52 C 90.02 108.50 89.91 109.48 89.79 110.45 C 87.57 109.91 87.96 106.74 87.39 104.91 C 85.78 107.09 84.41 109.53 82.57 111.52 C 80.72 112.94 78.32 113.71 76.23 114.73 C 75.96 109.48 75.87 104.29 75.96 99.03 C 81.66 98.89 87.30 98.79 92.98 99.36 C 95.46 99.71 97.46 98.74 99.67 97.84 C 102.28 96.79 104.11 96.32 106.88 97.29 Z" fill="#002a54" />
<path d="M 53.02 98.05 C 55.40 99.73 57.26 101.78 59.25 103.87 C 61.46 102.35 63.73 100.94 66.18 99.81 C 65.77 103.07 64.03 105.85 63.36 108.99 C 63.80 111.37 64.93 113.66 65.82 115.90 C 63.42 116.72 60.85 117.37 58.60 118.57 C 56.43 121.20 55.17 124.49 53.00 127.16 C 52.37 124.79 51.94 122.39 51.61 119.96 C 48.43 119.81 45.26 119.76 42.09 119.77 C 44.79 116.57 48.36 114.10 50.80 110.73 C 52.67 106.97 51.33 102.01 53.02 98.05 Z" fill="#011d42" />
<path d="M 75.35 99.08 L 75.96 99.03 C 75.87 104.29 75.96 109.48 76.23 114.73 L 76.21 115.38 C 76.17 118.86 75.71 122.48 76.18 125.93 C 77.13 127.80 78.65 129.41 80.18 130.83 C 82.33 133.52 86.25 130.64 88.73 129.75 C 89.20 123.84 88.60 117.95 88.82 112.04 L 89.74 110.92 C 90.45 117.67 89.53 124.55 90.28 131.29 C 91.35 135.37 88.55 137.96 88.34 141.85 C 88.77 143.01 89.39 144.13 89.95 145.22 C 85.07 145.20 80.18 145.22 75.30 145.20 C 75.34 129.82 75.35 114.46 75.35 99.08 Z" fill="#011d42" />
<path d="M 87.39 104.91 C 87.96 106.74 87.57 109.91 89.79 110.45 L 89.74 110.92 L 88.82 112.04 C 87.50 113.56 86.97 115.36 86.34 117.23 C 85.19 117.24 84.05 117.26 82.90 117.28 C 81.18 118.55 79.42 119.75 77.60 120.89 C 78.24 119.51 78.89 118.13 79.55 116.75 C 78.43 116.29 77.32 115.83 76.21 115.38 L 76.23 114.73 C 78.32 113.71 80.72 112.94 82.57 111.52 C 84.41 109.53 85.78 107.09 87.39 104.91 Z" fill="#02a2e2" />
<path d="M 26.51 105.60 C 26.90 110.19 26.54 114.75 27.09 119.32 C 27.95 118.11 28.15 116.79 28.44 115.37 C 28.89 116.75 29.37 118.12 29.80 119.50 C 30.71 130.83 33.22 141.86 38.39 152.03 C 37.04 153.15 35.69 154.27 34.35 155.40 C 28.99 144.85 25.60 133.06 24.89 121.24 C 27.01 116.02 25.93 111.05 26.51 105.60 Z" fill="#0287c3" />
<path d="M 114.02 105.78 C 122.82 111.41 125.10 122.81 121.08 132.10 C 119.58 132.06 117.57 131.34 116.22 132.20 C 112.05 134.42 108.35 137.34 103.96 139.21 C 104.23 135.72 104.91 132.40 105.87 129.04 C 109.78 125.50 109.67 119.59 106.25 115.78 C 104.00 113.20 100.42 112.71 97.29 111.84 C 103.98 111.17 108.57 109.69 114.02 105.78 Z" fill="#011d42" />
<path d="M 88.82 112.04 C 88.60 117.95 89.20 123.84 88.73 129.75 C 86.25 130.64 82.33 133.52 80.18 130.83 C 78.65 129.41 77.13 127.80 76.18 125.93 C 75.71 122.48 76.17 118.86 76.21 115.38 C 77.32 115.83 78.43 116.29 79.55 116.75 C 78.89 118.13 78.24 119.51 77.60 120.89 C 79.42 119.75 81.18 118.55 82.90 117.28 C 84.05 117.26 85.19 117.24 86.34 117.23 C 86.97 115.36 87.50 113.56 88.82 112.04 Z" fill="#002a54" />
<path d="M 125.85 113.82 C 129.57 113.80 133.29 113.87 137.00 114.15 C 134.26 117.17 131.19 119.83 128.26 122.67 C 127.87 122.14 127.48 121.60 127.09 121.06 C 127.07 118.47 126.72 116.26 125.85 113.82 Z" fill="#011e40" />
<path d="M 94.37 116.13 C 95.61 116.25 96.84 116.45 98.07 116.68 C 97.87 117.36 97.67 118.03 97.48 118.71 C 100.07 120.58 102.52 122.17 103.81 125.26 C 100.77 126.73 97.61 127.07 94.28 127.10 C 94.32 123.45 94.16 119.78 94.37 116.13 Z" fill="#012a55" />
<path d="M 98.07 116.68 C 98.94 116.85 99.81 117.03 100.68 117.22 C 104.44 118.88 104.78 121.54 103.81 125.26 C 102.52 122.17 100.07 120.58 97.48 118.71 C 97.67 118.03 97.87 117.36 98.07 116.68 Z" fill="#0d2445" />
<path d="M 173.37 118.93 C 174.03 120.38 174.70 121.83 175.28 123.32 C 174.52 130.77 172.88 138.12 170.28 145.16 C 165.31 159.16 156.10 171.26 144.43 180.37 C 132.12 189.93 117.27 196.28 102.02 199.30 C 97.48 200.32 93.13 198.96 88.73 197.85 C 90.08 197.20 91.43 196.55 92.78 195.90 C 91.93 194.74 91.07 193.58 90.22 192.42 C 93.41 193.34 96.74 194.35 100.06 194.58 C 103.01 194.41 105.95 193.45 108.79 192.71 C 124.26 188.31 139.29 180.17 150.25 168.25 C 162.23 155.56 168.46 139.11 170.04 121.88 C 170.69 122.53 171.35 123.19 172.00 123.84 C 172.45 122.20 172.91 120.57 173.37 118.93 Z" fill="#02689a" />
<path d="M 158.08 121.53 C 158.97 122.78 159.85 124.04 160.73 125.30 C 160.14 129.24 159.19 133.14 158.08 136.96 C 155.74 135.81 153.52 134.55 151.38 133.07 C 153.49 131.78 155.64 130.62 157.87 129.55 C 157.97 126.88 158.01 124.21 158.08 121.53 Z" fill="#038ac6" />
<path d="M 127.16 123.53 C 129.22 127.92 130.73 132.23 131.94 136.93 C 129.50 136.27 127.09 135.53 124.69 134.73 C 126.43 131.01 127.25 127.67 127.16 123.53 Z" fill="#011d42" />
<path d="M 105.87 129.04 C 104.91 132.40 104.23 135.72 103.96 139.21 C 108.35 137.34 112.05 134.42 116.22 132.20 C 117.57 131.34 119.58 132.06 121.08 132.10 C 118.83 136.74 115.45 140.66 110.68 142.83 C 104.00 145.84 97.08 145.10 89.95 145.22 C 89.39 144.13 88.77 143.01 88.34 141.85 C 88.55 137.96 91.35 135.37 90.28 131.29 C 95.79 131.16 100.91 131.88 105.87 129.04 Z" fill="#002a54" />
<path d="M 133.97 138.96 C 136.89 141.01 139.21 143.89 142.23 145.74 C 145.24 146.00 148.68 144.40 151.69 143.84 C 150.84 147.03 150.27 150.15 150.29 153.47 C 147.20 158.24 143.38 162.44 139.16 166.23 C 138.01 164.23 137.18 161.01 134.76 160.27 C 131.51 158.98 128.11 158.11 124.88 156.76 C 127.93 154.13 131.46 152.24 134.62 149.75 C 134.10 146.16 133.84 142.59 133.97 138.96 Z" fill="#011d42" />
<path d="M 115.08 145.52 C 114.85 147.24 114.60 148.96 114.32 150.67 C 115.05 151.35 115.79 152.04 116.52 152.72 C 114.75 155.47 113.27 158.36 111.69 161.21 C 110.32 163.35 109.44 165.69 108.64 168.08 C 107.59 169.23 106.94 170.45 107.83 171.94 C 107.27 172.24 106.71 172.54 106.15 172.85 L 106.14 170.88 C 106.50 169.87 106.24 169.09 105.35 168.54 C 105.11 166.78 104.83 165.03 104.56 163.27 C 103.64 163.33 102.73 163.39 101.82 163.44 C 104.47 157.88 108.15 154.23 109.16 148.19 C 111.20 147.45 113.18 146.56 115.08 145.52 Z" fill="#00a6e5" />
<path d="M 103.71 149.25 C 105.54 148.96 107.36 148.62 109.16 148.19 C 108.15 154.23 104.47 157.88 101.82 163.44 C 100.54 163.52 99.26 163.60 97.99 163.68 C 99.63 160.80 101.67 158.14 103.20 155.20 C 103.88 153.40 103.59 151.16 103.71 149.25 Z" fill="#028ac1" />
<path d="M 38.39 152.03 C 40.35 155.78 42.57 159.39 45.12 162.77 C 44.23 162.67 43.34 162.59 42.44 162.54 C 41.80 163.45 41.17 164.38 40.55 165.31 C 38.29 162.14 36.18 158.83 34.35 155.40 C 35.69 154.27 37.04 153.15 38.39 152.03 Z" fill="#029cda" />
<path d="M 116.52 152.72 C 118.20 154.23 119.73 155.81 121.19 157.53 C 118.06 158.94 114.94 160.16 111.69 161.21 C 113.27 158.36 114.75 155.47 116.52 152.72 Z" fill="#0583bb" />
<path d="M 70.38 154.25 C 71.34 157.41 72.28 160.57 73.25 163.73 C 73.96 164.04 74.67 164.35 75.39 164.67 C 73.86 167.64 72.24 170.54 70.51 173.39 C 67.52 171.46 64.63 169.39 61.90 167.11 C 63.09 164.98 64.36 162.89 65.50 160.73 C 65.41 160.09 65.32 159.46 65.20 158.83 C 66.92 157.29 68.63 155.75 70.38 154.25 Z" fill="#01a1de" />
<path d="M 52.26 157.07 C 55.54 157.80 58.78 158.66 62.01 159.61 C 60.61 160.89 59.53 162.41 58.46 163.96 C 56.27 161.79 54.13 159.52 52.26 157.07 Z" fill="#026a98" />
<path d="M 65.20 158.83 C 65.32 159.46 65.41 160.09 65.50 160.73 C 64.36 162.89 63.09 164.98 61.90 167.11 C 60.72 166.10 59.58 165.03 58.46 163.96 C 59.53 162.41 60.61 160.89 62.01 159.61 C 63.10 159.59 64.17 159.33 65.20 158.83 Z" fill="#0084bc" />
<path d="M 42.44 162.54 C 43.34 162.59 44.23 162.67 45.12 162.77 C 50.65 170.07 57.53 176.13 65.18 181.11 C 64.02 182.54 62.94 184.01 61.84 185.48 C 53.53 180.02 46.44 173.33 40.55 165.31 C 41.17 164.38 41.80 163.45 42.44 162.54 Z" fill="#02a7e7" />
<path d="M 75.39 164.67 C 78.03 165.84 80.58 167.17 83.10 168.59 C 80.56 170.05 77.89 171.20 75.16 172.24 C 75.04 173.46 74.93 174.68 74.82 175.89 C 73.35 175.11 71.91 174.28 70.51 173.39 C 72.24 170.54 73.86 167.64 75.39 164.67 Z" fill="#0277ac" />
<path d="M 92.18 164.94 C 93.13 165.47 94.09 166.00 95.04 166.54 C 96.00 165.99 96.95 165.43 97.89 164.85 C 98.65 165.89 99.43 166.91 100.03 168.05 C 99.95 169.38 99.42 170.72 99.03 172.00 C 97.97 172.03 96.90 172.06 95.84 172.10 C 95.26 170.64 94.99 169.32 94.87 167.75 C 93.81 168.86 92.71 169.94 91.59 171.01 L 94.71 170.98 L 94.79 172.02 C 93.05 172.02 91.31 172.00 89.57 171.96 C 90.83 169.71 93.70 168.48 93.15 165.75 C 92.02 166.67 90.87 167.56 89.65 168.36 C 90.24 166.84 90.96 165.97 92.18 164.94 Z" fill="#8897aa" />
<path d="M 102.99 165.12 C 103.01 167.42 103.02 169.71 103.02 172.00 L 102.07 172.00 C 101.99 170.01 101.83 168.03 101.52 166.06 C 102.01 165.74 102.50 165.43 102.99 165.12 Z" fill="#d5dce3" />
<path d="M 97.70 165.79 C 98.59 168.01 99.74 168.93 97.84 171.05 C 95.30 171.11 96.30 169.20 95.97 167.43 C 96.54 166.88 97.12 166.33 97.70 165.79 Z" fill="#0a274b" />
<path d="M 108.22 166.10 C 108.49 167.23 107.78 167.90 106.09 168.09 C 106.31 166.53 107.02 165.87 108.22 166.10 Z" fill="#89d3e7" />
<path d="M 108.64 168.08 C 108.93 169.42 109.47 171.26 107.83 171.94 C 106.94 170.45 107.59 169.23 108.64 168.08 Z" fill="#778f9b" />
<path d="M 105.35 168.54 C 106.24 169.09 106.50 169.87 106.14 170.88 C 105.16 170.36 104.90 169.58 105.35 168.54 Z" fill="#8a92a3" />
<path d="M 65.18 181.11 C 72.94 186.09 81.41 189.76 90.22 192.42 C 91.07 193.58 91.93 194.74 92.78 195.90 C 91.43 196.55 90.08 197.20 88.73 197.85 C 79.25 195.12 70.02 191.03 61.84 185.48 C 62.94 184.01 64.02 182.54 65.18 181.11 Z" fill="#028cc6" />
</svg>