<?xml version="1.0" encoding="UTF-8" standalone="no"?>
<!DOCTYPE svg PUBLIC "-//W3C//DTD SVG 1.1//EN" "http://www.w3.org/Graphics/SVG/1.1/DTD/svg11.dtd">
<svg xmlns="http://www.w3.org/2000/svg" version="1.1" viewBox="0 0 200 200" width="200.0pt" height="200.0pt">
<path d="M 0.00 0.00 L 99.08 0.00 C 94.72 0.87 90.47 1.66 86.34 3.36 C 74.41 8.08 64.27 16.68 52.87 21.86 C 48.13 24.09 43.28 24.56 38.10 24.16 C 30.26 38.75 27.39 56.85 25.81 73.16 C 24.99 90.97 24.41 110.89 30.00 127.98 C 36.64 149.05 50.02 167.07 66.82 181.19 C 76.12 188.86 86.08 195.43 97.55 199.38 L 96.36 200.00 L 0.00 200.00 L 0.00 0.00 Z" fill="#ffffff" />
<path d="M 99.08 0.00 L 101.19 0.00 L 103.19 0.44 C 119.96 3.24 131.13 14.06 145.78 21.25 C 151.06 23.89 156.02 24.65 161.90 24.16 C 167.08 33.53 169.79 44.57 171.82 55.01 C 174.51 69.87 175.11 84.93 174.48 100.00 C 174.26 116.14 169.98 132.08 162.22 146.23 C 156.49 156.69 149.10 166.27 140.51 174.54 C 129.40 185.32 116.77 194.26 102.16 199.60 C 101.44 199.16 100.73 198.71 100.02 198.25 C 106.91 196.75 113.49 193.11 119.45 189.44 C 136.70 178.48 151.40 163.12 161.16 145.12 C 168.37 131.85 172.42 117.13 172.94 102.02 C 174.01 80.25 172.52 57.15 165.60 36.35 C 164.38 32.63 162.86 29.08 161.04 25.61 C 155.55 26.14 151.03 25.26 146.07 22.95 C 132.80 16.85 120.87 5.90 106.16 2.53 C 98.22 0.50 90.45 2.95 83.26 6.30 C 72.61 11.24 63.26 18.99 52.54 23.55 C 48.10 25.46 43.76 26.06 38.96 25.61 C 34.50 34.03 31.93 43.72 30.05 53.01 C 27.43 66.52 26.50 80.25 26.80 94.00 C 26.98 100.45 27.08 106.80 28.11 113.18 C 30.67 130.95 38.53 147.39 49.57 161.44 C 59.28 173.72 71.33 184.34 84.96 192.07 C 89.40 194.48 94.24 197.02 99.22 198.00 C 99.32 198.58 99.43 199.17 99.54 199.76 L 97.55 199.38 C 86.08 195.43 76.12 188.86 66.82 181.19 C 50.02 167.07 36.64 149.05 30.00 127.98 C 24.41 110.89 24.99 90.97 25.81 73.16 C 27.39 56.85 30.26 38.75 38.10 24.16 C 43.28 24.56 48.13 24.09 52.87 21.86 C 64.27 16.68 74.41 8.08 86.34 3.36 C 90.47 1.66 94.72 0.87 99.08 0.00 Z" fill="#5a5a5b" />
<path d="M 101.19 0.00 L 200.00 0.00 L 200.00 200.00 L 102.83 200.00 L 102.16 199.60 C 116.77 194.26 129.40 185.32 140.51 174.54 C 149.10 166.27 156.49 156.69 162.22 146.23 C 169.98 132.08 174.26 116.14 174.48 100.00 C 175.11 84.93 174.51 69.87 171.82 55.01 C 169.79 44.57 167.08 33.53 161.90 24.16 C 156.02 24.65 151.06 23.89 145.78 21.25 C 131.13 14.06 119.96 3.24 103.19 0.44 L 101.19 0.00 Z" fill="#ffffff" />
<path d="M 106.16 2.53 C 120.87 5.90 132.80 16.85 146.07 22.95 C 151.03 25.26 155.55 26.14 161.04 25.61 C 162.86 29.08 164.38 32.63 165.60 36.35 C 172.52 57.15 174.01 80.25 172.94 102.02 C 172.42 117.13 168.37 131.85 161.16 145.12 C 151.40 163.12 136.70 178.48 119.45 189.44 C 113.49 193.11 106.91 196.75 100.02 198.25 C 100.73 198.71 101.44 199.16 102.16 199.60 L 102.83 200.00 L 96.36 200.00 L 97.55 199.38 L 99.54 199.76 C 99.43 199.17 99.32 198.58 99.22 198.00 C 94.24 197.02 89.40 194.48 84.96 192.07 C 71.33 184.34 59.28 173.72 49.57 161.44 C 38.53 147.39 30.67 130.95 28.11 113.18 C 27.08 106.80 26.98 100.45 26.80 94.00 C 26.50 80.25 27.43 66.52 30.05 53.01 C 31.93 43.72 34.50 34.03 38.96 25.61 C 43.76 26.06 48.10 25.46 52.54 23.55 C 63.26 18.99 72.61 11.24 83.26 6.30 C 90.45 2.95 98.22 0.50 106.16 2.53 Z" fill="#fefefe" />
<path d="M 101.00 4.48 C 114.83 5.64 127.62 16.11 139.45 22.66 C 145.75 26.18 152.16 28.88 159.54 28.54 C 165.85 42.75 168.99 58.67 169.76 74.15 C 162.68 75.23 155.58 76.54 148.55 77.91 C 148.44 76.18 148.21 74.47 147.86 72.80 C 147.46 72.18 147.06 71.56 146.65 70.94 C 147.02 67.97 148.53 63.21 146.16 60.82 L 145.74 60.25 C 142.65 62.87 141.84 68.17 140.58 71.88 C 140.23 69.08 141.44 64.31 139.09 62.34 C 138.36 63.80 137.64 65.27 137.00 66.78 C 135.69 69.05 135.41 71.87 132.43 72.37 C 129.08 70.52 125.42 69.70 121.86 68.16 C 115.26 65.55 108.71 62.17 101.85 60.35 C 99.31 59.54 96.25 60.89 93.82 61.67 C 86.90 64.31 80.10 67.33 73.31 70.27 C 74.23 67.38 75.45 64.61 76.35 61.71 C 72.73 63.16 71.32 66.19 69.53 69.39 C 69.07 68.57 68.55 67.78 68.08 66.97 C 66.55 69.65 65.50 72.50 64.48 75.41 C 64.46 72.44 64.47 69.48 64.18 66.52 C 63.27 67.12 62.49 67.82 61.83 68.60 C 60.26 71.45 59.26 74.52 57.52 77.29 C 55.93 82.48 54.92 87.98 54.70 93.41 L 55.57 94.23 L 55.83 94.49 C 47.05 95.57 38.38 97.57 29.62 98.84 C 29.40 91.55 29.42 84.26 29.77 76.97 C 30.98 60.77 33.65 43.41 40.46 28.54 C 51.52 29.08 60.97 22.46 69.99 16.98 C 78.95 11.42 90.15 4.32 101.00 4.48 Z" fill="#006738" />
<path d="M 89.45 17.77 C 91.49 17.40 93.65 17.12 95.72 17.37 C 97.03 17.78 96.78 20.50 96.46 21.54 C 95.75 24.22 92.79 23.87 90.63 24.46 C 90.57 26.59 89.79 27.74 88.31 27.89 C 88.54 24.54 88.66 21.05 89.45 17.77 Z" fill="#f2f8f4" />
<path d="M 99.51 17.21 C 101.85 17.00 104.25 17.19 106.59 17.31 C 106.38 17.77 106.16 18.23 105.94 18.69 C 104.31 18.73 102.65 18.73 101.02 18.90 L 100.33 21.37 C 101.52 21.36 102.72 21.36 103.92 21.35 L 103.96 22.83 C 102.63 22.94 101.30 23.04 99.97 23.14 C 99.73 24.31 99.50 25.49 99.26 26.66 C 98.60 26.68 97.93 26.70 97.26 26.72 C 97.97 23.55 98.48 20.29 99.51 17.21 Z" fill="#fbfcfb" />
<path d="M 108.99 17.83 C 110.92 17.15 113.18 17.74 115.17 17.97 C 114.47 20.78 112.21 19.14 110.01 19.70 C 108.45 21.00 107.91 22.92 108.00 24.90 C 109.06 25.84 111.13 25.59 112.44 25.93 L 111.98 27.34 C 110.09 27.94 105.60 27.81 105.58 25.03 C 105.55 22.42 106.60 19.22 108.99 17.83 Z" fill="#cadfd5" />
<path d="M 91.09 19.21 C 92.17 19.09 93.26 18.98 94.34 18.88 C 94.92 22.72 93.83 22.18 90.64 22.62 C 90.79 21.48 90.94 20.35 91.09 19.21 Z" fill="#177145" />
<path d="M 100.02 32.59 C 99.90 33.65 99.79 34.71 99.67 35.77 C 97.56 35.85 95.55 35.71 93.56 36.57 C 92.09 38.09 92.75 40.83 93.54 42.56 C 95.33 43.97 96.37 43.22 97.90 41.92 C 96.82 41.61 95.75 41.31 94.66 41.02 C 94.59 39.95 94.51 38.88 94.43 37.82 C 96.49 37.71 98.55 37.61 100.61 37.50 C 100.75 40.21 100.99 42.87 101.44 45.54 C 98.50 46.61 94.80 47.26 91.78 46.31 C 89.66 45.44 89.19 42.95 88.76 40.96 C 88.40 38.50 88.67 35.37 90.85 33.78 C 93.52 32.14 97.01 32.58 100.02 32.59 Z" fill="#fefefe" />
<path d="M 105.20 33.28 C 107.67 32.33 110.73 32.83 113.13 33.78 C 116.50 35.45 115.86 40.97 114.83 43.87 C 113.29 47.43 109.46 47.68 106.17 46.71 C 103.03 46.15 101.31 42.99 101.83 39.98 C 102.15 37.62 102.59 34.22 105.20 33.28 Z" fill="#fefefe" />
<path d="M 77.38 35.44 C 79.45 34.57 81.85 34.13 84.07 34.51 C 87.27 35.44 87.91 39.17 88.38 42.00 C 88.68 44.58 87.55 47.10 85.00 47.99 C 81.90 49.01 77.46 49.76 75.82 46.08 C 74.14 42.98 73.16 36.99 77.38 35.44 Z" fill="#fefefe" />
<path d="M 118.51 34.38 C 121.62 35.26 124.95 35.71 127.94 36.96 C 130.10 38.80 128.88 40.95 128.31 43.20 C 127.33 43.66 126.35 44.12 125.37 44.58 C 126.17 46.11 126.96 47.65 127.75 49.19 C 127.16 49.62 126.54 50.02 125.92 50.40 C 121.36 49.90 123.57 46.00 120.06 43.88 C 119.67 45.40 119.31 46.93 118.95 48.46 C 117.68 48.19 116.40 47.93 115.13 47.66 C 116.29 43.24 117.22 38.76 118.51 34.38 Z" fill="#fefefe" />
<path d="M 111.53 36.69 C 111.62 39.14 111.47 41.30 110.67 43.64 C 109.26 43.57 107.86 43.50 106.46 43.43 C 105.69 41.05 106.11 38.85 106.62 36.48 C 108.26 36.45 109.90 36.55 111.53 36.69 Z" fill="#006737" />
<path d="M 71.18 38.70 C 74.24 40.85 75.29 45.80 74.53 49.33 C 71.47 51.75 67.91 52.60 64.28 53.78 C 62.92 49.52 61.22 45.33 60.08 41.01 C 63.16 39.64 67.85 37.48 71.18 38.70 Z" fill="#fefefe" />
<path d="M 83.42 38.16 C 83.83 40.21 84.24 42.27 84.61 44.33 C 83.02 44.85 81.42 45.26 79.78 45.58 C 79.01 43.32 78.42 41.10 78.41 38.69 C 80.06 38.28 81.72 38.17 83.42 38.16 Z" fill="#006737" />
<path d="M 121.30 38.23 C 122.48 38.55 123.66 38.88 124.81 39.29 C 125.00 40.26 124.78 41.29 124.16 42.37 C 122.96 41.97 121.77 41.56 120.57 41.16 C 120.81 40.18 121.05 39.20 121.30 38.23 Z" fill="#529674" />
<path d="M 132.00 38.06 C 135.24 39.02 138.89 39.86 141.76 41.66 L 141.01 44.19 C 138.68 44.08 136.37 42.89 134.13 42.26 C 133.91 44.75 136.91 44.65 138.54 45.64 C 138.12 46.57 137.69 47.49 137.26 48.41 C 135.42 48.23 132.72 45.86 132.02 48.80 C 134.14 49.54 136.27 50.24 138.41 50.94 C 138.10 51.97 137.79 53.01 137.48 54.05 C 134.07 53.16 130.80 51.84 127.38 51.00 C 128.80 46.67 130.16 42.23 132.00 38.06 Z" fill="#fefefe" />
<path d="M 57.98 41.96 C 59.46 45.25 61.12 48.52 62.26 51.94 C 62.97 53.81 60.70 55.51 59.26 56.26 C 57.39 57.25 53.87 58.71 52.03 57.19 C 49.79 53.95 48.46 49.93 47.02 46.26 C 48.21 45.88 49.41 45.50 50.60 45.13 C 51.85 48.11 53.14 51.06 54.43 54.01 C 55.60 53.57 58.16 53.76 57.93 51.94 C 57.22 48.84 55.34 46.03 54.37 42.97 C 55.57 42.60 56.77 42.26 57.98 41.96 Z" fill="#fefefe" />
<path d="M 69.04 41.67 C 69.97 43.63 71.07 45.49 70.71 47.75 C 69.61 48.51 68.36 48.81 67.06 49.00 C 65.82 47.28 65.33 44.84 64.62 42.84 C 66.07 42.35 67.54 41.97 69.04 41.67 Z" fill="#006736" />
<path d="M 142.58 41.48 C 146.42 43.34 150.33 45.01 154.22 46.73 C 153.66 47.77 153.09 48.80 152.52 49.84 C 151.26 49.20 150.00 48.56 148.73 47.92 C 147.36 50.93 146.02 53.95 144.75 57.00 C 143.50 56.67 142.24 56.34 141.00 56.00 C 142.27 52.78 143.78 49.67 144.98 46.41 C 143.78 45.77 142.24 45.30 141.31 44.28 C 141.71 43.34 142.14 42.41 142.58 41.48 Z" fill="#fefefe" />
<path d="M 154.87 48.31 C 158.19 47.65 161.28 50.27 163.88 51.98 C 163.21 52.87 162.54 53.76 161.88 54.64 C 159.90 53.42 158.11 52.20 155.73 51.97 C 157.06 54.68 161.09 55.73 160.34 59.07 C 159.81 60.42 158.92 61.88 157.60 62.58 C 153.96 63.34 151.02 60.69 148.19 58.86 C 149.00 57.95 149.81 57.05 150.63 56.15 C 152.38 57.55 153.99 58.58 156.20 59.07 C 155.34 56.29 152.30 55.77 151.59 53.03 C 151.97 50.94 152.91 49.26 154.87 48.31 Z" fill="#fefefe" />
<path d="M 40.72 49.97 C 42.23 52.98 43.74 55.99 45.59 58.82 C 47.32 57.86 49.07 57.00 50.90 56.26 C 51.29 57.21 51.69 58.17 52.09 59.12 C 49.32 60.70 46.51 62.20 43.70 63.70 C 41.44 59.71 39.34 55.63 37.12 51.62 C 38.31 51.06 39.51 50.51 40.72 49.97 Z" fill="#fefefe" />
<path d="M 101.85 60.35 C 108.71 62.17 115.26 65.55 121.86 68.16 C 125.42 69.70 129.08 70.52 132.43 72.37 C 132.67 73.98 132.88 75.59 133.11 77.20 C 132.68 77.79 132.24 78.36 131.77 78.91 C 131.41 77.05 131.05 75.20 130.69 73.35 C 122.31 70.68 114.46 66.85 106.29 63.68 C 103.73 62.80 100.72 61.48 98.01 62.30 C 89.37 64.64 81.41 69.62 72.75 71.82 L 73.31 70.27 C 80.10 67.33 86.90 64.31 93.82 61.67 C 96.25 60.89 99.31 59.54 101.85 60.35 Z" fill="#b4ccc0" />
<path d="M 145.74 60.25 L 146.16 60.82 C 146.45 66.42 144.83 71.44 143.89 76.86 C 145.21 75.51 146.53 74.15 147.86 72.80 C 148.21 74.47 148.44 76.18 148.55 77.91 L 148.02 78.87 C 147.32 80.16 146.65 81.46 145.93 82.74 C 147.47 81.51 148.31 81.26 150.34 81.33 L 150.08 84.05 C 149.05 86.05 148.07 88.05 147.21 90.14 L 147.09 90.38 C 148.27 90.40 149.44 90.41 150.62 90.43 C 150.67 93.76 149.04 95.41 146.83 97.54 L 146.30 97.92 L 145.18 97.90 C 143.18 99.34 141.61 101.12 140.00 102.95 C 142.78 102.17 144.89 100.70 147.84 101.79 C 147.28 102.93 146.72 104.08 146.16 105.22 C 145.46 105.49 144.76 105.75 144.06 106.02 L 146.72 106.55 C 146.73 107.71 146.66 108.86 146.50 110.02 L 146.41 110.42 C 143.67 110.67 141.29 111.72 138.87 112.97 C 139.36 114.05 139.85 115.14 140.35 116.22 C 138.96 118.27 137.33 118.66 135.07 119.37 C 135.80 120.31 136.53 121.24 137.25 122.18 C 135.73 123.07 134.20 123.91 132.64 124.72 C 132.21 125.64 131.79 126.56 131.38 127.49 C 130.77 127.53 130.15 127.57 129.54 127.62 C 127.93 127.77 126.31 128.01 124.71 128.23 C 124.72 129.05 124.73 129.87 124.75 130.69 C 123.37 131.26 121.99 131.84 120.64 132.46 C 119.20 131.97 117.73 131.54 116.26 131.11 C 116.57 131.70 116.89 132.28 117.21 132.86 C 115.58 134.93 114.03 136.35 111.70 137.62 C 111.64 141.05 111.52 144.47 111.10 147.89 C 109.27 149.58 107.81 151.57 106.21 153.46 C 104.69 155.13 101.67 155.42 100.63 157.68 C 100.09 158.50 100.05 159.47 100.52 160.62 C 99.97 161.12 99.42 161.63 98.88 162.15 L 100.68 162.37 C 99.84 162.63 98.99 162.88 98.15 163.10 C 98.58 161.38 99.11 159.69 99.68 158.00 C 98.05 155.30 99.24 152.86 98.28 150.10 C 96.55 151.76 96.31 151.58 94.14 151.29 C 94.40 150.27 94.65 149.24 94.90 148.22 C 95.23 146.96 95.57 145.71 95.92 144.46 C 94.96 144.13 94.01 143.80 93.06 143.47 C 94.19 142.21 95.31 140.94 96.42 139.66 C 95.47 139.78 94.51 139.89 93.56 140.01 C 93.46 139.04 93.35 138.07 93.24 137.09 C 94.10 135.73 94.84 134.26 95.59 132.83 C 93.39 133.66 91.26 134.59 89.16 135.65 C 89.78 134.13 90.39 132.61 90.99 131.09 C 89.14 132.27 87.33 133.33 85.20 133.93 C 86.15 132.24 87.14 130.59 88.19 128.96 L 86.38 129.69 C 84.93 129.42 84.03 128.85 83.68 128.00 C 84.90 126.28 86.45 124.98 88.02 123.60 C 86.89 121.38 85.86 119.19 85.27 116.76 C 84.97 115.04 83.05 114.18 81.66 113.41 C 79.56 112.24 77.16 113.34 74.95 113.04 C 74.23 112.40 73.54 111.73 72.87 111.03 C 74.96 111.53 77.06 111.93 79.19 112.21 C 74.99 107.37 70.84 102.64 69.91 96.02 C 69.81 94.54 68.63 94.61 67.54 94.11 C 67.50 90.88 67.11 88.87 64.49 86.71 C 64.67 90.51 64.20 94.23 64.06 98.00 C 64.87 101.53 66.36 104.95 67.75 108.28 C 69.97 113.34 73.58 116.92 76.82 121.22 C 78.87 124.47 81.77 126.88 83.38 130.45 C 81.92 133.82 79.93 135.84 76.88 137.81 C 77.65 136.70 78.56 135.46 78.88 134.13 C 77.13 130.02 74.65 128.20 70.36 127.11 C 69.58 125.20 68.83 123.28 68.04 121.38 L 66.71 121.46 C 66.15 121.34 65.60 121.21 65.05 121.07 C 64.77 119.93 64.50 118.78 64.23 117.63 L 63.72 117.08 C 62.70 115.57 61.71 114.38 60.20 113.35 C 60.76 113.24 61.33 113.12 61.89 113.01 C 59.75 110.81 58.92 109.13 58.17 106.15 C 57.71 104.77 57.21 103.41 56.71 102.04 L 57.43 101.82 C 56.87 100.93 56.31 100.04 55.85 99.09 C 56.00 97.43 56.54 96.11 55.83 94.49 L 55.57 94.23 C 56.05 93.11 56.54 91.99 57.02 90.87 C 56.64 89.13 56.28 87.40 55.92 85.66 C 56.58 85.62 57.25 85.58 57.91 85.55 C 57.90 82.91 57.93 80.27 57.99 77.63 C 58.79 77.54 59.59 77.45 60.40 77.37 C 61.02 74.46 61.48 71.56 61.83 68.60 C 62.49 67.82 63.27 67.12 64.18 66.52 C 64.47 69.48 64.46 72.44 64.48 75.41 C 65.50 72.50 66.55 69.65 68.08 66.97 C 68.55 67.78 69.07 68.57 69.53 69.39 C 71.32 66.19 72.73 63.16 76.35 61.71 C 75.45 64.61 74.23 67.38 73.31 70.27 L 72.75 71.82 C 70.82 76.13 71.17 80.39 71.17 85.00 C 71.19 88.84 72.07 92.42 73.68 95.89 C 75.84 100.45 78.18 104.65 82.51 107.50 C 87.46 111.01 92.27 113.29 93.62 119.82 C 94.41 119.64 95.21 119.45 96.00 119.27 C 98.90 112.45 107.69 110.06 112.57 104.55 C 117.07 99.43 118.13 92.58 118.90 86.05 C 119.84 86.88 120.78 87.71 121.71 88.55 C 121.35 90.64 121.38 92.72 121.32 94.83 C 121.31 96.68 120.05 98.51 119.31 100.17 C 122.54 99.15 124.81 98.34 126.65 95.28 L 127.31 97.12 C 129.99 95.12 133.37 93.54 133.13 89.65 C 132.45 89.58 131.77 89.51 131.09 89.44 C 131.77 88.28 132.45 87.13 133.13 85.98 C 132.49 85.48 131.85 84.99 131.21 84.49 C 131.09 83.38 130.97 82.26 130.85 81.15 C 129.58 82.23 128.28 83.28 126.91 84.24 C 127.99 81.87 129.79 80.49 131.77 78.91 C 132.24 78.36 132.68 77.79 133.11 77.20 C 135.49 73.84 136.75 70.95 137.00 66.78 C 137.64 65.27 138.36 63.80 139.09 62.34 C 141.44 64.31 140.23 69.08 140.58 71.88 C 141.84 68.17 142.65 62.87 145.74 60.25 Z" fill="#3a3a3b" />
<path d="M 146.16 60.82 C 148.53 63.21 147.02 67.97 146.65 70.94 C 147.06 71.56 147.46 72.18 147.86 72.80 C 146.53 74.15 145.21 75.51 143.89 76.86 C 144.83 71.44 146.45 66.42 146.16 60.82 Z" fill="#1c2c24" />
<path d="M 98.01 62.30 C 100.72 61.48 103.73 62.80 106.29 63.68 C 114.46 66.85 122.31 70.68 130.69 73.35 C 131.05 75.20 131.41 77.05 131.77 78.91 C 129.79 80.49 127.99 81.87 126.91 84.24 C 126.35 84.65 125.76 85.04 125.16 85.41 L 125.52 84.95 C 125.55 83.26 125.19 81.62 124.90 79.96 C 116.99 77.75 109.79 73.60 102.01 71.17 C 99.44 70.10 96.29 71.77 93.81 72.62 C 87.65 75.23 81.51 77.81 75.24 80.14 C 73.91 84.23 73.02 91.66 73.68 95.89 C 72.07 92.42 71.19 88.84 71.17 85.00 C 71.17 80.39 70.82 76.13 72.75 71.82 C 81.41 69.62 89.37 64.64 98.01 62.30 Z" fill="#006737" />
<path d="M 137.00 66.78 C 136.75 70.95 135.49 73.84 133.11 77.20 C 132.88 75.59 132.67 73.98 132.43 72.37 C 135.41 71.87 135.69 69.05 137.00 66.78 Z" fill="#0b4127" />
<path d="M 61.83 68.60 C 61.48 71.56 61.02 74.46 60.40 77.37 C 59.59 77.45 58.79 77.54 57.99 77.63 C 57.93 80.27 57.90 82.91 57.91 85.55 C 57.25 85.58 56.58 85.62 55.92 85.66 C 56.28 87.40 56.64 89.13 57.02 90.87 C 56.54 91.99 56.05 93.11 55.57 94.23 L 54.70 93.41 C 54.92 87.98 55.93 82.48 57.52 77.29 C 59.26 74.52 60.26 71.45 61.83 68.60 Z" fill="#0a4529" />
<path d="M 102.01 71.17 C 109.79 73.60 116.99 77.75 124.90 79.96 C 125.19 81.62 125.55 83.26 125.52 84.95 L 125.16 85.41 C 123.61 86.30 122.47 86.82 121.71 88.55 C 120.78 87.71 119.84 86.88 118.90 86.05 C 118.13 92.58 117.07 99.43 112.57 104.55 C 107.69 110.06 98.90 112.45 96.00 119.27 C 95.21 119.45 94.41 119.64 93.62 119.82 C 92.27 113.29 87.46 111.01 82.51 107.50 C 78.18 104.65 75.84 100.45 73.68 95.89 C 73.02 91.66 73.91 84.23 75.24 80.14 C 81.51 77.81 87.65 75.23 93.81 72.62 C 96.29 71.77 99.44 70.10 102.01 71.17 Z" fill="#fefefe" />
<path d="M 103.37 81.51 C 100.20 81.64 100.86 80.35 98.28 83.20 C 99.50 84.05 100.71 84.90 101.93 85.74 C 103.24 85.62 104.55 85.50 105.85 85.38 C 106.52 86.65 107.18 87.92 107.84 89.19 C 106.89 90.13 105.95 91.12 104.90 91.93 C 103.54 92.08 102.11 91.11 100.87 90.64 C 99.58 90.97 98.30 91.32 97.02 91.66 C 98.03 91.13 99.05 90.61 100.06 90.09 C 100.62 88.96 101.17 87.84 101.73 86.71 C 100.79 85.69 99.85 84.67 98.91 83.66 C 97.42 84.20 95.94 84.76 94.47 85.36 C 93.96 84.76 93.45 84.17 92.94 83.58 C 89.54 86.28 87.79 89.58 88.16 93.99 C 88.23 98.57 91.07 101.60 94.76 103.88 C 93.21 103.05 91.28 102.28 90.14 100.92 C 85.61 96.20 86.05 87.38 91.41 83.40 C 94.93 80.49 99.11 80.29 103.37 81.51 Z" fill="#404040" />
<path d="M 130.85 81.15 C 130.97 82.26 131.09 83.38 131.21 84.49 C 131.85 84.99 132.49 85.48 133.13 85.98 C 132.45 87.13 131.77 88.28 131.09 89.44 C 131.77 89.51 132.45 89.58 133.13 89.65 C 133.37 93.54 129.99 95.12 127.31 97.12 L 126.65 95.28 C 124.81 98.34 122.54 99.15 119.31 100.17 C 120.05 98.51 121.31 96.68 121.32 94.83 C 121.38 92.72 121.35 90.64 121.71 88.55 C 122.47 86.82 123.61 86.30 125.16 85.41 C 125.76 85.04 126.35 84.65 126.91 84.24 C 128.28 83.28 129.58 82.23 130.85 81.15 Z" fill="#535355" />
<path d="M 170.44 82.12 C 170.47 83.35 170.50 84.59 170.53 85.82 C 162.78 87.39 154.97 88.59 147.21 90.14 C 148.07 88.05 149.05 86.05 150.08 84.05 L 150.58 85.47 C 157.20 84.39 163.78 82.95 170.44 82.12 Z" fill="#006636" />
<path d="M 64.49 86.71 C 67.11 88.87 67.50 90.88 67.54 94.11 C 68.63 94.61 69.81 94.54 69.91 96.02 C 70.84 102.64 74.99 107.37 79.19 112.21 C 77.06 111.93 74.96 111.53 72.87 111.03 C 73.54 111.73 74.23 112.40 74.95 113.04 C 77.16 113.34 79.56 112.24 81.66 113.41 C 83.05 114.18 84.97 115.04 85.27 116.76 C 85.86 119.19 86.89 121.38 88.02 123.60 C 86.45 124.98 84.90 126.28 83.68 128.00 C 84.03 128.85 84.93 129.42 86.38 129.69 C 85.40 130.14 84.40 130.39 83.38 130.45 C 81.77 126.88 78.87 124.47 76.82 121.22 C 73.58 116.92 69.97 113.34 67.75 108.28 C 66.36 104.95 64.87 101.53 64.06 98.00 C 64.20 94.23 64.67 90.51 64.49 86.71 Z" fill="#474749" />
<path d="M 93.01 90.15 C 94.19 90.61 95.35 91.24 96.48 91.83 C 96.21 93.61 95.95 95.39 95.69 97.18 C 94.24 97.27 92.27 98.10 90.94 97.50 C 90.14 96.03 89.63 94.50 89.05 92.94 C 90.32 91.98 91.60 90.90 93.01 90.15 Z" fill="#404040" />
<path d="M 170.50 93.97 C 170.45 95.30 170.40 96.64 170.35 97.97 C 163.13 99.16 155.93 100.48 148.73 101.80 C 147.81 100.62 146.88 99.94 145.57 99.26 C 145.81 98.81 146.05 98.37 146.30 97.92 L 146.83 97.54 C 154.76 97.36 162.63 95.00 170.50 93.97 Z" fill="#006737" />
<path d="M 132.18 96.94 C 130.92 98.49 129.68 99.95 127.87 100.87 C 126.21 101.82 123.78 101.11 122.21 102.17 C 121.31 103.48 123.63 103.70 124.44 103.42 C 126.72 103.00 128.88 102.71 131.20 103.01 C 129.11 105.19 126.33 106.08 123.41 106.48 C 122.31 106.29 121.33 105.47 120.20 105.35 C 119.83 106.12 119.56 106.92 119.27 107.73 C 118.72 108.25 118.17 108.76 117.61 109.28 C 117.98 109.89 118.35 110.50 118.71 111.11 C 116.16 111.25 113.65 111.24 111.10 111.07 C 114.18 108.09 116.27 105.00 118.19 101.19 C 121.34 100.50 124.41 99.80 127.25 98.23 C 128.82 97.32 130.41 97.10 132.18 96.94 Z" fill="#505052" />
<path d="M 145.18 97.90 L 146.30 97.92 C 146.05 98.37 145.81 98.81 145.57 99.26 C 146.88 99.94 147.81 100.62 148.73 101.80 L 147.84 101.79 C 144.89 100.70 142.78 102.17 140.00 102.95 C 141.61 101.12 143.18 99.34 145.18 97.90 Z" fill="#232c28" />
<path d="M 56.71 102.04 C 57.21 103.41 57.71 104.77 58.17 106.15 C 48.89 107.08 39.74 109.34 30.51 110.72 C 30.39 109.44 30.28 108.16 30.16 106.87 C 39.00 105.19 47.89 103.81 56.71 102.04 Z" fill="#006637" />
<path d="M 169.90 106.11 C 168.89 121.36 163.78 135.90 155.84 148.90 C 145.96 164.95 131.76 178.94 115.60 188.62 C 110.73 191.38 105.49 194.25 100.00 195.49 C 92.02 193.50 84.44 188.89 77.68 184.29 C 58.80 171.01 42.84 151.88 35.10 129.98 C 45.37 128.07 55.68 126.31 65.97 124.46 C 65.66 123.33 65.35 122.20 65.05 121.07 C 65.60 121.21 66.15 121.34 66.71 121.46 C 68.18 127.08 70.45 132.74 73.71 137.57 L 75.21 138.21 C 74.74 134.27 71.53 130.95 70.36 127.11 C 74.65 128.20 77.13 130.02 78.88 134.13 C 78.56 135.46 77.65 136.70 76.88 137.81 C 75.50 138.77 74.10 139.71 72.73 140.71 C 72.14 141.12 71.55 141.53 70.95 141.94 C 70.01 144.23 69.24 146.80 67.80 148.83 C 66.49 149.92 63.73 148.94 62.07 149.00 C 61.61 149.66 61.15 150.31 60.68 150.96 C 59.85 151.46 59.01 151.95 58.17 152.43 C 57.46 152.66 56.76 152.89 56.05 153.11 C 56.46 154.53 56.86 155.94 57.27 157.35 C 58.56 157.50 59.85 157.64 61.14 157.78 C 60.41 159.89 59.31 161.31 60.22 163.56 L 60.86 163.30 C 63.37 162.43 65.67 161.41 67.99 160.12 C 68.90 161.47 69.69 162.87 70.42 164.33 C 71.69 163.61 72.97 162.90 74.25 162.19 C 74.78 161.06 75.31 159.93 75.84 158.81 C 80.20 157.67 84.20 155.65 88.53 154.41 C 89.12 154.87 89.70 155.34 90.28 155.81 C 93.33 158.25 93.99 161.16 95.09 164.65 C 95.60 165.64 96.12 167.24 97.54 166.42 C 100.69 164.72 103.66 162.65 106.62 160.64 C 109.14 158.94 111.45 156.49 114.25 155.29 C 117.13 155.08 120.07 156.35 123.00 156.30 C 128.04 156.25 133.71 154.97 137.63 151.63 C 139.81 149.79 140.44 146.62 138.87 144.19 C 136.74 140.39 133.16 138.35 130.60 135.02 C 131.17 130.70 133.63 127.56 136.66 124.62 C 140.78 120.62 141.27 114.97 146.09 111.53 L 146.41 110.42 L 146.50 110.02 C 154.35 108.98 162.07 107.22 169.90 106.11 Z" fill="#006738" />
<path d="M 128.16 108.25 L 127.44 109.63 C 124.87 110.31 122.15 110.26 119.64 109.38 C 122.55 107.37 124.85 107.77 128.16 108.25 Z" fill="#565759" />
<path d="M 146.41 110.42 L 146.09 111.53 C 141.27 114.97 140.78 120.62 136.66 124.62 C 133.63 127.56 131.17 130.70 130.60 135.02 C 133.16 138.35 136.74 140.39 138.87 144.19 C 140.44 146.62 139.81 149.79 137.63 151.63 C 133.71 154.97 128.04 156.25 123.00 156.30 C 120.07 156.35 117.13 155.08 114.25 155.29 C 111.45 156.49 109.14 158.94 106.62 160.64 C 103.66 162.65 100.69 164.72 97.54 166.42 C 96.12 167.24 95.60 165.64 95.09 164.65 L 96.14 165.05 C 97.20 165.71 97.87 165.06 98.15 163.10 C 98.99 162.88 99.84 162.63 100.68 162.37 C 105.38 159.74 110.05 156.26 113.66 152.24 C 114.70 152.30 115.73 152.39 116.77 152.48 C 118.17 153.47 119.65 154.20 121.21 154.70 C 120.55 153.52 119.86 152.35 119.15 151.20 C 120.62 152.52 122.11 153.71 123.99 154.41 L 125.43 153.72 C 126.68 153.34 128.10 153.60 129.41 153.57 C 130.62 151.48 132.01 152.12 134.09 151.87 C 134.40 151.29 134.70 150.71 135.01 150.13 C 135.68 149.84 136.36 149.55 137.03 149.27 C 136.57 147.30 136.66 147.56 137.92 146.07 C 137.26 145.10 136.59 144.14 135.90 143.19 C 133.76 139.84 130.67 137.69 127.31 135.70 C 128.95 133.09 130.25 130.36 131.38 127.49 C 131.79 126.56 132.21 125.64 132.64 124.72 C 134.20 123.91 135.73 123.07 137.25 122.18 C 136.53 121.24 135.80 120.31 135.07 119.37 C 137.33 118.66 138.96 118.27 140.35 116.22 C 139.85 115.14 139.36 114.05 138.87 112.97 C 141.29 111.72 143.67 110.67 146.41 110.42 Z" fill="#074025" />
<path d="M 109.14 111.90 C 111.47 111.75 113.80 111.85 116.12 112.04 C 115.71 113.67 114.79 113.77 113.44 114.46 C 113.48 114.94 113.52 115.42 113.56 115.90 C 112.42 116.10 111.28 116.30 110.14 116.50 C 110.81 117.08 111.47 117.66 112.13 118.24 C 114.99 117.83 117.24 117.82 119.88 119.14 L 120.20 121.09 C 116.40 121.20 113.30 120.53 109.75 119.30 C 110.86 121.60 114.90 121.49 116.80 123.33 C 114.99 123.65 113.16 123.93 111.34 124.20 C 111.56 125.14 111.78 126.08 111.99 127.01 C 107.24 127.32 105.54 123.97 101.81 121.85 C 104.30 118.55 106.97 115.43 109.14 111.90 Z" fill="#505152" />
<path d="M 118.32 112.20 C 120.45 111.51 123.76 111.74 125.21 113.71 C 122.70 114.02 120.19 114.09 117.67 114.03 L 118.32 112.20 Z" fill="#575759" />
<path d="M 60.20 113.35 C 61.71 114.38 62.70 115.57 63.72 117.08 C 53.44 118.27 43.08 120.84 32.85 122.21 C 32.45 121.01 32.23 119.79 31.97 118.55 C 41.36 116.70 50.85 115.36 60.20 113.35 Z" fill="#006636" />
<path d="M 115.11 115.10 C 118.04 114.93 120.13 114.49 122.32 116.82 C 119.93 117.00 117.55 117.03 115.15 116.98 L 115.11 115.10 Z" fill="#575759" />
<path d="M 109.75 119.30 C 113.30 120.53 116.40 121.20 120.20 121.09 L 119.93 122.70 C 118.89 122.93 117.85 123.14 116.80 123.33 C 114.90 121.49 110.86 121.60 109.75 119.30 Z" fill="#302e2f" />
<path d="M 68.04 121.38 C 68.83 123.28 69.58 125.20 70.36 127.11 C 71.53 130.95 74.74 134.27 75.21 138.21 L 73.71 137.57 C 70.45 132.74 68.18 127.08 66.71 121.46 L 68.04 121.38 Z" fill="#a8bfb4" />
<path d="M 129.54 127.62 C 128.30 130.04 127.13 132.49 126.03 134.98 C 124.25 134.11 122.46 133.24 120.64 132.46 C 121.99 131.84 123.37 131.26 124.75 130.69 C 124.73 129.87 124.72 129.05 124.71 128.23 C 126.31 128.01 127.93 127.77 129.54 127.62 Z" fill="#004323" />
<path d="M 131.38 127.49 C 130.25 130.36 128.95 133.09 127.31 135.70 C 130.67 137.69 133.76 139.84 135.90 143.19 C 133.58 141.68 131.13 140.42 128.75 139.00 C 127.18 137.96 125.63 136.88 124.01 135.91 C 123.90 137.02 123.78 138.10 123.82 139.21 C 124.12 139.81 124.43 140.41 124.76 141.01 C 123.64 140.22 120.80 141.54 123.16 142.22 L 125.07 141.59 L 126.29 143.13 C 125.35 143.17 124.41 143.20 123.47 143.24 C 123.91 144.05 124.35 144.86 124.75 145.69 C 123.53 146.29 122.32 146.91 121.11 147.54 C 119.45 147.36 117.89 147.37 116.23 147.55 C 114.85 146.48 113.45 145.47 111.92 144.63 C 115.07 143.18 116.55 142.66 119.96 143.85 C 119.01 142.94 118.07 142.02 117.13 141.09 C 118.26 140.95 119.40 140.81 120.54 140.68 C 119.57 139.78 118.59 138.89 117.63 137.99 C 118.25 136.42 118.62 134.93 118.84 133.26 L 117.21 132.86 C 116.89 132.28 116.57 131.70 116.26 131.11 C 117.73 131.54 119.20 131.97 120.64 132.46 C 122.46 133.24 124.25 134.11 126.03 134.98 C 127.13 132.49 128.30 130.04 129.54 127.62 C 130.15 127.57 130.77 127.53 131.38 127.49 Z" fill="#a4a4a6" />
<path d="M 86.38 129.69 L 88.19 128.96 C 87.14 130.59 86.15 132.24 85.20 133.93 C 87.33 133.33 89.14 132.27 90.99 131.09 C 90.39 132.61 89.78 134.13 89.16 135.65 C 91.26 134.59 93.39 133.66 95.59 132.83 C 94.84 134.26 94.10 135.73 93.24 137.09 L 91.31 138.72 C 91.78 140.29 92.97 141.03 94.12 142.10 C 92.42 142.81 90.77 143.54 88.97 143.97 C 85.69 144.01 81.82 146.71 78.78 145.35 C 76.42 144.15 77.40 142.88 77.46 140.65 C 75.84 142.44 74.93 143.34 75.28 146.04 L 73.12 144.94 L 71.65 144.10 C 72.00 142.96 72.36 141.83 72.73 140.71 C 74.10 139.71 75.50 138.77 76.88 137.81 C 79.93 135.84 81.92 133.82 83.38 130.45 C 84.40 130.39 85.40 130.14 86.38 129.69 Z" fill="#fefefe" />
<path d="M 117.21 132.86 L 118.84 133.26 C 118.62 134.93 118.25 136.42 117.63 137.99 C 118.59 138.89 119.57 139.78 120.54 140.68 C 119.40 140.81 118.26 140.95 117.13 141.09 C 118.07 142.02 119.01 142.94 119.96 143.85 C 116.55 142.66 115.07 143.18 111.92 144.63 C 113.00 147.64 114.22 150.41 116.77 152.48 C 115.73 152.39 114.70 152.30 113.66 152.24 L 111.99 152.07 L 113.00 150.99 C 112.39 149.94 111.76 148.91 111.10 147.89 C 111.52 144.47 111.64 141.05 111.70 137.62 C 114.03 136.35 115.58 134.93 117.21 132.86 Z" fill="#949496" />
<path d="M 120.35 134.16 C 121.29 133.44 123.45 134.54 122.88 135.79 C 121.99 136.43 119.90 135.30 120.35 134.16 Z" fill="#858486" />
<path d="M 87.56 135.20 C 87.99 136.67 85.68 138.66 84.35 138.99 C 84.37 137.39 85.49 134.32 87.56 135.20 Z" fill="#c5c4c4" />
<path d="M 124.01 135.91 C 125.63 136.88 127.18 137.96 128.75 139.00 C 127.04 139.72 125.58 139.47 123.82 139.21 C 123.78 138.10 123.90 137.02 124.01 135.91 Z" fill="#cdcccd" />
<path d="M 91.31 138.72 L 93.24 137.09 C 93.35 138.07 93.46 139.04 93.56 140.01 C 94.51 139.89 95.47 139.78 96.42 139.66 C 95.31 140.94 94.19 142.21 93.06 143.47 C 94.01 143.80 94.96 144.13 95.92 144.46 C 95.57 145.71 95.23 146.96 94.90 148.22 C 94.06 147.62 93.21 147.03 92.35 146.45 C 92.63 145.48 92.90 144.49 93.15 143.51 C 91.76 143.64 90.36 143.80 88.97 143.97 C 90.77 143.54 92.42 142.81 94.12 142.10 C 92.97 141.03 91.78 140.29 91.31 138.72 Z" fill="#989898" />
<path d="M 123.82 139.21 C 125.58 139.47 127.04 139.72 128.75 139.00 C 131.13 140.42 133.58 141.68 135.90 143.19 C 136.59 144.14 137.26 145.10 137.92 146.07 C 136.66 147.56 136.57 147.30 137.03 149.27 C 135.19 148.86 133.34 148.53 131.47 148.34 C 129.21 146.99 127.92 146.33 125.23 146.80 L 124.75 145.69 C 124.35 144.86 123.91 144.05 123.47 143.24 C 124.41 143.20 125.35 143.17 126.29 143.13 L 125.07 141.59 L 124.76 141.01 C 124.43 140.41 124.12 139.81 123.82 139.21 Z" fill="#eaeaea" />
<path d="M 72.73 140.71 C 72.36 141.83 72.00 142.96 71.65 144.10 C 70.79 146.61 69.38 148.65 68.96 151.26 L 68.72 152.33 C 67.91 152.26 67.10 152.17 66.29 152.07 C 65.16 151.36 64.11 150.55 63.02 149.80 C 62.23 150.17 61.45 150.55 60.68 150.96 C 61.15 150.31 61.61 149.66 62.07 149.00 C 63.73 148.94 66.49 149.92 67.80 148.83 C 69.24 146.80 70.01 144.23 70.95 141.94 C 71.55 141.53 72.14 141.12 72.73 140.71 Z" fill="#275637" />
<path d="M 77.46 140.65 C 77.40 142.88 76.42 144.15 78.78 145.35 C 81.82 146.71 85.69 144.01 88.97 143.97 C 90.36 143.80 91.76 143.64 93.15 143.51 C 92.90 144.49 92.63 145.48 92.35 146.45 C 91.04 148.44 89.77 149.29 87.66 150.19 C 87.59 150.66 87.52 151.12 87.44 151.58 L 86.66 152.94 C 84.84 153.32 82.83 153.44 81.10 154.12 C 79.89 155.03 78.84 156.22 77.78 157.31 C 76.75 155.46 75.78 153.59 74.78 151.73 C 75.41 151.31 76.05 150.89 76.69 150.47 C 77.56 151.27 78.43 152.08 79.31 152.88 C 79.17 150.52 78.88 148.32 79.96 146.09 C 78.65 145.75 77.34 145.42 76.02 145.08 L 75.79 146.59 C 74.90 146.04 74.01 145.49 73.12 144.94 L 75.28 146.04 C 74.93 143.34 75.84 142.44 77.46 140.65 Z" fill="#383737" />
<path d="M 124.76 141.01 L 125.07 141.59 L 123.16 142.22 C 120.80 141.54 123.64 140.22 124.76 141.01 Z" fill="#797979" />
<path d="M 71.65 144.10 L 73.12 144.94 C 74.01 145.49 74.90 146.04 75.79 146.59 C 74.82 148.82 73.41 150.65 72.03 152.61 C 71.00 152.16 69.98 151.71 68.96 151.26 C 69.38 148.65 70.79 146.61 71.65 144.10 Z" fill="#fbf26c" />
<path d="M 111.92 144.63 C 113.45 145.47 114.85 146.48 116.23 147.55 C 117.89 147.37 119.45 147.36 121.11 147.54 C 122.32 146.91 123.53 146.29 124.75 145.69 L 125.23 146.80 C 125.50 147.47 125.79 148.15 126.08 148.82 C 127.17 150.13 128.61 151.39 129.29 152.94 C 127.05 153.10 125.45 152.01 123.47 151.17 C 124.13 152.02 124.78 152.87 125.43 153.72 L 123.99 154.41 C 122.11 153.71 120.62 152.52 119.15 151.20 C 119.86 152.35 120.55 153.52 121.21 154.70 C 119.65 154.20 118.17 153.47 116.77 152.48 C 114.22 150.41 113.00 147.64 111.92 144.63 Z" fill="#e2e2e2" />
<path d="M 76.02 145.08 C 77.34 145.42 78.65 145.75 79.96 146.09 C 78.88 148.32 79.17 150.52 79.31 152.88 C 78.43 152.08 77.56 151.27 76.69 150.47 C 76.05 150.89 75.41 151.31 74.78 151.73 C 73.93 152.29 73.08 152.87 72.27 153.48 C 70.34 152.68 68.33 152.45 66.29 152.07 C 67.10 152.17 67.91 152.26 68.72 152.33 L 68.96 151.26 C 69.98 151.71 71.00 152.16 72.03 152.61 C 73.41 150.65 74.82 148.82 75.79 146.59 L 76.02 145.08 Z" fill="#c99d42" />
<path d="M 131.47 148.34 C 132.42 149.18 133.25 150.09 133.96 151.09 C 131.12 151.97 128.47 150.11 126.08 148.82 C 125.79 148.15 125.50 147.47 125.23 146.80 C 127.92 146.33 129.21 146.99 131.47 148.34 Z" fill="#f0efef" />
<path d="M 92.35 146.45 C 93.21 147.03 94.06 147.62 94.90 148.22 C 94.65 149.24 94.40 150.27 94.14 151.29 C 92.98 152.23 91.91 153.26 90.84 154.30 C 89.71 153.39 88.58 152.48 87.44 151.58 C 87.52 151.12 87.59 150.66 87.66 150.19 C 89.77 149.29 91.04 148.44 92.35 146.45 Z" fill="#004b28" />
<path d="M 111.10 147.89 C 111.76 148.91 112.39 149.94 113.00 150.99 L 111.99 152.07 C 108.20 154.99 104.54 158.01 100.52 160.62 C 100.05 159.47 100.09 158.50 100.63 157.68 C 101.67 155.42 104.69 155.13 106.21 153.46 C 107.81 151.57 109.27 149.58 111.10 147.89 Z" fill="#0f452b" />
<path d="M 137.03 149.27 C 136.36 149.55 135.68 149.84 135.01 150.13 C 134.70 150.71 134.40 151.29 134.09 151.87 C 132.01 152.12 130.62 151.48 129.41 153.57 C 128.10 153.60 126.68 153.34 125.43 153.72 C 124.78 152.87 124.13 152.02 123.47 151.17 C 125.45 152.01 127.05 153.10 129.29 152.94 C 128.61 151.39 127.17 150.13 126.08 148.82 C 128.47 150.11 131.12 151.97 133.96 151.09 C 133.25 150.09 132.42 149.18 131.47 148.34 C 133.34 148.53 135.19 148.86 137.03 149.27 Z" fill="#919191" />
<path d="M 63.02 149.80 C 64.11 150.55 65.16 151.36 66.29 152.07 C 68.33 152.45 70.34 152.68 72.27 153.48 L 71.41 155.13 C 72.19 156.02 72.98 156.90 73.78 157.77 C 72.63 159.78 73.20 161.98 70.09 161.58 C 70.48 160.36 70.87 159.14 71.27 157.91 C 68.44 157.05 66.39 156.72 64.21 159.11 C 63.37 159.85 62.53 160.58 61.68 161.31 C 60.89 157.58 63.75 156.14 66.18 154.17 C 62.59 153.38 61.99 155.26 59.66 157.32 C 59.41 155.46 59.01 154.08 58.17 152.43 C 59.01 151.95 59.85 151.46 60.68 150.96 C 61.45 150.55 62.23 150.17 63.02 149.80 Z" fill="#ede690" />
<path d="M 94.14 151.29 C 96.31 151.58 96.55 151.76 98.28 150.10 C 99.24 152.86 98.05 155.30 99.68 158.00 C 99.11 159.69 98.58 161.38 98.15 163.10 C 97.87 165.06 97.20 165.71 96.14 165.05 C 95.99 163.01 95.81 160.99 95.31 159.00 C 95.97 157.65 96.66 156.32 97.34 154.98 C 94.98 155.21 92.63 155.44 90.28 155.81 C 89.70 155.34 89.12 154.87 88.53 154.41 C 87.91 153.92 87.29 153.43 86.66 152.94 L 87.44 151.58 C 88.58 152.48 89.71 153.39 90.84 154.30 C 91.91 153.26 92.98 152.23 94.14 151.29 Z" fill="#d5d083" />
<path d="M 100.51 150.91 C 103.20 152.03 102.43 155.16 100.15 156.31 C 99.70 155.44 99.29 154.55 98.91 153.65 C 99.44 152.73 99.97 151.82 100.51 150.91 Z" fill="#d1cc81" />
<path d="M 58.17 152.43 C 59.01 154.08 59.41 155.46 59.66 157.32 C 61.99 155.26 62.59 153.38 66.18 154.17 C 63.75 156.14 60.89 157.58 61.68 161.31 C 62.53 160.58 63.37 159.85 64.21 159.11 C 63.17 160.56 62.10 162.00 60.86 163.30 L 60.22 163.56 C 59.31 161.31 60.41 159.89 61.14 157.78 C 59.85 157.64 58.56 157.50 57.27 157.35 C 56.86 155.94 56.46 154.53 56.05 153.11 C 56.76 152.89 57.46 152.66 58.17 152.43 Z" fill="#586b44" />
<path d="M 74.78 151.73 C 75.78 153.59 76.75 155.46 77.78 157.31 C 78.84 156.22 79.89 155.03 81.10 154.12 C 82.83 153.44 84.84 153.32 86.66 152.94 C 87.29 153.43 87.91 153.92 88.53 154.41 C 84.20 155.65 80.20 157.67 75.84 158.81 C 75.31 159.93 74.78 161.06 74.25 162.19 C 72.97 162.90 71.69 163.61 70.42 164.33 C 69.69 162.87 68.90 161.47 67.99 160.12 C 65.67 161.41 63.37 162.43 60.86 163.30 C 62.10 162.00 63.17 160.56 64.21 159.11 C 66.39 156.72 68.44 157.05 71.27 157.91 C 70.87 159.14 70.48 160.36 70.09 161.58 C 73.20 161.98 72.63 159.78 73.78 157.77 C 72.98 156.90 72.19 156.02 71.41 155.13 L 72.27 153.48 C 73.08 152.87 73.93 152.29 74.78 151.73 Z" fill="#024224" />
<path d="M 111.99 152.07 L 113.66 152.24 C 110.05 156.26 105.38 159.74 100.68 162.37 L 98.88 162.15 C 99.42 161.63 99.97 161.12 100.52 160.62 C 104.54 158.01 108.20 154.99 111.99 152.07 Z" fill="#b4c2bb" />
<path d="M 97.34 154.98 C 96.66 156.32 95.97 157.65 95.31 159.00 C 95.81 160.99 95.99 163.01 96.14 165.05 L 95.09 164.65 C 93.99 161.16 93.33 158.25 90.28 155.81 C 92.63 155.44 94.98 155.21 97.34 154.98 Z" fill="#757766" />
<path d="M 95.84 171.36 C 98.90 172.42 98.74 176.29 97.79 178.78 C 96.46 181.03 94.45 181.03 92.12 181.56 C 91.88 179.15 93.92 179.21 95.47 178.18 C 93.74 177.62 91.84 177.93 91.12 175.91 C 90.01 173.06 93.03 170.54 95.84 171.36 Z" fill="#d3e4dc" />
<path d="M 86.38 172.30 C 87.14 175.49 87.74 178.69 88.01 181.97 C 87.29 181.87 86.56 181.76 85.83 181.66 C 85.55 179.60 85.26 177.55 84.97 175.50 C 84.03 175.50 83.08 175.50 82.14 175.49 C 82.96 173.43 84.51 173.08 86.38 172.30 Z" fill="#fdfefe" />
<path d="M 107.55 171.42 C 107.61 173.94 106.60 176.02 108.42 178.09 C 107.65 179.20 106.90 180.30 106.05 181.35 C 104.63 180.96 104.88 178.88 103.56 178.80 C 102.49 178.61 101.41 178.45 100.32 178.32 C 101.95 175.60 103.55 170.54 107.55 171.42 Z" fill="#e4efea" />
<path d="M 95.53 173.45 C 95.86 174.31 96.08 175.22 96.20 176.16 C 95.09 176.17 94.22 175.93 93.58 175.43 C 92.16 174.50 94.33 171.86 95.53 173.45 Z" fill="#5b9b7a" />
<path d="M 112.81 172.32 C 114.94 173.08 118.18 172.20 118.37 175.21 C 116.82 175.14 115.27 175.07 113.72 174.98 C 115.50 176.53 117.98 177.10 117.25 180.03 C 116.18 183.30 112.79 182.31 110.21 181.77 C 110.26 181.03 110.30 180.30 110.35 179.56 C 111.81 179.81 113.39 180.55 114.79 179.79 C 114.95 177.51 112.83 177.94 111.31 177.02 C 111.80 175.45 112.30 173.88 112.81 172.32 Z" fill="#cee2d9" />
<path d="M 104.33 174.15 C 106.72 173.54 106.12 177.61 103.91 177.28 C 102.07 176.88 103.30 174.74 104.33 174.15 Z" fill="#94bea9" />
</svg>