<svg xmlns="http://www.w3.org/2000/svg" xml:space="preserve" overflow="visible" height="325.98" width="254.02" viewBox="0 0 127.007 162.99299" version="1.1" enable-background="new 0 0 514.616 224.688">
<title>Logo: SC Cambuur</title>
<path d="m126.02,99.488-0.109-98.504c0,10.225-27.866,18.621-62.244,18.621-0.209,0-0.418-0.003-0.621-0.003v142.39c0.155,0.003,0.301,0.015,0.458,0.015,34.525-0.001,62.516-27.994,62.516-62.52zm-124.49,0.2465-0.44001,98.258c0,34.372,27.744,62.256,62.063,62.505v-142.39c-34.091-0.0985-61.622-8.2185-61.622-18.372z" stroke="#FFF" stroke-width="1.96899998" fill="none"/>
<path fill="#fbd413" d="m2.8015,2.7355-0.43,95.906c0,33.548,27.083,60.765,60.585,61.009v-138.98c-33.278-0.1025-60.154-8.0245-60.154-17.935"/>
<path fill="#1665a7" d="m124.42,98.642-0.109-96.146c0,9.979-27.197,18.177-60.753,18.177-0.206,0-0.406-0.003-0.604-0.003v138.98c0.148,0.003,0.289,0.013,0.44,0.013,33.703,0,61.026-27.319,61.026-61.021"/>
<path fill="#FFF" d="m104.43,101.59-0.022-70.314s-18.845,4.839-41.452,4.839c-22.601,0-41.918-4.98-41.918-4.98l0.043,70.455c0,23.005,18.868,40.75,41.875,40.75,23.022,0,41.474-17.745,41.474-40.75"/>
<path d="m104.43,101.59-0.022-70.314s-18.845,4.839-41.452,4.839c-22.601,0-41.918-4.98-41.918-4.98l0.043,70.455c0,23.005,18.868,40.75,41.875,40.75,23.022,0,41.474-17.745,41.474-40.75z" stroke="#231f20" stroke-width="0.56400001" fill="none"/>
<path fill="#fbd413" d="m100.17,100.16-0.023-63.186s-13.28,3.357-37.187,3.357c-23.901,0-37.654-3.5-37.654-3.5l0.043,63.329c0,20.658,16.787,37.482,37.445,37.482,20.661,0,37.376-16.824,37.376-37.482"/>
<path d="m100.17,100.16-0.023-63.186s-13.28,3.357-37.187,3.357c-23.901,0-37.654-3.5-37.654-3.5l0.043,63.329c0,20.658,16.787,37.482,37.445,37.482,20.661,0,37.376-16.824,37.376-37.482z" stroke="#231f20" stroke-width="0.39500001" fill="none"/>
<path fill="#231f20" d="m60.819,64.582v-19.82s-0.928-0.158-1.924,0.412c-1.001,0.555-1.416,1.989-1.416,1.989l-1.411-1.989-1.41,2.055-1.411-1.923-1.419,1.992-1.408-1.992-1.414,1.992-1.414-1.992-1.428,2.014-1.397-2.014-1.41,1.992-1.414-1.992-1.411,1.992-1.416-1.992-1.405,1.992-1.416-1.992-1.414,1.992-1.415-1.992-1.413,1.992s-0.412-1.488-1.411-1.992c-0.996-0.51-1.917-0.513-1.917-0.513v19.761s0.921-0.009,1.917-0.513c0.999-0.506,1.411-1.994,1.411-1.994l1.413,1.994,1.415-1.994,1.414,1.994,1.416-1.994,1.405,1.994,1.416-1.994,1.411,1.994,1.414-1.994,1.41,1.994,1.397-2.015,1.428,2.015,1.414-1.994,1.414,1.994,1.408-1.994,1.419,1.994,1.411-1.923,1.41,2.055,1.411-1.995s0.415,1.437,1.416,1.995c0.995,0.562,1.924,0.409,1.924,0.409"/>
<path fill="#231f20" d="m96.331,64.514v-19.823s-0.938-0.151-1.932,0.409c-1.001,0.567-1.41,1.998-1.41,1.998l-1.417-1.998-1.416,2.061-1.405-1.926-1.417,1.995-1.41-1.995-1.411,1.995-1.411-1.995-1.437,2.018-1.394-2.018-1.408,1.995-1.419-1.995-1.408,1.995-1.416-1.995-1.408,1.995-1.417-1.995-1.41,1.995-1.411-1.995-1.416,1.995s-0.406-1.491-1.408-1.995c-1.002-0.507-1.917-0.509-1.917-0.509v19.763s0.915-0.009,1.917-0.513c1.002-0.506,1.408-1.997,1.408-1.997l1.416,1.997,1.411-1.997,1.41,1.997,1.417-1.997,1.408,1.997,1.416-1.997,1.408,1.997,1.419-1.997,1.408,1.997,1.394-2.02,1.437,2.02,1.411-1.997,1.411,1.997,1.41-1.997,1.417,1.997,1.405-1.928,1.416,2.057,1.417-1.986s0.409,1.425,1.41,1.986c0.994,0.561,1.932,0.409,1.932,0.409"/>
<path fill="#d1242a" d="m44.698,79.15c-0.209,0.143-0.518,1.577,1.288,1.379,0.804-0.088-0.203,1.031,1.302,1.511,1.685,0.532,4.956-0.352,5.039,0.758,0.08,1.102-0.503,1.932-0.343,3.228,0.134,1.105,0.832,2.41,0.343,3.025-1.462,1.857-8.545,0.619-8.545,0.619-3.797,1.902-3.969,2.752-4.861,5.228-0.656,1.823-1.306,3.225-1.306,3.225,3.349,0.695,4.118-3.317,4.791-3.987,3.423-3.368,9.561,0.827,9.44,1.514-0.354,2.038-5.225,0.621-5.225,0.621-3.148,3.597-5.829,4.502-7.358,6.459-1.404,1.8-1.954,4.132-1.856,4.132,2.919,0,3.84-0.978,3.917-0.896,0.08,0.075,5.589-7.03,7.632-6.261,6.742,2.547,21.623,0.386,20.676,1.239-2.061,1.86-0.343,3.446-1.233,4.467-0.138,0.158,2.421,0.693,2.977,0.209,0.504-0.443,0.572-1.25,0.893-1.095,0.314,0.154,15.948-1.105,15.948-1.105s2.071-2.267-0.55-3.506c-1.849-0.876-0.881-2.773-0.48-3.365,3.19-4.739,3.145-9.146,3.145-9.146s-0.392,0.203-2.226,1.285c-1.263,0.741-2.708-2.321-3.48-2.292-1.997,0.071-21.574,2.635-24.347-1.42-1.076-1.559-0.323-5.377-0.563-6.404-0.236-1.027,5.376-2.215,6.247-0.867,0.866,1.339,6.802-0.16,6.882,0.629,0.077,0.79,0.43-2.804,4.825-0.237,0.511,0.303,1.493-0.947,1.579-1.182,0.996-2.988,1.3-2.968,1.605-3.122,0.32-0.16-4.816,0.189-4.736,0.272l-0.274-0.825s-6.462,2.745-13.961,1.649c0,0,0.52-2.021,4.002-0.982,2.607,0.779,2.805-1.433,3.011-1.424,6.808,0.477,8.319-2.061,12.515-1.306,0.546,0.103-2.957-2.409-2.957-2.409l1.271-1.823c-2.716-0.169-4.573,1.207-11.647,2.716-0.67,0.149,0-0.753,0-0.753s-2.409,2.407-6.533,1.86c-0.283-0.04-0.347-0.552-0.347-0.552-1.305,0.48-3.162,2.335-4.538,2.472-1.276,0.126-2.123-0.48-2.123-0.48-5.85,6.324-9.633,6.81-9.839,6.942"/>
<path d="m44.698,79.15c-0.209,0.143-0.518,1.577,1.288,1.379,0.804-0.088-0.203,1.031,1.302,1.511,1.685,0.532,4.956-0.352,5.039,0.758,0.08,1.102-0.503,1.932-0.343,3.228,0.134,1.105,0.832,2.41,0.343,3.025-1.462,1.857-8.545,0.619-8.545,0.619-3.797,1.902-3.969,2.752-4.861,5.228-0.656,1.823-1.306,3.225-1.306,3.225,3.349,0.695,4.118-3.317,4.791-3.987,3.423-3.368,9.561,0.827,9.44,1.514-0.354,2.038-5.225,0.621-5.225,0.621-3.148,3.597-5.829,4.502-7.358,6.459-1.404,1.8-1.954,4.132-1.856,4.132,2.919,0,3.84-0.978,3.917-0.896,0.08,0.075,5.589-7.03,7.632-6.261,6.742,2.547,21.623,0.386,20.676,1.239-2.061,1.86-0.343,3.446-1.233,4.467-0.138,0.158,2.421,0.693,2.977,0.209,0.504-0.443,0.572-1.25,0.893-1.095,0.314,0.154,15.948-1.105,15.948-1.105s2.071-2.267-0.55-3.506c-1.849-0.876-0.881-2.773-0.48-3.365,3.19-4.739,3.145-9.146,3.145-9.146s-0.392,0.203-2.226,1.285c-1.263,0.741-2.708-2.321-3.48-2.292-1.997,0.071-21.574,2.635-24.347-1.42-1.076-1.559-0.323-5.377-0.563-6.404-0.236-1.027,5.376-2.215,6.247-0.867,0.866,1.339,6.802-0.16,6.882,0.629,0.077,0.79,0.43-2.804,4.825-0.237,0.511,0.303,1.493-0.947,1.579-1.182,0.996-2.988,1.3-2.968,1.605-3.122,0.32-0.16-4.816,0.189-4.736,0.272l-0.274-0.825s-6.462,2.745-13.961,1.649c0,0,0.52-2.021,4.002-0.982,2.607,0.779,2.805-1.433,3.011-1.424,6.808,0.477,8.319-2.061,12.515-1.306,0.546,0.103-2.957-2.409-2.957-2.409l1.271-1.823c-2.716-0.169-4.573,1.207-11.647,2.716-0.67,0.149,0-0.753,0-0.753s-2.409,2.407-6.533,1.86c-0.283-0.04-0.347-0.552-0.347-0.552-1.305,0.48-3.162,2.335-4.538,2.472-1.276,0.126-2.123-0.48-2.123-0.48-5.85,6.324-9.633,6.81-9.839,6.942z" stroke="#d1242a" stroke-width="0.049" fill="none"/>
<path fill="#f7de4f" d="m74.191,102.02s6.142,1.628,6.997-0.956c0.314-0.953-6.997,0.956-6.997,0.956"/>
<path d="m74.191,102.02s6.142,1.628,6.997-0.956c0.314-0.953-6.997,0.956-6.997,0.956z" stroke="#f7de4f" stroke-width="0.086" fill="none"/>
<path fill="#231f20" d="m79.659,130.9v-19.823s-0.927-0.157-1.929,0.406c-0.999,0.57-1.414,1.992-1.414,1.992l-1.413-1.992-1.411,2.061-1.413-1.922-1.405,1.989-1.414-1.989-1.413,1.989-1.414-1.989-1.434,2.016-1.394-2.016-1.411,1.989-1.41-1.989-1.417,1.989-1.411-1.989-1.413,1.989-1.414-1.989-1.41,1.989-1.417-1.989-1.409,1.989s-0.415-1.488-1.413-1.989c-1.002-0.507-1.915-0.515-1.915-0.515v19.762s0.913-0.008,1.915-0.509c0.998-0.512,1.413-1.997,1.413-1.997l1.409,1.997,1.417-1.997,1.41,1.997,1.414-1.997,1.413,1.997,1.411-1.997,1.417,1.997,1.41-1.997,1.411,1.997,1.394-2.021,1.434,2.021,1.414-1.997,1.413,1.997,1.414-1.997,1.405,1.997,1.413-1.929,1.411,2.061,1.413-1.994s0.415,1.43,1.414,1.994c1.003,0.559,1.929,0.408,1.929,0.408"/>
</svg>
