<?xml version="1.0" encoding="UTF-8" standalone="no"?>
<!DOCTYPE svg PUBLIC "-//W3C//DTD SVG 1.1//EN" "http://www.w3.org/Graphics/SVG/1.1/DTD/svg11.dtd">
<svg xmlns="http://www.w3.org/2000/svg" version="1.1" viewBox="0 0 200 200" width="200.0pt" height="200.0pt">
<path d="M 0.00 0.00 L 99.95 0.00 C 98.59 4.17 97.22 8.33 95.88 12.51 C 91.42 12.55 86.96 12.52 82.49 12.57 C 86.08 15.24 89.73 17.81 93.28 20.54 C 91.88 24.72 90.51 28.90 89.24 33.12 C 92.83 30.53 96.43 27.93 100.00 25.29 C 103.57 27.93 107.16 30.53 110.78 33.11 C 109.45 28.90 108.06 24.72 106.65 20.54 C 110.22 17.81 113.89 15.23 117.51 12.57 C 113.05 12.52 108.58 12.55 104.12 12.51 C 102.77 8.33 101.41 4.17 100.05 0.00 L 200.00 0.00 L 200.00 200.00 L 104.00 200.00 C 107.48 198.50 110.40 200.15 114.00 199.69 C 119.05 199.09 124.05 196.92 128.38 194.32 C 132.09 191.97 136.41 191.62 140.01 189.00 C 143.96 186.49 146.49 182.91 149.49 179.45 C 152.66 176.86 156.21 175.11 158.75 171.73 C 163.14 166.82 164.42 160.40 169.31 155.86 C 172.82 155.87 176.33 155.87 179.85 155.84 C 179.87 136.88 179.91 117.92 179.82 98.96 C 176.76 98.96 173.70 98.96 170.64 98.96 C 169.21 95.27 167.81 91.78 165.21 88.74 C 163.42 86.54 160.95 84.86 159.43 82.52 C 157.98 80.29 156.77 78.03 154.90 76.10 C 150.46 71.42 144.86 69.27 139.99 64.98 C 135.98 61.53 131.35 59.76 126.63 57.56 C 126.65 53.83 126.65 50.11 126.65 46.38 C 108.90 46.42 91.14 46.32 73.40 46.42 C 73.29 49.75 73.36 53.08 73.36 56.40 C 70.15 57.89 67.12 59.67 63.77 60.86 C 59.13 62.53 55.08 65.27 51.00 68.02 C 45.87 71.55 41.41 75.74 38.34 81.21 C 35.32 87.46 30.53 92.10 28.64 98.97 C 25.82 98.96 23.00 98.96 20.18 98.96 C 20.09 117.92 20.13 136.88 20.15 155.84 C 23.57 155.86 26.98 155.85 30.39 155.95 C 31.71 161.36 33.67 166.50 37.20 170.87 C 39.84 174.35 43.63 176.35 46.37 179.73 C 51.54 185.91 58.02 190.73 66.04 192.37 C 69.30 193.01 71.62 194.88 74.54 196.28 C 78.32 198.17 82.38 199.31 86.54 200.00 L 0.00 200.00 L 0.00 0.00 Z" fill="#ffffff" />
<path d="M 99.95 0.00 L 100.05 0.00 C 101.41 4.17 102.77 8.33 104.12 12.51 C 108.58 12.55 113.05 12.52 117.51 12.57 C 113.89 15.23 110.22 17.81 106.65 20.54 C 108.06 24.72 109.45 28.90 110.78 33.11 C 107.16 30.53 103.57 27.93 100.00 25.29 C 96.43 27.93 92.83 30.53 89.24 33.12 C 90.51 28.90 91.88 24.72 93.28 20.54 C 89.73 17.81 86.08 15.24 82.49 12.57 C 86.96 12.52 91.42 12.55 95.88 12.51 C 97.22 8.33 98.59 4.17 99.95 0.00 Z" fill="#020200" />
<path d="M 100.00 3.57 C 101.11 6.94 102.18 10.31 103.25 13.68 C 106.80 13.70 110.35 13.70 113.89 13.73 C 111.04 15.84 108.17 17.92 105.32 20.03 C 106.42 23.40 107.54 26.77 108.61 30.15 C 105.72 28.09 102.87 25.99 100.00 23.90 C 97.12 25.98 94.25 28.08 91.34 30.14 C 92.42 26.74 93.52 23.36 94.61 19.98 C 91.74 17.90 88.86 15.84 86.02 13.73 C 89.57 13.70 93.12 13.70 96.68 13.69 C 97.23 11.97 97.79 10.24 98.35 8.52 L 98.57 7.84 C 99.05 6.42 99.52 5.00 100.00 3.57 Z" fill="#fff200" />
<path d="M 44.53 15.53 C 46.05 19.67 47.34 23.88 48.72 28.07 C 53.17 28.19 57.63 28.16 62.09 28.18 C 58.53 30.83 54.92 33.42 51.31 36.01 C 52.69 40.24 54.05 44.47 55.40 48.71 C 51.80 46.14 48.20 43.55 44.63 40.93 C 40.96 43.50 37.35 46.16 33.68 48.72 C 35.09 44.49 36.50 40.26 37.85 36.01 C 34.23 33.38 30.61 30.77 27.01 28.14 C 31.49 28.06 35.97 28.12 40.45 28.02 C 41.79 23.85 43.14 19.68 44.53 15.53 Z" fill="#020200" />
<path d="M 155.53 15.56 C 156.91 19.70 158.24 23.86 159.56 28.03 C 164.03 28.21 168.50 28.16 172.98 28.20 C 169.39 30.80 165.80 33.41 162.22 36.03 C 163.58 40.26 164.93 44.49 166.29 48.72 C 162.65 46.14 159.08 43.46 155.40 40.94 C 151.82 43.57 148.22 46.16 144.59 48.71 C 145.96 44.47 147.36 40.24 148.75 36.00 C 145.13 33.39 141.50 30.78 137.92 28.11 C 142.37 28.07 146.82 28.09 151.27 28.08 C 152.66 23.87 154.00 19.69 155.53 15.56 Z" fill="#020200" />
<path d="M 44.67 19.55 C 45.85 22.79 46.86 26.04 47.92 29.33 C 51.49 29.33 55.05 29.33 58.61 29.35 C 55.75 31.42 52.89 33.50 50.01 35.55 C 51.05 38.97 52.16 42.36 53.24 45.76 C 50.35 43.70 47.48 41.61 44.61 39.53 C 41.71 41.60 38.82 43.69 35.93 45.77 C 37.04 42.35 38.14 38.93 39.12 35.48 C 36.23 33.48 33.39 31.43 30.58 29.34 C 34.14 29.33 37.70 29.33 41.26 29.33 C 42.29 26.03 43.31 22.74 44.67 19.55 Z" fill="#fff200" />
<path d="M 155.40 19.67 C 156.83 22.77 157.77 26.06 158.80 29.33 C 162.37 29.33 165.94 29.33 169.50 29.34 C 166.66 31.42 163.81 33.48 160.94 35.51 C 161.93 38.96 163.04 42.36 164.12 45.78 C 161.25 43.71 158.39 41.63 155.53 39.54 C 152.62 41.58 149.73 43.68 146.83 45.75 C 147.92 42.34 149.03 38.94 150.03 35.50 C 147.15 33.49 144.30 31.42 141.46 29.34 C 145.02 29.33 148.59 29.33 152.15 29.33 C 153.19 26.11 154.17 22.82 155.40 19.67 Z" fill="#fff200" />
<path d="M 73.40 46.42 C 91.14 46.32 108.90 46.42 126.65 46.38 C 126.65 50.11 126.65 53.83 126.63 57.56 C 131.35 59.76 135.98 61.53 139.99 64.98 C 144.86 69.27 150.46 71.42 154.90 76.10 C 156.77 78.03 157.98 80.29 159.43 82.52 C 160.95 84.86 163.42 86.54 165.21 88.74 C 167.81 91.78 169.21 95.27 170.64 98.96 C 173.70 98.96 176.76 98.96 179.82 98.96 C 179.91 117.92 179.87 136.88 179.85 155.84 C 176.33 155.87 172.82 155.87 169.31 155.86 C 164.42 160.40 163.14 166.82 158.75 171.73 C 156.21 175.11 152.66 176.86 149.49 179.45 C 146.49 182.91 143.96 186.49 140.01 189.00 C 136.41 191.62 132.09 191.97 128.38 194.32 C 124.05 196.92 119.05 199.09 114.00 199.69 C 110.40 200.15 107.48 198.50 104.00 200.00 L 101.61 200.00 C 101.62 197.48 98.36 198.30 97.49 200.00 L 95.35 200.00 C 94.77 199.37 94.11 198.91 93.36 198.63 C 91.60 198.38 90.32 199.24 88.83 200.00 L 86.54 200.00 C 82.38 199.31 78.32 198.17 74.54 196.28 C 71.62 194.88 69.30 193.01 66.04 192.37 C 58.02 190.73 51.54 185.91 46.37 179.73 C 43.63 176.35 39.84 174.35 37.20 170.87 C 33.67 166.50 31.71 161.36 30.39 155.95 C 26.98 155.85 23.57 155.86 20.15 155.84 C 20.13 136.88 20.09 117.92 20.18 98.96 C 23.00 98.96 25.82 98.96 28.64 98.97 C 30.53 92.10 35.32 87.46 38.34 81.21 C 41.41 75.74 45.87 71.55 51.00 68.02 C 55.08 65.27 59.13 62.53 63.77 60.86 C 67.12 59.67 70.15 57.89 73.36 56.40 C 73.36 53.08 73.29 49.75 73.40 46.42 Z" fill="#020200" />
<path d="M 74.62 47.95 C 91.51 47.94 108.40 47.94 125.29 47.94 C 125.30 65.88 125.32 83.81 125.28 101.75 C 118.27 103.92 111.25 106.05 104.26 108.28 C 102.09 108.86 100.28 109.80 98.02 108.94 C 90.22 106.60 82.47 104.08 74.66 101.79 C 74.55 83.85 74.62 65.89 74.62 47.95 Z" fill="#fff200" />
<path d="M 76.38 49.65 C 92.13 49.33 107.99 49.60 123.75 49.53 C 123.79 66.50 123.75 83.48 123.77 100.45 C 115.86 103.01 107.91 105.47 100.00 108.05 C 93.01 105.62 85.71 103.89 78.92 100.95 C 83.04 101.62 86.83 103.06 90.80 104.27 C 100.77 93.42 110.68 82.50 120.70 71.70 C 121.50 70.68 123.00 69.45 122.92 68.05 C 123.09 62.17 122.98 56.26 122.95 50.38 C 107.95 66.57 92.99 82.81 78.02 99.03 C 78.11 99.62 78.21 100.22 78.30 100.81 C 77.60 100.68 76.90 100.55 76.20 100.43 C 76.21 86.28 76.41 72.14 76.22 58.00 C 76.22 55.23 76.10 52.41 76.38 49.65 Z" fill="#009956" />
<path d="M 89.59 50.47 C 94.83 49.86 100.28 50.39 105.57 50.25 C 96.02 60.50 86.53 70.81 77.02 81.09 C 76.99 75.11 76.99 69.14 77.02 63.16 C 81.29 59.04 85.07 54.29 89.59 50.47 Z" fill="#ffffff" />
<path d="M 122.95 50.38 C 122.98 56.26 123.09 62.17 122.92 68.05 C 123.00 69.45 121.50 70.68 120.70 71.70 C 110.68 82.50 100.77 93.42 90.80 104.27 C 86.83 103.06 83.04 101.62 78.92 100.95 L 78.30 100.81 C 78.21 100.22 78.11 99.62 78.02 99.03 C 92.99 82.81 107.95 66.57 122.95 50.38 Z" fill="#ffffff" />
<path d="M 71.27 58.13 L 71.98 57.70 L 72.70 58.09 L 72.73 58.91 L 72.02 59.35 L 71.30 58.95 L 71.27 58.13 Z" fill="#020200" />
<path d="M 126.55 58.71 C 131.42 60.64 135.96 62.97 140.14 66.17 C 140.67 68.01 141.22 69.84 141.77 71.68 C 138.72 69.36 135.71 67.08 132.37 65.20 C 134.82 68.22 137.70 70.52 140.60 73.09 C 140.44 73.64 140.28 74.18 140.12 74.73 C 142.18 75.90 144.59 77.01 145.96 79.03 C 146.97 80.60 147.61 82.45 148.33 84.16 C 144.70 81.90 141.66 78.90 138.08 76.58 C 141.12 80.50 144.70 83.90 147.35 88.14 C 144.21 85.78 140.58 83.97 137.58 81.46 C 134.67 78.03 132.87 73.72 130.11 70.14 C 132.94 71.38 135.38 72.84 138.56 72.77 C 134.86 70.79 129.93 69.84 126.83 66.97 C 126.37 64.28 126.56 61.43 126.55 58.71 Z" fill="#fff200" />
<path d="M 73.35 59.15 C 73.41 61.13 73.45 63.11 73.49 65.09 C 70.73 67.42 67.87 69.48 64.81 71.41 C 66.89 68.07 68.93 64.56 71.37 61.48 C 72.03 60.70 72.69 59.92 73.35 59.15 Z" fill="#fff200" />
<path d="M 71.34 59.70 C 68.99 62.93 66.96 66.38 64.65 69.63 C 62.51 72.60 59.49 74.08 56.31 75.72 C 58.63 72.90 61.24 70.35 63.44 67.44 C 59.08 70.25 55.85 74.00 52.45 77.85 C 53.15 74.10 53.70 69.20 56.09 66.07 C 60.28 62.69 66.18 60.89 71.34 59.70 Z" fill="#fff200" />
<path d="M 73.46 66.10 C 73.43 67.34 73.39 68.59 73.33 69.84 C 71.09 72.07 68.67 74.06 66.23 76.06 C 67.78 73.38 69.28 70.72 71.33 68.39 C 72.03 67.62 72.74 66.85 73.46 66.10 Z" fill="#fff200" />
<path d="M 53.96 67.25 C 52.09 72.40 52.05 78.03 50.13 83.11 C 48.87 86.28 45.89 87.02 43.21 88.80 C 45.44 84.94 48.00 81.56 49.78 77.48 C 46.57 79.50 44.89 82.46 43.30 85.79 C 43.31 84.36 43.30 82.92 43.30 81.49 C 41.37 82.60 39.43 83.71 37.49 84.80 C 40.51 78.96 44.53 73.78 49.96 70.01 C 51.28 69.08 52.62 68.16 53.96 67.25 Z" fill="#fff200" />
<path d="M 126.63 68.27 C 130.66 71.93 133.48 76.42 135.83 81.29 C 131.87 79.21 129.88 75.57 126.60 72.77 C 126.60 71.27 126.61 69.77 126.63 68.27 Z" fill="#fff200" />
<path d="M 141.58 67.88 C 147.83 71.36 153.54 75.26 157.76 81.16 C 155.79 82.35 155.99 83.33 155.59 85.42 C 154.24 82.03 152.56 79.51 149.44 77.52 C 151.22 81.56 153.72 85.00 156.04 88.75 C 153.93 87.57 151.83 86.39 149.74 85.18 C 148.51 79.73 144.04 76.62 142.60 71.41 C 142.25 70.24 141.91 69.06 141.58 67.88 Z" fill="#fff200" />
<path d="M 68.63 70.22 C 66.75 73.20 65.13 76.34 63.26 79.32 C 60.66 83.48 56.14 85.97 51.97 88.26 C 54.42 83.76 58.17 80.49 61.23 76.48 C 57.70 78.77 54.71 81.75 51.11 83.96 C 52.23 81.75 53.04 79.62 54.92 77.93 C 57.42 75.73 60.94 74.45 63.88 72.89 C 65.47 72.02 67.06 71.13 68.63 70.22 Z" fill="#fff200" />
<path d="M 73.76 71.07 C 73.61 72.78 72.98 74.04 71.87 74.86 C 69.24 77.03 66.48 79.09 63.59 80.88 C 65.58 77.72 68.32 75.55 71.10 73.14 C 71.98 72.44 72.86 71.75 73.76 71.07 Z" fill="#fff200" />
<path d="M 126.56 73.37 C 129.02 76.22 131.07 78.98 132.26 82.63 C 130.36 81.40 128.48 80.14 126.61 78.87 C 126.59 77.03 126.57 75.20 126.56 73.37 Z" fill="#fff200" />
<path d="M 73.90 74.22 C 73.83 79.83 69.39 80.66 65.55 83.51 C 67.10 81.08 68.68 78.80 70.87 76.92 C 71.88 76.02 72.88 75.12 73.90 74.22 Z" fill="#fff200" />
<path d="M 73.35 79.58 C 73.36 86.04 73.35 92.50 73.36 98.96 C 67.29 98.97 61.22 98.92 55.15 99.01 C 56.53 96.98 57.66 94.82 58.88 92.69 C 62.27 87.90 66.05 84.21 71.09 81.16 C 71.84 80.63 72.60 80.11 73.35 79.58 Z" fill="#ffffff" />
<path d="M 66.26 80.62 C 64.61 83.60 62.84 86.47 60.56 89.03 C 60.11 88.57 59.66 88.11 59.21 87.64 C 56.45 89.30 53.56 90.57 50.57 91.75 C 54.84 87.04 60.76 83.74 66.26 80.62 Z" fill="#fff200" />
<path d="M 126.66 80.12 C 127.49 80.70 128.32 81.27 129.15 81.85 C 131.47 83.36 132.87 84.54 134.01 87.14 C 135.38 90.15 137.65 91.84 140.46 93.41 C 141.79 95.33 143.19 97.18 144.68 98.99 C 138.66 98.93 132.65 98.97 126.64 98.96 C 126.66 92.68 126.63 86.40 126.66 80.12 Z" fill="#ffffff" />
<path d="M 132.16 80.13 C 133.17 80.71 134.17 81.28 135.17 81.85 C 140.40 84.49 145.28 86.82 148.64 91.90 C 145.38 90.52 142.22 88.89 138.97 87.48 C 141.80 90.18 145.01 92.20 148.30 94.28 C 146.78 94.26 145.26 94.27 143.74 94.29 C 146.10 95.09 148.49 95.85 150.85 96.65 C 150.05 91.74 147.97 87.39 145.24 83.27 C 148.49 85.62 152.05 87.44 155.39 89.64 C 158.98 92.06 160.82 95.79 162.56 99.61 C 160.78 99.17 159.48 99.21 158.46 97.54 C 156.43 94.84 154.70 92.14 151.74 90.34 C 153.31 93.56 155.38 96.41 157.29 99.43 C 155.75 99.06 154.21 98.65 152.69 98.22 C 152.23 98.41 151.76 98.59 151.30 98.78 C 150.60 98.09 149.91 97.40 149.22 96.70 L 149.16 99.57 C 145.73 99.04 144.18 96.71 141.97 94.36 C 143.09 94.24 144.21 94.13 145.33 94.01 C 142.82 92.95 139.84 92.03 137.66 90.34 C 135.66 88.70 134.49 85.88 133.50 83.54 C 133.05 82.41 132.61 81.27 132.16 80.13 Z" fill="#fff200" />
<path d="M 42.60 82.93 C 41.96 88.82 39.62 94.02 37.07 99.28 C 35.76 99.28 34.45 99.28 33.14 99.27 C 33.71 97.74 34.30 96.21 34.85 94.68 C 33.21 96.64 32.18 98.74 29.69 99.81 C 30.81 95.63 32.60 91.71 35.30 88.32 C 37.19 86.00 40.09 84.47 42.60 82.93 Z" fill="#fff200" />
<path d="M 156.66 82.91 C 163.10 86.68 167.87 92.44 169.59 99.79 C 167.11 98.80 166.09 96.74 164.49 94.81 C 165.04 96.43 165.62 98.04 166.17 99.66 C 164.34 99.12 163.42 99.21 162.57 97.37 C 159.72 92.72 156.93 88.59 156.66 82.91 Z" fill="#fff200" />
<path d="M 53.97 83.17 C 50.36 88.19 49.47 94.28 45.87 99.27 C 44.56 99.27 43.26 99.27 41.95 99.26 C 43.96 96.36 45.97 93.53 47.35 90.26 C 43.47 92.88 41.76 97.02 38.29 100.04 C 39.17 96.99 40.24 93.70 42.06 91.06 C 44.16 88.87 47.32 87.60 49.86 85.94 C 51.24 85.04 52.61 84.11 53.97 83.17 Z" fill="#fff200" />
<path d="M 122.98 86.57 C 123.01 91.01 123.00 95.45 123.00 99.88 C 117.49 101.66 111.97 103.45 106.43 105.14 C 111.91 98.92 117.45 92.74 122.98 86.57 Z" fill="#ffffff" />
<path d="M 60.56 89.03 C 58.09 92.06 56.75 92.79 52.83 93.21 C 55.29 91.31 57.30 89.32 60.56 89.03 Z" fill="#fff200" />
<path d="M 57.48 93.39 C 56.37 95.18 55.26 97.28 53.71 98.73 C 52.40 99.07 51.08 99.32 49.73 99.51 L 50.74 96.78 C 49.30 97.60 47.85 98.42 46.41 99.22 C 47.63 97.77 48.94 96.44 50.34 95.21 C 52.34 93.93 55.20 93.85 57.48 93.39 Z" fill="#fff200" />
<path d="M 138.00 100.36 C 151.39 100.37 164.77 100.34 178.16 100.37 C 178.17 118.32 178.16 136.27 178.16 154.22 C 126.03 154.24 73.91 154.23 21.78 154.23 C 21.77 136.27 21.79 118.32 21.78 100.36 C 39.07 100.39 56.36 100.28 73.66 100.42 L 73.10 102.14 C 56.54 102.07 39.96 102.04 23.40 102.15 C 23.30 118.94 23.39 135.76 23.37 152.56 C 74.40 152.56 125.43 152.58 176.46 152.55 C 176.46 135.73 176.46 118.91 176.46 102.09 C 160.04 102.18 143.60 101.91 127.19 102.23 L 126.02 100.61 C 130.02 100.23 133.94 100.36 138.00 100.36 Z" fill="#fff200" />
<path d="M 23.40 102.15 C 39.96 102.04 56.54 102.07 73.10 102.14 C 77.28 104.44 82.39 105.50 86.94 106.98 C 90.80 108.11 94.58 109.61 98.49 110.50 C 100.73 111.04 103.25 110.05 105.40 109.44 C 112.66 106.96 120.08 105.13 127.19 102.23 C 143.60 101.91 160.04 102.18 176.46 102.09 C 176.46 118.91 176.46 135.73 176.46 152.55 C 125.43 152.58 74.40 152.56 23.37 152.56 C 23.39 135.76 23.30 118.94 23.40 102.15 Z" fill="#065b89" />
<path d="M 36.00 108.09 C 43.15 108.66 50.79 111.03 56.36 115.70 C 60.40 118.97 62.20 124.62 60.48 129.57 C 59.76 131.60 57.81 133.11 56.32 134.59 C 58.67 138.02 60.93 141.51 63.19 144.99 C 59.94 144.82 56.63 144.76 53.41 144.22 C 52.80 144.17 52.28 143.84 51.86 143.24 C 49.43 139.86 47.51 136.30 44.38 133.46 L 43.56 132.58 C 43.44 135.92 43.44 139.26 43.44 142.60 C 42.17 142.51 40.90 142.41 39.63 142.30 C 37.89 142.10 36.15 141.90 34.41 141.71 C 34.44 131.47 34.42 121.22 34.41 110.98 C 34.77 109.42 33.54 107.52 36.00 108.09 Z" fill="#fff200" />
<path d="M 35.22 108.74 C 42.57 109.71 49.88 111.27 55.69 116.21 C 59.33 119.31 61.24 124.11 59.83 128.82 C 59.11 131.37 56.96 132.62 55.04 134.23 C 57.34 137.58 59.64 140.94 61.88 144.33 C 58.88 144.02 55.88 143.71 52.88 143.38 C 49.88 138.74 47.84 134.22 42.71 131.54 C 42.63 134.95 42.64 138.37 42.65 141.79 C 40.17 141.58 37.70 141.36 35.22 141.14 C 35.21 130.34 35.22 119.54 35.22 108.74 Z" fill="#ed1c24" />
<path d="M 162.17 111.93 C 171.67 116.26 172.42 131.36 164.75 137.75 C 158.89 143.54 150.35 143.24 142.73 144.50 L 142.74 143.47 C 150.20 142.58 158.42 142.74 164.17 137.17 C 171.40 131.04 170.81 117.38 162.18 112.78 C 156.59 109.70 148.72 111.61 142.77 112.59 L 142.82 111.63 C 148.93 110.83 156.46 108.95 162.17 111.93 Z" fill="#fff200" />
<path d="M 162.18 112.78 C 170.81 117.38 171.40 131.04 164.17 137.17 C 158.42 142.74 150.20 142.58 142.74 143.47 C 142.83 133.18 142.73 122.88 142.77 112.59 C 148.72 111.61 156.59 109.70 162.18 112.78 Z" fill="#ed1c24" />
<path d="M 66.23 112.56 C 72.93 112.62 80.58 113.19 86.56 116.46 C 90.84 118.72 93.68 123.08 93.69 127.97 C 93.81 134.78 93.66 141.61 93.71 148.43 C 90.56 148.07 87.40 147.71 84.24 147.39 C 84.19 145.21 84.15 143.03 84.11 140.86 C 81.56 140.39 79.00 139.92 76.45 139.45 C 76.45 141.79 76.45 144.13 76.46 146.47 C 73.02 146.17 69.58 145.85 66.14 145.55 C 66.18 134.57 65.93 123.53 66.23 112.56 Z" fill="#fff200" />
<path d="M 127.27 113.28 C 129.77 112.82 132.44 112.75 134.98 112.60 C 132.64 113.22 130.28 113.67 127.89 114.04 C 127.84 124.51 127.91 134.98 127.87 145.46 C 129.34 145.42 130.82 145.38 132.30 145.32 C 130.58 145.71 128.86 146.10 127.14 146.46 C 127.23 135.41 126.92 124.31 127.27 113.28 Z" fill="#fff200" />
<path d="M 134.98 112.60 L 135.22 112.55 L 135.77 112.42 C 136.49 123.02 135.93 133.70 136.10 144.31 C 135.06 144.62 134.02 144.92 132.97 145.21 L 132.30 145.32 C 130.82 145.38 129.34 145.42 127.87 145.46 C 127.91 134.98 127.84 124.51 127.89 114.04 C 130.28 113.67 132.64 113.22 134.98 112.60 Z" fill="#ed1c24" />
<path d="M 135.77 112.42 L 136.75 112.20 C 136.88 123.20 136.81 134.20 136.80 145.20 C 135.52 145.19 134.24 145.20 132.97 145.21 C 134.02 144.92 135.06 144.62 136.10 144.31 C 135.93 133.70 136.49 123.02 135.77 112.42 Z" fill="#fff200" />
<path d="M 66.88 113.30 C 72.96 113.60 79.67 113.87 85.23 116.64 C 89.29 118.68 92.46 122.34 92.80 127.00 C 93.16 133.81 92.82 140.67 92.92 147.49 C 90.27 147.26 87.62 147.01 84.97 146.76 C 84.90 144.60 84.83 142.45 84.77 140.29 C 81.74 139.70 78.72 139.21 75.67 138.78 C 75.70 141.10 75.74 143.42 75.78 145.73 C 72.83 145.45 69.88 145.16 66.93 144.86 C 66.81 134.34 66.88 123.82 66.88 113.30 Z" fill="#ed1c24" />
<path d="M 118.59 116.42 C 124.51 118.71 125.41 127.41 122.13 132.12 C 119.01 136.45 113.36 137.31 108.50 138.32 C 108.50 141.52 108.50 144.72 108.49 147.92 C 105.48 148.22 102.45 148.49 99.43 148.76 C 99.32 137.95 99.40 127.14 99.39 116.33 C 105.67 115.02 112.45 113.77 118.59 116.42 Z" fill="#fff200" />
<path d="M 117.85 117.09 C 123.33 119.08 124.52 127.12 121.51 131.50 C 118.51 135.66 112.39 136.63 107.70 137.56 C 107.70 140.82 107.70 144.08 107.68 147.34 C 105.11 147.51 102.54 147.68 99.97 147.84 C 100.02 137.52 99.98 127.19 99.99 116.87 C 105.65 115.95 112.45 114.59 117.85 117.09 Z" fill="#ed1c24" />
<path d="M 42.86 117.00 C 46.17 117.43 50.30 118.64 52.27 121.55 C 53.63 123.56 53.88 127.02 51.51 128.38 C 48.78 129.67 45.23 127.46 42.73 126.38 C 42.73 123.26 42.62 120.11 42.86 117.00 Z" fill="#fff200" />
<path d="M 43.63 117.64 C 46.20 118.56 49.56 119.43 51.35 121.61 C 52.82 123.36 52.66 125.68 51.36 127.48 C 48.73 128.70 46.14 126.88 43.68 126.04 C 43.63 123.24 43.62 120.44 43.63 117.64 Z" fill="#065b89" />
<path d="M 159.60 119.38 C 162.66 122.00 162.56 127.55 160.70 130.81 C 158.60 134.27 155.05 134.45 151.46 135.08 C 151.43 129.55 151.25 123.99 151.56 118.47 C 154.02 118.24 157.63 117.52 159.60 119.38 Z" fill="#fff200" />
<path d="M 152.38 118.70 C 154.97 119.05 158.46 118.43 160.04 121.06 C 161.65 123.85 161.66 128.04 159.77 130.70 C 157.99 133.14 154.98 133.55 152.29 134.39 C 152.18 129.16 152.13 123.94 152.38 118.70 Z" fill="#065b89" />
<path d="M 75.54 122.12 C 78.49 122.31 81.85 122.71 83.61 125.41 C 84.87 127.47 84.46 130.59 84.59 132.92 C 81.55 132.61 78.53 132.23 75.51 131.78 C 75.48 128.57 75.32 125.33 75.54 122.12 Z" fill="#fff200" />
<path d="M 116.11 124.96 C 116.82 128.09 115.13 129.41 112.32 129.85 C 113.28 129.23 114.20 128.56 115.08 127.83 C 115.92 126.42 115.67 123.68 113.83 123.11 C 112.23 122.38 109.98 123.18 108.27 123.31 C 108.36 125.74 108.47 128.18 108.63 130.61 L 107.60 130.82 C 107.59 128.10 107.56 125.41 107.66 122.70 C 110.62 122.27 115.16 120.87 116.11 124.96 Z" fill="#fff200" />
<path d="M 113.83 123.11 C 115.67 123.68 115.92 126.42 115.08 127.83 C 114.20 128.56 113.28 129.23 112.32 129.85 C 111.10 130.15 109.86 130.36 108.63 130.61 C 108.47 128.18 108.36 125.74 108.27 123.31 C 109.98 123.18 112.23 122.38 113.83 123.11 Z" fill="#065b89" />
<path d="M 76.37 122.76 C 78.21 123.38 80.53 123.69 82.11 124.88 C 83.96 126.50 83.61 129.80 83.84 132.05 C 81.32 131.74 78.80 131.41 76.28 131.07 C 76.29 128.30 76.31 125.53 76.37 122.76 Z" fill="#065b89" />
<path d="M 43.56 132.58 L 44.38 133.46 C 44.36 136.70 44.15 139.90 43.96 143.12 C 42.52 142.84 41.08 142.55 39.63 142.30 C 40.90 142.41 42.17 142.51 43.44 142.60 C 43.44 139.26 43.44 135.92 43.56 132.58 Z" fill="#065b89" />
<path d="M 31.21 155.69 C 34.54 155.66 37.86 155.66 41.19 155.65 C 42.04 157.12 42.88 158.59 43.70 160.07 C 42.55 159.27 41.40 158.45 40.25 157.63 L 40.72 160.35 C 37.59 158.69 34.44 157.14 31.21 155.69 Z" fill="#fff200" />
<path d="M 44.29 155.57 C 49.14 155.66 52.34 154.85 56.03 159.15 L 50.36 156.94 L 53.12 159.92 C 50.57 158.82 48.05 157.03 45.16 157.12 C 48.38 158.88 53.27 160.38 55.34 163.53 C 56.50 166.48 57.39 169.53 58.69 172.44 C 55.51 169.68 52.66 166.93 49.08 164.73 C 53.27 169.33 57.74 173.25 60.38 179.06 C 56.81 177.56 53.71 175.75 50.83 173.16 C 50.23 173.37 49.63 173.58 49.03 173.79 C 46.15 171.25 43.87 168.14 40.85 165.77 C 43.54 170.15 46.99 173.95 49.36 178.55 C 39.88 174.93 34.20 166.62 31.69 157.10 C 35.69 158.62 39.52 160.49 42.96 163.06 C 45.77 164.85 46.66 169.18 48.18 172.01 C 48.48 171.75 48.78 171.48 49.08 171.22 C 46.71 167.19 44.97 162.66 44.28 158.03 C 44.28 157.21 44.28 156.39 44.29 155.57 Z" fill="#fff200" />
<path d="M 53.93 155.86 C 84.39 155.88 114.85 155.85 145.30 155.87 C 142.41 159.97 138.69 162.73 135.02 166.02 C 131.49 169.15 129.96 173.33 125.51 174.49 C 119.28 176.40 112.96 176.98 107.07 180.08 C 106.05 179.38 105.08 178.66 103.97 178.11 C 102.51 178.23 101.07 178.77 99.67 179.19 C 98.43 178.75 97.24 178.28 95.96 177.98 C 94.79 178.57 93.86 179.72 92.92 180.62 C 86.64 176.57 79.78 176.80 73.10 174.09 C 69.06 172.79 67.01 168.02 63.69 165.30 C 60.06 162.34 56.95 159.46 53.93 155.86 Z" fill="#ffffff" />
<path d="M 147.82 155.80 C 150.94 155.44 154.17 155.67 157.29 155.83 C 153.67 157.02 150.29 157.31 147.31 159.89 C 150.16 159.09 152.93 158.06 155.77 157.23 C 154.31 161.68 153.12 166.64 150.69 170.66 C 148.02 174.88 143.34 177.17 138.93 179.11 C 141.70 173.39 146.11 169.28 150.30 164.66 C 147.01 166.81 143.99 169.63 141.01 172.21 C 142.07 169.47 142.83 166.61 143.94 163.89 C 145.75 161.66 147.67 160.27 148.31 157.24 C 146.72 157.88 145.14 158.52 143.55 159.16 C 144.86 158.03 146.18 156.43 147.82 155.80 Z" fill="#fff200" />
<path d="M 158.08 155.71 C 161.50 155.63 164.91 155.62 168.32 155.86 C 165.11 157.00 162.00 158.18 159.06 159.90 L 159.11 157.76 C 157.96 158.57 156.81 159.37 155.65 160.18 C 156.46 158.68 157.26 157.20 158.08 155.71 Z" fill="#fff200" />
<path d="M 165.24 157.75 C 162.51 165.55 158.13 172.57 151.00 177.04 C 153.09 173.02 156.22 169.74 158.43 165.82 C 155.03 168.68 152.40 172.30 148.86 175.04 C 150.45 172.56 152.11 170.18 153.30 167.48 C 154.86 162.36 160.94 160.08 165.24 157.75 Z" fill="#fff200" />
<path d="M 55.44 160.11 C 59.46 163.20 64.14 166.08 66.63 170.63 L 64.15 170.33 C 66.26 172.64 68.45 174.89 70.60 177.17 C 66.70 175.78 62.90 175.22 60.09 171.91 C 57.78 169.41 57.36 166.52 56.47 163.36 C 56.14 162.28 55.80 161.19 55.44 160.11 Z" fill="#fff200" />
<path d="M 143.80 160.32 C 142.31 164.77 142.21 169.30 138.62 172.64 C 136.37 175.10 133.48 175.61 130.38 176.39 C 131.08 176.61 131.78 176.83 132.48 177.05 C 135.67 175.84 138.70 174.47 141.69 172.81 C 139.58 175.96 137.96 179.61 135.48 182.50 C 132.35 185.95 128.13 187.05 123.95 188.72 C 129.71 189.06 133.72 185.21 137.82 181.86 C 142.32 179.07 147.36 177.35 151.66 174.14 C 148.07 179.49 144.66 184.65 139.20 188.29 C 135.11 191.05 130.48 192.08 125.58 192.08 C 130.08 190.38 134.39 190.15 137.64 186.23 C 132.03 189.54 126.03 190.75 119.59 191.08 C 120.93 190.66 122.28 190.25 123.63 189.86 C 123.77 189.52 123.91 189.18 124.05 188.84 L 120.80 188.76 C 124.37 186.45 128.30 184.62 131.65 182.03 C 127.12 183.85 122.98 185.95 117.98 186.17 C 122.87 183.42 125.26 178.89 130.70 177.69 C 130.26 177.34 129.83 176.99 129.39 176.64 C 129.56 175.40 129.73 174.16 129.90 172.93 C 130.62 173.33 131.35 173.73 132.09 174.11 C 133.22 172.54 134.33 170.96 135.35 169.32 C 134.45 170.13 133.55 170.95 132.67 171.79 C 132.25 171.63 131.83 171.46 131.41 171.30 C 134.15 168.40 136.81 165.50 140.00 163.09 C 141.26 162.16 142.52 161.24 143.80 160.32 Z" fill="#fff200" />
<path d="M 66.63 170.63 L 66.90 171.06 L 66.82 170.83 L 66.63 170.63 Z" fill="#fff200" />
<path d="M 66.90 171.06 C 67.94 171.47 70.74 172.19 69.54 173.78 C 67.82 175.06 67.33 172.14 66.90 171.06 Z" fill="#020200" />
<path d="M 57.81 172.83 C 58.99 173.46 60.17 174.09 61.36 174.70 C 64.62 176.33 68.11 177.24 71.47 178.59 C 73.98 179.54 75.90 182.05 77.83 183.88 C 78.32 183.78 78.81 183.67 79.31 183.57 C 75.99 181.27 73.84 178.07 71.53 174.84 C 76.57 176.48 81.73 177.61 86.88 178.86 C 85.24 179.02 83.60 179.19 81.96 179.34 C 86.20 180.54 89.98 182.57 93.76 184.78 C 88.53 185.01 83.29 185.33 78.07 185.67 C 74.54 185.38 71.15 183.11 67.76 182.08 C 70.99 184.56 74.73 186.21 78.07 188.56 C 76.86 188.98 75.65 189.40 74.44 189.80 C 76.26 190.12 78.07 190.50 79.86 190.93 C 73.46 190.93 67.47 189.43 61.89 186.31 C 65.03 190.22 69.20 190.32 73.60 191.99 C 69.69 191.99 65.91 191.44 62.42 189.60 C 55.85 186.45 51.67 179.82 47.62 174.06 C 52.07 177.37 57.27 179.21 61.95 182.04 C 65.66 185.43 68.75 187.36 73.50 189.09 C 74.24 188.86 74.97 188.63 75.71 188.39 C 71.66 187.43 67.90 186.10 64.75 183.29 C 62.55 181.28 61.34 178.71 59.83 176.17 C 59.16 175.05 58.49 173.94 57.81 172.83 Z" fill="#fff200" />
<path d="M 128.15 174.68 C 125.48 178.31 123.27 182.02 119.14 184.18 C 115.53 186.57 110.17 184.70 106.04 184.66 C 108.29 183.33 110.58 182.08 112.95 180.98 C 113.14 180.40 113.33 179.82 113.52 179.24 C 111.14 180.28 108.81 181.40 106.40 182.36 C 112.29 177.06 120.40 177.98 128.15 174.68 Z" fill="#fff200" />
<path d="M 46.86 178.25 C 50.24 179.66 52.48 181.22 53.88 184.80 C 50.73 183.45 48.73 180.98 46.86 178.25 Z" fill="#fff200" />
<path d="M 114.56 178.71 C 115.51 178.47 116.21 178.68 116.65 179.34 C 115.91 180.01 115.02 180.51 113.97 180.83 C 113.59 179.99 113.78 179.28 114.56 178.71 Z" fill="#020200" />
<path d="M 53.88 184.80 L 53.99 184.71 L 54.11 184.80 L 54.02 184.88 L 53.88 184.80 Z" fill="#fff200" />
<path d="M 91.08 185.79 C 93.60 185.66 95.06 187.26 97.13 188.45 C 93.91 188.59 90.71 188.62 87.50 188.99 C 90.22 189.80 92.91 189.91 95.71 190.32 C 89.67 192.59 82.00 190.98 77.02 186.93 C 81.77 187.03 86.37 185.91 91.08 185.79 Z" fill="#fff200" />
<path d="M 108.96 185.81 C 113.42 186.05 117.77 187.01 122.26 186.96 C 117.06 191.27 109.80 192.29 103.45 190.28 C 106.19 189.93 108.93 189.75 111.62 189.06 C 108.67 188.67 105.71 188.57 102.73 188.51 C 104.78 187.19 106.32 185.54 108.96 185.81 Z" fill="#fff200" />
<path d="M 94.71 192.17 C 90.86 194.62 86.88 195.41 82.39 195.81 C 86.43 196.80 89.16 196.57 93.01 195.10 C 93.13 196.01 93.25 196.92 93.36 197.83 C 85.04 200.36 77.67 197.17 70.66 192.90 C 78.76 193.22 86.65 192.67 94.71 192.17 Z" fill="#fff200" />
<path d="M 105.27 192.23 C 113.08 192.67 120.76 193.14 128.60 192.99 C 121.87 197.19 114.73 200.01 106.67 198.21 C 106.79 197.30 106.92 196.38 107.04 195.46 C 110.70 196.64 113.28 196.72 117.03 195.80 C 112.76 195.31 108.84 194.82 105.27 192.23 Z" fill="#fff200" />
<path d="M 101.61 200.00 L 97.49 200.00 C 98.36 198.30 101.62 197.48 101.61 200.00 Z" fill="#ffffff" />
<path d="M 93.36 198.63 C 94.11 198.91 94.77 199.37 95.35 200.00 L 88.83 200.00 C 90.32 199.24 91.60 198.38 93.36 198.63 Z" fill="#ffffff" />
</svg>