<?xml version="1.0" encoding="UTF-8" standalone="no"?>
<svg
   xmlns:dc="http://purl.org/dc/elements/1.1/"
   xmlns:cc="http://creativecommons.org/ns#"
   xmlns:rdf="http://www.w3.org/1999/02/22-rdf-syntax-ns#"
   xmlns:svg="http://www.w3.org/2000/svg"
   xmlns="http://www.w3.org/2000/svg"
   xmlns:sodipodi="http://sodipodi.sourceforge.net/DTD/sodipodi-0.dtd"
   xmlns:inkscape="http://www.inkscape.org/namespaces/inkscape"
   inkscape:version="1.0 (4035a4f, 2020-05-01)"
   sodipodi:docname="264.svg"
   id="svg15337"
   height="200.0pt"
   width="200.0pt"
   viewBox="0 0 200 200"
   version="1.1">
  <metadata
     id="metadata15343">
    <rdf:RDF>
      <cc:Work
         rdf:about="">
        <dc:format>image/svg+xml</dc:format>
        <dc:type
           rdf:resource="http://purl.org/dc/dcmitype/StillImage" />
      </cc:Work>
    </rdf:RDF>
  </metadata>
  <defs
     id="defs15341" />
  <sodipodi:namedview
     inkscape:current-layer="svg15337"
     inkscape:cy="133.33333"
     inkscape:cx="133.33333"
     inkscape:zoom="1.75125"
     showgrid="false"
     id="namedview15339"
     inkscape:window-height="480"
     inkscape:window-width="640"
     inkscape:pageshadow="2"
     inkscape:pageopacity="0"
     guidetolerance="10"
     gridtolerance="10"
     objecttolerance="10"
     borderopacity="1"
     bordercolor="#666666"
     pagecolor="#ffffff" />
  <path
     style="fill:#ffffff;fill-opacity:0"
     id="path15107"
     fill="#ffffff"
     d="M 0.00 0.00 L 200.00 0.00 L 200.00 200.00 L 100.66 200.00 C 121.50 151.85 142.14 103.12 162.85 54.85 C 163.76 52.55 164.88 50.32 165.69 47.97 C 157.98 47.71 149.87 47.85 142.12 47.91 C 142.13 46.38 141.80 44.93 141.13 43.56 C 143.22 42.11 144.11 41.23 143.00 38.59 C 145.63 37.11 147.42 35.22 149.62 33.26 C 152.90 33.54 154.18 30.61 153.04 27.84 C 154.20 25.51 156.50 22.85 158.93 21.76 L 159.06 21.04 C 154.99 18.52 149.70 18.84 147.71 23.78 C 144.89 22.87 144.03 23.71 142.40 25.82 C 142.58 22.44 140.18 20.88 137.01 22.01 L 137.01 23.06 L 136.70 23.53 L 135.59 24.05 C 135.34 25.33 135.50 26.62 136.08 27.91 C 133.35 30.40 129.54 31.58 127.92 27.17 C 129.72 27.66 131.54 27.58 133.38 26.94 L 133.14 25.86 C 133.40 25.37 133.62 24.87 133.82 24.35 C 134.14 24.71 134.59 24.90 135.16 24.91 C 136.07 23.16 137.15 19.07 134.92 17.91 C 133.99 17.70 133.04 17.59 132.07 17.57 C 132.52 15.33 135.13 13.03 133.36 10.52 C 131.58 8.21 127.70 7.45 124.95 8.00 C 121.75 9.10 122.36 12.96 122.66 15.58 C 121.47 15.06 119.79 13.86 118.44 14.43 C 116.73 15.27 116.63 17.52 116.07 19.10 C 114.70 16.95 113.24 15.24 110.49 16.59 C 107.99 18.02 108.44 20.67 109.83 22.72 C 108.60 23.74 107.48 24.63 105.84 24.91 C 104.12 23.96 104.01 21.68 105.22 20.25 C 107.97 16.70 110.57 11.62 108.96 7.06 C 107.64 5.07 105.96 4.60 103.74 4.14 C 103.72 3.00 103.47 1.95 102.97 1.02 C 99.92 -0.70 97.08 0.41 97.26 4.14 C 95.03 4.60 93.38 5.07 92.04 7.05 C 90.44 11.66 93.01 16.65 95.78 20.26 C 96.99 21.68 96.88 23.96 95.16 24.91 C 93.53 24.64 92.41 23.75 91.17 22.73 C 92.54 20.63 93.02 18.04 90.51 16.58 C 87.74 15.24 86.30 16.96 84.92 19.11 C 84.31 17.50 84.32 15.30 82.56 14.43 C 81.21 13.86 79.52 15.07 78.34 15.58 C 78.64 12.95 79.25 9.10 76.05 8.00 C 73.19 7.41 68.67 8.31 67.28 11.15 C 66.24 13.39 68.71 15.85 68.93 17.58 C 67.96 17.59 67.01 17.70 66.08 17.91 C 64.11 19.01 65.01 21.12 65.12 22.93 C 62.26 20.35 58.24 21.78 58.62 25.86 C 57.01 23.72 56.11 22.87 53.28 23.78 C 51.31 18.83 46.00 18.52 41.94 21.04 L 42.06 21.76 C 44.73 22.94 46.09 25.12 47.87 27.30 C 47.68 29.61 46.92 31.24 49.14 32.90 C 53.15 33.08 54.10 37.08 57.89 38.29 C 57.25 41.27 57.34 41.82 59.87 43.55 C 59.20 44.93 58.87 46.38 58.88 47.91 C 51.12 47.84 43.03 47.71 35.31 47.97 C 56.67 98.53 78.72 149.43 100.20 200.00 L 0.00 200.00 L 0.00 0.00 Z" />
  <path
     id="path15109"
     fill="#19140c"
     d="M 102.97 1.02 C 103.47 1.95 103.72 3.00 103.74 4.14 C 105.96 4.60 107.64 5.07 108.96 7.06 C 110.57 11.62 107.97 16.70 105.22 20.25 C 104.01 21.68 104.12 23.96 105.84 24.91 C 107.48 24.63 108.60 23.74 109.83 22.72 C 108.44 20.67 107.99 18.02 110.49 16.59 C 113.24 15.24 114.70 16.95 116.07 19.10 C 116.63 17.52 116.73 15.27 118.44 14.43 C 119.79 13.86 121.47 15.06 122.66 15.58 C 122.36 12.96 121.75 9.10 124.95 8.00 C 127.70 7.45 131.58 8.21 133.36 10.52 C 135.13 13.03 132.52 15.33 132.07 17.57 C 133.04 17.59 133.99 17.70 134.92 17.91 C 137.15 19.07 136.07 23.16 135.16 24.91 C 134.59 24.90 134.14 24.71 133.82 24.35 L 133.67 22.95 C 132.44 23.03 131.21 22.99 129.98 22.82 C 129.03 22.69 127.26 25.00 128.13 25.81 C 129.89 26.56 131.36 25.96 133.14 25.86 L 133.38 26.94 C 131.54 27.58 129.72 27.66 127.92 27.17 C 129.54 31.58 133.35 30.40 136.08 27.91 C 135.50 26.62 135.34 25.33 135.59 24.05 L 136.70 23.53 C 136.70 24.67 136.86 25.78 137.17 26.85 C 139.89 28.39 142.15 26.17 140.57 23.45 C 139.63 23.02 138.44 22.89 137.01 23.06 L 137.01 22.01 C 140.18 20.88 142.58 22.44 142.40 25.82 C 144.03 23.71 144.89 22.87 147.71 23.78 C 149.70 18.84 154.99 18.52 159.06 21.04 L 158.93 21.76 C 156.50 22.85 154.20 25.51 153.04 27.84 C 154.18 30.61 152.90 33.54 149.62 33.26 C 147.42 35.22 145.63 37.11 143.00 38.59 C 144.11 41.23 143.22 42.11 141.13 43.56 C 141.80 44.93 142.13 46.38 142.12 47.91 C 149.87 47.85 157.98 47.71 165.69 47.97 C 164.88 50.32 163.76 52.55 162.85 54.85 C 142.14 103.12 121.50 151.85 100.66 200.00 L 100.20 200.00 C 78.72 149.43 56.67 98.53 35.31 47.97 C 43.03 47.71 51.12 47.84 58.88 47.91 C 58.87 46.38 59.20 44.93 59.87 43.55 C 57.34 41.82 57.25 41.27 57.89 38.29 C 54.10 37.08 53.15 33.08 49.14 32.90 C 46.92 31.24 47.68 29.61 47.87 27.30 C 46.09 25.12 44.73 22.94 42.06 21.76 L 41.94 21.04 C 46.00 18.52 51.31 18.83 53.28 23.78 C 56.11 22.87 57.01 23.72 58.62 25.86 C 58.24 21.78 62.26 20.35 65.12 22.93 C 65.70 24.97 65.29 25.97 64.87 27.94 C 67.30 30.61 72.03 31.53 73.11 27.07 C 71.40 27.41 69.76 27.37 68.20 26.94 L 68.13 25.88 C 69.47 25.95 72.92 26.91 73.20 24.98 C 72.80 24.28 72.34 23.62 71.83 22.99 C 70.42 22.91 68.97 22.89 67.49 22.93 L 67.17 24.28 C 66.82 24.59 66.37 24.78 65.83 24.84 L 65.12 22.93 C 65.01 21.12 64.11 19.01 66.08 17.91 C 67.01 17.70 67.96 17.59 68.93 17.58 C 68.71 15.85 66.24 13.39 67.28 11.15 C 68.67 8.31 73.19 7.41 76.05 8.00 C 79.25 9.10 78.64 12.95 78.34 15.58 C 79.52 15.07 81.21 13.86 82.56 14.43 C 84.32 15.30 84.31 17.50 84.92 19.11 C 86.30 16.96 87.74 15.24 90.51 16.58 C 93.02 18.04 92.54 20.63 91.17 22.73 C 92.41 23.75 93.53 24.64 95.16 24.91 C 96.88 23.96 96.99 21.68 95.78 20.26 C 93.01 16.65 90.44 11.66 92.04 7.05 C 93.38 5.07 95.03 4.60 97.26 4.14 C 97.08 0.41 99.92 -0.70 102.97 1.02 Z" />
  <path
     id="path15111"
     fill="#d0ac44"
     d="M 98.90 1.98 C 99.97 1.40 101.03 1.40 102.10 1.99 C 102.23 3.10 102.33 4.22 102.42 5.35 C 104.38 5.71 107.23 5.76 107.92 8.07 C 108.59 10.34 107.85 14.36 106.18 16.09 C 106.19 13.67 107.76 11.65 107.14 9.00 C 106.73 6.78 104.90 6.59 102.98 6.99 C 102.79 10.70 102.65 14.51 103.00 18.21 C 104.48 18.02 104.77 16.39 106.18 16.09 C 105.87 18.16 103.09 19.79 103.19 22.00 C 102.96 24.18 104.40 26.72 106.91 25.95 C 109.02 25.52 110.10 23.53 111.98 22.91 C 113.74 25.18 114.04 27.80 117.51 28.27 C 121.01 28.81 122.29 26.44 124.95 24.99 C 127.05 26.42 126.81 30.02 129.86 31.17 C 133.26 32.26 135.39 29.89 137.91 28.12 C 139.41 29.82 138.26 32.97 140.75 34.30 C 142.79 35.53 144.62 33.80 146.62 33.40 C 146.41 35.55 142.94 37.27 140.99 37.58 C 138.22 37.15 137.54 34.46 136.53 32.28 C 132.75 34.39 128.69 35.29 125.64 31.42 L 125.27 31.06 C 125.18 29.82 124.77 28.97 124.03 28.50 C 121.65 30.67 119.38 32.37 115.97 31.19 C 113.05 30.70 112.88 28.65 111.85 26.37 L 111.36 26.40 C 109.75 29.40 107.67 31.32 104.07 29.98 C 102.07 29.44 101.81 25.40 100.20 25.27 C 98.63 28.08 98.04 31.03 93.97 30.28 C 91.24 30.01 90.93 27.77 89.24 26.14 C 88.16 28.48 88.05 30.67 85.03 31.19 C 81.56 32.39 79.34 30.65 76.92 28.46 C 75.47 30.13 75.62 32.23 73.29 33.29 C 69.99 35.00 67.46 33.76 64.47 32.28 C 63.42 34.55 62.86 37.00 60.04 37.60 C 58.08 37.25 54.59 35.57 54.38 33.40 C 56.43 33.82 58.15 35.50 60.26 34.32 C 62.75 32.94 61.59 29.82 63.09 28.12 C 65.63 29.89 67.72 32.26 71.14 31.17 C 74.21 29.98 73.93 26.49 76.05 24.97 C 78.69 26.48 80.01 28.78 83.49 28.28 C 86.95 27.80 87.26 25.18 89.02 22.91 C 90.90 23.54 91.98 25.52 94.09 25.95 C 96.59 26.72 98.04 24.18 97.81 22.01 C 97.79 19.83 95.44 18.12 94.57 16.16 C 96.33 15.98 96.35 18.11 98.04 18.16 C 98.34 14.48 98.17 10.70 98.01 7.00 C 96.99 6.77 96.04 6.79 95.15 7.06 C 93.00 8.58 93.99 11.52 94.04 13.70 L 95.09 13.08 L 95.22 12.07 C 95.37 12.44 95.51 12.80 95.64 13.17 C 95.02 13.98 94.66 14.98 94.57 16.16 C 93.16 13.66 92.15 10.10 93.35 7.35 C 94.61 5.68 96.69 5.71 98.58 5.35 C 98.67 4.22 98.77 3.10 98.90 1.98 Z" />
  <path
     id="path15113"
     fill="#14120d"
     d="M 95.15 7.06 C 96.04 6.79 96.99 6.77 98.01 7.00 C 98.17 10.70 98.34 14.48 98.04 18.16 C 96.35 18.11 96.33 15.98 94.57 16.16 C 94.66 14.98 95.02 13.98 95.64 13.17 L 97.00 15.65 C 96.99 13.10 97.03 10.53 96.97 7.97 C 94.37 7.90 94.95 10.32 95.22 12.07 L 95.09 13.08 L 94.04 13.70 C 93.99 11.52 93.00 8.58 95.15 7.06 Z" />
  <path
     id="path15115"
     fill="#1d1c17"
     d="M 102.98 6.99 C 104.90 6.59 106.73 6.78 107.14 9.00 C 107.76 11.65 106.19 13.67 106.18 16.09 C 104.77 16.39 104.48 18.02 103.00 18.21 C 102.65 14.51 102.79 10.70 102.98 6.99 Z" />
  <path
     id="path15117"
     fill="#ececec"
     d="M 96.97 7.97 C 97.03 10.53 96.99 13.10 97.00 15.65 L 95.64 13.17 C 95.51 12.80 95.37 12.44 95.22 12.07 C 94.95 10.32 94.37 7.90 96.97 7.97 Z" />
  <path
     id="path15119"
     fill="#ececec"
     d="M 104.03 7.98 C 105.14 8.01 105.77 8.38 105.93 9.10 C 106.18 10.97 105.73 14.42 104.00 15.41 C 104.02 12.93 103.97 10.46 104.03 7.98 Z" />
  <path
     id="path15121"
     fill="#d0ac44"
     d="M 74.00 9.12 C 75.62 9.00 76.72 9.27 77.17 10.99 C 77.50 13.27 77.13 16.44 76.01 18.48 L 75.03 18.31 C 74.48 16.34 74.09 14.34 73.60 12.35 L 72.40 12.34 C 72.80 14.56 73.49 16.71 73.85 18.93 L 72.97 19.13 C 70.66 18.05 68.50 14.45 68.29 11.91 C 69.13 9.92 72.03 9.18 74.00 9.12 Z" />
  <path
     id="path15123"
     fill="#201c12"
     d="M 102.00 11.01 C 102.11 13.70 103.16 18.79 100.74 20.64 C 98.75 20.41 98.80 17.49 98.75 16.01 C 98.87 14.10 98.45 11.14 99.59 9.57 C 100.56 7.98 102.01 9.87 102.00 11.01 Z" />
  <path
     id="path15125"
     fill="#d0ac44"
     d="M 127.00 9.12 C 128.93 9.18 131.91 9.92 132.68 11.91 C 132.59 14.30 130.91 16.63 129.31 18.32 C 128.68 19.12 127.97 19.32 127.15 18.92 C 127.51 16.70 128.21 14.55 128.59 12.34 L 127.40 12.35 C 126.91 14.34 126.52 16.34 125.97 18.31 L 124.99 18.47 C 123.87 16.44 123.50 13.27 123.83 10.99 C 124.30 9.26 125.35 8.98 127.00 9.12 Z" />
  <path
     id="path15127"
     fill="#cbcbcb"
     d="M 100.07 11.16 L 100.93 11.17 C 101.05 13.67 101.13 16.24 100.86 18.73 L 100.16 18.58 C 99.82 16.17 99.98 13.60 100.07 11.16 Z" />
  <path
     id="path15129"
     fill="#c3a13f"
     d="M 81.96 15.55 C 84.11 17.29 84.17 22.10 81.73 23.78 C 80.59 24.27 79.39 24.34 78.13 23.97 C 78.34 22.99 78.64 22.04 79.03 21.14 C 79.98 20.42 82.23 20.34 82.14 18.89 C 80.66 18.98 79.44 19.83 77.99 20.03 C 75.55 18.37 80.37 15.48 81.96 15.55 Z" />
  <path
     id="path15131"
     fill="#c3a13f"
     d="M 119.04 15.55 C 120.80 15.73 123.37 17.15 123.73 19.00 C 123.28 21.31 120.34 18.69 118.86 18.89 C 118.74 20.35 121.05 20.43 122.01 21.14 C 122.37 22.05 122.66 22.99 122.87 23.97 C 117.38 25.79 115.89 18.51 119.04 15.55 Z" />
  <path
     id="path15133"
     fill="#c7a541"
     d="M 87.11 18.10 C 89.57 15.88 92.50 19.20 90.34 21.36 C 88.13 23.33 85.36 20.41 87.11 18.10 Z" />
  <path
     id="path15135"
     fill="#c7a541"
     d="M 110.24 18.24 C 111.76 16.96 113.59 17.01 114.34 19.04 C 114.88 20.91 113.09 22.56 111.25 21.83 C 109.70 20.93 109.79 19.81 110.24 18.24 Z" />
  <path
     id="path15137"
     fill="#d0ac44"
     d="M 66.21 19.20 C 67.86 18.55 73.04 18.54 71.67 21.48 C 69.85 21.22 67.33 23.20 66.11 22.24 C 66.12 21.23 66.15 20.22 66.21 19.20 Z" />
  <path
     id="path15139"
     fill="#d0ac44"
     d="M 134.81 19.22 C 135.08 20.72 134.88 21.92 134.23 22.80 C 132.61 21.92 131.12 21.69 129.33 21.49 C 127.94 18.53 133.18 18.54 134.81 19.22 Z" />
  <path
     id="path15141"
     fill="#d0ac44"
     d="M 73.38 20.40 C 74.25 19.83 75.10 19.63 75.92 19.81 C 77.98 20.34 78.02 23.65 75.92 24.06 C 73.42 24.56 72.37 22.53 73.38 20.40 Z" />
  <path
     id="path15143"
     fill="#d0ac44"
     d="M 124.22 20.23 C 126.70 18.70 129.11 20.99 127.51 23.49 C 125.04 25.46 122.13 22.75 124.22 20.23 Z" />
  <path
     id="path15145"
     fill="#d0ac44"
     d="M 44.49 21.05 C 47.09 20.65 49.59 20.39 51.26 22.83 C 52.57 24.40 51.92 25.54 51.18 27.20 C 51.97 27.74 52.64 28.36 53.19 29.07 C 53.73 31.64 51.58 32.69 49.43 31.58 C 48.24 29.72 49.21 28.87 50.04 27.21 C 48.01 25.62 45.85 23.20 44.49 21.05 Z" />
  <path
     id="path15147"
     fill="#e3e3e3"
     d="M 84.92 20.29 C 86.29 21.41 88.03 23.48 86.25 25.14 C 84.69 27.81 81.16 27.51 79.05 25.68 C 83.04 24.87 83.79 24.21 84.92 20.29 Z" />
  <path
     id="path15149"
     fill="#e3e3e3"
     d="M 116.08 20.29 C 116.98 23.73 118.16 25.32 121.93 25.51 C 119.19 28.47 114.45 27.11 113.93 23.11 C 114.50 21.90 115.21 20.97 116.08 20.29 Z" />
  <path
     id="path15151"
     fill="#d0ac44"
     d="M 156.52 21.05 C 155.15 23.20 152.99 25.62 150.96 27.21 C 151.43 28.34 152.71 29.62 151.89 30.85 C 151.75 32.37 148.19 32.40 148.02 30.90 C 147.01 28.89 148.52 28.32 149.82 27.20 C 149.07 25.49 148.39 24.38 149.78 22.78 C 151.46 20.32 153.91 20.71 156.52 21.05 Z" />
  <path
     id="path15153"
     fill="#cda943"
     d="M 61.15 23.09 C 63.00 22.66 63.94 23.07 64.45 24.96 C 64.36 26.75 62.69 28.01 61.08 27.07 C 59.48 26.77 59.61 23.38 61.15 23.09 Z" />
  <path
     id="path15155"
     fill="#c9c8c4"
     d="M 65.12 22.93 L 65.83 24.84 C 66.37 24.78 66.82 24.59 67.17 24.28 C 67.44 24.85 67.76 25.38 68.13 25.88 L 68.20 26.94 C 69.76 27.37 71.40 27.41 73.11 27.07 C 72.03 31.53 67.30 30.61 64.87 27.94 C 65.29 25.97 65.70 24.97 65.12 22.93 Z" />
  <path
     id="path15157"
     fill="#c7a441"
     d="M 67.49 22.93 C 68.97 22.89 70.42 22.91 71.83 22.99 C 72.34 23.62 72.80 24.28 73.20 24.98 C 72.92 26.91 69.47 25.95 68.13 25.88 C 67.76 25.38 67.44 24.85 67.17 24.28 L 67.49 22.93 Z" />
  <path
     id="path15159"
     fill="#c7a441"
     d="M 129.98 22.82 C 131.21 22.99 132.44 23.03 133.67 22.95 L 133.82 24.35 C 133.62 24.87 133.40 25.37 133.14 25.86 C 131.36 25.96 129.89 26.56 128.13 25.81 C 127.26 25.00 129.03 22.69 129.98 22.82 Z" />
  <path
     id="path15161"
     fill="#c9a641"
     d="M 137.01 23.06 C 138.44 22.89 139.63 23.02 140.57 23.45 C 142.15 26.17 139.89 28.39 137.17 26.85 C 136.86 25.78 136.70 24.67 136.70 23.53 L 137.01 23.06 Z" />
  <path
     id="path15163"
     fill="#aa8c37"
     d="M 53.18 25.30 C 56.72 22.52 59.79 29.02 57.04 30.80 C 56.03 31.04 55.17 30.77 54.46 29.98 C 54.50 29.38 54.55 28.77 54.58 28.17 C 54.00 27.20 53.27 26.49 53.18 25.30 Z" />
  <path
     id="path15165"
     fill="#aa8c37"
     d="M 146.95 24.93 C 148.93 25.22 146.81 27.34 146.41 28.19 C 146.45 28.78 146.50 29.38 146.55 29.98 C 145.81 30.77 144.95 31.04 143.95 30.81 C 141.38 29.60 143.91 23.13 146.95 24.93 Z" />
  <path
     id="path15167"
     fill="#d5d5d5"
     d="M 59.18 27.18 C 59.73 27.53 60.27 27.88 60.81 28.24 C 61.27 29.68 61.19 31.85 60.08 33.02 C 58.65 34.07 57.68 33.29 56.16 32.90 L 56.24 32.05 C 57.23 31.94 58.14 31.54 58.97 30.83 C 59.05 29.61 59.12 28.40 59.18 27.18 Z" />
  <path
     id="path15169"
     fill="#d5d5d5"
     d="M 141.82 27.18 C 141.88 28.40 141.95 29.61 142.03 30.83 C 142.86 31.54 143.77 31.94 144.76 32.05 L 144.84 32.91 C 143.27 33.25 142.36 34.13 140.92 33.01 C 139.80 31.86 139.73 29.66 140.19 28.24 C 140.73 27.88 141.27 27.53 141.82 27.18 Z" />
  <path
     id="path15171"
     fill="#d3d3d3"
     d="M 100.23 28.01 C 101.12 28.12 101.65 28.80 101.85 30.08 C 100.95 30.40 100.06 30.40 99.17 30.08 C 99.22 29.40 99.57 28.71 100.23 28.01 Z" />
  <path
     id="path15173"
     fill="#b5b5b5"
     d="M 89.10 29.17 C 90.04 28.40 92.04 31.23 89.92 31.10 C 88.78 31.11 88.51 30.47 89.10 29.17 Z" />
  <path
     id="path15175"
     fill="#b5b5b5"
     d="M 111.23 28.98 C 112.14 29.09 112.40 29.73 112.00 30.92 C 109.64 31.50 109.66 30.28 111.23 28.98 Z" />
  <path
     id="path15177"
     fill="#aeaeae"
     d="M 78.72 31.17 C 79.68 32.41 77.01 33.11 76.22 32.82 C 75.83 31.57 77.48 29.91 78.72 31.17 Z" />
  <path
     id="path15179"
     fill="#908d87"
     d="M 122.10 31.12 C 122.99 30.69 124.05 30.67 125.27 31.06 L 125.64 31.42 C 124.96 33.78 121.67 33.38 122.10 31.12 Z" />
  <path
     id="path15181"
     fill="#d0ac44"
     d="M 141.70 39.31 C 142.50 40.43 142.31 41.30 141.13 41.92 C 132.32 38.60 123.38 36.07 113.99 35.04 C 95.70 32.78 77.01 35.18 59.87 41.93 C 57.90 40.81 58.92 39.08 60.73 38.70 C 86.20 28.91 116.41 29.01 141.70 39.31 Z" />
  <path
     id="path15183"
     fill="#b1b1b1"
     d="M 66.69 35.00 C 66.42 35.90 65.63 36.20 64.33 35.91 C 64.02 34.71 66.23 32.75 66.69 35.00 Z" />
  <path
     id="path15185"
     fill="#b1b1b1"
     d="M 136.67 35.91 C 135.37 36.20 134.58 35.90 134.31 35.00 C 134.77 32.75 136.98 34.72 136.67 35.91 Z" />
  <path
     id="path15187"
     fill="#bf9d3e"
     d="M 90.94 35.95 C 92.94 35.71 95.17 35.22 97.16 35.62 C 97.56 37.29 94.86 37.02 93.90 38.02 C 93.71 39.97 98.00 39.31 98.22 41.23 C 96.22 41.31 93.67 42.10 91.80 41.37 C 92.33 38.82 92.20 38.13 90.94 35.95 Z" />
  <path
     id="path15189"
     fill="#bf9d3e"
     d="M 103.34 35.62 C 105.52 35.21 107.88 35.68 110.06 35.95 C 108.80 38.12 108.67 38.83 109.19 41.37 C 107.43 42.08 104.99 41.36 103.08 41.27 C 102.41 39.31 107.47 40.03 107.10 38.02 C 105.75 36.97 104.05 37.34 103.34 35.62 Z" />
  <path
     id="path15191"
     fill="#ba9a3c"
     d="M 86.78 36.32 C 85.97 39.02 86.08 39.59 87.26 41.99 C 83.04 43.96 86.39 38.71 82.88 38.34 C 80.02 38.90 76.95 39.19 74.26 40.30 C 73.50 42.05 74.48 43.22 74.79 44.91 C 73.93 44.99 73.05 45.04 72.17 45.06 C 72.51 42.38 72.48 41.83 70.58 39.88 L 70.94 39.26 C 76.07 38.09 81.52 36.67 86.78 36.32 Z" />
  <path
     id="path15193"
     fill="#c32727"
     d="M 90.96 38.13 C 91.20 39.06 91.11 39.91 90.68 40.69 C 89.09 41.53 87.18 40.86 87.16 38.93 C 86.99 36.73 90.23 36.29 90.96 38.13 Z" />
  <path
     id="path15195"
     fill="#bb9a3c"
     d="M 104.11 38.05 C 104.32 39.18 100.98 40.03 100.09 40.00 C 99.30 39.48 96.61 39.27 96.97 38.05 C 99.81 36.37 101.26 36.49 104.11 38.05 Z" />
  <path
     id="path15197"
     fill="#df2c2d"
     d="M 111.17 37.17 C 113.96 36.38 114.81 40.66 111.92 41.02 C 109.55 41.36 109.25 37.78 111.17 37.17 Z" />
  <path
     id="path15199"
     fill="#c2a03f"
     d="M 114.21 36.31 C 119.48 36.75 124.86 38.06 130.00 39.29 L 130.41 39.86 C 128.52 41.92 128.31 42.36 128.84 45.05 L 126.80 45.01 C 125.54 43.64 128.01 42.12 126.68 40.27 C 124.02 39.13 120.95 38.89 118.12 38.32 C 114.79 38.52 117.62 44.09 113.81 41.98 C 114.11 41.26 114.40 40.54 114.69 39.82 C 114.83 38.73 114.67 37.56 114.21 36.31 Z" />
  <path
     id="path15201"
     fill="#ae9038"
     d="M 83.32 39.71 C 84.82 42.01 81.55 41.86 80.18 42.18 C 78.58 42.30 74.25 44.53 75.06 41.17 C 77.70 40.41 80.56 39.69 83.32 39.71 Z" />
  <path
     id="path15203"
     fill="#b09139"
     d="M 117.68 39.71 C 120.44 39.66 123.31 40.47 125.97 41.16 C 126.50 44.07 123.81 42.75 122.19 42.49 C 120.60 41.91 118.34 42.29 117.23 40.95 L 117.68 39.71 Z" />
  <path
     id="path15205"
     fill="#b2933a"
     d="M 66.85 40.92 C 65.74 43.80 67.51 44.33 67.94 46.79 C 66.94 47.04 65.93 47.23 64.91 47.35 C 64.99 46.23 65.10 45.11 65.26 44.00 C 64.25 43.48 63.48 42.85 62.95 42.13 C 64.28 41.56 65.33 40.81 66.85 40.92 Z" />
  <path
     id="path15207"
     fill="#d92b2c"
     d="M 68.34 41.32 C 70.62 40.09 72.21 42.87 70.69 44.71 C 68.32 45.92 66.37 43.15 68.34 41.32 Z" />
  <path
     id="path15209"
     fill="#d92b2c"
     d="M 131.12 41.06 C 133.70 40.60 134.42 44.32 131.90 44.99 C 129.37 45.41 128.90 41.81 131.12 41.06 Z" />
  <path
     id="path15211"
     fill="#d0ac44"
     d="M 134.22 40.90 C 135.03 41.03 138.01 41.60 137.87 42.66 C 137.07 43.04 136.29 43.46 135.54 43.93 C 135.70 44.94 135.85 45.95 135.98 46.96 C 134.10 46.91 132.73 47.17 130.99 47.84 C 128.46 47.93 125.76 48.14 123.28 47.62 C 108.33 44.17 92.94 44.14 77.98 47.56 C 75.22 48.20 72.21 47.86 69.39 47.89 L 68.79 47.31 C 87.69 41.60 107.89 40.85 127.02 45.94 C 128.62 46.31 130.34 47.15 131.98 47.00 C 134.08 45.42 135.21 43.56 134.22 40.90 Z" />
  <path
     id="path15213"
     fill="#b3943a"
     d="M 61.13 43.07 C 62.07 43.42 62.99 43.79 63.91 44.17 C 64.12 45.29 64.02 46.46 63.62 47.67 C 62.44 47.53 60.89 47.18 60.23 46.12 C 60.52 45.10 60.82 44.08 61.13 43.07 Z" />
  <path
     id="path15215"
     fill="#b3943a"
     d="M 139.87 43.07 C 140.18 44.08 140.48 45.10 140.77 46.12 C 140.11 47.19 138.56 47.52 137.38 47.67 C 136.98 46.46 136.88 45.30 137.08 44.17 C 138.00 43.78 138.93 43.42 139.87 43.07 Z" />
  <path
     id="path15217"
     fill="#d0292a"
     d="M 97.98 46.08 C 104.19 45.66 109.84 46.91 115.91 47.16 L 115.84 47.88 C 105.61 48.08 95.32 48.07 85.09 47.89 L 85.16 47.17 C 89.46 46.98 93.68 46.26 97.98 46.08 Z" />
  <path
     id="path15219"
     fill="#fff200"
     d="M 38.12 49.91 C 58.87 49.50 79.77 49.77 100.55 49.76 L 100.48 51.22 L 100.49 53.28 C 100.48 54.50 100.53 55.71 100.64 56.92 C 100.40 58.34 100.32 59.75 100.41 61.13 L 100.61 62.86 C 87.66 62.95 74.68 62.80 61.74 62.94 C 68.07 78.66 75.48 95.14 82.08 110.89 C 88.24 125.05 94.11 139.40 100.41 153.48 C 100.51 167.11 100.66 181.14 100.33 194.73 C 98.14 191.11 96.85 186.83 95.01 182.99 C 76.11 138.67 57.05 94.25 38.12 49.91 Z" />
  <path
     id="path15221"
     fill="#196bb5"
     d="M 100.55 49.76 C 121.13 49.74 141.80 49.63 162.37 49.81 C 162.77 51.26 161.54 52.72 161.08 54.10 C 141.52 99.86 121.97 145.62 102.38 191.37 C 101.83 192.63 101.33 193.87 100.51 194.98 L 100.33 194.73 C 100.66 181.14 100.51 167.11 100.41 153.48 C 101.04 152.40 101.64 151.29 102.12 150.14 C 114.24 121.88 126.25 93.63 138.38 65.37 C 138.75 64.60 138.99 63.81 139.10 63.00 C 126.30 62.72 113.42 63.00 100.61 62.86 L 100.41 61.13 C 102.25 61.11 104.14 61.22 105.97 60.97 C 106.53 58.52 104.62 59.39 103.09 58.82 C 103.88 56.65 106.89 53.70 105.77 51.41 C 104.00 51.37 102.24 51.43 100.48 51.22 L 100.55 49.76 Z" />
  <path
     id="path15223"
     fill="#242201"
     d="M 76.46 51.49 C 78.34 50.99 80.47 50.80 80.06 53.55 C 78.43 53.41 77.46 52.74 76.42 54.38 C 75.54 56.38 76.04 59.69 78.94 59.08 C 80.06 58.73 80.51 59.40 80.30 61.07 C 77.96 61.29 76.00 61.78 74.57 59.48 C 73.26 57.17 73.41 52.45 76.46 51.49 Z" />
  <path
     id="path15225"
     fill="#211e02"
     d="M 97.32 51.34 C 98.20 51.22 98.86 51.42 99.28 51.93 C 99.26 54.97 99.42 58.04 99.20 61.07 L 97.10 60.99 C 97.04 57.86 96.63 54.39 97.32 51.34 Z" />
  <path
     id="path15227"
     fill="#04111e"
     d="M 100.48 51.22 C 102.24 51.43 104.00 51.37 105.77 51.41 C 106.89 53.70 103.88 56.65 103.09 58.82 C 104.62 59.39 106.53 58.52 105.97 60.97 C 104.14 61.22 102.25 61.11 100.41 61.13 C 100.32 59.75 100.40 58.34 100.64 56.92 C 101.87 56.65 102.65 55.09 102.93 53.98 C 102.59 53.35 101.77 53.11 100.49 53.28 L 100.48 51.22 Z" />
  <path
     id="path15229"
     fill="#030e18"
     d="M 116.12 53.17 C 115.21 53.27 114.30 53.39 113.39 53.53 C 111.88 54.74 111.82 57.42 113.19 58.78 C 114.69 59.33 116.93 58.45 116.03 60.99 C 114.66 61.29 112.60 61.59 111.57 60.39 C 109.32 58.34 109.32 53.69 111.88 51.88 C 113.38 51.02 116.53 50.42 116.12 53.17 Z" />
  <path
     id="path15231"
     fill="#000000"
     d="M 120.51 51.51 C 122.08 51.84 125.25 50.41 125.13 52.84 C 124.31 53.16 123.49 53.49 122.66 53.81 C 122.88 54.76 123.74 55.48 125.25 55.99 C 124.73 56.74 123.81 57.36 122.49 57.87 C 122.50 58.82 122.49 59.77 122.47 60.72 C 121.86 60.94 121.18 60.96 120.45 60.76 C 120.54 57.68 120.48 54.59 120.51 51.51 Z" />
  <path
     id="path15233"
     fill="#1d1b02"
     d="M 85.76 52.08 C 86.44 55.06 87.62 57.98 88.13 60.97 C 84.13 62.20 87.75 58.13 83.22 59.07 C 82.74 60.74 81.95 61.43 80.84 61.15 C 80.57 58.64 81.95 55.91 82.54 53.48 C 82.77 51.50 84.20 50.44 85.76 52.08 Z" />
  <path
     id="path15235"
     fill="#171502"
     d="M 88.90 51.73 C 90.61 51.25 93.23 51.15 94.67 52.37 C 96.42 54.27 96.47 57.85 94.93 59.89 C 93.17 61.56 91.16 61.16 88.94 61.01 C 88.82 57.93 88.93 54.82 88.90 51.73 Z" />
  <path
     id="path15237"
     fill="#c5bb00"
     d="M 91.16 53.10 C 94.77 53.13 94.85 58.62 91.65 59.64 C 90.37 58.34 91.15 54.88 91.16 53.10 Z" />
  <path
     id="path15239"
     fill="#155b9b"
     d="M 100.49 53.28 C 101.77 53.11 102.59 53.35 102.93 53.98 C 102.65 55.09 101.87 56.65 100.64 56.92 C 100.53 55.71 100.48 54.50 100.49 53.28 Z" />
  <path
     id="path15241"
     fill="#9f9700"
     d="M 84.80 54.38 C 85.07 55.20 85.12 56.08 84.98 57.02 C 82.31 58.38 83.46 54.20 84.80 54.38 Z" />
  <path
     id="path15243"
     fill="#03111d"
     d="M 117.20 59.21 C 118.30 58.56 118.98 58.81 119.26 59.99 C 118.98 62.14 115.92 60.89 117.20 59.21 Z" />
  <path
     id="path15245"
     fill="#03121e"
     d="M 125.27 59.20 C 127.16 57.78 128.25 60.91 126.07 61.20 C 125.00 60.84 124.73 60.17 125.27 59.20 Z" />
  <path
     id="path15247"
     fill="#191707"
     d="M 61.74 62.94 C 74.68 62.80 87.66 62.95 100.61 62.86 C 113.42 63.00 126.30 62.72 139.10 63.00 C 138.99 63.81 138.75 64.60 138.38 65.37 C 126.25 93.63 114.24 121.88 102.12 150.14 C 101.64 151.29 101.04 152.40 100.41 153.48 C 94.11 139.40 88.24 125.05 82.08 110.89 C 75.48 95.14 68.07 78.66 61.74 62.94 Z" />
  <path
     id="path15249"
     fill="#ffffff"
     d="M 64.45 64.72 C 70.35 64.82 76.39 64.50 82.26 64.89 C 81.19 66.40 81.01 66.97 81.09 68.86 C 81.99 69.44 82.89 70.03 83.79 70.62 C 83.33 74.35 83.71 78.21 83.09 81.88 C 84.24 84.55 83.40 87.95 83.67 90.83 C 82.53 91.91 80.28 92.01 79.35 93.35 C 78.90 94.21 78.47 95.10 78.06 95.99 L 77.21 95.30 C 73.57 85.97 69.36 76.78 65.47 67.54 C 65.03 66.63 64.69 65.69 64.45 64.72 Z" />
  <path
     id="path15251"
     fill="#ffffff"
     d="M 84.28 65.57 C 87.42 65.92 90.74 65.26 93.80 65.98 C 94.42 65.44 95.09 64.99 95.79 64.63 C 99.64 64.97 103.65 64.39 107.45 64.93 C 105.77 66.98 104.93 69.25 108.23 69.99 L 109.01 70.14 C 108.84 72.38 109.67 75.56 108.42 77.43 C 107.44 76.91 106.43 76.45 105.39 76.04 C 104.36 75.60 103.28 75.24 102.18 74.96 C 101.78 73.46 103.44 72.27 103.93 70.88 C 103.95 69.61 103.33 68.45 102.63 67.43 C 101.10 66.81 98.44 66.81 97.42 68.36 C 96.25 70.77 98.38 72.27 97.83 74.83 C 98.96 74.98 100.00 75.33 100.95 75.88 L 99.20 76.16 C 96.87 74.41 96.45 75.32 94.00 76.09 C 95.40 78.68 95.30 84.03 92.12 85.26 C 92.72 87.23 91.92 87.67 90.84 89.14 C 92.20 90.46 92.40 93.86 91.07 95.20 L 90.50 93.70 L 90.26 91.49 L 87.54 93.18 L 87.87 91.83 L 89.41 91.89 C 89.81 91.00 89.52 90.26 88.53 89.69 L 88.81 89.04 C 89.83 88.69 90.36 87.83 90.38 86.46 C 91.82 84.93 92.54 83.54 92.98 81.51 C 92.60 80.58 92.04 79.70 91.31 78.87 C 92.37 78.93 93.25 79.53 93.97 80.65 C 94.70 77.97 92.47 76.69 93.04 74.01 C 93.24 72.44 92.24 70.64 93.85 69.66 C 92.79 67.48 94.77 68.18 95.74 66.07 C 91.88 66.69 88.04 66.30 84.16 66.56 L 84.28 65.57 Z" />
  <path
     id="path15253"
     fill="#707172"
     d="M 107.45 64.93 C 107.85 65.25 108.26 65.46 108.69 65.55 C 111.71 64.84 115.00 65.19 118.08 65.17 L 118.96 66.04 L 118.24 67.16 C 115.13 67.92 111.33 67.66 108.20 66.94 C 108.83 68.35 108.89 68.61 108.23 69.99 C 104.93 69.25 105.77 66.98 107.45 64.93 Z" />
  <path
     id="path15255"
     fill="#ffffff"
     d="M 119.72 64.94 C 125.20 64.43 131.00 64.86 136.55 64.72 C 132.66 74.78 127.91 84.96 123.80 94.99 C 123.19 95.05 122.70 94.58 122.30 93.58 C 121.49 93.96 120.68 94.33 119.85 94.69 C 117.55 93.50 119.08 89.93 119.29 88.00 C 117.45 84.15 119.01 80.78 118.62 76.86 C 118.95 76.21 119.28 75.56 119.61 74.90 L 118.95 73.44 C 118.83 72.61 118.74 71.77 118.67 70.93 C 119.47 70.29 120.25 69.65 121.00 68.99 C 121.76 67.02 120.64 66.52 119.72 64.94 Z" />
  <path
     id="path15257"
     fill="#9a7a31"
     d="M 101.88 68.11 L 101.67 68.83 L 100.63 69.33 L 99.26 69.03 C 99.20 67.71 100.07 67.40 101.88 68.11 Z" />
  <path
     id="path15259"
     fill="#838484"
     d="M 119.13 68.12 C 119.78 68.24 120.40 68.53 121.00 68.99 C 120.25 69.65 119.47 70.29 118.67 70.93 C 118.74 71.77 118.83 72.61 118.95 73.44 C 117.65 74.29 117.17 75.18 117.51 76.11 C 116.53 74.35 117.21 71.86 116.92 69.89 C 115.13 68.84 112.00 69.60 109.93 69.63 C 112.25 68.01 116.51 70.13 119.13 68.12 Z" />
  <path
     id="path15261"
     fill="#dde0e4"
     d="M 91.80 69.22 C 92.15 71.92 92.30 75.19 91.86 77.86 C 90.94 78.95 88.63 79.37 87.22 79.77 L 87.00 78.34 C 88.08 78.50 89.03 78.37 89.86 77.95 C 90.23 76.52 86.30 76.56 87.00 78.34 C 85.88 78.09 84.90 78.25 84.04 78.84 C 83.43 77.72 84.08 77.04 86.02 76.80 C 85.51 76.29 85.00 75.77 84.50 75.25 C 84.67 73.43 84.62 71.63 84.55 69.81 C 86.18 68.61 89.72 69.43 91.80 69.22 Z" />
  <path
     id="path15263"
     fill="#8d8a7b"
     d="M 99.26 69.03 L 100.63 69.33 C 101.09 70.23 103.29 72.37 101.19 72.70 C 99.64 72.11 99.30 70.50 99.26 69.03 Z" />
  <path
     id="path15265"
     fill="#dde0e4"
     d="M 109.93 69.63 C 112.00 69.60 115.13 68.84 116.92 69.89 C 117.21 71.86 116.53 74.35 117.51 76.11 C 118.42 77.44 117.81 79.47 117.20 80.81 C 117.52 82.66 117.98 83.27 116.43 84.59 L 116.83 83.82 C 115.88 83.16 115.16 82.36 114.66 81.44 C 113.29 80.54 111.87 80.56 110.33 80.26 C 109.64 81.67 108.43 82.45 108.14 84.06 L 107.24 84.22 C 107.54 82.79 107.37 81.33 106.73 79.83 C 107.52 80.21 108.31 80.58 109.10 80.95 C 111.06 78.32 107.49 78.77 106.04 77.96 L 105.30 78.82 C 104.88 78.18 104.46 77.53 104.05 76.89 L 105.39 76.04 C 106.43 76.45 107.44 76.91 108.42 77.43 L 108.85 78.38 C 110.21 78.15 111.14 78.55 111.64 79.58 C 113.63 79.74 115.22 80.18 117.06 79.00 C 116.26 78.06 116.13 77.23 116.68 76.50 C 114.72 75.24 112.49 78.34 109.92 77.21 C 109.96 74.68 109.94 72.16 109.93 69.63 Z" />
  <path
     id="path15267"
     fill="#b18737"
     d="M 96.71 75.92 C 97.00 77.97 97.32 79.95 98.10 81.88 C 98.94 84.42 102.45 86.07 102.72 88.56 C 99.74 89.64 100.34 85.45 97.85 85.90 C 98.54 86.98 99.14 88.05 99.64 89.09 C 98.34 89.07 97.52 88.63 97.20 87.78 C 95.96 84.59 95.85 81.31 95.69 77.94 C 95.67 77.13 96.01 76.46 96.71 75.92 Z" />
  <path
     id="path15269"
     fill="#e1dcbf"
     d="M 101.27 76.11 C 102.19 76.39 103.12 76.65 104.05 76.89 C 104.46 77.53 104.88 78.18 105.30 78.82 C 105.01 79.72 104.45 80.53 103.61 81.25 C 101.86 81.14 101.61 79.91 100.44 79.17 C 99.91 81.18 101.53 82.48 100.65 84.22 C 99.82 81.83 97.67 79.52 97.91 77.01 C 99.07 76.82 100.19 76.52 101.27 76.11 Z" />
  <path
     id="path15271"
     fill="#606161"
     d="M 89.86 77.95 C 89.03 78.37 88.08 78.50 87.00 78.34 C 86.30 76.56 90.23 76.52 89.86 77.95 Z" />
  <path
     id="path15273"
     fill="#acadae"
     d="M 113.96 77.17 L 115.23 76.99 L 115.40 78.16 L 114.10 78.33 L 113.96 77.17 Z" />
  <path
     id="path15275"
     fill="#b7b8b9"
     d="M 84.51 79.85 L 85.83 79.93 L 85.89 80.96 L 84.59 81.01 L 84.51 79.85 Z" />
  <path
     id="path15277"
     fill="#dde0e4"
     d="M 87.35 81.41 C 88.35 80.46 89.52 80.25 90.86 80.77 L 90.26 81.87 C 89.17 81.87 88.30 82.17 87.66 82.78 C 88.89 82.73 90.12 82.70 91.35 82.70 C 91.31 85.26 88.57 85.96 88.81 89.04 L 88.53 89.69 L 87.47 91.72 L 84.77 91.08 C 84.46 88.09 84.59 84.86 84.70 81.85 C 85.59 81.71 86.47 81.56 87.35 81.41 Z" />
  <path
     id="path15279"
     fill="#e8e3c5"
     d="M 105.70 81.09 C 105.88 82.68 106.30 83.88 106.89 85.34 C 106.73 86.59 106.16 86.88 105.20 86.22 C 105.25 85.42 104.18 80.54 105.70 81.09 Z" />
  <path
     id="path15281"
     fill="#bab69e"
     d="M 103.63 81.58 C 104.81 83.15 104.19 85.42 103.95 87.22 C 103.28 87.12 102.85 86.54 102.65 85.49 C 101.11 84.40 101.43 81.59 103.63 81.58 Z" />
  <path
     id="path15283"
     fill="#d9c12d"
     d="M 112.90 83.19 C 113.21 83.97 112.67 84.31 111.28 84.21 C 110.45 85.54 109.66 85.88 108.89 85.26 C 108.13 83.39 111.73 82.91 112.90 83.19 Z" />
  <path
     id="path15285"
     fill="#fbdf34"
     d="M 114.58 84.03 L 116.83 83.82 L 116.43 84.59 C 116.79 85.55 117.16 86.52 117.54 87.48 L 116.02 87.36 C 116.16 89.66 114.32 90.58 114.86 92.99 C 113.92 93.62 113.40 94.44 113.29 95.47 C 111.27 95.52 110.45 91.46 108.65 90.47 C 106.28 91.00 105.81 91.05 106.06 88.40 C 106.61 88.54 107.16 88.67 107.72 88.80 C 109.19 88.22 111.53 85.77 113.00 86.89 C 114.86 87.91 114.91 85.16 114.58 84.03 Z" />
  <path
     id="path15287"
     fill="#ffffff"
     d="M 95.15 83.90 C 95.59 85.60 96.22 87.25 96.59 88.97 C 95.70 90.80 96.32 92.32 95.97 94.18 C 94.96 94.37 93.95 94.44 92.96 94.38 C 93.11 91.85 92.44 88.87 93.41 86.50 C 93.63 85.15 94.21 84.28 95.15 83.90 Z" />
  <path
     id="path15289"
     fill="#c5933c"
     d="M 104.83 88.98 C 105.17 90.02 105.48 91.06 105.76 92.11 C 104.83 94.04 102.79 93.58 101.96 95.92 C 100.52 93.43 99.33 94.84 97.01 94.27 C 97.03 93.16 97.04 92.05 97.05 90.95 C 98.43 90.98 99.53 91.80 100.90 91.96 C 102.33 91.11 103.53 90.00 104.83 88.98 Z" />
  <path
     id="path15291"
     fill="#8f6a2c"
     d="M 100.05 90.12 L 100.85 90.08 L 100.90 90.88 L 100.10 90.92 L 100.05 90.12 Z" />
  <path
     id="path15293"
     fill="#8c7c1c"
     d="M 111.10 90.14 C 112.36 89.61 112.91 89.89 112.76 90.96 L 111.96 91.38 L 111.10 90.98 L 111.10 90.14 Z" />
  <path
     id="path15295"
     fill="#dfc62d"
     d="M 83.21 92.03 C 84.39 91.56 85.09 91.85 85.31 92.89 C 84.91 95.17 82.92 93.18 83.21 92.03 Z" />
  <path
     id="path15297"
     fill="#d6be2c"
     d="M 107.07 92.13 L 107.95 92.20 L 108.62 93.14 L 108.26 94.00 L 107.22 93.86 L 106.71 93.01 L 107.07 92.13 Z" />
  <path
     id="path15299"
     fill="#f2d731"
     d="M 80.78 93.04 L 81.90 93.00 L 81.97 93.94 L 80.88 94.01 L 80.78 93.04 Z" />
  <path
     id="path15301"
     fill="#9c8b20"
     d="M 117.97 93.02 C 118.24 94.25 117.87 95.22 116.85 95.94 C 115.77 95.69 115.24 95.15 115.26 94.33 C 116.24 93.65 117.15 93.22 117.97 93.02 Z" />
  <path
     id="path15303"
     fill="#fbdf34"
     d="M 90.50 93.70 L 91.07 95.20 C 91.81 96.23 91.46 99.29 92.91 99.09 C 92.84 97.94 92.76 96.78 92.69 95.63 C 94.12 94.89 95.22 94.93 95.98 95.76 C 96.10 97.92 95.08 99.54 96.83 101.25 L 96.95 101.97 C 95.93 103.60 97.45 106.25 94.65 106.26 C 94.83 104.71 95.65 103.53 96.22 102.09 C 95.50 101.69 94.77 101.31 94.02 100.98 C 93.63 103.10 94.24 106.54 92.52 108.25 C 92.73 109.81 93.58 111.52 94.09 113.04 C 94.85 114.30 93.59 116.46 92.02 116.18 C 91.82 115.18 92.14 114.17 92.97 113.15 C 92.28 112.72 91.57 112.32 90.84 111.96 C 91.09 114.01 90.46 114.71 88.96 114.06 C 89.41 112.18 88.81 110.59 90.51 109.31 C 90.44 106.34 92.92 105.02 92.07 101.98 C 90.10 103.03 89.25 104.29 88.01 106.07 C 88.44 107.03 88.78 108.03 89.01 109.04 C 88.08 108.73 87.22 108.19 86.44 107.41 C 86.36 105.79 87.72 103.77 88.22 102.21 C 89.34 101.20 90.43 100.36 91.10 98.95 C 89.30 97.95 89.45 95.69 87.76 95.31 C 86.94 96.48 87.11 97.50 88.26 98.38 C 86.71 100.50 85.46 101.71 86.01 104.62 C 84.85 104.30 83.77 103.89 82.75 103.38 C 83.50 102.30 82.37 99.64 80.92 100.01 L 80.02 98.93 C 80.76 97.15 82.28 99.25 82.08 96.05 C 83.48 96.93 84.37 96.98 86.01 96.91 L 85.81 96.13 C 84.76 96.06 84.08 95.71 83.77 95.07 C 84.84 95.42 85.93 95.67 87.03 95.81 C 87.79 94.65 88.94 93.95 90.50 93.70 Z" />
  <path
     id="path15305"
     fill="#f3edcf"
     d="M 106.05 93.91 C 106.12 95.28 106.10 96.64 105.99 98.00 C 105.93 99.52 104.61 100.64 105.00 102.11 C 104.35 102.62 103.76 103.23 103.24 103.93 C 102.85 102.56 102.41 101.21 101.98 99.85 C 101.73 98.11 102.82 97.12 103.43 95.44 C 104.30 94.91 105.17 94.40 106.05 93.91 Z" />
  <path
     id="path15307"
     fill="#fbdf34"
     d="M 109.06 93.73 C 110.38 93.94 111.20 94.89 111.50 96.56 C 113.05 98.15 114.24 97.61 116.02 96.86 C 116.12 97.93 116.16 99.01 116.14 100.09 C 118.05 98.69 118.75 97.65 121.44 98.00 C 120.21 99.47 118.48 100.15 117.76 101.95 C 117.20 101.79 116.63 101.64 116.06 101.49 C 115.11 103.51 115.40 104.70 112.69 105.05 L 112.19 104.14 C 112.94 103.02 113.19 101.99 112.94 101.05 L 112.03 101.17 C 109.59 104.74 113.22 105.91 114.24 108.95 L 115.46 109.68 C 115.36 108.54 114.94 107.43 114.19 106.34 C 115.30 105.54 115.87 104.32 116.97 103.55 C 117.41 105.38 116.97 106.19 115.66 105.98 L 114.71 106.84 C 115.72 107.39 116.75 107.88 117.82 108.31 L 118.00 109.05 C 117.49 109.54 116.96 110.00 116.40 110.42 C 115.93 112.13 115.23 113.83 113.11 113.21 C 113.55 110.32 110.99 107.52 108.78 105.99 C 108.83 103.77 107.98 102.85 106.24 103.22 C 106.48 104.19 106.51 105.11 106.32 105.97 L 105.59 104.38 C 105.82 103.31 105.62 102.56 105.00 102.11 C 106.40 101.71 106.59 99.00 107.08 97.80 C 107.78 98.05 108.26 98.75 108.50 99.91 C 108.93 99.18 109.31 98.44 109.65 97.67 C 109.44 96.35 109.25 95.04 109.06 93.73 Z" />
  <path
     id="path15309"
     fill="#a08f21"
     d="M 121.94 95.20 C 123.26 97.29 120.67 97.63 119.23 96.93 C 118.76 95.96 121.09 94.40 121.94 95.20 Z" />
  <path
     id="path15311"
     fill="#fef8d8"
     d="M 97.96 95.03 C 98.85 95.45 99.70 95.96 100.52 96.54 C 101.24 98.50 100.11 98.89 98.90 100.12 C 99.87 103.85 100.20 106.98 99.54 110.81 L 98.18 110.64 C 97.96 109.43 97.73 108.21 97.49 107.01 C 97.59 105.54 98.46 103.00 96.95 101.97 L 96.83 101.25 C 97.70 99.38 95.92 95.95 97.96 95.03 Z" />
  <path
     id="path15313"
     fill="#85761b"
     d="M 84.16 99.15 C 85.44 98.55 86.00 98.80 85.82 99.89 L 84.97 100.31 L 84.15 99.97 L 84.16 99.15 Z" />
  <path
     id="path15315"
     fill="#564c13"
     d="M 80.92 100.01 C 82.37 99.64 83.50 102.30 82.75 103.38 C 80.77 102.76 80.89 101.84 80.92 100.01 Z" />
  <path
     id="path15317"
     fill="#7b7869"
     d="M 101.98 99.85 C 102.41 101.21 102.85 102.56 103.24 103.93 C 103.76 103.23 104.35 102.62 105.00 102.11 C 105.62 102.56 105.82 103.31 105.59 104.38 L 104.15 104.97 L 102.35 105.01 C 102.39 102.89 100.91 102.36 101.98 99.85 Z" />
  <path
     id="path15319"
     fill="#929292"
     d="M 122.05 99.57 C 121.15 101.56 120.34 103.57 119.62 105.63 L 118.42 105.64 C 118.63 103.89 119.58 98.85 122.05 99.57 Z" />
  <path
     id="path15321"
     fill="#a69321"
     d="M 84.09 105.14 L 84.97 105.12 L 85.00 106.01 L 84.12 106.05 L 84.09 105.14 Z" />
  <path
     id="path15323"
     fill="#dcd7bc"
     d="M 102.35 105.01 L 104.15 104.97 C 103.82 107.37 104.50 109.63 103.76 112.01 C 103.31 113.37 104.60 114.76 104.97 116.08 C 104.08 115.91 103.19 115.68 102.32 115.39 C 102.44 113.99 102.57 112.58 102.68 111.18 C 101.86 109.02 101.28 107.26 102.35 105.01 Z" />
  <path
     id="path15325"
     fill="#d2ba2b"
     d="M 105.23 107.32 C 107.14 107.48 107.36 108.79 106.10 110.19 C 106.20 111.20 106.16 112.11 106.00 112.93 L 105.20 112.94 C 104.52 111.60 105.03 108.86 105.23 107.32 Z" />
  <path
     id="path15327"
     fill="#c1ab27"
     d="M 85.93 108.01 C 85.29 111.43 88.97 110.39 88.05 113.01 C 85.36 113.69 86.36 111.44 84.97 109.89 C 84.65 108.25 84.97 107.62 85.93 108.01 Z" />
  <path
     id="path15329"
     fill="#ffffff"
     d="M 109.07 107.85 C 109.18 109.59 109.00 111.30 108.78 113.01 C 110.60 114.00 112.86 114.93 114.88 115.42 C 110.70 126.10 105.21 138.01 100.79 148.81 L 100.20 148.80 C 95.64 138.03 91.09 127.26 86.39 116.55 C 85.81 114.81 90.09 114.41 89.95 115.94 C 90.48 118.01 92.57 117.20 93.91 116.48 C 96.88 117.76 98.32 116.48 100.97 115.38 C 102.45 116.08 106.08 118.31 106.97 116.01 L 105.47 114.02 L 107.54 114.19 L 108.62 113.17 L 106.72 111.25 C 107.56 110.27 107.74 108.16 109.07 107.85 Z" />
  <path
     id="path15331"
     fill="#f3f3f4"
     d="M 94.77 108.10 C 95.85 108.60 96.82 109.52 97.69 110.84 C 97.42 112.01 97.02 113.15 96.50 114.26 L 95.18 114.02 C 94.88 111.64 93.40 110.47 94.77 108.10 Z" />
  <path
     id="path15333"
     fill="#b8b9bb"
     d="M 110.13 109.08 C 111.00 108.46 112.17 112.47 111.86 113.00 C 109.12 114.01 109.84 110.59 110.13 109.08 Z" />
  <path
     id="path15335"
     fill="#8e8b7a"
     d="M 97.69 110.84 C 98.04 111.22 98.32 111.65 98.53 112.14 C 98.87 111.84 99.22 111.56 99.58 111.29 C 100.49 111.45 101.34 112.03 102.07 112.56 L 99.99 112.94 C 100.15 113.80 100.48 114.61 100.97 115.38 C 98.32 116.48 96.88 117.76 93.91 116.48 C 95.01 115.84 96.25 115.76 96.50 114.26 C 97.02 113.15 97.42 112.01 97.69 110.84 Z" />
</svg>
