<?xml version="1.0" encoding="UTF-8" standalone="no"?>
<svg
   xmlns:dc="http://purl.org/dc/elements/1.1/"
   xmlns:cc="http://creativecommons.org/ns#"
   xmlns:rdf="http://www.w3.org/1999/02/22-rdf-syntax-ns#"
   xmlns:svg="http://www.w3.org/2000/svg"
   xmlns="http://www.w3.org/2000/svg"
   xmlns:sodipodi="http://sodipodi.sourceforge.net/DTD/sodipodi-0.dtd"
   xmlns:inkscape="http://www.inkscape.org/namespaces/inkscape"
   inkscape:version="1.0 (4035a4f, 2020-05-01)"
   sodipodi:docname="278.svg"
   id="svg12646"
   height="200.0pt"
   width="200.0pt"
   viewBox="0 0 200 200"
   version="1.1">
  <metadata
     id="metadata12652">
    <rdf:RDF>
      <cc:Work
         rdf:about="">
        <dc:format>image/svg+xml</dc:format>
        <dc:type
           rdf:resource="http://purl.org/dc/dcmitype/StillImage" />
      </cc:Work>
    </rdf:RDF>
  </metadata>
  <defs
     id="defs12650" />
  <sodipodi:namedview
     inkscape:current-layer="svg12646"
     inkscape:cy="133.33333"
     inkscape:cx="133.33333"
     inkscape:zoom="1.75125"
     showgrid="false"
     id="namedview12648"
     inkscape:window-height="480"
     inkscape:window-width="640"
     inkscape:pageshadow="2"
     inkscape:pageopacity="0"
     guidetolerance="10"
     gridtolerance="10"
     objecttolerance="10"
     borderopacity="1"
     bordercolor="#666666"
     pagecolor="#ffffff" />
  <path
     style="fill:#ffffff;fill-opacity:0"
     id="path12596"
     fill="#ffffff"
     d="M 0.00 0.00 L 98.65 0.00 C 89.21 0.64 80.69 5.75 76.04 14.03 C 69.89 24.69 71.92 38.71 80.80 47.20 C 89.32 55.70 103.04 57.49 113.48 51.50 C 121.56 46.95 127.03 38.30 127.46 29.00 C 127.99 20.18 123.96 11.43 117.04 5.96 C 112.66 2.40 107.37 0.64 101.82 0.00 L 200.00 0.00 L 200.00 200.00 L 100.27 200.00 C 101.74 196.15 103.84 192.38 105.69 188.68 C 125.35 149.68 145.01 110.68 164.68 71.68 C 157.71 63.02 150.67 54.40 143.75 45.70 C 134.03 54.84 120.91 57.57 108.04 58.73 C 94.89 59.65 80.76 58.52 68.44 53.56 C 63.82 51.79 60.04 48.89 56.23 45.82 C 49.19 54.39 42.29 63.08 35.30 71.68 C 55.21 111.12 75.08 150.58 94.98 190.03 C 96.66 193.36 98.39 196.46 99.61 200.00 L 0.00 200.00 L 0.00 0.00 Z" />
  <path
     id="path12598"
     fill="#013375"
     d="M 98.65 0.00 L 101.82 0.00 C 107.37 0.64 112.66 2.40 117.04 5.96 C 123.96 11.43 127.99 20.18 127.46 29.00 C 127.03 38.30 121.56 46.95 113.48 51.50 C 103.04 57.49 89.32 55.70 80.80 47.20 C 71.92 38.71 69.89 24.69 76.04 14.03 C 80.69 5.75 89.21 0.64 98.65 0.00 Z" />
  <path
     id="path12600"
     fill="#f1ac00"
     d="M 109.71 6.25 C 114.77 8.46 118.08 12.41 121.07 16.89 C 118.90 19.27 116.40 22.75 113.02 23.29 C 108.63 23.25 104.53 20.82 100.00 20.99 C 95.47 20.81 91.37 23.26 86.98 23.29 C 83.59 22.77 81.08 19.28 78.91 16.89 C 81.14 13.71 83.23 10.72 86.46 8.45 C 93.19 3.66 102.20 2.78 109.71 6.25 Z" />
  <path
     id="path12602"
     fill="#f1ac00"
     d="M 122.12 19.38 C 122.94 22.79 123.79 26.65 123.21 30.14 C 119.68 34.74 113.33 35.00 108.04 35.44 C 108.69 32.70 109.04 29.09 110.85 26.83 C 112.83 25.38 115.48 24.94 117.52 23.54 C 119.19 22.37 120.63 20.78 122.12 19.38 Z" />
  <path
     id="path12604"
     fill="#f1ac00"
     d="M 77.81 19.29 C 79.88 21.31 81.60 23.43 84.34 24.55 C 85.89 25.31 87.78 25.75 89.14 26.83 C 90.96 29.08 91.31 32.70 91.96 35.43 C 86.80 35.05 80.19 34.71 76.79 30.15 C 76.23 26.62 77.15 22.77 77.81 19.29 Z" />
  <path
     id="path12606"
     fill="#f1ac00"
     d="M 98.91 23.01 C 99.64 32.39 99.59 41.79 98.90 51.17 C 96.18 50.57 93.48 49.92 90.78 49.24 C 94.40 41.39 95.23 32.74 90.96 24.95 C 93.60 24.27 96.25 23.62 98.91 23.01 Z" />
  <path
     id="path12608"
     fill="#f1ac00"
     d="M 101.23 23.00 C 103.84 23.62 106.44 24.28 109.03 24.97 C 104.77 32.74 105.58 41.41 109.22 49.23 C 106.55 49.91 103.87 50.57 101.17 51.17 C 101.79 41.71 101.79 32.47 101.23 23.00 Z" />
  <path
     id="path12610"
     fill="#f1ac00"
     d="M 77.22 34.16 C 81.97 36.48 86.60 37.38 91.86 37.70 C 91.19 41.43 90.21 44.78 88.74 48.27 C 84.54 45.37 80.94 42.08 78.78 37.36 C 78.26 36.29 77.74 35.22 77.22 34.16 Z" />
  <path
     id="path12612"
     fill="#f1ac00"
     d="M 122.76 34.10 C 120.01 40.58 117.09 44.34 111.24 48.27 C 109.79 44.79 108.81 41.43 108.14 37.72 C 111.80 37.33 115.26 37.06 118.76 35.84 C 120.10 35.27 121.44 34.69 122.76 34.10 Z" />
  <path
     id="path12614"
     fill="#013375"
     d="M 56.23 45.82 C 60.04 48.89 63.82 51.79 68.44 53.56 C 80.76 58.52 94.89 59.65 108.04 58.73 C 120.91 57.57 134.03 54.84 143.75 45.70 C 150.67 54.40 157.71 63.02 164.68 71.68 C 145.01 110.68 125.35 149.68 105.69 188.68 C 103.84 192.38 101.74 196.15 100.27 200.00 L 99.61 200.00 C 98.39 196.46 96.66 193.36 94.98 190.03 C 75.08 150.58 55.21 111.12 35.30 71.68 C 42.29 63.08 49.19 54.39 56.23 45.82 Z" />
  <path
     id="path12616"
     fill="#ffffff"
     d="M 56.83 52.14 C 69.62 60.99 84.76 63.29 100.00 63.47 C 115.24 63.29 130.40 60.97 143.19 52.13 C 141.69 54.71 140.36 57.36 139.03 60.03 C 121.69 94.77 104.17 129.41 86.89 164.18 C 71.44 133.53 56.00 102.88 40.55 72.24 C 45.98 65.55 51.33 58.77 56.83 52.14 Z" />
  <path
     id="path12618"
     fill="#007cc1"
     d="M 143.19 52.13 C 148.71 58.73 154.02 65.53 159.46 72.22 C 139.68 111.57 119.82 150.88 100.00 190.21 C 95.61 181.55 91.24 172.87 86.89 164.18 C 104.17 129.41 121.69 94.77 139.03 60.03 C 140.36 57.36 141.69 54.71 143.19 52.13 Z" />
  <path
     id="path12620"
     fill="#a30041"
     d="M 75.03 74.74 C 78.33 77.78 81.41 81.06 84.59 84.21 C 87.78 81.01 90.97 77.83 94.15 74.63 C 97.22 77.70 100.29 80.77 103.37 83.82 C 100.17 87.01 96.99 90.21 93.79 93.38 C 96.97 96.58 100.16 99.78 103.38 102.94 C 100.29 106.01 97.21 109.09 94.15 112.19 C 90.98 108.97 87.78 105.78 84.59 102.58 C 81.40 105.78 78.21 108.97 75.04 112.19 C 71.99 109.08 68.91 106.00 65.81 102.94 C 69.03 99.78 72.21 96.58 75.40 93.39 C 72.21 90.21 69.02 87.01 65.81 83.84 C 68.90 80.82 71.86 77.67 75.03 74.74 Z" />
  <path
     id="path12622"
     fill="#ffffff"
     d="M 133.96 84.58 C 137.76 84.41 138.55 86.61 139.83 89.60 C 141.71 89.19 143.59 88.78 145.47 88.37 C 144.93 89.38 144.38 90.39 143.83 91.41 C 141.49 91.90 139.14 92.41 136.80 92.95 C 138.64 94.07 140.49 95.19 142.31 96.33 C 141.40 96.91 140.61 97.34 139.94 97.63 C 135.92 96.37 132.20 93.95 128.40 92.13 C 129.85 89.72 131.16 85.65 133.96 84.58 Z" />
  <path
     id="path12624"
     fill="#007cc1"
     d="M 134.57 87.35 C 135.23 87.59 135.87 87.89 136.50 88.25 C 136.28 89.71 135.82 91.15 135.43 92.58 C 134.24 91.98 133.06 91.38 131.87 90.78 C 132.75 89.60 133.58 88.44 134.57 87.35 Z" />
  <path
     id="path12626"
     fill="#ffffff"
     d="M 125.50 97.65 C 130.28 98.32 135.07 98.89 139.86 99.48 C 139.46 100.29 139.07 101.10 138.67 101.91 C 137.53 101.87 136.39 101.82 135.24 101.78 C 134.76 102.78 134.28 103.79 133.80 104.79 C 134.84 106.86 135.24 108.29 135.16 110.67 C 131.49 107.46 127.94 103.87 124.75 100.19 C 124.99 99.34 125.24 98.50 125.50 97.65 Z" />
  <path
     id="path12628"
     fill="#007cc1"
     d="M 127.51 100.12 C 129.25 100.51 131.00 100.90 132.74 101.29 C 132.34 102.04 131.94 102.78 131.54 103.53 C 130.20 102.40 128.85 101.26 127.51 100.12 Z" />
  <path
     id="path12630"
     fill="#ffffff"
     d="M 122.34 106.34 C 124.37 104.88 126.18 107.30 127.96 108.12 C 128.75 107.96 129.55 107.79 130.34 107.62 C 131.30 108.73 132.34 109.86 133.10 111.11 C 133.02 113.90 131.16 116.71 130.02 119.20 C 125.97 117.15 121.91 115.12 117.85 113.08 C 119.16 110.90 120.24 107.84 122.34 106.34 Z" />
  <path
     id="path12632"
     fill="#007cc1"
     d="M 124.62 107.77 C 124.65 109.62 124.59 111.46 124.48 113.30 C 123.47 112.78 122.46 112.25 121.45 111.72 C 122.48 110.38 123.54 109.07 124.62 107.77 Z" />
  <path
     id="path12634"
     fill="#007cc1"
     d="M 128.48 110.65 C 131.18 109.98 129.34 114.38 129.23 115.59 C 128.03 115.04 126.83 114.48 125.63 113.92 C 126.54 112.82 127.41 111.61 128.48 110.65 Z" />
  <path
     id="path12636"
     fill="#ffffff"
     d="M 116.74 115.80 C 120.71 117.86 124.70 119.86 128.71 121.85 C 128.25 122.66 127.80 123.47 127.34 124.28 C 123.35 122.24 119.34 120.24 115.33 118.23 C 115.80 117.42 116.27 116.61 116.74 115.80 Z" />
  <path
     id="path12638"
     fill="#ffffff"
     d="M 114.27 120.57 C 115.05 120.95 115.84 121.34 116.62 121.73 C 115.85 123.40 114.90 125.06 114.38 126.82 C 114.81 127.62 115.26 128.41 115.73 129.18 C 116.81 127.24 117.85 125.28 118.88 123.30 C 119.65 123.77 120.43 124.23 121.21 124.69 C 120.34 126.37 119.49 128.06 118.63 129.75 C 119.42 130.17 120.21 130.59 121.00 131.00 C 122.04 128.90 123.10 126.81 124.20 124.74 L 125.75 126.95 C 125.02 129.65 123.43 132.17 122.22 134.68 C 118.22 132.64 114.20 130.63 110.19 128.59 C 111.56 125.92 112.92 123.25 114.27 120.57 Z" />
  <path
     id="path12640"
     fill="#ffffff"
     d="M 110.92 132.66 C 113.85 133.41 116.97 134.87 119.08 137.08 C 120.08 139.91 117.74 143.38 116.67 145.97 C 112.59 143.94 108.53 141.89 104.46 139.84 C 105.91 137.54 107.58 132.45 110.92 132.66 Z" />
  <path
     id="path12642"
     fill="#007cc1"
     d="M 110.48 133.85 C 112.90 135.04 116.07 136.14 117.81 138.27 C 117.57 140.17 116.73 142.09 116.07 143.89 C 112.85 142.26 109.62 140.65 106.40 139.02 C 107.69 137.23 108.97 135.46 110.48 133.85 Z" />
  <path
     id="path12644"
     fill="#ffffff"
     d="M 106.34 142.66 C 104.84 144.57 102.38 146.54 101.88 148.96 C 101.95 150.21 102.60 150.96 103.82 151.21 C 105.78 149.74 107.33 147.70 109.36 146.35 C 112.06 145.25 114.77 148.24 114.08 150.93 C 113.40 154.37 111.01 155.36 107.95 156.18 C 109.35 154.51 111.53 153.02 112.41 150.98 C 113.19 149.54 111.87 147.51 110.11 147.85 C 107.98 149.35 106.18 151.66 103.91 152.87 C 101.08 152.47 99.68 150.22 100.55 147.50 C 101.40 144.48 103.83 143.91 106.34 142.66 Z" />
</svg>
