<?xml version="1.0" encoding="UTF-8" standalone="no"?>
<svg
   xmlns:dc="http://purl.org/dc/elements/1.1/"
   xmlns:cc="http://creativecommons.org/ns#"
   xmlns:rdf="http://www.w3.org/1999/02/22-rdf-syntax-ns#"
   xmlns:svg="http://www.w3.org/2000/svg"
   xmlns="http://www.w3.org/2000/svg"
   xmlns:sodipodi="http://sodipodi.sourceforge.net/DTD/sodipodi-0.dtd"
   xmlns:inkscape="http://www.inkscape.org/namespaces/inkscape"
   inkscape:version="1.0 (4035a4f, 2020-05-01)"
   sodipodi:docname="285.svg"
   id="svg12427"
   height="200.0pt"
   width="200.0pt"
   viewBox="0 0 200 200"
   version="1.1">
  <metadata
     id="metadata12433">
    <rdf:RDF>
      <cc:Work
         rdf:about="">
        <dc:format>image/svg+xml</dc:format>
        <dc:type
           rdf:resource="http://purl.org/dc/dcmitype/StillImage" />
      </cc:Work>
    </rdf:RDF>
  </metadata>
  <defs
     id="defs12431" />
  <sodipodi:namedview
     inkscape:current-layer="svg12427"
     inkscape:cy="133.33333"
     inkscape:cx="133.33333"
     inkscape:zoom="1.75125"
     showgrid="false"
     id="namedview12429"
     inkscape:window-height="480"
     inkscape:window-width="640"
     inkscape:pageshadow="2"
     inkscape:pageopacity="0"
     guidetolerance="10"
     gridtolerance="10"
     objecttolerance="10"
     borderopacity="1"
     bordercolor="#666666"
     pagecolor="#ffffff" />
  <path
     style="fill:#ffffff;fill-opacity:0"
     id="path12201"
     fill="#ffffff"
     d="M 0.00 0.00 L 73.19 0.00 C 71.33 2.93 70.17 6.22 68.01 9.00 C 59.12 22.40 45.54 30.94 30.89 36.89 C 27.08 38.67 22.97 39.56 19.08 41.08 C 18.98 53.98 18.87 67.95 19.13 80.77 C 35.39 96.25 42.78 117.52 48.39 138.69 C 52.01 150.45 57.71 161.96 65.59 171.47 C 72.54 180.38 81.08 187.33 90.34 193.70 C 93.30 195.95 96.97 197.48 99.69 200.00 L 0.00 200.00 L 0.00 0.00 Z" />
  <path
     id="path12203"
     fill="#b59846"
     d="M 73.19 0.00 L 73.85 0.00 C 74.48 0.62 75.19 0.92 75.98 0.89 C 84.65 0.98 93.33 0.79 102.00 0.88 C 103.69 0.92 104.98 0.80 106.49 0.00 L 127.66 0.00 C 130.88 8.09 137.28 15.47 143.45 21.54 C 153.98 31.32 167.09 37.84 181.06 41.01 L 181.28 41.96 C 181.16 54.94 181.33 68.01 181.20 80.99 C 167.59 94.07 159.92 111.42 154.16 129.11 C 151.54 137.58 148.45 146.40 144.23 154.24 C 139.40 163.80 132.60 172.47 124.93 179.93 C 117.27 187.40 108.67 193.59 100.17 200.00 L 99.69 200.00 C 96.97 197.48 93.30 195.95 90.34 193.70 C 81.08 187.33 72.54 180.38 65.59 171.47 C 57.71 161.96 52.01 150.45 48.39 138.69 C 42.78 117.52 35.39 96.25 19.13 80.77 C 18.87 67.95 18.98 53.98 19.08 41.08 C 22.97 39.56 27.08 38.67 30.89 36.89 C 45.54 30.94 59.12 22.40 68.01 9.00 C 70.17 6.22 71.33 2.93 73.19 0.00 Z" />
  <path
     id="path12205"
     fill="#b59846"
     d="M 73.85 0.00 L 106.49 0.00 C 104.98 0.80 103.69 0.92 102.00 0.88 C 93.33 0.79 84.65 0.98 75.98 0.89 C 75.19 0.92 74.48 0.62 73.85 0.00 Z" />
  <path
     style="fill:#ffffff;fill-opacity:0"
     id="path12207"
     fill="#ffffff"
     d="M 127.66 0.00 L 200.00 0.00 L 200.00 200.00 L 100.17 200.00 C 108.67 193.59 117.27 187.40 124.93 179.93 C 132.60 172.47 139.40 163.80 144.23 154.24 C 148.45 146.40 151.54 137.58 154.16 129.11 C 159.92 111.42 167.59 94.07 181.20 80.99 C 181.33 68.01 181.16 54.94 181.28 41.96 L 181.06 41.01 C 167.09 37.84 153.98 31.32 143.45 21.54 C 137.28 15.47 130.88 8.09 127.66 0.00 Z" />
  <path
     id="path12209"
     fill="#e6c777"
     d="M 74.03 1.85 C 90.97 1.73 108.08 1.62 125.02 1.56 C 126.14 1.49 126.89 1.87 127.28 2.70 C 133.21 13.55 141.84 22.93 152.02 29.92 C 160.48 35.75 169.93 39.50 179.80 42.17 C 180.24 53.72 179.83 65.42 180.00 77.00 C 179.88 78.25 180.34 80.39 179.23 81.25 C 165.51 94.56 157.49 113.97 151.90 131.92 C 147.79 145.40 141.97 158.04 133.13 169.11 C 125.33 178.79 115.46 187.10 105.48 194.47 C 103.70 195.69 101.96 197.20 99.98 198.07 C 96.86 196.75 94.04 194.62 91.22 192.77 C 80.33 185.46 70.60 176.74 62.97 166.01 C 57.68 158.65 53.94 150.61 50.81 142.13 C 47.94 132.80 45.59 123.16 41.87 114.11 C 37.04 101.32 29.79 89.58 20.23 79.79 C 19.84 75.24 20.19 70.58 20.07 66.00 C 20.20 58.08 19.83 50.08 20.25 42.19 C 23.51 40.64 27.15 40.03 30.42 38.43 C 46.82 32.09 62.33 21.80 71.23 6.25 C 72.15 4.90 72.65 2.73 74.03 1.85 Z" />
  <path
     id="path12211"
     fill="#ffffff"
     d="M 77.25 9.33 C 92.40 9.28 107.58 9.27 122.73 9.33 C 128.37 17.58 134.39 25.45 142.32 31.69 C 143.24 32.63 145.20 33.52 145.26 34.94 C 145.30 47.97 145.25 61.00 145.28 74.03 C 145.35 74.91 145.15 75.76 144.69 76.57 C 141.81 76.59 138.95 76.49 136.08 76.66 C 135.85 70.84 135.89 64.90 136.04 59.07 C 136.65 58.71 137.28 58.36 137.91 58.02 C 137.67 56.10 137.90 54.19 137.80 52.27 C 134.03 52.98 132.14 51.37 129.51 49.01 C 129.32 47.29 129.93 45.86 128.34 44.68 C 126.53 43.37 125.73 42.32 124.60 40.44 C 120.97 37.81 116.33 35.96 113.33 32.61 C 111.37 31.84 108.09 31.99 106.75 30.12 C 107.34 28.13 108.89 27.20 107.94 24.98 C 106.78 21.29 106.59 17.59 103.94 14.57 C 100.16 12.08 95.22 11.37 91.65 14.60 L 91.03 15.22 C 90.75 17.27 90.23 19.28 89.89 21.32 C 92.47 23.41 89.28 25.37 92.35 27.09 L 90.33 27.39 C 90.69 28.54 91.16 29.67 91.72 30.76 C 89.94 31.67 88.34 32.85 86.65 33.90 C 83.78 31.74 80.78 30.06 77.70 28.28 C 74.48 26.26 69.79 26.84 66.18 27.26 C 66.35 28.23 66.75 28.99 67.39 29.54 C 69.67 31.28 71.80 33.33 74.30 34.74 C 76.64 35.49 79.15 36.12 81.24 37.51 C 79.51 38.72 77.61 39.73 75.99 41.09 C 75.83 42.04 75.56 42.95 75.18 43.82 C 73.15 44.91 70.51 46.98 69.05 48.75 C 68.89 50.23 68.86 51.77 68.95 53.38 C 67.03 53.65 64.70 52.25 63.07 53.02 C 62.69 55.48 61.75 59.15 64.62 60.41 C 64.80 65.77 64.53 71.29 64.76 76.68 C 61.30 76.45 57.79 76.61 54.33 76.57 C 53.94 75.73 53.75 74.89 53.77 74.03 C 53.76 62.02 53.79 50.01 53.76 38.00 C 53.88 36.57 53.37 34.68 54.81 33.77 C 62.59 28.12 69.53 21.87 74.59 13.59 C 75.47 12.19 76.17 10.58 77.25 9.33 Z" />
  <path
     id="path12213"
     fill="#e6c777"
     d="M 103.94 14.57 C 101.82 14.50 100.12 15.76 98.03 15.76 C 95.87 15.74 94.25 16.04 92.27 16.86 L 91.65 14.60 C 95.22 11.37 100.16 12.08 103.94 14.57 Z" />
  <path
     id="path12215"
     fill="#b59846"
     d="M 91.03 15.22 L 91.65 14.60 L 92.27 16.86 C 94.25 16.04 95.87 15.74 98.03 15.76 C 100.12 15.76 101.82 14.50 103.94 14.57 C 106.59 17.59 106.78 21.29 107.94 24.98 C 108.89 27.20 107.34 28.13 106.75 30.12 C 108.09 31.99 111.37 31.84 113.33 32.61 C 116.33 35.96 120.97 37.81 124.60 40.44 C 125.73 42.32 126.53 43.37 128.34 44.68 C 129.93 45.86 129.32 47.29 129.51 49.01 L 128.94 50.11 C 126.56 48.71 124.43 46.98 121.62 48.64 C 120.20 49.31 117.77 51.27 116.78 49.01 C 119.59 47.33 123.69 46.61 126.91 45.74 C 126.22 43.65 123.71 44.09 121.98 44.00 C 119.77 43.75 119.01 45.53 117.08 46.02 C 117.66 42.67 120.01 42.59 122.44 41.00 C 121.06 39.07 118.26 38.03 116.27 36.77 C 114.56 35.52 112.90 36.19 110.92 36.07 C 111.21 35.14 111.53 34.23 111.88 33.33 C 108.85 33.08 107.65 32.46 105.40 30.53 C 105.17 31.29 104.94 32.05 104.70 32.81 C 103.92 34.75 103.79 36.91 103.27 38.94 C 102.05 41.50 100.73 43.80 100.43 46.70 C 99.02 45.52 98.60 43.90 97.66 42.39 C 95.60 38.79 92.54 36.72 92.76 32.18 L 92.17 32.16 C 91.73 34.40 91.93 36.19 92.42 38.38 C 92.14 42.13 95.71 43.97 96.12 47.77 L 95.29 48.23 C 93.41 45.48 92.04 42.10 89.77 39.67 C 87.32 39.95 86.26 37.82 84.59 36.40 C 83.03 34.69 80.37 34.49 78.82 33.00 L 78.99 32.09 C 81.85 32.78 84.48 33.86 86.74 35.79 L 86.65 33.90 C 88.34 32.85 89.94 31.67 91.72 30.76 C 91.16 29.67 90.69 28.54 90.33 27.39 L 92.35 27.09 C 89.28 25.37 92.47 23.41 89.89 21.32 C 90.23 19.28 90.75 17.27 91.03 15.22 Z" />
  <path
     id="path12217"
     fill="#e6c777"
     d="M 94.34 18.29 C 97.01 17.65 99.95 18.96 102.83 18.37 L 103.35 19.00 C 102.90 19.76 101.82 20.15 100.10 20.17 L 100.12 21.07 C 101.33 21.12 102.54 21.13 103.76 21.10 C 103.77 24.33 103.52 25.85 101.34 28.26 C 102.11 31.85 103.06 38.15 99.94 40.81 C 98.02 39.94 96.33 36.65 94.94 34.93 C 94.84 32.98 95.65 30.88 96.06 28.99 C 94.19 25.05 93.63 22.73 94.34 18.29 Z" />
  <path
     id="path12219"
     fill="#b59846"
     d="M 95.00 20.12 C 95.98 19.53 96.94 19.55 97.87 20.17 C 99.09 22.61 93.85 22.63 95.00 20.12 Z" />
  <path
     id="path12221"
     fill="#b59846"
     d="M 97.34 25.32 C 98.11 24.64 99.00 24.58 100.01 25.16 C 101.85 27.61 95.94 27.84 97.34 25.32 Z" />
  <path
     id="path12223"
     fill="#e6c777"
     d="M 66.18 27.26 C 69.79 26.84 74.48 26.26 77.70 28.28 C 80.78 30.06 83.78 31.74 86.65 33.90 L 86.74 35.79 C 84.48 33.86 81.85 32.78 78.99 32.09 L 78.82 33.00 C 80.37 34.49 83.03 34.69 84.59 36.40 C 86.26 37.82 87.32 39.95 89.77 39.67 C 92.04 42.10 93.41 45.48 95.29 48.23 C 95.48 48.79 95.66 49.35 95.81 49.91 C 95.13 52.33 92.15 51.69 90.24 52.04 C 87.69 50.33 89.49 46.78 86.28 46.12 C 86.74 47.47 87.54 48.72 87.84 50.10 C 88.15 52.07 85.77 52.99 84.66 54.34 C 79.81 54.12 75.06 53.44 70.23 53.07 C 69.95 51.74 70.63 49.31 69.05 48.75 C 70.51 46.98 73.15 44.91 75.18 43.82 L 75.76 45.11 C 77.46 47.26 81.46 47.29 83.99 47.94 C 83.88 46.46 81.95 45.58 80.89 44.79 L 80.08 44.82 C 80.58 44.31 80.93 43.75 81.13 43.13 C 80.21 42.58 79.28 42.06 78.34 41.54 C 79.16 40.38 81.73 38.79 83.13 39.86 C 87.82 41.11 89.34 47.32 93.05 50.05 L 94.08 50.04 C 91.35 45.18 87.76 39.73 82.93 36.70 C 82.35 36.93 81.79 37.20 81.24 37.51 C 79.15 36.12 76.64 35.49 74.30 34.74 C 71.80 33.33 69.67 31.28 67.39 29.54 C 66.75 28.99 66.35 28.23 66.18 27.26 Z" />
  <path
     id="path12225"
     fill="#e6c777"
     d="M 105.40 30.53 C 107.65 32.46 108.85 33.08 111.88 33.33 C 111.53 34.23 111.21 35.14 110.92 36.07 C 112.90 36.19 114.56 35.52 116.27 36.77 C 118.26 38.03 121.06 39.07 122.44 41.00 C 120.01 42.59 117.66 42.67 117.08 46.02 C 119.01 45.53 119.77 43.75 121.98 44.00 C 123.71 44.09 126.22 43.65 126.91 45.74 C 123.69 46.61 119.59 47.33 116.78 49.01 C 117.77 51.27 120.20 49.31 121.62 48.64 C 124.43 46.98 126.56 48.71 128.94 50.11 C 129.46 50.68 129.83 51.31 130.06 51.98 C 128.82 53.07 126.55 52.86 125.00 53.10 C 121.87 53.26 119.04 54.25 115.97 54.00 C 113.62 53.28 111.40 51.67 108.95 51.17 C 107.65 51.39 106.39 51.77 105.10 51.98 C 105.58 50.54 108.32 50.24 109.53 49.40 C 109.70 48.64 109.49 47.87 108.89 47.09 C 107.06 48.10 105.66 49.72 103.63 50.58 C 102.82 52.21 102.38 54.02 101.65 55.69 C 100.09 56.89 99.37 54.52 98.95 53.43 C 99.58 53.49 100.21 53.55 100.84 53.60 C 103.57 49.73 103.71 45.57 105.22 41.35 L 105.87 41.07 C 106.04 42.02 106.22 42.96 106.39 43.91 C 108.18 42.79 108.88 39.92 109.80 38.09 C 108.87 38.33 107.94 38.58 107.01 38.84 C 106.49 38.29 106.18 37.70 106.08 37.05 C 106.59 36.06 107.21 35.13 107.76 34.16 C 106.90 34.32 106.03 34.48 105.16 34.64 L 104.70 32.81 C 104.94 32.05 105.17 31.29 105.40 30.53 Z" />
  <path
     id="path12227"
     fill="#e6c777"
     d="M 92.17 32.16 L 92.76 32.18 C 92.54 36.72 95.60 38.79 97.66 42.39 C 98.60 43.90 99.02 45.52 100.43 46.70 C 100.73 43.80 102.05 41.50 103.27 38.94 L 104.75 39.07 C 102.71 42.90 102.06 46.80 100.63 50.81 C 99.39 49.71 98.64 46.82 97.37 46.28 C 97.04 46.92 96.62 47.42 96.12 47.77 C 95.71 43.97 92.14 42.13 92.42 38.38 C 91.93 36.19 91.73 34.40 92.17 32.16 Z" />
  <path
     id="path12229"
     fill="#b59846"
     d="M 104.70 32.81 L 105.16 34.64 C 106.03 34.48 106.90 34.32 107.76 34.16 C 107.21 35.13 106.59 36.06 106.08 37.05 C 106.18 37.70 106.49 38.29 107.01 38.84 C 107.94 38.58 108.87 38.33 109.80 38.09 C 108.88 39.92 108.18 42.79 106.39 43.91 C 106.22 42.96 106.04 42.02 105.87 41.07 L 105.22 41.35 C 103.71 45.57 103.57 49.73 100.84 53.60 C 100.21 53.55 99.58 53.49 98.95 53.43 C 99.37 54.52 100.09 56.89 101.65 55.69 C 102.38 54.02 102.82 52.21 103.63 50.58 C 105.66 49.72 107.06 48.10 108.89 47.09 C 109.49 47.87 109.70 48.64 109.53 49.40 C 108.32 50.24 105.58 50.54 105.10 51.98 C 106.39 51.77 107.65 51.39 108.95 51.17 C 111.40 51.67 113.62 53.28 115.97 54.00 C 119.04 54.25 121.87 53.26 125.00 53.10 C 126.55 52.86 128.82 53.07 130.06 51.98 C 129.83 51.31 129.46 50.68 128.94 50.11 L 129.51 49.01 C 132.14 51.37 134.03 52.98 137.80 52.27 C 137.90 54.19 137.67 56.10 137.91 58.02 C 137.28 58.36 136.65 58.71 136.04 59.07 C 135.89 64.90 135.85 70.84 136.08 76.66 C 129.74 77.06 123.35 76.74 117.00 76.84 C 99.61 76.73 82.14 77.05 64.76 76.68 C 64.53 71.29 64.80 65.77 64.62 60.41 C 61.75 59.15 62.69 55.48 63.07 53.02 C 64.70 52.25 67.03 53.65 68.95 53.38 C 69.46 53.48 69.88 53.38 70.23 53.07 C 75.06 53.44 79.81 54.12 84.66 54.34 C 85.42 54.73 86.20 55.05 87.00 55.32 C 87.54 55.00 88.07 54.66 88.59 54.31 C 90.98 55.56 94.33 54.84 96.98 54.97 C 96.76 51.95 92.02 53.28 89.99 52.94 L 90.24 52.04 C 92.15 51.69 95.13 52.33 95.81 49.91 C 95.66 49.35 95.48 48.79 95.29 48.23 L 96.12 47.77 C 96.62 47.42 97.04 46.92 97.37 46.28 C 98.64 46.82 99.39 49.71 100.63 50.81 C 102.06 46.80 102.71 42.90 104.75 39.07 L 103.27 38.94 C 103.79 36.91 103.92 34.75 104.70 32.81 Z" />
  <path
     id="path12231"
     fill="#e6c777"
     d="M 89.06 35.21 C 90.09 34.71 91.42 36.86 90.81 37.70 C 89.78 38.24 88.31 36.06 89.06 35.21 Z" />
  <path
     id="path12233"
     fill="#b59846"
     d="M 82.93 36.70 C 87.76 39.73 91.35 45.18 94.08 50.04 L 93.05 50.05 C 89.34 47.32 87.82 41.11 83.13 39.86 C 81.73 38.79 79.16 40.38 78.34 41.54 C 79.28 42.06 80.21 42.58 81.13 43.13 C 80.93 43.75 80.58 44.31 80.08 44.82 C 78.65 45.00 77.21 45.10 75.76 45.11 L 75.18 43.82 C 75.56 42.95 75.83 42.04 75.99 41.09 C 77.61 39.73 79.51 38.72 81.24 37.51 C 81.79 37.20 82.35 36.93 82.93 36.70 Z" />
  <path
     id="path12235"
     fill="#ffffff"
     d="M 48.56 38.25 C 48.49 50.99 48.56 63.78 48.52 76.52 C 41.79 76.61 35.05 76.52 28.31 76.58 C 27.93 75.74 27.75 74.89 27.77 74.03 C 27.79 65.35 27.74 56.67 27.70 47.98 C 27.57 46.80 27.95 46.04 28.81 45.71 C 33.62 44.47 38.34 42.98 42.79 40.74 C 44.69 39.97 46.52 38.52 48.56 38.25 Z" />
  <path
     id="path12237"
     fill="#ffffff"
     d="M 150.88 38.01 C 156.40 40.83 161.78 43.76 167.83 45.36 C 169.33 46.00 171.61 46.05 172.75 47.17 C 172.84 56.78 172.79 66.40 172.78 76.00 L 172.03 76.50 C 165.13 76.38 157.58 76.93 150.82 76.22 C 150.30 67.32 150.74 57.98 150.60 49.00 C 150.75 45.40 150.24 41.53 150.88 38.01 Z" />
  <path
     id="path12239"
     fill="#b59846"
     d="M 119.06 39.96 C 119.35 41.44 115.11 42.19 114.02 42.06 C 114.12 40.61 117.91 38.21 119.06 39.96 Z" />
  <path
     id="path12241"
     fill="#90721c"
     d="M 75.76 45.11 C 77.21 45.10 78.65 45.00 80.08 44.82 L 80.89 44.79 C 81.95 45.58 83.88 46.46 83.99 47.94 C 81.46 47.29 77.46 47.26 75.76 45.11 Z" />
  <path
     id="path12243"
     fill="#90721c"
     d="M 86.28 46.12 C 89.49 46.78 87.69 50.33 90.24 52.04 L 89.99 52.94 L 88.59 54.31 C 88.07 54.66 87.54 55.00 87.00 55.32 C 86.20 55.05 85.42 54.73 84.66 54.34 C 85.77 52.99 88.15 52.07 87.84 50.10 C 87.54 48.72 86.74 47.47 86.28 46.12 Z" />
  <path
     id="path12245"
     fill="#b59846"
     d="M 36.98 47.98 C 41.86 46.60 47.05 52.20 45.96 56.94 C 44.68 57.00 43.41 56.97 42.14 56.87 C 41.35 55.95 41.13 54.54 40.16 53.80 C 38.80 52.48 36.56 53.07 35.66 54.63 C 33.99 57.47 34.16 61.64 35.36 64.65 C 36.11 66.30 38.60 67.41 40.07 66.12 C 41.44 65.19 41.20 62.62 42.46 61.72 C 43.89 61.90 46.02 60.89 46.37 62.91 C 46.09 65.74 44.98 68.87 42.56 70.57 C 40.78 72.18 37.64 71.82 35.48 71.38 C 29.74 68.52 29.02 61.66 29.99 56.00 C 30.61 52.46 33.19 48.56 36.98 47.98 Z" />
  <path
     id="path12247"
     fill="#e6c777"
     d="M 38.93 49.16 C 42.10 49.67 44.61 52.47 44.71 55.68 C 42.81 56.01 42.30 53.99 41.07 52.91 C 38.98 50.69 35.66 51.89 34.28 54.31 C 32.56 57.78 32.45 62.99 34.79 66.20 C 36.55 68.60 40.54 68.89 41.83 65.86 C 42.62 64.87 43.13 62.34 44.85 63.14 C 44.94 66.14 42.50 70.43 39.02 70.26 C 36.55 70.41 34.69 69.84 33.20 67.80 C 30.33 63.78 30.31 57.70 32.35 53.32 C 33.50 50.75 36.13 49.11 38.93 49.16 Z" />
  <path
     id="path12249"
     fill="#90721c"
     d="M 69.05 48.75 C 70.63 49.31 69.95 51.74 70.23 53.07 C 69.88 53.38 69.46 53.48 68.95 53.38 C 68.86 51.77 68.89 50.23 69.05 48.75 Z" />
  <path
     id="path12251"
     fill="#b59846"
     d="M 80.26 49.25 C 80.89 48.91 83.94 48.36 83.61 49.72 C 82.66 50.59 80.43 51.49 79.22 50.87 C 78.95 50.28 79.30 49.74 80.26 49.25 Z" />
  <path
     id="path12253"
     fill="#b59846"
     d="M 155.16 49.22 C 159.51 49.27 164.13 48.85 168.41 49.45 C 168.20 50.91 169.09 53.69 167.72 54.62 C 165.13 54.71 162.45 54.37 159.89 54.68 C 159.73 56.15 159.76 57.58 159.98 58.98 C 162.35 58.92 164.70 58.82 167.07 58.96 C 167.24 60.57 167.31 62.35 166.95 63.93 C 164.69 64.27 162.33 64.03 160.05 64.09 C 159.42 67.12 160.23 70.44 159.62 73.47 C 158.20 73.52 156.78 73.54 155.36 73.51 C 154.72 72.98 154.47 72.15 154.61 71.03 C 154.68 64.02 154.57 57.00 154.65 49.99 L 155.16 49.22 Z" />
  <path
     id="path12255"
     fill="#e6c777"
     d="M 156.13 51.00 C 158.97 50.46 164.08 50.37 166.87 51.05 C 167.33 52.48 167.03 53.14 165.96 53.05 C 163.73 53.26 161.45 53.03 159.22 53.30 C 157.96 54.33 157.94 58.88 159.06 59.96 C 161.31 60.19 163.59 60.05 165.85 60.21 C 165.97 61.02 165.95 61.84 165.77 62.68 C 163.49 62.96 160.47 62.28 158.44 63.37 C 158.23 65.89 158.45 68.45 158.27 70.99 C 158.24 72.02 157.53 72.33 156.13 71.90 C 155.92 64.98 155.93 57.93 156.13 51.00 Z" />
  <path
     id="path12257"
     fill="#e6c777"
     d="M 89.99 52.94 C 92.02 53.28 96.76 51.95 96.98 54.97 C 94.33 54.84 90.98 55.56 88.59 54.31 L 89.99 52.94 Z" />
  <path
     id="path12259"
     fill="#e6c777"
     d="M 110.99 54.89 C 109.03 55.05 107.01 55.06 105.06 54.89 C 106.15 52.42 109.90 52.61 110.99 54.89 Z" />
  <path
     id="path12261"
     fill="#e6c777"
     d="M 100.91 57.86 C 101.80 57.61 102.69 57.38 103.59 57.18 C 103.07 58.10 102.50 58.99 101.96 59.90 C 105.62 60.18 109.23 60.06 112.86 60.01 C 112.79 59.38 112.37 58.87 111.62 58.47 C 115.89 58.00 117.45 59.77 122.00 59.28 C 126.22 59.38 130.65 58.94 134.79 59.12 C 135.11 64.37 135.13 70.59 134.79 75.83 C 133.89 76.05 132.97 76.16 132.02 76.15 C 112.68 76.10 93.34 76.14 74.00 76.13 C 71.41 76.11 68.72 76.30 66.16 75.93 C 65.73 70.72 65.95 65.28 66.12 60.05 C 77.29 59.89 88.91 60.25 100.10 60.01 C 99.64 59.35 99.16 58.70 98.63 58.05 L 98.57 57.77 C 98.39 56.99 100.73 57.65 100.91 57.86 Z" />
  <path
     id="path12263"
     fill="#04642c"
     d="M 68.89 63.20 C 71.45 63.34 74.06 63.02 76.59 63.35 C 76.57 63.96 76.52 64.58 76.45 65.19 C 74.56 65.28 72.14 64.49 70.53 65.58 C 69.86 69.69 77.03 64.96 76.06 68.94 C 74.44 69.30 72.10 68.54 70.73 69.46 C 70.70 70.10 70.69 70.74 70.71 71.37 C 72.75 71.59 74.78 71.22 76.81 71.51 L 76.74 73.31 C 74.05 73.46 71.31 73.36 68.61 73.35 C 68.23 70.22 68.70 67.00 68.36 63.84 L 68.89 63.20 Z" />
  <path
     id="path12265"
     fill="#04642c"
     d="M 82.16 63.14 C 83.38 62.95 84.15 63.20 84.47 63.89 C 84.38 66.41 84.31 68.95 84.41 71.47 C 86.20 71.57 87.94 71.17 89.71 71.56 L 89.67 73.31 C 87.21 73.34 84.42 73.60 82.02 73.20 C 81.90 69.92 81.67 66.38 82.16 63.14 Z" />
  <path
     id="path12267"
     fill="#04642c"
     d="M 99.00 63.13 C 101.10 62.70 104.46 64.27 103.73 66.78 C 101.55 67.05 101.14 64.57 99.01 64.92 C 95.53 65.10 95.71 71.63 99.12 71.65 C 101.65 72.05 101.29 68.98 103.74 69.23 C 104.90 73.02 98.88 74.88 96.32 72.68 C 92.41 70.22 94.00 62.77 99.00 63.13 Z" />
  <path
     id="path12269"
     fill="#04642c"
     d="M 109.46 63.30 C 110.20 63.19 110.93 63.15 111.66 63.19 C 111.95 64.62 111.03 66.77 112.98 67.26 C 114.05 67.38 115.03 67.28 115.92 66.96 C 116.22 65.77 116.36 64.50 116.32 63.17 C 117.09 63.16 117.85 63.19 118.60 63.28 C 118.50 66.64 118.68 70.03 118.47 73.38 C 117.80 73.42 117.12 73.43 116.43 73.42 C 115.99 71.96 116.52 70.54 116.12 69.04 C 114.73 68.97 113.32 68.98 111.89 69.09 C 111.36 70.47 111.96 71.99 111.56 73.43 C 110.88 73.44 110.21 73.42 109.54 73.38 C 109.38 70.03 109.51 66.66 109.46 63.30 Z" />
  <path
     id="path12271"
     fill="#04642c"
     d="M 124.33 63.27 C 127.05 63.26 129.89 63.01 132.57 63.42 C 133.28 66.30 127.95 64.52 126.49 65.45 C 126.13 69.73 132.73 64.93 131.99 68.93 C 130.25 69.14 128.60 68.98 126.84 69.01 L 126.33 70.03 C 127.04 72.87 130.55 70.66 132.69 71.57 L 132.64 73.31 C 130.08 73.51 127.51 73.28 124.94 73.41 L 124.32 72.81 C 124.39 69.63 124.36 66.45 124.33 63.27 Z" />
  <path
     id="path12273"
     fill="#c5112e"
     d="M 33.08 84.29 C 34.72 84.38 36.36 84.44 38.00 84.42 C 81.56 84.34 125.17 84.55 168.71 84.32 C 159.63 95.58 153.69 108.58 149.35 122.29 L 148.84 122.82 C 116.69 122.84 84.31 122.86 52.16 122.81 L 51.56 122.44 C 47.73 110.52 42.75 97.88 35.23 87.76 C 34.58 86.68 32.90 85.62 33.08 84.29 Z" />
  <path
     id="path12275"
     fill="#90721c"
     d="M 91.12 86.14 C 97.31 86.23 103.55 85.99 109.73 86.26 C 109.81 87.13 109.84 88.00 109.83 88.89 C 109.02 90.31 107.50 90.69 108.30 92.55 C 109.07 92.77 109.83 93.01 110.59 93.27 C 111.04 93.88 111.51 94.47 112.00 95.05 C 113.86 92.17 114.69 92.65 117.90 92.91 L 118.37 93.67 C 117.21 93.62 116.06 93.58 114.91 93.55 C 113.51 94.41 113.98 96.14 112.00 96.12 C 110.28 96.45 110.29 94.24 109.08 93.48 C 106.34 93.38 106.63 94.83 104.99 96.30 C 102.88 96.54 102.79 95.67 101.80 94.18 C 99.69 92.87 98.86 94.43 97.85 96.00 C 94.09 97.54 95.88 93.04 91.91 93.49 C 91.16 94.23 90.50 95.07 89.92 96.01 C 86.97 96.68 87.71 95.02 86.07 93.54 C 84.98 93.44 83.96 93.56 83.02 93.90 C 82.94 94.97 82.93 96.05 83.00 97.14 C 84.48 97.82 86.39 97.35 88.00 97.42 C 98.11 97.10 108.26 97.53 118.36 97.31 L 117.97 97.90 C 116.40 98.11 114.84 98.18 113.26 98.29 C 112.87 100.83 115.03 103.68 115.80 106.07 C 113.10 105.05 113.70 108.08 116.10 106.84 L 116.45 107.74 C 113.96 108.44 111.48 108.25 108.94 108.29 C 108.45 108.89 108.60 109.64 109.39 110.55 C 111.83 110.62 114.27 110.55 116.71 110.61 C 116.96 109.73 117.13 108.83 117.22 107.90 C 119.70 108.93 122.00 110.65 124.37 111.96 C 123.49 114.06 124.96 114.80 126.70 113.86 C 126.62 113.25 126.00 112.66 124.84 112.08 C 125.81 112.15 126.78 112.23 127.75 112.33 C 128.49 114.96 128.32 118.10 127.86 120.78 C 109.64 121.03 91.32 120.92 73.09 120.84 C 72.30 118.76 72.64 116.17 72.64 113.96 C 72.53 112.03 74.88 112.05 76.18 111.45 C 79.90 110.52 82.42 108.13 85.46 105.93 L 86.13 106.80 C 89.98 106.50 92.98 108.33 96.71 106.13 C 97.40 107.33 98.18 107.92 99.04 107.92 C 99.72 105.30 97.71 105.77 96.01 105.30 C 92.51 104.36 89.50 105.45 86.06 105.50 C 86.80 102.93 88.26 100.88 87.76 98.14 C 85.92 98.16 83.90 98.35 82.10 97.96 C 81.92 96.34 81.92 94.68 82.09 93.06 C 83.59 92.86 86.38 92.22 87.58 93.24 C 87.93 94.06 88.40 94.66 89.00 95.03 C 90.32 93.37 90.45 92.99 92.68 92.49 C 93.98 90.94 91.54 90.18 90.97 88.95 C 90.95 88.00 91.00 87.06 91.12 86.14 Z" />
  <path
     id="path12277"
     fill="#e6c777"
     d="M 91.97 86.96 C 94.18 87.75 94.54 88.02 96.82 87.32 C 98.95 88.35 100.04 86.53 102.16 87.90 C 102.81 87.66 103.45 87.39 104.09 87.09 C 104.72 87.38 105.36 87.68 106.00 87.97 C 106.97 87.42 107.92 87.13 108.86 87.12 L 108.89 88.79 C 103.28 88.78 97.63 88.58 92.03 88.92 L 91.97 86.96 Z" />
  <path
     id="path12279"
     fill="#e6c777"
     d="M 94.22 90.30 C 98.41 90.18 102.62 90.23 106.82 90.26 C 107.87 92.83 105.24 92.17 104.63 94.70 C 104.07 94.43 103.54 93.75 103.03 92.67 C 101.35 92.50 99.65 92.52 97.96 92.62 C 97.40 93.83 96.85 94.56 96.30 94.79 C 95.73 92.37 93.23 92.51 94.22 90.30 Z" />
  <path
     id="path12281"
     fill="#e6c777"
     d="M 83.02 93.90 C 83.96 93.56 84.98 93.44 86.07 93.54 C 87.71 95.02 86.97 96.68 89.92 96.01 C 90.50 95.07 91.16 94.23 91.91 93.49 C 95.88 93.04 94.09 97.54 97.85 96.00 C 98.86 94.43 99.69 92.87 101.80 94.18 C 102.79 95.67 102.88 96.54 104.99 96.30 C 106.63 94.83 106.34 93.38 109.08 93.48 C 110.29 94.24 110.28 96.45 112.00 96.12 C 113.98 96.14 113.51 94.41 114.91 93.55 C 116.06 93.58 117.21 93.62 118.37 93.67 C 118.27 94.87 118.26 96.08 118.36 97.31 C 108.26 97.53 98.11 97.10 88.00 97.42 C 86.39 97.35 84.48 97.82 83.00 97.14 C 82.93 96.05 82.94 94.97 83.02 93.90 Z" />
  <path
     id="path12283"
     fill="#e6c777"
     d="M 89.95 98.50 C 93.28 98.62 96.98 98.09 100.19 98.83 L 100.35 99.95 L 99.74 100.68 C 96.24 100.77 92.73 100.70 89.22 100.72 C 88.71 99.33 88.95 98.59 89.95 98.50 Z" />
  <path
     id="path12285"
     fill="#e6c777"
     d="M 101.69 98.72 C 104.87 98.38 108.98 98.19 112.09 98.81 C 112.43 100.31 112.05 100.95 110.94 100.73 C 107.99 100.71 105.03 100.71 102.08 100.72 L 101.26 99.96 L 101.69 98.72 Z" />
  <path
     id="path12287"
     fill="#e6c777"
     d="M 88.19 102.24 C 90.24 101.38 92.91 101.84 95.01 102.33 C 98.90 101.48 103.07 101.75 107.02 101.94 L 107.44 102.96 L 107.01 103.93 C 103.04 103.98 98.94 104.22 95.01 103.59 C 92.69 103.99 90.36 104.17 88.02 103.90 L 88.19 102.24 Z" />
  <path
     id="path12289"
     fill="#e6c777"
     d="M 108.11 102.23 C 109.57 101.69 114.56 100.97 113.19 103.95 C 111.53 103.78 108.04 104.91 108.11 102.23 Z" />
  <path
     id="path12291"
     fill="#e6c777"
     d="M 86.06 105.50 C 89.50 105.45 92.51 104.36 96.01 105.30 C 97.71 105.77 99.72 105.30 99.04 107.92 C 98.18 107.92 97.40 107.33 96.71 106.13 C 92.98 108.33 89.98 106.50 86.13 106.80 L 85.46 105.93 L 86.06 105.50 Z" />
  <path
     id="path12293"
     fill="#e6c777"
     d="M 106.00 105.19 C 107.35 105.00 108.69 104.91 110.01 104.92 C 111.37 105.04 114.47 104.61 113.09 106.97 C 110.89 107.31 108.31 107.32 106.10 107.07 L 106.00 105.19 Z" />
  <path
     id="path12295"
     fill="#e6c777"
     d="M 104.56 106.07 C 104.71 106.77 104.36 107.49 103.53 108.23 L 102.87 108.09 C 102.61 106.09 103.18 105.42 104.56 106.07 Z" />
  <path
     id="path12297"
     fill="#b59846"
     d="M 115.80 106.07 L 116.10 106.84 C 113.70 108.08 113.10 105.05 115.80 106.07 Z" />
  <path
     id="path12299"
     fill="#e6c777"
     d="M 92.64 108.45 C 94.49 109.76 95.20 108.73 96.94 107.99 C 96.51 108.91 96.07 109.82 95.62 110.72 C 91.33 109.95 86.64 110.86 82.23 110.62 C 82.24 109.80 82.50 109.27 83.01 109.02 C 85.44 107.55 89.83 108.37 92.64 108.45 Z" />
  <path
     id="path12301"
     fill="#c5112e"
     d="M 102.87 108.09 L 103.53 108.23 C 106.09 111.12 106.14 113.05 105.72 116.81 C 103.83 117.66 98.15 117.57 96.16 116.87 C 95.55 114.47 95.95 111.49 97.47 109.48 C 99.13 108.25 100.91 108.29 102.87 108.09 Z" />
  <path
     id="path12303"
     fill="#b59846"
     d="M 105.18 108.12 C 106.11 107.71 109.03 109.45 107.79 110.68 C 106.69 111.52 104.91 109.02 105.18 108.12 Z" />
  <path
     id="path12305"
     fill="#e6c777"
     d="M 108.94 108.29 C 111.48 108.25 113.96 108.44 116.45 107.74 L 117.22 107.90 C 117.13 108.83 116.96 109.73 116.71 110.61 C 114.27 110.55 111.83 110.62 109.39 110.55 C 108.60 109.64 108.45 108.89 108.94 108.29 Z" />
  <path
     id="path12307"
     fill="#e6c777"
     d="M 86.15 111.91 L 86.63 112.99 L 85.94 113.81 C 82.30 113.93 78.65 113.84 75.01 113.91 L 75.26 113.10 C 78.09 110.95 82.80 111.63 86.15 111.91 Z" />
  <path
     id="path12309"
     fill="#e6c777"
     d="M 94.01 112.11 C 93.34 114.08 88.07 114.68 87.27 112.99 C 87.79 110.84 92.42 111.70 94.01 112.11 Z" />
  <path
     id="path12311"
     fill="#e6c777"
     d="M 108.26 112.16 C 109.16 111.38 112.00 111.35 112.05 112.97 C 112.09 114.86 107.82 113.24 108.26 112.16 Z" />
  <path
     id="path12313"
     fill="#e6c777"
     d="M 113.06 112.08 C 115.53 111.34 118.47 111.75 121.04 111.63 C 122.43 111.62 122.98 112.30 122.69 113.67 C 119.56 114.01 116.33 113.87 113.18 113.80 L 113.06 112.08 Z" />
  <path
     id="path12315"
     fill="#e6c777"
     d="M 124.37 111.96 L 124.84 112.08 C 126.00 112.66 126.62 113.25 126.70 113.86 C 124.96 114.80 123.49 114.06 124.37 111.96 Z" />
  <path
     id="path12317"
     fill="#e6c777"
     d="M 93.33 114.10 C 94.75 112.85 96.18 115.43 94.25 115.74 C 93.34 115.50 93.03 114.95 93.33 114.10 Z" />
  <path
     id="path12319"
     fill="#e6c777"
     d="M 107.01 114.17 L 107.87 113.77 L 108.69 114.14 L 108.73 114.97 L 107.92 115.46 L 107.03 115.06 L 107.01 114.17 Z" />
  <path
     id="path12321"
     fill="#e6c777"
     d="M 73.99 115.11 C 76.62 114.66 79.45 114.83 82.09 115.09 L 82.83 116.01 L 82.13 117.01 C 79.67 117.47 76.37 117.42 73.90 117.05 L 73.35 116.01 L 73.99 115.11 Z" />
  <path
     id="path12323"
     fill="#e6c777"
     d="M 86.99 114.86 C 89.06 115.07 92.55 114.07 93.04 116.96 C 90.20 117.54 86.78 117.36 83.88 117.10 C 82.28 114.57 85.48 114.92 86.99 114.86 Z" />
  <path
     id="path12325"
     fill="#e6c777"
     d="M 116.88 115.13 C 117.30 116.53 117.01 117.24 116.00 117.24 C 113.67 117.29 111.26 117.43 108.96 117.10 C 108.92 113.71 114.80 115.03 116.88 115.13 Z" />
  <path
     id="path12327"
     fill="#e6c777"
     d="M 118.11 115.13 C 120.99 114.70 123.98 114.79 126.87 115.15 C 127.55 116.38 127.26 117.05 126.01 117.16 C 123.42 117.27 120.60 117.54 118.06 117.01 L 118.11 115.13 Z" />
  <path
     id="path12329"
     fill="#e6c777"
     d="M 74.15 118.26 C 77.37 118.23 80.59 118.24 83.81 118.24 L 83.93 119.88 C 80.79 120.35 77.16 120.23 73.99 119.92 L 73.59 119.02 L 74.15 118.26 Z" />
  <path
     id="path12331"
     fill="#e6c777"
     d="M 91.72 118.26 L 91.87 119.82 C 89.79 120.36 87.33 120.29 85.24 119.80 L 85.47 118.54 C 87.30 117.88 89.75 118.37 91.72 118.26 Z" />
  <path
     id="path12333"
     fill="#e6c777"
     d="M 96.28 118.33 C 99.36 118.18 102.54 118.11 105.61 118.33 L 105.83 119.72 C 103.00 120.34 99.04 120.37 96.21 119.81 L 96.28 118.33 Z" />
  <path
     id="path12335"
     fill="#e6c777"
     d="M 110.22 118.25 C 114.36 118.27 118.52 118.19 122.66 118.30 C 123.12 119.66 122.57 120.27 121.02 120.13 C 117.43 120.04 113.68 120.42 110.14 119.89 L 110.22 118.25 Z" />
  <path
     id="path12337"
     fill="#e6c777"
     d="M 124.27 118.31 L 125.97 117.85 C 128.06 118.84 126.91 120.49 125.00 120.28 C 123.89 119.90 123.64 119.24 124.27 118.31 Z" />
  <path
     id="path12339"
     fill="#e6c777"
     d="M 93.21 118.90 L 94.01 118.40 L 94.86 118.87 L 94.85 119.79 L 94.06 120.20 L 93.28 119.79 L 93.21 118.90 Z" />
  <path
     id="path12341"
     fill="#e6c777"
     d="M 107.09 118.93 L 107.92 118.44 L 108.76 118.90 L 108.77 119.78 L 107.98 120.22 L 107.15 119.85 L 107.09 118.93 Z" />
  <path
     id="path12343"
     fill="#1b458f"
     d="M 54.20 129.07 L 54.92 128.57 C 85.26 128.76 116.04 128.54 146.41 128.67 C 144.00 140.21 138.07 152.36 130.70 161.67 C 110.27 161.63 88.71 161.82 68.40 161.58 C 60.91 152.55 56.67 140.40 54.20 129.07 Z" />
  <path
     id="path12345"
     fill="#90721c"
     d="M 99.14 130.26 C 99.83 130.24 100.52 130.41 101.20 130.76 C 105.89 132.88 110.92 134.27 115.52 136.58 C 114.99 137.99 114.84 139.37 115.05 140.74 C 115.71 140.46 116.36 140.18 117.02 139.90 C 117.67 140.16 118.32 140.40 118.97 140.65 C 119.54 137.50 116.29 140.02 115.92 136.88 C 119.11 137.49 121.89 139.04 124.98 139.99 C 125.87 140.11 126.15 140.66 125.82 141.65 C 124.09 141.70 122.39 141.55 120.66 141.75 C 119.94 143.71 120.58 146.08 120.30 148.17 C 120.86 148.83 121.70 149.23 122.80 149.39 C 123.30 151.06 123.61 153.18 122.96 154.83 C 121.70 155.50 119.76 154.61 120.25 156.65 C 121.18 156.76 122.10 156.93 123.01 157.14 C 124.06 159.09 123.14 160.17 121.01 159.83 C 106.66 159.82 92.32 159.81 77.97 159.84 C 77.13 159.86 76.32 159.77 75.53 159.58 C 75.52 158.88 75.52 158.18 75.54 157.48 C 76.67 156.58 79.17 157.28 78.76 155.40 C 77.87 155.24 76.99 155.06 76.12 154.84 C 75.63 153.57 75.49 150.56 76.24 149.41 C 77.20 149.17 78.02 148.76 78.70 148.19 C 78.42 146.09 79.06 143.72 78.34 141.75 C 76.32 141.56 74.35 141.67 72.34 141.65 L 72.24 140.38 C 81.23 137.07 90.24 133.76 99.14 130.26 Z" />
  <path
     id="path12347"
     fill="#e6c777"
     d="M 71.85 133.92 C 70.25 135.25 68.83 132.16 67.05 132.72 C 64.47 134.11 64.79 138.76 68.12 138.80 C 69.43 138.37 70.54 135.37 71.88 137.03 C 71.87 138.87 69.73 140.35 68.01 140.30 C 64.93 140.54 62.54 137.33 63.45 134.41 C 64.32 130.35 70.59 129.97 71.85 133.92 Z" />
  <path
     id="path12349"
     fill="#e6c777"
     d="M 132.54 131.37 C 133.18 131.31 133.82 131.31 134.46 131.37 C 134.50 134.16 134.40 136.94 134.55 139.72 C 132.77 140.71 132.17 139.82 132.51 138.02 C 132.58 135.80 132.49 133.58 132.54 131.37 Z" />
  <path
     id="path12351"
     fill="#e6c777"
     d="M 98.69 131.68 L 100.00 131.66 C 100.25 134.46 100.21 137.49 100.00 140.29 L 98.71 140.28 C 98.24 137.73 98.25 134.23 98.69 131.68 Z" />
  <path
     id="path12353"
     fill="#e6c777"
     d="M 101.11 132.08 C 103.13 131.94 103.17 134.55 103.32 135.99 C 103.15 137.57 103.42 140.54 101.27 140.75 C 100.76 137.90 100.86 134.94 101.11 132.08 Z" />
  <path
     id="path12355"
     fill="#e6c777"
     d="M 95.78 132.69 L 97.14 132.65 C 97.34 135.13 97.78 138.33 96.83 140.67 L 96.14 140.65 C 95.07 138.51 95.54 135.03 95.78 132.69 Z" />
  <path
     id="path12357"
     fill="#e6c777"
     d="M 91.64 134.28 C 92.05 136.00 92.77 139.64 91.00 140.72 C 89.25 140.18 89.19 133.46 91.64 134.28 Z" />
  <path
     id="path12359"
     fill="#e6c777"
     d="M 93.29 134.14 L 93.95 134.13 C 94.56 135.05 94.90 140.45 93.37 140.55 C 93.03 138.94 92.92 135.70 93.29 134.14 Z" />
  <path
     id="path12361"
     fill="#e6c777"
     d="M 104.28 134.19 C 105.07 133.99 105.44 134.57 105.38 135.91 C 105.22 136.74 105.91 140.27 104.31 139.80 C 104.04 138.26 104.04 135.74 104.28 134.19 Z" />
  <path
     id="path12363"
     fill="#e6c777"
     d="M 107.69 134.33 C 108.35 135.24 108.35 139.63 107.71 140.58 C 107.17 140.69 106.87 140.19 106.81 139.08 C 106.98 138.14 106.22 134.26 107.69 134.33 Z" />
  <path
     id="path12365"
     fill="#e6c777"
     d="M 109.25 135.33 C 112.17 134.50 111.01 139.21 110.74 140.75 C 110.14 140.58 109.66 140.30 109.28 139.88 C 109.23 138.36 109.23 136.84 109.25 135.33 Z" />
  <path
     id="path12367"
     fill="#e6c777"
     d="M 88.67 136.18 C 89.02 137.39 89.02 138.60 88.68 139.81 C 87.03 140.63 87.02 135.37 88.67 136.18 Z" />
  <path
     id="path12369"
     fill="#e6c777"
     d="M 85.13 137.10 C 86.79 136.31 86.58 141.01 85.28 140.58 C 84.57 139.34 84.52 138.18 85.13 137.10 Z" />
  <path
     id="path12371"
     fill="#ffffff"
     d="M 112.98 136.92 C 114.58 138.27 114.78 138.66 113.01 139.98 C 111.07 138.68 111.52 138.36 112.98 136.92 Z" />
  <path
     id="path12373"
     fill="#e6c777"
     d="M 115.52 136.58 L 115.92 136.88 C 116.29 140.02 119.54 137.50 118.97 140.65 C 118.32 140.40 117.67 140.16 117.02 139.90 C 116.36 140.18 115.71 140.46 115.05 140.74 C 114.84 139.37 114.99 137.99 115.52 136.58 Z" />
  <path
     id="path12375"
     fill="#e6c777"
     d="M 82.17 138.13 L 83.11 138.10 L 83.59 139.00 L 83.09 139.87 L 82.17 139.84 L 81.75 139.00 L 82.17 138.13 Z" />
  <path
     id="path12377"
     fill="#e6c777"
     d="M 70.38 142.37 C 71.57 142.08 72.19 142.44 72.23 143.46 C 72.22 145.60 72.12 147.74 72.26 149.89 C 72.45 150.63 72.06 151.15 71.09 151.45 L 70.32 150.80 C 70.38 147.99 70.22 145.16 70.38 142.37 Z" />
  <path
     id="path12379"
     fill="#e6c777"
     d="M 80.27 142.22 C 93.04 141.98 105.99 142.02 118.77 142.20 C 118.82 144.36 118.86 146.55 118.69 148.70 C 105.93 148.79 93.09 148.82 80.34 148.68 C 80.21 146.54 80.24 144.37 80.27 142.22 Z" />
  <path
     id="path12381"
     fill="#e6c777"
     d="M 130.33 142.68 C 131.41 145.17 132.19 147.70 133.53 150.06 L 133.10 150.94 C 132.10 151.12 131.44 150.79 131.14 149.94 C 130.86 148.50 128.22 148.63 127.36 149.31 C 127.01 150.54 125.17 152.23 125.05 149.93 C 125.64 147.73 126.73 145.66 127.57 143.55 C 127.98 142.05 129.17 141.73 130.33 142.68 Z" />
  <path
     id="path12383"
     fill="#1b458f"
     d="M 128.36 145.43 C 129.79 144.47 131.03 146.74 129.74 147.63 C 128.18 148.25 127.06 146.63 128.36 145.43 Z" />
  <path
     id="path12385"
     fill="#e6c777"
     d="M 78.76 150.21 C 78.65 151.34 79.50 155.50 77.14 153.96 C 77.13 152.35 76.01 149.29 78.76 150.21 Z" />
  <path
     id="path12387"
     fill="#e6c777"
     d="M 80.27 150.26 C 81.80 149.53 81.79 154.52 80.29 153.81 C 79.69 152.62 79.68 151.44 80.27 150.26 Z" />
  <path
     id="path12389"
     fill="#e6c777"
     d="M 83.70 150.31 C 84.37 150.91 84.50 154.22 83.07 153.77 C 82.38 153.20 82.25 149.84 83.70 150.31 Z" />
  <path
     id="path12391"
     fill="#e6c777"
     d="M 85.24 150.28 L 86.89 150.10 C 87.10 151.14 87.58 154.30 86.00 154.34 C 84.76 153.71 85.41 151.46 85.24 150.28 Z" />
  <path
     id="path12393"
     fill="#e6c777"
     d="M 89.74 150.27 C 89.76 151.43 89.75 152.59 89.73 153.74 C 87.43 156.11 86.86 148.39 89.74 150.27 Z" />
  <path
     id="path12395"
     fill="#e6c777"
     d="M 91.24 150.32 C 92.71 149.86 92.58 153.15 91.91 153.76 C 90.46 154.23 90.58 150.94 91.24 150.32 Z" />
  <path
     id="path12397"
     fill="#e6c777"
     d="M 94.75 150.25 C 95.34 151.37 95.34 152.56 94.75 153.82 C 93.24 154.57 93.26 149.54 94.75 150.25 Z" />
  <path
     id="path12399"
     fill="#e6c777"
     d="M 96.18 150.22 C 99.14 148.79 98.68 155.68 96.24 153.84 C 96.14 152.64 96.12 151.43 96.18 150.22 Z" />
  <path
     id="path12401"
     fill="#e6c777"
     d="M 100.77 150.23 C 100.58 151.36 101.38 153.91 100.01 154.31 C 98.25 154.02 98.09 148.99 100.77 150.23 Z" />
  <path
     id="path12403"
     fill="#e6c777"
     d="M 102.24 150.22 C 103.75 149.48 103.75 154.60 102.25 153.87 C 101.73 152.66 101.72 151.44 102.24 150.22 Z" />
  <path
     id="path12405"
     fill="#e6c777"
     d="M 105.05 150.32 C 106.51 149.91 106.36 153.09 105.72 153.73 C 104.20 154.26 104.32 150.91 105.05 150.32 Z" />
  <path
     id="path12407"
     fill="#e6c777"
     d="M 107.24 150.28 L 108.89 150.09 C 109.07 151.16 109.68 154.26 108.01 154.31 C 106.72 153.77 107.41 151.44 107.24 150.28 Z" />
  <path
     id="path12409"
     fill="#e6c777"
     d="M 110.32 150.27 C 111.96 149.53 111.97 154.57 110.31 153.81 C 109.88 152.63 109.88 151.45 110.32 150.27 Z" />
  <path
     id="path12411"
     fill="#e6c777"
     d="M 113.21 150.35 C 114.71 149.89 114.58 153.11 113.85 153.72 C 112.44 154.14 112.49 150.93 113.21 150.35 Z" />
  <path
     id="path12413"
     fill="#e6c777"
     d="M 116.73 150.23 C 117.27 151.41 117.27 152.61 116.73 153.84 C 115.22 154.53 115.19 149.53 116.73 150.23 Z" />
  <path
     id="path12415"
     fill="#e6c777"
     d="M 118.16 150.18 C 121.09 148.97 120.69 155.42 118.22 153.86 C 118.12 152.65 118.10 151.42 118.16 150.18 Z" />
  <path
     id="path12417"
     fill="#e6c777"
     d="M 121.84 150.29 C 122.48 150.83 122.74 154.25 121.31 153.75 C 120.69 153.16 120.43 149.92 121.84 150.29 Z" />
  <path
     id="path12419"
     fill="#1b458f"
     d="M 89.11 155.20 C 96.26 155.38 103.45 155.05 110.58 155.37 L 110.55 156.60 C 103.54 157.38 96.25 157.10 89.21 156.80 L 89.11 155.20 Z" />
  <path
     id="path12421"
     fill="#e6c777"
     d="M 77.15 158.00 C 80.28 157.24 83.78 157.66 87.00 157.58 C 98.61 157.88 110.35 157.24 121.93 157.81 L 121.90 158.86 C 117.63 159.27 113.29 159.00 109.00 159.07 C 98.38 158.97 87.71 159.27 77.10 158.92 L 77.15 158.00 Z" />
  <path
     id="path12423"
     fill="#04642c"
     d="M 69.92 163.75 L 70.92 163.52 C 89.17 163.80 111.27 163.32 129.09 163.76 C 127.86 165.82 125.72 167.60 124.07 169.38 C 107.68 169.35 91.30 169.31 74.91 169.40 C 73.14 167.74 71.08 165.88 69.92 163.75 Z" />
  <path
     id="path12425"
     fill="#1b458f"
     d="M 76.27 171.37 C 91.46 171.45 106.67 171.50 121.87 171.34 C 121.69 171.98 121.38 172.48 120.93 172.85 C 114.43 179.05 107.51 185.02 99.96 189.92 C 91.23 185.19 82.93 178.74 76.27 171.37 Z" />
</svg>
