<?xml version="1.0" encoding="UTF-8" standalone="no"?>
<svg
   xmlns:dc="http://purl.org/dc/elements/1.1/"
   xmlns:cc="http://creativecommons.org/ns#"
   xmlns:rdf="http://www.w3.org/1999/02/22-rdf-syntax-ns#"
   xmlns:svg="http://www.w3.org/2000/svg"
   xmlns="http://www.w3.org/2000/svg"
   xmlns:sodipodi="http://sodipodi.sourceforge.net/DTD/sodipodi-0.dtd"
   xmlns:inkscape="http://www.inkscape.org/namespaces/inkscape"
   inkscape:version="1.0 (4035a4f, 2020-05-01)"
   sodipodi:docname="299.svg"
   id="svg13159"
   height="200.0pt"
   width="200.0pt"
   viewBox="0 0 200 200"
   version="1.1">
  <metadata
     id="metadata13165">
    <rdf:RDF>
      <cc:Work
         rdf:about="">
        <dc:format>image/svg+xml</dc:format>
        <dc:type
           rdf:resource="http://purl.org/dc/dcmitype/StillImage" />
      </cc:Work>
    </rdf:RDF>
  </metadata>
  <defs
     id="defs13163" />
  <sodipodi:namedview
     inkscape:current-layer="svg13159"
     inkscape:cy="133.33333"
     inkscape:cx="133.33333"
     inkscape:zoom="1.75125"
     showgrid="false"
     id="namedview13161"
     inkscape:window-height="480"
     inkscape:window-width="640"
     inkscape:pageshadow="2"
     inkscape:pageopacity="0"
     guidetolerance="10"
     gridtolerance="10"
     objecttolerance="10"
     borderopacity="1"
     bordercolor="#666666"
     pagecolor="#ffffff" />
  <path
     style="fill:#ffffff;fill-opacity:0.1659919"
     id="path13049"
     fill="#ffffff"
     d="M 0.00 0.00 L 100.50 0.00 C 98.61 2.54 94.71 3.63 91.91 4.91 C 76.02 11.16 59.60 16.16 43.13 20.61 C 33.48 23.18 24.00 25.45 14.02 26.30 C 14.44 60.72 20.93 94.58 36.28 125.56 C 50.85 155.01 72.92 181.69 100.33 200.00 L 0.00 200.00 L 0.00 0.00 Z" />
  <path
     id="path13051"
     fill="#29244f"
     d="M 100.50 0.00 L 100.67 0.00 C 102.29 2.24 104.60 2.99 107.01 4.06 C 117.39 8.38 128.16 11.84 138.88 15.19 C 154.45 19.75 170.51 24.71 186.70 26.31 C 186.74 54.82 182.05 83.30 171.61 109.88 C 159.50 140.82 139.65 168.86 114.04 190.09 C 109.71 193.65 105.21 197.08 100.42 200.00 L 100.33 200.00 C 72.92 181.69 50.85 155.01 36.28 125.56 C 20.93 94.58 14.44 60.72 14.02 26.30 C 24.00 25.45 33.48 23.18 43.13 20.61 C 59.60 16.16 76.02 11.16 91.91 4.91 C 94.71 3.63 98.61 2.54 100.50 0.00 Z" />
  <path
     style="fill:#ffffff;fill-opacity:0.01214575"
     id="path13053"
     fill="#ffffff"
     d="M 100.67 0.00 L 200.00 0.00 L 200.00 200.00 L 100.42 200.00 C 105.21 197.08 109.71 193.65 114.04 190.09 C 139.65 168.86 159.50 140.82 171.61 109.88 C 182.05 83.30 186.74 54.82 186.70 26.31 C 170.51 24.71 154.45 19.75 138.88 15.19 C 128.16 11.84 117.39 8.38 107.01 4.06 C 104.60 2.99 102.29 2.24 100.67 0.00 Z" />
  <path
     id="path13055"
     fill="#ffffff"
     d="M 100.38 4.15 C 100.36 25.85 100.32 47.55 100.40 69.25 C 93.96 73.59 87.55 78.08 80.94 82.13 C 62.03 82.50 42.75 82.16 23.80 82.30 C 19.53 64.83 17.20 46.78 17.28 28.80 C 24.06 28.21 30.48 26.70 37.10 25.14 C 51.20 21.66 65.13 17.45 78.90 12.85 C 85.19 10.68 91.60 8.51 97.58 5.58 C 98.51 5.11 99.45 4.63 100.38 4.15 Z" />
  <path
     id="path13057"
     fill="#a1192e"
     d="M 128.80 15.07 C 137.07 17.67 145.34 20.24 153.73 22.45 C 153.90 26.22 153.89 29.99 153.78 33.76 C 145.46 39.26 137.28 45.06 128.75 50.25 C 128.52 38.58 128.43 26.73 128.80 15.07 Z" />
  <path
     id="path13059"
     fill="#afa830"
     d="M 58.94 21.48 C 60.25 22.47 61.43 23.63 62.64 24.74 C 61.86 25.90 61.06 27.06 60.28 28.22 C 62.03 28.50 63.78 28.59 65.52 28.48 C 65.44 25.65 64.84 25.51 67.41 24.22 C 67.77 25.10 68.13 25.99 68.49 26.88 C 67.97 27.56 67.46 28.24 66.95 28.92 C 68.87 29.92 70.04 30.74 72.33 30.11 C 71.66 29.48 71.00 28.86 70.32 28.24 C 70.38 27.62 70.43 27.00 70.48 26.38 C 72.19 26.27 73.90 26.19 75.61 26.08 C 74.18 28.57 72.49 30.88 70.76 33.18 L 69.81 34.33 L 69.21 34.45 C 63.27 31.18 54.64 32.52 48.27 33.82 C 47.58 33.20 46.91 32.57 46.25 31.92 C 44.47 30.17 43.30 28.30 42.20 26.07 C 43.77 26.15 45.33 26.24 46.89 26.32 C 47.07 26.86 47.26 27.40 47.44 27.94 C 46.86 28.73 46.29 29.53 45.73 30.32 C 47.62 30.44 48.93 29.94 50.58 29.13 C 49.59 26.96 48.84 26.45 50.31 24.26 C 51.05 24.66 51.78 25.06 52.52 25.46 C 52.36 26.39 52.19 27.32 52.03 28.26 C 53.88 28.55 55.46 28.67 57.30 28.18 C 56.74 27.54 56.17 26.89 55.61 26.25 C 55.56 25.66 55.52 25.06 55.48 24.47 C 56.57 23.45 57.63 22.20 58.94 21.48 Z" />
  <path
     id="path13061"
     fill="#ffffff"
     d="M 169.07 26.47 C 173.96 27.27 178.74 28.45 183.71 28.81 C 183.70 34.79 183.68 40.95 182.84 46.88 C 181.07 48.44 178.94 49.63 176.98 50.96 C 135.98 78.27 94.98 105.59 53.97 132.90 C 51.47 134.54 48.99 136.21 46.57 137.95 C 42.26 131.22 38.38 123.33 35.24 115.98 C 36.67 114.28 39.12 113.19 40.93 111.86 C 83.63 83.39 126.40 54.98 169.07 26.47 Z" />
  <path
     id="path13063"
     fill="#a6562b"
     d="M 58.11 30.07 C 59.89 28.79 60.93 31.62 58.95 32.11 C 57.84 31.83 57.56 31.15 58.11 30.07 Z" />
  <path
     id="path13065"
     fill="#3b6f4a"
     d="M 51.35 31.09 L 52.10 30.67 L 52.86 31.04 L 52.86 31.83 L 52.11 32.24 L 51.36 31.88 L 51.35 31.09 Z" />
  <path
     id="path13067"
     fill="#1a6759"
     d="M 65.22 31.22 L 65.75 31.22 L 65.76 31.76 L 65.22 31.76 L 65.22 31.22 Z" />
  <path
     id="path13069"
     fill="#5a3539"
     d="M 46.25 31.92 C 46.91 32.57 47.58 33.20 48.27 33.82 C 54.64 32.52 63.27 31.18 69.21 34.45 C 67.80 35.18 66.59 35.41 65.00 35.37 C 58.35 35.33 51.69 35.36 45.04 35.27 C 44.71 37.94 44.65 40.60 44.68 43.29 C 44.51 48.93 44.44 54.54 44.65 60.18 C 44.78 62.89 44.62 65.21 46.93 67.08 C 49.64 70.11 54.91 67.00 57.13 69.94 C 53.75 69.13 49.54 70.35 46.80 68.26 C 44.77 66.96 44.24 64.91 43.89 62.65 C 43.95 53.24 43.77 43.83 43.98 34.43 C 45.21 34.38 46.44 34.34 47.67 34.31 C 47.21 33.51 46.73 32.71 46.25 31.92 Z" />
  <path
     id="path13071"
     fill="#226433"
     d="M 70.76 33.18 L 70.38 34.25 C 72.64 33.95 74.16 35.61 76.24 35.31 L 76.41 33.27 C 77.52 34.03 78.34 34.39 79.72 34.50 C 80.43 37.35 80.12 39.33 79.06 42.01 C 80.42 40.97 81.09 39.44 83.09 40.63 C 83.27 42.21 82.91 43.78 82.00 45.33 C 81.32 44.53 80.65 43.73 79.97 42.93 C 80.82 44.48 81.43 45.92 81.77 47.68 C 82.89 47.13 83.97 46.52 85.10 45.99 C 84.27 49.59 82.86 51.44 80.22 53.90 C 81.47 53.60 82.72 53.31 83.97 53.01 C 83.12 55.54 81.80 56.98 79.87 58.68 L 83.26 58.03 C 82.37 59.89 81.70 60.68 82.29 62.68 C 81.26 62.44 80.22 62.21 79.19 61.98 C 79.60 64.88 78.50 66.05 76.84 68.30 C 75.39 64.69 74.65 61.97 75.40 57.97 C 76.45 59.73 77.51 60.60 78.58 60.59 C 78.24 59.06 77.65 57.56 77.38 56.01 C 77.77 54.67 78.30 53.39 78.64 52.05 C 77.87 50.08 76.97 48.16 76.30 46.14 L 79.57 47.43 C 78.73 45.26 77.09 43.85 75.66 42.10 C 76.05 41.48 76.43 40.85 76.79 40.22 C 76.08 38.56 75.64 36.97 74.35 35.64 C 74.14 42.43 74.34 49.23 74.29 56.03 C 74.19 59.35 74.95 62.38 73.51 65.38 C 73.63 63.46 73.65 61.55 73.66 59.64 C 72.75 59.34 71.85 59.03 70.95 58.73 C 71.85 58.92 72.74 59.12 73.63 59.30 C 73.43 56.78 73.98 56.79 71.35 56.47 C 73.16 56.72 74.03 55.68 73.96 53.35 C 72.77 52.24 72.53 52.53 71.27 53.22 C 71.42 52.87 71.58 52.53 71.76 52.20 C 73.14 51.13 73.74 50.00 73.56 48.78 C 72.73 48.97 71.89 49.17 71.06 49.37 C 73.18 48.34 73.69 48.56 73.63 45.75 C 72.77 45.98 71.91 46.23 71.05 46.48 C 72.13 45.72 73.30 45.28 73.68 43.86 C 72.90 43.74 72.12 43.61 71.34 43.48 L 73.59 43.49 C 73.75 40.65 73.73 37.86 73.43 35.03 C 72.22 34.79 71.02 34.56 69.81 34.33 L 70.76 33.18 Z" />
  <path
     id="path13073"
     fill="#ced4d0"
     d="M 42.45 34.56 L 43.98 34.43 C 43.77 43.83 43.95 53.24 43.89 62.65 C 42.77 64.44 42.37 65.01 43.06 67.16 C 42.61 66.39 42.28 65.55 42.09 64.63 L 41.83 62.88 C 41.76 62.39 41.69 61.90 41.60 61.41 C 44.08 60.22 43.10 57.23 43.35 55.00 C 43.05 48.76 43.80 42.36 43.00 36.19 L 42.26 35.97 L 41.04 35.67 C 41.51 35.30 41.98 34.93 42.45 34.56 Z" />
  <path
     id="path13075"
     fill="#a6182d"
     d="M 69.21 34.45 L 69.81 34.33 C 71.02 34.56 72.22 34.79 73.43 35.03 C 73.73 37.86 73.75 40.65 73.59 43.49 L 71.34 43.48 C 72.12 43.61 72.90 43.74 73.68 43.86 C 73.30 45.28 72.13 45.72 71.05 46.48 C 71.91 46.23 72.77 45.98 73.63 45.75 C 73.69 48.56 73.18 48.34 71.06 49.37 C 71.89 49.17 72.73 48.97 73.56 48.78 C 73.74 50.00 73.14 51.13 71.76 52.20 C 71.58 52.53 71.42 52.87 71.27 53.22 C 72.53 52.53 72.77 52.24 73.96 53.35 C 74.03 55.68 73.16 56.72 71.35 56.47 C 73.98 56.79 73.43 56.78 73.63 59.30 C 72.74 59.12 71.85 58.92 70.95 58.73 C 71.85 59.03 72.75 59.34 73.66 59.64 C 73.65 61.55 73.63 63.46 73.51 65.38 L 73.28 65.93 C 72.26 66.88 71.23 67.83 70.19 68.76 C 67.62 70.00 64.89 69.27 61.93 69.72 C 60.73 70.28 59.93 71.18 58.94 72.02 C 58.35 71.32 57.75 70.62 57.13 69.94 C 54.91 67.00 49.64 70.11 46.93 67.08 C 44.62 65.21 44.78 62.89 44.65 60.18 C 45.78 60.21 46.91 60.24 48.04 60.26 C 48.10 61.39 48.19 62.51 48.32 63.62 L 49.99 64.88 L 50.19 64.91 C 55.98 66.10 61.64 65.84 67.47 65.19 C 69.50 64.64 70.03 62.95 70.00 61.01 C 70.13 53.70 70.07 46.37 69.93 39.05 C 62.66 38.78 55.39 38.75 48.12 39.06 C 48.07 40.10 48.04 41.14 48.00 42.19 C 46.90 42.55 45.79 42.92 44.68 43.29 C 44.65 40.60 44.71 37.94 45.04 35.27 C 51.69 35.36 58.35 35.33 65.00 35.37 C 66.59 35.41 67.80 35.18 69.21 34.45 Z" />
  <path
     id="path13077"
     fill="#c8c4a5"
     d="M 37.61 36.70 L 37.97 36.68 C 38.56 36.67 39.15 36.65 39.74 36.63 L 41.04 35.67 L 42.26 35.97 C 41.86 36.62 41.46 37.28 41.08 37.95 C 41.24 38.52 41.39 39.09 41.54 39.66 C 40.71 41.58 39.99 43.55 39.30 45.53 C 39.73 45.80 40.15 46.08 40.57 46.36 C 40.42 46.92 40.26 47.47 40.11 48.03 C 40.40 48.66 40.70 49.30 41.00 49.94 C 40.33 50.77 39.68 51.61 39.04 52.45 C 38.58 51.09 37.57 49.41 37.90 47.95 C 38.41 45.33 38.74 43.12 37.92 40.49 C 36.57 42.76 35.78 45.23 34.77 47.66 L 34.11 45.94 C 34.28 45.23 34.47 44.53 34.66 43.83 C 34.46 42.63 34.25 41.43 34.03 40.23 C 34.59 40.74 35.15 41.26 35.71 41.77 C 36.18 40.00 36.68 38.29 37.61 36.70 Z" />
  <path
     id="path13079"
     fill="#fefefe"
     d="M 42.26 35.97 L 43.00 36.19 C 43.80 42.36 43.05 48.76 43.35 55.00 C 43.10 57.23 44.08 60.22 41.60 61.41 C 40.97 59.58 40.24 57.80 39.55 55.99 C 39.56 54.75 39.49 53.63 39.04 52.45 L 39.04 52.45 C 39.68 51.61 40.33 50.77 41.00 49.94 C 40.70 49.30 40.40 48.66 40.11 48.03 C 40.26 47.47 40.42 46.92 40.57 46.36 C 40.15 46.08 39.73 45.80 39.30 45.53 C 39.99 43.55 40.71 41.58 41.54 39.66 C 41.39 39.09 41.24 38.52 41.08 37.95 C 41.46 37.28 41.86 36.62 42.26 35.97 Z" />
  <path
     id="path13081"
     fill="#15161a"
     d="M 160.61 36.38 C 165.13 39.06 169.16 42.51 173.56 45.34 C 174.65 45.77 175.84 46.01 177.15 46.03 C 174.90 47.90 172.46 49.47 169.98 50.99 C 170.37 50.01 170.77 49.02 171.17 48.03 C 170.19 47.37 169.22 46.71 168.24 46.04 C 166.87 47.03 165.50 48.00 164.12 48.97 C 164.44 50.03 164.76 51.09 165.08 52.16 C 166.10 52.19 167.12 52.22 168.13 52.26 C 166.16 53.65 164.36 55.13 161.99 55.80 C 160.80 56.01 160.08 57.46 159.25 58.27 C 157.15 60.85 153.52 61.51 150.45 60.52 C 147.16 59.13 145.04 55.49 144.81 52.01 C 144.90 47.62 148.16 44.16 152.57 43.89 C 152.72 43.22 152.88 42.56 153.05 41.90 C 154.51 43.43 155.76 45.00 156.80 46.84 C 155.21 46.32 153.62 45.59 151.99 45.27 C 149.88 45.26 148.23 46.96 147.76 48.94 C 148.03 52.48 150.14 55.94 153.04 57.96 C 155.60 59.81 159.29 58.08 159.74 55.04 C 159.63 53.60 159.47 52.16 159.27 50.73 C 160.60 52.14 161.86 53.62 163.14 55.07 C 164.26 49.02 160.48 42.59 160.61 36.38 Z" />
  <path
     id="path13083"
     fill="#562e3c"
     d="M 48.12 39.06 C 55.39 38.75 62.66 38.78 69.93 39.05 C 70.07 46.37 70.13 53.70 70.00 61.01 C 70.03 62.95 69.50 64.64 67.47 65.19 C 61.64 65.84 55.98 66.10 50.19 64.91 C 52.37 64.77 54.53 64.73 56.71 64.93 C 60.02 65.24 63.41 64.36 66.74 64.24 L 66.56 62.53 C 67.00 63.23 67.45 63.94 67.90 64.64 C 68.87 63.51 69.24 62.03 69.00 60.20 C 69.00 59.56 68.99 58.92 68.97 58.29 C 68.90 52.15 69.07 46.02 68.97 39.88 C 62.34 39.72 55.67 39.71 49.05 39.89 C 48.93 46.09 49.19 52.28 48.97 58.48 C 49.03 59.29 49.10 60.09 49.20 60.89 C 49.06 62.18 49.32 63.51 49.99 64.88 L 48.32 63.62 C 48.19 62.51 48.10 61.39 48.04 60.26 C 48.07 54.23 48.12 48.22 48.00 42.19 C 48.04 41.14 48.07 40.10 48.12 39.06 Z" />
  <path
     id="path13085"
     fill="#2a6596"
     d="M 49.05 39.89 C 55.67 39.71 62.34 39.72 68.97 39.88 C 69.07 46.02 68.90 52.15 68.97 58.29 C 64.00 58.35 59.20 57.02 54.19 57.27 C 55.05 56.05 55.88 54.82 56.73 53.60 C 57.51 53.91 58.29 54.21 59.08 54.50 L 60.18 53.84 L 60.82 53.27 C 62.21 53.09 63.60 53.02 64.99 53.06 C 66.13 53.32 65.63 54.82 65.77 55.71 C 66.39 55.62 67.02 55.53 67.64 55.44 C 67.51 53.78 67.39 52.12 67.26 50.46 C 66.52 50.61 65.78 50.77 65.03 50.93 C 64.65 49.91 64.50 48.91 64.56 47.93 L 67.19 48.09 C 67.00 46.79 66.81 45.50 66.63 44.20 C 63.88 44.36 62.47 44.48 60.57 46.63 C 60.01 46.48 59.45 46.34 58.89 46.21 C 58.76 44.87 59.08 43.09 58.33 41.92 C 57.65 40.73 56.71 40.63 55.52 41.61 C 54.37 43.61 56.74 43.39 57.82 42.60 C 56.79 43.97 55.84 45.37 54.98 46.85 C 55.71 47.18 56.44 47.50 57.18 47.83 L 57.06 48.98 L 56.42 49.67 C 53.80 50.11 51.92 51.55 49.81 53.03 C 50.06 55.12 49.98 56.33 51.88 57.58 C 52.11 55.86 50.59 53.67 52.88 53.06 L 53.03 54.08 C 53.13 55.25 53.18 56.41 53.18 57.58 C 51.77 57.86 50.37 58.16 48.97 58.48 C 49.19 52.28 48.93 46.09 49.05 39.89 Z" />
  <path
     id="path13087"
     fill="#a89f3d"
     d="M 37.92 40.49 C 38.74 43.12 38.41 45.33 37.90 47.95 C 37.57 49.41 38.58 51.09 39.04 52.45 L 39.04 52.45 C 37.91 54.11 38.12 56.62 37.84 58.55 C 37.02 57.35 36.17 56.17 35.33 54.99 C 35.65 52.43 35.74 50.10 34.77 47.66 C 35.78 45.23 36.57 42.76 37.92 40.49 Z" />
  <path
     id="path13089"
     fill="#81883b"
     d="M 58.33 41.92 L 57.82 42.60 C 56.74 43.39 54.37 43.61 55.52 41.61 C 56.71 40.63 57.65 40.73 58.33 41.92 Z" />
  <path
     id="path13091"
     fill="#811929"
     d="M 48.00 42.19 C 48.12 48.22 48.07 54.23 48.04 60.26 C 46.91 60.24 45.78 60.21 44.65 60.18 C 44.44 54.54 44.51 48.93 44.68 43.29 C 45.79 42.92 46.90 42.55 48.00 42.19 Z" />
  <path
     id="path13093"
     fill="#a8aab1"
     d="M 58.33 41.92 C 59.08 43.09 58.76 44.87 58.89 46.21 C 58.79 47.82 59.35 49.08 59.96 50.52 C 60.96 49.44 62.05 48.43 63.05 47.33 L 60.57 46.63 C 62.47 44.48 63.88 44.36 66.63 44.20 C 66.81 45.50 67.00 46.79 67.19 48.09 L 64.56 47.93 C 64.50 48.91 64.65 49.91 65.03 50.93 C 65.78 50.77 66.52 50.61 67.26 50.46 C 67.39 52.12 67.51 53.78 67.64 55.44 C 67.02 55.53 66.39 55.62 65.77 55.71 C 65.63 54.82 66.13 53.32 64.99 53.06 C 63.60 53.02 62.21 53.09 60.82 53.27 L 60.36 53.32 L 60.18 53.84 L 59.08 54.50 C 58.29 54.21 57.51 53.91 56.73 53.60 C 55.88 54.82 55.05 56.05 54.19 57.27 C 55.08 58.19 55.98 59.10 56.84 60.05 C 55.57 59.29 54.36 58.48 53.18 57.58 C 53.18 56.41 53.13 55.25 53.03 54.08 C 55.22 53.26 57.45 52.59 59.70 51.95 C 58.87 50.91 57.99 49.92 57.06 48.98 L 57.18 47.83 C 56.44 47.50 55.71 47.18 54.98 46.85 C 55.84 45.37 56.79 43.97 57.82 42.60 L 58.33 41.92 Z" />
  <path
     id="path13095"
     fill="#e2e2e3"
     d="M 162.48 41.85 C 163.46 42.43 164.44 43.04 165.40 43.65 C 166.06 44.12 166.71 44.60 167.36 45.09 C 166.19 45.97 164.99 46.79 163.82 47.66 C 163.33 45.73 162.89 43.79 162.48 41.85 Z" />
  <path
     id="path13097"
     fill="#65685e"
     d="M 58.89 46.21 C 59.45 46.34 60.01 46.48 60.57 46.63 L 63.05 47.33 C 62.05 48.43 60.96 49.44 59.96 50.52 C 59.35 49.08 58.79 47.82 58.89 46.21 Z" />
  <path
     id="path13099"
     fill="#887c42"
     d="M 57.06 48.98 C 57.99 49.92 58.87 50.91 59.70 51.95 C 57.45 52.59 55.22 53.26 53.03 54.08 L 52.88 53.06 C 54.83 52.10 55.98 52.15 56.42 49.67 L 57.06 48.98 Z" />
  <path
     id="path13101"
     fill="#a8b1ba"
     d="M 56.42 49.67 C 55.98 52.15 54.83 52.10 52.88 53.06 C 50.59 53.67 52.11 55.86 51.88 57.58 C 49.98 56.33 50.06 55.12 49.81 53.03 C 51.92 51.55 53.80 50.11 56.42 49.67 Z" />
  <path
     id="path13103"
     fill="#16171b"
     d="M 139.75 51.95 C 140.52 53.25 141.28 54.56 142.03 55.87 C 140.23 55.40 137.69 53.62 136.04 55.02 C 135.41 55.68 134.80 56.35 134.22 57.05 C 137.25 61.57 141.69 56.49 145.51 59.54 C 147.92 61.46 148.33 64.82 146.13 67.10 C 144.36 69.40 141.33 68.39 140.05 71.11 C 139.04 69.45 138.00 67.81 136.98 66.16 C 138.93 66.83 141.06 68.19 143.14 67.81 C 144.18 67.08 145.07 66.15 145.82 65.02 C 144.61 63.76 144.10 62.17 142.02 62.55 C 140.07 62.64 138.00 63.06 136.06 62.78 C 133.56 61.92 131.70 58.51 133.24 56.09 C 134.39 53.88 137.62 53.00 139.75 51.95 Z" />
  <path
     id="path13105"
     fill="#b9b79d"
     d="M 39.04 52.45 C 39.49 53.63 39.56 54.75 39.55 55.99 C 40.24 57.80 40.97 59.58 41.60 61.41 C 41.69 61.90 41.76 62.39 41.83 62.88 C 41.40 63.09 40.96 63.31 40.53 63.52 C 39.68 61.83 38.85 60.15 37.84 58.55 C 38.12 56.62 37.91 54.11 39.04 52.45 Z" />
  <path
     id="path13107"
     fill="#544f33"
     d="M 60.36 53.32 L 60.82 53.27 L 60.18 53.84 L 60.36 53.32 Z" />
  <path
     id="path13109"
     fill="#b6b180"
     d="M 35.33 54.99 C 36.17 56.17 37.02 57.35 37.84 58.55 C 38.85 60.15 39.68 61.83 40.53 63.52 C 40.96 63.31 41.40 63.09 41.83 62.88 L 42.09 64.63 C 41.08 64.72 40.06 64.82 39.05 64.92 C 38.47 64.69 37.90 64.46 37.33 64.21 C 36.36 63.25 35.46 62.24 34.58 61.19 C 35.55 61.36 36.52 61.52 37.49 61.67 C 35.94 59.81 34.10 58.26 32.65 56.31 L 35.20 56.28 L 35.33 54.99 Z" />
  <path
     id="path13111"
     fill="#2e7a3d"
     d="M 54.19 57.27 C 59.20 57.02 64.00 58.35 68.97 58.29 C 68.99 58.92 69.00 59.56 69.00 60.20 C 64.36 60.59 59.74 60.84 55.09 61.09 C 55.60 62.39 56.08 63.68 56.71 64.93 C 54.53 64.73 52.37 64.77 50.19 64.91 L 49.99 64.88 C 50.50 64.14 50.99 63.41 51.48 62.69 C 52.26 63.70 53.41 64.32 54.95 64.54 C 54.81 63.32 54.65 62.10 54.50 60.88 C 52.74 60.86 50.97 60.84 49.20 60.89 C 49.10 60.09 49.03 59.29 48.97 58.48 C 50.37 58.16 51.77 57.86 53.18 57.58 C 54.36 58.48 55.57 59.29 56.84 60.05 C 55.98 59.10 55.08 58.19 54.19 57.27 Z" />
  <path
     id="path13113"
     fill="#191a1e"
     d="M 128.93 58.50 C 129.88 59.88 130.82 61.25 131.70 62.67 C 130.47 62.19 129.23 61.75 127.97 61.34 C 126.52 61.52 125.20 62.54 123.92 63.21 C 124.99 65.02 126.11 66.80 127.23 68.58 C 127.88 68.02 128.52 67.47 129.17 66.91 C 128.96 65.91 128.75 64.91 128.55 63.91 C 130.74 65.40 131.69 67.74 133.09 69.95 C 131.54 69.54 129.18 67.76 128.10 69.78 C 129.19 71.57 130.51 73.19 131.89 74.78 C 133.74 73.80 135.16 72.89 136.34 71.12 C 136.02 70.04 135.72 68.96 135.45 67.87 C 137.29 68.54 137.92 70.30 139.00 71.81 C 134.98 74.37 131.04 77.03 127.05 79.63 C 127.47 78.68 127.89 77.74 128.32 76.79 C 125.95 73.16 123.72 69.32 120.97 65.96 C 118.84 65.35 117.34 66.80 117.35 68.94 C 119.06 72.46 123.01 76.04 123.21 80.01 C 122.97 83.69 117.38 87.43 113.95 86.24 C 110.35 84.56 108.60 79.47 105.97 76.59 C 105.06 76.21 104.00 76.13 102.80 76.33 C 102.39 77.19 101.97 78.06 101.55 78.93 C 103.98 82.57 106.33 86.25 108.91 89.79 C 109.92 89.69 110.93 89.59 111.94 89.50 C 109.54 91.47 106.94 93.15 104.26 94.72 C 104.73 93.79 105.21 92.86 105.69 91.93 C 104.63 90.19 103.52 88.48 102.38 86.78 C 100.45 88.11 98.51 89.43 96.59 90.78 C 97.75 92.41 98.90 94.04 100.06 95.67 C 101.07 95.57 102.07 95.48 103.08 95.40 C 100.69 97.37 98.10 99.03 95.42 100.57 C 95.90 99.68 96.38 98.80 96.88 97.92 C 94.66 94.28 92.39 90.57 89.74 87.24 C 88.79 86.95 87.81 86.73 86.80 86.60 C 89.20 85.06 91.57 83.46 93.92 81.83 C 91.78 85.44 94.22 86.70 95.88 89.59 C 97.77 88.29 99.69 87.03 101.63 85.80 C 100.59 84.05 99.47 82.39 98.15 80.83 C 97.19 81.02 96.24 81.20 95.28 81.38 C 99.83 77.52 105.17 74.60 110.03 71.15 C 109.67 72.11 109.31 73.07 108.94 74.02 C 110.85 77.05 112.67 80.29 115.06 82.97 C 117.79 85.76 123.39 81.30 121.46 77.95 C 119.97 75.01 117.88 72.34 115.97 69.67 C 114.91 69.61 113.86 69.55 112.81 69.49 C 118.05 65.66 123.61 62.23 128.93 58.50 Z" />
  <path
     id="path13115"
     fill="#c0c4ca"
     d="M 49.20 60.89 C 50.97 60.84 52.74 60.86 54.50 60.88 C 54.65 62.10 54.81 63.32 54.95 64.54 C 53.41 64.32 52.26 63.70 51.48 62.69 C 50.99 63.41 50.50 64.14 49.99 64.88 C 49.32 63.51 49.06 62.18 49.20 60.89 Z" />
  <path
     id="path13117"
     fill="#9b9da2"
     d="M 69.00 60.20 C 69.24 62.03 68.87 63.51 67.90 64.64 C 67.45 63.94 67.00 63.23 66.56 62.53 L 66.74 64.24 C 63.41 64.36 60.02 65.24 56.71 64.93 C 56.08 63.68 55.60 62.39 55.09 61.09 C 59.74 60.84 64.36 60.59 69.00 60.20 Z" />
  <path
     id="path13119"
     fill="#ffffff"
     d="M 43.89 62.65 C 44.24 64.91 44.77 66.96 46.80 68.26 C 49.54 70.35 53.75 69.13 57.13 69.94 C 57.75 70.62 58.35 71.32 58.94 72.02 C 59.93 71.18 60.73 70.28 61.93 69.72 C 64.89 69.27 67.62 70.00 70.19 68.76 L 71.93 68.12 C 71.05 69.81 70.34 71.77 69.13 73.25 C 66.47 74.12 63.72 74.75 61.00 75.41 C 57.28 76.43 53.34 75.45 49.78 74.24 C 47.56 73.16 45.85 70.80 44.29 68.93 C 43.87 68.35 43.46 67.76 43.06 67.16 C 42.37 65.01 42.77 64.44 43.89 62.65 Z" />
  <path
     id="path13121"
     fill="#c9c6ae"
     d="M 37.33 64.21 C 37.90 64.46 38.47 64.69 39.05 64.92 C 38.82 65.47 38.60 65.98 38.39 66.46 C 40.14 68.50 41.41 70.67 42.49 73.12 C 40.50 72.41 39.79 72.56 39.37 70.43 C 38.41 69.86 37.45 69.30 36.49 68.75 C 36.77 67.23 37.06 65.72 37.33 64.21 Z" />
  <path
     id="path13123"
     fill="#b1a62f"
     d="M 39.05 64.92 C 40.06 64.82 41.08 64.72 42.09 64.63 C 42.28 65.55 42.61 66.39 43.06 67.16 C 43.46 67.76 43.87 68.35 44.29 68.93 C 45.45 70.66 46.40 72.19 46.16 74.38 C 44.94 73.96 43.71 73.54 42.49 73.12 C 41.41 70.67 40.14 68.50 38.39 66.46 C 38.60 65.98 38.82 65.47 39.05 64.92 Z" />
  <path
     id="path13125"
     fill="#236333"
     d="M 73.28 65.93 L 72.28 68.26 C 73.42 68.71 74.56 69.16 75.69 69.63 L 74.07 72.09 C 74.70 72.76 75.34 73.42 75.98 74.09 C 75.00 74.37 74.03 74.49 73.07 74.47 C 69.19 73.97 64.55 74.77 61.10 76.53 L 61.53 77.75 C 56.49 74.76 52.29 80.24 47.03 79.53 C 49.07 77.91 50.68 77.39 53.26 77.10 L 52.75 75.78 C 50.51 75.39 48.31 75.18 46.16 74.38 C 46.40 72.19 45.45 70.66 44.29 68.93 C 45.85 70.80 47.56 73.16 49.78 74.24 C 53.34 75.45 57.28 76.43 61.00 75.41 C 63.72 74.75 66.47 74.12 69.13 73.25 C 70.34 71.77 71.05 69.81 71.93 68.12 L 70.19 68.76 C 71.23 67.83 72.26 66.88 73.28 65.93 Z" />
  <path
     id="path13127"
     fill="#a1192e"
     d="M 153.81 69.60 C 153.88 92.06 153.80 114.55 153.86 137.01 C 153.88 138.53 153.65 139.61 152.84 140.89 C 146.73 150.86 139.67 160.19 131.93 168.95 C 131.00 170.00 129.91 170.84 128.81 171.71 C 128.44 167.13 128.62 162.58 128.60 158.00 C 128.58 135.01 128.63 111.99 128.57 89.00 C 128.71 87.34 128.35 86.02 130.04 85.12 C 137.98 80.01 145.64 74.30 153.81 69.60 Z" />
  <path
     id="path13129"
     fill="#c2bc82"
     d="M 61.10 76.53 C 63.92 77.18 66.80 76.59 68.05 79.78 C 65.75 79.44 63.59 78.85 61.53 77.75 L 61.10 76.53 Z" />
  <path
     id="path13131"
     fill="#a1192e"
     d="M 24.41 84.59 C 31.85 84.46 39.30 84.66 46.74 84.51 C 46.98 91.30 46.79 98.11 46.86 104.91 C 42.68 107.82 38.51 110.84 34.04 113.29 C 30.12 104.05 26.84 94.33 24.41 84.59 Z" />
  <path
     id="path13133"
     fill="#67213f"
     d="M 75.16 84.24 C 77.03 83.05 78.07 85.72 75.93 86.19 C 74.78 85.92 74.52 85.27 75.16 84.24 Z" />
  <path
     id="path13135"
     fill="#18191d"
     d="M 70.94 97.75 C 77.80 95.89 84.69 105.12 79.81 110.79 C 77.07 113.34 73.53 115.51 70.17 117.15 C 70.69 116.39 71.22 115.62 71.76 114.87 C 69.48 111.04 67.12 107.03 64.19 103.68 L 61.41 103.63 C 64.38 101.52 67.47 98.94 70.94 97.75 Z" />
  <path
     id="path13137"
     fill="#ffffff"
     d="M 72.10 99.61 C 75.14 101.35 77.36 104.68 78.44 107.96 C 79.02 110.33 77.22 111.08 75.88 112.59 C 72.07 109.73 69.89 104.75 67.19 100.89 C 68.87 100.19 70.18 99.22 72.10 99.61 Z" />
  <path
     id="path13139"
     fill="#08090e"
     d="M 85.61 102.53 C 87.73 101.45 89.54 103.54 88.41 105.47 C 86.65 107.87 83.38 104.25 85.61 102.53 Z" />
  <path
     id="path13141"
     fill="#a1192e"
     d="M 100.23 105.35 C 100.42 113.44 100.52 121.66 100.18 129.74 C 92.99 130.16 86.33 133.19 81.86 138.93 C 76.89 145.10 75.49 153.49 77.88 161.02 C 80.21 168.29 86.19 174.17 93.49 176.42 C 95.65 177.08 98.20 176.99 100.23 177.94 C 100.51 183.98 100.45 190.14 100.19 196.18 C 92.08 191.17 84.82 184.63 77.88 178.12 C 76.86 177.00 74.98 175.70 75.14 174.03 C 75.06 157.06 75.11 139.94 75.14 122.97 C 74.85 121.29 77.38 120.32 78.45 119.43 C 85.78 114.88 92.68 109.50 100.23 105.35 Z" />
  <path
     id="path13143"
     fill="#141519"
     d="M 54.71 108.44 C 55.65 109.76 56.36 111.08 56.93 112.59 C 55.39 111.97 53.77 110.84 52.07 111.14 C 50.62 111.60 50.02 112.49 49.64 113.92 C 51.50 117.82 57.77 113.29 60.71 116.26 C 63.09 118.39 63.29 121.71 60.96 123.96 C 59.16 126.02 56.40 124.99 55.19 127.65 C 54.10 126.07 53.04 124.42 52.09 122.75 C 54.47 123.46 57.29 125.77 59.52 123.52 C 60.95 122.09 60.64 120.28 58.89 119.37 C 56.36 118.76 53.52 119.94 50.93 119.38 C 48.45 118.26 46.67 114.84 48.45 112.43 C 49.75 110.43 52.73 109.69 54.71 108.44 Z" />
  <path
     id="path13145"
     fill="#4d4e51"
     d="M 69.03 117.95 C 67.83 120.20 66.90 119.80 64.80 119.10 C 64.84 118.03 64.88 116.96 64.92 115.88 C 67.01 115.04 68.65 115.57 69.03 117.95 Z" />
  <path
     id="path13147"
     fill="#d9cd47"
     d="M 106.37 132.24 C 103.76 134.21 100.55 134.93 97.99 137.03 C 93.50 140.29 90.63 144.73 88.20 149.63 C 85.56 147.63 83.25 145.45 81.05 142.98 C 86.32 134.07 96.23 129.72 106.37 132.24 Z" />
  <path
     id="path13149"
     fill="#d9cd47"
     d="M 110.10 133.62 C 113.81 135.72 116.75 138.12 119.16 141.68 C 110.59 142.77 104.40 146.60 99.04 153.25 C 95.91 152.71 92.93 151.80 89.97 150.66 C 93.02 141.61 100.85 135.48 110.10 133.62 Z" />
  <path
     id="path13151"
     fill="#dace47"
     d="M 120.22 143.35 C 124.29 151.53 123.38 161.78 116.85 168.39 C 116.93 164.16 117.17 160.14 115.96 156.01 C 114.98 152.23 113.07 148.94 110.85 145.77 C 113.84 144.31 116.96 143.80 120.22 143.35 Z" />
  <path
     id="path13153"
     fill="#d9cd47"
     d="M 80.16 144.89 C 83.00 147.12 85.16 149.86 88.45 151.55 C 92.64 154.02 97.22 154.80 102.02 155.03 C 102.86 157.77 103.40 160.51 103.71 163.36 C 95.20 166.01 86.26 164.35 79.53 158.46 C 78.49 157.63 78.50 156.23 78.40 155.02 C 78.20 151.53 78.87 148.13 80.16 144.89 Z" />
  <path
     id="path13155"
     fill="#d9cd47"
     d="M 109.11 146.50 C 114.60 153.01 116.63 162.34 114.42 170.55 C 111.94 173.53 107.07 174.88 103.43 175.71 C 106.15 167.76 106.07 159.50 102.49 151.85 C 104.54 149.86 106.70 148.03 109.11 146.50 Z" />
  <path
     id="path13157"
     fill="#d9cd47"
     d="M 79.76 161.11 C 87.51 166.10 94.79 167.60 103.86 165.16 C 103.48 168.88 102.76 172.25 101.54 175.78 C 92.04 176.24 82.78 170.17 79.76 161.11 Z" />
</svg>
