<?xml version="1.0" encoding="UTF-8" standalone="no"?>
<svg
   xmlns:dc="http://purl.org/dc/elements/1.1/"
   xmlns:cc="http://creativecommons.org/ns#"
   xmlns:rdf="http://www.w3.org/1999/02/22-rdf-syntax-ns#"
   xmlns:svg="http://www.w3.org/2000/svg"
   xmlns="http://www.w3.org/2000/svg"
   xmlns:sodipodi="http://sodipodi.sourceforge.net/DTD/sodipodi-0.dtd"
   xmlns:inkscape="http://www.inkscape.org/namespaces/inkscape"
   inkscape:version="1.0 (4035a4f, 2020-05-01)"
   sodipodi:docname="38.svg"
   id="svg3839"
   height="200.0pt"
   width="200.0pt"
   viewBox="0 0 200 200"
   version="1.1">
  <metadata
     id="metadata3845">
    <rdf:RDF>
      <cc:Work
         rdf:about="">
        <dc:format>image/svg+xml</dc:format>
        <dc:type
           rdf:resource="http://purl.org/dc/dcmitype/StillImage" />
      </cc:Work>
    </rdf:RDF>
  </metadata>
  <defs
     id="defs3843" />
  <sodipodi:namedview
     inkscape:current-layer="svg3839"
     inkscape:cy="133.33333"
     inkscape:cx="133.33333"
     inkscape:zoom="1.75125"
     showgrid="false"
     id="namedview3841"
     inkscape:window-height="480"
     inkscape:window-width="640"
     inkscape:pageshadow="2"
     inkscape:pageopacity="0"
     guidetolerance="10"
     gridtolerance="10"
     objecttolerance="10"
     borderopacity="1"
     bordercolor="#666666"
     pagecolor="#ffffff" />
  <path
     style="fill:#ffffff;fill-opacity:0"
     id="path3781"
     fill="#ffffff"
     d="M 0.00 0.00 L 200.00 0.00 L 200.00 200.00 L 0.00 200.00 L 0.00 0.00 Z" />
  <path
     id="path3783"
     fill="#0756a4"
     d="M 89.88 7.73 C 87.96 10.85 85.05 12.96 82.91 15.90 C 80.90 18.56 78.55 20.92 75.77 22.77 C 69.10 27.35 61.98 28.76 54.90 32.58 C 57.90 31.68 60.80 30.53 63.79 29.63 C 68.35 28.20 73.72 28.65 78.48 28.65 C 76.13 28.19 73.79 27.76 71.45 27.27 C 78.38 23.81 86.58 23.32 92.65 18.70 C 87.76 19.08 83.26 20.67 78.55 21.87 C 80.82 19.75 83.07 17.64 85.03 15.22 C 88.27 15.71 91.55 15.85 94.80 16.30 C 101.58 17.26 109.06 15.91 115.88 15.10 C 117.85 17.47 120.04 19.60 122.29 21.70 C 117.72 20.48 113.24 19.13 108.49 18.79 C 110.84 20.44 113.24 21.93 116.02 22.75 C 120.63 24.12 124.97 26.18 129.63 27.41 C 127.08 27.86 124.53 28.25 121.99 28.71 C 126.34 28.73 130.78 28.43 135.04 29.48 C 138.45 30.32 141.80 31.34 145.26 31.94 C 138.86 28.91 132.80 28.06 127.18 23.81 C 124.06 21.40 120.49 18.99 118.07 15.89 C 115.85 13.05 113.06 10.77 110.90 7.87 C 115.54 8.93 119.37 11.66 124.02 12.55 C 130.42 13.90 137.15 14.57 142.77 18.22 C 148.97 22.40 153.03 28.51 156.30 35.10 C 158.22 35.53 160.78 35.19 161.83 37.24 C 161.97 38.78 161.05 40.43 160.54 41.86 C 162.05 44.14 163.51 46.45 164.95 48.78 C 163.79 48.52 162.64 48.25 161.49 47.99 C 160.73 46.64 159.96 45.29 159.17 43.95 C 157.41 44.60 155.68 45.26 153.81 45.54 C 153.38 43.51 153.17 41.45 152.92 39.39 C 146.28 39.50 139.64 39.61 132.99 39.56 C 126.93 39.70 120.77 36.28 115.66 33.31 C 112.30 31.22 108.74 30.57 105.07 29.04 C 108.74 27.37 112.56 27.32 116.53 27.13 C 111.32 23.98 105.98 20.06 100.19 18.13 C 94.63 20.66 89.34 24.08 83.99 27.07 C 88.11 27.28 92.08 27.31 95.93 28.98 C 92.07 30.62 88.14 31.21 84.62 33.61 C 77.97 37.88 70.93 39.90 63.00 39.76 C 58.12 39.94 52.77 38.71 48.02 39.80 C 47.58 41.81 47.27 43.72 47.01 45.77 C 45.36 45.24 43.71 44.68 42.07 44.09 C 40.32 46.39 38.66 48.18 36.05 49.56 C 37.30 46.64 38.82 43.92 40.53 41.25 C 39.81 39.92 39.09 38.59 38.38 37.25 C 40.56 35.87 42.39 35.36 44.96 35.14 C 48.55 24.94 57.12 17.69 67.16 14.21 C 70.48 13.12 74.11 13.01 77.54 12.34 C 81.94 11.46 85.49 8.84 89.88 7.73 Z" />
  <path
     id="path3785"
     fill="#ffffff"
     d="M 77.14 15.97 C 70.19 22.61 61.77 25.86 52.93 29.20 C 56.27 25.55 59.36 20.97 64.21 19.36 C 68.42 17.91 72.86 17.16 77.14 15.97 Z" />
  <path
     id="path3787"
     fill="#ffffff"
     d="M 123.83 16.73 C 128.83 18.16 134.12 19.04 138.91 21.08 C 142.67 22.63 144.73 26.54 147.21 29.61 C 141.78 27.60 136.68 24.98 131.49 22.45 C 128.59 20.96 126.21 18.94 123.83 16.73 Z" />
  <path
     id="path3789"
     fill="#ffffff"
     d="M 82.27 31.55 C 77.97 33.64 73.93 35.83 69.05 36.09 C 63.99 36.35 58.91 36.28 53.85 36.16 C 63.07 31.21 72.16 32.11 82.27 31.55 Z" />
  <path
     id="path3791"
     fill="#0756a4"
     d="M 164.82 30.68 C 170.92 38.19 177.91 46.28 181.92 55.12 C 185.25 62.51 185.18 70.47 183.21 78.22 C 184.51 79.33 185.51 80.74 186.78 81.86 C 185.52 83.47 183.78 84.94 182.88 86.78 C 182.54 88.54 182.80 90.44 182.43 92.20 C 181.81 93.84 180.81 95.37 179.95 96.89 C 179.81 94.25 179.71 91.62 179.63 88.98 C 178.27 88.02 176.91 87.13 175.69 85.98 C 176.19 83.78 177.08 81.72 177.89 79.62 C 172.04 71.57 163.04 67.71 156.83 60.14 C 154.49 57.33 153.61 54.16 151.95 51.01 C 150.64 48.37 147.92 46.93 145.75 45.06 C 148.23 45.10 150.57 44.99 152.98 45.72 C 162.70 48.64 171.35 54.60 176.63 63.37 C 179.13 67.35 180.26 71.73 182.29 75.90 C 181.37 71.21 179.61 66.76 178.71 62.05 C 177.08 54.38 173.69 47.17 168.42 41.33 C 169.65 47.47 173.02 52.28 175.47 57.92 C 171.60 55.45 167.16 52.86 165.54 48.29 C 162.96 43.02 164.62 36.43 164.82 30.68 Z" />
  <path
     id="path3793"
     fill="#0756a4"
     d="M 36.11 30.93 C 36.19 36.08 37.36 41.93 35.97 46.93 C 34.46 51.96 29.79 54.92 25.78 57.82 C 28.05 52.30 30.60 47.27 32.34 41.57 C 29.78 44.71 27.54 48.10 25.70 51.71 C 23.29 56.41 22.65 61.74 20.78 66.82 C 19.65 69.89 18.87 72.93 18.65 76.20 C 21.57 69.67 23.47 62.87 28.60 57.62 C 35.22 50.65 44.90 44.97 54.68 44.75 C 53.04 46.30 51.05 47.84 49.81 49.74 C 48.22 52.24 47.28 55.19 45.72 57.74 C 40.02 66.75 29.17 71.04 23.26 79.34 C 23.66 81.70 24.78 83.89 25.29 86.24 C 24.03 87.36 22.64 88.19 21.23 89.10 C 21.15 91.77 21.12 94.44 21.09 97.11 C 19.84 94.48 18.59 91.97 18.37 89.02 C 18.34 85.51 15.78 84.36 14.12 81.45 C 15.24 80.32 16.51 79.37 17.73 78.35 C 15.78 71.75 16.18 64.44 18.03 57.87 C 20.81 48.73 28.20 40.51 34.18 33.21 C 34.83 32.45 35.47 31.69 36.11 30.93 Z" />
  <path
     id="path3795"
     fill="#ffffff"
     d="M 120.30 31.92 C 124.63 31.77 128.70 31.48 132.97 32.37 C 137.27 33.24 141.50 34.86 145.62 36.35 C 140.71 36.77 135.59 37.73 130.80 36.14 C 127.23 34.93 123.78 33.35 120.30 31.92 Z" />
  <path
     id="path3797"
     fill="#030000"
     d="M 88.52 35.82 C 109.83 31.87 132.35 39.02 147.46 54.54 C 157.62 64.90 164.29 78.57 165.89 93.02 C 167.68 107.46 164.47 122.42 156.94 134.87 C 149.75 146.84 138.72 156.41 125.84 161.80 C 110.30 168.32 92.17 168.58 76.46 162.46 C 64.10 157.68 53.27 149.15 45.80 138.19 C 37.92 126.76 33.83 112.88 34.29 99.00 C 34.64 82.39 41.61 66.10 53.36 54.36 C 62.80 44.73 75.25 38.20 88.52 35.82 Z" />
  <path
     id="path3799"
     fill="#ffffff"
     d="M 124.23 41.65 C 136.78 46.70 147.58 55.81 154.65 67.35 C 163.22 81.12 166.15 98.14 162.77 113.99 C 160.18 126.39 153.83 137.91 144.67 146.68 C 132.90 158.24 116.50 164.84 100.00 164.61 C 87.25 164.70 74.90 160.64 64.32 153.63 C 63.54 146.35 62.90 139.05 62.24 131.76 C 67.20 126.32 72.31 123.34 79.49 121.67 C 86.10 119.66 92.73 119.90 99.37 121.56 C 106.46 123.35 111.36 120.09 117.50 117.37 C 124.33 114.21 131.67 117.59 137.45 113.46 C 141.48 110.76 142.62 105.95 146.03 103.06 C 149.08 101.10 153.61 100.97 156.68 98.71 C 158.76 97.22 160.69 95.02 161.42 92.53 C 161.82 90.72 161.23 88.62 160.96 86.82 C 155.72 86.06 151.71 82.95 146.82 81.43 C 140.58 80.01 136.46 84.76 131.01 84.88 C 127.59 83.65 125.22 80.52 121.57 79.50 C 111.76 76.08 103.61 81.84 94.35 76.59 C 92.47 69.91 85.52 66.41 79.05 65.95 C 70.34 65.60 63.59 69.10 56.00 72.68 C 56.84 70.48 58.45 68.28 58.71 65.92 C 56.76 61.79 49.93 62.21 48.47 66.47 C 47.72 68.16 49.91 69.80 50.75 71.04 C 52.84 91.00 54.52 111.01 56.55 130.98 C 54.04 133.81 50.90 138.11 54.52 141.44 L 57.42 139.75 C 57.61 142.84 57.91 145.92 58.25 148.99 C 45.67 137.72 37.63 121.95 36.62 105.01 C 35.61 90.08 40.00 74.98 48.92 62.96 C 58.34 50.15 72.58 41.08 88.23 38.15 C 100.24 35.95 112.91 37.00 124.23 41.65 Z" />
  <path
     id="path3801"
     fill="#ffffff"
     d="M 45.15 51.11 C 43.51 53.86 42.07 56.50 39.81 58.80 C 37.31 61.31 34.41 63.37 31.94 65.94 C 29.42 68.56 26.95 71.19 24.09 73.47 C 24.91 70.85 25.53 68.36 27.13 66.10 C 31.14 60.75 35.93 56.10 41.87 52.94 C 42.96 52.32 44.05 51.71 45.15 51.11 Z" />
  <path
     id="path3803"
     fill="#ffffff"
     d="M 157.04 51.36 C 158.06 51.88 159.08 52.42 160.09 52.97 C 167.59 56.94 173.31 63.80 175.96 71.86 C 169.84 66.68 162.97 61.29 158.66 54.45 C 158.11 53.43 157.57 52.39 157.04 51.36 Z" />
  <path
     id="path3805"
     fill="#ffffff"
     d="M 55.90 67.81 C 54.02 69.59 53.04 69.29 50.77 68.64 C 50.75 67.77 50.74 66.91 50.75 66.04 C 53.26 65.21 55.28 64.40 55.90 67.81 Z" />
  <path
     id="path3807"
     fill="#ffffff"
     d="M 52.16 70.61 L 54.35 71.56 C 56.17 89.36 57.67 107.20 59.47 125.01 C 59.98 127.37 58.85 128.65 57.84 130.68 C 55.72 110.70 53.81 90.64 52.16 70.61 Z" />
  <path
     id="path3809"
     fill="#0756a4"
     d="M 94.35 76.59 C 103.61 81.84 111.76 76.08 121.57 79.50 C 125.22 80.52 127.59 83.65 131.01 84.88 C 136.46 84.76 140.58 80.01 146.82 81.43 C 151.71 82.95 155.72 86.06 160.96 86.82 C 161.23 88.62 161.82 90.72 161.42 92.53 C 160.69 95.02 158.76 97.22 156.68 98.71 C 153.61 100.97 149.08 101.10 146.03 103.06 C 142.62 105.95 141.48 110.76 137.45 113.46 C 131.67 117.59 124.33 114.21 117.50 117.37 C 111.36 120.09 106.46 123.35 99.37 121.56 L 98.99 119.27 C 102.45 119.24 106.12 119.28 109.44 118.17 C 112.80 116.97 116.01 114.62 119.49 113.79 C 122.09 113.22 124.91 113.27 127.56 113.17 C 126.06 103.23 124.69 93.27 123.29 83.32 C 120.33 81.78 117.45 80.50 114.01 80.70 C 107.74 80.98 101.85 82.08 95.62 80.41 C 95.39 80.84 95.16 81.27 94.93 81.70 C 94.69 80.00 94.55 78.29 94.35 76.59 Z" />
  <path
     id="path3811"
     fill="#0756a4"
     d="M 33.22 77.35 C 32.66 80.82 31.20 84.53 31.96 87.97 C 32.91 93.52 33.57 99.69 32.12 105.21 C 30.08 112.09 27.57 118.86 25.23 125.65 C 21.64 114.55 28.14 101.97 29.10 90.85 C 25.01 96.49 25.94 103.62 22.74 109.93 C 23.37 115.32 22.92 120.65 24.07 125.99 C 26.03 126.99 27.86 128.09 29.65 129.35 C 29.02 130.64 28.37 131.92 27.73 133.20 C 28.76 135.41 29.80 137.62 30.81 139.85 C 29.38 139.02 27.94 138.19 26.51 137.35 C 25.73 132.76 22.27 132.93 19.13 130.49 C 19.91 129.16 20.62 127.78 21.44 126.47 C 15.94 119.28 11.25 111.96 9.17 103.02 C 8.01 98.37 8.13 93.73 8.45 88.98 C 8.72 84.99 7.65 81.54 7.09 77.54 C 10.16 81.22 13.48 84.85 16.14 88.84 C 18.44 93.74 19.33 99.46 20.34 104.76 C 21.32 96.41 24.18 88.71 28.72 81.65 C 29.92 79.83 31.55 78.70 33.22 77.35 Z" />
  <path
     id="path3813"
     fill="#ffffff"
     d="M 57.20 77.28 C 59.42 79.04 61.54 80.53 62.78 83.19 C 65.00 87.90 65.22 93.87 65.49 99.01 C 65.83 108.43 66.68 116.94 61.71 125.43 C 60.06 109.41 58.53 93.34 57.20 77.28 Z" />
  <path
     id="path3815"
     fill="#0756a4"
     d="M 167.74 77.74 C 169.45 78.91 171.12 79.88 172.21 81.70 C 176.27 88.83 179.53 96.35 180.76 104.53 C 181.64 98.83 182.29 91.64 186.04 87.05 C 188.58 83.90 190.90 80.61 193.36 77.40 C 192.49 82.79 192.18 87.58 192.68 93.02 C 193.14 106.23 186.72 116.84 179.06 126.99 C 180.13 128.10 181.19 129.21 182.25 130.33 C 180.08 131.89 177.77 133.20 175.39 134.39 C 175.28 135.29 175.17 136.19 175.05 137.08 C 173.47 137.89 171.88 138.70 170.30 139.51 C 171.23 137.39 172.18 135.29 173.13 133.17 C 172.53 131.91 171.93 130.64 171.34 129.38 C 172.99 128.09 174.70 127.01 176.56 126.04 C 178.24 120.71 177.57 115.47 178.09 110.01 C 175.10 103.22 176.49 96.79 171.76 90.80 C 172.21 101.18 177.03 109.49 176.79 120.03 C 176.75 122.06 175.80 123.67 175.06 125.55 C 174.30 122.67 173.72 119.75 172.96 116.87 C 171.49 111.41 168.65 106.69 168.06 101.02 C 167.55 96.52 168.31 92.39 169.04 87.99 C 169.78 84.69 168.25 81.09 167.74 77.74 Z" />
  <path
     id="path3817"
     fill="#ffffff"
     d="M 95.62 80.41 C 101.85 82.08 107.74 80.98 114.01 80.70 C 117.45 80.50 120.33 81.78 123.29 83.32 C 124.69 93.27 126.06 103.23 127.56 113.17 C 124.91 113.27 122.09 113.22 119.49 113.79 C 116.01 114.62 112.80 116.97 109.44 118.17 C 106.12 119.28 102.45 119.24 98.99 119.27 C 97.63 106.75 96.37 94.21 94.93 81.70 C 95.16 81.27 95.39 80.84 95.62 80.41 Z" />
  <path
     id="path3819"
     fill="#030000"
     d="M 106.10 85.28 C 109.51 84.99 113.16 84.86 116.54 85.48 C 119.40 91.14 120.36 97.90 122.36 103.93 C 122.82 105.86 124.10 108.31 123.42 110.26 C 121.31 111.15 119.13 111.28 116.88 111.33 C 116.45 109.14 116.04 106.94 115.61 104.75 C 113.11 104.77 110.74 104.63 108.29 105.10 C 107.44 107.47 107.08 110.04 106.44 112.49 C 104.36 112.53 102.28 112.54 100.20 112.48 C 101.42 104.72 102.43 96.92 103.61 89.16 C 103.87 87.85 104.42 85.32 106.10 85.28 Z" />
  <path
     id="path3821"
     fill="#ffffff"
     d="M 11.83 88.62 C 12.38 89.62 12.91 90.64 13.43 91.66 C 15.16 95.89 15.73 100.45 17.23 104.80 C 18.52 108.42 19.11 112.11 19.40 115.94 C 16.74 112.53 13.73 108.70 12.53 104.50 C 11.59 99.30 11.55 93.88 11.83 88.62 Z" />
  <path
     id="path3823"
     fill="#ffffff"
     d="M 188.75 89.59 C 189.18 98.47 187.54 107.36 181.82 114.41 C 183.89 106.08 186.43 97.86 188.75 89.59 Z" />
  <path
     id="path3825"
     fill="#ffffff"
     d="M 109.71 91.25 C 110.54 91.30 111.35 91.42 112.13 91.62 C 112.89 93.54 113.24 95.68 113.61 97.71 C 111.83 97.76 110.05 97.79 108.26 97.78 C 108.62 95.56 108.95 93.38 109.71 91.25 Z" />
  <path
     id="path3827"
     fill="#0756a4"
     d="M 31.41 117.96 C 32.64 121.27 33.36 124.46 36.01 126.99 C 40.01 131.09 42.47 136.00 44.91 141.12 C 46.60 144.68 46.89 148.19 47.97 151.96 C 48.70 154.44 49.26 156.90 49.50 159.49 C 48.04 157.86 46.63 156.26 45.72 154.25 C 41.71 145.68 38.43 136.03 32.87 128.35 C 35.11 136.14 38.05 143.92 41.96 151.03 C 44.40 155.55 48.09 158.84 52.14 161.88 C 53.76 161.79 55.35 161.69 56.96 161.88 C 58.36 163.26 58.38 165.12 58.87 166.96 C 60.99 168.35 63.08 169.78 65.04 171.40 C 61.77 171.35 58.74 170.45 55.66 169.48 C 54.41 169.86 53.16 170.18 51.89 170.44 C 49.97 169.72 49.47 167.75 48.50 166.13 C 37.43 161.50 27.46 155.54 20.35 145.63 C 16.55 140.07 13.24 134.17 9.67 128.46 C 16.57 130.31 22.90 135.17 28.44 139.55 C 32.08 142.34 33.34 146.21 34.89 150.34 C 28.46 145.37 25.01 138.67 17.44 135.03 C 24.96 144.10 33.47 153.83 44.01 159.35 C 39.43 154.39 35.40 149.25 33.28 142.73 C 30.80 134.57 28.21 126.30 31.41 117.96 Z" />
  <path
     id="path3829"
     fill="#0756a4"
     d="M 169.63 117.59 C 171.98 125.05 170.59 133.73 168.17 141.02 C 165.99 147.85 162.30 153.76 157.76 159.26 C 167.70 152.79 176.46 144.44 183.40 134.83 C 176.54 138.99 172.63 145.84 165.99 150.31 C 167.55 146.42 168.53 142.72 172.08 140.13 C 177.83 135.93 183.96 130.71 190.82 128.64 C 185.67 139.35 178.56 149.69 169.41 157.37 C 164.38 161.68 158.53 163.43 152.49 165.76 C 151.74 167.14 151.11 168.96 149.89 169.99 C 147.46 170.24 145.44 169.34 143.05 170.14 C 140.82 170.54 138.51 172.05 136.39 170.71 C 138.21 169.34 140.14 168.17 142.08 166.99 C 142.30 165.68 142.58 164.40 142.95 163.14 C 143.92 160.95 146.77 161.96 148.71 161.75 C 151.05 160.05 153.51 158.62 155.38 156.45 C 158.55 152.79 160.85 148.16 162.70 143.70 C 164.79 138.56 166.88 133.50 168.14 128.07 C 162.96 135.97 159.75 145.40 155.74 153.74 C 154.74 155.94 153.18 157.62 151.46 159.29 C 152.01 155.90 152.78 152.54 153.52 149.19 C 155.30 141.41 159.40 134.49 164.27 128.26 C 166.05 126.03 167.26 123.82 168.22 121.13 C 168.68 119.95 169.15 118.77 169.63 117.59 Z" />
  <path
     id="path3831"
     fill="#ffffff"
     d="M 60.16 134.04 C 60.89 139.94 61.38 145.87 61.95 151.78 C 61.15 151.20 60.35 150.62 59.55 150.03 C 59.24 145.96 58.53 141.87 58.51 137.79 C 58.94 136.50 59.58 135.27 60.16 134.04 Z" />
  <path
     id="path3833"
     fill="#0756a4"
     d="M 53.30 154.34 C 54.20 154.92 55.10 155.51 55.99 156.10 C 62.49 161.15 69.92 162.83 77.47 165.55 C 83.18 167.55 87.91 171.02 92.06 175.36 C 94.34 174.48 95.95 172.75 98.24 174.76 C 100.13 176.06 98.61 178.42 98.47 180.27 C 99.04 180.90 99.61 181.52 100.18 182.15 C 100.95 181.61 101.72 181.08 102.49 180.54 C 102.14 179.04 101.88 177.54 101.69 176.02 C 102.61 174.96 103.64 174.07 104.67 173.13 C 106.02 173.95 107.37 174.77 108.72 175.60 C 112.00 172.99 115.10 169.92 118.69 167.74 C 124.50 164.58 131.09 162.87 136.95 160.94 C 141.13 159.58 144.14 156.87 147.58 154.28 C 144.16 159.42 140.78 165.06 136.21 169.24 C 133.78 171.54 130.92 171.79 127.76 172.25 C 130.76 170.36 133.65 168.50 135.92 165.72 C 131.51 167.73 127.40 170.24 122.77 171.80 C 118.10 173.44 113.71 175.46 110.00 178.79 C 114.63 177.26 118.94 175.17 123.79 174.33 C 134.18 171.97 144.61 173.09 154.97 170.70 C 158.63 169.91 161.89 168.43 165.40 167.15 C 159.81 173.40 152.92 178.83 145.24 182.26 C 139.21 184.95 133.41 184.05 127.00 184.20 C 120.27 184.19 114.13 184.58 108.03 181.24 C 106.46 181.94 104.90 182.65 103.33 183.35 C 107.42 185.72 111.45 188.15 115.25 190.98 C 113.36 191.79 111.48 192.61 109.62 193.47 C 107.54 189.38 105.03 186.19 100.26 185.35 C 96.14 186.94 93.19 189.76 91.22 193.68 C 89.36 192.78 87.50 191.90 85.63 191.03 C 89.48 188.16 93.55 185.66 97.62 183.12 C 96.08 182.61 94.52 181.94 92.91 181.65 C 90.24 182.22 87.73 183.36 84.98 183.71 C 79.73 184.49 74.30 184.23 69.00 184.42 C 56.24 185.24 43.65 176.24 35.52 167.15 C 38.71 168.40 41.70 169.95 45.01 170.61 C 55.75 172.73 66.49 171.87 77.23 174.32 C 81.94 175.28 86.31 177.07 90.85 178.59 C 86.69 175.11 81.88 173.02 76.80 171.26 C 72.44 169.77 68.59 167.41 64.52 165.31 C 67.03 168.08 70.06 170.13 73.12 172.23 C 70.00 171.78 67.17 171.54 64.75 169.29 C 60.12 165.15 56.68 159.51 53.30 154.34 Z" />
  <path
     id="path3835"
     fill="#ffffff"
     d="M 49.40 174.47 C 54.27 174.54 59.11 175.19 63.99 175.32 C 71.40 175.54 78.41 177.98 85.68 180.09 C 80.30 181.69 74.53 181.76 68.99 181.19 C 62.25 179.86 55.70 177.16 49.40 174.47 Z" />
  <path
     id="path3837"
     fill="#ffffff"
     d="M 151.65 175.43 C 148.46 177.34 145.19 179.44 141.58 180.47 C 132.68 182.44 124.34 181.24 115.46 180.03 C 118.96 179.30 122.51 178.81 125.98 177.99 C 134.16 175.68 143.17 176.20 151.65 175.43 Z" />
</svg>
