<?xml version="1.0" encoding="UTF-8" standalone="no"?>
<!DOCTYPE svg PUBLIC "-//W3C//DTD SVG 1.1//EN" "http://www.w3.org/Graphics/SVG/1.1/DTD/svg11.dtd">
<svg xmlns="http://www.w3.org/2000/svg" version="1.1" viewBox="0 0 200 200" width="200.0pt" height="200.0pt">
<path d="M 0.00 0.00 L 96.89 0.00 C 72.26 0.98 47.51 8.27 26.62 21.42 C 23.10 38.95 22.49 57.19 23.68 75.01 C 25.95 105.45 34.81 135.17 53.09 159.92 C 65.42 176.76 81.68 190.12 99.99 200.00 L 0.00 200.00 L 0.00 0.00 Z" fill="#ffffff" />
<path d="M 96.89 0.00 L 103.23 0.00 C 127.82 1.01 152.52 8.27 173.39 21.39 C 177.50 41.90 177.81 63.29 175.49 84.03 C 172.18 111.79 163.08 138.62 146.10 161.06 C 133.88 177.38 117.95 190.33 100.07 200.00 L 99.99 200.00 C 81.68 190.12 65.42 176.76 53.09 159.92 C 34.81 135.17 25.95 105.45 23.68 75.01 C 22.49 57.19 23.10 38.95 26.62 21.42 C 47.51 8.27 72.26 0.98 96.89 0.00 Z" fill="#000000" />
<path d="M 103.23 0.00 L 200.00 0.00 L 200.00 200.00 L 100.07 200.00 C 117.95 190.33 133.88 177.38 146.10 161.06 C 163.08 138.62 172.18 111.79 175.49 84.03 C 177.81 63.29 177.50 41.90 173.39 21.39 C 152.52 8.27 127.82 1.01 103.23 0.00 Z" fill="#ffffff" />
<path d="M 101.00 3.46 C 123.83 3.74 146.67 10.27 166.63 21.26 C 168.16 22.30 170.50 23.01 170.65 25.14 C 174.25 45.82 174.39 67.22 171.50 88.00 C 167.73 114.70 158.31 140.21 141.45 161.47 C 130.18 175.74 115.93 187.31 100.03 196.07 C 85.78 188.22 72.85 178.14 62.20 165.81 C 50.89 152.80 42.32 137.48 36.59 121.25 C 27.04 94.25 24.75 64.32 27.82 35.96 C 28.36 31.95 28.60 27.66 29.85 23.80 C 30.80 22.55 32.65 21.77 33.99 20.93 C 54.35 9.88 77.77 3.34 101.00 3.46 Z" fill="#ffffff" />
<path d="M 100.00 6.86 C 123.48 7.03 146.95 13.87 167.26 25.57 C 170.17 42.17 170.65 59.24 169.39 76.03 C 166.99 105.09 158.41 133.25 140.75 156.76 C 129.85 171.33 115.82 183.16 100.04 192.15 C 84.43 183.32 70.57 171.61 59.71 157.31 C 42.78 135.01 34.05 108.41 31.09 80.77 C 29.22 62.39 29.67 43.86 32.74 25.62 C 53.04 13.86 76.50 7.07 100.00 6.86 Z" fill="#f01d21" />
<path d="M 79.34 14.03 C 84.18 17.97 88.37 22.76 92.95 27.01 C 95.30 24.70 97.67 22.40 100.03 20.09 C 102.37 22.40 104.72 24.70 107.06 27.01 C 111.59 22.58 116.15 18.18 120.70 13.76 C 129.03 21.89 137.41 29.96 145.76 38.06 C 138.86 44.75 131.95 51.43 125.04 58.11 C 131.96 64.77 138.78 71.54 145.75 78.16 C 140.03 83.74 134.28 89.31 128.54 94.87 C 130.33 104.26 132.55 113.58 134.02 123.03 C 134.82 128.93 137.81 133.93 138.12 139.97 C 139.19 152.93 132.71 165.76 121.93 172.93 C 109.80 181.25 93.28 181.87 80.56 174.46 C 68.73 167.76 61.12 154.68 61.87 141.00 C 61.97 134.49 65.12 129.27 66.01 122.98 C 67.54 113.57 69.66 104.25 71.57 94.90 C 65.80 89.34 60.02 83.78 54.30 78.17 C 61.25 71.52 68.09 64.76 75.04 58.12 C 68.09 51.46 61.19 44.74 54.28 38.05 C 62.71 30.15 70.75 21.72 79.34 14.03 Z" fill="#000000" />
<path d="M 79.33 17.88 C 86.42 24.27 93.11 31.21 100.05 37.79 C 106.89 31.06 113.80 24.38 120.69 17.69 C 127.68 24.49 134.70 31.28 141.72 38.06 C 134.81 44.73 127.92 51.45 120.98 58.10 C 127.93 64.75 134.72 71.56 141.70 78.16 C 134.72 84.99 127.68 91.75 120.69 98.57 C 113.82 91.85 106.92 85.17 100.05 78.46 C 93.15 85.17 86.21 91.83 79.35 98.57 C 72.41 91.70 65.29 85.02 58.34 78.17 C 65.30 71.52 72.13 64.75 79.08 58.12 C 72.13 51.47 65.25 44.73 58.32 38.05 C 65.39 31.41 72.17 24.41 79.33 17.88 Z" fill="#ffffff" />
<path d="M 100.02 24.02 C 101.70 25.68 103.38 27.32 105.08 28.95 C 103.39 30.58 101.71 32.22 100.04 33.87 C 98.35 32.21 96.65 30.57 94.93 28.95 C 95.94 27.98 96.96 27.01 97.97 26.03 C 98.65 25.37 99.33 24.70 100.02 24.02 Z" fill="#ffffff" />
<path d="M 121.85 24.16 C 123.20 25.57 124.56 26.98 125.92 28.39 C 122.35 32.28 118.19 35.82 115.04 40.06 C 115.38 41.98 116.54 42.91 118.08 43.95 C 122.56 40.95 125.93 36.22 129.84 32.51 C 131.22 33.95 132.60 35.38 133.98 36.82 C 129.75 40.95 125.89 45.56 121.45 49.47 C 118.42 51.62 113.92 48.45 111.97 46.04 C 109.65 43.19 107.91 38.99 110.70 35.82 C 114.23 31.77 118.20 28.10 121.85 24.16 Z" fill="#000000" />
<path d="M 81.44 27.53 C 84.06 28.83 84.53 31.29 85.41 33.81 C 88.94 34.83 91.59 36.75 94.24 39.23 C 92.93 40.49 91.62 41.74 90.30 42.98 C 88.52 41.31 86.71 39.68 84.83 38.12 C 83.19 39.53 81.58 41.00 79.99 42.48 C 81.80 44.24 83.62 45.99 85.44 47.74 C 84.10 49.03 82.76 50.32 81.43 51.62 C 76.32 46.67 71.23 41.71 66.08 36.80 C 69.36 33.80 72.43 30.53 75.81 27.62 C 77.18 26.31 79.88 26.84 81.44 27.53 Z" fill="#000000" />
<path d="M 77.48 32.62 C 78.64 33.14 79.69 33.96 80.74 34.65 C 79.40 36.13 78.02 37.57 76.63 39.00 C 75.61 38.01 74.59 37.03 73.57 36.05 C 74.84 34.89 76.08 33.62 77.48 32.62 Z" fill="#ffffff" />
<path d="M 96.43 51.33 C 100.07 49.42 104.72 50.72 106.70 54.36 C 108.66 57.73 107.60 62.22 104.41 64.41 C 100.94 66.87 95.94 65.90 93.62 62.34 C 91.09 58.62 92.47 53.42 96.43 51.33 Z" fill="#000000" />
<path d="M 127.15 68.79 C 131.38 72.35 131.77 77.20 131.04 82.37 C 129.36 81.29 127.68 80.19 126.02 79.07 C 125.66 76.09 125.30 73.60 122.01 72.66 C 116.55 71.81 112.71 80.43 117.37 83.69 C 119.29 85.21 121.80 83.65 123.80 83.04 C 125.41 84.14 127.02 85.23 128.61 86.35 C 124.92 89.30 121.11 91.56 116.25 89.70 C 109.21 86.77 107.44 77.63 111.64 71.61 C 115.00 66.40 122.22 64.70 127.15 68.79 Z" fill="#000000" />
<path d="M 75.12 67.53 C 76.49 68.65 77.82 69.85 79.15 71.02 C 76.83 73.20 74.54 75.41 72.26 77.63 C 73.24 78.52 74.23 79.40 75.22 80.29 C 77.02 78.53 78.83 76.78 80.64 75.03 C 81.92 76.20 83.19 77.37 84.47 78.54 C 82.60 80.33 80.74 82.13 78.86 83.91 C 81.00 85.78 83.11 87.66 85.24 89.54 C 83.78 90.95 82.32 92.35 80.87 93.76 C 75.19 88.59 69.46 83.49 63.73 78.38 C 67.54 74.78 71.26 71.07 75.12 67.53 Z" fill="#000000" />
<path d="M 100.05 82.47 C 101.35 83.62 102.60 84.88 103.84 86.10 C 101.30 86.08 98.76 86.08 96.22 86.10 C 97.48 84.86 98.72 83.63 100.05 82.47 Z" fill="#ffffff" />
<path d="M 95.86 88.05 C 99.13 87.73 103.32 87.38 106.36 88.73 C 111.33 93.06 115.83 97.98 120.69 102.44 C 122.10 101.11 123.52 99.77 124.96 98.46 C 127.33 102.10 127.53 106.06 128.44 110.19 C 122.62 104.08 115.43 100.39 107.26 98.50 C 106.48 96.16 106.10 93.59 103.98 92.05 C 101.10 89.73 96.61 90.50 94.62 93.58 C 93.75 95.10 93.24 96.90 92.69 98.56 C 84.08 100.54 77.80 103.98 71.52 110.19 C 72.52 106.09 72.81 102.15 75.12 98.51 C 76.55 99.81 77.95 101.13 79.35 102.46 C 83.28 98.69 87.17 94.87 91.05 91.06 C 92.59 89.69 93.63 88.18 95.86 88.05 Z" fill="#ffffff" />
<path d="M 92.58 101.89 C 92.61 103.41 92.64 104.92 92.68 106.43 C 88.33 107.57 84.11 108.89 80.24 111.23 C 76.58 113.31 73.80 116.46 70.01 118.34 C 74.45 109.58 83.33 104.32 92.58 101.89 Z" fill="#ffffff" />
<path d="M 107.41 101.88 C 116.80 104.37 125.43 109.49 130.08 118.28 C 126.40 116.60 123.83 113.65 120.40 111.60 C 116.36 109.03 111.93 107.62 107.33 106.43 C 107.36 104.91 107.39 103.40 107.41 101.88 Z" fill="#ffffff" />
<path d="M 115.04 112.19 C 105.24 111.97 95.97 112.51 87.49 117.97 C 85.56 116.60 83.59 115.28 81.62 113.97 C 92.32 108.11 103.77 107.54 115.04 112.19 Z" fill="#ffffff" />
<path d="M 78.97 115.83 C 84.96 119.55 90.78 124.28 94.91 130.04 C 98.03 134.18 99.27 138.58 99.47 143.73 C 87.81 140.44 78.63 132.76 71.46 123.21 C 73.76 120.53 76.16 117.98 78.97 115.83 Z" fill="#ffffff" />
<path d="M 118.05 115.71 C 123.36 115.42 127.24 121.99 130.27 125.58 C 126.93 124.20 123.63 122.93 120.01 122.52 C 112.06 121.55 104.35 123.92 97.46 127.77 C 95.17 125.01 92.71 122.45 90.09 119.98 C 98.83 115.08 108.31 114.83 118.05 115.71 Z" fill="#ffffff" />
<path d="M 117.00 125.46 C 122.93 125.51 128.14 127.88 132.90 131.23 C 133.44 133.15 133.97 135.07 134.50 137.00 C 128.69 134.64 123.89 134.96 118.07 137.02 C 115.45 135.64 113.09 134.28 110.03 134.19 C 107.06 134.03 104.40 134.86 101.58 135.65 C 100.80 133.83 99.99 132.01 99.17 130.20 C 104.84 127.38 110.54 125.22 117.00 125.46 Z" fill="#ffffff" />
<path d="M 69.42 126.28 C 77.06 135.97 86.73 143.63 98.80 146.88 C 97.07 150.68 95.08 153.83 92.27 156.94 C 81.31 153.67 72.94 146.29 65.31 138.08 C 66.23 133.89 67.57 130.14 69.42 126.28 Z" fill="#ffffff" />
<path d="M 115.75 139.42 C 117.46 154.06 109.01 168.01 97.45 176.42 C 90.78 175.71 85.62 173.87 79.91 170.41 C 87.14 165.90 94.22 161.22 98.96 153.92 C 102.06 149.27 102.96 144.22 102.56 138.69 C 107.21 137.26 111.51 136.27 115.75 139.42 Z" fill="#ffffff" />
<path d="M 135.07 140.85 C 134.93 147.88 133.56 154.67 129.60 160.59 C 123.68 169.80 113.71 175.27 102.93 176.44 C 107.84 172.02 112.16 167.09 115.04 161.08 C 118.37 154.46 119.56 147.23 119.42 139.87 C 125.06 138.26 129.76 138.09 135.07 140.85 Z" fill="#ffffff" />
<path d="M 65.01 142.45 C 72.27 149.79 79.47 156.42 89.54 159.64 C 85.56 162.85 81.48 165.66 77.10 168.28 C 73.33 164.69 70.00 160.79 67.93 155.96 C 65.94 151.67 65.32 147.13 65.01 142.45 Z" fill="#ffffff" />
</svg>