<?xml version="1.0" encoding="UTF-8" standalone="no"?>
<!DOCTYPE svg PUBLIC "-//W3C//DTD SVG 1.1//EN" "http://www.w3.org/Graphics/SVG/1.1/DTD/svg11.dtd">
<svg xmlns="http://www.w3.org/2000/svg" version="1.1" viewBox="0 0 200 200" width="200.0pt" height="200.0pt">
<path d="M 0.00 0.00 L 200.00 0.00 L 200.00 200.00 L 100.55 200.00 C 124.27 164.93 148.25 130.03 172.04 95.01 C 173.84 92.23 176.08 89.61 177.55 86.63 C 177.83 85.12 177.77 83.53 177.78 82.00 C 177.69 68.90 177.77 55.79 177.74 42.69 C 125.83 42.67 73.93 42.68 22.02 42.69 C 22.02 56.50 22.02 70.23 22.01 84.05 C 21.71 87.02 24.50 89.60 25.97 92.02 C 50.21 127.13 74.35 162.32 98.50 197.50 C 99.11 198.35 99.74 199.19 100.38 200.00 L 0.00 200.00 L 0.00 0.00 Z" fill="#ffffff" />
<path d="M 99.78 0.01 C 101.12 3.78 102.35 7.58 103.66 11.35 C 107.64 11.17 111.63 11.09 115.62 11.13 C 112.37 13.55 109.09 15.92 105.83 18.33 C 107.05 22.11 108.27 25.88 109.46 29.67 C 106.26 27.36 103.08 25.04 99.93 22.68 C 96.60 24.94 93.36 27.33 90.13 29.73 C 91.36 25.90 92.61 22.07 93.85 18.24 C 90.51 15.93 87.22 13.54 83.97 11.11 C 87.95 11.11 91.92 11.17 95.89 11.34 C 97.30 7.60 98.55 3.81 99.78 0.01 Z" fill="#b88647" />
<path d="M 22.02 42.69 C 73.93 42.68 125.83 42.67 177.74 42.69 C 177.77 55.79 177.69 68.90 177.78 82.00 C 177.77 83.53 177.83 85.12 177.55 86.63 C 176.08 89.61 173.84 92.23 172.04 95.01 C 148.25 130.03 124.27 164.93 100.55 200.00 L 100.38 200.00 C 99.74 199.19 99.11 198.35 98.50 197.50 C 74.35 162.32 50.21 127.13 25.97 92.02 C 24.50 89.60 21.71 87.02 22.01 84.05 C 22.02 70.23 22.02 56.50 22.02 42.69 Z" fill="#2760a5" />
<path d="M 26.01 45.28 C 75.55 45.29 125.10 45.28 174.64 45.29 C 174.64 58.09 174.64 70.90 174.64 83.70 C 125.09 83.72 75.55 83.70 26.01 83.71 C 26.00 70.90 26.00 58.09 26.01 45.28 Z" fill="#ffffff" />
<path d="M 31.63 53.22 C 35.53 53.28 39.43 53.29 43.33 53.28 C 43.33 54.55 43.33 55.83 43.33 57.11 C 41.11 57.12 38.89 57.12 36.68 57.13 C 36.67 58.75 36.67 60.37 36.66 61.99 C 38.83 62.00 40.99 62.00 43.16 62.01 C 43.16 63.31 43.16 64.62 43.17 65.92 C 41.00 65.93 38.83 65.93 36.67 65.94 C 36.66 69.22 36.66 72.51 36.66 75.79 C 34.98 75.79 33.31 75.80 31.63 75.80 C 31.65 68.27 31.58 60.75 31.63 53.22 Z" fill="#2760a5" />
<path d="M 50.26 53.02 C 52.76 53.15 55.75 52.47 57.73 54.27 C 61.24 57.09 60.94 61.94 61.01 66.01 C 60.94 69.64 60.45 73.99 56.55 75.49 C 53.59 76.37 48.45 76.31 47.01 72.93 C 45.21 68.70 45.37 63.46 46.00 58.99 C 46.42 56.17 48.34 54.84 50.26 53.02 Z" fill="#2760a5" />
<path d="M 63.83 53.37 C 67.65 53.20 72.75 52.58 76.07 54.90 C 78.28 57.67 77.79 62.04 75.38 64.57 C 78.50 67.96 77.89 71.50 77.95 75.76 C 76.34 75.77 74.72 75.79 73.10 75.81 C 73.06 72.85 72.86 69.92 72.29 67.01 C 71.03 67.00 69.76 66.99 68.49 66.99 C 68.53 69.90 68.56 72.81 68.60 75.72 C 67.00 75.72 65.40 75.72 63.79 75.73 C 63.78 68.28 63.78 60.82 63.83 53.37 Z" fill="#2760a5" />
<path d="M 78.83 53.38 C 83.87 53.37 88.91 53.38 93.96 53.37 C 93.96 54.64 93.96 55.91 93.96 57.18 C 92.28 57.19 90.61 57.19 88.93 57.20 C 88.91 63.41 88.93 69.62 88.92 75.82 C 87.28 75.82 85.64 75.82 84.01 75.83 C 83.99 69.61 84.01 63.40 84.00 57.19 C 82.27 57.19 80.55 57.18 78.83 57.18 C 78.83 55.91 78.83 54.65 78.83 53.38 Z" fill="#2760a5" />
<path d="M 98.43 53.39 C 100.29 53.22 102.19 53.26 104.06 53.26 C 106.19 60.80 108.47 68.31 110.47 75.88 C 108.74 75.86 107.01 75.85 105.28 75.83 C 104.95 74.25 104.61 72.67 104.28 71.10 C 102.16 71.08 100.04 71.07 97.93 71.05 C 97.52 72.70 97.12 74.35 96.74 76.01 C 95.09 75.96 93.44 75.93 91.79 75.89 C 94.13 68.44 95.85 60.74 98.43 53.39 Z" fill="#2760a5" />
<path d="M 112.05 53.28 C 113.66 53.29 115.26 53.29 116.87 53.29 C 116.89 59.45 116.87 65.61 116.90 71.78 C 119.19 71.79 121.49 71.79 123.79 71.81 C 123.78 73.11 123.78 74.42 123.78 75.72 C 119.87 75.73 115.96 75.73 112.05 75.73 C 112.04 68.25 112.03 60.77 112.05 53.28 Z" fill="#2760a5" />
<path d="M 125.08 53.39 C 129.22 53.41 133.36 53.45 137.50 53.47 C 137.50 54.68 137.49 55.90 137.48 57.12 C 135.00 57.12 132.52 57.13 130.03 57.13 C 130.03 58.86 130.03 60.60 130.03 62.34 C 132.29 62.35 134.54 62.34 136.79 62.35 C 136.80 63.55 136.81 64.75 136.82 65.94 C 134.56 65.96 132.29 65.96 130.03 65.97 C 130.03 68.04 130.03 70.10 130.03 72.17 C 132.69 72.19 135.34 72.23 137.99 72.30 C 141.12 67.27 144.22 62.23 147.30 57.18 C 144.44 57.20 141.57 57.21 138.71 57.23 C 138.69 55.95 138.68 54.68 138.68 53.40 C 143.24 53.33 147.80 53.31 152.36 53.32 C 152.09 55.38 152.20 57.24 151.08 59.05 C 148.52 63.29 145.79 67.42 143.21 71.66 C 146.27 71.70 149.32 71.78 152.37 71.88 C 152.38 72.94 152.39 74.00 152.40 75.06 C 154.38 67.73 156.61 60.47 158.57 53.13 C 160.52 53.12 162.47 53.11 164.42 53.10 C 166.59 60.70 168.69 68.31 170.99 75.87 C 169.24 75.83 167.49 75.79 165.74 75.75 C 165.35 74.17 164.96 72.59 164.57 71.00 C 162.48 71.00 160.39 71.00 158.30 71.00 C 157.86 72.60 157.40 74.21 156.95 75.81 C 146.32 76.06 135.70 75.69 125.07 75.80 C 125.06 68.33 125.05 60.86 125.08 53.39 Z" fill="#2760a5" />
<path d="M 53.97 56.56 C 55.41 58.16 56.02 59.80 56.17 61.95 C 56.30 66.10 56.74 70.26 52.99 73.00 C 49.76 68.99 49.65 63.86 51.02 59.09 C 51.48 57.46 52.32 56.83 53.97 56.56 Z" fill="#ffffff" />
<path d="M 68.32 55.90 C 69.62 56.33 70.92 56.73 72.23 57.13 C 72.38 58.76 72.60 60.29 72.05 61.88 C 70.95 62.65 69.40 62.78 68.13 63.13 C 68.17 60.72 68.17 58.31 68.32 55.90 Z" fill="#ffffff" />
<path d="M 101.08 58.65 C 101.86 61.55 102.55 64.47 103.25 67.39 C 101.77 67.40 100.30 67.41 98.83 67.43 C 99.52 64.49 100.26 61.57 101.08 58.65 Z" fill="#ffffff" />
<path d="M 161.50 58.35 C 162.17 61.25 162.86 64.15 163.56 67.04 C 162.08 67.05 160.60 67.07 159.11 67.09 C 159.92 64.18 160.69 61.26 161.50 58.35 Z" fill="#ffffff" />
<path d="M 26.18 85.56 C 75.60 85.52 125.02 85.47 174.45 85.50 C 149.78 121.68 125.08 157.83 100.32 193.94 C 76.06 158.76 52.06 123.40 27.92 88.14 C 27.34 87.28 26.76 86.42 26.18 85.56 Z" fill="#ffffff" />
<path d="M 36.11 90.87 C 56.74 90.88 77.37 90.85 97.99 90.86 C 98.01 120.97 98.00 151.09 98.00 181.20 C 77.41 151.07 56.77 120.96 36.11 90.87 Z" fill="#2760a5" />
<path d="M 102.71 90.88 C 123.24 90.89 143.76 90.86 164.28 90.90 C 143.71 120.96 123.11 151.00 102.55 181.06 C 102.76 151.00 102.71 120.94 102.71 90.88 Z" fill="#e3221d" />
</svg>