<?xml version="1.0" encoding="UTF-8" standalone="no"?>
<!DOCTYPE svg PUBLIC "-//W3C//DTD SVG 1.1//EN" "http://www.w3.org/Graphics/SVG/1.1/DTD/svg11.dtd">
<svg xmlns="http://www.w3.org/2000/svg" version="1.1" viewBox="0 0 200 200" width="200.0pt" height="200.0pt">
<path d="M 0.00 0.00 L 200.00 0.00 L 200.00 200.00 L 0.00 200.00 L 0.00 0.00 Z" fill="#ffffff" />
<path d="M 100.06 1.62 C 102.22 5.58 103.02 10.19 104.76 14.38 C 109.29 14.37 113.83 14.34 118.36 14.49 C 114.92 17.58 111.05 20.04 107.42 22.89 C 108.87 27.02 110.36 31.11 111.16 35.43 C 107.26 33.25 103.79 30.53 100.09 28.04 C 96.31 30.62 92.73 33.41 88.75 35.70 C 89.74 31.39 91.69 27.37 92.67 23.08 C 89.45 19.78 85.12 17.72 81.78 14.49 C 86.27 14.34 90.77 14.36 95.27 14.40 C 97.09 10.22 98.18 5.77 100.06 1.62 Z" fill="#c8cdd0" />
<path d="M 56.26 22.71 C 57.29 25.25 57.76 28.44 59.28 30.68 C 61.72 31.77 65.27 31.11 67.94 31.37 C 65.69 33.17 63.38 34.85 60.98 36.44 C 61.75 39.41 62.66 42.33 63.66 45.22 C 61.08 43.58 58.56 41.87 56.06 40.10 C 53.55 41.86 51.02 43.58 48.47 45.29 C 49.47 42.36 50.33 39.41 51.03 36.39 C 48.70 34.78 46.42 33.11 44.19 31.35 C 46.88 31.14 50.28 31.72 52.80 30.80 C 54.36 28.41 55.00 25.31 56.26 22.71 Z" fill="#c8a973" />
<path d="M 143.83 22.97 C 145.40 25.65 146.01 28.42 146.92 31.35 C 150.01 31.38 153.09 31.42 156.18 31.50 C 153.91 33.29 150.89 34.79 149.13 37.07 C 149.46 39.97 150.64 42.86 151.51 45.63 C 148.97 43.89 146.46 42.11 143.98 40.29 C 141.47 42.09 138.95 43.88 136.40 45.64 C 137.26 42.87 138.47 40.02 138.78 37.13 C 137.25 34.85 133.93 33.29 131.76 31.51 C 134.85 31.42 137.94 31.37 141.03 31.32 C 141.87 28.50 142.70 25.70 143.83 22.97 Z" fill="#c8a973" />
<path d="M 31.33 51.29 C 76.97 51.08 123.12 51.26 168.81 51.20 C 168.83 66.80 168.79 82.40 168.84 98.00 C 168.80 99.77 168.93 101.36 167.80 102.85 C 145.25 135.17 122.54 167.67 100.01 199.99 C 77.95 168.67 56.31 137.01 34.31 105.64 C 32.89 103.44 31.03 101.86 31.24 99.04 C 31.31 83.14 31.13 67.17 31.33 51.29 Z" fill="#000000" />
<path d="M 34.40 54.51 C 77.94 54.31 121.99 54.49 165.59 54.43 C 165.58 69.71 165.62 84.99 165.57 100.27 C 164.12 102.25 162.68 104.25 161.25 106.25 C 140.92 135.56 120.33 164.72 100.00 194.03 C 92.64 183.72 85.57 173.20 78.22 162.88 C 63.96 142.07 48.55 120.46 34.51 99.69 C 34.25 84.70 34.32 69.51 34.40 54.51 Z" fill="#ffffff" />
<path d="M 40.37 60.79 C 79.99 60.86 119.61 60.80 159.23 60.82 C 159.28 73.19 159.24 85.57 159.25 97.94 C 119.59 97.94 79.92 97.95 40.25 97.94 C 40.33 85.56 40.10 73.17 40.37 60.79 Z" fill="#000000" />
<path d="M 156.48 64.46 C 156.45 74.42 156.53 84.38 156.44 94.34 C 118.80 94.36 81.15 94.34 43.50 94.35 C 43.43 84.40 43.42 74.44 43.50 64.49 C 81.14 64.39 118.84 64.44 156.48 64.46 Z" fill="#ffffff" />
<path d="M 111.55 70.78 C 110.44 72.06 109.34 73.34 108.24 74.63 C 105.16 72.35 101.90 70.87 98.37 73.32 C 93.66 76.66 94.78 84.50 100.23 86.36 C 103.46 87.13 105.42 85.76 108.15 84.42 C 109.51 84.60 110.66 86.29 111.75 87.10 C 109.89 88.63 108.23 90.21 105.84 90.87 C 101.11 92.24 96.05 90.89 92.90 87.05 C 88.59 81.95 89.58 73.85 94.77 69.75 C 99.71 65.99 106.96 66.72 111.55 70.78 Z" fill="#000000" />
<path d="M 147.66 70.18 C 146.60 71.58 145.53 72.96 144.46 74.35 C 141.60 72.62 138.91 71.15 135.54 72.71 C 131.14 74.94 130.13 80.96 133.48 84.54 C 136.02 87.46 140.24 86.85 143.41 85.43 C 143.40 84.31 143.39 83.20 143.38 82.08 C 141.72 82.08 140.07 82.07 138.42 82.07 C 138.41 80.54 138.41 79.02 138.40 77.49 C 141.73 77.50 145.06 77.50 148.39 77.52 C 148.40 80.89 148.39 84.27 148.45 87.64 C 145.24 89.86 142.05 91.61 137.99 91.37 C 132.14 91.31 126.99 86.87 126.39 81.00 C 125.62 75.57 128.81 70.12 133.88 68.08 C 138.71 66.49 143.44 67.51 147.66 70.18 Z" fill="#000000" />
<path d="M 61.16 67.63 C 62.80 67.55 64.47 67.55 66.11 67.54 C 69.06 75.47 72.77 83.04 75.94 90.87 C 74.14 90.90 72.34 90.91 70.54 90.92 C 69.81 89.14 69.06 87.36 68.30 85.59 C 65.10 85.62 61.90 85.62 58.70 85.60 C 58.09 87.30 57.48 89.00 56.91 90.72 C 55.02 90.83 53.14 90.90 51.25 90.96 C 54.74 83.25 58.00 75.48 61.16 67.63 Z" fill="#000000" />
<path d="M 63.65 73.78 C 64.69 76.25 65.71 78.73 66.73 81.21 C 64.62 81.22 62.51 81.22 60.40 81.21 C 61.47 78.73 62.54 76.24 63.65 73.78 Z" fill="#ffffff" />
<path d="M 44.59 106.22 C 61.97 106.19 79.35 106.43 96.73 106.36 C 96.69 131.29 96.93 156.23 96.68 181.16 C 79.60 156.00 61.84 131.26 44.59 106.22 Z" fill="#fe0000" />
<path d="M 155.19 106.29 C 137.56 131.12 120.43 156.32 102.74 181.11 C 102.64 156.22 102.73 131.33 102.70 106.44 C 120.20 106.37 137.70 106.16 155.19 106.29 Z" fill="#000000" />
</svg>