<?xml version="1.0" encoding="UTF-8" standalone="no"?>
<!DOCTYPE svg PUBLIC "-//W3C//DTD SVG 1.1//EN" "http://www.w3.org/Graphics/SVG/1.1/DTD/svg11.dtd">
<svg xmlns="http://www.w3.org/2000/svg" version="1.1" viewBox="0 0 200 200" width="200.0pt" height="200.0pt">
<path d="M 0.00 0.00 L 200.00 0.00 L 200.00 200.00 L 100.37 200.00 C 105.07 199.52 109.89 199.30 114.52 198.44 C 131.87 195.27 148.14 185.96 159.63 172.58 C 169.53 161.24 176.05 146.93 178.09 132.01 C 180.24 117.74 178.13 102.80 172.45 89.56 C 165.80 74.09 154.08 60.89 139.46 52.51 C 126.97 45.27 112.43 41.64 98.00 41.96 C 84.63 42.39 71.42 46.03 59.91 52.87 C 42.89 62.81 30.00 79.31 24.38 98.19 C 21.31 108.70 20.23 119.95 21.72 130.82 C 23.73 147.67 31.48 163.57 43.22 175.78 C 53.99 186.83 67.91 194.71 83.02 197.95 C 88.47 199.19 93.87 199.42 99.40 200.00 L 0.00 200.00 L 0.00 0.00 Z" fill="#ffffff" />
<path d="M 100.10 0.72 C 101.55 4.43 102.78 8.20 104.10 11.97 C 108.24 12.19 112.38 12.36 116.52 12.49 C 113.32 15.06 110.05 17.55 106.77 20.02 C 107.90 24.00 109.10 27.95 110.27 31.92 C 106.81 29.65 103.39 27.31 99.99 24.95 C 96.58 27.30 93.19 29.66 89.72 31.93 C 90.87 27.97 92.08 24.03 93.22 20.06 C 89.96 17.56 86.69 15.07 83.49 12.49 C 87.61 12.36 91.74 12.19 95.86 11.97 C 97.15 8.15 98.44 4.40 100.10 0.72 Z" fill="#ffdf1a" />
<path d="M 98.00 41.96 C 112.43 41.64 126.97 45.27 139.46 52.51 C 154.08 60.89 165.80 74.09 172.45 89.56 C 178.13 102.80 180.24 117.74 178.09 132.01 C 176.05 146.93 169.53 161.24 159.63 172.58 C 148.14 185.96 131.87 195.27 114.52 198.44 C 109.89 199.30 105.07 199.52 100.37 200.00 L 99.40 200.00 C 93.87 199.42 88.47 199.19 83.02 197.95 C 67.91 194.71 53.99 186.83 43.22 175.78 C 31.48 163.57 23.73 147.67 21.72 130.82 C 20.23 119.95 21.31 108.70 24.38 98.19 C 30.00 79.31 42.89 62.81 59.91 52.87 C 71.42 46.03 84.63 42.39 98.00 41.96 Z" fill="#006250" />
<path d="M 90.51 45.78 C 99.31 44.77 108.39 45.09 117.03 47.13 C 134.06 51.01 149.54 61.03 160.12 74.92 C 169.99 87.76 175.55 103.79 175.63 120.00 C 175.83 132.48 172.85 144.97 167.02 156.01 C 159.33 170.77 146.67 182.75 131.55 189.68 C 108.57 200.35 80.60 198.47 59.31 184.70 C 45.42 175.87 34.60 162.47 28.94 147.01 C 24.36 134.64 23.21 120.99 25.40 108.00 C 28.02 92.48 35.68 77.92 46.93 66.92 C 58.64 55.33 74.15 47.80 90.51 45.78 Z" fill="#ffffff" />
<path d="M 91.47 48.63 C 107.88 46.73 124.73 50.43 138.70 59.28 C 152.66 68.02 163.43 81.59 168.77 97.17 C 173.61 111.19 173.98 126.74 169.90 140.99 C 165.55 156.24 156.07 169.88 143.33 179.30 C 122.51 194.98 93.55 198.03 69.89 187.11 C 51.92 179.02 37.68 163.41 31.27 144.77 C 27.45 133.95 26.48 122.34 27.91 110.97 C 30.01 95.36 37.35 80.62 48.49 69.48 C 59.97 57.94 75.29 50.49 91.47 48.63 Z" fill="#006553" />
<path d="M 96.11 51.08 C 98.04 50.17 100.51 50.40 102.01 52.00 C 104.62 54.70 104.63 59.45 102.37 62.37 C 100.51 64.81 96.50 64.78 94.62 62.37 C 92.08 59.21 92.44 53.27 96.11 51.08 Z" fill="#d7e8e6" />
<path d="M 105.90 50.93 C 109.91 51.30 113.63 51.30 117.06 53.71 C 115.43 53.79 113.80 53.84 112.18 53.87 C 111.42 58.14 111.52 62.49 108.84 66.05 C 108.67 61.88 109.47 57.89 110.12 53.80 C 108.67 52.89 107.27 51.95 105.90 50.93 Z" fill="#b8d6d1" />
<path d="M 83.46 52.53 C 90.49 50.85 93.58 63.75 86.72 65.66 C 79.69 67.44 76.54 54.31 83.46 52.53 Z" fill="#ffffff" />
<path d="M 97.34 52.29 C 100.80 51.16 102.35 55.25 102.00 58.03 C 102.07 60.37 100.21 63.53 97.53 62.42 C 94.15 61.11 94.10 53.80 97.34 52.29 Z" fill="#006552" />
<path d="M 83.22 54.21 C 87.16 52.37 89.20 58.06 88.80 61.06 C 88.67 64.22 84.97 65.60 82.99 63.01 C 81.27 60.96 80.16 55.51 83.22 54.21 Z" fill="#006553" />
<path d="M 76.63 54.54 C 76.43 55.17 76.22 55.80 76.00 56.43 C 74.36 57.35 72.62 58.16 70.92 58.97 C 71.38 60.01 71.83 61.05 72.28 62.09 C 74.35 61.45 76.43 60.82 78.55 60.36 C 76.91 61.70 75.16 62.90 73.40 64.07 C 74.24 66.34 74.96 68.62 75.45 70.99 C 71.92 67.78 70.43 62.38 68.46 58.08 C 71.15 56.84 73.86 55.62 76.63 54.54 Z" fill="#c0dad6" />
<path d="M 126.46 55.96 C 129.10 56.83 132.82 58.17 133.82 61.04 C 133.16 62.46 132.29 63.75 131.44 65.06 C 130.87 67.20 131.23 69.91 128.53 70.52 C 125.92 70.76 122.99 68.76 120.61 67.81 C 122.49 63.85 124.17 59.71 126.46 55.96 Z" fill="#cae0dd" />
<path d="M 127.51 58.02 C 129.17 58.75 130.68 59.73 132.07 60.90 C 130.91 64.63 128.22 62.34 125.61 61.84 C 126.18 60.54 126.78 59.24 127.51 58.02 Z" fill="#006351" />
<path d="M 125.28 63.07 C 127.23 63.99 129.17 64.60 129.65 66.99 C 127.88 70.60 125.49 67.73 122.76 67.07 C 123.57 65.71 124.35 64.34 125.28 63.07 Z" fill="#006553" />
<path d="M 142.81 64.57 C 141.35 69.38 140.24 75.20 136.90 79.07 C 137.11 77.13 137.39 75.23 137.74 73.32 L 136.15 72.81 C 137.04 72.25 137.94 71.70 138.84 71.15 C 139.31 69.68 139.78 68.21 140.25 66.74 C 138.81 67.62 137.37 68.51 135.92 69.38 C 136.24 70.14 136.56 70.91 136.88 71.68 C 134.20 71.41 131.84 72.21 129.30 72.86 C 132.47 70.12 135.81 67.50 139.38 65.30 C 140.45 64.55 141.56 64.63 142.81 64.57 Z" fill="#cce2de" />
<path d="M 54.66 66.87 L 56.03 66.48 C 60.47 68.43 64.66 71.36 68.26 74.59 C 66.37 74.14 64.54 73.63 62.70 73.04 C 61.67 73.88 60.64 74.72 59.62 75.57 C 60.06 77.32 60.48 79.08 60.81 80.86 C 57.63 76.93 55.96 71.69 54.66 66.87 Z" fill="#d2e5e2" />
<path d="M 91.56 67.93 C 104.56 65.91 118.06 68.66 129.09 75.88 C 141.30 83.75 150.00 96.69 152.60 111.00 C 154.53 121.43 153.36 132.39 149.14 142.13 C 143.80 154.59 133.58 164.79 121.13 170.12 C 109.48 175.16 96.10 175.86 84.00 172.03 C 73.54 168.77 64.15 162.21 57.51 153.49 C 50.17 144.00 46.23 131.99 46.49 120.00 C 46.60 108.41 50.67 96.96 57.82 87.85 C 66.05 77.27 78.31 70.00 91.56 67.93 Z" fill="#ffffff" />
<path d="M 56.79 68.83 C 58.49 69.76 60.13 70.77 61.78 71.79 C 60.80 72.66 59.81 73.52 58.82 74.38 C 58.11 72.54 57.40 70.70 56.79 68.83 Z" fill="#257869" />
<path d="M 90.54 70.83 C 99.00 69.42 108.05 69.79 116.21 72.60 C 128.71 76.74 139.35 85.95 145.32 97.69 C 152.99 112.50 152.70 130.99 144.54 145.54 C 138.79 155.95 129.35 164.21 118.22 168.42 C 105.87 173.19 91.60 172.86 79.50 167.50 C 67.74 162.38 58.14 152.67 53.14 140.86 C 46.66 125.79 48.02 107.71 56.82 93.85 C 64.26 81.92 76.70 73.37 90.54 70.83 Z" fill="#006553" />
<path d="M 150.39 70.45 C 147.95 74.02 144.86 76.55 141.75 79.49 C 143.30 81.43 144.76 83.38 145.79 85.66 C 143.17 83.95 141.05 81.74 138.96 79.44 C 142.50 76.48 145.86 71.70 150.39 70.45 Z" fill="#cde2df" />
<path d="M 48.19 74.23 C 50.80 73.16 51.66 75.73 53.15 77.26 C 55.42 78.15 57.32 78.34 58.04 81.00 C 57.36 83.71 54.93 86.09 53.24 88.25 C 49.80 85.41 46.36 82.57 42.90 79.76 C 44.53 77.88 46.10 75.60 48.19 74.23 Z" fill="#d1e4e1" />
<path d="M 90.57 74.60 C 88.05 76.84 85.45 78.70 83.11 81.09 C 78.25 86.12 74.71 91.70 70.91 97.50 C 67.91 95.32 65.54 93.04 63.30 90.09 C 69.63 81.78 79.71 74.42 90.57 74.60 Z" fill="#ffffff" />
<path d="M 109.43 74.61 C 120.20 74.41 130.41 81.82 136.67 90.09 C 134.44 93.04 132.04 95.33 129.05 97.50 C 123.84 89.30 118.50 81.48 110.58 75.62 L 109.43 74.61 Z" fill="#ffffff" />
<path d="M 49.99 75.67 C 50.62 77.15 50.91 78.69 51.39 80.22 C 53.47 79.51 54.05 78.87 55.86 80.29 C 56.26 82.35 54.30 84.16 53.34 85.85 C 52.38 85.08 51.43 84.32 50.47 83.56 C 50.13 82.44 49.78 81.32 49.42 80.20 L 48.55 81.93 C 47.45 81.05 46.35 80.17 45.24 79.30 C 46.75 77.83 47.88 76.30 49.99 75.67 Z" fill="#006250" />
<path d="M 94.56 76.13 C 93.04 79.43 91.08 82.47 89.61 85.79 C 87.15 91.35 85.57 96.97 83.92 102.80 C 80.08 102.01 77.08 100.84 73.73 98.85 C 77.07 91.43 81.89 84.41 88.03 79.04 C 89.90 77.30 92.15 76.74 94.56 76.13 Z" fill="#ffffff" />
<path d="M 105.43 76.14 C 107.83 76.75 110.09 77.32 111.96 79.05 C 118.10 84.42 122.90 91.45 126.25 98.86 C 122.97 100.75 119.79 102.06 116.06 102.81 C 114.40 97.01 112.79 91.24 110.31 85.70 C 108.85 82.42 106.92 79.40 105.43 76.14 Z" fill="#ffffff" />
<path d="M 98.29 76.79 C 99.49 85.95 98.73 95.46 98.84 104.71 C 94.52 104.95 90.67 104.61 86.55 103.27 C 87.90 96.60 89.74 89.71 92.68 83.54 C 94.09 80.77 95.33 78.21 98.29 76.79 Z" fill="#ffffff" />
<path d="M 101.53 76.69 C 102.49 77.32 103.43 77.97 104.37 78.63 C 109.28 85.68 111.68 94.94 113.41 103.27 C 109.41 104.49 105.42 105.25 101.23 104.53 C 100.65 101.25 100.87 97.78 100.96 94.46 C 101.25 88.51 100.83 82.63 101.53 76.69 Z" fill="#ffffff" />
<path d="M 157.18 78.92 C 156.99 80.13 156.46 81.03 155.61 81.62 C 153.17 83.54 150.46 85.14 147.88 86.86 C 149.07 88.93 150.26 90.97 151.12 93.21 C 148.25 91.64 147.00 89.11 145.17 86.55 C 148.98 83.86 152.84 80.69 157.18 78.92 Z" fill="#c5ddd9" />
<path d="M 39.49 83.76 C 43.75 85.82 49.67 88.13 52.02 92.46 C 48.50 91.02 45.17 89.07 41.99 86.99 C 40.58 86.09 40.03 85.39 39.49 83.76 Z" fill="#cee2df" />
<path d="M 38.61 87.40 C 38.58 89.09 38.42 90.76 38.24 92.43 C 42.12 94.19 46.15 95.29 49.08 98.49 C 44.93 97.76 41.34 95.94 37.57 94.19 C 36.39 95.44 35.21 96.69 33.92 97.83 C 34.66 95.39 35.53 92.99 36.62 90.69 C 37.26 89.58 37.92 88.48 38.61 87.40 Z" fill="#cde2df" />
<path d="M 161.01 96.06 C 164.48 95.63 167.68 98.43 167.14 102.02 C 167.11 104.03 164.84 104.96 163.40 105.92 C 164.02 103.57 166.99 100.77 164.26 98.72 C 161.58 96.84 155.21 99.19 155.25 102.86 C 156.25 104.83 158.85 105.94 160.49 107.35 C 157.67 106.86 155.03 107.21 153.95 103.96 C 152.48 99.41 157.12 96.49 161.01 96.06 Z" fill="#cee3df" />
<path d="M 32.55 99.85 C 36.69 100.65 40.92 101.76 44.80 103.41 C 45.38 103.92 45.90 104.52 46.35 105.20 C 42.01 104.74 37.16 103.41 33.19 101.61 L 32.55 99.85 Z" fill="#b4d3ce" />
<path d="M 79.82 107.18 C 82.39 109.62 82.92 113.30 83.85 116.55 C 82.01 116.82 80.18 117.06 78.34 117.30 C 77.80 115.42 77.44 113.25 76.44 111.54 C 74.99 109.42 71.67 108.95 69.81 110.82 C 67.59 113.07 67.28 117.01 67.17 120.00 C 67.15 123.17 67.05 127.33 69.01 130.02 C 70.48 132.16 73.93 132.54 75.92 130.94 C 77.35 129.50 77.99 127.13 78.79 125.29 C 80.47 125.46 82.16 125.62 83.85 125.79 C 82.94 128.77 82.39 131.82 80.12 134.12 C 76.39 137.99 69.52 138.08 65.69 134.32 C 62.70 131.42 61.40 127.07 61.17 123.01 C 60.88 117.96 61.47 112.75 64.63 108.62 C 68.07 104.02 75.62 103.27 79.82 107.18 Z" fill="#ffffff" />
<path d="M 135.50 107.49 C 137.78 109.87 138.36 113.52 139.15 116.60 C 137.31 116.84 135.47 117.08 133.64 117.32 C 132.73 114.35 132.70 110.60 129.05 109.71 C 125.50 109.15 123.76 111.96 123.09 114.98 C 122.29 119.31 122.09 124.30 123.50 128.51 C 124.57 131.45 127.64 132.71 130.48 131.46 C 132.51 130.37 133.21 127.36 134.09 125.39 C 135.78 125.49 137.48 125.60 139.17 125.72 C 138.37 128.55 137.82 131.52 135.79 133.78 C 132.08 137.99 124.76 138.22 120.87 134.14 C 117.70 130.94 116.62 126.37 116.44 122.01 C 116.26 117.32 117.13 111.96 120.28 108.29 C 123.89 103.85 131.49 103.37 135.50 107.49 Z" fill="#ffffff" />
<path d="M 33.30 106.30 C 35.27 105.16 37.33 107.69 38.85 108.68 C 41.05 108.23 43.24 107.81 45.47 107.56 C 43.37 109.47 40.85 110.27 38.22 111.16 C 38.14 112.07 38.06 112.98 37.97 113.89 C 40.20 114.55 42.38 115.20 44.39 116.41 C 39.38 116.67 34.79 115.71 29.90 114.86 C 30.59 112.35 30.39 107.30 33.30 106.30 Z" fill="#cee2df" />
<path d="M 34.96 108.05 C 37.75 108.74 36.32 111.98 36.42 114.02 C 34.87 113.80 33.32 113.57 31.77 113.34 C 32.52 111.66 32.22 107.22 34.96 108.05 Z" fill="#00604d" />
<path d="M 170.10 109.03 C 167.20 111.85 161.80 111.28 157.96 112.02 C 158.06 114.40 158.10 116.78 158.00 119.17 C 156.55 116.42 156.15 113.48 155.79 110.45 C 160.68 109.85 165.24 109.02 170.10 109.03 Z" fill="#e0eeec" />
<path d="M 94.36 109.51 C 98.65 109.53 102.94 109.52 107.23 109.53 C 107.22 110.90 107.22 112.26 107.22 113.63 C 104.35 113.64 101.48 113.64 98.61 113.64 C 98.61 115.25 98.61 116.85 98.62 118.46 C 100.90 118.47 103.18 118.47 105.47 118.48 C 105.45 119.80 105.44 121.13 105.43 122.46 C 103.15 122.46 100.88 122.46 98.60 122.47 C 98.61 125.22 98.62 127.97 98.64 130.72 C 97.20 130.72 95.77 130.71 94.34 130.71 C 94.36 123.65 94.34 116.58 94.36 109.51 Z" fill="#ffffff" />
<path d="M 34.45 119.49 C 37.15 118.80 40.59 119.25 42.47 121.50 C 44.34 123.86 43.63 127.51 41.00 129.00 C 37.77 130.97 31.99 130.61 30.22 126.78 C 28.92 123.26 31.05 120.38 34.45 119.49 Z" fill="#d0e4e1" />
<path d="M 159.96 119.98 C 163.46 119.78 167.91 119.67 170.92 121.73 C 167.25 122.06 163.58 121.50 159.92 121.72 C 157.51 121.85 157.58 125.84 159.04 127.04 C 163.04 127.90 166.78 127.36 170.65 129.00 C 166.87 129.35 162.86 129.43 159.15 128.57 C 155.12 127.45 155.67 120.22 159.96 119.98 Z" fill="#ffffff" />
<path d="M 34.44 121.48 C 37.10 120.75 40.03 120.97 41.81 123.31 C 43.32 128.35 34.68 129.47 32.22 126.73 C 30.43 124.62 32.11 122.12 34.44 121.48 Z" fill="#006553" />
<path d="M 156.06 131.51 C 160.39 132.15 164.61 133.67 168.82 134.81 C 167.90 137.36 167.54 141.62 164.87 143.01 C 163.25 143.15 161.55 141.72 160.14 141.05 C 159.25 141.45 158.36 141.84 157.47 142.24 C 156.35 141.23 154.83 140.23 154.17 138.85 C 154.11 136.35 154.97 133.74 156.06 131.51 Z" fill="#bcd8d3" />
<path d="M 39.03 131.56 C 41.81 132.32 44.54 132.19 45.41 135.49 C 47.01 141.02 38.84 144.66 34.66 142.34 C 32.23 141.06 32.18 138.34 31.47 135.99 C 32.87 134.99 34.28 134.00 35.74 133.09 C 35.26 135.18 32.22 139.56 35.44 140.57 C 38.41 141.77 42.93 140.07 44.10 136.94 C 43.29 134.70 40.63 133.26 39.03 131.56 Z" fill="#bcd8d4" />
<path d="M 157.11 133.87 C 158.60 134.03 160.05 134.35 161.50 134.70 C 160.79 136.70 159.78 138.54 158.70 140.35 C 157.72 139.76 156.74 139.18 155.77 138.59 C 156.16 137.00 156.54 135.41 157.11 133.87 Z" fill="#006553" />
<path d="M 162.99 135.50 C 164.29 135.63 165.59 135.80 166.88 136.02 C 166.24 137.59 165.68 139.24 164.82 140.70 C 163.74 140.68 162.65 140.61 161.56 140.51 C 161.99 138.85 162.34 137.09 162.99 135.50 Z" fill="#006452" />
<path d="M 98.84 137.06 C 98.70 146.31 99.54 155.88 98.25 165.04 C 94.74 163.01 93.37 159.73 91.77 156.21 C 89.44 150.60 87.69 144.60 86.63 138.62 C 90.54 136.98 94.65 136.76 98.84 137.06 Z" fill="#ffffff" />
<path d="M 101.21 137.29 C 105.43 136.27 109.39 137.31 113.42 138.54 C 112.07 145.03 110.34 151.54 107.58 157.58 C 106.13 160.57 104.81 163.34 101.74 164.99 C 100.77 160.88 101.17 156.24 101.08 152.00 C 101.10 147.17 100.46 142.06 101.21 137.29 Z" fill="#ffffff" />
<path d="M 83.79 139.04 C 85.54 144.06 86.78 149.22 88.84 154.14 C 90.41 158.18 92.75 161.76 94.58 165.68 C 91.99 165.01 89.60 164.25 87.61 162.38 C 81.70 157.08 77.06 150.13 73.71 142.97 C 76.86 141.05 80.09 139.54 83.79 139.04 Z" fill="#ffffff" />
<path d="M 116.25 139.19 C 120.07 139.37 123.04 141.11 126.25 142.99 C 122.90 150.13 118.27 157.09 112.36 162.36 C 110.37 164.25 108.00 165.02 105.38 165.67 C 107.47 161.31 110.08 157.31 111.70 152.72 C 113.51 148.31 114.40 143.56 116.25 139.19 Z" fill="#ffffff" />
<path d="M 70.96 144.30 C 74.61 149.93 78.08 155.36 82.76 160.25 C 85.19 162.78 87.92 164.82 90.49 167.21 C 79.56 167.10 69.80 160.13 63.34 151.76 C 65.49 148.67 67.86 146.43 70.96 144.30 Z" fill="#ffffff" />
<path d="M 129.04 144.39 C 132.15 146.32 134.53 148.78 136.65 151.74 C 130.22 160.10 120.37 167.13 109.47 167.21 C 112.59 164.36 115.91 161.90 118.67 158.66 C 122.68 154.25 125.65 149.24 129.04 144.39 Z" fill="#ffffff" />
<path d="M 49.30 158.32 C 52.14 157.36 54.45 159.90 52.32 162.36 C 49.27 164.26 46.66 160.78 49.30 158.32 Z" fill="#ffffff" />
<path d="M 146.43 158.51 C 148.41 157.55 150.73 158.38 150.48 160.84 C 150.37 163.24 146.41 163.68 145.77 161.43 C 145.29 160.35 145.74 159.37 146.43 158.51 Z" fill="#ffffff" />
<path d="M 131.96 167.09 C 132.93 168.80 130.24 170.48 128.89 170.97 C 128.99 169.62 130.14 166.28 131.96 167.09 Z" fill="#b6d4cf" />
<path d="M 69.69 169.46 C 71.97 170.21 74.32 171.42 75.93 173.22 C 76.40 174.92 76.45 176.76 75.02 178.02 C 73.15 180.36 69.94 178.22 67.72 177.59 C 66.45 179.32 65.14 180.92 63.46 182.28 C 64.83 177.74 67.13 173.42 69.69 169.46 Z" fill="#cce1de" />
<path d="M 70.91 171.68 C 72.02 172.28 73.34 172.94 74.12 173.96 C 75.01 175.19 73.14 176.79 72.68 177.92 C 71.15 177.14 69.62 176.34 68.10 175.53 C 69.00 174.23 69.90 172.89 70.91 171.68 Z" fill="#006553" />
<path d="M 124.86 171.54 C 128.83 174.76 132.34 178.72 135.41 182.81 C 133.61 182.02 131.89 181.10 130.18 180.13 C 128.95 180.69 127.73 181.25 126.51 181.81 C 126.60 183.57 126.67 185.32 126.70 187.08 C 124.69 184.47 124.69 181.17 124.19 178.02 C 124.09 175.84 123.23 173.34 124.86 171.54 Z" fill="#c8e0dc" />
<path d="M 81.08 174.37 L 82.45 175.31 C 82.94 180.08 83.06 185.33 81.51 189.92 C 81.12 188.11 80.77 186.30 80.46 184.47 C 79.21 184.02 77.96 183.57 76.71 183.12 C 75.28 184.37 73.82 185.57 72.28 186.69 C 74.54 182.30 77.68 177.94 81.08 174.37 Z" fill="#bed9d5" />
<path d="M 117.61 173.91 C 120.39 178.07 121.30 183.54 121.91 188.43 C 117.88 186.57 114.90 182.27 111.62 179.31 C 112.54 183.18 113.65 186.94 114.03 190.92 C 110.90 187.11 110.26 181.23 109.54 176.50 C 113.72 177.42 116.69 182.34 119.77 185.12 C 118.79 181.41 117.75 177.78 117.61 173.91 Z" fill="#cce2de" />
<path d="M 125.50 174.55 C 126.97 175.85 128.23 177.29 129.61 178.69 C 128.45 179.22 127.28 179.75 126.11 180.28 C 125.89 178.37 125.65 176.46 125.50 174.55 Z" fill="#328072" />
<path d="M 80.99 176.80 C 81.00 178.85 80.99 180.90 80.98 182.95 C 79.71 182.53 78.44 182.11 77.17 181.69 C 78.43 180.05 79.70 178.41 80.99 176.80 Z" fill="#308072" />
<path d="M 87.73 176.50 C 90.20 177.08 95.25 176.81 96.36 179.67 C 97.67 181.67 95.18 183.77 94.21 185.39 C 94.64 187.60 95.02 189.82 95.26 192.07 C 93.37 190.06 92.52 187.64 91.68 185.08 C 90.64 184.90 89.60 184.73 88.55 184.56 C 88.32 186.36 88.09 188.16 87.86 189.96 L 85.84 189.89 C 86.48 185.43 87.05 180.96 87.73 176.50 Z" fill="#bad7d2" />
<path d="M 103.28 176.84 C 105.85 181.46 107.85 186.61 108.93 191.79 C 107.51 190.34 106.28 188.78 105.13 187.11 C 103.96 187.14 102.78 187.18 101.61 187.21 C 100.64 188.85 99.68 190.49 98.58 192.04 C 98.89 189.57 99.37 187.12 99.88 184.68 C 101.57 185.23 103.29 185.66 105.03 186.07 C 104.51 184.36 103.98 182.64 103.48 180.93 C 102.49 182.43 101.76 183.56 100.24 184.47 C 100.81 181.59 101.39 179.10 103.28 176.84 Z" fill="#bdd9d5" />
<path d="M 89.22 178.46 C 91.49 179.04 93.56 178.91 95.16 180.87 C 93.93 183.94 91.60 182.71 88.98 183.10 C 89.06 181.56 89.14 180.01 89.22 178.46 Z" fill="#006452" />
</svg>