<?xml version="1.0" encoding="UTF-8" standalone="no"?>
<!DOCTYPE svg PUBLIC "-//W3C//DTD SVG 1.1//EN" "http://www.w3.org/Graphics/SVG/1.1/DTD/svg11.dtd">
<svg xmlns="http://www.w3.org/2000/svg" version="1.1" viewBox="0 0 200 200" width="200.0pt" height="200.0pt">
<path d="M 0.00 0.00 L 98.55 0.00 C 83.59 0.55 68.91 3.69 55.52 10.51 C 36.12 20.06 20.07 36.13 10.50 55.52 C 3.72 68.86 0.56 83.47 0.00 98.38 L 0.00 0.00 Z" fill="#ffffff" />
<path d="M 98.55 0.00 L 101.60 0.00 L 102.57 0.05 L 103.31 0.09 C 121.34 0.85 138.90 6.09 154.05 15.94 C 169.15 25.59 181.57 39.45 189.49 55.52 C 196.31 68.91 199.46 83.59 200.00 98.55 L 200.00 101.60 C 199.45 112.63 197.91 124.24 193.79 134.55 C 182.33 166.57 153.60 191.29 120.24 197.85 C 113.99 199.03 107.74 199.74 101.38 200.00 L 98.45 200.00 C 83.01 199.42 67.89 196.09 54.18 188.83 C 28.16 175.59 8.75 150.56 2.48 122.04 C 1.12 115.24 0.27 108.38 0.00 101.45 L 0.00 98.38 C 0.56 83.47 3.72 68.86 10.50 55.52 C 20.07 36.13 36.12 20.06 55.52 10.51 C 68.91 3.69 83.59 0.55 98.55 0.00 Z" fill="#005e4f" />
<path d="M 101.60 0.00 L 200.00 0.00 L 200.00 98.55 C 199.46 83.59 196.31 68.91 189.49 55.52 C 181.57 39.45 169.15 25.59 154.05 15.94 C 138.90 6.09 121.34 0.85 103.31 0.09 L 102.57 0.05 L 101.60 0.00 Z" fill="#ffffff" />
<path d="M 96.53 18.96 C 116.82 18.26 137.22 24.99 152.59 38.36 C 175.22 57.46 185.93 89.19 178.88 118.04 C 172.49 147.70 148.22 172.34 118.53 178.82 C 90.04 185.95 58.49 175.87 39.25 153.73 C 30.15 143.43 23.57 130.69 20.81 117.20 C 13.96 88.19 25.35 56.12 48.44 37.41 C 61.95 26.06 78.98 19.92 96.53 18.96 Z" fill="#ffffff" />
<path d="M 100.00 33.39 C 126.96 33.22 152.84 50.74 161.94 76.24 C 155.23 76.28 148.49 76.44 141.79 76.22 C 140.22 75.29 139.25 73.32 138.14 71.91 C 129.74 59.91 115.57 52.72 101.00 52.46 C 81.80 51.59 63.05 64.17 56.04 81.97 C 48.48 99.32 52.97 120.41 66.39 133.61 C 75.21 142.68 88.34 148.04 101.00 147.53 C 109.54 147.52 117.98 144.66 125.23 140.24 C 134.84 134.22 141.87 124.95 145.34 114.17 C 130.27 114.12 115.19 114.17 100.12 114.15 C 100.12 107.90 100.11 101.66 100.13 95.41 C 122.18 95.45 144.23 95.36 166.28 95.46 C 168.46 120.44 154.76 145.72 132.89 157.88 C 120.89 164.56 106.68 167.80 92.98 166.32 C 78.15 164.50 64.05 158.16 53.42 147.58 C 40.57 135.41 33.27 117.64 33.34 100.00 C 33.16 91.04 35.36 82.57 38.51 74.26 C 45.54 57.60 59.30 44.05 76.29 37.72 C 83.99 35.10 91.82 33.24 100.00 33.39 Z" fill="#005e4f" />
<path d="M 0.00 101.45 C 0.27 108.38 1.12 115.24 2.48 122.04 C 8.75 150.56 28.16 175.59 54.18 188.83 C 67.89 196.09 83.01 199.42 98.45 200.00 L 0.00 200.00 L 0.00 101.45 Z" fill="#ffffff" />
<path d="M 200.00 101.60 L 200.00 200.00 L 101.38 200.00 C 107.74 199.74 113.99 199.03 120.24 197.85 C 153.60 191.29 182.33 166.57 193.79 134.55 C 197.91 124.24 199.45 112.63 200.00 101.60 Z" fill="#ffffff" />
</svg>