<?xml version="1.0" encoding="UTF-8" standalone="no"?>
<!DOCTYPE svg PUBLIC "-//W3C//DTD SVG 1.1//EN" "http://www.w3.org/Graphics/SVG/1.1/DTD/svg11.dtd">
<svg xmlns="http://www.w3.org/2000/svg" version="1.1" viewBox="0 0 200 200" width="200.0pt" height="200.0pt">
<path d="M 0.00 0.00 L 26.33 0.00 C 26.19 32.67 25.71 65.36 25.51 98.00 C 25.53 109.11 24.97 121.22 28.12 131.97 C 31.41 144.56 38.68 155.95 48.54 164.42 C 61.45 175.91 79.80 181.36 93.24 192.75 C 95.81 194.87 97.90 197.18 99.70 200.00 L 0.00 200.00 L 0.00 0.00 Z" fill="#ffffff" />
<path d="M 26.33 0.00 L 26.44 0.00 C 38.45 4.81 51.10 7.95 64.00 9.04 C 76.38 9.88 88.91 7.60 99.99 1.95 C 112.59 8.39 127.02 10.44 140.98 8.51 C 151.59 7.09 162.36 4.61 172.18 0.32 L 172.54 0.14 L 172.80 0.00 L 173.59 0.00 C 173.80 36.62 174.60 73.39 174.59 110.00 C 174.53 124.14 171.67 137.93 163.96 149.96 C 157.44 160.22 147.86 168.40 137.27 174.24 C 124.96 181.28 109.25 187.93 100.40 199.28 L 100.42 200.00 L 99.70 200.00 C 97.90 197.18 95.81 194.87 93.24 192.75 C 79.80 181.36 61.45 175.91 48.54 164.42 C 38.68 155.95 31.41 144.56 28.12 131.97 C 24.97 121.22 25.53 109.11 25.51 98.00 C 25.71 65.36 26.19 32.67 26.33 0.00 Z" fill="#591326" />
<path d="M 26.44 0.00 L 172.80 0.00 L 172.54 0.14 L 172.18 0.32 C 162.36 4.61 151.59 7.09 140.98 8.51 C 127.02 10.44 112.59 8.39 99.99 1.95 C 88.91 7.60 76.38 9.88 64.00 9.04 C 51.10 7.95 38.45 4.81 26.44 0.00 Z" fill="#ffffff" />
<path d="M 173.59 0.00 L 200.00 0.00 L 200.00 200.00 L 100.42 200.00 L 100.40 199.28 C 109.25 187.93 124.96 181.28 137.27 174.24 C 147.86 168.40 157.44 160.22 163.96 149.96 C 171.67 137.93 174.53 124.14 174.59 110.00 C 174.60 73.39 173.80 36.62 173.59 0.00 Z" fill="#ffffff" />
<path d="M 36.47 13.92 C 47.01 17.42 57.75 18.37 68.79 18.35 C 68.77 42.57 68.81 66.78 68.77 91.00 C 68.68 96.06 68.86 101.06 70.13 105.98 C 74.29 123.41 89.03 136.96 106.47 140.54 C 119.09 143.03 133.31 141.25 144.32 134.29 C 153.08 128.84 159.29 120.77 163.74 111.57 C 164.01 122.28 163.08 133.29 158.03 142.93 C 152.30 154.48 141.17 163.18 129.81 168.79 C 119.61 173.96 109.52 178.83 100.37 185.80 C 88.78 176.43 75.96 171.26 63.52 163.50 C 52.12 156.41 43.07 145.89 38.92 133.02 C 34.68 120.86 35.81 107.65 35.84 95.00 C 36.07 67.97 36.21 40.95 36.47 13.92 Z" fill="#ffffff" />
<path d="M 120.25 22.46 C 120.84 24.95 121.48 27.44 122.13 29.91 C 113.47 30.02 105.05 32.09 97.65 36.65 C 92.64 39.62 88.85 43.64 84.67 47.59 C 87.61 39.57 92.70 32.58 100.04 28.07 C 106.14 24.18 113.09 22.67 120.25 22.46 Z" fill="#ffffff" />
<path d="M 122.17 22.63 C 123.38 22.84 124.60 23.06 125.82 23.29 C 128.22 23.82 130.57 24.49 132.92 25.20 C 136.94 36.90 138.25 50.19 132.66 61.62 C 131.71 63.31 130.76 65.90 129.09 66.94 C 125.98 65.01 123.37 61.86 120.97 59.12 C 125.44 47.22 126.10 34.78 122.17 22.63 Z" fill="#ffffff" />
<path d="M 40.50 24.98 C 44.15 24.98 47.80 24.98 51.45 24.98 C 51.17 26.21 50.90 27.44 50.62 28.66 C 48.23 28.67 45.84 28.68 43.45 28.68 L 43.42 31.46 C 45.99 31.47 48.57 31.47 51.14 31.48 C 50.79 32.67 50.44 33.86 50.08 35.05 C 47.87 35.05 45.65 35.05 43.44 35.04 C 43.44 36.83 43.44 38.62 43.45 40.41 L 40.51 40.41 C 40.51 35.26 40.52 30.12 40.50 24.98 Z" fill="#591326" />
<path d="M 52.78 24.98 C 53.75 24.98 54.72 24.98 55.69 24.98 C 55.73 27.08 55.80 29.18 55.89 31.28 C 57.88 29.33 59.64 27.37 61.11 25.00 C 62.48 24.99 63.85 24.98 65.22 24.97 C 63.35 27.51 61.50 30.06 59.67 32.63 C 61.79 35.20 63.88 37.81 65.96 40.42 C 64.55 40.42 63.14 40.42 61.73 40.42 C 60.02 38.01 58.04 35.95 55.90 33.92 C 55.79 36.09 55.72 38.26 55.68 40.43 C 54.71 40.41 53.74 40.39 52.77 40.36 C 52.79 35.24 52.79 30.11 52.78 24.98 Z" fill="#591326" />
<path d="M 135.43 26.37 C 136.30 26.91 137.16 27.46 138.03 28.01 C 140.52 29.75 144.32 31.79 145.05 34.96 C 146.67 40.73 147.69 47.00 147.12 53.00 C 146.46 60.51 143.83 67.49 139.92 73.89 C 137.11 72.30 134.32 70.66 131.56 68.97 C 138.74 56.62 140.42 43.38 136.43 29.61 C 136.10 28.53 135.77 27.45 135.43 26.37 Z" fill="#ffffff" />
<path d="M 122.61 32.43 C 122.66 35.56 122.65 38.69 122.60 41.82 C 116.38 42.36 110.30 43.16 104.49 45.57 C 95.76 48.93 88.94 54.99 83.15 62.20 C 83.28 58.49 82.41 53.00 85.09 50.03 C 89.27 44.87 94.46 40.37 100.39 37.33 C 107.29 33.79 114.89 32.32 122.61 32.43 Z" fill="#ffffff" />
<path d="M 147.34 36.08 C 148.10 37.19 148.85 38.32 149.60 39.45 C 156.99 51.06 156.61 66.02 149.25 77.56 C 147.01 76.67 144.77 75.77 142.54 74.84 C 145.39 69.71 147.68 64.40 148.42 58.52 C 149.87 50.85 148.50 43.65 147.34 36.08 Z" fill="#ffffff" />
<path d="M 122.36 44.70 C 121.59 48.57 121.06 52.77 119.42 56.39 C 116.14 57.49 112.69 57.91 109.47 59.28 C 100.83 62.60 93.73 68.24 87.40 74.88 C 86.02 71.81 84.33 68.33 84.02 64.95 C 84.13 64.27 84.48 63.62 85.07 63.01 C 90.10 57.09 96.26 51.63 103.35 48.34 C 109.36 45.35 115.71 44.51 122.36 44.70 Z" fill="#ffffff" />
<path d="M 62.96 52.04 C 63.72 56.22 63.24 60.69 63.35 64.94 C 62.37 65.38 61.39 65.81 60.40 66.24 C 60.42 62.91 60.47 59.59 60.11 56.27 C 57.25 58.82 57.26 63.06 54.51 65.44 C 52.18 66.81 47.18 66.71 46.74 63.22 C 46.11 59.38 46.51 55.32 46.42 51.43 C 47.41 51.13 48.41 50.82 49.40 50.52 C 49.35 53.63 49.25 56.70 49.77 59.78 C 52.16 59.23 52.82 54.96 54.07 53.05 C 55.49 49.46 60.79 48.94 62.96 52.04 Z" fill="#591326" />
<path d="M 117.96 59.18 C 125.91 68.85 136.48 75.24 148.37 78.88 C 146.17 81.51 143.86 83.87 141.25 86.10 C 127.12 82.52 114.32 76.12 106.81 63.07 C 110.40 61.09 113.86 59.67 117.96 59.18 Z" fill="#ffffff" />
<path d="M 104.06 63.78 C 112.51 76.16 124.52 84.30 139.12 87.68 C 136.10 89.29 132.54 91.74 129.08 91.90 C 115.17 89.40 103.27 80.81 95.73 68.95 C 98.47 67.16 101.24 65.43 104.06 63.78 Z" fill="#ffffff" />
<path d="M 46.37 67.22 C 51.13 68.74 55.70 70.88 60.35 72.71 C 60.36 70.90 60.38 69.08 60.38 67.27 C 61.37 67.70 62.36 68.13 63.35 68.56 C 63.32 72.05 63.32 75.55 63.34 79.04 C 57.66 81.13 52.07 83.42 46.42 85.58 C 46.43 83.41 46.44 81.24 46.46 79.06 C 47.46 78.79 48.46 78.51 49.45 78.24 C 49.45 75.91 49.44 73.58 49.44 71.26 C 48.42 70.77 47.41 70.26 46.41 69.74 C 46.38 68.90 46.36 68.06 46.37 67.22 Z" fill="#591326" />
<path d="M 93.96 70.59 C 98.16 76.56 103.03 81.89 109.29 85.74 C 114.33 89.07 119.86 90.89 125.39 93.14 C 119.19 93.88 113.11 93.88 107.20 91.63 C 99.02 88.85 92.51 83.12 87.93 75.89 C 89.93 74.12 91.90 72.30 93.96 70.59 Z" fill="#ffffff" />
<path d="M 53.12 72.75 C 54.76 73.40 56.39 74.03 58.03 74.66 C 56.42 75.36 54.86 76.03 53.23 76.71 C 53.19 75.39 53.16 74.07 53.12 72.75 Z" fill="#ffffff" />
<path d="M 63.33 80.58 C 63.31 86.06 63.48 91.54 63.32 97.02 C 63.22 99.47 62.80 102.09 60.56 103.50 C 57.84 104.77 54.18 104.73 51.46 103.48 C 49.37 102.25 49.45 99.29 48.83 97.21 C 45.34 101.61 45.40 106.34 45.54 111.69 C 43.30 110.76 41.03 109.90 38.76 109.02 C 39.53 105.47 40.25 101.33 42.19 98.21 C 43.63 95.86 45.70 94.51 47.84 92.88 C 45.09 92.93 42.33 92.95 39.58 92.97 C 39.57 90.84 39.57 88.71 39.56 86.58 C 46.43 86.60 53.29 86.55 60.15 86.62 C 60.21 84.89 60.26 83.17 60.31 81.44 C 61.32 81.15 62.32 80.86 63.33 80.58 Z" fill="#591326" />
<path d="M 52.80 92.95 C 55.37 92.94 57.93 92.94 60.50 92.95 C 60.20 94.48 59.95 96.03 59.53 97.53 C 58.04 98.34 56.66 98.70 55.03 98.06 C 52.68 97.64 53.43 94.72 52.80 92.95 Z" fill="#ffffff" />
<path d="M 60.88 105.05 C 61.96 105.32 63.03 105.61 64.10 105.92 C 65.23 109.29 66.68 112.99 66.80 116.54 C 61.83 120.03 56.91 123.56 52.08 127.23 C 51.55 125.11 51.02 122.98 50.47 120.86 C 51.38 120.15 52.28 119.45 53.18 118.75 C 52.49 116.58 51.83 114.40 51.19 112.21 C 49.98 111.99 48.77 111.76 47.56 111.53 C 47.38 110.60 47.20 109.66 47.01 108.73 C 52.04 109.39 57.06 110.09 62.12 110.48 C 61.71 108.67 61.29 106.86 60.88 105.05 Z" fill="#591326" />
<path d="M 96.62 107.56 C 98.00 107.28 99.42 107.20 100.82 107.05 C 100.87 111.58 100.85 116.11 100.84 120.63 C 99.92 120.64 99.00 120.64 98.08 120.65 C 98.07 117.19 98.06 113.74 98.02 110.28 C 97.07 111.48 96.13 112.68 95.20 113.89 C 94.62 113.14 94.05 112.39 93.48 111.63 C 94.49 110.26 95.45 108.81 96.62 107.56 Z" fill="#ffffff" />
<path d="M 116.33 108.44 C 116.83 111.95 117.36 116.79 115.90 120.05 C 113.52 121.10 110.43 120.85 107.91 120.45 C 107.45 119.19 107.01 117.92 106.59 116.64 C 108.94 117.23 111.28 117.76 113.69 118.07 C 114.03 117.21 114.38 116.35 114.73 115.49 C 112.69 115.81 110.64 116.12 108.60 116.45 C 107.76 114.96 106.75 113.85 106.86 112.01 C 107.03 110.44 106.54 108.04 108.48 107.47 C 110.64 106.89 114.74 106.52 116.33 108.44 Z" fill="#ffffff" />
<path d="M 126.51 107.55 C 127.91 107.26 129.36 107.20 130.78 107.07 C 130.81 109.50 130.83 111.93 130.89 114.35 C 133.96 115.99 130.72 119.10 130.13 121.32 C 129.19 120.45 128.41 119.42 127.79 118.22 C 125.72 118.20 123.66 118.20 121.59 118.21 C 121.58 116.49 121.57 114.77 121.56 113.05 C 123.15 111.20 124.63 109.11 126.51 107.55 Z" fill="#ffffff" />
<path d="M 138.46 107.56 C 140.46 106.86 142.79 106.89 144.85 107.29 C 146.51 107.50 146.60 109.75 147.25 110.98 C 144.71 110.65 142.18 110.25 139.62 110.02 C 139.44 110.79 139.25 111.56 139.06 112.32 C 141.13 112.19 143.14 112.04 145.23 112.23 C 147.61 114.14 146.50 118.09 145.87 120.61 C 143.46 120.46 139.22 121.53 137.41 119.70 C 136.77 116.87 136.84 113.84 136.99 110.96 C 137.28 109.52 136.80 108.17 138.46 107.56 Z" fill="#ffffff" />
<path d="M 109.59 110.35 C 111.16 110.20 112.73 110.19 114.30 110.12 C 114.29 111.03 114.29 111.93 114.28 112.84 C 112.59 112.83 110.90 112.82 109.21 112.73 C 109.31 111.93 109.44 111.14 109.59 110.35 Z" fill="#591326" />
<path d="M 128.18 109.82 C 128.26 111.54 128.33 113.27 128.39 115.00 C 126.79 115.01 125.18 115.01 123.57 115.01 C 125.10 113.27 126.64 111.54 128.18 109.82 Z" fill="#591326" />
<path d="M 55.40 112.68 C 57.23 112.73 59.07 112.95 60.89 113.13 C 59.31 114.30 57.73 115.48 56.13 116.64 C 55.87 115.33 55.58 114.01 55.40 112.68 Z" fill="#ffffff" />
<path d="M 139.50 115.22 C 141.03 115.03 142.58 114.95 144.11 114.82 C 144.03 115.87 143.94 116.91 143.86 117.96 C 142.32 117.90 140.79 117.83 139.25 117.70 C 139.31 116.87 139.39 116.04 139.50 115.22 Z" fill="#591326" />
<path d="M 67.69 117.43 C 71.42 122.10 74.84 127.01 78.45 131.78 C 74.59 134.44 70.98 137.51 67.01 140.02 C 65.38 141.04 63.94 141.24 62.05 140.87 C 55.50 139.37 50.30 135.26 45.53 130.74 C 46.79 128.86 48.05 126.99 49.32 125.12 C 52.83 128.86 56.29 133.84 60.91 136.20 C 64.82 134.16 68.06 130.77 71.56 128.10 C 69.67 125.38 67.67 122.73 65.87 119.94 C 66.46 119.09 67.06 118.25 67.69 117.43 Z" fill="#591326" />
<path d="M 78.92 132.27 C 83.46 135.19 87.84 138.35 92.29 141.41 C 92.61 146.03 92.90 150.65 93.05 155.29 C 96.35 151.63 99.53 147.86 102.68 144.07 C 104.87 144.86 107.07 145.60 109.29 146.33 C 105.18 151.02 100.98 155.63 96.82 160.28 C 94.71 159.47 92.59 158.68 90.47 157.90 C 90.13 153.93 90.02 149.94 89.70 145.97 C 90.17 141.81 85.07 140.87 82.38 138.83 C 81.67 139.93 80.97 141.02 80.26 142.12 C 82.46 143.48 84.66 144.82 86.85 146.17 C 86.67 147.24 86.50 148.31 86.32 149.37 C 83.83 147.83 81.33 146.30 78.82 144.79 C 78.17 145.75 77.53 146.71 76.88 147.67 C 79.39 149.27 81.90 150.84 84.43 152.41 C 83.59 153.09 82.75 153.77 81.90 154.46 C 77.78 151.90 73.62 149.39 69.46 146.90 C 72.61 142.02 75.72 137.11 78.92 132.27 Z" fill="#591326" />
<path d="M 112.35 146.31 C 115.12 145.55 118.20 145.60 121.03 145.99 C 124.41 146.73 126.77 149.41 126.52 152.99 C 126.44 155.60 127.20 160.11 124.66 161.75 C 120.98 163.94 116.21 164.25 112.17 162.89 C 110.62 162.35 108.93 161.84 108.33 160.13 C 107.93 157.08 107.97 153.92 108.26 150.86 C 108.49 148.83 110.54 147.06 112.35 146.31 Z" fill="#591326" />
<path d="M 114.11 149.72 C 116.20 149.71 118.92 148.82 120.56 150.35 C 121.05 153.52 120.80 156.87 120.71 160.07 C 118.33 160.47 116.45 161.33 114.22 159.83 C 113.66 156.57 113.93 153.01 114.11 149.72 Z" fill="#ffffff" />
</svg>