<?xml version="1.0" encoding="UTF-8" standalone="no"?>
<!DOCTYPE svg PUBLIC "-//W3C//DTD SVG 1.1//EN" "http://www.w3.org/Graphics/SVG/1.1/DTD/svg11.dtd">
<svg xmlns="http://www.w3.org/2000/svg" version="1.1" viewBox="0 0 200 200" width="200.0pt" height="200.0pt">
<path d="M 0.00 0.00 L 200.00 0.00 L 200.00 200.00 L 0.00 200.00 L 0.00 0.00 Z" fill="#ffffff" />
<path d="M 30.55 20.74 C 77.29 20.75 124.03 20.74 170.77 20.74 C 170.72 42.14 170.78 63.53 170.74 84.93 C 170.03 84.68 169.33 84.43 168.62 84.19 C 168.65 63.75 168.62 43.31 168.63 22.87 C 123.33 22.86 78.02 22.87 32.71 22.87 C 32.70 43.57 32.74 64.28 32.68 84.98 L 30.54 85.02 C 30.59 63.59 30.57 42.16 30.55 20.74 Z" fill="#071b49" />
<path d="M 33.68 23.88 C 78.35 23.88 123.02 23.86 167.68 23.90 C 167.64 44.03 167.68 64.17 167.66 84.30 C 166.38 83.48 165.10 82.65 163.82 81.82 C 163.81 63.77 163.79 45.72 163.83 27.67 C 121.72 27.66 79.61 27.67 37.50 27.66 C 37.54 45.83 37.47 64.00 37.54 82.16 C 36.28 83.11 35.01 84.04 33.73 84.96 C 33.63 64.60 33.73 44.24 33.68 23.88 Z" fill="#071b49" />
<path d="M 92.42 31.46 C 94.19 31.23 95.99 31.19 97.76 31.11 C 97.82 38.82 97.77 46.52 97.81 54.23 C 93.32 55.25 89.92 57.69 86.04 59.94 C 83.33 59.40 80.94 57.81 79.74 55.27 C 77.57 50.71 79.24 44.93 84.03 42.90 C 87.13 41.56 89.49 43.02 92.36 44.09 C 92.33 39.90 92.07 35.64 92.42 31.46 Z" fill="#d61e3f" />
<path d="M 41.50 32.31 C 45.44 32.01 49.64 31.82 53.53 32.53 C 58.59 33.81 60.70 39.90 58.28 44.31 C 57.22 46.10 55.13 47.40 53.51 48.65 C 56.11 52.30 58.57 56.05 61.05 59.79 C 58.86 59.76 56.67 59.75 54.48 59.74 C 52.70 56.81 50.53 53.97 49.21 50.81 C 48.79 48.58 48.91 46.24 48.85 43.98 C 49.97 44.00 51.10 44.02 52.22 44.04 C 52.78 42.98 53.39 41.92 53.83 40.81 C 53.81 39.49 52.78 38.17 52.26 36.97 C 50.51 36.99 48.75 37.01 47.00 37.02 C 47.00 44.60 47.00 52.18 47.00 59.75 C 45.12 59.75 43.24 59.74 41.35 59.74 C 41.49 50.61 41.11 41.42 41.50 32.31 Z" fill="#d61e3f" />
<path d="M 104.28 32.33 C 108.78 32.16 114.40 31.48 118.56 33.46 C 122.51 36.45 121.75 40.66 119.64 44.54 C 120.76 45.64 122.08 46.73 122.93 48.07 C 124.64 51.34 123.67 55.52 120.82 57.83 C 118.90 59.48 116.33 59.55 113.95 59.92 C 110.87 57.35 107.90 55.75 104.11 54.45 C 104.29 47.08 103.87 39.67 104.28 32.33 Z" fill="#d61e3f" />
<path d="M 145.86 31.53 C 147.57 31.53 149.29 31.52 151.00 31.52 C 151.00 40.95 151.00 50.38 151.00 59.81 C 149.29 59.80 147.58 59.80 145.86 59.79 C 145.86 50.37 145.86 40.95 145.86 31.53 Z" fill="#d61e3f" />
<path d="M 154.68 31.52 C 156.44 31.53 158.20 31.54 159.97 31.55 C 159.94 40.95 159.95 50.36 159.96 59.77 C 158.20 59.78 156.44 59.79 154.68 59.81 C 154.67 50.38 154.68 40.95 154.68 31.52 Z" fill="#d61e3f" />
<path d="M 109.82 36.80 C 111.94 37.26 115.10 36.42 115.95 39.05 C 116.77 42.36 113.58 42.46 111.40 43.53 C 111.40 44.84 111.40 46.16 111.40 47.48 C 113.72 47.87 115.95 48.34 118.09 49.36 C 118.03 50.71 117.98 52.07 117.94 53.42 C 115.36 54.93 112.74 55.03 109.83 55.14 C 109.81 49.03 109.82 42.91 109.82 36.80 Z" fill="#ffffff" />
<path d="M 74.78 44.21 C 77.04 46.26 77.03 49.41 77.59 52.20 C 73.49 52.23 69.38 52.22 65.28 52.24 C 65.59 53.26 65.90 54.28 66.22 55.30 C 69.31 56.00 70.36 55.70 73.02 54.04 C 74.41 54.72 75.81 55.40 77.20 56.08 C 74.19 58.90 71.35 60.94 66.97 60.11 C 60.40 58.91 57.71 50.77 61.58 45.55 C 64.56 41.30 71.02 40.65 74.78 44.21 Z" fill="#d61e3f" />
<path d="M 125.56 42.89 C 127.37 42.89 129.18 42.89 130.99 42.90 C 131.12 46.58 130.38 51.07 131.50 54.56 C 133.50 56.68 134.85 55.28 137.00 54.41 C 136.99 50.57 137.00 46.73 137.00 42.89 C 138.76 42.89 140.51 42.89 142.27 42.89 C 142.18 47.16 142.66 51.65 141.88 55.85 C 139.45 62.03 128.48 62.05 126.00 55.90 C 125.13 51.71 125.67 47.16 125.56 42.89 Z" fill="#d61e3f" />
<path d="M 69.84 45.98 C 70.88 46.83 71.79 47.89 72.71 48.87 C 70.02 48.98 67.35 48.97 64.66 48.82 C 66.24 47.45 67.40 45.16 69.84 45.98 Z" fill="#ffffff" />
<path d="M 89.88 46.69 C 92.12 49.26 93.75 52.09 90.69 54.86 C 87.31 57.16 83.47 53.53 84.67 49.96 C 85.43 47.24 87.56 47.25 89.88 46.69 Z" fill="#ffffff" />
<path d="M 94.71 56.20 C 98.95 55.69 102.93 55.61 107.06 56.85 C 106.65 57.64 106.25 58.44 105.85 59.24 C 103.17 59.12 100.52 59.10 97.84 59.15 C 96.79 58.18 95.75 57.19 94.71 56.20 Z" fill="#071b49" />
<path d="M 88.45 60.17 C 87.12 63.18 85.60 66.03 83.44 68.53 C 84.25 66.41 85.19 64.38 86.49 62.51 C 87.13 61.72 87.79 60.94 88.45 60.17 Z" fill="#071b49" />
<path d="M 114.76 60.55 C 121.21 63.91 126.32 67.74 130.86 73.46 C 126.14 77.18 120.14 80.71 116.64 85.63 C 112.52 91.46 112.78 98.77 109.96 104.97 C 108.55 108.03 106.24 109.95 103.86 112.22 C 105.48 113.55 107.10 114.88 108.67 116.28 C 111.80 115.87 113.94 115.12 116.62 113.47 C 120.81 113.91 124.85 114.94 128.99 115.61 C 130.65 114.88 132.14 113.68 133.67 112.71 C 126.44 127.54 109.34 135.66 93.22 132.42 C 81.87 130.25 72.90 123.00 67.04 113.21 C 68.94 114.22 70.42 116.30 72.75 115.66 C 76.78 115.00 80.86 114.42 84.79 113.32 C 87.14 114.39 90.12 116.12 92.77 115.75 C 93.72 115.17 94.54 114.31 95.35 113.55 C 96.02 112.86 96.70 112.18 97.38 111.49 C 96.26 110.93 95.14 110.38 94.02 109.82 L 93.12 109.05 C 91.47 105.44 89.35 102.58 88.37 98.76 C 87.34 95.34 87.30 91.43 85.80 88.20 C 82.04 81.62 76.72 76.95 70.75 72.43 C 75.10 67.37 80.00 63.78 85.87 60.65 C 82.80 65.37 80.82 70.30 81.80 76.04 C 83.17 86.02 93.05 93.22 102.96 91.73 C 112.06 90.47 119.31 82.24 119.07 73.00 C 119.23 68.21 117.09 64.52 114.76 60.55 Z" fill="#fdcc09" />
<path d="M 94.87 64.62 C 96.46 66.54 97.90 68.56 99.32 70.61 C 97.96 72.90 96.60 75.19 95.22 77.47 C 92.89 76.84 90.58 76.17 88.27 75.49 C 88.18 72.87 88.15 70.25 88.19 67.63 C 90.42 66.59 92.59 65.53 94.87 64.62 Z" fill="#071b49" />
<path d="M 110.17 64.87 C 112.02 65.62 113.80 66.69 115.55 67.66 C 115.63 70.23 115.66 72.78 115.65 75.35 C 113.87 75.98 112.09 76.60 110.30 77.20 C 109.06 74.90 107.83 72.59 106.66 70.25 C 107.77 68.45 108.85 66.53 110.17 64.87 Z" fill="#071b49" />
<path d="M 6.12 70.99 C 9.41 72.45 12.93 73.35 16.21 74.81 C 17.96 75.67 18.22 77.21 18.00 79.00 C 16.24 82.24 12.32 84.25 10.45 87.46 C 8.85 90.55 11.67 94.23 15.00 94.01 C 18.84 93.82 22.46 90.56 25.57 88.56 C 28.40 86.65 31.54 86.78 34.70 85.65 C 37.05 84.60 38.92 82.40 41.30 81.42 C 42.72 80.97 44.23 80.77 45.69 80.50 C 50.35 76.34 56.02 75.22 61.39 72.25 C 64.53 70.76 67.46 71.98 70.06 73.89 C 75.63 78.13 81.94 83.61 84.89 90.09 C 86.87 97.06 86.39 103.38 92.47 108.51 L 93.12 109.05 L 94.02 109.82 C 94.50 110.75 94.97 111.69 95.42 112.62 C 90.62 111.47 89.08 107.78 85.87 104.55 C 87.62 109.37 89.45 111.96 93.32 115.28 C 90.07 114.35 87.54 113.26 84.83 111.28 C 80.26 113.54 74.68 113.68 69.70 114.55 C 69.97 112.70 70.24 110.85 70.55 109.01 L 69.11 108.94 C 70.71 106.73 72.18 104.48 73.54 102.10 C 70.90 102.55 68.27 103.04 65.63 103.52 C 66.49 100.76 67.08 98.10 67.13 95.19 C 66.09 97.23 65.43 99.51 64.25 101.46 C 63.08 102.42 61.62 103.06 60.30 103.81 C 62.47 107.45 64.01 110.23 63.62 114.66 C 64.07 113.06 65.72 110.88 64.78 109.26 C 64.01 107.21 63.09 105.22 62.32 103.17 C 65.60 104.55 66.33 107.32 67.92 110.15 C 67.08 111.71 66.21 113.24 65.32 114.77 C 61.17 115.64 57.21 117.97 53.00 118.28 C 51.71 117.31 50.58 116.12 49.42 114.98 C 48.74 114.78 48.07 114.58 47.40 114.38 C 46.71 113.03 46.03 111.69 45.36 110.33 C 46.91 110.22 48.42 110.07 49.97 110.12 C 51.76 111.58 53.11 113.60 54.62 115.34 C 56.60 114.25 61.24 113.39 58.76 110.28 C 55.96 107.37 52.71 105.56 50.86 101.73 C 50.94 102.95 51.01 104.16 51.08 105.37 C 47.36 105.46 43.66 105.41 39.95 105.68 C 38.20 105.70 36.70 106.02 35.37 104.63 C 34.71 102.58 35.33 100.05 35.46 97.92 L 34.34 97.91 C 33.63 101.13 33.64 105.64 30.67 107.72 C 27.36 110.22 22.51 109.55 18.71 110.70 C 16.50 111.34 14.78 113.71 13.29 115.34 C 15.49 114.26 17.63 112.75 19.97 112.01 C 23.10 111.23 26.59 111.65 29.69 110.76 C 31.96 109.47 33.64 107.06 35.58 105.32 C 34.55 108.47 33.99 111.29 30.63 112.68 C 26.95 115.15 23.13 112.29 19.65 114.67 C 17.39 116.03 15.46 116.84 12.80 117.12 C 11.58 118.18 10.35 119.39 8.97 120.22 C 7.21 120.23 5.42 119.29 3.81 118.62 L 4.05 120.12 L 1.67 119.29 C 2.10 117.70 2.53 116.11 2.96 114.52 C 3.60 114.70 4.23 114.89 4.86 115.08 C 4.97 116.34 5.07 117.59 5.18 118.85 C 7.55 115.31 11.29 113.20 13.61 109.67 C 15.13 106.74 18.11 107.07 20.90 105.21 C 20.51 102.24 19.82 99.31 19.45 96.32 C 16.58 96.57 13.90 97.29 11.21 95.87 C 7.44 94.06 6.05 88.94 8.48 85.50 C 10.27 83.08 12.85 81.16 15.01 79.07 C 12.83 78.40 10.04 78.24 8.19 76.84 C 6.47 75.54 6.61 72.96 6.12 70.99 Z" fill="#d61e3f" />
<path d="M 137.05 71.01 C 140.27 70.45 143.06 73.70 145.73 75.08 C 152.93 78.03 159.88 81.67 166.90 85.00 C 170.14 86.14 173.36 86.81 176.28 88.73 C 179.42 90.55 183.17 93.91 187.01 93.30 C 189.46 93.09 191.37 90.41 190.15 88.09 C 188.67 84.65 184.73 82.30 183.02 78.99 C 182.76 77.28 183.07 76.49 184.34 75.38 C 186.97 73.37 190.76 72.65 193.84 71.53 C 193.33 73.30 193.25 75.63 192.13 77.14 C 190.46 78.42 188.13 78.93 186.19 79.66 C 188.63 82.14 191.84 84.74 192.91 88.17 C 193.61 90.84 192.89 93.04 190.82 94.83 C 188.27 97.08 185.22 96.44 182.11 96.28 C 182.36 99.48 182.10 102.45 181.49 105.60 C 183.15 106.17 184.80 106.73 186.45 107.30 C 187.65 111.61 190.34 114.22 193.78 116.85 C 194.11 117.89 194.43 118.94 194.75 119.98 C 193.48 120.00 192.21 120.01 190.94 120.03 C 189.96 118.99 188.99 117.95 188.02 116.91 C 187.02 117.19 186.01 117.47 185.01 117.76 C 183.43 116.77 181.82 115.67 180.13 114.89 C 176.79 113.29 172.40 114.94 169.39 112.60 C 167.08 111.34 166.84 107.65 165.99 105.45 C 167.63 107.22 169.06 109.53 171.06 110.91 C 173.96 112.76 178.46 111.28 181.59 112.47 C 183.41 113.26 185.13 114.30 186.90 115.19 C 185.55 113.89 184.13 112.40 182.50 111.45 C 178.95 109.44 173.35 111.60 170.67 108.32 C 167.88 105.32 167.73 100.08 166.19 96.29 C 166.08 99.07 166.44 102.04 165.87 104.77 C 163.66 106.05 161.45 105.81 158.98 105.91 C 155.61 105.94 152.24 106.18 148.88 106.41 L 149.31 103.41 C 146.74 106.71 142.92 108.54 140.45 111.87 C 141.84 113.69 143.76 114.23 145.74 115.12 C 146.66 113.72 147.55 112.30 148.43 110.88 C 150.18 110.89 151.93 110.92 153.68 110.95 C 152.44 112.55 151.17 114.09 149.82 115.59 C 148.89 116.54 147.99 117.50 146.99 118.37 C 143.59 118.09 140.18 116.75 137.17 115.19 C 136.42 115.11 135.66 115.03 134.91 114.95 C 134.52 113.34 134.05 111.68 133.89 110.02 C 134.36 107.81 135.68 105.71 137.07 103.94 L 138.66 104.41 C 137.31 107.26 135.96 109.87 135.60 113.07 C 137.21 110.26 139.08 107.47 140.26 104.45 C 139.14 103.05 137.68 101.84 136.72 100.32 C 135.76 97.67 135.65 94.84 134.27 92.30 C 133.63 96.34 134.68 99.83 136.04 103.56 C 132.07 103.30 129.81 102.47 126.50 100.42 C 128.35 103.41 132.29 107.20 131.60 110.96 C 130.90 111.99 130.16 113.01 129.40 113.99 C 125.99 113.63 122.73 112.56 119.26 112.48 C 118.45 111.96 117.64 111.44 116.83 110.92 C 114.25 112.97 111.75 114.46 108.63 115.56 C 111.00 112.52 113.18 109.47 114.67 105.88 C 111.67 108.93 110.11 112.36 105.60 113.42 C 107.68 110.66 110.11 108.51 111.43 105.43 C 113.84 99.82 114.31 92.70 117.39 87.41 C 120.42 82.60 126.12 79.01 130.55 75.57 C 132.64 74.03 134.68 72.07 137.05 71.01 Z" fill="#d61e3f" />
<path d="M 83.21 76.68 C 84.07 77.59 84.92 78.51 85.76 79.44 C 87.50 81.97 89.09 84.62 90.61 87.29 C 87.79 85.39 86.11 83.55 84.58 80.53 C 84.10 79.26 83.65 77.97 83.21 76.68 Z" fill="#071b49" />
<path d="M 138.62 78.33 C 136.61 81.49 134.14 84.11 131.53 86.77 C 132.78 82.58 134.28 79.84 138.62 78.33 Z" fill="#ffffff" />
<path d="M 65.72 80.32 C 68.91 82.56 68.52 84.92 68.44 88.44 C 67.29 85.81 66.34 83.11 65.72 80.32 Z" fill="#ffffff" />
<path d="M 99.27 83.62 C 101.63 83.28 104.06 83.33 106.45 83.25 C 106.96 84.71 107.46 86.17 107.96 87.63 C 106.50 88.26 105.02 88.93 103.52 89.44 C 100.86 90.70 98.03 88.71 95.48 87.92 C 96.69 86.51 97.76 84.72 99.27 83.62 Z" fill="#071b49" />
<path d="M 81.19 93.50 C 83.86 96.22 84.98 97.86 85.16 101.79 C 84.03 100.24 82.97 98.61 81.75 97.13 C 80.67 97.38 79.61 97.69 78.57 98.06 C 79.43 96.53 80.27 94.99 81.19 93.50 Z" fill="#ffffff" />
<path d="M 122.44 94.69 C 123.41 96.18 124.22 97.76 124.98 99.36 C 123.91 98.83 122.83 98.30 121.75 97.79 C 120.27 99.52 118.83 101.30 117.39 103.08 C 117.87 99.37 119.83 97.18 122.44 94.69 Z" fill="#ffffff" />
<path d="M 66.72 104.59 C 68.11 104.35 69.50 104.12 70.90 103.88 C 70.01 105.04 69.12 106.19 68.22 107.34 C 67.72 106.42 67.22 105.51 66.72 104.59 Z" fill="#fdcc09" />
<path d="M 134.42 105.09 C 134.18 105.97 133.78 106.73 133.21 107.39 C 131.99 106.94 131.37 106.13 131.35 104.95 C 131.80 103.42 133.75 104.12 134.42 105.09 Z" fill="#fdcc09" />
<path d="M 37.40 106.60 C 37.72 114.39 37.32 122.21 37.58 130.01 C 37.72 133.21 38.15 136.27 39.93 139.00 C 51.50 156.79 71.11 168.96 92.22 171.33 C 119.21 174.78 147.09 161.55 161.58 138.55 C 163.14 135.91 163.58 133.04 163.73 130.03 C 164.04 122.09 163.47 114.08 164.06 106.15 C 165.33 108.63 166.33 111.24 167.66 113.70 C 167.51 120.45 168.06 127.38 167.17 134.08 C 166.55 139.67 162.29 144.64 158.79 148.81 C 147.59 161.96 132.00 171.10 115.02 174.34 C 97.93 177.69 79.81 174.84 64.50 166.58 C 54.77 161.40 46.40 154.05 39.65 145.36 C 36.81 141.62 34.30 137.90 33.95 133.05 C 33.46 126.37 33.77 119.61 33.70 112.91 C 34.95 110.81 36.11 108.67 37.40 106.60 Z" fill="#071b49" />
<path d="M 81.01 106.78 C 81.13 107.72 81.23 108.66 81.33 109.60 C 80.06 109.45 78.78 109.30 77.51 109.16 C 78.75 108.46 79.87 107.62 81.01 106.78 Z" fill="#ffffff" />
<path d="M 121.17 107.99 C 122.35 106.90 124.56 108.48 123.77 109.93 C 122.53 111.00 120.38 109.50 121.17 107.99 Z" fill="#ffffff" />
<path d="M 52.07 109.92 C 53.53 109.74 55.00 109.56 56.46 109.38 C 56.84 110.79 57.20 112.20 57.55 113.61 C 54.68 113.22 53.84 111.95 52.07 109.92 Z" fill="#d61e3f" />
<path d="M 142.71 110.14 C 144.26 110.14 145.81 110.14 147.36 110.15 C 145.84 112.17 146.09 113.64 143.11 113.28 C 142.96 112.23 142.83 111.19 142.71 110.14 Z" fill="#d61e3f" />
<path d="M 9.73 110.51 C 8.84 112.06 7.87 113.54 6.83 115.00 C 6.10 114.29 5.38 113.59 4.66 112.88 C 6.34 112.06 8.02 111.25 9.73 110.51 Z" fill="#d61e3f" />
<path d="M 190.64 110.72 C 193.53 111.59 196.28 112.20 193.95 115.79 C 192.71 114.18 191.55 112.54 190.64 110.72 Z" fill="#d61e3f" />
<path d="M 32.73 112.96 C 32.71 117.64 32.69 122.32 32.71 127.00 C 32.81 131.37 32.70 135.37 34.65 139.40 C 36.95 144.05 40.55 148.17 44.03 151.98 C 56.03 164.93 72.50 173.53 90.00 175.92 C 100.60 177.52 111.43 176.63 121.73 173.74 C 139.31 168.77 155.04 157.32 165.14 142.08 C 166.99 139.17 168.03 136.22 168.34 132.78 C 168.89 126.46 168.55 120.05 168.62 113.71 C 169.34 114.20 170.06 114.68 170.79 115.17 C 170.35 123.73 172.20 134.94 167.43 142.41 C 154.49 162.70 131.98 176.29 108.03 178.45 C 78.94 181.42 49.37 166.93 33.76 142.25 C 28.97 134.63 31.03 123.02 30.55 114.29 C 31.28 113.85 32.01 113.41 32.73 112.96 Z" fill="#071b49" />
<path d="M 197.16 114.79 C 197.78 116.36 198.22 118.03 198.69 119.66 C 197.83 119.81 196.97 119.97 196.11 120.13 C 195.71 118.56 195.32 117.00 195.01 115.42 C 195.72 115.19 196.43 114.98 197.16 114.79 Z" fill="#d61e3f" />
<path d="M 61.64 121.27 C 63.01 123.09 64.61 124.94 65.58 126.99 C 64.67 129.23 62.11 130.75 60.30 132.27 C 55.83 135.40 52.11 139.39 47.58 142.45 C 45.74 140.75 44.08 138.89 42.45 136.99 C 48.06 132.45 53.63 127.86 59.22 123.29 C 60.02 122.62 60.83 121.94 61.64 121.27 Z" fill="#071b49" />
<path d="M 141.65 122.12 C 144.77 123.93 147.45 126.54 150.35 128.69 C 152.66 130.60 155.47 132.33 157.30 134.73 C 158.74 136.58 156.95 139.83 154.85 140.12 C 152.49 140.68 150.55 138.52 148.78 137.26 C 145.01 134.00 140.64 131.26 137.17 127.69 C 135.08 124.63 138.19 120.82 141.65 122.12 Z" fill="#071b49" />
<path d="M 140.28 123.93 C 145.34 128.05 150.51 132.04 155.62 136.09 C 155.08 136.77 154.53 137.45 153.98 138.13 C 148.92 134.04 143.79 130.01 138.66 126.00 C 139.20 125.31 139.74 124.62 140.28 123.93 Z" fill="#ffffff" />
<path d="M 61.12 125.05 C 61.76 125.60 62.40 126.15 63.03 126.72 C 60.82 128.61 58.56 130.44 56.30 132.26 C 55.75 131.63 55.20 131.00 54.66 130.37 C 56.78 128.58 58.90 126.72 61.12 125.05 Z" fill="#ffffff" />
<path d="M 133.64 128.35 C 138.82 134.62 143.92 140.97 149.13 147.22 C 148.54 147.74 147.95 148.25 147.37 148.77 C 143.14 145.44 139.08 141.91 134.95 138.47 C 138.40 142.45 141.89 146.38 145.18 150.49 C 144.54 151.03 143.89 151.57 143.24 152.11 C 137.94 145.52 132.28 139.16 127.31 132.31 C 128.18 132.21 129.04 132.15 129.90 132.12 C 134.15 134.93 137.83 138.69 141.86 141.83 C 138.28 137.78 134.64 133.82 131.39 129.50 C 132.13 129.11 132.88 128.72 133.64 128.35 Z" fill="#071b49" />
<path d="M 68.14 129.01 C 69.66 130.27 73.80 132.38 72.92 134.71 C 71.04 138.01 68.15 140.81 65.88 143.84 C 63.48 147.10 61.04 150.31 58.69 153.60 L 57.61 151.16 C 59.09 148.04 61.74 145.43 63.75 142.63 C 63.04 142.14 62.34 141.64 61.64 141.15 C 59.30 144.25 56.98 147.34 54.39 150.23 L 53.36 148.04 C 54.80 145.43 56.98 143.18 58.76 140.78 C 61.93 136.90 64.76 132.70 68.14 129.01 Z" fill="#071b49" />
<path d="M 52.68 131.89 C 53.22 132.56 53.76 133.23 54.31 133.90 C 52.10 135.69 49.92 137.51 47.74 139.33 C 47.16 138.68 46.58 138.02 46.00 137.37 C 48.24 135.55 50.48 133.75 52.68 131.89 Z" fill="#ffffff" />
<path d="M 68.50 132.61 C 69.20 133.00 69.90 133.40 70.60 133.81 C 68.87 136.12 67.10 138.39 65.33 140.68 L 63.25 139.15 C 64.95 136.95 66.65 134.68 68.50 132.61 Z" fill="#ffffff" />
<path d="M 122.62 134.59 C 123.81 134.67 124.78 134.93 125.55 135.37 C 129.73 141.95 133.26 149.02 137.25 155.74 C 136.57 156.24 135.88 156.75 135.19 157.26 C 131.00 149.72 126.42 142.33 122.62 134.59 Z" fill="#071b49" />
<path d="M 77.08 136.05 C 79.88 135.59 82.45 138.25 81.39 141.00 C 78.61 147.56 75.16 153.87 72.13 160.33 C 71.36 159.96 70.59 159.60 69.81 159.24 C 71.45 155.94 73.05 152.63 74.67 149.32 C 73.89 148.95 73.12 148.58 72.35 148.20 C 70.77 151.53 69.14 154.84 67.59 158.19 C 66.82 157.77 66.05 157.35 65.28 156.94 C 68.04 151.44 70.70 145.90 73.36 140.36 C 74.33 138.57 74.97 136.75 77.08 136.05 Z" fill="#071b49" />
<path d="M 121.35 136.61 C 121.63 137.42 121.92 138.23 122.20 139.04 C 121.43 139.40 120.65 139.76 119.88 140.12 C 122.53 146.93 125.05 153.81 127.59 160.66 L 125.13 161.55 C 122.53 154.64 119.92 147.73 117.39 140.79 C 116.62 141.16 115.85 141.54 115.07 141.91 C 114.67 141.05 114.27 140.19 113.86 139.33 C 116.36 138.44 118.85 137.52 121.35 136.61 Z" fill="#071b49" />
<path d="M 77.14 138.80 C 77.96 138.81 78.77 138.90 79.58 138.97 C 78.38 141.75 77.05 144.46 75.72 147.18 C 74.97 146.73 74.23 146.28 73.48 145.82 C 74.66 143.49 75.68 140.98 77.14 138.80 Z" fill="#ffffff" />
<path d="M 91.67 142.33 C 91.73 143.92 91.39 145.57 91.16 147.15 C 90.38 147.01 89.61 146.87 88.84 146.73 C 88.67 144.86 88.43 143.00 88.12 141.17 C 85.18 147.11 84.46 154.12 82.68 160.48 C 83.39 160.69 84.11 160.90 84.83 161.10 C 85.70 157.51 86.62 154.09 86.06 150.36 C 87.39 150.63 88.71 150.90 90.04 151.17 C 89.00 155.22 88.12 159.24 86.90 163.23 C 83.78 164.10 81.51 164.42 79.98 161.00 C 80.30 157.13 81.66 153.32 82.46 149.52 C 83.22 146.71 83.60 143.55 84.94 140.95 C 86.82 138.62 90.71 139.49 91.67 142.33 Z" fill="#071b49" />
<path d="M 110.31 140.04 L 112.87 139.91 C 114.02 147.96 115.32 155.99 116.52 164.03 L 114.24 164.59 C 112.37 159.63 110.65 154.61 108.91 149.60 C 109.78 154.70 110.78 159.78 111.50 164.92 L 109.03 165.24 C 107.67 157.18 106.58 149.08 105.25 141.02 C 106.06 140.89 106.87 140.76 107.69 140.64 C 109.44 145.67 111.23 150.68 113.03 155.70 C 112.03 150.49 111.01 145.30 110.31 140.04 Z" fill="#071b49" />
<path d="M 100.23 140.66 C 101.34 142.04 102.63 142.99 102.53 144.94 C 102.27 151.93 101.88 158.94 101.52 165.93 C 100.66 165.92 99.80 165.91 98.93 165.89 C 99.10 162.19 99.33 158.49 99.57 154.79 L 97.05 154.55 C 96.83 158.25 96.61 161.94 96.40 165.64 C 95.57 165.62 94.75 165.59 93.92 165.56 C 94.06 159.29 94.56 153.05 94.85 146.78 C 95.06 145.16 94.80 143.29 96.05 142.06 C 97.02 141.00 98.91 140.98 100.23 140.66 Z" fill="#071b49" />
<path d="M 97.71 144.01 C 98.41 143.72 99.13 143.46 99.85 143.22 C 100.06 146.21 99.91 149.17 99.80 152.15 C 98.86 152.10 97.93 152.05 97.00 152.00 C 97.21 149.35 97.22 146.62 97.71 144.01 Z" fill="#ffffff" />
</svg>