<?xml version="1.0" encoding="UTF-8" standalone="no"?>
<!DOCTYPE svg PUBLIC "-//W3C//DTD SVG 1.1//EN" "http://www.w3.org/Graphics/SVG/1.1/DTD/svg11.dtd">
<svg xmlns="http://www.w3.org/2000/svg" version="1.1" viewBox="0 0 200 200" width="200.0pt" height="200.0pt">
<path d="M 0.00 0.00 L 82.37 0.00 L 82.05 0.67 C 81.06 0.84 80.08 1.00 79.09 1.17 C 77.40 0.62 76.28 0.51 74.91 1.78 C 59.06 4.21 41.83 7.29 27.28 14.09 C 31.26 23.87 34.73 33.32 35.30 44.01 C 34.63 46.54 34.30 48.65 35.75 50.99 C 35.94 53.66 36.06 56.34 36.25 59.01 C 35.65 61.54 35.32 63.66 36.75 65.99 C 36.94 68.66 37.06 71.34 37.25 74.01 C 36.65 76.53 36.33 78.66 37.74 80.98 C 37.93 83.32 38.07 85.65 38.24 87.99 C 37.63 90.21 37.36 92.03 38.77 94.01 C 38.92 95.98 39.03 97.96 39.15 99.93 C 38.61 101.62 38.51 102.73 39.79 104.08 C 40.02 108.48 40.94 112.75 42.04 117.00 C 43.96 121.48 39.86 126.99 37.99 130.99 C 36.86 133.50 35.64 132.74 33.33 132.82 C 28.37 131.46 23.18 130.36 18.04 130.10 C 24.34 143.88 36.33 156.85 49.22 164.88 C 50.26 169.89 41.04 178.45 41.53 183.54 C 54.79 192.44 72.13 197.83 87.98 199.23 L 88.11 200.00 L 0.00 200.00 L 0.00 0.00 Z" fill="#fefefe" />
<path d="M 82.37 0.00 L 87.14 0.00 L 87.08 0.58 C 85.29 1.34 83.87 1.45 82.05 0.67 L 82.37 0.00 Z" fill="#babbbb" />
<path d="M 87.14 0.00 L 93.10 0.00 C 91.25 1.81 89.29 1.58 87.08 0.58 L 87.14 0.00 Z" fill="#606060" />
<path d="M 93.10 0.00 L 107.13 0.00 C 108.87 1.94 110.89 1.49 113.05 0.58 C 114.84 1.34 116.21 1.43 118.04 0.71 C 119.00 0.86 119.96 1.01 120.92 1.16 C 122.25 2.53 123.40 2.38 125.09 1.78 C 140.94 4.21 158.17 7.29 172.72 14.09 C 168.86 23.61 165.14 33.55 164.77 43.95 C 163.45 45.61 163.62 47.12 164.19 49.04 C 164.06 51.62 163.95 54.19 163.74 56.76 C 162.83 59.59 162.98 62.33 163.26 65.24 C 163.05 67.82 162.94 70.40 162.77 72.99 C 161.37 74.97 161.63 76.79 162.23 79.01 C 162.06 81.68 161.94 84.35 161.75 87.01 C 160.31 89.33 160.65 91.46 161.25 93.98 C 161.09 95.96 160.97 97.95 160.85 99.93 C 159.47 101.24 159.61 102.40 160.20 104.08 C 160.71 110.84 155.81 117.42 158.12 123.70 L 157.25 123.61 C 154.93 122.74 153.34 129.12 152.10 130.65 C 150.81 132.35 149.52 134.02 148.37 135.82 C 141.52 143.99 132.74 147.93 123.05 151.69 C 123.95 151.91 124.86 152.11 125.77 152.31 C 128.79 153.02 131.81 153.75 134.84 154.41 C 138.18 155.20 141.54 155.88 144.96 156.20 C 145.66 157.47 146.33 158.76 147.01 160.04 C 147.75 161.53 148.57 162.85 149.83 163.95 L 150.77 164.89 C 149.60 170.11 158.99 178.46 158.47 183.54 C 144.87 193.08 126.54 197.45 110.39 200.00 L 91.89 200.00 C 90.87 198.41 89.56 198.39 87.98 199.23 C 72.13 197.83 54.79 192.44 41.53 183.54 C 41.04 178.45 50.26 169.89 49.22 164.88 L 50.17 163.95 C 52.69 162.01 53.14 158.36 55.36 156.42 C 62.55 154.92 69.80 153.58 76.90 151.71 C 70.78 148.99 64.67 146.93 59.15 142.95 C 56.59 141.05 54.27 138.88 51.97 136.68 C 49.19 132.51 46.72 128.22 44.21 123.89 C 42.97 122.13 42.81 124.96 42.13 125.76 C 41.13 127.74 40.17 129.74 39.31 131.79 C 38.85 132.53 38.39 133.27 37.92 134.01 C 36.65 133.74 35.34 133.81 33.98 134.21 L 33.11 134.08 L 32.01 133.86 L 33.33 132.82 C 35.64 132.74 36.86 133.50 37.99 130.99 C 39.86 126.99 43.96 121.48 42.04 117.00 C 40.94 112.75 40.02 108.48 39.79 104.08 C 40.39 102.40 40.53 101.24 39.15 99.93 C 39.03 97.96 38.92 95.98 38.77 94.01 C 39.37 91.79 39.63 89.98 38.24 87.99 C 38.07 85.65 37.93 83.32 37.74 80.98 C 38.35 78.46 38.68 76.34 37.25 74.01 C 37.06 71.34 36.94 68.66 36.75 65.99 C 37.35 63.46 37.68 61.34 36.25 59.01 C 36.06 56.34 35.94 53.66 35.75 50.99 C 36.36 48.47 36.64 46.36 35.30 44.01 C 34.73 33.32 31.26 23.87 27.28 14.09 C 41.83 7.29 59.06 4.21 74.91 1.78 C 76.60 2.38 77.75 2.52 79.09 1.17 C 80.08 1.00 81.06 0.84 82.05 0.67 C 83.87 1.45 85.29 1.34 87.08 0.58 C 89.29 1.58 91.25 1.81 93.10 0.00 Z" fill="#131718" />
<path d="M 107.13 0.00 L 113.07 0.00 L 113.05 0.58 C 110.89 1.49 108.87 1.94 107.13 0.00 Z" fill="#606060" />
<path d="M 113.07 0.00 L 117.89 0.00 L 118.04 0.71 C 116.21 1.43 114.84 1.34 113.05 0.58 L 113.07 0.00 Z" fill="#bbbbbc" />
<path d="M 117.89 0.00 L 200.00 0.00 L 200.00 200.00 L 110.39 200.00 C 126.54 197.45 144.87 193.08 158.47 183.54 C 158.99 178.46 149.60 170.11 150.77 164.89 C 163.43 157.21 175.79 143.55 181.97 130.10 C 175.67 130.12 169.48 132.76 163.28 132.82 C 161.18 130.06 159.97 126.65 158.12 123.70 C 155.81 117.42 160.71 110.84 160.20 104.08 C 161.49 102.73 161.39 101.62 160.85 99.93 C 160.97 97.95 161.09 95.96 161.25 93.98 C 162.68 91.66 162.35 89.53 161.75 87.01 C 161.94 84.35 162.06 81.68 162.23 79.01 C 163.63 77.03 163.37 75.21 162.77 72.99 C 162.94 70.40 163.05 67.82 163.26 65.24 C 164.17 62.41 164.02 59.67 163.74 56.76 C 163.95 54.19 164.06 51.62 164.19 49.04 C 165.60 47.41 165.38 45.88 164.77 43.95 C 165.14 33.55 168.86 23.61 172.72 14.09 C 158.17 7.29 140.94 4.21 125.09 1.78 C 123.72 0.51 122.60 0.62 120.92 1.16 C 119.96 1.01 119.00 0.86 118.04 0.71 L 117.89 0.00 Z" fill="#fefefe" />
<path d="M 79.09 1.17 C 77.75 2.52 76.60 2.38 74.91 1.78 C 76.28 0.51 77.40 0.62 79.09 1.17 Z" fill="#7c7c7c" />
<path d="M 120.92 1.16 C 122.60 0.62 123.72 0.51 125.09 1.78 C 123.40 2.38 122.25 2.53 120.92 1.16 Z" fill="#7d7d7d" />
<path d="M 111.75 1.98 C 110.63 5.15 115.66 8.62 112.79 10.80 C 109.33 10.42 105.81 8.83 102.70 7.35 C 100.85 6.83 98.49 6.49 97.08 8.11 C 93.99 11.08 89.28 11.04 85.90 13.86 C 83.95 15.23 82.02 16.62 80.13 18.07 C 81.75 11.97 76.66 10.27 74.37 5.45 C 79.01 3.57 75.51 4.21 72.79 3.61 C 85.76 1.25 98.66 2.17 111.75 1.98 Z" fill="#033b78" />
<path d="M 111.75 1.98 C 117.18 2.12 122.65 3.06 128.02 3.87 C 127.32 4.81 126.22 5.01 126.82 6.34 C 131.21 20.77 132.43 35.96 129.63 50.83 C 129.11 53.26 129.25 55.64 129.44 58.09 C 127.06 58.01 128.33 52.65 127.96 51.00 C 127.37 45.58 129.38 36.71 126.92 32.22 L 126.34 31.60 C 124.01 21.81 117.18 13.52 107.38 10.65 C 104.87 9.49 101.62 11.28 102.70 7.35 C 105.81 8.83 109.33 10.42 112.79 10.80 C 115.66 8.62 110.63 5.15 111.75 1.98 Z" fill="#032246" />
<path d="M 72.79 3.61 C 75.51 4.21 79.01 3.57 74.37 5.45 C 76.66 10.27 81.75 11.97 80.13 18.07 C 77.82 18.83 77.30 19.44 76.93 21.85 C 73.93 24.57 73.34 28.08 72.81 31.90 L 72.65 32.79 C 71.23 39.76 72.46 47.15 71.81 54.26 C 70.61 50.44 71.11 46.92 70.78 42.97 C 66.55 55.90 54.54 65.89 40.37 63.38 C 39.94 65.36 39.64 67.37 39.15 69.34 C 36.28 54.25 38.60 37.44 31.89 22.12 C 31.24 19.46 27.79 14.12 32.37 13.39 C 45.41 8.77 59.16 5.85 72.79 3.61 Z" fill="#055fb5" />
<path d="M 128.02 3.87 C 141.61 5.84 155.27 9.01 168.15 13.78 C 170.84 14.43 169.97 16.41 169.31 18.32 C 161.54 35.40 162.61 55.95 161.01 75.00 C 159.44 90.33 160.09 108.00 154.28 122.31 C 149.63 134.77 138.85 144.18 126.38 148.41 C 112.79 153.11 97.12 152.83 83.05 150.89 C 67.88 148.26 53.25 139.51 46.86 125.05 C 49.25 121.91 54.36 123.16 57.99 122.16 C 58.55 125.28 56.44 132.56 59.96 133.95 C 61.91 135.14 64.10 136.05 66.24 136.86 C 68.45 137.70 70.64 138.58 72.88 139.32 C 74.22 139.75 75.60 139.86 77.00 139.95 L 78.01 140.04 C 81.26 140.57 84.49 141.02 87.77 141.33 C 92.24 142.41 96.45 141.98 100.99 141.95 L 101.99 141.96 C 105.11 142.11 108.18 142.09 111.22 141.33 C 116.26 140.93 121.20 140.43 126.10 139.15 L 127.00 138.93 C 131.54 137.85 136.66 136.36 140.31 133.35 L 140.95 132.83 C 142.33 131.79 141.89 130.55 142.03 129.03 C 141.96 108.72 142.02 88.28 142.00 67.97 C 141.91 65.83 142.08 65.15 140.07 64.08 C 136.00 61.60 131.69 59.97 127.05 58.93 C 126.89 50.03 127.14 41.12 126.92 32.22 C 129.38 36.71 127.37 45.58 127.96 51.00 C 128.33 52.65 127.06 58.01 129.44 58.09 C 129.25 55.64 129.11 53.26 129.63 50.83 C 132.43 35.96 131.21 20.77 126.82 6.34 C 126.22 5.01 127.32 4.81 128.02 3.87 Z" fill="#031d39" />
<path d="M 102.70 7.35 C 101.62 11.28 104.87 9.49 107.38 10.65 C 117.18 13.52 124.01 21.81 126.34 31.60 C 125.61 42.03 126.17 52.56 126.02 63.02 C 125.76 63.75 126.56 67.44 125.12 66.76 C 124.92 64.21 125.02 61.61 125.00 59.05 C 124.59 49.74 125.86 39.90 124.32 30.75 C 121.88 21.07 113.10 12.54 103.11 11.10 C 101.98 11.68 100.91 12.44 99.84 13.13 C 98.96 13.42 98.07 13.70 97.19 13.99 C 99.55 7.74 88.97 14.25 87.02 14.81 L 85.90 13.86 C 89.28 11.04 93.99 11.08 97.08 8.11 C 98.49 6.49 100.85 6.83 102.70 7.35 Z" fill="#b2a909" />
<path d="M 97.19 13.99 C 89.86 16.71 89.83 22.21 86.10 27.98 C 89.05 30.74 88.99 33.21 89.86 36.92 C 90.01 37.59 90.15 38.27 90.27 38.96 C 90.08 41.12 90.06 43.20 90.58 45.32 C 90.76 46.25 90.94 47.17 91.12 48.10 C 91.02 49.97 90.05 52.70 92.76 53.05 L 93.70 53.27 C 95.08 53.62 96.48 53.92 97.88 54.20 L 98.08 55.00 C 90.64 54.51 83.55 56.10 76.20 56.83 C 75.62 48.22 76.34 39.54 75.82 30.91 C 76.83 23.56 81.76 19.40 87.02 14.81 C 88.97 14.25 99.55 7.74 97.19 13.99 Z" fill="#03478e" />
<path d="M 103.11 11.10 C 113.10 12.54 121.88 21.07 124.32 30.75 C 123.52 39.43 124.43 48.17 123.80 56.83 C 120.83 56.50 117.93 56.01 114.93 56.07 C 114.01 55.85 113.09 55.66 112.16 55.50 C 107.68 54.62 102.69 55.11 98.08 55.00 L 97.88 54.20 C 100.04 54.04 102.18 53.82 104.30 53.35 C 109.74 53.73 107.96 47.44 109.12 43.85 L 109.41 42.04 C 109.91 40.69 110.04 39.48 109.95 38.05 C 110.07 37.09 110.18 36.13 110.31 35.17 C 109.45 33.17 117.31 23.53 111.13 27.55 C 111.15 21.85 109.33 16.55 103.34 14.88 L 102.19 14.34 C 101.41 13.94 100.62 13.53 99.84 13.13 C 100.91 12.44 101.98 11.68 103.11 11.10 Z" fill="#03295a" />
<path d="M 56.08 17.97 C 57.41 21.50 62.77 20.08 63.99 22.93 C 59.58 27.78 59.94 30.67 59.78 36.95 C 53.07 35.10 52.56 34.25 46.08 37.79 C 43.96 35.34 45.36 31.84 45.99 29.07 L 47.84 29.32 L 48.24 30.19 C 47.71 31.69 47.23 33.20 46.92 34.76 C 52.54 32.14 52.39 32.03 58.00 34.77 C 56.49 28.71 57.76 28.23 60.76 23.38 C 58.28 22.31 55.65 22.46 54.31 19.86 C 53.64 18.77 52.91 17.74 52.02 16.81 L 50.88 15.57 C 52.55 10.20 54.55 15.95 56.08 17.97 Z" fill="#74a068" />
<path d="M 99.84 13.13 C 100.62 13.53 101.41 13.94 102.19 14.34 C 101.16 16.04 99.56 16.10 97.84 16.68 C 92.91 14.59 85.41 29.43 93.78 26.80 L 94.85 26.88 C 94.93 28.24 95.00 29.60 95.06 30.97 L 95.06 32.88 C 95.33 37.30 93.59 38.30 99.07 38.02 L 100.95 38.00 C 102.49 38.00 103.92 37.62 105.37 37.15 C 107.90 37.43 106.82 37.41 105.64 38.65 C 101.96 39.37 97.93 39.11 94.20 38.79 C 93.27 36.07 95.84 27.37 91.07 28.09 C 91.09 29.51 91.73 30.50 92.37 31.70 C 89.24 32.36 90.27 34.41 89.86 36.92 C 88.99 33.21 89.05 30.74 86.10 27.98 C 89.83 22.21 89.86 16.71 97.19 13.99 C 98.07 13.70 98.96 13.42 99.84 13.13 Z" fill="#66621f" />
<path d="M 150.71 18.32 C 151.97 22.04 157.99 19.86 159.06 22.96 C 157.82 24.73 156.20 26.22 155.01 28.01 C 152.78 30.79 156.65 34.86 153.92 37.79 C 149.87 36.22 147.75 33.77 143.29 36.25 C 137.90 39.19 140.62 32.06 140.20 29.15 C 140.54 28.48 140.87 27.81 141.21 27.14 L 142.12 27.15 C 142.40 28.06 142.68 28.98 142.94 29.90 C 142.06 31.49 141.92 32.98 141.99 34.77 C 146.24 32.85 147.12 31.95 151.69 33.80 C 151.73 29.14 153.20 27.00 155.66 23.34 C 153.21 22.29 150.63 22.45 149.32 19.86 C 148.64 18.73 148.10 17.69 146.90 17.03 C 146.33 16.64 145.76 16.27 145.17 15.90 C 148.57 10.14 148.50 15.41 150.71 18.32 Z" fill="#727a25" />
<path d="M 85.90 13.86 L 87.02 14.81 C 81.76 19.40 76.83 23.56 75.82 30.91 L 75.00 31.21 L 74.34 29.94 C 75.04 27.20 76.11 24.56 76.93 21.85 C 79.26 21.14 79.74 20.46 80.13 18.07 C 82.02 16.62 83.95 15.23 85.90 13.86 Z" fill="#ccc65b" />
<path d="M 102.19 14.34 L 103.34 14.88 L 103.39 15.84 C 101.03 17.35 100.52 18.64 97.84 16.68 C 99.56 16.10 101.16 16.04 102.19 14.34 Z" fill="#d6d116" />
<path d="M 103.34 14.88 C 109.33 16.55 111.15 21.85 111.13 27.55 C 117.31 23.53 109.45 33.17 110.31 35.17 C 110.18 30.27 108.13 32.71 104.87 32.87 L 105.26 31.30 C 105.65 29.85 105.97 28.38 106.28 26.91 L 107.30 26.83 C 113.66 28.14 106.71 16.37 103.39 15.84 L 103.34 14.88 Z" fill="#6f6906" />
<path d="M 50.88 15.57 L 52.02 16.81 C 51.72 17.89 51.42 18.97 51.13 20.05 C 49.21 22.01 46.81 22.49 44.31 23.36 C 45.08 24.66 45.99 25.89 46.85 27.12 C 47.19 27.85 47.52 28.58 47.84 29.32 L 45.99 29.07 C 45.14 27.32 39.56 23.42 41.69 21.74 C 46.78 20.37 48.65 20.99 50.88 15.57 Z" fill="#80b0b3" />
<path d="M 97.84 16.68 C 100.52 18.64 101.03 17.35 103.39 15.84 C 106.71 16.37 113.66 28.14 107.30 26.83 C 103.00 25.53 98.08 25.56 93.78 26.80 C 85.41 29.43 92.91 14.59 97.84 16.68 Z" fill="#043876" />
<path d="M 145.17 15.90 C 145.76 16.27 146.33 16.64 146.90 17.03 C 146.63 18.02 146.36 19.02 146.11 20.01 C 143.17 24.07 136.59 20.72 141.21 27.14 C 140.87 27.81 140.54 28.48 140.20 29.15 C 139.74 27.19 134.83 23.37 136.72 21.78 C 140.90 20.34 143.27 20.42 145.17 15.90 Z" fill="#838e70" />
<path d="M 52.02 16.81 C 52.91 17.74 53.64 18.77 54.31 19.86 C 54.18 24.72 52.89 28.16 48.24 30.19 L 47.84 29.32 C 47.52 28.58 47.19 27.85 46.85 27.12 C 49.81 24.83 50.50 23.78 51.13 20.05 C 51.42 18.97 51.72 17.89 52.02 16.81 Z" fill="#fdf64f" />
<path d="M 146.90 17.03 C 148.10 17.69 148.64 18.73 149.32 19.86 C 149.13 24.36 147.95 28.89 142.94 29.90 C 142.68 28.98 142.40 28.06 142.12 27.15 C 144.93 24.84 146.09 23.92 146.11 20.01 C 146.36 19.02 146.63 18.02 146.90 17.03 Z" fill="#fdf548" />
<path d="M 80.13 18.07 C 79.74 20.46 79.26 21.14 76.93 21.85 C 77.30 19.44 77.82 18.83 80.13 18.07 Z" fill="#1a232c" />
<path d="M 51.13 20.05 C 50.50 23.78 49.81 24.83 46.85 27.12 C 45.99 25.89 45.08 24.66 44.31 23.36 C 46.81 22.49 49.21 22.01 51.13 20.05 Z" fill="#f7f79b" />
<path d="M 54.31 19.86 C 55.65 22.46 58.28 22.31 60.76 23.38 C 57.76 28.23 56.49 28.71 58.00 34.77 C 52.39 32.03 52.54 32.14 46.92 34.76 C 47.23 33.20 47.71 31.69 48.24 30.19 C 52.89 28.16 54.18 24.72 54.31 19.86 Z" fill="#eee40b" />
<path d="M 146.11 20.01 C 146.09 23.92 144.93 24.84 142.12 27.15 L 141.21 27.14 C 136.59 20.72 143.17 24.07 146.11 20.01 Z" fill="#fcf895" />
<path d="M 149.32 19.86 C 150.63 22.45 153.21 22.29 155.66 23.34 C 153.20 27.00 151.73 29.14 151.69 33.80 C 147.12 31.95 146.24 32.85 141.99 34.77 C 141.92 32.98 142.06 31.49 142.94 29.90 C 147.95 28.89 149.13 24.36 149.32 19.86 Z" fill="#efe408" />
<path d="M 76.93 21.85 C 76.11 24.56 75.04 27.20 74.34 29.94 L 73.84 31.85 L 72.81 31.90 C 73.34 28.08 73.93 24.57 76.93 21.85 Z" fill="#0c223e" />
<path d="M 107.30 26.83 L 106.28 26.91 C 104.49 26.98 102.71 27.04 100.92 27.09 L 99.06 27.08 C 97.66 27.02 96.25 26.95 94.85 26.88 L 93.78 26.80 C 98.08 25.56 103.00 25.53 107.30 26.83 Z" fill="#243127" />
<path d="M 94.85 26.88 C 96.25 26.95 97.66 27.02 99.06 27.08 C 98.67 31.82 100.30 32.06 95.06 30.97 C 95.00 29.60 94.93 28.24 94.85 26.88 Z" fill="#fdfa44" />
<path d="M 99.06 27.08 L 100.92 27.09 C 101.33 32.03 99.88 32.15 105.26 31.30 L 104.87 32.87 C 99.75 32.91 101.38 33.80 100.95 38.00 L 99.07 38.02 C 98.62 33.74 100.25 32.91 95.06 32.88 L 95.06 30.97 C 100.30 32.06 98.67 31.82 99.06 27.08 Z" fill="#9f9824" />
<path d="M 100.92 27.09 C 102.71 27.04 104.49 26.98 106.28 26.91 C 105.97 28.38 105.65 29.85 105.26 31.30 C 99.88 32.15 101.33 32.03 100.92 27.09 Z" fill="#efea25" />
<path d="M 91.07 28.09 C 95.84 27.37 93.27 36.07 94.20 38.79 C 97.93 39.11 101.96 39.37 105.64 38.65 C 106.82 37.41 107.90 37.43 105.37 37.15 C 105.19 35.72 105.03 34.30 104.87 32.87 C 108.13 32.71 110.18 30.27 110.31 35.17 C 110.18 36.13 110.07 37.09 109.95 38.05 C 106.05 39.21 107.48 39.57 109.41 42.04 L 109.12 43.85 C 106.09 42.71 107.64 44.01 107.49 46.07 C 105.34 45.96 106.30 41.77 105.69 40.23 C 101.83 39.75 97.87 39.92 94.00 40.18 C 94.63 40.49 95.27 40.78 95.91 41.07 L 95.73 41.89 C 94.58 46.28 95.17 46.19 90.58 45.32 C 89.63 42.77 94.90 37.88 90.27 38.96 C 90.15 38.27 90.01 37.59 89.86 36.92 C 90.27 34.41 89.24 32.36 92.37 31.70 C 91.73 30.50 91.09 29.51 91.07 28.09 Z" fill="#c3bc36" />
<path d="M 107.23 28.24 C 105.38 34.88 112.94 27.82 107.23 28.24 Z" fill="#fdfa12" />
<path d="M 74.34 29.94 L 75.00 31.21 C 75.02 40.49 74.98 49.77 75.00 59.06 C 74.64 60.47 75.84 67.04 74.13 66.75 C 73.72 55.13 74.29 43.47 73.84 31.85 L 74.34 29.94 Z" fill="#d2cd99" />
<path d="M 75.00 31.21 L 75.82 30.91 C 76.34 39.54 75.62 48.22 76.20 56.83 C 83.55 56.10 90.64 54.51 98.08 55.00 C 102.69 55.11 107.68 54.62 112.16 55.50 C 111.10 55.88 110.05 56.33 109.03 56.85 L 108.35 56.69 C 103.39 55.46 97.93 55.99 92.86 56.10 L 91.26 56.33 C 85.91 57.35 80.88 56.46 75.75 58.79 L 75.00 59.06 C 74.98 49.77 75.02 40.49 75.00 31.21 Z" fill="#0f192b" />
<path d="M 124.32 30.75 C 125.86 39.90 124.59 49.74 125.00 59.05 L 124.25 58.79 C 121.26 57.61 118.15 57.03 114.96 56.71 L 114.93 56.07 C 117.93 56.01 120.83 56.50 123.80 56.83 C 124.43 48.17 123.52 39.43 124.32 30.75 Z" fill="#0a0b15" />
<path d="M 72.81 31.90 L 73.84 31.85 C 74.29 43.47 73.72 55.13 74.13 66.75 C 75.84 67.04 74.64 60.47 75.00 59.06 L 75.75 58.79 C 75.86 60.07 75.99 61.34 76.16 62.62 C 80.75 61.57 85.32 60.69 89.98 60.01 L 89.95 61.94 C 86.68 62.11 73.54 61.61 76.22 67.71 C 80.00 69.53 84.45 69.63 88.39 71.21 L 87.88 71.91 C 83.19 71.32 78.53 70.24 73.93 69.16 C 73.58 68.48 73.24 67.78 72.91 67.08 C 72.92 64.33 72.97 61.59 72.93 58.84 C 72.93 50.17 73.32 41.44 72.65 32.79 L 72.81 31.90 Z" fill="#5a583e" />
<path d="M 126.34 31.60 L 126.92 32.22 C 127.14 41.12 126.89 50.03 127.05 58.93 C 126.74 65.60 126.23 68.52 131.22 73.41 C 126.26 70.64 126.15 67.87 119.94 70.54 C 115.31 71.67 110.95 72.15 106.18 72.17 C 102.03 71.96 97.92 71.92 93.77 72.27 C 92.14 72.16 90.50 72.10 88.86 72.03 L 87.88 71.91 L 88.39 71.21 C 91.20 70.33 89.61 64.26 89.95 61.94 L 89.98 60.01 C 90.42 58.79 90.84 57.56 91.26 56.33 L 92.86 56.10 C 92.47 57.30 92.15 58.51 92.05 59.79 C 97.48 60.19 103.10 60.10 108.54 59.89 C 108.50 58.82 108.44 57.76 108.35 56.69 L 109.03 56.85 C 110.69 63.49 117.05 59.87 122.59 62.36 C 124.81 63.59 123.74 59.99 124.25 58.79 L 125.00 59.05 C 125.02 61.61 124.92 64.21 125.12 66.76 C 126.56 67.44 125.76 63.75 126.02 63.02 C 126.17 52.56 125.61 42.03 126.34 31.60 Z" fill="#434009" />
<path d="M 72.65 32.79 C 73.32 41.44 72.93 50.17 72.93 58.84 C 71.92 59.09 70.92 59.36 69.92 59.67 C 66.37 60.80 63.23 62.66 59.75 63.94 C 62.22 58.72 73.44 60.30 71.81 54.26 C 72.46 47.15 71.23 39.76 72.65 32.79 Z" fill="#0c2f5d" />
<path d="M 95.06 32.88 C 100.25 32.91 98.62 33.74 99.07 38.02 C 93.59 38.30 95.33 37.30 95.06 32.88 Z" fill="#fcf84f" />
<path d="M 104.87 32.87 C 105.03 34.30 105.19 35.72 105.37 37.15 C 103.92 37.62 102.49 38.00 100.95 38.00 C 101.38 33.80 99.75 32.91 104.87 32.87 Z" fill="#fdf832" />
<path d="M 109.95 38.05 C 110.04 39.48 109.91 40.69 109.41 42.04 C 107.48 39.57 106.05 39.21 109.95 38.05 Z" fill="#726c0a" />
<path d="M 90.27 38.96 C 94.90 37.88 89.63 42.77 90.58 45.32 C 90.06 43.20 90.08 41.12 90.27 38.96 Z" fill="#50522d" />
<path d="M 94.00 40.18 C 97.87 39.92 101.83 39.75 105.69 40.23 C 106.30 41.77 105.34 45.96 107.49 46.07 C 107.64 44.01 106.09 42.71 109.12 43.85 C 107.96 47.44 109.74 53.73 104.30 53.35 C 104.62 47.56 101.79 48.50 100.80 52.88 L 99.13 52.86 C 98.93 48.56 96.07 49.37 95.99 53.04 L 94.93 53.14 C 94.61 50.03 95.91 49.15 92.10 48.79 L 91.12 48.10 C 90.94 47.17 90.76 46.25 90.58 45.32 C 95.17 46.19 94.58 46.28 95.73 41.89 C 96.42 44.64 94.66 47.72 98.84 46.88 C 98.68 43.78 100.61 40.44 95.91 41.07 C 95.27 40.78 94.63 40.49 94.00 40.18 Z" fill="#918b26" />
<path d="M 95.91 41.07 C 100.61 40.44 98.68 43.78 98.84 46.88 C 94.66 47.72 96.42 44.64 95.73 41.89 L 95.91 41.07 Z" fill="#fefb59" />
<path d="M 101.15 41.12 C 107.35 38.85 105.40 48.13 101.16 46.92 C 100.93 45.00 100.92 43.05 101.15 41.12 Z" fill="#faf43a" />
<path d="M 70.78 42.97 C 71.11 46.92 70.61 50.44 71.81 54.26 C 73.44 60.30 62.22 58.72 59.75 63.94 C 56.79 66.21 58.37 71.68 57.99 75.00 C 54.26 78.59 46.15 78.77 41.17 78.57 C 40.96 81.47 41.00 84.34 40.35 87.20 C 39.14 81.16 38.60 75.50 39.15 69.34 C 39.64 67.37 39.94 65.36 40.37 63.38 C 54.54 65.89 66.55 55.90 70.78 42.97 Z" fill="#0453a2" />
<path d="M 35.30 44.01 C 36.64 46.36 36.36 48.47 35.75 50.99 C 34.30 48.65 34.63 46.54 35.30 44.01 Z" fill="#909191" />
<path d="M 164.77 43.95 C 165.38 45.88 165.60 47.41 164.19 49.04 C 163.62 47.12 163.45 45.61 164.77 43.95 Z" fill="#848484" />
<path d="M 91.12 48.10 L 92.10 48.79 C 92.32 50.21 92.53 51.63 92.76 53.05 C 90.05 52.70 91.02 49.97 91.12 48.10 Z" fill="#313a2d" />
<path d="M 92.10 48.79 C 95.91 49.15 94.61 50.03 94.93 53.14 L 93.70 53.27 L 92.76 53.05 C 92.53 51.63 92.32 50.21 92.10 48.79 Z" fill="#e6e063" />
<path d="M 104.30 53.35 C 103.14 53.19 101.97 53.03 100.80 52.88 C 101.79 48.50 104.62 47.56 104.30 53.35 Z" fill="#faf841" />
<path d="M 99.13 52.86 C 98.09 52.92 97.04 52.98 95.99 53.04 C 96.07 49.37 98.93 48.56 99.13 52.86 Z" fill="#f3f159" />
<path d="M 93.70 53.27 L 94.93 53.14 L 95.99 53.04 C 97.04 52.98 98.09 52.92 99.13 52.86 L 100.80 52.88 C 101.97 53.03 103.14 53.19 104.30 53.35 C 102.18 53.82 100.04 54.04 97.88 54.20 C 96.48 53.92 95.08 53.62 93.70 53.27 Z" fill="#505324" />
<path d="M 91.26 56.33 C 90.84 57.56 90.42 58.79 89.98 60.01 C 85.32 60.69 80.75 61.57 76.16 62.62 C 75.99 61.34 75.86 60.07 75.75 58.79 C 80.88 56.46 85.91 57.35 91.26 56.33 Z" fill="#f5f3a7" />
<path d="M 92.86 56.10 C 97.93 55.99 103.39 55.46 108.35 56.69 C 108.44 57.76 108.50 58.82 108.54 59.89 C 103.10 60.10 97.48 60.19 92.05 59.79 C 92.15 58.51 92.47 57.30 92.86 56.10 Z" fill="#f2eb4a" />
<path d="M 112.16 55.50 C 113.09 55.66 114.01 55.85 114.93 56.07 L 114.96 56.71 C 112.97 57.20 111.04 57.15 109.03 56.85 C 110.05 56.33 111.10 55.88 112.16 55.50 Z" fill="#6e6504" />
<path d="M 109.03 56.85 C 111.04 57.15 112.97 57.20 114.96 56.71 C 118.15 57.03 121.26 57.61 124.25 58.79 C 123.74 59.99 124.81 63.59 122.59 62.36 C 117.05 59.87 110.69 63.49 109.03 56.85 Z" fill="#ebe206" />
<path d="M 163.74 56.76 C 164.02 59.67 164.17 62.41 163.26 65.24 C 162.98 62.33 162.83 59.59 163.74 56.76 Z" fill="#7d7d7d" />
<path d="M 36.25 59.01 C 37.68 61.34 37.35 63.46 36.75 65.99 C 35.32 63.66 35.65 61.54 36.25 59.01 Z" fill="#8d8d8d" />
<path d="M 72.93 58.84 C 72.97 61.59 72.92 64.33 72.91 67.08 C 71.32 64.93 73.06 59.95 69.92 59.67 C 70.92 59.36 71.92 59.09 72.93 58.84 Z" fill="#b0ae98" />
<path d="M 127.05 58.93 C 131.69 59.97 136.00 61.60 140.07 64.08 C 140.47 65.76 140.61 67.20 140.34 68.91 C 139.17 69.69 138.01 70.47 136.84 71.24 C 135.94 71.68 135.04 72.12 134.15 72.57 C 133.17 72.85 132.20 73.13 131.22 73.41 C 126.23 68.52 126.74 65.60 127.05 58.93 Z" fill="#c6be08" />
<path d="M 69.92 59.67 C 73.06 59.95 71.32 64.93 72.91 67.08 C 73.24 67.78 73.58 68.48 73.93 69.16 C 73.39 70.05 72.83 70.94 72.30 71.83 C 69.38 73.89 69.16 74.24 65.78 72.65 C 64.93 72.12 64.06 71.62 63.19 71.13 C 62.10 70.36 60.95 69.93 59.75 69.83 C 59.48 67.81 59.45 65.96 59.75 63.94 C 63.23 62.66 66.37 60.80 69.92 59.67 Z" fill="#fcfbe2" />
<path d="M 91.20 61.20 C 95.34 61.33 106.52 59.83 108.87 62.06 C 103.88 62.34 97.73 61.01 93.10 62.96 C 90.93 63.66 93.57 63.73 94.25 64.32 C 93.87 67.31 95.01 68.76 92.07 70.91 C 90.03 70.74 91.19 63.09 91.20 61.20 Z" fill="#cbc44f" />
<path d="M 89.95 61.94 C 89.61 64.26 91.20 70.33 88.39 71.21 C 84.45 69.63 80.00 69.53 76.22 67.71 C 73.54 61.61 86.68 62.11 89.95 61.94 Z" fill="#d3cf86" />
<path d="M 108.87 62.06 C 109.15 64.95 109.16 67.91 108.80 70.80 C 103.26 71.23 97.62 71.02 92.07 70.91 C 95.01 68.76 93.87 67.31 94.25 64.32 C 93.57 63.73 90.93 63.66 93.10 62.96 C 97.73 61.01 103.88 62.34 108.87 62.06 Z" fill="#fef647" />
<path d="M 111.03 62.08 C 111.52 65.36 109.16 70.56 114.17 70.48 C 108.16 73.68 109.41 63.82 111.03 62.08 Z" fill="#b0a70d" />
<path d="M 111.03 62.08 C 114.95 61.77 120.19 62.70 123.79 64.29 C 125.89 70.31 117.66 69.20 114.17 70.48 C 109.16 70.56 111.52 65.36 111.03 62.08 Z" fill="#f2e805" />
<path d="M 59.75 63.94 C 59.45 65.96 59.48 67.81 59.75 69.83 C 58.36 74.94 58.80 80.65 59.81 85.80 C 58.28 90.86 58.85 96.68 59.80 101.82 C 58.30 106.89 58.84 112.69 59.80 117.83 C 58.38 122.87 58.65 128.90 59.96 133.95 C 56.44 132.56 58.55 125.28 57.99 122.16 C 58.04 117.80 58.00 113.44 58.00 109.08 C 58.04 103.39 57.97 97.69 58.00 92.00 C 58.03 86.34 57.99 80.67 57.99 75.00 C 58.37 71.68 56.79 66.21 59.75 63.94 Z" fill="#0a131c" />
<path d="M 140.07 64.08 C 142.08 65.15 141.91 65.83 142.00 67.97 C 142.02 88.28 141.96 108.72 142.03 129.03 C 141.89 130.55 142.33 131.79 140.95 132.83 C 140.98 127.62 141.45 121.99 140.29 116.94 C 141.56 111.80 141.27 106.10 140.29 100.94 C 141.43 96.22 141.46 90.29 140.23 85.60 L 140.34 84.95 C 141.52 79.76 141.24 74.14 140.34 68.91 C 140.61 67.20 140.47 65.76 140.07 64.08 Z" fill="#05090e" />
<path d="M 73.93 69.16 C 78.53 70.24 83.19 71.32 87.88 71.91 L 88.86 72.03 C 88.53 73.80 88.35 75.39 88.72 77.16 C 82.90 77.02 77.19 76.05 71.52 74.78 C 71.74 73.79 72.02 72.81 72.30 71.83 C 72.83 70.94 73.39 70.05 73.93 69.16 Z" fill="#f0eda1" />
<path d="M 131.22 73.41 C 128.24 74.77 125.23 75.64 121.98 76.06 C 120.09 74.52 120.29 72.73 119.94 70.54 C 126.15 67.87 126.26 70.64 131.22 73.41 Z" fill="#d4ca06" />
<path d="M 140.34 68.91 C 141.24 74.14 141.52 79.76 140.34 84.95 C 139.82 80.51 140.21 76.04 139.82 71.60 C 138.83 71.44 137.83 71.35 136.84 71.24 C 138.01 70.47 139.17 69.69 140.34 68.91 Z" fill="#666103" />
<path d="M 59.75 69.83 C 60.35 71.74 61.49 72.67 63.19 71.13 C 64.06 71.62 64.93 72.12 65.78 72.65 C 65.68 73.78 66.19 74.03 66.91 74.79 C 66.60 78.81 66.97 82.87 66.65 86.88 C 65.47 87.27 64.28 87.63 63.07 87.90 C 62.25 86.33 61.55 85.98 59.81 85.80 C 58.80 80.65 58.36 74.94 59.75 69.83 Z" fill="#cdca97" />
<path d="M 59.75 69.83 C 60.95 69.93 62.10 70.36 63.19 71.13 C 61.49 72.67 60.35 71.74 59.75 69.83 Z" fill="#46463b" />
<path d="M 119.94 70.54 C 120.29 72.73 120.09 74.52 121.98 76.06 C 118.98 76.55 115.98 77.02 112.93 77.21 C 112.03 77.23 111.13 77.26 110.23 77.30 C 107.77 77.12 105.31 76.97 102.85 76.90 C 103.18 75.60 103.53 74.30 103.91 73.02 C 104.67 72.73 105.43 72.45 106.18 72.17 C 110.95 72.15 115.31 71.67 119.94 70.54 Z" fill="#f8ed11" />
<path d="M 136.84 71.24 C 137.83 71.35 138.83 71.44 139.82 71.60 C 140.21 76.04 139.82 80.51 140.34 84.95 L 140.23 85.60 C 137.88 87.16 135.15 87.81 139.87 87.55 C 140.18 92.01 139.83 96.48 140.29 100.94 C 138.45 102.71 134.79 104.05 139.87 103.54 C 140.18 108.00 139.83 112.47 140.29 116.94 C 138.45 118.71 134.79 120.05 139.87 119.54 C 140.17 124.14 139.83 128.75 140.31 133.35 C 136.66 136.36 131.54 137.85 127.00 138.93 C 127.10 134.65 126.75 130.31 127.12 126.05 C 127.05 124.58 129.97 122.67 127.09 122.84 C 129.50 118.84 127.57 112.51 128.97 107.63 L 128.98 106.67 C 136.09 105.70 128.10 122.90 134.60 122.15 C 131.53 117.89 133.76 111.14 132.80 106.07 C 131.50 106.11 130.24 106.38 128.98 106.67 L 127.23 106.62 C 126.85 101.98 126.70 97.02 127.32 92.40 C 129.65 91.48 132.13 90.88 134.44 89.93 C 131.89 85.12 132.69 77.69 134.15 72.57 C 135.04 72.12 135.94 71.68 136.84 71.24 Z" fill="#a39c07" />
<path d="M 72.30 71.83 C 72.02 72.81 71.74 73.79 71.52 74.78 C 77.19 76.05 82.90 77.02 88.72 77.16 L 89.68 77.31 C 95.74 78.41 104.18 78.44 110.23 77.30 C 111.13 77.26 112.03 77.23 112.93 77.21 L 113.65 77.83 C 111.81 78.81 110.00 79.00 107.95 79.08 C 105.00 79.02 102.05 78.99 99.10 79.05 C 95.49 79.02 91.80 78.80 88.21 79.20 C 88.43 82.18 86.39 92.66 89.79 93.31 C 95.99 94.57 103.95 94.29 110.23 93.36 L 112.05 93.38 L 112.40 94.30 C 109.30 95.12 106.22 94.95 103.06 95.17 C 100.87 96.61 102.30 106.60 102.20 109.84 C 104.60 110.27 106.90 109.91 109.23 109.33 C 110.14 109.24 111.05 109.16 111.96 109.10 L 112.22 109.84 L 112.35 110.70 C 104.35 111.15 96.11 111.31 88.12 110.52 C 87.90 115.20 87.75 120.03 88.26 124.69 C 89.08 124.94 89.92 125.15 90.76 125.32 C 92.13 125.64 93.51 125.88 94.90 126.09 L 95.05 126.99 C 89.37 126.83 83.69 125.79 78.03 125.26 C 75.81 126.47 77.53 136.67 77.00 139.95 C 75.60 139.86 74.22 139.75 72.88 139.32 C 78.04 140.07 75.41 132.11 76.04 128.98 C 77.21 123.12 70.67 124.11 66.86 122.91 C 66.28 122.10 65.38 121.98 66.01 120.89 C 67.70 120.98 69.34 122.94 68.99 120.01 C 68.43 116.85 70.65 108.07 67.17 106.79 C 66.35 106.00 65.17 106.16 65.99 104.82 C 69.08 105.74 72.54 107.09 75.79 106.91 C 76.14 102.43 76.26 97.75 75.73 93.29 C 73.10 91.95 69.92 91.45 67.03 90.98 C 66.39 90.14 65.31 90.05 65.99 88.86 C 67.69 88.97 69.35 90.96 68.99 88.01 C 68.40 84.99 70.77 75.42 66.91 74.79 C 66.19 74.03 65.68 73.78 65.78 72.65 C 69.16 74.24 69.38 73.89 72.30 71.83 Z" fill="#54511a" />
<path d="M 88.86 72.03 C 90.50 72.10 92.14 72.16 93.77 72.27 C 97.11 73.19 100.48 73.13 103.91 73.02 C 103.53 74.30 103.18 75.60 102.85 76.90 C 98.45 76.99 94.06 76.96 89.68 77.31 L 88.72 77.16 C 88.35 75.39 88.53 73.80 88.86 72.03 Z" fill="#fef75f" />
<path d="M 93.77 72.27 C 97.92 71.92 102.03 71.96 106.18 72.17 C 105.43 72.45 104.67 72.73 103.91 73.02 C 100.48 73.13 97.11 73.19 93.77 72.27 Z" fill="#c0b938" />
<path d="M 131.22 73.41 C 132.20 73.13 133.17 72.85 134.15 72.57 C 132.69 77.69 131.89 85.12 134.44 89.93 C 132.13 90.88 129.65 91.48 127.32 92.40 C 126.70 97.02 126.85 101.98 127.23 106.62 L 128.98 106.67 L 128.97 107.63 C 125.08 108.91 121.02 109.12 117.08 110.14 C 114.91 111.56 116.33 120.11 116.06 123.01 C 115.85 126.02 117.17 124.53 119.12 124.50 C 121.80 124.03 124.43 123.39 127.09 122.84 C 129.97 122.67 127.05 124.58 127.12 126.05 C 126.75 130.31 127.10 134.65 127.00 138.93 L 126.10 139.15 C 125.89 134.48 126.23 129.77 125.81 125.12 C 118.35 125.59 108.82 126.32 102.36 127.88 C 101.76 132.45 102.03 137.30 101.99 141.96 L 100.99 141.95 L 100.96 140.98 C 100.94 136.40 101.25 131.75 100.80 127.20 C 98.91 127.01 96.96 127.03 95.05 126.99 L 94.90 126.09 C 99.54 125.95 103.72 126.39 108.22 125.33 C 110.41 125.12 112.61 125.04 114.78 124.74 C 115.16 120.06 115.25 115.02 114.73 110.36 C 113.90 110.17 113.06 110.00 112.22 109.84 L 111.96 109.10 C 112.98 109.02 114.01 108.95 115.03 108.88 C 118.55 108.43 122.50 108.27 125.74 106.73 C 126.25 102.28 126.15 97.60 125.80 93.13 C 123.80 92.88 121.87 93.14 119.91 93.49 C 117.41 93.87 114.90 94.04 112.40 94.30 L 112.05 93.38 C 116.61 93.33 114.51 89.09 115.07 86.00 C 114.74 83.76 115.90 79.14 113.65 77.83 L 112.93 77.21 C 115.98 77.02 118.98 76.55 121.98 76.06 C 125.23 75.64 128.24 74.77 131.22 73.41 Z" fill="#3b3802" />
<path d="M 162.77 72.99 C 163.37 75.21 163.63 77.03 162.23 79.01 C 161.63 76.79 161.37 74.97 162.77 72.99 Z" fill="#7f7f7f" />
<path d="M 37.25 74.01 C 38.68 76.34 38.35 78.46 37.74 80.98 C 36.33 78.66 36.65 76.53 37.25 74.01 Z" fill="#959596" />
<path d="M 57.99 75.00 C 57.99 80.67 58.03 86.34 58.00 92.00 C 53.91 97.73 41.17 91.19 41.18 99.15 C 40.55 95.09 39.52 91.35 40.35 87.20 C 41.00 84.34 40.96 81.47 41.17 78.57 C 46.15 78.77 54.26 78.59 57.99 75.00 Z" fill="#024388" />
<path d="M 66.91 74.79 C 70.77 75.42 68.40 84.99 68.99 88.01 C 69.35 90.96 67.69 88.97 65.99 88.86 C 66.22 88.21 66.44 87.54 66.65 86.88 C 66.97 82.87 66.60 78.81 66.91 74.79 Z" fill="#fcfabc" />
<path d="M 132.02 78.99 C 131.24 83.39 134.61 90.83 127.85 90.74 C 129.08 86.00 126.64 79.52 129.68 75.66 C 133.21 74.29 131.52 76.65 132.02 78.99 Z" fill="#9e9806" />
<path d="M 71.06 76.07 C 70.98 80.78 71.08 85.48 70.75 90.18 C 69.75 87.39 69.11 77.51 71.06 76.07 Z" fill="#979569" />
<path d="M 71.06 76.07 C 76.07 76.69 80.83 78.15 85.95 78.20 C 86.03 83.12 86.04 88.04 85.94 92.96 C 80.99 92.43 75.41 91.81 70.75 90.18 C 71.08 85.48 70.98 80.78 71.06 76.07 Z" fill="#fdf998" />
<path d="M 129.68 75.66 C 126.64 79.52 129.08 86.00 127.85 90.74 C 123.99 91.48 120.13 92.50 116.21 92.88 C 115.86 88.11 115.75 83.11 116.26 78.35 C 120.74 77.47 125.24 76.78 129.68 75.66 Z" fill="#d6cc06" />
<path d="M 89.68 77.31 C 94.06 76.96 98.45 76.99 102.85 76.90 C 105.31 76.97 107.77 77.12 110.23 77.30 C 104.18 78.44 95.74 78.41 89.68 77.31 Z" fill="#c6be36" />
<path d="M 85.95 78.20 C 87.67 79.42 87.67 91.55 85.94 92.96 C 86.04 88.04 86.03 83.12 85.95 78.20 Z" fill="#c3bd5c" />
<path d="M 113.65 77.83 C 115.90 79.14 114.74 83.76 115.07 86.00 C 114.51 89.09 116.61 93.33 112.05 93.38 L 110.23 93.36 C 108.14 93.18 106.05 93.01 103.96 92.93 C 105.31 88.18 106.03 83.63 107.95 79.08 C 110.00 79.00 111.81 78.81 113.65 77.83 Z" fill="#fdf20b" />
<path d="M 88.21 79.20 C 91.80 78.80 95.49 79.02 99.10 79.05 C 97.66 83.75 95.89 88.12 94.85 92.91 C 93.16 93.04 91.48 93.19 89.79 93.31 C 86.39 92.66 88.43 82.18 88.21 79.20 Z" fill="#fff860" />
<path d="M 99.10 79.05 C 102.05 78.99 105.00 79.02 107.95 79.08 C 106.03 83.63 105.31 88.18 103.96 92.93 C 100.92 93.00 97.89 92.97 94.85 92.91 C 95.89 88.12 97.66 83.75 99.10 79.05 Z" fill="#fff635" />
<path d="M 59.81 85.80 C 60.22 87.33 61.41 88.47 63.07 87.90 C 64.28 87.63 65.47 87.27 66.65 86.88 C 66.44 87.54 66.22 88.21 65.99 88.86 C 65.31 90.05 66.39 90.14 67.03 90.98 C 66.43 95.00 66.91 99.00 66.66 103.02 C 65.39 103.16 64.24 103.12 62.99 102.91 C 61.96 102.28 60.90 101.91 59.80 101.82 C 58.85 96.68 58.28 90.86 59.81 85.80 Z" fill="#cdc870" />
<path d="M 59.81 85.80 C 61.55 85.98 62.25 86.33 63.07 87.90 C 61.41 88.47 60.22 87.33 59.81 85.80 Z" fill="#49482f" />
<path d="M 140.23 85.60 C 141.46 90.29 141.43 96.22 140.29 100.94 C 139.83 96.48 140.18 92.01 139.87 87.55 C 135.15 87.81 137.88 87.16 140.23 85.60 Z" fill="#656002" />
<path d="M 161.75 87.01 C 162.35 89.53 162.68 91.66 161.25 93.98 C 160.65 91.46 160.31 89.33 161.75 87.01 Z" fill="#858585" />
<path d="M 38.24 87.99 C 39.63 89.98 39.37 91.79 38.77 94.01 C 37.36 92.03 37.63 90.21 38.24 87.99 Z" fill="#858585" />
<path d="M 67.03 90.98 C 69.92 91.45 73.10 91.95 75.73 93.29 C 76.26 97.75 76.14 102.43 75.79 106.91 C 72.54 107.09 69.08 105.74 65.99 104.82 C 66.22 104.22 66.44 103.62 66.66 103.02 C 66.91 99.00 66.43 95.00 67.03 90.98 Z" fill="#fdf77e" />
<path d="M 58.00 92.00 C 57.97 97.69 58.04 103.39 58.00 109.08 C 53.31 111.89 46.41 109.33 42.89 113.01 C 41.99 108.32 40.61 104.00 41.18 99.15 C 41.17 91.19 53.91 97.73 58.00 92.00 Z" fill="#013470" />
<path d="M 77.95 93.38 C 78.04 98.20 77.95 103.02 78.06 107.83 C 76.29 106.55 76.43 94.34 77.95 93.38 Z" fill="#9f9945" />
<path d="M 77.95 93.38 C 83.32 93.88 88.67 94.78 94.05 95.06 C 89.82 100.14 88.46 106.53 81.84 108.49 C 80.57 108.31 79.31 108.09 78.06 107.83 C 77.95 103.02 78.04 98.20 77.95 93.38 Z" fill="#fef65f" />
<path d="M 89.79 93.31 C 91.48 93.19 93.16 93.04 94.85 92.91 C 97.89 92.97 100.92 93.00 103.96 92.93 C 106.05 93.01 108.14 93.18 110.23 93.36 C 103.95 94.29 95.99 94.57 89.79 93.31 Z" fill="#b8b022" />
<path d="M 125.80 93.13 C 126.15 97.60 126.25 102.28 125.74 106.73 C 122.50 108.27 118.55 108.43 115.03 108.88 C 111.48 107.80 116.80 100.50 116.86 97.86 C 116.74 94.81 121.84 95.58 119.91 93.49 C 121.87 93.14 123.80 92.88 125.80 93.13 Z" fill="#cfc607" />
<path d="M 112.40 94.30 C 114.90 94.04 117.41 93.87 119.91 93.49 C 121.84 95.58 116.74 94.81 116.86 97.86 C 116.80 100.50 111.48 107.80 115.03 108.88 C 114.01 108.95 112.98 109.02 111.96 109.10 C 111.05 109.16 110.14 109.24 109.23 109.33 C 107.22 109.18 105.20 109.06 103.21 108.74 C 102.75 104.26 103.03 99.67 103.06 95.17 C 106.22 94.95 109.30 95.12 112.40 94.30 Z" fill="#f5ea05" />
<path d="M 94.05 95.06 C 96.27 95.01 98.59 94.93 100.80 95.18 C 101.18 99.69 101.14 104.41 100.86 108.93 C 97.49 108.97 94.13 109.04 90.77 109.29 C 87.76 109.05 84.83 108.99 81.84 108.49 C 88.46 106.53 89.82 100.14 94.05 95.06 Z" fill="#fef533" />
<path d="M 103.06 95.17 C 103.03 99.67 102.75 104.26 103.21 108.74 C 105.20 109.06 107.22 109.18 109.23 109.33 C 106.90 109.91 104.60 110.27 102.20 109.84 C 102.30 106.60 100.87 96.61 103.06 95.17 Z" fill="#b5ab0b" />
<path d="M 39.15 99.93 C 40.53 101.24 40.39 102.40 39.79 104.08 C 38.51 102.73 38.61 101.62 39.15 99.93 Z" fill="#7d7d7d" />
<path d="M 160.85 99.93 C 161.39 101.62 161.49 102.73 160.20 104.08 C 159.61 102.40 159.47 101.24 160.85 99.93 Z" fill="#818181" />
<path d="M 140.29 100.94 C 141.27 106.10 141.56 111.80 140.29 116.94 C 139.83 112.47 140.18 108.00 139.87 103.54 C 134.79 104.05 138.45 102.71 140.29 100.94 Z" fill="#666203" />
<path d="M 59.80 101.82 C 60.23 103.76 61.56 104.84 62.99 102.91 C 64.24 103.12 65.39 103.16 66.66 103.02 C 66.44 103.62 66.22 104.22 65.99 104.82 C 65.17 106.16 66.35 106.00 67.17 106.79 C 66.13 110.83 67.01 114.69 66.75 118.73 C 65.50 118.66 64.24 118.61 62.99 118.68 C 61.94 118.27 60.88 117.99 59.80 117.83 C 58.84 112.69 58.30 106.89 59.80 101.82 Z" fill="#cdc548" />
<path d="M 59.80 101.82 C 60.90 101.91 61.96 102.28 62.99 102.91 C 61.56 104.84 60.23 103.76 59.80 101.82 Z" fill="#4a4721" />
<path d="M 132.80 106.07 C 133.76 111.14 131.53 117.89 134.60 122.15 C 128.10 122.90 136.09 105.70 128.98 106.67 C 130.24 106.38 131.50 106.11 132.80 106.07 Z" fill="#252402" />
<path d="M 67.17 106.79 C 70.65 108.07 68.43 116.85 68.99 120.01 C 69.34 122.94 67.70 120.98 66.01 120.89 C 66.26 120.17 66.51 119.46 66.75 118.73 C 67.01 114.69 66.13 110.83 67.17 106.79 Z" fill="#fcf753" />
<path d="M 71.07 108.10 C 70.97 112.74 70.99 117.37 70.96 122.01 C 69.44 119.91 69.27 109.36 71.07 108.10 Z" fill="#97912d" />
<path d="M 71.07 108.10 C 76.05 108.63 80.92 109.88 85.94 110.21 C 86.04 115.12 86.04 120.04 85.94 124.96 C 80.98 124.52 75.61 123.82 70.96 122.01 C 70.99 117.37 70.97 112.74 71.07 108.10 Z" fill="#fdf43d" />
<path d="M 128.97 107.63 C 127.57 112.51 129.50 118.84 127.09 122.84 C 124.43 123.39 121.80 124.03 119.12 124.50 C 115.15 123.56 117.66 113.48 117.08 110.14 C 121.02 109.12 125.08 108.91 128.97 107.63 Z" fill="#cbc308" />
<path d="M 58.00 109.08 C 58.00 113.44 58.04 117.80 57.99 122.16 C 54.36 123.16 49.25 121.91 46.86 125.05 C 45.13 121.15 43.63 117.23 42.89 113.01 C 46.41 109.33 53.31 111.89 58.00 109.08 Z" fill="#012756" />
<path d="M 90.77 109.29 C 94.13 109.04 97.49 108.97 100.86 108.93 C 100.47 111.13 92.75 109.79 90.77 109.29 Z" fill="#bbb217" />
<path d="M 85.94 110.21 C 87.68 111.49 87.67 123.55 85.94 124.96 C 86.04 120.04 86.04 115.12 85.94 110.21 Z" fill="#c5bb20" />
<path d="M 88.12 110.52 C 96.11 111.31 104.35 111.15 112.35 110.70 C 113.69 113.22 107.46 111.07 107.01 113.01 C 105.19 116.59 103.34 120.13 101.47 123.67 C 101.98 124.11 102.50 124.54 103.03 124.95 C 98.93 124.88 94.85 125.01 90.76 125.32 C 89.92 125.15 89.08 124.94 88.26 124.69 C 87.75 120.03 87.90 115.20 88.12 110.52 Z" fill="#fcf10e" />
<path d="M 112.22 109.84 C 113.06 110.00 113.90 110.17 114.73 110.36 C 115.25 115.02 115.16 120.06 114.78 124.74 C 112.61 125.04 110.41 125.12 108.22 125.33 C 106.49 125.20 104.76 125.06 103.03 124.95 C 102.50 124.54 101.98 124.11 101.47 123.67 C 103.34 120.13 105.19 116.59 107.01 113.01 C 107.46 111.07 113.69 113.22 112.35 110.70 L 112.22 109.84 Z" fill="#dfd505" />
<path d="M 117.08 110.14 C 117.66 113.48 115.15 123.56 119.12 124.50 C 117.17 124.53 115.85 126.02 116.06 123.01 C 116.33 120.11 114.91 111.56 117.08 110.14 Z" fill="#9a9406" />
<path d="M 140.29 116.94 C 141.45 121.99 140.98 127.62 140.95 132.83 L 140.31 133.35 C 139.83 128.75 140.17 124.14 139.87 119.54 C 134.79 120.05 138.45 118.71 140.29 116.94 Z" fill="#666103" />
<path d="M 59.80 117.83 C 60.27 119.82 61.78 120.95 62.99 118.68 C 64.24 118.61 65.50 118.66 66.75 118.73 C 66.51 119.46 66.26 120.17 66.01 120.89 C 65.38 121.98 66.28 122.10 66.86 122.91 C 66.26 127.55 67.10 132.20 66.24 136.86 C 64.10 136.05 61.91 135.14 59.96 133.95 C 58.65 128.90 58.38 122.87 59.80 117.83 Z" fill="#ccc21e" />
<path d="M 59.80 117.83 C 60.88 117.99 61.94 118.27 62.99 118.68 C 61.78 120.95 60.27 119.82 59.80 117.83 Z" fill="#4a4712" />
<path d="M 44.21 123.89 C 46.72 128.22 49.19 132.51 51.97 136.68 C 48.36 145.30 44.57 148.46 36.81 153.24 C 35.75 152.27 34.73 151.24 33.79 150.15 C 39.46 145.57 45.01 143.10 45.98 134.96 C 46.47 131.28 44.38 128.40 42.13 125.76 C 42.81 124.96 42.97 122.13 44.21 123.89 Z" fill="#faf02c" />
<path d="M 66.86 122.91 C 70.67 124.11 77.21 123.12 76.04 128.98 C 75.41 132.11 78.04 140.07 72.88 139.32 C 70.64 138.58 68.45 137.70 66.24 136.86 C 67.10 132.20 66.26 127.55 66.86 122.91 Z" fill="#fcf219" />
<path d="M 157.25 123.61 C 158.37 126.82 159.91 129.82 161.19 132.95 C 159.37 144.72 155.11 150.30 144.96 156.20 C 141.54 155.88 138.18 155.20 134.84 154.41 C 142.92 152.17 152.02 146.34 153.50 137.41 C 154.22 134.34 154.50 132.97 152.10 130.65 C 153.34 129.12 154.93 122.74 157.25 123.61 Z" fill="#f3e703" />
<path d="M 157.25 123.61 L 158.12 123.70 C 159.97 126.65 161.18 130.06 163.28 132.82 C 169.48 132.76 175.67 130.12 181.97 130.10 C 175.79 143.55 163.43 157.21 150.77 164.89 L 149.83 163.95 C 161.79 155.82 172.31 145.19 179.01 132.29 C 174.28 132.79 169.59 133.36 164.99 134.67 C 162.82 134.69 162.41 134.84 161.19 132.95 C 159.91 129.82 158.37 126.82 157.25 123.61 Z" fill="#2b2a1a" />
<path d="M 78.03 125.26 C 77.98 130.19 77.99 135.11 78.01 140.04 L 77.00 139.95 C 77.53 136.67 75.81 126.47 78.03 125.26 Z" fill="#9f970a" />
<path d="M 78.03 125.26 C 83.69 125.79 89.37 126.83 95.05 126.99 C 96.96 127.03 98.91 127.01 100.80 127.20 C 101.25 131.75 100.94 136.40 100.96 140.98 C 96.55 140.97 92.16 140.92 87.77 141.33 C 84.49 141.02 81.26 140.57 78.01 140.04 C 77.99 135.11 77.98 130.19 78.03 125.26 Z" fill="#f2e706" />
<path d="M 90.76 125.32 C 94.85 125.01 98.93 124.88 103.03 124.95 C 104.76 125.06 106.49 125.20 108.22 125.33 C 103.72 126.39 99.54 125.95 94.90 126.09 C 93.51 125.88 92.13 125.64 90.76 125.32 Z" fill="#aca302" />
<path d="M 125.81 125.12 C 126.23 129.77 125.89 134.48 126.10 139.15 C 121.20 140.43 116.26 140.93 111.22 141.33 C 108.55 141.14 105.86 141.08 103.20 140.76 C 102.74 136.41 103.42 132.19 102.36 127.88 C 108.82 126.32 118.35 125.59 125.81 125.12 Z" fill="#cbc308" />
<path d="M 42.13 125.76 C 44.38 128.40 46.47 131.28 45.98 134.96 C 45.01 143.10 39.46 145.57 33.79 150.15 C 32.70 148.92 31.77 147.60 30.79 146.29 C 35.94 142.59 42.12 139.30 39.31 131.79 C 40.17 129.74 41.13 127.74 42.13 125.76 Z" fill="#fcf457" />
<path d="M 102.36 127.88 C 103.42 132.19 102.74 136.41 103.20 140.76 C 105.86 141.08 108.55 141.14 111.22 141.33 C 108.18 142.09 105.11 142.11 101.99 141.96 C 102.03 137.30 101.76 132.45 102.36 127.88 Z" fill="#8e8803" />
<path d="M 18.04 130.10 C 23.18 130.36 28.37 131.46 33.33 132.82 L 32.01 133.86 C 28.37 133.26 24.72 132.43 21.03 132.14 C 22.22 135.77 25.05 138.91 27.10 142.10 C 28.19 143.64 29.48 144.94 30.79 146.29 C 31.77 147.60 32.70 148.92 33.79 150.15 C 34.73 151.24 35.75 152.27 36.81 153.24 C 38.68 155.08 40.79 156.59 42.82 158.24 C 45.07 160.41 47.60 162.18 50.17 163.95 L 49.22 164.88 C 36.33 156.85 24.34 143.88 18.04 130.10 Z" fill="#302f26" />
<path d="M 152.10 130.65 C 154.50 132.97 154.22 134.34 153.50 137.41 C 152.02 146.34 142.92 152.17 134.84 154.41 C 131.81 153.75 128.79 153.02 125.77 152.31 C 134.25 153.48 149.76 145.62 148.37 135.82 C 149.52 134.02 150.81 132.35 152.10 130.65 Z" fill="#fbf01e" />
<path d="M 21.03 132.14 C 24.72 132.43 28.37 133.26 32.01 133.86 L 33.11 134.08 C 32.75 138.07 30.09 139.95 27.10 142.10 C 25.05 138.91 22.22 135.77 21.03 132.14 Z" fill="#f7f5ca" />
<path d="M 39.31 131.79 C 42.12 139.30 35.94 142.59 30.79 146.29 C 29.48 144.94 28.19 143.64 27.10 142.10 C 30.09 139.95 32.75 138.07 33.11 134.08 L 33.98 134.21 C 35.27 135.56 36.96 135.91 37.92 134.01 C 38.39 133.27 38.85 132.53 39.31 131.79 Z" fill="#fcf789" />
<path d="M 179.01 132.29 C 172.31 145.19 161.79 155.82 149.83 163.95 C 148.57 162.85 147.75 161.53 147.01 160.04 C 155.26 155.22 166.99 145.23 164.99 134.67 C 169.59 133.36 174.28 132.79 179.01 132.29 Z" fill="#c8c008" />
<path d="M 161.19 132.95 C 162.41 134.84 162.82 134.69 164.99 134.67 C 166.99 145.23 155.26 155.22 147.01 160.04 C 146.33 158.76 145.66 157.47 144.96 156.20 C 155.11 150.30 159.37 144.72 161.19 132.95 Z" fill="#ddd305" />
<path d="M 33.98 134.21 C 35.34 133.81 36.65 133.74 37.92 134.01 C 36.96 135.91 35.27 135.56 33.98 134.21 Z" fill="#7b7748" />
<path d="M 148.37 135.82 C 149.76 145.62 134.25 153.48 125.77 152.31 C 124.86 152.11 123.95 151.91 123.05 151.69 C 132.74 147.93 141.52 143.99 148.37 135.82 Z" fill="#f9f143" />
<path d="M 51.97 136.68 C 54.27 138.88 56.59 141.05 59.15 142.95 C 55.97 150.39 49.84 154.77 42.82 158.24 C 40.79 156.59 38.68 155.08 36.81 153.24 C 44.57 148.46 48.36 145.30 51.97 136.68 Z" fill="#f3e705" />
<path d="M 87.77 141.33 C 92.16 140.92 96.55 140.97 100.96 140.98 L 100.99 141.95 C 96.45 141.98 92.24 142.41 87.77 141.33 Z" fill="#8b8301" />
<path d="M 59.15 142.95 C 64.67 146.93 70.78 148.99 76.90 151.71 C 69.80 153.58 62.55 154.92 55.36 156.42 C 53.14 158.36 52.69 162.01 50.17 163.95 C 47.60 162.18 45.07 160.41 42.82 158.24 C 49.84 154.77 55.97 150.39 59.15 142.95 Z" fill="#ccc407" />
<path d="M 79.87 153.10 C 79.11 156.71 77.86 160.24 76.61 163.71 C 70.61 162.48 63.14 160.65 57.97 157.40 C 60.92 156.84 63.89 156.37 66.83 155.74 C 71.10 154.81 75.52 153.49 79.87 153.10 Z" fill="#705305" />
<path d="M 86.96 153.07 C 88.51 154.62 90.09 154.36 92.04 153.84 C 97.35 154.09 102.65 154.09 107.96 153.84 C 109.91 154.36 111.49 154.62 113.04 153.07 C 120.54 151.36 119.57 158.97 121.65 163.87 C 119.54 164.84 117.36 165.00 115.09 165.25 C 113.40 164.61 112.27 164.47 110.91 165.82 C 109.69 165.98 108.46 166.15 107.23 166.32 C 102.34 165.86 97.66 165.86 92.77 166.32 C 91.53 166.14 90.30 165.95 89.06 165.76 C 87.36 164.38 85.86 164.61 83.92 165.34 C 82.02 164.96 80.15 164.61 78.35 163.87 C 80.44 158.96 79.45 151.37 86.96 153.07 Z" fill="#fcfcfc" />
<path d="M 86.96 153.07 C 88.88 152.64 90.45 152.46 92.04 153.84 C 90.09 154.36 88.51 154.62 86.96 153.07 Z" fill="#7d7d7d" />
<path d="M 113.04 153.07 C 111.49 154.62 109.91 154.36 107.96 153.84 C 109.55 152.46 111.12 152.64 113.04 153.07 Z" fill="#7e7e7e" />
<path d="M 120.13 153.10 C 124.48 153.49 128.90 154.81 133.17 155.74 C 136.11 156.37 139.08 156.84 142.03 157.40 C 136.86 160.64 129.39 162.48 123.39 163.71 C 122.14 160.24 120.89 156.71 120.13 153.10 Z" fill="#705305" />
<path d="M 57.60 159.44 C 73.87 166.35 91.35 169.09 108.96 167.81 C 121.50 166.65 132.27 163.56 143.92 158.99 C 148.37 165.93 153.35 175.20 156.75 182.86 C 122.85 203.41 77.13 203.51 43.25 182.85 C 46.13 175.89 50.13 169.20 53.63 162.65 C 54.72 161.12 55.08 157.96 57.60 159.44 Z" fill="#052f5d" />
<path d="M 83.92 165.34 C 85.86 164.61 87.36 164.38 89.06 165.76 C 87.13 166.39 85.67 166.52 83.92 165.34 Z" fill="#909090" />
<path d="M 115.09 165.25 C 113.70 166.48 112.60 166.38 110.91 165.82 C 112.27 164.47 113.40 164.61 115.09 165.25 Z" fill="#9e9e9e" />
<path d="M 92.77 166.32 C 97.66 165.86 102.34 165.86 107.23 166.32 C 102.51 167.39 97.49 167.38 92.77 166.32 Z" fill="#4b4b4b" />
<path d="M 136.93 167.22 C 138.62 170.67 138.94 174.78 140.72 178.24 C 144.99 178.66 146.14 180.28 142.58 183.41 C 143.03 187.04 141.68 189.73 137.95 187.06 C 135.01 182.51 129.40 187.74 125.22 187.82 C 124.15 184.76 124.42 183.76 125.97 180.99 C 129.84 175.17 128.56 168.32 136.93 167.22 Z" fill="#c0bb0c" />
<path d="M 70.78 169.26 C 69.92 174.06 67.82 178.70 66.26 183.31 C 64.74 183.10 63.22 182.89 61.69 182.67 C 62.68 179.46 63.95 176.26 64.60 172.95 C 64.75 171.15 59.54 172.02 58.33 172.02 C 57.99 167.79 68.37 167.29 70.78 169.26 Z" fill="#f1f2b2" />
<path d="M 86.98 171.69 C 84.36 172.36 82.59 172.37 79.97 171.65 C 82.30 170.29 84.66 170.40 86.98 171.69 Z" fill="#627a69" />
<path d="M 58.33 172.02 C 59.54 172.02 64.75 171.15 64.60 172.95 C 63.34 172.97 58.28 173.86 58.33 172.02 Z" fill="#a2b0a7" />
<path d="M 79.97 171.65 C 82.59 172.37 84.36 172.36 86.98 171.69 C 87.75 172.03 88.51 172.38 89.26 172.74 C 89.18 173.78 89.10 174.83 89.03 175.87 L 87.05 175.79 C 85.41 174.51 83.51 174.10 81.95 175.76 C 79.67 177.29 80.19 178.77 80.15 181.21 C 78.74 181.64 77.33 182.01 75.91 182.36 C 73.43 177.94 75.17 173.37 79.97 171.65 Z" fill="#f6f48b" />
<path d="M 115.03 172.65 C 112.38 173.38 110.63 173.37 107.99 172.64 C 110.31 171.43 112.73 171.29 115.03 172.65 Z" fill="#83912d" />
<path d="M 89.26 172.74 C 93.48 173.96 95.18 177.92 95.08 182.04 C 92.74 183.13 90.30 183.95 87.87 184.82 L 87.01 185.11 C 84.50 184.69 82.46 184.70 79.98 185.35 C 78.40 184.62 77.01 183.72 75.91 182.36 C 77.33 182.01 78.74 181.64 80.15 181.21 C 82.83 181.70 86.03 182.45 88.71 181.77 C 91.03 180.28 89.60 177.89 89.03 175.87 C 89.10 174.83 89.18 173.78 89.26 172.74 Z" fill="#f8f347" />
<path d="M 107.99 172.64 C 110.63 173.37 112.38 173.38 115.03 172.65 C 117.17 173.59 118.78 174.84 119.98 176.86 C 117.59 178.74 115.47 178.00 112.93 176.98 C 111.40 175.34 109.59 175.14 107.96 176.77 C 106.20 178.23 104.95 179.17 104.91 181.66 C 109.36 179.94 115.19 178.57 119.28 181.84 C 117.41 182.54 116.46 183.20 115.29 184.85 C 114.56 184.48 113.83 184.11 113.10 183.75 C 111.57 182.34 110.48 182.37 108.85 183.61 C 107.82 184.29 106.39 184.92 105.82 186.05 C 104.52 188.90 103.78 188.55 100.99 188.96 C 98.08 181.97 100.40 174.94 107.99 172.64 Z" fill="#ebe208" />
<path d="M 133.39 174.60 C 134.43 173.66 135.34 179.53 135.62 180.85 C 133.76 181.84 132.17 182.10 130.06 181.91 C 130.61 179.29 131.84 176.78 133.39 174.60 Z" fill="#11345a" />
<path d="M 87.05 175.79 C 85.18 176.24 83.82 176.27 81.95 175.76 C 83.51 174.10 85.41 174.51 87.05 175.79 Z" fill="#7f9270" />
<path d="M 81.95 175.76 C 83.82 176.27 85.18 176.24 87.05 175.79 L 89.03 175.87 C 89.60 177.89 91.03 180.28 88.71 181.77 C 86.03 182.45 82.83 181.70 80.15 181.21 C 80.19 178.77 79.67 177.29 81.95 175.76 Z" fill="#10355e" />
<path d="M 112.93 176.98 C 111.17 177.24 109.69 177.22 107.96 176.77 C 109.59 175.14 111.40 175.34 112.93 176.98 Z" fill="#63783a" />
<path d="M 95.08 182.04 C 94.31 187.45 92.50 192.97 86.03 193.04 C 81.44 193.79 73.62 192.03 74.11 186.13 C 78.49 185.04 79.54 189.87 84.00 189.08 C 86.06 189.64 90.67 186.70 87.87 184.82 C 90.30 183.95 92.74 183.13 95.08 182.04 Z" fill="#e5dd0c" />
<path d="M 119.28 181.84 C 127.57 193.48 104.97 199.12 100.99 188.96 C 103.78 188.55 104.52 188.90 105.82 186.05 C 104.78 192.47 118.35 191.16 115.29 184.85 C 116.46 183.20 117.41 182.54 119.28 181.84 Z" fill="#c4be0b" />
<path d="M 61.69 182.67 C 63.22 182.89 64.74 183.10 66.26 183.31 C 65.22 185.24 65.88 190.10 62.61 188.43 C 58.25 188.19 61.21 185.21 61.69 182.67 Z" fill="#e8e648" />
<path d="M 113.10 183.75 C 111.64 184.26 110.22 184.22 108.85 183.61 C 110.48 182.37 111.57 182.34 113.10 183.75 Z" fill="#7f8d2c" />
<path d="M 108.85 183.61 C 110.22 184.22 111.64 184.26 113.10 183.75 C 113.83 184.11 114.56 184.48 115.29 184.85 C 118.35 191.16 104.78 192.47 105.82 186.05 C 106.39 184.92 107.82 184.29 108.85 183.61 Z" fill="#0b315c" />
<path d="M 79.98 185.35 C 82.46 184.70 84.50 184.69 87.01 185.11 C 84.64 186.68 82.45 186.73 79.98 185.35 Z" fill="#9aa53c" />
<path d="M 87.98 199.23 C 89.56 198.39 90.87 198.41 91.89 200.00 L 88.11 200.00 L 87.98 199.23 Z" fill="#737474" />
</svg>