<?xml version="1.0" encoding="UTF-8" standalone="no"?>
<!DOCTYPE svg PUBLIC "-//W3C//DTD SVG 1.1//EN" "http://www.w3.org/Graphics/SVG/1.1/DTD/svg11.dtd">
<svg xmlns="http://www.w3.org/2000/svg" version="1.1" viewBox="0 0 200 200" width="200.0pt" height="200.0pt">
<path d="M 0.00 0.00 L 200.00 0.00 L 200.00 200.00 L 0.00 200.00 L 0.00 0.00 Z" fill="#ffffff" />
<path d="M 85.50 3.81 C 104.59 0.97 124.41 3.81 141.80 12.21 C 160.21 20.97 175.69 35.66 185.42 53.57 C 193.20 67.75 197.28 83.83 197.25 100.00 C 197.30 117.91 192.25 135.65 182.84 150.88 C 167.44 176.06 140.42 193.46 111.02 196.62 C 90.52 199.01 69.44 194.66 51.59 184.31 C 25.10 169.19 6.64 141.39 3.38 111.02 C 1.12 91.55 4.91 71.49 14.22 54.24 C 28.43 27.41 55.45 8.22 85.50 3.81 Z" fill="#000000" />
<path d="M 97.44 11.05 C 97.61 13.51 98.07 15.56 96.55 17.71 C 96.09 16.17 95.66 14.62 95.26 13.07 C 94.44 13.20 93.62 13.34 92.81 13.47 C 93.09 16.26 93.36 19.06 93.61 21.86 C 95.01 22.52 96.42 23.19 97.83 23.85 C 94.61 24.60 91.39 24.87 88.09 24.88 C 89.18 23.86 90.33 22.90 91.38 21.85 C 91.44 19.10 91.08 16.32 90.84 13.59 C 89.98 13.65 89.13 13.71 88.27 13.78 C 88.16 15.41 88.01 17.05 87.82 18.69 C 86.25 16.60 85.97 14.49 85.68 11.95 C 89.60 11.64 93.52 11.24 97.44 11.05 Z" fill="#ffffff" />
<path d="M 109.90 11.59 C 112.61 11.66 115.22 12.08 117.62 13.40 C 116.29 13.73 114.95 14.05 113.62 14.37 C 113.20 17.19 113.37 20.59 112.17 23.18 C 109.31 26.57 105.95 24.63 102.66 23.25 C 103.13 20.97 103.56 18.96 105.02 17.08 C 105.16 18.93 105.28 20.77 105.38 22.62 C 107.16 22.76 108.70 23.29 110.37 22.39 C 111.16 19.70 111.29 16.77 111.65 13.99 C 110.03 13.70 108.43 13.36 106.83 12.99 C 107.90 12.06 108.33 11.34 109.90 11.59 Z" fill="#ffffff" />
<path d="M 120.74 13.43 C 122.58 14.00 124.43 14.52 126.30 14.97 C 125.75 15.69 125.21 16.41 124.66 17.13 C 125.01 18.32 125.35 19.52 125.70 20.71 C 126.67 19.98 127.64 19.25 128.61 18.52 C 128.27 17.52 127.94 16.52 127.61 15.51 C 129.75 16.15 131.84 16.82 133.83 17.84 C 130.02 19.90 126.53 21.67 124.65 25.85 C 125.99 26.74 127.32 27.65 128.63 28.58 C 125.09 28.97 121.30 28.19 119.04 25.21 C 120.39 25.30 121.73 25.42 123.07 25.54 C 123.42 24.44 123.76 23.33 124.11 22.23 C 123.24 19.18 122.08 16.30 120.74 13.43 Z" fill="#ffffff" />
<path d="M 76.01 14.86 C 80.17 15.27 82.69 20.84 81.31 24.48 C 79.75 28.21 74.10 28.66 70.69 29.44 C 71.19 28.44 71.70 27.44 72.22 26.45 C 71.36 23.93 70.57 21.39 69.79 18.85 C 68.91 18.40 68.04 17.95 67.16 17.49 C 69.84 16.24 73.01 14.82 76.01 14.86 Z" fill="#ffffff" />
<path d="M 76.83 17.10 C 78.94 18.33 79.63 20.75 79.72 23.05 C 78.87 25.48 76.57 25.72 74.54 26.86 C 73.43 23.80 72.49 20.69 71.58 17.56 C 73.26 17.37 75.18 16.70 76.83 17.10 Z" fill="#000000" />
<path d="M 62.91 20.23 C 61.72 21.42 60.49 22.54 59.20 23.63 C 60.65 26.11 62.03 28.62 63.38 31.15 C 64.96 30.64 66.55 30.17 68.15 29.75 C 66.05 33.01 61.98 35.07 58.24 35.62 C 59.31 34.34 60.30 33.08 61.58 31.99 C 60.16 29.46 58.75 26.93 57.37 24.37 C 55.92 25.03 54.46 25.66 52.99 26.28 L 53.96 24.06 C 56.46 22.17 59.67 20.17 62.91 20.23 Z" fill="#ffffff" />
<path d="M 145.91 25.19 C 144.59 24.87 143.27 24.54 141.95 24.19 C 140.48 26.78 139.00 29.36 137.51 31.94 C 138.87 32.73 140.23 33.52 141.58 34.32 C 142.80 33.14 143.75 31.92 145.48 31.46 C 144.84 33.53 143.88 35.44 142.90 37.36 C 139.21 35.03 134.44 33.39 131.90 29.87 C 133.24 30.12 134.58 30.39 135.91 30.67 C 137.30 28.20 138.72 25.74 140.15 23.29 C 139.23 22.29 138.33 21.27 137.45 20.23 C 140.95 20.26 144.10 22.24 145.91 25.19 Z" fill="#ffffff" />
<path d="M 48.65 27.39 C 48.60 28.46 48.55 29.53 48.49 30.60 C 50.24 32.56 51.94 34.56 53.61 36.58 C 54.70 36.70 55.79 36.82 56.87 36.94 C 55.17 38.80 53.40 40.33 51.32 41.76 C 51.46 40.41 51.68 39.09 51.96 37.76 C 50.57 36.09 49.15 34.43 47.73 32.77 C 48.51 35.36 49.28 37.85 49.44 40.57 C 46.83 39.81 44.43 38.85 42.00 37.65 C 43.54 39.43 45.08 41.21 46.63 42.98 C 47.76 42.57 48.90 42.16 50.04 41.75 C 48.96 44.22 47.26 45.66 45.19 47.25 C 45.02 42.97 42.12 41.06 39.70 38.00 C 38.66 37.87 37.61 37.75 36.56 37.62 C 37.66 36.48 38.77 35.35 39.88 34.23 C 42.25 35.38 44.62 36.52 47.00 37.63 C 46.23 35.11 45.43 32.61 44.80 30.05 C 46.07 29.16 47.37 28.29 48.65 27.39 Z" fill="#ffffff" />
<path d="M 154.08 29.53 C 156.13 30.90 159.57 33.04 159.76 35.69 L 156.30 34.37 C 154.39 36.59 152.44 38.77 150.50 40.95 C 151.72 42.03 152.95 43.11 154.17 44.20 C 155.52 43.53 157.16 40.41 158.11 42.94 C 157.10 44.48 155.84 45.89 154.67 47.31 C 152.19 45.12 149.59 43.04 147.23 40.73 C 146.17 39.86 146.23 38.78 145.87 37.55 C 146.94 38.20 148.00 38.87 149.06 39.54 C 150.97 37.37 152.87 35.20 154.81 33.06 C 154.53 32.04 152.25 30.01 154.08 29.53 Z" fill="#ffffff" />
<path d="M 89.52 32.83 C 103.81 30.73 118.50 32.97 131.31 39.70 C 146.34 47.50 158.24 61.03 163.94 76.99 C 167.70 87.22 168.68 98.22 167.36 109.00 C 165.42 123.67 158.54 137.60 148.02 148.02 C 135.71 160.44 118.51 167.81 101.00 167.90 C 91.27 168.11 81.68 166.17 72.77 162.25 C 56.10 155.00 42.66 140.83 36.35 123.78 C 32.36 113.34 31.30 102.07 32.63 91.01 C 34.58 76.34 41.45 62.40 51.98 51.98 C 62.05 41.80 75.38 35.07 89.52 32.83 Z" fill="#ffffff" />
<path d="M 88.50 35.74 C 108.24 32.05 129.37 38.24 144.07 51.91 C 154.59 61.49 161.78 74.48 164.26 88.50 C 167.28 104.68 163.68 121.90 154.67 135.64 C 147.69 146.26 137.58 154.90 125.89 159.91 C 113.73 165.18 99.99 166.70 87.01 163.97 C 72.38 161.05 59.07 152.94 49.60 141.43 C 40.00 129.89 34.71 115.00 34.69 100.00 C 34.70 83.58 41.07 67.33 52.39 55.41 C 61.92 45.17 74.72 38.18 88.50 35.74 Z" fill="#e00210" />
<path d="M 166.81 42.49 C 169.11 43.51 170.28 45.45 171.82 47.33 C 169.84 50.64 167.83 53.94 165.86 57.26 C 165.71 58.40 165.55 59.54 165.38 60.68 C 163.80 58.89 162.42 57.05 161.18 55.00 C 162.66 55.18 164.14 55.35 165.63 55.53 C 164.17 53.30 162.56 51.23 160.81 49.22 C 160.65 50.75 160.49 52.27 160.32 53.79 C 158.80 52.11 157.37 50.36 155.95 48.60 C 160.03 48.49 163.87 47.42 167.78 46.38 C 167.43 45.09 167.10 43.79 166.81 42.49 Z" fill="#ffffff" />
<path d="M 169.02 48.01 C 168.10 49.58 167.17 51.14 166.26 52.71 C 165.43 51.65 164.61 50.59 163.79 49.53 C 165.53 49.03 167.27 48.52 169.02 48.01 Z" fill="#000000" />
<path d="M 22.97 55.84 C 24.45 56.56 25.88 57.35 27.32 58.15 C 25.52 58.98 22.90 59.18 21.94 61.07 C 19.21 65.38 26.68 70.24 29.84 66.81 C 31.86 64.85 31.28 61.80 31.81 59.20 C 36.27 63.15 31.43 71.05 26.03 70.03 C 23.08 69.26 19.88 67.32 19.38 64.06 C 18.82 61.20 21.60 58.19 22.97 55.84 Z" fill="#ffffff" />
<path d="M 176.66 55.27 C 177.44 56.61 178.35 57.80 179.36 58.96 C 177.28 62.24 175.23 65.53 173.17 68.82 C 175.28 67.82 177.38 66.80 179.49 65.82 C 179.53 64.59 179.58 63.35 179.64 62.11 C 181.28 63.86 182.30 65.94 183.30 68.10 C 177.98 67.60 174.54 70.84 169.75 72.46 C 170.26 68.09 173.54 64.66 175.77 60.85 C 173.52 61.91 171.28 62.99 169.03 64.05 L 169.86 66.23 L 167.99 66.93 C 167.16 65.07 166.32 63.24 165.73 61.28 C 166.80 61.44 167.87 61.62 168.93 61.83 C 171.28 60.74 173.61 59.63 175.95 58.53 C 176.19 57.45 176.43 56.36 176.66 55.27 Z" fill="#ffffff" />
<path d="M 15.72 71.14 C 17.54 71.99 19.30 72.89 20.95 74.05 C 19.60 74.14 18.25 74.21 16.90 74.26 C 16.41 76.13 15.92 78.00 15.43 79.87 C 16.78 80.16 18.13 80.48 19.47 80.81 C 18.80 79.29 18.41 77.92 18.24 76.26 C 20.02 76.70 21.80 77.13 23.60 77.50 C 22.87 78.54 21.17 79.58 21.00 80.91 C 21.95 81.43 22.91 81.93 23.88 82.42 C 24.55 80.96 25.20 79.49 25.98 78.08 C 28.21 79.76 25.48 84.35 25.20 86.66 C 23.13 82.74 19.41 83.25 15.69 82.00 C 14.73 82.60 13.74 83.17 12.74 83.72 C 13.18 79.46 14.54 75.26 15.72 71.14 Z" fill="#ffffff" />
<path d="M 48.23 72.85 C 59.01 77.90 69.83 82.85 80.65 87.82 C 76.65 91.83 72.68 95.86 68.72 99.91 C 61.88 90.90 55.06 81.87 48.23 72.85 Z" fill="#ffffff" />
<path d="M 151.77 72.85 C 144.95 81.87 138.11 90.88 131.30 99.91 C 127.32 95.87 123.35 91.83 119.35 87.82 C 129.26 83.26 139.19 78.72 149.08 74.11 C 149.98 73.69 150.88 73.27 151.77 72.85 Z" fill="#ffffff" />
<path d="M 184.45 72.30 C 185.49 75.01 186.62 78.13 186.48 81.06 C 185.71 85.97 177.75 88.41 174.63 84.37 C 173.08 81.86 172.81 78.53 171.92 75.74 C 175.72 77.20 178.73 75.62 182.42 74.87 C 183.08 74.00 183.76 73.15 184.45 72.30 Z" fill="#ffffff" />
<path d="M 184.11 76.55 C 184.27 78.09 184.36 79.62 184.38 81.16 C 183.46 83.82 179.54 85.04 177.13 83.98 C 175.74 82.79 175.28 80.49 174.58 78.86 C 177.74 78.05 180.92 77.28 184.11 76.55 Z" fill="#000000" />
<path d="M 90.32 85.87 C 96.77 85.85 103.23 85.85 109.68 85.87 C 114.63 102.90 119.62 119.92 124.58 136.94 C 118.86 142.11 113.22 147.39 107.45 152.51 C 109.04 148.39 111.41 144.30 112.26 139.96 C 112.67 138.60 111.21 137.32 109.90 137.32 C 105.29 136.92 100.62 137.25 96.00 137.13 C 93.65 137.20 91.00 136.92 88.75 137.66 C 87.71 138.48 87.43 139.57 87.93 140.94 C 89.02 144.92 91.03 148.67 92.55 152.51 C 86.78 147.39 81.14 142.11 75.41 136.94 C 80.39 119.92 85.37 102.90 90.32 85.87 Z" fill="#ffffff" />
<path d="M 70.97 171.94 C 73.43 171.78 75.88 171.77 78.34 171.79 C 77.13 175.66 75.92 179.53 74.61 183.37 C 76.10 184.30 77.59 184.97 78.53 186.54 C 74.80 186.36 70.57 185.32 67.71 182.78 C 69.40 182.64 71.08 182.70 72.78 182.81 C 73.58 180.06 74.44 177.34 75.36 174.63 C 73.78 173.87 72.37 173.01 70.97 171.94 Z" fill="#ffffff" />
<path d="M 122.03 171.81 C 126.19 170.19 129.01 174.78 129.78 178.20 C 130.93 183.04 126.15 188.36 121.23 185.98 C 122.88 185.06 124.70 184.35 126.27 183.29 C 127.28 182.12 127.95 180.57 128.67 179.21 C 126.54 180.06 124.47 182.33 122.13 180.88 C 118.55 179.10 118.04 173.45 122.03 171.81 Z" fill="#ffffff" />
<path d="M 123.96 173.44 C 125.07 174.17 126.13 174.98 127.13 175.87 C 126.20 177.23 125.38 178.61 124.13 179.71 C 122.59 178.82 121.32 178.05 121.24 176.11 C 121.30 174.36 122.31 173.67 123.96 173.44 Z" fill="#000000" />
<path d="M 89.40 175.41 C 91.62 173.93 94.68 174.80 95.88 177.16 C 96.99 179.37 97.11 182.89 96.12 185.16 C 94.08 189.30 89.18 190.76 85.64 187.53 C 87.42 187.36 89.20 187.20 90.98 187.03 C 92.60 186.56 93.90 184.95 95.17 183.88 C 93.27 184.08 90.89 185.12 89.29 183.77 C 86.50 181.80 86.68 177.35 89.40 175.41 Z" fill="#ffffff" />
<path d="M 108.01 174.71 C 112.13 174.80 113.44 179.68 113.47 183.02 C 113.22 187.90 107.95 191.30 103.50 188.86 C 105.27 188.13 107.16 187.64 108.90 186.82 C 110.23 186.00 111.18 184.49 112.19 183.31 C 109.90 183.83 107.47 185.54 105.40 183.63 C 101.96 180.98 103.29 174.62 108.01 174.71 Z" fill="#ffffff" />
<path d="M 92.09 176.44 C 93.41 177.40 94.27 178.71 95.26 179.99 C 93.87 181.03 92.64 182.15 90.97 182.75 C 88.44 180.53 88.76 177.49 92.09 176.44 Z" fill="#000000" />
<path d="M 110.05 177.96 C 112.15 179.79 108.91 181.93 107.93 183.38 C 106.92 181.88 104.45 180.09 105.85 178.09 C 106.98 176.20 108.73 176.30 110.05 177.96 Z" fill="#000000" />
</svg>