<?xml version="1.0" encoding="UTF-8" standalone="no"?>
<!DOCTYPE svg PUBLIC "-//W3C//DTD SVG 1.1//EN" "http://www.w3.org/Graphics/SVG/1.1/DTD/svg11.dtd">
<svg xmlns="http://www.w3.org/2000/svg" version="1.1" viewBox="0 0 200 200" width="200.0pt" height="200.0pt">
<path d="M 0.00 0.00 L 200.00 0.00 L 200.00 200.00 L 103.99 200.00 C 117.24 198.91 129.93 194.63 140.65 186.68 C 158.20 173.92 169.10 152.75 168.78 131.00 C 168.77 110.67 168.76 90.33 168.78 70.00 C 169.23 53.79 163.36 37.44 152.99 25.00 C 144.65 14.91 133.40 7.29 120.92 3.31 C 109.40 -0.38 96.83 -0.85 85.02 1.68 C 70.65 4.86 57.47 12.75 47.87 23.89 C 37.78 35.46 31.71 50.63 31.17 65.97 C 31.12 87.31 31.17 108.66 31.14 130.00 C 30.69 146.00 36.37 162.14 46.48 174.51 C 55.23 185.34 67.38 193.42 80.76 197.26 C 85.69 198.79 90.96 199.36 96.07 200.00 L 0.00 200.00 L 0.00 0.00 Z" fill="#ffffff" />
<path d="M 120.92 3.31 C 133.40 7.29 144.65 14.91 152.99 25.00 C 163.36 37.44 169.23 53.79 168.78 70.00 C 168.76 90.33 168.77 110.67 168.78 131.00 C 169.10 152.75 158.20 173.92 140.65 186.68 C 129.93 194.63 117.24 198.91 103.99 200.00 L 96.07 200.00 C 90.96 199.36 85.69 198.79 80.76 197.26 C 67.38 193.42 55.23 185.34 46.48 174.51 C 36.37 162.14 30.69 146.00 31.14 130.00 C 31.17 108.66 31.12 87.31 31.17 65.97 C 31.71 50.63 37.78 35.46 47.87 23.89 C 57.47 12.75 70.65 4.86 85.02 1.68 C 96.83 -0.85 109.40 -0.38 120.92 3.31 Z" fill="#000000" />
<path d="M 49.27 34.87 C 52.79 34.57 56.37 34.76 59.90 34.75 C 59.87 40.01 59.89 45.27 60.18 50.52 C 61.86 45.18 63.94 40.00 65.87 34.74 C 69.70 34.74 73.53 34.74 77.36 34.76 C 74.48 40.75 71.59 46.73 68.67 52.70 C 72.00 59.08 75.16 65.55 78.44 71.96 C 74.55 71.95 70.66 71.95 66.78 71.95 C 64.42 66.24 62.19 60.48 59.93 54.73 C 59.90 60.47 59.91 66.22 59.91 71.96 C 56.23 71.96 52.55 71.96 48.87 71.89 C 48.86 61.93 48.91 51.96 48.84 42.00 C 48.84 39.64 48.86 37.20 49.27 34.87 Z" fill="#ffde1b" />
<path d="M 149.81 35.71 C 149.79 39.44 149.77 43.17 149.92 46.89 C 148.19 45.56 146.18 43.56 143.98 43.21 C 142.29 42.92 140.02 44.23 140.60 46.17 C 143.05 49.61 147.74 51.02 149.89 55.18 C 152.42 61.04 150.10 68.38 144.20 71.18 C 139.45 73.60 134.89 72.54 130.03 71.20 C 130.00 67.41 130.00 63.61 129.93 59.82 C 132.14 61.52 133.98 63.60 137.02 63.46 C 139.12 63.52 141.14 61.48 139.51 59.53 C 136.40 56.45 132.70 54.61 130.54 50.56 C 129.36 53.10 128.63 55.57 126.20 57.21 C 123.05 59.52 118.45 59.54 114.71 59.89 C 114.71 63.91 114.71 67.93 114.71 71.95 C 111.08 71.95 107.44 71.95 103.81 71.95 C 103.80 59.55 103.80 47.15 103.81 34.75 C 110.56 35.03 119.09 33.60 125.11 36.99 C 127.70 38.33 128.77 40.58 130.11 43.02 C 131.52 39.79 132.97 36.90 136.29 35.30 C 140.93 33.13 145.19 34.26 149.81 35.71 Z" fill="#ffde1b" />
<path d="M 114.72 42.47 C 115.86 42.68 116.99 42.97 118.10 43.32 C 119.03 45.21 120.00 46.84 119.15 49.01 C 118.55 50.78 116.28 50.98 114.77 51.73 C 114.71 48.64 114.70 45.56 114.72 42.47 Z" fill="#000000" />
<path d="M 76.55 45.85 C 79.98 45.85 83.41 45.85 86.84 45.85 C 86.94 51.17 86.63 56.52 86.93 61.83 C 87.15 62.92 87.48 64.93 89.01 64.39 C 90.78 64.55 90.67 63.01 90.93 61.75 C 91.39 56.48 91.02 51.14 91.12 45.85 C 94.56 45.85 98.00 45.85 101.44 45.85 C 101.35 51.58 101.68 57.36 101.29 63.08 C 101.08 66.29 99.58 69.14 96.70 70.70 C 92.47 73.06 86.37 73.15 82.03 71.06 C 78.85 69.57 76.86 66.56 76.67 63.05 C 76.33 57.34 76.64 51.58 76.55 45.85 Z" fill="#ffde1b" />
<path d="M 97.99 77.15 C 110.66 76.68 123.39 80.85 133.34 88.71 C 143.51 96.71 150.33 108.07 152.99 120.71 C 157.62 120.75 162.25 120.74 166.87 120.73 C 167.47 131.91 167.21 142.69 163.32 153.32 C 157.18 171.07 143.37 185.73 126.05 192.98 C 114.43 197.83 101.18 199.64 88.76 197.28 C 73.02 194.78 58.29 186.15 48.18 173.85 C 41.06 165.25 36.16 154.89 34.05 143.92 C 32.32 136.09 32.88 128.68 32.80 120.75 C 37.50 120.73 42.19 120.76 46.88 120.70 C 49.16 110.66 53.69 101.32 60.91 93.90 C 70.48 83.73 84.06 77.68 97.99 77.15 Z" fill="#ffffff" />
<path d="M 94.52 80.89 C 107.21 79.59 120.06 83.06 130.24 90.76 C 140.04 98.09 147.03 109.03 149.39 121.06 C 151.53 130.64 150.40 140.70 146.84 149.79 C 141.57 163.17 130.36 173.94 116.79 178.69 C 107.76 181.92 97.83 182.25 88.48 180.28 C 77.27 177.63 67.06 171.11 60.03 161.96 C 51.31 150.79 47.58 135.67 50.39 121.76 C 52.48 110.12 58.91 99.51 68.04 92.04 C 75.54 85.84 84.89 82.02 94.52 80.89 Z" fill="#000000" />
<path d="M 99.17 83.63 C 98.38 85.17 97.90 86.50 96.28 87.31 C 90.86 90.52 85.32 93.53 79.92 96.78 C 77.41 95.28 74.88 93.80 72.39 92.28 C 80.57 86.89 89.31 83.85 99.17 83.63 Z" fill="#ffde1b" />
<path d="M 100.80 83.64 C 110.59 83.84 119.38 86.90 127.49 92.27 C 125.02 93.82 122.51 95.29 120.00 96.78 C 114.65 93.56 109.16 90.57 103.78 87.39 C 101.98 86.45 101.52 85.51 100.80 83.64 Z" fill="#ffffff" />
<path d="M 69.83 94.41 C 72.78 95.96 75.63 97.70 78.51 99.37 C 78.47 106.49 78.53 113.61 78.46 120.73 C 72.27 124.28 66.09 127.85 59.91 131.43 C 57.46 130.01 55.00 128.61 52.54 127.20 C 53.78 114.42 59.87 102.56 69.83 94.41 Z" fill="#ffde1b" />
<path d="M 130.10 94.41 C 139.75 102.36 146.72 114.78 147.04 127.41 C 144.68 128.72 142.36 130.08 140.02 131.42 C 133.81 127.84 127.59 124.29 121.42 120.65 C 121.41 113.55 121.42 106.45 121.41 99.34 C 124.31 97.70 127.16 95.96 130.10 94.41 Z" fill="#ffffff" />
<path d="M 79.92 123.39 C 86.20 126.79 92.31 130.53 98.53 134.04 C 98.52 141.17 98.54 148.30 98.52 155.43 C 92.29 158.95 86.13 162.57 79.93 166.12 C 73.72 162.55 67.54 158.95 61.32 155.41 C 61.29 148.29 61.31 141.17 61.30 134.05 C 67.52 130.53 73.64 126.81 79.92 123.39 Z" fill="#ffde1b" />
<path d="M 119.99 123.37 C 126.25 126.81 132.36 130.52 138.58 134.02 C 138.58 141.15 138.59 148.29 138.58 155.43 C 132.35 158.95 126.19 162.58 119.97 166.12 C 113.78 162.54 107.60 158.96 101.39 155.41 C 101.36 148.29 101.38 141.17 101.37 134.05 C 107.59 130.51 113.73 126.82 119.99 123.37 Z" fill="#ffffff" />
<path d="M 48.90 145.08 C 48.77 146.70 48.70 147.58 47.60 148.89 C 49.74 149.88 50.40 150.87 51.48 152.93 C 50.03 152.42 48.60 151.87 47.17 151.30 C 45.87 152.94 44.55 154.56 43.22 156.17 C 42.94 155.08 42.67 153.98 42.39 152.89 C 43.25 151.86 44.12 150.84 44.98 149.81 C 43.50 150.04 42.03 150.26 40.54 150.47 L 41.08 147.96 C 43.49 146.64 46.30 145.95 48.90 145.08 Z" fill="#000000" />
<path d="M 150.82 147.22 C 153.87 147.17 156.93 147.15 159.99 147.28 C 159.08 148.50 158.15 149.69 157.18 150.86 C 157.19 152.43 157.17 154.00 157.13 155.57 C 154.64 153.83 152.30 151.91 149.92 150.03 C 150.22 149.10 150.52 148.16 150.82 147.22 Z" fill="#000000" />
<path d="M 155.74 149.35 C 155.90 150.27 155.64 150.97 154.95 151.46 C 154.09 151.12 153.30 150.57 152.59 149.82 C 153.41 149.11 154.46 148.95 155.74 149.35 Z" fill="#ffffff" />
<path d="M 51.34 153.55 C 51.83 154.33 52.32 155.11 52.82 155.88 C 50.97 156.91 49.13 157.90 47.40 159.13 L 47.98 161.02 C 50.17 160.42 52.20 159.22 54.29 158.22 C 54.55 159.08 54.81 159.93 55.07 160.78 C 53.01 161.75 50.32 163.85 47.97 163.41 C 45.98 162.13 44.58 159.84 45.37 157.44 C 46.37 156.43 47.64 155.67 48.86 154.94 C 49.68 154.47 50.51 154.01 51.34 153.55 Z" fill="#000000" />
<path d="M 149.08 153.77 C 151.56 154.37 153.89 156.00 156.29 156.93 C 155.90 157.42 155.50 157.92 155.10 158.41 C 153.60 158.60 152.11 158.83 150.63 159.20 C 151.66 159.86 152.70 160.51 153.74 161.15 C 153.31 161.94 152.89 162.74 152.47 163.53 C 150.01 162.23 147.55 160.91 145.07 159.64 C 146.24 157.71 147.24 155.13 149.08 153.77 Z" fill="#000000" />
<path d="M 150.49 156.33 C 151.43 157.62 150.13 159.11 148.96 159.69 C 148.13 158.64 147.97 157.61 148.46 156.60 C 149.09 155.95 149.77 155.86 150.49 156.33 Z" fill="#ffffff" />
<path d="M 61.38 158.91 C 67.13 162.14 72.83 165.46 78.52 168.79 C 78.50 170.37 78.46 171.95 78.43 173.52 C 71.41 169.72 66.23 165.25 61.38 158.91 Z" fill="#ffde1b" />
<path d="M 138.65 158.79 C 133.91 165.03 128.41 169.85 121.46 173.51 C 121.44 171.93 121.42 170.36 121.40 168.79 C 126.31 165.87 131.28 163.06 136.22 160.20 C 137.03 159.73 137.84 159.26 138.65 158.79 Z" fill="#ffffff" />
<path d="M 144.98 160.52 C 146.56 161.72 148.29 162.93 149.57 164.46 C 151.61 166.23 148.76 169.61 147.06 170.59 C 144.58 171.22 141.90 168.11 139.97 166.88 C 140.42 166.10 140.87 165.31 141.32 164.53 C 143.89 166.06 145.22 168.75 148.52 167.32 C 146.76 165.52 144.85 163.89 142.95 162.23 C 143.62 161.66 144.30 161.08 144.98 160.52 Z" fill="#000000" />
<path d="M 53.08 163.16 C 56.42 161.20 60.14 164.48 59.47 168.03 C 58.81 171.08 54.90 172.62 52.44 170.59 C 49.73 168.50 50.18 164.82 53.08 163.16 Z" fill="#000000" />
<path d="M 55.12 165.10 C 57.29 165.07 57.93 165.87 56.66 167.85 C 55.89 168.91 53.92 168.91 52.77 169.31 C 53.35 167.53 53.20 165.97 55.12 165.10 Z" fill="#ffffff" />
<path d="M 88.54 164.75 C 88.79 167.69 88.80 170.56 88.86 173.51 C 88.12 173.51 87.39 173.52 86.65 173.52 C 86.28 170.80 86.73 169.43 84.06 167.79 C 85.56 166.79 87.04 165.75 88.54 164.75 Z" fill="#ffde1b" />
<path d="M 96.47 165.61 C 99.78 167.01 99.44 172.93 95.77 173.63 C 93.90 174.17 92.25 172.52 90.68 171.75 C 92.26 171.64 93.83 171.68 95.38 171.85 C 95.72 171.55 96.07 171.25 96.42 170.95 C 94.69 170.49 91.75 171.06 91.27 168.76 C 90.47 166.00 94.33 164.43 96.47 165.61 Z" fill="#ffde1b" />
<path d="M 103.20 165.26 C 104.82 165.01 106.09 165.70 107.18 166.84 C 107.79 169.81 105.18 170.13 103.37 171.71 C 104.64 171.64 105.91 171.58 107.19 171.52 L 107.17 173.55 C 104.62 173.50 102.07 173.46 99.52 173.37 C 101.48 171.25 103.57 169.26 105.52 167.13 C 103.54 167.63 101.58 168.18 99.60 168.67 C 100.71 167.51 101.40 165.38 103.20 165.26 Z" fill="#ffde1b" />
<path d="M 111.98 165.28 C 113.06 165.50 114.08 165.85 115.13 166.19 C 115.20 168.33 115.30 170.47 115.41 172.60 C 114.09 173.04 112.63 173.70 111.23 173.70 C 109.80 173.59 108.68 171.84 107.68 170.99 C 109.72 171.19 111.76 171.45 113.80 171.65 L 111.23 169.71 C 111.89 168.86 112.54 168.01 113.18 167.16 C 111.34 167.45 109.53 167.64 107.65 167.55 C 108.92 166.85 110.44 165.26 111.98 165.28 Z" fill="#ffde1b" />
<path d="M 94.06 167.24 C 95.82 166.03 96.97 168.83 94.89 169.26 C 93.75 168.94 93.48 168.27 94.06 167.24 Z" fill="#000000" />
<path d="M 61.62 168.22 C 63.25 169.78 65.63 171.56 66.13 173.86 C 65.59 174.82 64.91 175.72 64.09 176.54 C 62.26 176.41 60.98 175.39 59.38 174.56 C 58.89 175.12 58.39 175.68 57.90 176.24 C 57.25 175.63 56.59 175.01 55.94 174.39 C 57.78 172.30 59.62 170.18 61.62 168.22 Z" fill="#000000" />
<path d="M 140.53 167.70 C 139.64 169.35 138.55 170.85 137.49 172.39 C 139.11 171.64 140.73 170.92 142.42 170.32 C 141.48 171.91 140.51 173.47 139.60 175.07 C 141.03 174.10 142.41 173.08 143.79 172.04 C 144.23 172.44 144.66 172.84 145.10 173.24 C 143.41 174.86 141.72 176.48 140.02 178.08 C 138.10 176.05 136.17 174.02 134.23 171.99 C 136.00 170.55 138.07 167.62 140.53 167.70 Z" fill="#000000" />
<path d="M 63.55 171.65 C 63.65 172.55 63.63 173.43 63.50 174.28 C 62.46 174.41 61.44 174.00 60.46 173.07 C 60.89 171.70 62.23 171.05 63.55 171.65 Z" fill="#ffffff" />
<path d="M 67.57 173.56 L 69.81 175.05 C 68.24 177.33 66.64 179.58 65.00 181.81 C 64.24 181.29 63.49 180.77 62.73 180.24 C 64.37 178.03 65.98 175.80 67.57 173.56 Z" fill="#000000" />
<path d="M 135.47 173.98 C 133.82 175.13 132.10 176.17 130.40 177.25 C 132.49 176.87 134.57 176.48 136.67 176.14 C 137.26 178.27 138.14 179.54 136.15 181.25 C 134.11 183.26 132.56 182.62 130.31 181.47 C 131.83 180.90 133.36 180.40 134.92 179.95 C 134.87 179.57 134.82 179.18 134.77 178.79 C 132.40 179.15 130.23 180.86 128.64 178.17 C 128.32 174.40 132.44 173.22 135.47 173.98 Z" fill="#000000" />
<path d="M 71.20 177.12 C 74.07 176.49 77.32 179.04 76.73 182.08 C 76.03 185.20 72.73 187.29 69.88 185.15 C 66.35 183.27 67.78 178.01 71.20 177.12 Z" fill="#000000" />
<path d="M 71.63 179.64 C 71.90 179.02 72.57 178.97 73.63 179.47 C 75.24 181.35 73.09 183.88 70.94 183.92 C 70.28 182.09 70.28 181.16 71.63 179.64 Z" fill="#ffffff" />
<path d="M 126.04 178.31 C 129.33 178.46 131.07 183.48 128.61 185.68 C 127.52 186.54 126.09 187.02 124.84 187.62 C 123.09 186.29 121.28 185.48 120.80 183.12 C 120.44 180.24 123.28 177.99 126.04 178.31 Z" fill="#000000" />
<path d="M 126.38 180.45 C 126.70 181.87 126.98 183.29 126.98 184.75 C 124.60 185.54 122.94 183.03 123.69 180.96 C 124.50 180.58 125.40 180.41 126.38 180.45 Z" fill="#ffffff" />
<path d="M 78.94 179.75 C 81.40 181.43 81.71 183.54 82.40 186.21 C 82.81 184.81 83.24 183.41 83.67 182.01 C 84.53 182.27 85.39 182.54 86.25 182.81 C 85.26 185.64 84.34 188.49 83.17 191.25 C 80.64 189.54 80.49 187.18 79.72 184.51 C 79.29 185.99 78.85 187.46 78.41 188.93 C 77.58 188.66 76.75 188.39 75.92 188.12 C 76.84 185.30 77.81 182.50 78.94 179.75 Z" fill="#000000" />
<path d="M 113.38 183.11 C 114.16 182.66 114.95 182.23 115.74 181.81 C 116.42 183.94 117.05 186.09 117.68 188.24 C 118.84 187.81 119.99 187.37 121.15 186.94 C 121.38 187.55 121.62 188.15 121.85 188.75 C 119.80 189.49 117.74 190.21 115.68 190.90 C 114.91 188.32 113.94 185.75 113.38 183.11 Z" fill="#000000" />
<path d="M 90.66 183.67 C 92.89 184.29 97.85 183.67 97.88 187.02 C 97.57 190.25 95.12 189.67 92.69 190.27 C 92.60 190.97 92.50 191.68 92.41 192.38 L 89.66 192.08 C 90.00 189.28 90.33 186.48 90.66 183.67 Z" fill="#000000" />
<path d="M 102.61 184.41 C 103.95 187.21 104.99 190.14 105.89 193.11 C 104.54 192.69 103.22 192.23 101.93 191.64 C 100.35 192.18 98.77 192.70 97.16 193.13 C 98.04 190.25 98.89 187.34 99.95 184.53 C 100.83 184.46 101.72 184.42 102.61 184.41 Z" fill="#000000" />
<path d="M 106.28 183.52 C 110.18 184.07 109.01 187.02 109.93 189.91 C 111.53 189.74 113.13 189.64 114.72 189.62 C 112.78 192.02 110.26 191.86 107.49 192.57 C 106.99 189.56 106.55 186.55 106.28 183.52 Z" fill="#000000" />
<path d="M 93.01 186.31 C 94.71 185.17 96.33 187.60 94.04 188.15 C 92.80 187.90 92.45 187.28 93.01 186.31 Z" fill="#ffffff" />
<path d="M 101.05 187.19 C 102.51 187.10 102.65 189.28 102.57 190.33 C 101.83 190.39 101.12 190.34 100.45 190.18 C 100.18 188.82 100.38 187.82 101.05 187.19 Z" fill="#ffffff" />
</svg>