<?xml version="1.0" encoding="UTF-8" standalone="no"?>
<!DOCTYPE svg PUBLIC "-//W3C//DTD SVG 1.1//EN" "http://www.w3.org/Graphics/SVG/1.1/DTD/svg11.dtd">
<svg xmlns="http://www.w3.org/2000/svg" version="1.1" viewBox="0 0 200 200" width="200.0pt" height="200.0pt">
<path d="M 0.00 0.00 L 102.28 0.00 C 98.13 0.82 95.32 3.11 92.52 6.10 C 88.94 3.72 85.44 1.91 80.97 2.71 C 76.30 3.28 73.53 6.28 70.84 9.81 C 68.01 8.17 65.42 6.61 62.00 6.73 C 54.78 6.50 48.49 12.81 48.62 20.00 C 48.48 27.63 55.42 34.05 63.03 33.26 C 68.13 33.02 71.22 29.88 74.13 26.08 C 77.29 27.90 80.21 29.55 84.03 29.16 C 88.67 28.93 91.60 26.20 94.59 23.01 C 97.57 24.96 100.28 26.76 104.00 26.70 C 107.80 26.82 110.56 25.00 113.63 23.06 C 116.57 26.16 119.46 28.82 123.96 29.14 C 127.88 29.62 130.89 27.94 134.14 26.06 C 136.90 29.86 140.00 32.92 144.96 33.24 C 151.75 34.02 158.15 29.21 159.37 22.51 C 160.88 15.17 155.52 7.66 148.04 6.84 C 143.98 6.21 140.70 7.74 137.36 9.81 C 134.88 6.49 132.34 3.62 128.04 2.85 C 123.32 1.74 119.46 3.54 115.66 6.12 C 112.89 3.11 110.07 0.80 105.92 0.00 L 200.00 0.00 L 200.00 200.00 L 108.90 200.00 C 116.96 198.95 124.80 197.55 132.30 194.31 C 147.26 188.12 159.96 176.44 166.61 161.60 C 171.27 151.07 173.89 139.64 172.68 128.08 C 171.82 121.64 169.74 115.51 165.59 110.42 C 162.91 107.17 159.53 104.97 156.09 102.62 C 156.09 82.65 156.09 62.69 156.09 42.72 C 121.44 42.72 86.78 42.71 52.12 42.73 C 52.16 46.47 52.16 50.21 52.13 53.95 C 49.09 49.62 46.23 45.17 43.14 40.88 C 38.40 46.65 34.05 52.92 30.47 59.48 C 26.94 66.18 25.38 74.08 28.85 81.16 C 32.15 87.61 37.60 93.16 42.88 98.05 C 45.86 100.74 48.96 103.30 52.15 105.76 C 52.31 114.75 51.46 123.49 53.72 132.07 C 57.24 146.18 66.91 158.44 79.75 165.24 C 95.59 173.75 115.55 173.22 130.90 163.87 C 144.34 155.77 153.59 141.78 155.63 126.20 C 160.86 128.20 165.66 130.54 170.46 133.42 C 162.55 147.79 150.74 160.29 136.52 168.51 C 123.25 176.18 107.23 179.78 92.06 176.85 C 73.27 173.58 56.97 161.98 44.99 147.49 C 45.05 156.61 45.05 165.73 45.00 174.85 C 57.21 187.42 73.61 196.25 90.96 198.97 C 93.23 199.34 95.51 199.70 97.79 200.00 L 0.00 200.00 L 0.00 0.00 Z" fill="#ffffff" />
<path d="M 102.28 0.00 L 105.92 0.00 C 110.07 0.80 112.89 3.11 115.66 6.12 C 119.46 3.54 123.32 1.74 128.04 2.85 C 132.34 3.62 134.88 6.49 137.36 9.81 C 140.70 7.74 143.98 6.21 148.04 6.84 C 155.52 7.66 160.88 15.17 159.37 22.51 C 158.15 29.21 151.75 34.02 144.96 33.24 C 140.00 32.92 136.90 29.86 134.14 26.06 C 130.89 27.94 127.88 29.62 123.96 29.14 C 119.46 28.82 116.57 26.16 113.63 23.06 C 110.56 25.00 107.80 26.82 104.00 26.70 C 100.28 26.76 97.57 24.96 94.59 23.01 C 91.60 26.20 88.67 28.93 84.03 29.16 C 80.21 29.55 77.29 27.90 74.13 26.08 C 71.22 29.88 68.13 33.02 63.03 33.26 C 55.42 34.05 48.48 27.63 48.62 20.00 C 48.49 12.81 54.78 6.50 62.00 6.73 C 65.42 6.61 68.01 8.17 70.84 9.81 C 73.53 6.28 76.30 3.28 80.97 2.71 C 85.44 1.91 88.94 3.72 92.52 6.10 C 95.32 3.11 98.13 0.82 102.28 0.00 Z" fill="#c04536" />
<path d="M 104.00 1.80 C 108.57 1.63 111.56 4.20 114.35 7.46 C 113.47 9.53 112.37 11.75 112.00 13.98 C 111.68 16.36 112.31 19.00 112.74 21.36 C 109.98 23.26 107.53 25.08 104.00 25.00 C 100.64 25.00 98.20 23.21 95.53 21.45 C 95.88 19.34 96.35 17.12 96.31 14.98 C 96.22 12.35 94.89 9.86 93.85 7.48 C 96.68 4.34 99.45 1.70 104.00 1.80 Z" fill="#ffffff" />
<path d="M 81.19 4.41 C 85.30 3.67 88.40 5.43 91.61 7.72 C 90.46 13.34 90.64 16.60 93.26 21.71 C 90.93 24.35 88.73 26.70 85.04 27.21 C 81.14 27.99 78.10 26.40 74.91 24.42 C 75.56 18.87 75.14 15.77 72.22 11.05 C 74.57 7.78 76.95 4.99 81.19 4.41 Z" fill="#ffffff" />
<path d="M 126.81 4.37 C 131.18 4.88 133.54 7.75 136.04 11.01 C 135.00 12.96 133.78 15.04 133.23 17.18 C 132.80 19.52 133.13 22.08 133.26 24.44 C 130.04 26.47 126.92 28.04 122.97 27.17 C 119.32 26.62 117.28 24.23 114.91 21.69 C 117.65 16.58 117.82 13.34 116.65 7.68 C 119.80 5.50 122.80 3.73 126.81 4.37 Z" fill="#ffffff" />
<path d="M 60.98 8.47 C 64.56 8.09 67.18 9.71 70.08 11.48 C 69.37 17.20 69.88 20.01 72.77 24.88 C 69.75 29.37 65.67 32.40 59.97 31.41 C 53.62 30.38 49.27 24.00 50.61 17.73 C 51.64 12.66 55.83 8.93 60.98 8.47 Z" fill="#ffffff" />
<path d="M 148.03 8.57 C 154.31 9.46 158.86 15.71 157.70 21.97 C 156.65 28.29 150.26 32.74 143.96 31.35 C 140.00 30.63 137.82 27.95 135.45 25.00 C 138.25 20.09 138.90 17.24 138.15 11.52 C 141.24 9.51 144.18 7.87 148.03 8.57 Z" fill="#ffffff" />
<path d="M 93.11 9.73 C 94.52 13.36 94.79 15.70 94.18 19.54 C 92.55 15.91 92.31 13.65 93.11 9.73 Z" fill="#ffffff" />
<path d="M 115.56 10.01 C 115.87 13.56 115.42 16.26 114.23 19.59 C 113.46 16.01 113.32 13.14 115.56 10.01 Z" fill="#ffffff" />
<path d="M 71.72 13.38 C 73.11 16.55 73.63 19.07 73.41 22.57 C 72.60 20.72 71.91 18.84 71.44 16.88 C 71.51 15.71 71.61 14.54 71.72 13.38 Z" fill="#ffffff" />
<path d="M 136.83 13.25 C 136.90 16.78 136.40 19.36 134.84 22.49 C 134.63 18.95 135.07 16.35 136.83 13.25 Z" fill="#ffffff" />
<path d="M 43.14 40.88 C 46.23 45.17 49.09 49.62 52.13 53.95 C 52.78 54.90 53.43 55.86 54.08 56.81 C 53.44 57.61 52.79 58.40 52.15 59.20 C 49.20 62.83 46.79 66.86 45.19 71.26 C 42.70 80.20 42.96 88.87 42.88 98.05 C 37.60 93.16 32.15 87.61 28.85 81.16 C 25.38 74.08 26.94 66.18 30.47 59.48 C 34.05 52.92 38.40 46.65 43.14 40.88 Z" fill="#c04536" />
<path d="M 52.12 42.73 C 86.78 42.71 121.44 42.72 156.09 42.72 C 156.09 62.69 156.09 82.65 156.09 102.62 C 155.97 110.44 156.49 118.42 155.63 126.20 C 153.59 141.78 144.34 155.77 130.90 163.87 C 115.55 173.22 95.59 173.75 79.75 165.24 C 66.91 158.44 57.24 146.18 53.72 132.07 C 51.46 123.49 52.31 114.75 52.15 105.76 C 52.15 96.90 52.16 88.04 52.14 79.18 C 52.15 72.52 52.15 65.86 52.15 59.20 C 52.79 58.40 53.44 57.61 54.08 56.81 C 53.43 55.86 52.78 54.90 52.13 53.95 C 52.16 50.21 52.16 46.47 52.12 42.73 Z" fill="#038c46" />
<path d="M 58.19 46.97 C 64.54 46.97 70.89 46.97 77.24 46.97 C 77.24 48.36 77.24 49.75 77.25 51.14 C 73.42 51.13 69.59 51.13 65.77 51.12 C 65.77 52.48 65.77 53.83 65.78 55.19 C 69.07 55.18 72.36 55.18 75.66 55.17 C 75.66 56.48 75.66 57.80 75.66 59.12 C 72.37 59.11 69.08 59.11 65.78 59.09 C 65.78 62.01 65.77 64.93 65.77 67.85 C 63.24 67.84 60.72 67.84 58.19 67.83 C 58.19 60.88 58.19 53.93 58.19 46.97 Z" fill="#f3e103" />
<path d="M 143.73 47.33 C 146.65 48.14 148.13 50.48 150.02 52.64 C 147.96 53.10 145.89 53.53 143.83 53.94 C 141.42 52.11 139.69 50.29 136.41 51.41 C 132.68 52.77 132.54 57.32 133.46 60.55 C 134.41 63.59 138.34 64.32 140.91 62.99 C 142.05 62.06 142.99 60.83 143.95 59.72 C 146.08 60.24 148.21 60.79 150.33 61.36 C 148.42 64.05 146.98 66.59 143.56 67.54 C 139.42 68.56 134.38 68.51 130.55 66.44 C 124.11 63.07 123.88 51.76 130.40 48.37 C 134.32 46.26 139.50 46.31 143.73 47.33 Z" fill="#f3e103" />
<path d="M 52.15 59.20 C 52.15 65.86 52.15 72.52 52.14 79.18 C 49.50 76.75 47.27 74.18 45.19 71.26 C 46.79 66.86 49.20 62.83 52.15 59.20 Z" fill="#ffffff" />
<path d="M 109.02 62.00 C 114.73 62.65 119.62 65.10 124.52 67.92 C 121.29 70.24 118.14 72.46 115.53 75.51 C 110.88 80.69 108.52 87.02 107.34 93.80 C 111.17 92.97 114.87 92.18 118.40 90.40 C 124.74 87.37 129.36 82.37 133.19 76.59 C 136.98 82.87 139.60 89.55 139.47 97.00 C 139.61 104.47 136.97 111.14 133.20 117.45 C 128.46 110.01 121.88 104.20 113.35 101.57 C 111.26 100.88 109.15 100.25 107.03 99.63 C 107.34 100.83 107.65 102.03 107.96 103.24 C 109.93 113.10 116.17 120.78 124.53 126.09 C 118.22 129.93 111.49 132.51 104.00 132.34 C 96.58 132.46 89.93 129.88 83.68 126.09 C 87.50 123.44 91.12 120.72 93.96 116.98 C 97.17 112.90 98.75 108.40 100.62 103.64 C 101.10 102.72 101.33 101.79 101.34 100.85 C 100.82 99.42 99.44 99.94 98.37 100.32 C 93.26 102.11 88.46 103.77 84.15 107.16 C 80.39 109.99 77.68 113.63 75.03 117.45 C 71.24 111.15 68.63 104.46 68.78 97.00 C 68.64 89.53 71.26 82.83 75.06 76.53 C 76.02 77.97 76.97 79.44 78.00 80.84 C 79.75 83.37 81.64 85.26 84.18 87.01 C 88.55 90.21 93.37 91.98 98.44 93.70 C 99.52 94.08 100.91 94.56 101.38 93.10 C 101.34 92.16 101.09 91.23 100.61 90.31 C 98.28 83.66 95.41 78.09 90.51 72.95 C 89.94 70.49 89.21 69.94 86.71 69.80 C 85.67 69.25 84.64 68.70 83.60 68.15 C 91.13 63.03 99.95 60.70 109.02 62.00 Z" fill="#c04536" />
<path d="M 86.71 69.80 C 89.21 69.94 89.94 70.49 90.51 72.95 C 88.71 72.24 87.75 71.42 86.71 69.80 Z" fill="#972330" />
<path d="M 45.19 71.26 C 47.27 74.18 49.50 76.75 52.14 79.18 C 52.16 88.04 52.15 96.90 52.15 105.76 C 48.96 103.30 45.86 100.74 42.88 98.05 C 42.96 88.87 42.70 80.20 45.19 71.26 Z" fill="#972330" />
<path d="M 78.00 80.84 C 79.93 83.01 82.01 85.07 84.18 87.01 C 81.64 85.26 79.75 83.37 78.00 80.84 Z" fill="#972330" />
<path d="M 100.61 90.31 C 101.09 91.23 101.34 92.16 101.38 93.10 C 100.91 94.56 99.52 94.08 98.44 93.70 L 99.25 92.54 C 99.71 91.80 100.16 91.06 100.61 90.31 Z" fill="#972330" />
<path d="M 101.34 100.85 C 101.33 101.79 101.10 102.72 100.62 103.64 C 100.16 102.91 99.68 102.18 99.21 101.46 L 98.37 100.32 C 99.44 99.94 100.82 99.42 101.34 100.85 Z" fill="#972330" />
<path d="M 107.03 99.63 C 109.15 100.25 111.26 100.88 113.35 101.57 C 111.38 101.12 109.38 100.78 107.39 100.43 L 107.96 103.24 C 107.65 102.03 107.34 100.83 107.03 99.63 Z" fill="#972330" />
<path d="M 156.09 102.62 C 159.53 104.97 162.91 107.17 165.59 110.42 C 169.74 115.51 171.82 121.64 172.68 128.08 C 172.05 129.91 171.32 131.69 170.46 133.42 C 165.66 130.54 160.86 128.20 155.63 126.20 C 156.49 118.42 155.97 110.44 156.09 102.62 Z" fill="#972330" />
<path d="M 172.68 128.08 C 173.89 139.64 171.27 151.07 166.61 161.60 C 159.96 176.44 147.26 188.12 132.30 194.31 C 124.80 197.55 116.96 198.95 108.90 200.00 L 97.79 200.00 C 95.51 199.70 93.23 199.34 90.96 198.97 C 73.61 196.25 57.21 187.42 45.00 174.85 C 45.05 165.73 45.05 156.61 44.99 147.49 C 56.97 161.98 73.27 173.58 92.06 176.85 C 107.23 179.78 123.25 176.18 136.52 168.51 C 150.74 160.29 162.55 147.79 170.46 133.42 C 171.32 131.69 172.05 129.91 172.68 128.08 Z" fill="#c04536" />
<path d="M 122.44 132.50 C 128.70 132.08 135.03 132.49 141.31 132.33 C 141.31 133.74 141.32 135.14 141.32 136.55 C 137.52 136.54 133.72 136.53 129.92 136.51 C 129.92 137.89 129.92 139.27 129.92 140.66 C 133.19 140.63 136.46 140.62 139.73 140.62 C 139.72 141.92 139.72 143.21 139.71 144.51 C 136.44 144.50 133.18 144.49 129.91 144.47 C 129.92 147.37 129.93 150.26 129.94 153.16 C 127.39 153.16 124.83 153.16 122.28 153.17 C 122.44 146.29 122.03 139.36 122.44 132.50 Z" fill="#f3e103" />
<path d="M 69.31 132.36 C 73.87 132.39 78.46 132.19 83.03 132.42 C 85.03 132.60 87.19 132.79 88.73 134.23 C 91.65 136.97 90.92 142.50 87.21 144.22 C 84.15 145.58 80.18 145.21 76.88 145.36 C 76.89 147.96 76.90 150.56 76.91 153.16 C 74.38 153.16 71.84 153.17 69.31 153.17 C 69.33 146.23 69.33 139.30 69.31 132.36 Z" fill="#f3e103" />
<path d="M 76.86 135.73 C 78.66 136.02 80.43 136.29 82.21 136.70 C 80.45 136.51 78.68 136.39 76.91 136.27 C 76.94 138.00 76.97 139.73 77.01 141.47 C 78.41 141.36 79.81 141.23 81.21 141.08 C 79.76 141.41 78.29 141.66 76.82 141.92 C 76.83 139.86 76.84 137.79 76.86 135.73 Z" fill="#c04536" />
<path d="M 76.91 136.27 C 78.68 136.39 80.45 136.51 82.21 136.70 C 83.84 138.53 83.81 140.46 81.21 141.08 C 79.81 141.23 78.41 141.36 77.01 141.47 C 76.97 139.73 76.94 138.00 76.91 136.27 Z" fill="#038c46" />
<path d="M 159.20 158.38 C 160.70 159.43 162.02 160.78 163.38 162.01 C 162.32 163.30 161.26 164.60 160.20 165.88 C 158.09 163.53 159.56 161.90 159.99 159.21 C 158.74 160.39 157.50 161.57 156.24 162.72 C 157.14 161.19 157.96 159.67 159.20 158.38 Z" fill="#ffffff" />
<path d="M 153.91 160.23 C 155.93 162.64 157.92 165.06 159.63 167.71 C 158.11 166.51 156.64 165.25 155.10 164.08 C 154.55 166.34 156.09 168.49 156.89 170.53 C 156.08 169.59 155.27 168.64 154.47 167.68 C 153.85 169.76 154.21 171.96 152.24 173.16 C 151.08 172.61 149.93 172.04 148.79 171.44 C 149.25 169.87 148.79 168.30 150.58 167.61 C 152.79 166.68 153.76 164.98 155.00 163.04 C 154.64 162.11 154.28 161.17 153.91 160.23 Z" fill="#ffffff" />
<path d="M 160.13 162.18 L 160.94 162.12 L 161.37 162.83 L 160.98 163.60 L 160.17 163.67 L 159.75 162.95 L 160.13 162.18 Z" fill="#c04536" />
<path d="M 149.26 165.25 C 149.77 165.67 149.77 165.67 149.26 165.25 Z" fill="#c04536" />
<path d="M 54.48 166.79 C 55.82 167.59 57.27 168.57 58.20 169.85 C 58.28 170.90 58.14 171.94 58.03 172.98 C 56.49 172.72 54.97 172.39 53.45 172.06 C 52.58 172.97 51.69 173.87 50.80 174.76 C 51.92 172.02 52.99 169.36 54.48 166.79 Z" fill="#ffffff" />
<path d="M 150.00 168.00 C 153.18 167.53 153.12 169.34 152.80 171.88 C 149.99 171.61 149.85 170.51 150.00 168.00 Z" fill="#c04536" />
<path d="M 54.44 169.19 C 55.90 168.05 57.98 170.24 56.87 171.67 C 55.53 172.61 53.27 170.56 54.44 169.19 Z" fill="#c04536" />
<path d="M 146.69 168.39 C 147.36 169.77 147.98 171.17 148.60 172.58 L 148.79 171.44 L 148.84 174.29 L 147.47 172.29 C 147.33 172.88 147.18 173.46 147.04 174.05 C 147.49 175.21 147.92 176.37 148.35 177.55 C 147.23 176.05 146.18 174.53 145.14 172.98 C 145.69 171.46 146.19 169.93 146.69 168.39 Z" fill="#ffffff" />
<path d="M 145.62 169.63 C 144.89 170.26 144.16 170.89 143.42 171.52 C 143.87 174.30 144.25 177.10 144.40 179.92 C 141.75 177.99 139.27 175.94 137.34 173.25 C 139.59 174.61 141.60 176.26 143.61 177.95 C 143.10 175.70 142.60 173.44 142.06 171.20 C 143.25 170.67 144.43 170.15 145.62 169.63 Z" fill="#ffffff" />
<path d="M 58.03 172.98 C 59.12 173.17 60.21 173.39 61.28 173.64 C 61.73 175.17 62.01 176.77 62.33 178.33 C 61.18 178.53 59.38 179.68 58.30 178.83 C 56.16 177.48 57.86 174.90 58.03 172.98 Z" fill="#ffffff" />
<path d="M 60.07 174.21 C 61.17 174.68 60.73 176.76 60.59 177.69 C 57.36 178.42 57.80 174.89 60.07 174.21 Z" fill="#c04536" />
<path d="M 148.84 174.29 C 149.67 173.38 150.28 173.44 150.66 174.46 C 150.08 175.39 149.47 175.34 148.84 174.29 Z" fill="#ffffff" />
<path d="M 63.59 176.50 C 64.48 176.41 65.39 176.42 66.30 176.40 C 64.68 178.11 63.09 179.84 61.45 181.53 C 62.10 179.84 62.73 178.10 63.59 176.50 Z" fill="#ffffff" />
<path d="M 70.39 176.48 C 72.13 177.38 73.86 178.30 75.57 179.26 C 75.08 180.27 74.55 181.26 73.99 182.23 C 72.65 182.27 71.36 182.02 70.04 181.83 C 69.26 182.82 68.48 183.79 67.69 184.77 C 68.21 182.98 68.76 181.20 69.37 179.43 C 69.70 178.45 70.04 177.46 70.39 176.48 Z" fill="#ffffff" />
<path d="M 71.53 178.07 C 72.44 178.41 73.17 178.91 73.72 179.57 C 74.59 181.63 71.18 181.65 70.70 180.06 C 70.61 179.33 70.89 178.66 71.53 178.07 Z" fill="#c04536" />
<path d="M 134.18 177.97 C 135.56 178.00 136.90 178.79 138.20 179.24 C 136.66 180.46 135.14 181.70 133.64 182.98 C 135.63 182.68 137.29 181.86 139.06 180.95 C 137.54 182.04 136.62 184.91 134.41 183.77 C 132.32 182.41 132.19 179.50 134.18 177.97 Z" fill="#ffffff" />
<path d="M 134.19 179.41 L 134.92 178.94 L 135.66 179.30 L 135.63 180.13 L 134.89 180.60 L 134.16 180.24 L 134.19 179.41 Z" fill="#972330" />
<path d="M 76.53 181.14 L 80.02 182.41 C 78.90 182.50 77.79 182.58 76.66 182.65 L 76.47 184.06 C 77.48 183.93 78.49 183.80 79.49 183.66 C 79.29 185.09 79.09 186.51 78.90 187.93 C 77.61 187.54 76.31 187.16 75.01 186.79 C 74.64 186.20 74.27 185.62 73.90 185.03 C 74.31 184.63 74.72 184.23 75.12 183.83 C 75.69 182.97 76.16 182.07 76.53 181.14 Z" fill="#ffffff" />
<path d="M 128.85 181.00 C 130.11 182.08 131.88 183.83 130.62 185.56 C 129.81 187.78 127.48 186.44 125.67 186.69 C 125.09 188.46 124.53 190.23 123.95 191.99 C 123.87 191.27 123.79 190.55 123.71 189.83 C 122.07 188.27 120.53 186.61 118.95 185.00 C 119.13 186.84 119.33 188.69 119.55 190.53 C 118.98 189.91 118.40 189.29 117.84 188.67 C 116.82 189.65 115.02 192.13 113.54 190.46 C 111.38 188.61 112.68 186.86 112.91 184.48 C 114.89 185.12 116.13 185.50 117.35 187.31 C 118.62 183.37 121.77 183.71 125.22 182.96 C 126.32 182.30 127.52 181.03 128.85 181.00 Z" fill="#ffffff" />
<path d="M 127.21 181.77 C 128.48 182.51 129.76 183.24 130.99 184.05 C 129.63 185.05 128.90 186.27 127.04 186.03 C 126.66 184.57 126.71 183.14 127.21 181.77 Z" fill="#c04536" />
<path d="M 81.31 182.99 C 83.19 182.90 84.20 184.30 85.72 185.25 C 86.32 184.68 86.91 184.11 87.50 183.54 C 89.33 185.43 90.21 187.54 91.08 189.99 L 92.62 188.60 L 92.05 189.26 C 92.56 190.25 93.21 190.37 94.00 189.63 L 92.62 188.60 C 91.77 187.96 90.93 187.30 90.10 186.63 C 91.02 186.07 91.97 185.55 92.93 185.08 C 93.96 185.58 94.95 186.13 95.93 186.74 C 94.75 186.60 93.58 186.46 92.40 186.32 C 93.51 187.84 94.77 188.94 95.11 190.87 C 93.24 190.85 91.44 190.49 89.64 190.07 C 88.05 189.86 86.47 189.72 84.87 189.59 C 84.95 188.37 85.02 187.14 85.09 185.92 C 83.94 185.08 82.80 184.24 81.64 183.40 C 81.30 185.06 80.98 186.72 80.67 188.39 C 82.12 187.97 83.57 187.55 85.02 187.14 C 83.99 187.99 82.96 188.83 81.92 189.67 C 82.31 190.11 82.69 190.56 83.08 191.01 C 82.17 191.11 81.27 191.24 80.36 191.34 C 80.60 190.74 80.84 190.14 81.08 189.54 C 80.59 188.65 80.10 187.75 79.63 186.84 C 79.99 185.44 80.36 184.13 81.31 182.99 Z" fill="#ffffff" />
<path d="M 98.22 184.03 C 100.16 184.02 102.10 184.00 104.04 183.99 L 103.99 184.64 C 101.44 185.09 99.80 184.66 98.32 187.20 C 102.19 187.60 105.49 186.76 109.18 185.77 C 108.15 186.36 107.10 186.94 106.05 187.51 C 107.13 188.17 108.21 188.70 109.31 189.31 C 108.90 190.35 108.48 191.38 108.05 192.42 C 106.62 191.75 105.20 191.08 103.79 190.38 C 105.10 190.47 106.40 190.57 107.71 190.68 C 107.24 189.88 106.60 189.16 105.79 188.53 L 105.25 188.09 C 103.16 187.73 101.24 188.14 99.10 188.29 C 99.11 189.04 99.12 189.79 99.14 190.54 C 101.01 190.87 102.87 191.21 104.71 191.69 C 102.49 191.84 100.26 191.84 98.03 191.83 C 98.06 189.23 98.12 186.63 98.22 184.03 Z" fill="#ffffff" />
<path d="M 111.16 182.56 C 111.25 185.74 111.31 188.92 111.28 192.10 C 110.63 190.17 110.07 188.20 109.59 186.22 C 110.08 184.99 110.61 183.77 111.16 182.56 Z" fill="#ffffff" />
<path d="M 121.59 183.84 C 123.31 184.15 125.02 184.49 126.73 184.85 C 125.48 185.93 124.21 188.05 122.42 188.09 C 122.10 186.68 121.82 185.26 121.59 183.84 Z" fill="#c04536" />
<path d="M 75.60 185.16 C 76.59 183.84 78.89 185.27 77.10 186.33 C 75.97 186.46 75.47 186.07 75.60 185.16 Z" fill="#c04536" />
<path d="M 86.88 184.97 C 87.68 185.29 88.48 185.64 89.26 186.01 C 88.88 187.69 89.06 188.78 87.30 189.60 C 85.10 188.71 85.95 186.50 86.88 184.97 Z" fill="#c04536" />
<path d="M 113.73 185.82 C 116.82 185.51 116.58 187.98 115.89 190.16 C 113.28 190.22 112.78 187.88 113.73 185.82 Z" fill="#c04536" />
<path d="M 92.62 188.60 L 94.00 189.63 C 93.21 190.37 92.56 190.25 92.05 189.26 L 92.62 188.60 Z" fill="#c04536" />
</svg>