<?xml version="1.0" encoding="UTF-8" standalone="no"?>
<!DOCTYPE svg PUBLIC "-//W3C//DTD SVG 1.1//EN" "http://www.w3.org/Graphics/SVG/1.1/DTD/svg11.dtd">
<svg xmlns="http://www.w3.org/2000/svg" version="1.1" viewBox="0 0 200 200" width="200.0pt" height="200.0pt">
<path d="M 0.00 0.00 L 200.00 0.00 L 200.00 200.00 L 0.00 200.00 L 0.00 0.00 Z" fill="#ffffff" />
<path d="M 79.20 0.75 C 80.74 4.81 81.99 8.97 83.40 13.08 C 87.97 13.28 92.54 13.23 97.11 13.28 C 93.47 16.02 89.83 18.75 86.11 21.38 C 87.48 25.74 88.89 30.09 90.21 34.46 C 86.44 31.91 82.77 29.22 79.04 26.60 C 75.31 29.23 71.62 31.91 67.86 34.50 C 69.19 30.12 70.62 25.78 72.00 21.41 C 68.27 18.76 64.63 16.00 60.96 13.27 C 65.52 13.25 70.08 13.24 74.64 13.13 C 76.25 8.97 77.10 4.63 79.20 0.75 Z" fill="#ffe100" />
<path d="M 121.12 0.76 C 122.66 4.83 123.89 9.00 125.35 13.10 C 129.91 13.27 134.47 13.24 139.03 13.27 C 135.35 16.01 131.70 18.78 127.97 21.44 C 129.43 25.77 130.76 30.14 132.19 34.48 C 128.38 31.95 124.70 29.23 120.96 26.59 C 117.24 29.24 113.51 31.89 109.79 34.55 C 111.05 30.12 112.57 25.78 113.85 21.36 C 110.16 18.72 106.50 16.03 102.89 13.27 C 107.46 13.24 112.03 13.24 116.60 13.15 C 118.14 9.08 118.94 4.54 121.12 0.76 Z" fill="#ffe100" />
<path d="M 88.00 37.68 C 92.70 37.56 96.41 39.68 100.02 42.41 C 103.59 39.64 107.33 37.57 112.00 37.68 C 120.21 38.12 127.34 42.57 134.78 45.34 C 139.47 47.01 144.06 46.45 148.77 45.25 C 149.40 49.98 150.40 54.73 153.45 58.55 C 158.40 64.55 165.33 70.28 168.41 77.59 C 170.35 82.04 169.82 86.70 168.06 91.10 C 172.03 94.07 175.36 97.47 176.54 102.45 C 178.73 111.49 175.41 121.04 175.64 129.99 C 175.73 134.42 177.53 138.17 179.77 141.87 C 174.96 143.57 170.48 146.26 167.66 150.62 C 163.36 157.33 159.47 166.17 153.09 171.12 C 149.30 174.11 145.05 174.38 140.40 174.23 C 139.05 178.65 137.18 182.62 133.11 185.14 C 126.97 188.98 118.45 189.87 111.50 191.57 C 106.68 192.87 103.19 196.01 100.01 199.71 C 96.77 196.02 93.32 192.84 88.44 191.56 C 81.68 189.93 73.60 189.02 67.51 185.52 C 63.19 183.10 60.88 178.92 59.71 174.25 C 55.02 174.37 50.74 174.14 46.90 171.13 C 40.53 166.20 36.64 157.30 32.32 150.63 C 29.52 146.25 25.03 143.57 20.23 141.86 C 22.46 138.13 24.31 134.46 24.40 130.00 C 24.72 120.78 21.09 112.02 23.44 102.46 C 24.66 97.55 27.93 94.05 31.90 91.15 C 30.05 86.42 29.70 80.78 32.22 76.22 C 35.62 69.51 41.90 64.15 46.55 58.53 C 49.69 54.61 50.51 50.07 51.19 45.23 C 55.91 46.45 60.51 47.02 65.22 45.34 C 72.66 42.56 79.80 38.12 88.00 37.68 Z" fill="#004899" />
<path d="M 88.00 43.56 C 92.58 43.16 96.33 45.02 100.01 47.50 C 103.67 45.01 107.43 43.16 112.00 43.56 C 119.90 44.05 125.15 48.43 132.29 50.67 C 137.05 52.16 141.66 51.28 146.21 49.56 C 146.40 52.95 146.15 56.17 147.72 59.26 C 151.93 68.26 161.71 73.17 164.35 82.72 C 165.57 86.30 165.00 89.75 163.92 93.27 C 167.39 96.10 170.22 99.27 171.29 103.75 C 172.83 110.80 170.72 119.01 170.25 126.01 C 169.97 131.47 171.89 136.37 175.13 140.68 C 171.81 141.81 168.72 142.62 166.09 145.09 C 159.47 151.04 156.64 161.87 149.51 167.46 C 146.09 170.24 142.18 170.65 137.95 170.97 C 136.41 174.40 134.97 177.58 131.79 179.81 C 124.46 185.27 113.64 183.80 105.86 188.84 C 103.33 190.52 101.78 192.78 99.99 195.17 C 98.08 192.58 96.38 190.14 93.54 188.47 C 85.75 183.86 75.46 185.16 68.21 179.82 C 65.04 177.58 63.58 174.41 62.07 170.98 C 57.84 170.66 53.90 170.25 50.49 167.45 C 43.35 161.83 40.57 151.13 33.91 145.10 C 31.29 142.64 28.18 141.79 24.87 140.69 C 28.17 136.35 29.95 131.51 29.70 126.00 C 29.19 119.34 27.59 111.96 28.49 105.01 C 29.19 100.13 32.11 96.41 35.95 93.51 C 35.06 89.53 34.45 85.78 35.91 81.83 C 38.92 72.77 48.93 67.41 52.59 58.53 C 53.87 55.62 53.69 52.70 53.82 49.58 C 58.36 51.28 62.96 52.16 67.71 50.67 C 74.85 48.43 80.10 44.05 88.00 43.56 Z" fill="#ffffff" />
<path d="M 91.03 49.15 C 94.92 49.34 97.22 51.68 100.00 54.05 C 103.02 51.40 105.67 48.98 109.98 49.09 C 119.01 48.72 124.96 55.02 133.50 56.33 C 136.29 56.84 139.00 56.51 141.76 56.07 C 142.25 58.52 142.67 60.90 143.87 63.12 C 147.61 70.70 155.02 74.95 158.60 82.45 C 160.50 86.86 159.75 91.20 158.24 95.57 C 160.99 97.32 163.49 99.05 164.98 102.06 C 166.77 106.34 167.10 110.97 166.28 115.51 C 165.23 123.43 163.78 130.76 167.83 138.13 C 164.92 139.74 162.18 141.45 160.05 144.05 C 154.81 149.91 152.04 159.10 145.66 163.66 C 142.11 166.37 138.35 165.96 134.16 165.67 C 133.55 169.66 132.08 173.28 128.63 175.62 C 121.26 180.65 112.74 179.10 105.33 183.25 C 103.32 184.39 101.74 185.88 100.02 187.40 C 98.28 185.89 96.69 184.40 94.67 183.26 C 87.26 179.09 78.76 180.66 71.37 175.61 C 67.91 173.24 66.44 169.67 65.85 165.64 C 61.66 165.99 57.88 166.35 54.34 163.66 C 47.81 159.00 45.00 149.37 39.48 143.51 C 37.45 141.17 34.89 139.65 32.21 138.17 C 33.86 134.55 35.09 131.05 34.86 127.00 C 35.09 118.70 31.61 112.34 34.24 104.19 C 35.30 100.04 38.31 97.74 41.74 95.55 C 40.79 92.14 39.67 89.08 40.51 85.47 C 41.61 79.37 47.25 74.61 51.17 70.15 C 54.93 66.11 57.43 61.54 58.37 56.07 C 63.30 57.08 67.92 56.56 72.54 54.58 C 78.87 51.97 83.81 48.52 91.03 49.15 Z" fill="#004899" />
<path d="M 97.61 66.90 C 94.53 70.98 91.97 75.11 89.62 79.64 C 88.13 80.19 86.64 80.75 85.15 81.32 C 81.78 78.70 78.13 76.90 74.15 75.40 C 80.41 70.97 86.90 68.43 94.51 67.43 C 95.54 67.25 96.57 67.08 97.61 66.90 Z" fill="#ffffff" />
<path d="M 101.19 67.01 C 109.15 67.11 116.51 69.68 123.35 73.66 C 113.70 74.25 104.57 76.03 96.66 81.93 C 95.39 81.17 94.10 80.41 92.82 79.66 C 95.17 75.23 97.82 70.74 101.19 67.01 Z" fill="#ffffff" />
<path d="M 127.20 76.41 C 137.39 84.58 143.59 96.72 144.45 109.73 C 142.38 107.64 140.33 105.54 138.19 103.52 C 138.20 101.85 138.20 100.18 138.20 98.51 C 137.06 99.20 135.92 99.90 134.77 100.60 C 124.66 92.92 112.27 86.45 99.23 87.04 C 98.86 86.03 98.49 85.02 98.12 84.02 C 106.85 77.91 116.77 76.48 127.20 76.41 Z" fill="#ffffff" />
<path d="M 71.55 77.41 C 75.88 78.90 79.94 80.69 83.61 83.47 C 83.13 84.74 82.65 86.00 82.18 87.27 C 72.62 88.19 65.15 92.85 57.60 98.35 C 60.46 90.24 65.02 83.06 71.55 77.41 Z" fill="#ffffff" />
<path d="M 88.35 84.27 C 90.53 83.10 93.01 83.56 94.27 85.77 C 96.16 88.49 93.28 92.21 90.17 91.69 C 86.34 91.23 85.24 86.56 88.35 84.27 Z" fill="#ffffff" />
<path d="M 82.39 89.58 C 83.24 90.94 84.08 92.30 84.93 93.66 C 79.83 98.25 77.12 104.09 74.46 110.26 C 74.44 108.78 74.47 107.29 74.55 105.81 C 70.51 103.30 66.36 100.98 62.29 98.52 C 68.42 94.24 74.92 90.78 82.39 89.58 Z" fill="#ffffff" />
<path d="M 98.95 89.49 C 110.80 89.16 122.92 95.28 132.26 102.15 C 130.39 103.43 128.03 104.51 126.53 106.23 C 126.37 107.94 126.43 109.68 126.42 111.40 L 128.99 109.89 C 126.96 113.40 124.90 116.89 122.84 120.39 C 122.81 118.19 122.80 115.98 122.77 113.78 C 123.49 113.34 124.21 112.90 124.92 112.45 C 124.96 110.57 124.98 108.68 125.02 106.80 C 121.05 109.36 117.06 111.88 113.03 114.34 C 112.95 116.14 112.92 117.93 112.85 119.72 C 113.61 119.48 114.36 119.23 115.11 118.99 C 115.12 123.75 115.11 128.51 115.12 133.28 C 114.41 133.76 113.71 134.24 113.00 134.72 C 113.05 136.61 113.08 138.49 113.12 140.38 C 117.06 137.83 121.02 135.30 124.99 132.79 C 124.98 130.92 124.98 129.06 124.98 127.20 C 124.25 127.59 123.52 127.99 122.79 128.39 C 122.80 125.92 122.82 123.45 122.84 120.97 C 124.54 122.28 126.24 123.58 127.94 124.88 C 125.43 126.77 126.58 129.23 126.36 131.96 C 130.51 129.25 134.74 126.69 138.84 123.92 C 138.83 122.10 138.82 120.28 138.81 118.46 C 138.22 118.75 137.63 119.04 137.04 119.34 C 134.80 118.01 132.56 116.70 130.32 115.36 C 132.23 111.99 134.20 108.67 136.30 105.43 C 139.24 107.95 141.86 110.66 144.34 113.62 C 143.50 125.27 139.03 136.39 130.57 144.58 C 124.04 151.11 115.74 154.95 106.75 156.76 C 113.10 143.62 113.73 127.99 110.20 113.96 C 108.09 106.06 104.30 97.62 97.52 92.66 C 97.93 91.58 98.41 90.52 98.95 89.49 Z" fill="#ffffff" />
<path d="M 95.74 94.23 C 102.93 99.98 105.69 108.06 107.96 116.65 C 103.03 116.62 98.09 116.62 93.15 116.64 C 93.17 118.82 93.19 121.00 93.21 123.18 C 94.18 123.22 95.15 123.26 96.12 123.30 C 96.01 129.28 96.40 135.17 95.79 141.06 C 94.49 141.03 93.18 141.05 91.87 141.10 C 91.74 143.39 91.60 145.67 91.46 147.96 C 94.74 148.62 99.37 149.49 102.25 147.29 C 104.75 145.49 104.90 142.84 105.06 140.00 C 105.15 134.42 105.05 128.83 105.08 123.24 C 106.09 123.22 107.10 123.20 108.11 123.18 C 108.25 121.61 108.40 120.04 108.56 118.47 C 109.75 131.47 110.15 143.69 104.55 155.83 C 104.29 156.45 103.90 156.84 103.40 157.01 C 93.36 157.94 83.67 155.04 75.23 149.68 C 73.61 140.90 73.21 132.21 74.47 123.36 C 75.37 123.95 76.27 124.55 77.16 125.15 C 77.04 126.73 76.92 128.32 76.80 129.90 L 74.67 129.03 C 74.47 130.98 74.27 132.93 74.06 134.87 C 78.18 137.37 82.31 139.86 86.52 142.19 C 86.73 140.23 86.92 138.27 87.12 136.31 C 86.38 135.80 85.65 135.29 84.92 134.78 C 85.25 129.47 85.62 124.17 86.05 118.87 C 86.80 119.29 87.54 119.71 88.29 120.13 C 88.53 118.18 88.78 116.23 89.03 114.29 C 85.48 112.20 81.93 110.11 78.38 108.01 C 80.33 103.04 82.95 98.49 87.08 95.01 C 90.74 96.11 92.33 95.73 95.74 94.23 Z" fill="#ffffff" />
<path d="M 61.97 98.92 C 61.91 100.74 61.84 102.57 61.76 104.39 C 62.50 104.91 63.24 105.42 63.98 105.94 C 63.24 111.11 62.87 116.31 62.39 121.50 L 60.22 120.45 C 60.16 121.98 60.08 123.50 59.90 125.03 C 59.04 125.66 58.46 125.69 57.44 125.65 C 55.58 118.14 55.23 111.13 56.30 103.45 C 58.18 101.93 60.06 100.41 61.97 98.92 Z" fill="#ffffff" />
<path d="M 72.03 110.29 C 72.71 110.86 73.36 111.46 73.98 112.09 C 73.72 113.49 73.21 114.87 72.77 116.22 C 72.30 115.73 71.84 115.23 71.39 114.73 C 71.53 113.24 71.76 111.76 72.03 110.29 Z" fill="#ffffff" />
<path d="M 76.59 113.33 C 77.08 113.59 77.56 113.86 78.03 114.14 C 78.00 115.74 77.91 117.33 77.83 118.93 C 77.03 118.47 76.24 118.00 75.44 117.53 C 75.80 116.13 76.16 114.71 76.59 113.33 Z" fill="#ffffff" />
<path d="M 59.79 126.25 C 63.24 128.78 67.28 130.80 70.89 133.09 C 70.87 137.98 71.79 142.70 72.63 147.50 C 66.61 142.70 62.05 136.48 59.00 129.43 C 58.41 128.00 58.80 127.29 59.79 126.25 Z" fill="#ffffff" />
<path d="M 85.88 162.66 C 86.09 167.85 86.14 173.08 85.96 178.27 L 83.96 178.24 C 83.74 174.36 83.92 170.45 83.91 166.56 L 81.50 166.24 C 82.78 164.73 84.20 163.66 85.88 162.66 Z" fill="#ffffff" />
<path d="M 97.60 165.15 C 97.93 168.70 97.84 172.35 97.69 175.91 C 97.64 178.19 95.47 179.44 93.41 178.61 C 91.45 177.99 90.73 174.56 93.09 173.96 C 93.72 175.01 94.37 176.05 95.02 177.08 C 95.32 175.47 95.55 173.84 95.74 172.21 C 94.18 172.18 92.55 173.01 91.76 171.13 C 91.49 168.80 91.50 166.37 91.92 164.05 C 93.36 162.06 97.26 162.36 97.60 165.15 Z" fill="#ffffff" />
<path d="M 102.47 163.40 C 104.49 162.42 107.29 162.41 107.86 165.07 C 108.11 168.88 108.15 173.06 107.80 176.86 C 107.02 179.39 102.68 179.67 102.03 176.99 C 101.81 175.01 101.88 172.99 101.87 171.00 C 101.96 168.55 101.58 165.71 102.47 163.40 Z" fill="#ffffff" />
<path d="M 112.03 163.20 C 114.03 163.19 116.02 163.18 118.02 163.16 C 116.97 168.13 116.63 173.33 115.21 178.19 L 112.93 178.43 C 113.91 174.09 114.74 169.76 115.28 165.34 C 114.20 165.33 113.12 165.33 112.04 165.32 L 112.03 163.20 Z" fill="#ffffff" />
<path d="M 95.48 164.94 C 95.53 166.55 95.55 168.15 95.57 169.76 C 95.02 170.04 94.47 170.32 93.92 170.60 C 94.10 168.67 92.47 164.87 95.48 164.94 Z" fill="#004899" />
<path d="M 104.15 164.64 L 105.56 165.44 C 105.77 169.31 106.20 173.61 104.98 177.35 C 103.23 173.66 104.35 168.67 104.15 164.64 Z" fill="#004899" />
</svg>