<?xml version="1.0" encoding="utf-8"?>
<!-- Generator: Adobe Illustrator 22.0.1, SVG Export Plug-In . SVG Version: 6.00 Build 0)  -->
<svg version="1.1" id="Layer_1" xmlns="http://www.w3.org/2000/svg" xmlns:xlink="http://www.w3.org/1999/xlink" x="0px" y="0px"
	 viewBox="0 0 1417.3 1417.3" style="enable-background:new 0 0 1417.3 1417.3;" xml:space="preserve">
<style type="text/css">
	.st0{fill-rule:evenodd;clip-rule:evenodd;fill:#FFFFFF;stroke:#000000;stroke-width:15;stroke-miterlimit:10;}
	.st1{fill-rule:evenodd;clip-rule:evenodd;fill:#E9E4E3;}
	.st2{fill-rule:evenodd;clip-rule:evenodd;fill:#C51718;stroke:#000000;stroke-width:12;}
	.st3{fill:#FFFFFF;}
	.st4{fill-rule:evenodd;clip-rule:evenodd;fill:none;}
	.st5{clip-path:url(#SVGID_2_);fill:#FFFFFF;stroke:#C51718;stroke-width:8.424;}
	.st6{clip-path:url(#SVGID_2_);fill:#FFFFFF;stroke:#C51718;stroke-width:5.616;}
	.st7{clip-path:url(#SVGID_2_);fill:#C51718;}
	.st8{clip-path:url(#SVGID_2_);fill:none;stroke:#C51718;stroke-width:14.04;}
	.st9{clip-path:url(#SVGID_2_);}
	.st10{fill:none;stroke:#C51718;stroke-width:14.04;}
	.st11{clip-path:url(#SVGID_2_);fill:#0F206C;}
	.st12{clip-path:url(#SVGID_2_);fill:none;stroke:#910B26;stroke-width:5.616;}
	.st13{opacity:0.5;clip-path:url(#SVGID_2_);fill:#FFFFFF;stroke:#FFFFFF;stroke-width:8.424;}
	.st14{clip-path:url(#SVGID_2_);fill-rule:evenodd;clip-rule:evenodd;fill:#FFFFFF;}
	.st15{clip-path:url(#SVGID_2_);fill:none;stroke:#C51718;stroke-width:8.424;}
	.st16{clip-path:url(#SVGID_2_);fill:none;stroke:#FFFFFF;stroke-width:5.616;}
	.st17{clip-path:url(#SVGID_2_);fill:#FFED00;}
	.st18{clip-path:url(#SVGID_2_);fill:none;stroke:#12100B;stroke-width:16.848;}
	.st19{clip-path:url(#SVGID_2_);fill:none;stroke:#C51718;stroke-width:5.616;}
	.st20{clip-path:url(#SVGID_2_);fill:#FFFFFF;stroke:#C51718;stroke-width:4.5757;}
	.st21{clip-path:url(#SVGID_2_);fill:#FFFFFF;stroke:#C51718;stroke-width:2.5321;}
	.st22{clip-path:url(#SVGID_2_);fill:#2B2171;}
	.st23{clip-path:url(#SVGID_2_);fill:none;stroke:#FFFFFF;stroke-width:42.1201;}
	.st24{clip-path:url(#SVGID_2_);fill:#FFFFFF;stroke:#C51718;stroke-width:3.1886;}
	.st25{clip-path:url(#SVGID_2_);fill:#FFFFFF;stroke:#C51718;stroke-width:5.1156;}
	.st26{fill-rule:evenodd;clip-rule:evenodd;fill:none;stroke:#000000;stroke-width:15;stroke-miterlimit:10;}
</style>
<path class="st0" d="M1170.2,173.3c-153.4,0-295.2-39.3-460.2-84.5c-167.6,47.8-306.8,84.5-460.2,84.5v558.9
	c0,404.2,306.8,413.2,460.2,560.2c153.4-147,460.2-156,460.2-560.2C1170.2,545.9,1170.2,359.6,1170.2,173.3L1170.2,173.3z"/>
<path class="st1" d="M709.1,1290.4c153.4-147,460.2-156,460.2-560.2c0-186.3,0-372.6,0-558.9l0,0c-153.4,0-295.2-39.3-460.2-84.5"/>
<path class="st2" d="M1169.2,171.3c-153.4,0-295.2-39.3-460.2-84.5c-167.6,47.8-306.8,84.5-460.2,84.5v128.9
	c0,161.3,306.8-96.8,460.2,50.2c153.4-147,460.2,111.1,460.2-50.2C1169.2,113.9,1169.2,357.6,1169.2,171.3L1169.2,171.3z"/>
<g>
	<path class="st3" d="M315.4,223.5l-31.4,8l-2.7-10.7l75.1-19.1l2.7,10.7l-31.4,8l18.4,72.3l-12.3,3.1L315.4,223.5z"/>
	<path class="st3" d="M370.7,199.2l11.9-1.7l4.6,32.7l0.2,0c4.6-9.5,13.7-13.7,22.7-15c15-2.1,27,2.7,29.3,18.3l6,42.4l-11.9,1.7
		l-5.7-40c-1.3-9.1-7.6-13.6-20.5-11.8c-10.8,1.5-19.5,9.2-17.8,21.4l5.1,35.9l-11.9,1.7L370.7,199.2z"/>
	<path class="st3" d="M466.5,245.8c2.1,12.9,14.2,18.7,24.8,17.8c6.8-0.6,15.8-3.6,19.2-12.9l12.7-1.1c-4.8,15.5-18,22.9-30.4,24
		c-24.4,2.2-37.7-12.2-39.3-30.3c-1.6-18.1,9-34.5,33.4-36.7c16.5-1.5,34.8,6.6,37.1,32.5l0.1,1.6L466.5,245.8z M510.6,232.5
		c-2.9-11.2-12.2-16.7-23.4-15.8c-11,1-20.2,8.4-21.1,19.7L510.6,232.5z"/>
	<path class="st3" d="M590.8,196.8l-0.2,0l2.1,68.1l-12.7,0.4l-2.7-85.6l14.8-0.5l57.2,66.4l0.2,0l-2.1-68.1l12.7-0.4l2.7,85.6
		l-14.8,0.5L590.8,196.8z"/>
	<path class="st3" d="M713,197.6c24.5,0.1,36.4,15.6,36.4,33.7c0,18.1-12.1,33.6-36.6,33.5c-24.5-0.1-36.4-15.6-36.4-33.7
		C676.5,213,688.5,197.5,713,197.6z M712.9,207.7c-17.4,0-23.8,12.1-23.8,23.5c0,11.4,6.3,23.5,23.7,23.6
		c17.4,0,23.8-12.1,23.8-23.5C736.7,219.8,730.3,207.7,712.9,207.7z"/>
	<path class="st3" d="M857.4,226.1c0.4-11.5-6.8-15.3-14.6-15.6c-10.9-0.4-20.8,4.4-21.3,16.1l-1.4,38l-12-0.4l1.5-39.9
		c0.4-11.5-6.8-15.3-14.6-15.6c-10.9-0.4-20.9,5.6-21.3,17.9l-1.4,36.2l-12-0.4l2.3-62.8l12,0.4l-0.4,9.5l0.2,0
		c6.2-8.5,15.9-11.1,25-10.7c8.2,0.3,16.1,4,20.9,12.4c6-7,13.9-11.1,25.9-10.7c6.4,0.2,23.8,3.9,23,23.1l-1.6,42.8l-12-0.4
		L857.4,226.1z"/>
	<path class="st3" d="M885,224.6c2.8-15.5,14.1-20.8,32.9-19.3c12.8,1,28.6,5.4,27.4,20.1l-2.7,33.7c-0.3,3.6,1.4,5.5,4.9,5.8
		c1.3,0.1,2.9,0.1,4.2-0.1l-0.7,8.4c-2.9,0.2-6.5,0.2-9.4,0c-6.1-0.5-9.8-2.5-10.1-9.6c-5.4,6.1-17.3,8.8-27.5,8
		c-20.7-1.7-24.6-12.8-24-20.9c0.9-11.6,8.2-16.7,28.5-17.3l13.8-0.3c6.7-0.1,11-1,11.5-6.7c0.7-8.6-7.5-11-17.2-11.7
		c-10.2-0.8-19.3,1.3-20.4,10.9L885,224.6z M932.8,238.8c-2,1.9-5.3,2.5-12,2.8l-13.7,0.6c-9.6,0.6-14.5,2.4-15.1,9.1
		c-0.5,5.9,5.1,10.4,13.8,11.1c13.5,1.1,25.4-5.1,26.3-15.6L932.8,238.8z"/>
	<path class="st3" d="M1014.3,273.2l-0.2,0c-5.5,5.9-15.8,8.2-25,7c-18.7-2.4-32.4-16.4-29.6-37.4c2.7-20.9,19.5-31,38.2-28.6
		c9.2,1.2,18.5,5.9,22.4,13.2l0.2,0l4.2-32l11.9,1.5l-11.1,85.7l-11.9-1.5L1014.3,273.2z M991.9,270.4c16.2,2.1,24.5-8.1,26.1-20
		c1.9-14.3-6.3-24.2-20.1-26c-13.9-1.8-24,5.6-25.8,20C970.5,256.4,975.8,268.3,991.9,270.4z"/>
	<path class="st3" d="M1050.3,267.2c-1.2,5.5,1.7,13.3,16.6,16.6c15,3.3,19.9-1.2,20.9-5.5c1-4.3-0.7-7.4-9.8-10.8l-18.8-6.8
		c-8.6-3.2-15.2-10.3-13.1-19.9c2.8-12.5,15-17.5,32.4-13.7c20,4.4,27.2,15.1,25.5,27.2l-11.7-2.6c1-6.3-3.7-12.9-15.9-15.5
		c-7.5-1.6-16.7-1.3-18.2,5.8c-0.9,4.1,0.4,7,8.5,9.9l16.2,5.9c15,5.6,19.7,12.4,17.9,21c-3.1,14.3-16.7,18.3-35.4,14.2
		c-14.1-3.1-29.3-10.3-26.7-28.4L1050.3,267.2z"/>
</g>
<path class="st4" d="M1169.2,171.3c-153.4,0-295.2-39.3-460.2-84.5c-167.6,47.8-306.8,84.5-460.2,84.5v558.9
	c0,404.2,306.8,413.2,460.2,560.2c153.4-147,460.2-156,460.2-560.2C1169.2,543.9,1169.2,357.6,1169.2,171.3L1169.2,171.3z"/>
<g>
	<defs>
		<path id="SVGID_1_" d="M1168.2,170.3c-153.4,0-295.2-39.3-460.2-84.5c-167.6,47.8-306.8,84.5-460.2,84.5v558.9
			c0,404.2,306.8,413.2,460.2,560.2c153.4-147,460.2-156,460.2-560.2C1168.2,542.9,1168.2,356.6,1168.2,170.3L1168.2,170.3z"/>
	</defs>
	<clipPath id="SVGID_2_">
		<use xlink:href="#SVGID_1_"  style="overflow:visible;"/>
	</clipPath>
	<polygon class="st5" points="928.8,874.2 832.4,946.2 792.1,933.9 899.8,832.3 	"/>
	<polygon class="st6" points="713.4,409.2 609.7,413.8 614.8,421.2 462.8,431.6 450.5,432.1 462.7,434.2 496.8,445.6 461.6,458.5 
		451.8,461 461.3,460.7 616.9,453.1 621.5,445.9 707,443.4 	"/>
	<rect x="697.2" y="766.2" class="st7" width="24" height="18.7"/>
	<line class="st8" x1="663.8" y1="819.3" x2="663.8" y2="766.1"/>
	<line class="st8" x1="753.6" y1="820.8" x2="753.6" y2="763.3"/>
	<g class="st9">
		<line class="st10" x1="710.3" y1="820.8" x2="710.3" y2="405.1"/>
	</g>
	<path class="st11" d="M827.5,763.1L603.4,771c0,0-83.4-103.2,0.9-250.6L840.5,476C840.5,476,780.2,623.6,827.5,763.1z"/>
	<path class="st12" d="M827.5,698.5"/>
	<path class="st12" d="M604.3,520.4"/>
	<path class="st13" d="M708.4,766.1"/>
	<path class="st13" d="M708.1,495.3"/>
	<path class="st13" d="M564.6,577.3"/>
	<path class="st13" d="M708.6,614.3"/>
	<path class="st13" d="M709.5,614.5"/>
	<polyline class="st14" points="929.7,772.3 897.3,828.7 846.7,884 780,924 704,939.3 707.7,821.5 777.3,815.3 832,801.3 875.3,766 
		899.3,720.7 994,713.3 985.3,732 956.7,740 942.7,750 930.1,772 	"/>
	<path class="st13" d="M811.4,541.9"/>
	<path class="st15" d="M934.4,702.7c0,0-37.2,203-226.7,203c-189.5,0-216.4-204.1-216.4-204.1"/>
	<path class="st16" d="M399.7,927.5"/>
	<line class="st8" x1="592.5" y1="518.5" x2="849.2" y2="468.9"/>
	<path class="st7" d="M810.7,614.3l-103.4,13.5c0,0-19.6-43.9-1.9-124.2L840.5,476C840.5,476,811.4,558.1,810.7,614.3z"/>
	<path class="st7" d="M707.6,767.3c0,0-99.8,5.9-103.7,3.7c-20.9-11.7-43.7-104.8-36.3-122.1c3.6-8.4,139.8-23.7,139.7-21.1
		C705.9,673.7,708.3,711.2,707.6,767.3z"/>
	<path class="st17" d="M827.5,763.1c0,0-119.2,8.6-119.9,4.2c-4-23.7-26.6-96.5-0.3-139.5c4.8-7.8,103.4-16.1,103.4-13.5
		C809.3,660.2,814.4,708.6,827.5,763.1z"/>
	<path class="st17" d="M708.2,627.7c0,0-131.7,41.3-141.6,23.7c-3.6-6.4,5.4-76.7,34-126c4.6-7.9,117.9-27.2,117.8-24.5
		C717,546.8,695,573.1,708.2,627.7z"/>
	<path class="st18" d="M604.3,529.6c68.5,50.5,223.2,233.5,223.2,233.5"/>
	<polygon class="st6" points="581.3,715.6 429.7,704.4 429.7,672.8 581.3,684 	"/>
	<path class="st15" d="M956.9,702.7c0,0-59.7,231.1-249.2,231.1c-189.5,0-230.4-218.1-230.4-218.1"/>
	<path class="st15" d="M903.5,702.7c0,0-6.3,118.8-195.8,118.8c-189.5,0-185.5-108.6-185.5-108.6"/>
	<path class="st15" d="M920.4,702.7c0,0-23.2,166.5-212.7,166.5c-189.5,0-199.5-156.4-199.5-156.4"/>
	<polygon class="st6" points="581.3,715.6 429.7,704.4 429.7,720.5 581.3,731.7 	"/>
	<polygon class="st6" points="581.3,667.9 429.7,656.6 429.7,672.8 581.3,684 	"/>
	<path class="st19" d="M460.7,707.8c4.6-4.1,4.9-13.9,0.9-18.4l-2.3-2.6c-4.1-4.6-11.1-4.9-15.6-0.9l0,0c-4.6,4.1-4.9,13.9-0.9,18.4
		l4.2,1.3"/>
	<path class="st19" d="M494.4,707.8c4.6-4.1,4.9-11.1,0.9-15.6l-2.3-2.6c-4.1-4.6-11.1-4.9-15.6-0.9l0,0c-4.6,4.1-4.9,11.1-0.9,15.6
		l2.3,2.6"/>
	<path class="st19" d="M528.1,710.6c4.6-4.1,4.9-11.1,0.9-15.6l-2.3-2.6c-4.1-4.6-11.1-4.9-15.6-0.9l0,0c-4.6,4.1-4.9,11.1-0.9,15.6
		l2.3,2.6"/>
	<path class="st19" d="M561.8,713.4c4.6-4.1,4.9-11.1,0.9-15.6l-2.3-2.6c-4.1-4.6-11.1-5-15.6-0.9l0,0c-4.6,4.1-4.9,11.1-0.9,15.6
		l2.3,2.6"/>
	<polygon class="st6" points="845.3,715.6 996.8,704.4 996.8,672.8 845.3,684 	"/>
	<polygon class="st6" points="845.3,715.6 996.8,704.4 996.8,720.5 845.3,731.7 	"/>
	<polygon class="st6" points="845.3,667.9 996.8,656.6 996.8,672.8 845.3,684 	"/>
	<path class="st19" d="M965.8,707.8c-4.6-4.1-5-13.9-0.9-18.4l2.3-2.6c4.1-4.6,11.1-4.9,15.6-0.9l0,0c4.6,4.1,4.9,13.9,0.9,18.4
		l-4.2,1.3"/>
	<path class="st19" d="M932.1,707.8c-4.6-4.1-5-11.1-0.9-15.6l2.3-2.6c4.1-4.6,11.1-4.9,15.6-0.9l0,0c4.6,4.1,4.9,11.1,0.9,15.6
		l-2.3,2.6"/>
	<path class="st19" d="M898.4,710.6c-4.6-4.1-5-11.1-0.9-15.6l2.3-2.6c4.1-4.6,11.1-4.9,15.6-0.9l0,0c4.6,4.1,4.9,11.1,0.9,15.6
		l-2.3,2.6"/>
	<path class="st19" d="M864.7,713.4c-4.6-4.1-4.9-11.1-0.9-15.6l2.3-2.6c4.1-4.6,11.1-5,15.6-0.9l0,0c4.6,4.1,4.9,11.1,0.9,15.6
		l-2.3,2.6"/>
	<path class="st6" d="M634.2,832.3c0,9.3-7.3,16.9-16.3,16.9s-16.3-7.5-16.3-16.9c0-9.3,7.3-16.9,16.3-16.9S634.2,823,634.2,832.3z"
		/>
	<path class="st6" d="M690.3,843.6c0,9.3-7.3,16.9-16.3,16.9c-9,0-16.3-7.5-16.3-16.9c0-9.3,7.3-16.9,16.3-16.9
		C683,826.7,690.3,834.3,690.3,843.6z"/>
	<path class="st6" d="M757.7,843.6c0,9.3-7.3,16.9-16.3,16.9c-9,0-16.3-7.5-16.3-16.9c0-9.3,7.3-16.9,16.3-16.9
		C750.4,826.7,757.7,834.3,757.7,843.6z"/>
	<path class="st6" d="M822.3,826.7c0,9.3-7.3,16.9-16.3,16.9c-9,0-16.3-7.5-16.3-16.9c0-9.3,7.3-16.9,16.3-16.9
		C815,809.9,822.3,817.4,822.3,826.7z"/>
	<rect x="500.5" y="591.8" class="st20" width="8.1" height="70.4"/>
	<rect x="941.4" y="589" class="st20" width="8.1" height="70.4"/>
	<rect x="935.8" y="577.8" class="st21" width="19.2" height="9.1"/>
	<rect x="494.9" y="580.6" class="st21" width="19.2" height="9.1"/>
	<path class="st7" d="M941.6,640.1l-61.2,5.1c0,0-25.7-0.4-7.1-46.9l70.1-9.4C943.4,588.9,942.3,584,941.6,640.1z"/>
	<path class="st7" d="M500.8,643l-52.8-0.5c0,0-16.2-9.4-9.9-46.9l61.7-3.8C499.7,591.7,501.5,586.8,500.8,643z"/>
	<path class="st22" d="M250,975.8c0,0,133.6-97.4,288.6-33c0,0,40.1-32.4,179.1-29.6c0,0,122.1,2.8,211.2,29.3
		c0,0,159.2,69.5,243.4,3.7c0,0-68.1,305-466.2,342.7C706.2,1288.9,339.5,1267.5,250,975.8z"/>
	<path class="st16" d="M599.8,1028.5"/>
	<path class="st16" d="M1138.7,803.8"/>
	<path class="st23" d="M1536.6,964.5c0,0-429.4,70-520.4,12.1c-91-57.9-293.2-1-293.2-1s-167.9,56.3-268.4,1
		c-132.1-72.7-252.2,7.5-252.2,7.5"/>
	<path class="st23" d="M1536.6,1076.9c0,0-429.4,70-520.4,12.1c-91-57.9-293.2-1-293.2-1s-167.9,56.3-268.4,1
		c-132.1-72.7-252.2,7.5-252.2,7.5"/>
	<path class="st23" d="M1536.6,1189.2c0,0-429.4,70-520.4,12.1c-91-57.9-293.2-1-293.2-1s-167.9,56.3-268.4,1
		c-132.1-72.7-252.2,7.5-252.2,7.5"/>
	<path class="st15" d="M432.5,720.5c0,17.6,56.9,19.8,56.9,37.4"/>
	<path class="st15" d="M995.4,720.9c0,17.6-58.4,19.4-58.4,37"/>
	<line class="st15" x1="429.7" y1="678.9" x2="388.7" y2="670.3"/>
	<line class="st15" x1="998" y1="681.7" x2="1039" y2="673.1"/>
	<rect x="694.3" y="398" class="st24" width="30.4" height="9.1"/>
	<rect x="688.2" y="472.3" class="st25" width="42.1" height="16.9"/>
</g>
<path class="st26" d="M1170.2,173.3c-153.4,0-295.2-39.3-460.2-84.5c-167.6,47.8-306.8,84.5-460.2,84.5v558.9
	c0,404.2,306.8,413.2,460.2,560.2c153.4-147,460.2-156,460.2-560.2C1170.2,545.9,1170.2,359.6,1170.2,173.3L1170.2,173.3z"/>
</svg>
