<?xml version="1.0" encoding="UTF-8" standalone="no"?>
<!DOCTYPE svg PUBLIC "-//W3C//DTD SVG 1.1//EN" "http://www.w3.org/Graphics/SVG/1.1/DTD/svg11.dtd">
<svg xmlns="http://www.w3.org/2000/svg" version="1.1" viewBox="0 0 200 200" width="200.0pt" height="200.0pt">
<path d="M 0.00 0.00 L 99.50 0.00 C 97.97 1.35 96.41 2.62 94.64 3.65 C 78.40 12.91 59.70 17.66 41.00 16.91 C 35.04 16.65 29.15 15.81 23.26 14.90 C 20.78 27.85 20.40 40.86 20.62 54.00 C 20.44 71.26 23.77 87.83 28.76 104.27 C 37.26 130.93 51.80 155.65 70.89 176.10 C 79.37 185.12 88.93 193.57 99.55 200.00 L 0.00 200.00 L 0.00 0.00 Z" fill="#ffffff" />
<path d="M 99.50 0.00 L 100.67 0.00 C 101.96 1.15 103.31 2.34 104.79 3.24 C 120.26 12.25 138.08 17.11 156.00 16.99 C 163.02 16.92 169.86 15.97 176.78 14.91 C 178.46 23.56 179.33 32.19 179.40 41.00 C 179.50 50.30 179.63 59.68 178.80 68.96 C 175.13 102.52 161.94 134.69 141.51 161.51 C 130.15 176.23 116.49 190.34 100.49 200.00 L 99.55 200.00 C 88.93 193.57 79.37 185.12 70.89 176.10 C 51.80 155.65 37.26 130.93 28.76 104.27 C 23.77 87.83 20.44 71.26 20.62 54.00 C 20.40 40.86 20.78 27.85 23.26 14.90 C 29.15 15.81 35.04 16.65 41.00 16.91 C 59.70 17.66 78.40 12.91 94.64 3.65 C 96.41 2.62 97.97 1.35 99.50 0.00 Z" fill="#d0ad68" />
<path d="M 100.67 0.00 L 200.00 0.00 L 200.00 200.00 L 100.49 200.00 C 116.49 190.34 130.15 176.23 141.51 161.51 C 161.94 134.69 175.13 102.52 178.80 68.96 C 179.63 59.68 179.50 50.30 179.40 41.00 C 179.33 32.19 178.46 23.56 176.78 14.91 C 169.86 15.97 163.02 16.92 156.00 16.99 C 138.08 17.11 120.26 12.25 104.79 3.24 C 103.31 2.34 101.96 1.15 100.67 0.00 Z" fill="#ffffff" />
<path d="M 100.05 8.21 C 102.90 9.53 105.59 11.19 108.40 12.59 C 115.91 16.36 123.82 18.96 131.96 20.95 C 100.68 51.23 69.67 81.80 38.47 112.16 C 27.49 83.65 24.33 52.63 28.69 22.43 C 47.92 25.13 67.50 22.89 85.45 15.42 C 90.54 13.43 95.18 10.64 100.05 8.21 Z" fill="#ffde00" />
<path d="M 136.50 22.33 C 138.61 22.06 140.88 22.53 142.98 22.75 C 152.52 24.11 161.88 23.56 171.39 22.39 C 172.85 32.55 173.43 42.79 173.31 53.05 C 137.27 88.48 100.98 123.67 64.90 159.05 C 54.81 145.90 46.37 131.52 40.08 116.17 C 70.12 86.85 100.16 57.53 130.16 28.17 C 132.21 26.21 134.16 23.94 136.50 22.33 Z" fill="#ed1c24" />
<path d="M 133.42 35.27 C 135.36 37.44 137.30 39.62 139.23 41.79 C 137.12 43.87 134.96 45.92 132.85 48.00 C 133.61 48.89 134.37 49.77 135.13 50.66 C 137.12 48.77 139.07 46.83 141.06 44.93 C 142.99 47.09 144.92 49.27 146.85 51.44 C 144.91 53.36 142.93 55.23 141.00 57.16 C 143.64 60.16 146.29 63.16 148.97 66.12 C 146.71 68.32 144.44 70.52 142.18 72.72 C 134.85 64.48 127.51 56.25 120.18 48.00 C 123.87 44.45 127.55 40.89 131.25 37.34 C 131.97 36.65 132.69 35.96 133.42 35.27 Z" fill="#d0ad68" />
<path d="M 155.25 46.26 C 159.02 44.46 163.17 48.05 162.20 52.02 C 161.31 55.48 157.13 56.95 154.28 54.78 C 151.37 52.51 151.85 47.76 155.25 46.26 Z" fill="#d0ad68" />
<path d="M 172.98 59.06 C 170.97 97.55 155.73 134.56 131.10 164.07 C 122.10 174.84 111.72 184.84 100.04 192.68 C 87.58 184.26 76.87 173.76 67.39 162.14 C 102.63 127.83 137.77 93.40 172.98 59.06 Z" fill="#0066b3" />
<path d="M 100.29 67.37 C 107.57 75.63 114.95 83.79 122.22 92.05 C 119.98 94.24 117.72 96.43 115.47 98.62 C 108.12 90.42 100.86 82.13 93.46 73.97 C 95.05 72.42 96.65 70.87 98.25 69.33 C 98.93 68.67 99.61 68.02 100.29 67.37 Z" fill="#d0ad68" />
<path d="M 126.52 75.62 C 130.40 74.09 134.31 78.00 132.97 81.90 C 131.66 85.56 127.03 86.48 124.45 83.53 C 122.17 80.86 123.31 76.89 126.52 75.62 Z" fill="#d0ad68" />
<path d="M 84.55 102.45 C 90.51 107.36 92.92 117.07 88.81 123.81 C 85.89 128.17 81.51 131.67 77.82 135.38 C 70.56 127.24 63.33 119.07 56.03 110.97 C 59.89 107.13 63.80 102.17 68.68 99.66 C 74.05 96.96 80.23 98.57 84.55 102.45 Z" fill="#d0ad68" />
<path d="M 99.51 101.63 C 102.80 100.13 106.55 102.37 106.69 106.00 C 106.89 109.70 102.67 112.42 99.40 110.55 C 95.72 108.58 95.86 103.56 99.51 101.63 Z" fill="#d0ad68" />
<path d="M 74.00 107.74 C 78.57 108.08 82.17 112.50 81.92 117.01 C 81.92 119.12 80.50 121.06 79.54 122.87 C 75.58 118.69 71.71 114.40 68.02 109.98 C 69.86 109.17 71.95 107.72 74.00 107.74 Z" fill="#ed1c24" />
</svg>