<?xml version="1.0" encoding="utf-8"?>
<!DOCTYPE svg PUBLIC "-//W3C//DTD SVG 20010904//EN" "http://www.w3.org/TR/2001/REC-SVG-20010904/DTD/svg10.dtd">
<svg version="1.0" xmlns="http://www.w3.org/2000/svg" width="800px" height="800px" viewBox="0 0 800 800" preserveAspectRatio="xMidYMid meet">
 <g fill="#6d1314">
  <path d="M0 400 l0 -400 400 0 400 0 0 400 0 400 -400 0 -400 0 0 -400z m489.5 125 l52.5 0 0 -36.5 0 -36.5 -52.5 0 -52.5 0 0 -16 0 -16 26 0 26 0 0 -36.5 0 -36.5 -26 0 -26 0 0 -12.8 0 -12.7 -36.5 -36.5 -36.5 -36.5 0 49.3 0 49.2 -26.5 0 -26.5 0 0 36.5 0 36.5 26.5 0 26.5 0 0 16 0 16 -52.5 0 -52.5 0 0 36.5 0 36.5 52.5 0 52.5 0 0 26.2 0 26.3 36.3 36.3 36.2 36.2 0.3 -62.5 0.2 -62.5 52.5 0z m-181.1 -314.8 c2.7 -1.5 6.3 -4.5 7.9 -6.7 l2.9 -4 -3 -0.3 c-2.2 -0.2 -3.7 0.5 -6.4 3.2 -3.5 3.5 -3.7 3.6 -11.8 3.6 -8.9 0 -12 -1.2 -15.5 -5.8 -2.8 -3.8 -2.9 -18.4 -0.1 -22.5 2.5 -3.7 6.7 -5.7 13.1 -6.4 6.5 -0.7 11.6 0.9 15.2 4.8 1.8 1.8 3.8 2.9 5.6 2.9 2.7 0 2.7 0 1.2 -3 -2.8 -5.5 -13.2 -11.8 -19.6 -11.9 -8.6 -0.2 -21.2 9.1 -23.7 17.5 -2.8 9.4 -0.8 16.8 6.4 24.1 8.6 8.6 17.5 10.1 27.8 4.5z m169.4 2.3 c5.7 -1.7 14 -8.6 11.1 -9.2 -0.9 -0.2 -3.3 0.7 -5.3 2.1 -4.4 3 -10 4 -16.6 3.1 -7.8 -1.1 -13 -6.5 -13 -13.5 l0 -3 20.1 0 20.2 0 -0.6 -5.4 c-1 -10.3 -8.3 -18.8 -18.3 -21.6 -15.1 -4.2 -32.6 13.4 -28.5 28.7 2.4 8.9 8.8 15.6 18 18.9 4.7 1.7 6.7 1.7 12.9 -0.1z m-246.8 -13.5 l0 -14 14 0 14 0 0 -4 0 -4 -14 0 -14 0 0 -12.5 0 -12.5 14.5 0 14.5 0 0 -4 0 -4 -19 0 -19 0 0 34.5 0 34.5 4.5 0 4.5 0 0 -14z m140 -10.6 l0 -24.5 3.6 0.3 3.5 0.3 7.8 18 c6.4 14.7 8.2 18.1 10 18.3 2.3 0.4 3.2 -1.2 13.6 -25.5 4.7 -11.2 4.8 -11.3 8.1 -11.3 l3.4 0 0 24.6 0 24.5 4.3 -0.3 4.2 -0.3 0.3 -34.3 0.2 -34.3 -5.7 0.3 -5.7 0.3 -9.4 21.8 -9.5 21.7 -3.7 0 -3.7 0 -4.1 -9.7 c-2.3 -5.4 -6.5 -15.2 -9.5 -21.8 l-5.3 -12 -5.2 -0.3 -5.2 -0.3 0 34.5 0 34.6 4 0 4 0 0 -24.6z m151 4.1 l0 -20.5 21 0 21 0 0 3.6 c0 3 -1.9 6.2 -11 18.9 -6 8.4 -11 16 -11 16.9 0 1.4 2 1.6 18 1.6 l18 0 0 -3.5 0 -3.5 -11.5 0 -11.5 0 0 -3.4 c0 -2.8 2.1 -6.4 11 -18.7 6.1 -8.4 11 -16.1 11 -17.1 0 -1.7 -1.7 -1.8 -27.5 -1.8 l-27.5 0 0 -8.5 0 -8.5 -4 0 -4 0 0 8.5 0 8.5 -4.5 0 -4.5 0 0 4 0 4 4.5 0 4.5 0 0 20 0 20 4 0 4 0 0 -20.5z"/>
  <path d="M454 183.5 c0 -8.2 5 -12.5 14.9 -13.3 11.3 -0.8 18.1 4.1 18.1 13.1 l0 3.7 -16.5 0 -16.5 0 0 -3.5z"/>
 </g>
 <g fill="#ffffff">
  <path d="M400.3 619.8 l-39.3 -39.3 0 -26.3 0 -26.2 -52.5 0 -52.5 0 0 -39.5 0 -39.5 52.5 0 52.5 0 0 -13 0 -13 -26.5 0 -26.5 0 0 -39.5 0 -39.5 26.5 0 26.5 0 0 -52.2 0 -52.3 39.5 39.5 39.5 39.5 0 12.7 0 12.8 26 0 26 0 0 39.5 0 39.5 -26 0 -26 0 0 13 0 13 52.5 0 52.5 0 0 39.5 0 39.5 -52.5 0 -52.5 0 -0.2 65.5 -0.3 65.5 -39.2 -39.2z"/>
  <path d="M287.6 215.4 c-6.8 -2.1 -14.7 -10.1 -16.6 -16.9 -3.2 -11.6 -1 -21.6 6.5 -29.1 10.4 -10.4 26.5 -11.3 38.1 -2 3.1 2.4 8.4 11 8.4 13.6 0 0.6 -2.8 1 -6.8 1 -6.1 0 -6.9 -0.3 -9.5 -2.9 -1.5 -1.6 -4.3 -3.5 -6.2 -4.1 -7.3 -2.4 -16.5 3 -17.9 10.5 -1.9 10.1 4.1 17.5 14.2 17.5 4.8 0 5.8 -0.4 8.9 -3.5 3.3 -3.3 3.8 -3.5 10.4 -3.5 4.9 0 6.9 0.4 6.9 1.3 0 0.6 -1.4 3.6 -3.1 6.5 -6.3 11.1 -19.7 15.7 -33.3 11.6z"/>
  <path d="M463 216.1 c-11.7 -3.8 -18.7 -12.3 -19.7 -24.1 -0.7 -7.9 1.1 -14.7 5.5 -20.4 11.3 -14.8 35.4 -13.9 44.4 1.6 3 4.9 5 14.4 4.1 18.8 l-0.5 3 -20 0 -19.9 0 1.5 2.8 c4.2 8.2 15.2 10.2 22.9 4.2 1.9 -1.5 4 -2 8.6 -2 3.4 0 6.1 0.4 6.1 0.9 0 2.8 -7 10.7 -11.3 13 -5.1 2.6 -16.9 3.8 -21.7 2.2z m21 -32.8 c0 -0.5 -0.9 -2.3 -2 -4.1 -5.1 -8.3 -19.1 -7.7 -23.6 0.9 -0.7 1.5 -1.4 3 -1.4 3.4 0 0.3 6.1 0.5 13.5 0.5 7.4 0 13.5 -0.3 13.5 -0.7z"/>
  <path d="M219 178.5 l0 -37.5 22 0 22 0 0 7 0 7 -14.5 0 -14.5 0 0 9.5 0 9.5 14 0 14 0 0 7 0 7 -14 0 -14 0 0 14 0 14 -7.5 0 -7.5 0 0 -37.5z"/>
  <path d="M359.8 179.4 c-0.2 -20.1 0 -37 0.3 -37.5 0.3 -0.6 4.1 -0.9 8.4 -0.7 l7.9 0.3 5.3 12 c3 6.6 7.2 16.4 9.5 21.8 2.3 5.3 4.5 9.7 4.8 9.7 0.4 0 5 -9.8 10.2 -21.7 l9.4 -21.8 8.7 -0.3 8.7 -0.3 -0.2 37.3 -0.3 37.3 -7.2 0.3 -7.3 0.3 -0.1 -24.8 0 -24.8 -2 4 c-1 2.2 -4.7 10.5 -8.2 18.5 l-6.3 14.5 -5.3 0 -5.4 0 -7.7 -17.8 c-4.2 -9.7 -8 -18 -8.3 -18.4 -0.4 -0.3 -0.7 10.5 -0.7 24 l0 24.7 -7 0 -7 0 -0.2 -36.6z"/>
  <path d="M511 196 l0 -20 -4.5 0 -4.5 0 0 -7 0 -7 4.5 0 4.5 0 0 -8.5 0 -8.5 7 0 7 0 0 8.5 0 8.5 27.5 0 27.5 0 0 4.8 c0 4.5 -0.7 5.7 -11 20.1 -6 8.4 -11 15.4 -11 15.7 0 0.2 5.2 0.4 11.5 0.4 l11.5 0 0 6.5 0 6.5 -21 0 -21 0 0 -4.6 c0 -4.3 0.8 -5.8 11 -19.9 6.1 -8.4 11 -15.6 11 -15.9 0 -0.3 -8.1 -0.6 -18 -0.6 l-18 0 0 20.5 0 20.5 -7 0 -7 0 0 -20z"/>
 </g>
</svg>