<?xml version="1.0" encoding="UTF-8" standalone="no"?>
<!DOCTYPE svg PUBLIC "-//W3C//DTD SVG 1.1//EN" "http://www.w3.org/Graphics/SVG/1.1/DTD/svg11.dtd">
<svg xmlns="http://www.w3.org/2000/svg" version="1.1" viewBox="0 0 200 200" width="200.0pt" height="200.0pt">
<path d="M 0.00 0.00 L 200.00 0.00 L 200.00 200.00 L 0.00 200.00 L 0.00 0.00 Z" fill="#fefefe" />
<path d="M 125.05 5.30 C 131.89 25.60 138.93 45.83 145.84 66.11 C 146.91 69.44 148.30 72.48 148.95 75.92 C 135.78 77.36 122.66 79.43 109.49 80.84 C 105.78 69.86 102.08 58.88 98.34 47.91 C 86.43 72.12 74.42 96.27 62.51 120.48 C 61.64 122.27 60.73 124.35 61.65 126.30 C 63.18 129.16 66.82 129.66 69.62 130.54 C 69.54 133.59 70.08 136.52 70.74 139.48 C 54.23 139.41 37.72 139.49 21.21 139.43 C 22.33 136.45 23.28 133.41 24.46 130.45 C 27.67 130.29 31.09 130.24 34.18 129.32 C 39.02 127.40 41.52 123.17 43.69 118.71 C 56.79 91.15 69.96 63.61 83.07 36.05 C 84.66 32.82 85.54 28.71 83.43 25.51 C 81.63 23.01 78.17 21.60 75.48 20.28 C 76.62 17.38 77.56 14.41 78.65 11.50 C 94.24 11.60 109.97 9.21 125.05 5.30 Z" fill="#cf1f26" />
<path d="M 146.00 80.44 C 150.44 79.83 155.24 81.72 156.92 86.09 C 161.20 98.42 165.42 110.83 169.68 123.17 C 171.15 129.09 175.54 134.26 178.82 139.42 C 162.35 139.48 145.89 139.44 129.42 139.44 C 133.00 127.50 128.25 114.08 118.28 106.72 C 109.30 100.07 96.86 98.75 86.82 103.82 C 77.96 108.03 71.59 116.67 70.07 126.35 C 68.59 125.77 66.30 125.54 65.35 124.16 C 71.26 112.39 77.11 100.58 82.87 88.74 C 103.89 86.00 124.98 83.09 146.00 80.44 Z" fill="#028c44" />
<path d="M 147.30 86.34 C 150.50 85.00 153.16 89.43 153.82 91.98 C 154.69 94.15 154.30 97.74 151.13 96.80 C 147.91 95.58 144.65 89.17 147.30 86.34 Z" fill="#fefefe" />
<path d="M 138.68 88.16 C 139.06 89.91 139.38 91.66 139.64 93.43 C 124.95 93.43 110.27 93.37 95.59 93.49 C 96.71 93.18 97.87 92.87 99.02 92.73 C 112.26 91.41 125.46 89.66 138.68 88.16 Z" fill="#fefefe" />
<path d="M 91.48 105.65 C 97.32 103.73 104.15 103.89 109.86 106.19 C 118.33 109.49 124.75 117.20 126.41 126.15 C 127.35 132.19 126.73 138.35 123.77 143.77 C 118.59 153.70 107.11 159.68 96.01 157.85 C 86.88 156.59 78.76 150.30 75.18 141.83 C 72.21 134.98 72.28 126.99 75.36 120.19 C 78.40 113.35 84.37 107.96 91.48 105.65 Z" fill="#070606" />
<path d="M 147.72 105.82 C 150.36 106.88 152.87 108.19 155.41 109.47 C 156.21 107.99 157.07 106.55 157.97 105.13 C 158.23 108.07 158.33 111.01 158.38 113.96 L 156.04 113.78 C 153.23 111.28 150.19 108.64 147.72 105.82 Z" fill="#fefefe" />
<path d="M 107.55 107.83 C 106.50 109.42 105.67 110.99 104.11 112.17 L 103.92 112.27 C 100.94 114.11 98.90 114.52 95.39 113.98 C 94.70 113.84 94.02 113.69 93.35 113.51 C 92.43 113.00 91.51 112.49 90.59 112.00 C 89.74 111.17 89.05 110.19 88.52 109.06 C 94.09 106.43 101.83 105.16 107.55 107.83 Z" fill="#d0d0d1" />
<path d="M 112.02 109.40 C 118.20 113.06 122.74 118.99 124.34 126.03 C 122.03 127.80 120.25 128.70 117.31 128.99 C 117.28 130.35 117.26 131.71 117.24 133.07 C 120.26 134.68 123.35 137.91 122.59 141.61 C 120.38 146.36 116.35 150.34 111.92 153.06 C 110.31 152.74 108.78 152.46 107.37 151.57 C 106.21 150.55 105.08 149.47 103.94 148.41 C 102.65 148.63 101.36 148.84 100.07 149.05 C 99.69 150.79 99.34 152.53 98.83 154.23 C 98.55 154.82 98.27 155.41 97.98 155.99 C 90.20 155.41 83.68 151.35 79.25 145.02 C 82.27 141.66 85.30 138.78 90.16 139.09 L 90.44 139.13 C 91.14 139.41 91.85 139.67 92.57 139.89 C 96.18 140.45 97.74 143.13 99.35 146.06 C 100.44 145.92 101.53 145.81 102.62 145.72 C 102.46 142.58 102.08 139.72 103.98 136.98 C 106.35 133.32 110.13 132.21 114.32 132.26 C 114.42 131.05 114.49 129.84 114.52 128.63 C 111.43 127.30 108.65 125.95 107.83 122.36 C 107.65 121.57 107.22 120.92 106.54 120.41 C 106.80 117.73 107.01 115.17 108.32 112.76 C 109.37 111.35 110.53 110.34 112.02 109.40 Z" fill="#d0d0d1" />
<path d="M 86.46 110.15 C 86.55 111.65 86.43 113.18 86.10 114.73 C 84.77 117.68 80.63 121.32 77.30 120.61 C 79.60 116.49 82.53 112.83 86.46 110.15 Z" fill="#d0d0d1" />
<path d="M 90.59 112.00 C 91.51 112.49 92.43 113.00 93.35 113.51 L 93.51 116.06 C 90.12 116.77 87.27 118.49 85.61 121.61 C 84.39 123.82 84.51 126.06 84.39 128.51 L 82.38 128.31 C 81.57 126.88 80.49 125.77 79.29 124.67 L 79.77 122.91 C 78.96 122.26 78.15 121.61 77.35 120.95 L 77.30 120.61 C 80.63 121.32 84.77 117.68 86.10 114.73 C 88.02 114.41 89.07 113.09 90.59 112.00 Z" fill="#525252" />
<path d="M 103.92 112.27 L 104.11 112.17 C 105.52 112.32 106.92 112.53 108.32 112.76 C 107.01 115.17 106.80 117.73 106.54 120.41 C 105.43 120.51 104.32 120.60 103.21 120.70 C 101.14 117.94 99.22 116.90 95.91 116.06 C 95.50 115.75 95.33 115.05 95.39 113.98 C 98.90 114.52 100.94 114.11 103.92 112.27 Z" fill="#525252" />
<path d="M 95.39 113.98 C 95.33 115.05 95.50 115.75 95.91 116.06 C 99.22 116.90 101.14 117.94 103.21 120.70 C 104.32 120.60 105.43 120.51 106.54 120.41 C 107.22 120.92 107.65 121.57 107.83 122.36 C 106.68 122.46 105.52 122.55 104.37 122.62 C 105.07 126.73 104.83 130.66 101.70 133.70 C 99.17 136.24 96.12 136.57 92.70 136.61 C 92.65 137.71 92.61 138.80 92.57 139.89 C 91.85 139.67 91.14 139.41 90.44 139.13 C 90.60 138.08 90.76 137.03 90.92 135.98 C 88.78 134.83 87.29 133.63 85.75 131.73 C 85.32 130.50 84.62 130.33 83.55 129.69 C 83.68 132.40 83.91 135.03 83.23 137.70 C 81.64 135.09 82.50 131.29 82.38 128.31 L 84.39 128.51 C 84.51 126.06 84.39 123.82 85.61 121.61 C 87.27 118.49 90.12 116.77 93.51 116.06 L 93.35 113.51 C 94.02 113.69 94.70 113.84 95.39 113.98 Z" fill="#fefefe" />
<path d="M 150.26 119.26 C 153.89 117.76 156.07 124.04 154.30 126.43 C 151.25 127.86 148.21 121.15 150.26 119.26 Z" fill="#fefefe" />
<path d="M 162.17 119.20 C 164.66 118.71 165.55 121.08 166.09 123.02 C 166.63 124.50 165.88 126.11 164.13 125.89 C 162.09 124.97 160.24 120.85 162.17 119.20 Z" fill="#fefefe" />
<path d="M 104.37 122.62 C 105.52 122.55 106.68 122.46 107.83 122.36 C 108.65 125.95 111.43 127.30 114.52 128.63 C 114.49 129.84 114.42 131.05 114.32 132.26 C 110.13 132.21 106.35 133.32 103.98 136.98 C 102.08 139.72 102.46 142.58 102.62 145.72 C 101.53 145.81 100.44 145.92 99.35 146.06 C 97.74 143.13 96.18 140.45 92.57 139.89 C 92.61 138.80 92.65 137.71 92.70 136.61 C 96.12 136.57 99.17 136.24 101.70 133.70 C 104.83 130.66 105.07 126.73 104.37 122.62 Z" fill="#525252" />
<path d="M 76.79 123.32 L 79.29 124.67 C 80.49 125.77 81.57 126.88 82.38 128.31 C 82.50 131.29 81.64 135.09 83.23 137.70 C 82.00 140.20 80.36 141.63 77.84 142.80 C 75.70 138.43 74.69 133.88 75.21 129.00 C 75.49 127.26 75.41 124.59 76.79 123.32 Z" fill="#d0d0d1" />
<path d="M 85.75 131.73 C 87.29 133.63 88.78 134.83 90.92 135.98 C 90.76 137.03 90.60 138.08 90.44 139.13 L 90.16 139.09 C 88.41 138.71 86.20 139.15 84.68 138.22 C 83.85 136.01 83.69 133.36 85.75 131.73 Z" fill="#525252" />
<path d="M 20.82 143.66 C 37.95 143.55 55.08 143.64 72.21 143.61 C 74.83 149.11 78.76 153.85 83.97 157.07 C 91.87 162.11 102.11 163.16 110.85 159.78 C 118.50 156.95 124.57 151.00 127.96 143.64 C 145.00 143.61 162.03 143.56 179.07 143.66 C 176.61 150.82 171.54 156.84 164.20 159.22 C 162.63 159.79 161.05 159.63 160.03 161.01 C 156.82 165.01 152.92 168.22 147.83 169.46 C 145.80 169.87 145.17 170.38 143.90 171.94 C 140.38 176.42 135.66 178.77 130.23 180.13 C 127.66 183.08 125.25 185.89 121.65 187.65 C 116.55 190.44 111.43 190.30 105.80 190.33 C 105.27 192.21 104.73 193.94 103.28 195.34 C 101.32 196.42 98.52 196.44 96.56 195.37 C 94.95 193.99 94.54 192.20 93.88 190.29 C 90.52 190.24 87.30 190.47 83.99 189.68 C 78.66 188.64 74.06 185.50 70.75 181.25 C 69.38 179.15 65.96 179.47 63.85 178.13 C 59.60 176.37 57.21 172.93 53.99 169.98 C 48.17 168.68 44.17 166.18 40.42 161.55 C 39.04 159.49 37.08 159.83 35.00 158.98 C 28.11 156.41 23.11 150.55 20.82 143.66 Z" fill="#070606" />
<path d="M 24.87 146.33 C 39.95 146.24 55.04 146.50 70.13 146.32 C 63.16 147.27 56.20 147.31 49.20 147.66 C 44.66 148.76 40.18 148.56 35.56 148.57 C 35.40 151.25 36.54 153.90 34.16 155.77 C 29.92 153.44 27.14 150.58 24.87 146.33 Z" fill="#fefefe" />
<path d="M 70.13 146.32 L 70.51 146.32 C 76.17 157.16 87.03 164.09 99.27 164.58 C 101.47 168.80 101.55 174.34 101.60 179.00 C 101.54 183.68 101.44 189.27 99.08 193.44 C 98.23 193.33 97.62 192.76 97.28 191.72 C 95.97 188.21 95.80 184.15 95.53 180.43 C 96.52 180.37 97.51 180.32 98.50 180.26 C 98.51 179.37 98.50 178.47 98.45 177.58 C 89.96 177.41 81.47 177.63 72.99 177.56 C 67.22 177.49 61.67 174.81 58.09 170.27 C 63.73 170.13 69.46 170.58 75.08 170.12 C 75.61 168.38 75.26 167.59 74.04 167.73 C 68.38 167.54 62.68 167.86 57.01 167.66 C 51.67 167.37 46.05 164.76 42.90 160.34 C 50.21 160.15 57.79 160.76 65.03 160.10 C 65.53 158.42 65.20 157.67 64.03 157.85 C 57.02 157.68 49.99 157.91 42.97 157.84 C 39.91 157.74 36.90 157.14 34.16 155.77 C 36.54 153.90 35.40 151.25 35.56 148.57 C 40.18 148.56 44.66 148.76 49.20 147.66 C 56.20 147.31 63.16 147.27 70.13 146.32 Z" fill="#d0d0d1" />
<path d="M 175.08 146.33 C 171.84 152.64 165.92 157.02 158.77 157.60 C 150.81 157.91 142.80 157.34 134.85 157.82 C 139.35 155.91 143.39 156.87 148.36 156.31 C 148.76 153.32 148.76 150.68 148.36 147.69 C 142.08 147.49 135.91 147.01 129.66 146.42 C 144.70 146.38 160.09 146.31 175.08 146.33 Z" fill="#fefefe" />
<path d="M 129.66 146.42 C 135.91 147.01 142.08 147.49 148.36 147.69 C 148.76 150.68 148.76 153.32 148.36 156.31 C 143.39 156.87 139.35 155.91 134.85 157.82 L 134.74 160.13 C 142.11 160.75 149.64 160.16 157.05 160.35 C 153.93 164.73 148.28 167.34 142.99 167.65 C 136.94 167.90 130.85 167.40 124.82 167.83 L 124.86 170.19 C 130.51 170.53 136.21 170.19 141.87 170.28 C 139.46 173.16 136.45 175.40 132.84 176.55 C 127.25 178.47 120.59 177.04 114.64 177.70 L 114.78 180.20 C 118.68 180.56 122.64 180.22 126.55 180.35 C 121.29 186.60 114.13 188.00 106.29 187.52 C 107.09 179.68 107.10 171.81 105.01 164.16 C 115.59 162.61 124.70 155.82 129.66 146.42 Z" fill="#d0d0d1" />
<path d="M 100.07 149.05 C 101.36 148.84 102.65 148.63 103.94 148.41 C 105.08 149.47 106.21 150.55 107.37 151.57 C 105.91 154.07 101.47 154.51 98.83 154.23 C 99.34 152.53 99.69 150.79 100.07 149.05 Z" fill="#525252" />
<path d="M 73.41 180.32 C 79.96 180.30 86.50 180.37 93.05 180.36 C 93.10 182.75 93.26 185.13 93.47 187.51 C 90.29 187.48 87.06 187.69 83.98 186.92 C 79.82 185.96 76.16 183.56 73.41 180.32 Z" fill="#d0d0d1" />
</svg>