<?xml version="1.0" encoding="UTF-8" standalone="no"?>
<!DOCTYPE svg PUBLIC "-//W3C//DTD SVG 1.1//EN" "http://www.w3.org/Graphics/SVG/1.1/DTD/svg11.dtd">
<svg xmlns="http://www.w3.org/2000/svg" version="1.1" viewBox="0 0 200 200" width="200.0pt" height="200.0pt">
<path d="M 0.00 0.00 L 96.31 0.00 C 72.53 0.90 49.66 8.19 29.31 20.42 C 26.93 33.06 24.51 45.66 23.19 58.48 C 19.12 93.24 23.81 128.71 40.08 159.94 C 41.69 162.73 42.97 166.56 45.96 168.05 C 63.96 178.69 82.01 189.26 99.96 200.00 L 0.00 200.00 L 0.00 0.00 Z" fill="#ffffff" />
<path d="M 96.31 0.00 L 103.97 0.00 L 104.72 0.06 C 128.08 1.08 150.57 8.40 170.59 20.34 C 173.72 36.34 176.79 52.72 177.65 69.02 C 179.80 100.41 174.50 131.87 159.91 159.90 C 158.30 162.73 157.00 166.45 154.03 168.03 C 136.02 178.68 117.96 189.26 100.01 200.00 L 99.96 200.00 C 82.01 189.26 63.96 178.69 45.96 168.05 C 42.97 166.56 41.69 162.73 40.08 159.94 C 23.81 128.71 19.12 93.24 23.19 58.48 C 24.51 45.66 26.93 33.06 29.31 20.42 C 49.66 8.19 72.53 0.90 96.31 0.00 Z" fill="#000000" />
<path d="M 103.97 0.00 L 200.00 0.00 L 200.00 200.00 L 100.01 200.00 C 117.96 189.26 136.02 178.68 154.03 168.03 C 157.00 166.45 158.30 162.73 159.91 159.90 C 174.50 131.87 179.80 100.41 177.65 69.02 C 176.79 52.72 173.72 36.34 170.59 20.34 C 150.57 8.40 128.08 1.08 104.72 0.06 L 103.97 0.00 Z" fill="#ffffff" />
<path d="M 109.19 5.80 C 114.38 10.58 115.09 18.50 110.78 24.11 L 109.87 23.72 C 109.70 22.90 109.53 22.08 109.37 21.26 L 107.85 20.76 C 108.76 20.25 109.68 19.74 110.60 19.26 C 110.25 16.83 110.35 14.45 110.44 12.01 C 110.56 10.21 109.01 8.87 107.96 7.61 C 108.62 8.82 109.35 10.00 110.08 11.17 C 109.95 12.12 109.81 13.06 109.67 14.01 C 108.52 13.90 107.38 13.79 106.23 13.68 C 105.71 15.03 105.17 16.38 104.61 17.72 C 102.98 17.98 101.36 18.25 99.74 18.51 C 98.79 17.30 97.85 16.08 96.92 14.84 C 97.37 13.51 97.81 12.17 98.25 10.83 C 99.86 10.54 101.48 10.28 103.11 10.04 C 103.70 10.76 104.31 11.49 104.91 12.20 C 104.55 11.43 104.18 10.66 103.82 9.90 C 104.04 8.88 104.27 7.86 104.49 6.85 C 103.05 5.96 101.59 4.78 99.95 4.33 C 99.23 4.87 98.51 5.43 97.81 6.00 C 95.80 4.88 93.55 7.03 96.71 7.27 L 96.82 7.60 C 95.81 7.97 94.80 8.34 93.78 8.71 C 93.29 8.09 92.80 7.48 92.31 6.87 C 90.25 9.72 88.43 12.29 88.73 16.00 C 88.46 19.58 90.39 21.91 92.02 24.87 L 89.81 24.53 C 84.74 19.83 85.61 10.17 90.81 5.79 C 95.89 1.04 104.10 1.08 109.19 5.80 Z" fill="#ffffff" />
<path d="M 89.12 3.82 C 86.90 7.08 84.70 9.89 84.35 13.99 C 83.79 18.30 85.40 21.76 87.04 25.60 C 68.69 31.19 55.06 48.66 55.14 68.00 C 54.82 78.28 58.35 87.83 64.32 96.08 C 62.81 98.67 61.80 100.94 61.74 104.00 C 61.72 107.21 60.34 109.77 59.15 112.64 C 58.98 116.15 58.73 119.83 59.28 123.30 L 61.07 124.49 C 58.27 126.36 55.87 128.34 55.71 131.98 C 55.42 135.08 57.03 137.21 58.91 139.43 C 58.44 140.41 58.01 141.40 57.57 142.39 C 50.70 128.36 45.98 113.32 43.50 97.89 C 40.34 98.43 37.07 98.90 34.03 99.95 C 36.42 118.68 43.75 137.47 52.34 154.21 C 50.78 157.59 49.18 160.90 48.19 164.50 C 50.93 161.89 51.83 158.65 53.34 155.31 C 55.62 150.15 57.95 145.02 60.28 139.88 C 61.62 140.31 62.97 140.70 64.32 141.10 C 61.17 149.57 57.62 157.93 54.79 166.51 C 56.47 167.17 58.14 167.85 59.83 168.47 L 61.08 168.89 C 64.09 160.48 66.57 151.88 69.42 143.41 C 71.12 138.46 72.36 133.12 74.62 128.42 L 77.24 129.13 C 76.85 131.39 76.37 133.63 75.76 135.83 C 72.51 147.65 69.56 159.56 66.25 171.36 C 68.02 172.06 69.80 172.75 71.59 173.42 C 72.87 165.04 75.03 156.81 76.63 148.49 C 77.99 142.51 78.95 136.48 80.63 130.57 C 82.07 131.46 83.51 132.35 84.94 133.25 C 82.59 147.66 80.05 162.08 78.06 176.55 C 79.64 177.11 81.22 177.68 82.79 178.25 C 84.00 170.87 84.59 163.43 85.43 156.01 C 86.58 148.91 86.72 141.70 88.06 134.64 C 89.55 135.71 91.02 136.79 92.51 137.86 C 91.33 152.30 90.71 166.76 89.44 181.20 C 91.19 181.94 92.94 182.66 94.67 183.42 L 95.91 184.00 C 96.01 169.83 96.95 155.69 97.19 141.51 C 98.12 142.31 99.06 143.11 100.00 143.91 C 100.96 143.09 101.93 142.27 102.88 141.44 C 103.30 155.63 103.72 169.81 104.06 184.01 L 105.42 183.37 C 107.05 182.66 108.70 181.98 110.35 181.29 C 109.87 166.76 108.13 152.31 107.57 137.78 C 109.05 136.74 110.52 135.69 112.01 134.65 C 113.80 149.24 115.30 163.82 117.10 178.41 C 118.62 177.79 120.19 177.19 121.66 176.44 C 122.11 175.41 121.58 173.94 121.48 172.83 C 119.27 159.63 117.32 146.38 115.03 133.19 C 116.51 132.30 117.98 131.41 119.46 130.52 C 122.58 144.72 125.62 158.96 128.46 173.22 C 130.20 172.65 131.94 172.05 133.67 171.43 C 129.91 157.50 126.41 143.48 122.47 129.61 C 123.58 129.13 124.70 128.66 125.82 128.19 C 128.42 137.38 131.62 146.41 134.47 155.53 C 135.95 159.99 137.20 164.61 138.99 168.96 L 140.08 168.56 C 141.85 167.85 143.59 167.06 145.33 166.28 C 142.03 157.91 138.92 149.46 135.63 141.09 C 136.99 140.70 138.34 140.31 139.69 139.88 C 142.74 146.65 145.83 153.39 148.76 160.21 C 149.51 162.01 150.41 163.23 151.88 164.51 C 150.77 160.82 149.11 157.47 147.55 153.96 C 156.70 137.15 163.26 118.66 166.08 99.70 C 162.87 99.12 159.68 98.46 156.48 97.83 C 154.05 113.30 149.23 128.32 142.42 142.41 C 141.98 141.41 141.53 140.42 141.05 139.43 C 144.09 136.47 144.90 132.64 143.35 128.68 C 142.36 126.47 140.02 125.39 138.08 124.17 C 139.05 124.01 140.01 123.85 140.98 123.69 C 141.13 119.98 141.29 116.38 140.90 112.67 C 139.66 109.80 138.25 107.22 138.21 104.00 C 138.14 100.85 137.20 98.82 135.52 96.25 C 138.63 91.78 141.36 87.17 142.89 81.90 C 147.05 68.86 144.70 54.28 136.87 43.10 C 131.09 34.72 122.60 28.66 112.92 25.59 C 114.39 21.92 116.41 18.08 115.74 14.00 C 115.16 9.99 113.06 7.07 110.85 3.82 C 124.95 5.17 138.76 8.69 151.71 14.45 L 151.00 14.65 C 150.41 16.11 151.20 18.03 151.47 19.54 C 153.45 28.34 155.16 37.24 156.35 46.17 C 159.77 46.93 163.20 47.54 166.65 48.15 C 165.45 38.48 163.35 28.98 161.84 19.38 C 163.96 20.80 168.66 21.99 168.80 24.99 C 171.55 38.22 173.47 51.57 174.74 65.02 C 175.43 73.98 175.30 83.02 175.16 92.00 C 174.09 116.81 167.37 141.20 154.55 162.53 C 153.54 164.31 151.97 165.31 150.19 166.21 C 133.42 174.44 116.75 182.92 100.00 191.18 C 83.23 182.92 66.56 174.48 49.80 166.21 C 48.28 165.38 46.85 164.65 45.85 163.18 C 30.42 138.07 24.16 109.28 24.56 80.00 C 24.89 61.50 27.53 43.13 31.12 25.00 C 31.30 22.00 36.14 20.74 38.27 19.31 C 36.47 28.90 34.54 38.42 33.41 48.13 C 36.50 47.34 40.87 47.43 43.51 45.78 C 44.42 42.26 44.73 38.57 45.36 34.99 C 46.62 27.87 48.22 20.84 49.75 13.78 C 62.44 8.44 75.39 5.11 89.12 3.82 Z" fill="#94283f" />
<path d="M 97.81 6.00 L 96.71 7.27 C 93.55 7.03 95.80 4.88 97.81 6.00 Z" fill="#ffffff" />
<path d="M 96.82 7.60 C 97.34 9.26 98.35 10.43 97.52 12.18 C 96.92 14.75 95.15 14.89 93.06 15.87 C 92.39 14.85 91.71 13.83 91.04 12.81 C 91.74 11.19 92.28 9.76 93.78 8.71 C 94.80 8.34 95.81 7.97 96.82 7.60 Z" fill="#ffffff" />
<path d="M 49.75 13.78 C 48.22 20.84 46.62 27.87 45.36 34.99 C 44.73 38.57 44.42 42.26 43.51 45.78 C 40.87 47.43 36.50 47.34 33.41 48.13 C 34.54 38.42 36.47 28.90 38.27 19.31 C 42.01 17.28 45.84 15.45 49.75 13.78 Z" fill="#ffffff" />
<path d="M 90.87 12.90 C 92.40 15.40 92.71 18.07 93.03 20.91 C 94.45 21.46 95.87 22.00 97.30 22.54 C 98.01 21.48 98.71 20.39 99.52 19.41 C 100.99 18.66 102.71 18.36 104.29 17.88 C 105.01 19.10 105.71 20.32 106.40 21.55 C 106.88 21.29 107.36 21.02 107.85 20.76 L 109.37 21.26 C 109.53 22.08 109.70 22.90 109.87 23.72 L 110.78 24.11 L 109.97 24.80 C 108.54 24.48 107.13 24.10 105.71 23.73 C 101.20 23.90 96.71 23.69 92.21 24.12 C 91.98 23.35 91.75 22.58 91.53 21.80 C 88.80 19.82 87.86 14.97 90.87 12.90 Z" fill="#ffffff" />
<path d="M 151.00 14.65 L 151.71 14.45 C 155.18 15.87 158.53 17.64 161.84 19.38 C 163.35 28.98 165.45 38.48 166.65 48.15 C 163.20 47.54 159.77 46.93 156.35 46.17 C 155.16 37.24 153.45 28.34 151.47 19.54 C 151.20 18.03 150.41 16.11 151.00 14.65 Z" fill="#ffffff" />
<path d="M 115.17 28.69 C 125.38 32.59 133.96 40.51 138.62 50.39 C 142.07 57.51 143.20 65.85 142.60 73.68 C 142.21 72.86 141.82 72.04 141.44 71.21 C 140.07 70.82 138.69 70.44 137.31 70.06 C 137.00 67.93 134.61 65.41 136.84 63.72 C 136.78 63.19 136.71 62.67 136.62 62.14 C 135.55 62.97 134.46 63.79 133.37 64.60 C 134.14 65.73 134.86 66.88 135.53 68.07 C 134.26 66.82 132.94 65.62 131.59 64.45 C 133.56 63.53 136.62 62.83 136.23 60.02 C 136.31 56.34 134.02 53.59 130.74 52.22 C 124.58 50.05 118.43 49.33 112.01 48.52 C 111.97 49.67 111.93 50.82 111.90 51.97 L 111.09 51.98 C 111.23 49.83 111.33 47.68 111.39 45.52 C 110.74 46.29 110.22 47.12 109.84 48.01 C 109.51 51.74 109.95 55.52 109.57 59.26 C 108.24 59.71 106.92 60.19 105.61 60.68 C 107.41 60.88 109.22 61.04 111.03 61.17 C 111.04 58.77 111.04 56.36 111.04 53.95 L 113.00 54.02 C 113.00 59.23 113.00 64.44 113.00 69.66 C 111.90 69.50 110.80 69.35 109.70 69.19 C 109.69 71.72 109.69 74.25 109.70 76.77 C 113.55 76.99 117.35 77.53 121.17 78.02 C 123.81 78.03 126.21 79.91 127.91 77.03 C 129.97 79.76 130.15 79.44 129.15 82.63 C 125.06 81.94 121.15 81.07 117.01 80.76 C 101.77 79.46 85.98 79.49 70.96 82.66 C 70.58 81.55 70.20 80.44 69.82 79.33 C 73.14 78.94 76.16 78.88 79.12 77.13 C 81.53 75.83 82.93 73.84 84.77 71.86 C 84.70 73.46 84.64 75.06 84.58 76.66 C 90.45 76.23 96.33 76.37 102.20 76.08 C 102.47 73.52 102.33 70.91 102.33 68.34 L 104.94 68.74 C 105.01 65.57 104.75 62.63 105.74 59.57 C 105.45 57.91 105.05 56.29 104.59 54.67 C 102.87 57.88 104.14 63.22 103.84 66.92 C 102.49 66.89 101.14 66.87 99.80 66.85 C 99.37 65.11 99.02 63.63 97.76 62.26 C 97.56 64.88 97.60 67.50 97.69 70.13 C 98.76 70.15 99.83 70.17 100.90 70.20 C 100.91 71.73 100.92 73.27 100.94 74.81 C 96.08 74.78 91.24 74.94 86.39 75.15 L 85.47 74.33 C 90.45 74.45 95.42 74.30 100.39 74.23 C 100.39 73.10 100.38 71.96 100.38 70.82 C 99.33 70.72 98.29 70.61 97.25 70.51 C 97.16 67.47 97.12 64.42 97.21 61.38 C 99.48 62.58 99.57 63.96 100.29 66.26 C 101.27 66.34 102.24 66.41 103.22 66.48 C 103.19 62.53 103.13 58.59 103.22 54.64 C 102.10 54.69 100.98 54.75 99.85 54.80 C 99.74 55.78 99.63 56.76 99.52 57.74 C 98.76 58.19 98.00 58.64 97.24 59.09 C 97.22 56.40 97.14 53.70 97.06 51.01 C 99.61 51.43 103.32 50.52 104.71 53.19 C 105.89 54.65 105.69 56.85 106.00 58.65 C 106.93 58.79 107.87 58.90 108.81 58.98 C 109.45 55.37 109.11 51.44 109.15 47.75 C 101.69 47.75 94.29 47.39 86.85 48.02 C 86.83 49.04 86.81 50.06 86.79 51.08 C 87.73 51.25 88.68 51.42 89.62 51.59 C 90.00 57.84 90.19 64.21 89.58 70.45 C 88.62 64.57 89.85 58.35 88.89 52.47 L 87.11 51.38 C 88.54 56.97 88.09 63.05 87.87 68.78 L 85.33 69.84 C 85.60 67.38 85.90 64.92 86.11 62.45 C 83.58 62.81 81.05 63.13 78.52 63.46 C 78.28 65.05 78.02 66.64 77.76 68.23 C 76.86 69.27 75.89 70.25 74.89 71.21 C 73.76 70.90 71.50 71.17 70.97 69.92 C 69.17 66.66 71.14 62.24 69.22 58.76 C 68.58 62.26 68.67 65.62 68.98 69.13 C 67.39 64.88 67.75 58.52 71.05 55.06 C 72.72 52.96 76.14 52.61 78.37 53.88 C 79.66 55.31 80.20 57.53 80.97 59.27 C 81.99 59.19 83.01 59.11 84.03 59.02 C 84.14 55.07 84.13 51.13 83.77 47.19 L 84.69 47.53 C 84.87 51.55 84.84 55.56 84.73 59.59 C 83.26 59.70 81.78 59.80 80.30 59.91 C 79.36 57.82 79.00 53.59 76.01 53.70 C 72.89 53.31 71.55 55.73 69.61 57.63 C 69.91 58.33 70.21 59.03 70.51 59.73 C 71.80 57.21 72.60 54.88 75.88 55.04 C 78.81 55.32 78.33 59.39 78.87 61.54 C 81.19 61.23 83.51 60.93 85.82 60.63 C 86.09 56.20 86.49 51.87 86.06 47.42 C 93.39 46.93 100.71 47.31 108.04 47.16 C 108.36 46.92 108.65 46.66 108.92 46.35 C 101.77 45.24 94.20 45.51 86.99 46.02 C 83.14 46.21 79.53 47.54 75.71 47.88 C 84.05 37.61 98.91 33.79 111.21 38.61 C 116.44 40.52 120.83 43.86 124.54 47.96 C 124.46 48.54 124.37 49.12 124.29 49.70 C 126.95 50.40 129.59 51.18 132.25 51.89 C 131.81 51.29 131.37 50.70 130.93 50.10 C 127.40 49.36 126.36 46.46 123.85 44.16 C 114.16 34.41 98.77 31.61 86.24 37.26 C 81.54 39.28 77.61 42.41 74.18 46.18 C 72.39 48.26 69.54 48.64 67.15 50.20 C 63.64 52.38 61.90 55.57 59.71 58.92 C 60.02 59.54 60.33 60.15 60.64 60.77 C 61.21 59.37 61.81 57.99 62.46 56.62 C 61.50 60.89 59.46 64.66 60.20 69.04 C 60.71 72.24 62.65 74.20 64.56 76.62 C 70.45 77.59 74.40 77.10 79.99 75.21 C 74.95 78.33 69.74 78.43 64.02 77.25 C 65.14 78.07 66.29 78.85 67.47 79.58 C 70.99 89.59 78.87 97.67 88.96 101.08 C 94.50 102.70 100.01 103.71 105.74 102.27 C 105.95 104.26 106.12 106.24 106.13 108.24 C 103.30 108.75 104.23 105.89 103.55 104.10 L 102.12 104.30 C 102.43 105.98 102.75 107.66 103.09 109.33 C 105.04 109.39 106.61 109.73 107.88 107.84 C 107.95 106.19 106.17 103.70 106.86 102.34 C 108.93 101.54 111.12 101.12 113.16 100.23 C 121.91 96.67 128.62 89.48 132.09 80.75 C 134.13 80.84 136.75 81.49 138.66 80.64 C 140.92 79.45 141.04 76.98 141.91 74.81 C 141.64 81.76 138.26 88.66 134.21 94.19 C 125.25 106.32 109.92 112.94 94.94 111.04 C 94.49 110.68 94.17 110.13 93.82 109.67 C 95.16 109.59 96.51 109.50 97.85 109.41 L 95.35 108.05 C 95.29 106.77 95.28 105.49 95.31 104.21 L 94.05 103.99 C 93.73 106.35 93.53 108.67 92.69 110.93 C 90.07 110.21 87.45 109.52 84.83 108.80 C 86.09 108.03 87.36 107.28 88.61 106.51 C 87.29 106.17 85.98 105.82 84.66 105.47 C 85.30 104.64 85.96 103.81 86.61 102.98 C 87.68 103.62 88.75 104.25 89.85 104.84 C 88.72 103.23 88.23 101.79 85.95 101.66 C 84.97 102.48 84.40 103.52 83.70 104.57 C 84.21 105.93 84.65 107.26 84.90 108.69 C 69.04 102.56 57.59 87.13 57.30 69.99 C 56.46 52.05 68.07 34.95 84.82 28.68 C 94.39 24.99 105.61 24.99 115.17 28.69 Z" fill="#ffffff" />
<path d="M 95.75 27.34 C 96.79 28.82 97.71 30.37 98.71 31.88 C 99.27 30.26 99.68 28.63 100.53 27.13 C 100.62 28.55 100.69 29.98 100.74 31.40 C 101.64 31.85 102.53 32.31 103.42 32.79 C 99.65 32.58 96.21 31.76 92.51 32.91 C 90.88 34.03 89.36 34.23 87.94 33.51 C 89.01 33.27 90.09 33.04 91.17 32.83 L 90.89 32.44 C 89.93 32.45 88.98 32.41 88.03 32.32 L 87.69 29.06 C 89.50 29.93 91.40 31.03 93.38 31.47 C 94.13 30.06 94.82 28.64 95.75 27.34 Z" fill="#000000" />
<path d="M 90.04 29.19 L 90.67 29.18 L 90.68 29.81 L 90.05 29.82 L 90.04 29.19 Z" fill="#000000" />
<path d="M 109.02 28.96 C 111.22 28.57 111.87 29.80 113.33 31.08 C 112.14 30.75 110.96 30.40 109.79 30.02 L 108.83 32.46 C 109.98 32.71 111.03 33.12 111.99 33.68 C 110.68 34.14 109.45 34.14 108.28 33.66 C 107.40 31.87 107.58 30.38 109.02 28.96 Z" fill="#000000" />
<path d="M 87.17 29.71 C 86.62 30.32 86.07 30.92 85.52 31.51 C 86.10 33.23 86.80 34.40 86.18 36.23 C 85.43 34.83 84.70 33.41 83.99 31.99 C 83.42 32.52 82.86 33.06 82.30 33.59 C 83.64 36.06 83.16 37.03 80.96 38.20 C 78.96 38.47 77.89 36.85 77.98 35.05 C 77.98 32.92 80.49 33.06 81.99 32.87 C 82.50 32.31 83.01 31.75 83.52 31.19 C 84.72 30.64 85.95 30.18 87.17 29.71 Z" fill="#000000" />
<path d="M 115.61 29.74 C 115.24 31.21 114.78 32.65 114.30 34.09 C 115.03 34.86 115.75 35.63 116.46 36.42 C 115.02 35.87 113.64 35.33 112.48 34.27 C 113.28 32.44 114.19 31.11 115.61 29.74 Z" fill="#000000" />
<path d="M 120.07 32.25 C 119.62 33.82 118.10 35.63 118.63 37.27 C 120.14 36.19 121.53 34.95 123.05 33.86 C 122.26 35.66 121.21 37.28 120.06 38.87 C 118.81 37.97 117.58 37.04 116.39 36.07 C 117.55 34.55 118.17 32.95 120.07 32.25 Z" fill="#000000" />
<path d="M 79.96 34.15 C 81.07 34.13 82.16 35.57 81.52 36.59 C 80.13 37.72 77.99 34.75 79.96 34.15 Z" fill="#ffffff" />
<path d="M 123.85 44.16 C 126.36 46.46 127.40 49.36 130.93 50.10 C 131.37 50.70 131.81 51.29 132.25 51.89 C 129.59 51.18 126.95 50.40 124.29 49.70 C 124.37 49.12 124.46 48.54 124.54 47.96 C 120.83 43.86 116.44 40.52 111.21 38.61 C 98.91 33.79 84.05 37.61 75.71 47.88 C 79.53 47.54 83.14 46.21 86.99 46.02 C 94.20 45.51 101.77 45.24 108.92 46.35 C 108.65 46.66 108.36 46.92 108.04 47.16 C 100.71 47.31 93.39 46.93 86.06 47.42 C 86.49 51.87 86.09 56.20 85.82 60.63 C 83.51 60.93 81.19 61.23 78.87 61.54 C 78.33 59.39 78.81 55.32 75.88 55.04 C 72.60 54.88 71.80 57.21 70.51 59.73 C 70.21 59.03 69.91 58.33 69.61 57.63 C 71.55 55.73 72.89 53.31 76.01 53.70 C 79.00 53.59 79.36 57.82 80.30 59.91 C 81.78 59.80 83.26 59.70 84.73 59.59 C 84.84 55.56 84.87 51.55 84.69 47.53 L 83.77 47.19 C 80.84 48.01 78.09 48.98 75.00 48.90 C 69.75 48.41 64.79 52.17 62.46 56.62 C 61.81 57.99 61.21 59.37 60.64 60.77 C 60.33 60.15 60.02 59.54 59.71 58.92 C 61.90 55.57 63.64 52.38 67.15 50.20 C 69.54 48.64 72.39 48.26 74.18 46.18 C 77.61 42.41 81.54 39.28 86.24 37.26 C 98.77 31.61 114.16 34.41 123.85 44.16 Z" fill="#000000" />
<path d="M 76.84 35.42 C 76.15 36.33 75.46 37.24 74.76 38.14 L 76.75 37.95 C 76.87 39.16 77.00 40.37 77.13 41.58 C 75.73 40.27 74.43 38.87 73.17 37.42 C 74.39 36.74 75.61 36.07 76.84 35.42 Z" fill="#000000" />
<path d="M 124.35 35.81 C 125.34 36.47 126.25 37.22 127.10 38.05 C 126.27 39.34 125.28 40.56 124.34 41.78 C 123.24 41.04 122.14 40.30 121.05 39.56 C 122.12 38.28 123.17 36.99 124.35 35.81 Z" fill="#000000" />
<path d="M 123.34 39.13 L 123.96 39.09 L 124.00 39.71 L 123.38 39.75 L 123.34 39.13 Z" fill="#ffffff" />
<path d="M 111.39 45.52 C 111.33 47.68 111.23 49.83 111.09 51.98 L 111.90 51.97 C 111.93 50.82 111.97 49.67 112.01 48.52 C 118.43 49.33 124.58 50.05 130.74 52.22 C 134.02 53.59 136.31 56.34 136.23 60.02 C 136.62 62.83 133.56 63.53 131.59 64.45 C 132.94 65.62 134.26 66.82 135.53 68.07 C 136.12 70.07 136.14 72.26 136.39 74.32 C 136.66 73.17 136.93 72.02 137.20 70.87 C 138.57 71.50 139.95 72.13 141.32 72.76 C 140.61 75.50 139.85 78.03 138.12 80.33 C 134.39 80.00 130.71 80.06 128.50 76.47 C 127.12 73.48 127.10 69.72 126.79 66.46 C 125.54 65.98 124.30 65.49 123.05 65.01 C 123.07 67.31 123.09 69.61 123.10 71.92 L 124.30 72.08 C 124.25 70.21 122.84 67.46 124.91 66.43 L 126.49 67.58 C 126.94 70.67 126.32 73.94 126.12 77.04 C 125.06 77.24 124.00 77.45 122.94 77.66 L 121.17 78.02 C 117.35 77.53 113.55 76.99 109.70 76.77 C 109.69 74.25 109.69 71.72 109.70 69.19 C 110.80 69.35 111.90 69.50 113.00 69.66 C 113.00 64.44 113.00 59.23 113.00 54.02 L 111.04 53.95 C 111.04 56.36 111.04 58.77 111.03 61.17 C 109.22 61.04 107.41 60.88 105.61 60.68 C 106.92 60.19 108.24 59.71 109.57 59.26 C 109.95 55.52 109.51 51.74 109.84 48.01 C 110.22 47.12 110.74 46.29 111.39 45.52 Z" fill="#94283f" />
<path d="M 112.09 46.63 C 115.61 47.17 120.04 47.01 123.18 48.87 C 119.71 49.64 115.75 48.05 112.25 47.77 L 112.09 46.63 Z" fill="#000000" />
<path d="M 83.77 47.19 C 84.13 51.13 84.14 55.07 84.03 59.02 C 83.01 59.11 81.99 59.19 80.97 59.27 C 80.20 57.53 79.66 55.31 78.37 53.88 C 76.14 52.61 72.72 52.96 71.05 55.06 C 67.75 58.52 67.39 64.88 68.98 69.13 C 69.75 70.08 70.57 70.99 71.37 71.91 C 73.05 71.90 74.74 71.89 76.43 71.83 L 74.89 71.21 C 75.89 70.25 76.86 69.27 77.76 68.23 L 78.28 67.43 C 78.86 66.33 79.37 65.18 80.01 64.11 C 81.77 63.90 83.56 63.89 85.32 63.84 C 84.73 68.09 83.94 72.75 79.99 75.21 C 74.40 77.10 70.45 77.59 64.56 76.62 C 62.65 74.20 60.71 72.24 60.20 69.04 C 59.46 64.66 61.50 60.89 62.46 56.62 C 64.79 52.17 69.75 48.41 75.00 48.90 C 78.09 48.98 80.84 48.01 83.77 47.19 Z" fill="#94283f" />
<path d="M 86.85 48.02 C 94.29 47.39 101.69 47.75 109.15 47.75 C 109.11 51.44 109.45 55.37 108.81 58.98 C 107.87 58.90 106.93 58.79 106.00 58.65 C 105.69 56.85 105.89 54.65 104.71 53.19 C 103.32 50.52 99.61 51.43 97.06 51.01 C 97.14 53.70 97.22 56.40 97.24 59.09 C 98.00 58.64 98.76 58.19 99.52 57.74 C 99.63 56.76 99.74 55.78 99.85 54.80 C 100.98 54.75 102.10 54.69 103.22 54.64 C 103.13 58.59 103.19 62.53 103.22 66.48 C 102.24 66.41 101.27 66.34 100.29 66.26 C 99.57 63.96 99.48 62.58 97.21 61.38 C 97.12 64.42 97.16 67.47 97.25 70.51 C 98.29 70.61 99.33 70.72 100.38 70.82 C 100.38 71.96 100.39 73.10 100.39 74.23 C 95.42 74.30 90.45 74.45 85.47 74.33 C 85.60 72.77 85.75 71.22 85.93 69.66 C 87.15 69.92 88.37 70.18 89.58 70.45 C 90.19 64.21 90.00 57.84 89.62 51.59 C 88.68 51.42 87.73 51.25 86.79 51.08 C 86.81 50.06 86.83 49.04 86.85 48.02 Z" fill="#94283f" />
<path d="M 42.95 52.01 C 42.78 53.90 42.61 55.80 42.44 57.70 C 39.08 58.54 35.71 59.28 32.30 59.91 C 32.44 57.95 32.58 55.98 32.73 54.01 C 36.16 53.45 39.56 52.80 42.95 52.01 Z" fill="#ffffff" />
<path d="M 97.52 51.50 C 99.93 52.03 102.86 50.99 103.94 53.77 C 102.59 54.01 101.21 54.16 99.85 54.33 C 99.26 55.76 98.62 57.17 97.95 58.57 C 97.68 56.21 97.56 53.86 97.52 51.50 Z" fill="#000000" />
<path d="M 133.85 51.21 C 135.65 53.40 137.62 54.96 137.98 57.94 C 138.12 59.71 138.09 61.50 137.89 63.30 C 136.94 61.16 137.00 58.85 136.30 56.66 C 135.62 54.84 134.23 53.86 132.82 52.61 C 133.16 52.15 133.50 51.68 133.85 51.21 Z" fill="#000000" />
<path d="M 157.01 52.07 C 160.37 52.65 163.69 53.43 167.04 54.00 C 167.28 55.98 167.52 57.95 167.74 59.93 C 164.41 59.29 161.09 58.57 157.77 57.84 C 157.49 55.91 157.18 54.01 157.01 52.07 Z" fill="#ffffff" />
<path d="M 122.27 53.18 C 124.15 53.57 126.30 54.06 127.87 55.20 C 129.51 56.33 129.38 58.74 129.06 60.47 C 127.88 62.58 124.06 61.03 122.12 60.94 C 122.13 58.37 122.04 55.73 122.27 53.18 Z" fill="#ffffff" />
<path d="M 122.70 53.79 C 124.93 54.84 128.56 55.07 128.75 58.18 C 128.95 60.69 127.54 61.06 125.30 61.11 C 124.88 59.34 127.95 59.43 127.23 57.99 C 126.99 56.17 125.38 56.16 124.04 55.33 C 124.07 56.87 124.08 58.40 124.07 59.94 C 121.75 60.05 123.04 55.34 122.70 53.79 Z" fill="#000000" />
<path d="M 70.97 69.92 C 71.50 71.17 73.76 70.90 74.89 71.21 L 76.43 71.83 C 74.74 71.89 73.05 71.90 71.37 71.91 C 70.57 70.99 69.75 70.08 68.98 69.13 C 68.67 65.62 68.58 62.26 69.22 58.76 C 71.14 62.24 69.17 66.66 70.97 69.92 Z" fill="#000000" />
<path d="M 59.08 61.43 C 60.45 61.31 60.74 61.71 59.96 62.61 C 58.59 62.72 58.29 62.33 59.08 61.43 Z" fill="#000000" />
<path d="M 41.97 63.68 C 41.87 65.67 41.78 67.65 41.67 69.63 C 38.44 70.17 35.21 70.73 31.99 71.36 C 31.98 69.52 31.98 67.69 31.96 65.85 C 35.28 65.02 38.60 64.30 41.97 63.68 Z" fill="#ffffff" />
<path d="M 158.14 63.81 C 161.48 64.35 164.78 65.02 168.07 65.81 C 168.12 67.67 168.17 69.53 168.21 71.39 C 164.92 70.76 161.61 70.19 158.30 69.64 C 158.24 67.70 158.19 65.76 158.14 63.81 Z" fill="#ffffff" />
<path d="M 60.27 71.84 C 61.01 73.68 62.51 75.02 63.86 76.41 C 63.68 76.93 63.49 77.44 63.30 77.96 C 58.81 73.59 57.52 69.94 58.02 63.60 C 60.24 66.14 59.36 68.86 60.27 71.84 Z" fill="#000000" />
<path d="M 41.70 75.23 C 41.74 77.09 41.79 78.94 41.84 80.79 C 38.61 81.54 35.38 82.26 32.13 82.93 C 32.07 80.98 32.01 79.03 31.96 77.08 C 35.22 76.55 38.47 75.95 41.70 75.23 Z" fill="#ffffff" />
<path d="M 158.37 75.37 C 161.65 75.83 164.89 76.60 168.17 77.11 C 168.09 79.06 168.02 81.02 167.94 82.97 C 164.67 82.28 161.40 81.55 158.14 80.78 C 158.19 78.98 158.21 77.16 158.37 75.37 Z" fill="#ffffff" />
<path d="M 119.00 83.15 C 121.72 83.55 124.93 83.64 127.35 85.02 C 120.98 96.87 105.96 103.07 92.98 99.92 C 84.12 98.07 76.94 92.35 72.15 84.79 C 87.34 81.36 103.58 81.60 119.00 83.15 Z" fill="#94283f" />
<path d="M 87.86 86.11 L 88.45 86.18 C 88.49 88.22 88.44 90.26 88.40 92.30 C 89.01 92.86 89.62 93.42 90.23 93.98 C 88.48 94.03 86.74 94.09 84.99 94.16 C 86.54 91.36 86.11 89.79 85.16 86.91 C 86.06 86.63 86.96 86.36 87.86 86.11 Z" fill="#ffffff" />
<path d="M 97.50 87.45 C 98.15 88.99 98.12 91.02 97.48 92.56 C 95.90 95.17 90.59 95.23 91.41 91.20 C 92.60 91.90 93.78 92.60 94.96 93.31 C 95.27 92.58 95.58 91.86 95.90 91.13 C 94.53 91.21 93.16 91.29 91.78 91.37 C 91.52 89.99 91.20 88.69 91.20 87.27 C 92.73 85.33 96.12 85.32 97.50 87.45 Z" fill="#ffffff" />
<path d="M 101.35 86.39 C 104.26 84.84 107.10 86.84 107.05 90.01 C 107.35 92.82 104.72 95.12 102.02 94.15 C 98.92 93.41 98.75 87.73 101.35 86.39 Z" fill="#ffffff" />
<path d="M 108.37 86.29 C 110.70 86.12 113.11 86.25 115.46 86.27 C 114.26 88.78 113.15 91.32 112.30 93.97 C 111.42 93.93 110.54 93.88 109.67 93.84 C 110.66 91.74 111.80 89.82 113.13 87.92 C 112.22 87.96 111.32 87.99 110.41 88.03 C 109.74 88.81 109.06 89.58 108.37 90.35 C 108.33 89.00 108.33 87.64 108.37 86.29 Z" fill="#ffffff" />
<path d="M 42.22 86.64 C 42.42 88.52 42.62 90.41 42.81 92.29 C 39.53 92.94 36.23 93.50 32.93 94.07 C 32.76 92.24 32.60 90.41 32.43 88.59 C 35.68 87.84 38.93 87.18 42.22 86.64 Z" fill="#ffffff" />
<path d="M 93.27 87.40 C 94.13 87.27 94.98 87.17 95.84 87.10 C 95.57 88.10 95.26 89.09 94.91 90.07 C 93.03 89.67 93.52 88.97 93.27 87.40 Z" fill="#94283f" />
<path d="M 102.24 87.26 C 103.70 86.69 104.44 87.10 104.45 88.47 C 104.73 90.08 105.04 94.53 102.17 92.85 C 101.72 90.98 101.79 89.12 102.24 87.26 Z" fill="#94283f" />
<path d="M 157.98 86.66 C 161.16 87.20 164.31 87.85 167.45 88.58 C 167.26 90.40 167.07 92.22 166.88 94.04 C 163.61 93.49 160.35 92.91 157.11 92.19 C 157.40 90.35 157.69 88.51 157.98 86.66 Z" fill="#ffffff" />
<path d="M 43.50 97.89 C 45.98 113.32 50.70 128.36 57.57 142.39 C 55.84 146.34 54.09 150.27 52.34 154.21 C 43.75 137.47 36.42 118.68 34.03 99.95 C 37.07 98.90 40.34 98.43 43.50 97.89 Z" fill="#ffffff" />
<path d="M 66.81 97.83 C 66.30 100.20 64.39 103.18 65.39 105.53 C 66.26 108.37 69.01 110.47 72.03 110.20 C 74.30 110.07 76.43 108.15 78.44 107.17 C 76.78 111.46 71.28 112.98 67.51 110.43 C 63.02 107.90 62.05 100.60 66.81 97.83 Z" fill="#ffffff" />
<path d="M 133.06 97.83 C 137.85 100.01 136.85 108.24 132.48 110.42 C 128.75 112.95 123.17 111.51 121.58 107.18 C 124.04 108.41 126.10 110.56 129.03 110.18 C 131.98 109.93 134.07 107.58 134.88 104.87 C 135.35 102.57 133.63 100.06 133.06 97.83 Z" fill="#ffffff" />
<path d="M 156.48 97.83 C 159.68 98.46 162.87 99.12 166.08 99.70 C 163.26 118.66 156.70 137.15 147.55 153.96 C 145.81 150.12 144.08 146.29 142.42 142.41 C 149.23 128.32 154.05 113.30 156.48 97.83 Z" fill="#ffffff" />
<path d="M 113.57 101.20 C 115.41 101.49 116.21 103.97 116.53 105.55 C 115.68 107.39 114.02 106.74 112.33 107.17 C 113.18 106.57 114.03 105.97 114.90 105.39 C 114.42 103.99 113.93 102.63 113.57 101.20 Z" fill="#000000" />
<path d="M 59.15 112.64 C 86.40 112.65 113.65 112.59 140.90 112.67 C 141.29 116.38 141.13 119.98 140.98 123.69 C 140.01 123.85 139.05 124.01 138.08 124.17 C 140.02 125.39 142.36 126.47 143.35 128.68 C 144.90 132.64 144.09 136.47 141.05 139.43 L 139.69 139.88 C 138.34 140.31 136.99 140.70 135.63 141.09 C 138.92 149.46 142.03 157.91 145.33 166.28 C 143.59 167.06 141.85 167.85 140.08 168.56 C 136.96 158.75 133.81 148.95 130.61 139.17 L 132.90 139.88 C 130.89 137.83 129.18 136.05 129.19 132.97 C 129.16 130.41 128.43 129.49 126.63 127.85 L 125.82 128.19 C 124.70 128.66 123.58 129.13 122.47 129.61 C 126.41 143.48 129.91 157.50 133.67 171.43 C 131.94 172.05 130.20 172.65 128.46 173.22 C 125.62 158.96 122.58 144.72 119.46 130.52 C 117.98 131.41 116.51 132.30 115.03 133.19 C 117.32 146.38 119.27 159.63 121.48 172.83 C 121.58 173.94 122.11 175.41 121.66 176.44 C 120.19 177.19 118.62 177.79 117.10 178.41 C 115.30 163.82 113.80 149.24 112.01 134.65 C 110.52 135.69 109.05 136.74 107.57 137.78 C 108.13 152.31 109.87 166.76 110.35 181.29 C 108.70 181.98 107.05 182.66 105.42 183.37 C 105.08 169.03 104.73 154.70 104.06 140.37 L 102.88 141.44 C 101.93 142.27 100.96 143.09 100.00 143.91 C 99.06 143.11 98.12 142.31 97.19 141.51 C 96.69 141.08 96.19 140.64 95.68 140.22 C 95.28 154.62 95.11 169.02 94.67 183.42 C 92.94 182.66 91.19 181.94 89.44 181.20 C 90.71 166.76 91.33 152.30 92.51 137.86 C 91.02 136.79 89.55 135.71 88.06 134.64 C 86.72 141.70 86.58 148.91 85.43 156.01 C 84.59 163.43 84.00 170.87 82.79 178.25 C 81.22 177.68 79.64 177.11 78.06 176.55 C 80.05 162.08 82.59 147.66 84.94 133.25 C 83.51 132.35 82.07 131.46 80.63 130.57 C 78.95 136.48 77.99 142.51 76.63 148.49 C 75.03 156.81 72.87 165.04 71.59 173.42 C 69.80 172.75 68.02 172.06 66.25 171.36 C 69.56 159.56 72.51 147.65 75.76 135.83 C 76.37 133.63 76.85 131.39 77.24 129.13 L 74.62 128.42 C 74.21 128.34 73.79 128.27 73.37 128.21 L 71.78 128.60 C 70.52 131.02 70.90 133.61 70.11 136.12 C 69.38 137.48 68.15 138.63 67.13 139.77 L 69.34 139.03 C 66.22 148.86 63.11 158.70 59.83 168.47 C 58.14 167.85 56.47 167.17 54.79 166.51 C 57.62 157.93 61.17 149.57 64.32 141.10 C 62.97 140.70 61.62 140.31 60.28 139.88 L 58.91 139.43 C 57.03 137.21 55.42 135.08 55.71 131.98 C 55.87 128.34 58.27 126.36 61.07 124.49 L 59.28 123.30 C 58.73 119.83 58.98 116.15 59.15 112.64 Z" fill="#ffffff" />
<path d="M 60.34 114.25 C 66.50 114.00 72.69 114.24 78.86 114.16 C 78.86 115.68 78.85 117.20 78.84 118.71 C 72.61 118.70 66.38 118.72 60.15 118.70 C 60.19 117.22 60.21 115.72 60.34 114.25 Z" fill="#000000" />
<path d="M 80.53 114.51 C 81.28 114.23 82.04 113.97 82.81 113.73 C 82.85 115.41 82.89 117.08 82.90 118.76 C 82.04 118.73 81.17 118.69 80.30 118.66 C 80.36 117.28 80.38 115.88 80.53 114.51 Z" fill="#000000" />
<path d="M 100.71 114.13 C 105.68 114.18 110.65 114.15 115.62 114.15 C 115.61 115.67 115.61 117.20 115.60 118.72 C 110.65 118.71 105.70 118.69 100.74 118.74 C 100.73 117.20 100.72 115.67 100.71 114.13 Z" fill="#000000" />
<path d="M 116.91 114.11 C 117.83 114.14 118.75 114.16 119.67 114.18 C 119.66 115.68 119.66 117.19 119.66 118.69 C 118.76 118.71 117.87 118.73 116.97 118.76 C 116.95 117.21 116.93 115.66 116.91 114.11 Z" fill="#000000" />
<path d="M 120.99 114.17 C 127.20 114.15 133.40 114.15 139.60 114.16 C 139.60 115.68 139.59 117.19 139.59 118.71 C 133.41 118.71 127.23 118.70 121.05 118.72 C 121.03 117.20 121.01 115.68 120.99 114.17 Z" fill="#000000" />
<path d="M 84.47 114.16 C 89.43 114.15 94.38 114.15 99.34 114.18 C 99.33 115.68 99.33 117.19 99.32 118.70 C 94.38 118.71 89.43 118.71 84.49 118.71 C 84.48 117.19 84.47 115.68 84.47 114.16 Z" fill="#000000" />
<path d="M 61.73 121.35 C 87.24 121.29 112.78 121.29 138.29 121.35 C 133.22 122.96 128.10 124.28 123.18 126.36 C 114.70 129.68 106.95 134.42 99.96 140.25 C 88.90 130.63 75.70 125.21 61.73 121.35 Z" fill="#000000" />
<path d="M 64.04 123.82 C 65.69 124.33 67.84 124.62 69.18 125.78 C 69.84 126.64 71.96 127.88 70.76 128.92 C 69.50 127.98 68.48 126.75 67.22 125.81 C 66.20 125.09 65.10 124.48 64.04 123.82 Z" fill="#000000" />
<path d="M 136.01 123.83 C 133.63 125.11 131.52 126.32 129.94 128.60 C 129.42 128.50 128.90 128.40 128.38 128.29 C 130.87 125.37 132.28 124.57 136.01 123.83 Z" fill="#000000" />
<path d="M 81.46 125.16 C 86.32 125.41 91.11 126.24 96.00 126.26 C 103.61 126.62 111.09 125.81 118.64 125.12 C 116.09 126.87 113.36 127.20 110.46 128.45 C 106.60 129.97 103.24 132.28 99.99 134.82 C 96.74 132.26 93.35 129.98 89.50 128.45 C 86.72 127.26 83.99 126.84 81.46 125.16 Z" fill="#ffffff" />
<path d="M 60.34 127.33 C 61.63 126.43 63.59 126.47 65.07 126.80 C 68.15 127.96 69.51 131.52 68.53 134.56 C 67.64 137.97 63.29 139.82 60.35 137.66 C 56.63 135.35 56.78 129.72 60.34 127.33 Z" fill="#000000" />
<path d="M 133.49 127.54 C 137.25 125.04 142.04 127.46 142.17 131.99 C 142.74 136.12 138.81 139.82 134.82 138.20 C 130.38 136.43 129.80 130.42 133.49 127.54 Z" fill="#000000" />
<path d="M 73.37 128.21 C 73.79 128.27 74.21 128.34 74.62 128.42 C 72.36 133.12 71.12 138.46 69.42 143.41 C 66.57 151.88 64.09 160.48 61.08 168.89 L 59.83 168.47 C 63.11 158.70 66.22 148.86 69.34 139.03 L 67.13 139.77 C 68.15 138.63 69.38 137.48 70.11 136.12 C 70.90 133.61 70.52 131.02 71.78 128.60 L 73.37 128.21 Z" fill="#000000" />
<path d="M 125.82 128.19 L 126.63 127.85 C 128.43 129.49 129.16 130.41 129.19 132.97 C 129.18 136.05 130.89 137.83 132.90 139.88 L 130.61 139.17 C 133.81 148.95 136.96 158.75 140.08 168.56 L 138.99 168.96 C 137.20 164.61 135.95 159.99 134.47 155.53 C 131.62 146.41 128.42 137.38 125.82 128.19 Z" fill="#000000" />
<path d="M 58.91 139.43 L 60.28 139.88 C 57.95 145.02 55.62 150.15 53.34 155.31 C 51.83 158.65 50.93 161.89 48.19 164.50 C 49.18 160.90 50.78 157.59 52.34 154.21 C 54.09 150.27 55.84 146.34 57.57 142.39 C 58.01 141.40 58.44 140.41 58.91 139.43 Z" fill="#000000" />
<path d="M 141.05 139.43 C 141.53 140.42 141.98 141.41 142.42 142.41 C 144.08 146.29 145.81 150.12 147.55 153.96 C 149.11 157.47 150.77 160.82 151.88 164.51 C 150.41 163.23 149.51 162.01 148.76 160.21 C 145.83 153.39 142.74 146.65 139.69 139.88 L 141.05 139.43 Z" fill="#000000" />
<path d="M 95.68 140.22 C 96.19 140.64 96.69 141.08 97.19 141.51 C 96.95 155.69 96.01 169.83 95.91 184.00 L 94.67 183.42 C 95.11 169.02 95.28 154.62 95.68 140.22 Z" fill="#000000" />
<path d="M 104.06 140.37 C 104.73 154.70 105.08 169.03 105.42 183.37 L 104.06 184.01 C 103.72 169.81 103.30 155.63 102.88 141.44 L 104.06 140.37 Z" fill="#000000" />
</svg>