<?xml version="1.0" encoding="UTF-8" standalone="no"?>
<!DOCTYPE svg PUBLIC "-//W3C//DTD SVG 1.1//EN" "http://www.w3.org/Graphics/SVG/1.1/DTD/svg11.dtd">
<svg xmlns="http://www.w3.org/2000/svg" version="1.1" viewBox="0 0 200 200" width="200.0pt" height="200.0pt">
<path d="M 0.00 0.00 L 135.46 0.00 C 135.35 5.14 135.43 10.28 135.39 15.43 C 129.30 15.44 123.20 15.46 117.11 15.42 C 117.12 10.36 117.08 5.29 117.15 0.23 C 105.68 0.04 94.19 0.12 82.71 0.19 C 82.77 5.24 82.68 10.29 82.79 15.34 C 76.69 15.57 70.57 15.36 64.46 15.46 C 64.34 10.36 64.42 5.26 64.41 0.16 C 52.89 0.15 41.35 0.04 29.83 0.22 C 29.91 42.48 29.85 84.74 29.86 127.00 C 29.96 133.64 29.48 139.77 31.59 146.19 C 34.80 157.16 42.52 165.06 51.97 171.06 C 67.92 180.76 84.01 190.30 99.96 200.00 L 0.00 200.00 L 0.00 0.00 Z" fill="#ffffff" />
<path d="M 135.46 0.00 L 135.92 0.00 C 147.30 0.34 158.71 -0.04 170.10 0.19 C 170.01 44.79 170.10 89.40 170.06 134.00 C 170.07 143.12 167.19 152.27 161.30 159.31 C 156.07 165.75 149.40 170.14 142.33 174.30 C 128.27 182.88 114.12 191.34 100.10 200.00 L 99.96 200.00 C 84.01 190.30 67.92 180.76 51.97 171.06 C 42.52 165.06 34.80 157.16 31.59 146.19 C 29.48 139.77 29.96 133.64 29.86 127.00 C 29.85 84.74 29.91 42.48 29.83 0.22 C 41.35 0.04 52.89 0.15 64.41 0.16 C 64.42 5.26 64.34 10.36 64.46 15.46 C 70.57 15.36 76.69 15.57 82.79 15.34 C 82.68 10.29 82.77 5.24 82.71 0.19 C 94.19 0.12 105.68 0.04 117.15 0.23 C 117.08 5.29 117.12 10.36 117.11 15.42 C 123.20 15.46 129.30 15.44 135.39 15.43 C 135.43 10.28 135.35 5.14 135.46 0.00 Z" fill="#295d94" />
<path d="M 135.92 0.00 L 200.00 0.00 L 200.00 200.00 L 100.10 200.00 C 114.12 191.34 128.27 182.88 142.33 174.30 C 149.40 170.14 156.07 165.75 161.30 159.31 C 167.19 152.27 170.07 143.12 170.06 134.00 C 170.10 89.40 170.01 44.79 170.10 0.19 C 158.71 -0.04 147.30 0.34 135.92 0.00 Z" fill="#ffffff" />
<path d="M 37.05 8.98 C 43.69 8.96 50.34 8.96 56.98 8.98 C 56.98 13.99 56.97 18.99 56.98 24.00 C 67.97 24.00 78.95 24.00 89.93 24.00 C 89.88 18.99 89.90 13.98 89.90 8.97 C 96.61 8.97 103.32 8.96 110.03 8.98 C 110.05 13.99 110.06 18.99 110.00 24.00 C 120.97 24.00 131.93 24.00 142.89 24.00 C 142.83 18.99 142.86 13.99 142.86 8.98 C 149.49 8.96 156.11 8.96 162.74 8.98 C 162.62 34.78 162.84 60.61 162.63 86.40 C 160.37 87.82 158.11 89.24 155.82 90.63 C 155.79 86.10 156.05 81.53 155.77 77.00 C 154.82 68.02 152.04 58.74 146.43 51.52 C 138.23 40.95 124.15 35.54 111.00 35.74 C 86.38 35.53 61.72 35.60 37.10 35.53 C 37.04 26.68 37.13 17.83 37.05 8.98 Z" fill="#ffffff" />
<path d="M 37.15 47.29 C 43.81 47.15 50.48 47.31 57.14 47.22 C 57.18 75.81 57.16 104.41 57.15 133.00 C 57.20 135.81 56.83 139.21 58.12 141.77 C 59.33 144.27 61.64 145.70 63.90 147.14 C 75.95 154.47 87.91 161.95 99.97 169.27 C 111.69 162.27 123.37 155.17 135.08 148.14 C 137.06 146.89 139.26 145.49 140.76 143.66 C 142.36 141.42 143.13 138.76 143.05 136.01 C 143.13 130.99 142.31 124.97 138.90 121.04 C 135.36 116.71 129.45 114.74 124.00 114.74 C 116.00 114.70 108.00 114.77 99.99 114.80 C 94.49 114.83 88.91 113.04 85.19 108.81 C 81.85 105.36 80.72 101.03 80.06 96.41 C 91.37 96.31 102.71 96.44 114.02 96.28 C 119.08 96.06 123.07 91.89 123.88 87.02 C 124.44 82.74 124.66 77.45 122.36 73.62 C 120.23 69.43 115.68 66.78 111.01 66.85 C 103.01 66.76 94.99 66.96 87.00 66.77 C 76.94 65.89 68.22 57.74 68.83 47.24 C 82.22 47.25 95.61 47.22 109.00 47.26 C 119.53 47.57 130.09 50.51 136.87 59.09 C 142.52 65.87 143.39 74.52 143.78 83.00 C 143.49 87.81 143.37 93.07 140.76 97.24 C 147.76 98.66 153.08 103.37 156.70 109.34 C 160.69 115.95 162.28 123.34 162.66 130.98 C 162.95 139.72 160.88 148.34 155.17 155.14 C 149.63 161.93 141.70 165.84 134.41 170.41 C 122.94 177.33 111.52 184.36 100.01 191.24 C 85.78 182.73 71.59 174.16 57.38 165.61 C 51.61 162.12 45.88 157.45 42.25 151.71 C 38.67 146.10 37.33 139.58 37.07 133.00 C 37.16 104.49 37.00 75.78 37.15 47.29 Z" fill="#ffffff" />
</svg>