<?xml version="1.0" encoding="UTF-8" standalone="no"?>
<!DOCTYPE svg PUBLIC "-//W3C//DTD SVG 1.1//EN" "http://www.w3.org/Graphics/SVG/1.1/DTD/svg11.dtd">
<svg xmlns="http://www.w3.org/2000/svg" version="1.1" viewBox="0 0 200 200" width="200.0pt" height="200.0pt">
<path d="M 0.00 0.00 L 200.00 0.00 L 200.00 121.63 C 196.54 122.09 192.32 120.96 189.11 122.24 C 188.15 124.12 192.07 123.51 193.00 123.68 C 195.36 123.67 197.65 124.19 200.00 124.28 L 200.00 200.00 L 0.00 200.00 L 0.00 107.87 C 0.90 121.50 5.19 134.71 13.22 145.82 C 24.14 161.30 41.31 172.03 60.01 175.06 C 70.61 176.73 81.73 176.20 92.01 173.04 C 106.30 168.91 119.02 160.14 128.20 148.46 C 132.21 148.84 137.33 149.10 140.86 146.81 C 141.91 146.03 143.51 145.41 143.35 143.85 C 139.66 143.52 135.98 143.84 132.29 143.67 L 131.63 143.34 C 135.77 143.12 139.90 143.39 144.03 143.40 L 144.84 142.93 L 144.88 141.91 C 141.04 141.18 136.92 141.47 133.01 141.51 C 139.82 130.17 143.49 117.25 143.33 104.00 C 143.35 86.47 136.52 69.21 124.70 56.30 C 110.91 41.08 90.57 32.26 70.00 32.93 C 67.71 32.85 65.86 33.69 64.02 31.91 C 52.71 22.49 35.62 21.35 23.16 29.21 C 10.39 36.81 3.63 52.48 6.98 66.99 C 7.25 68.81 8.53 70.84 7.52 72.53 C 2.89 81.64 0.55 91.60 0.00 101.78 L 0.00 0.00 Z" fill="#ffffff" />
<path d="M 64.02 31.91 C 65.86 33.69 67.71 32.85 70.00 32.93 C 90.57 32.26 110.91 41.08 124.70 56.30 C 136.52 69.21 143.35 86.47 143.33 104.00 C 143.49 117.25 139.82 130.17 133.01 141.51 C 130.07 142.05 125.15 140.77 122.88 142.78 C 125.81 143.41 128.67 143.16 131.63 143.34 L 132.29 143.67 C 129.67 143.86 126.76 143.52 124.26 144.36 C 123.81 146.22 125.89 145.74 127.05 146.41 C 125.70 147.35 124.28 147.26 122.70 147.51 C 124.63 147.64 126.35 147.95 128.20 148.46 C 119.02 160.14 106.30 168.91 92.01 173.04 C 81.73 176.20 70.61 176.73 60.01 175.06 C 41.31 172.03 24.14 161.30 13.22 145.82 C 5.19 134.71 0.90 121.50 0.00 107.87 L 0.00 101.78 C 0.55 91.60 2.89 81.64 7.52 72.53 C 8.53 70.84 7.25 68.81 6.98 66.99 C 3.63 52.48 10.39 36.81 23.16 29.21 C 35.62 21.35 52.71 22.49 64.02 31.91 Z" fill="#000000" />
<path d="M 39.31 25.82 C 39.55 27.39 37.25 30.70 39.97 30.67 C 43.99 28.11 48.17 26.23 53.03 27.55 C 61.38 30.50 68.63 36.83 72.29 44.94 C 70.80 47.98 71.04 50.90 68.25 53.26 C 67.03 54.81 63.22 55.26 63.31 57.41 C 66.04 57.43 68.44 57.43 70.26 59.77 C 72.99 63.02 70.62 66.71 74.59 68.98 C 73.91 69.55 73.16 70.02 72.34 70.41 C 70.73 75.87 67.79 80.03 64.53 84.51 C 60.59 85.21 58.16 88.33 54.01 88.68 C 51.53 89.29 48.68 87.51 46.51 88.81 C 46.78 90.52 48.62 90.94 48.94 92.70 C 36.33 95.14 22.71 90.76 15.07 80.22 C 18.12 79.68 21.03 79.67 24.11 79.94 C 23.74 77.94 22.09 78.21 20.59 77.26 C 15.94 74.56 13.41 70.19 11.76 65.22 L 10.63 64.79 C 10.50 67.52 11.17 70.13 10.65 72.87 C 8.06 67.55 6.83 59.93 8.52 54.22 C 9.25 56.61 9.31 59.35 10.30 61.61 L 11.46 61.71 C 11.52 57.43 12.22 53.45 15.22 50.22 C 16.69 48.46 18.82 48.05 19.14 45.69 C 16.29 45.57 13.72 46.76 10.83 46.11 C 11.30 43.47 13.21 41.05 14.74 38.90 C 20.42 31.37 29.83 26.09 39.31 25.82 Z" fill="#fefefe" />
<path d="M 38.71 33.31 C 37.81 37.36 37.09 41.05 39.16 44.93 C 39.71 46.38 41.26 47.87 38.98 48.73 C 36.87 47.57 35.31 46.09 32.92 45.53 C 29.14 44.58 25.68 45.30 21.95 46.02 C 21.60 44.70 22.09 43.84 23.42 43.45 C 28.24 41.34 32.02 38.26 35.13 34.02 C 36.06 32.46 37.21 33.34 38.71 33.31 Z" fill="#000000" />
<path d="M 73.64 49.39 L 74.29 49.63 C 75.65 54.57 75.84 59.46 75.43 64.55 L 74.60 64.55 C 73.78 59.39 73.50 54.61 73.64 49.39 Z" fill="#fefefe" />
<path d="M 41.73 50.79 L 42.95 50.40 C 45.39 52.04 47.62 53.76 50.49 54.61 C 53.84 55.83 57.27 55.64 60.69 56.34 L 60.74 57.69 C 58.33 59.02 55.85 59.89 53.71 61.71 C 50.84 63.97 48.84 66.85 46.70 69.76 C 45.70 70.69 43.43 69.76 44.21 68.10 C 45.46 63.05 44.94 58.09 42.47 53.51 C 41.86 52.60 41.62 51.69 41.73 50.79 Z" fill="#000000" />
<path d="M 42.93 72.33 L 44.00 73.08 C 43.36 75.45 42.32 77.45 42.54 80.01 C 42.63 82.73 44.05 84.56 45.14 86.92 C 44.54 87.23 43.96 87.44 43.39 87.54 C 38.76 84.14 33.50 82.72 28.15 80.92 L 27.85 79.78 C 31.35 79.59 34.51 79.61 37.49 77.48 C 39.80 76.26 40.77 73.53 42.93 72.33 Z" fill="#000000" />
<path d="M 97.44 85.52 C 101.87 85.14 106.41 85.45 110.86 85.34 C 110.30 87.17 109.48 88.90 108.48 90.53 C 106.18 92.09 100.97 89.37 99.75 92.74 C 98.37 92.53 97.34 93.03 96.66 94.24 C 95.63 94.22 94.60 94.19 93.57 94.15 C 93.64 93.13 94.20 92.22 95.25 91.40 C 95.38 90.14 95.50 88.88 95.63 87.62 C 98.93 87.48 102.23 87.69 105.53 87.50 C 102.61 87.35 99.57 87.61 96.69 87.08 L 96.59 85.98 L 97.44 85.52 Z" fill="#dadada" />
<path d="M 121.81 85.40 C 121.46 86.35 121.10 87.30 120.74 88.24 C 118.79 87.95 116.79 87.88 114.83 87.72 L 114.24 86.88 C 115.70 84.68 119.53 85.66 121.81 85.40 Z" fill="#fefefe" />
<path d="M 133.74 85.39 C 130.51 88.62 126.70 91.27 123.35 94.38 C 122.92 95.04 122.52 95.72 122.16 96.43 C 118.12 96.56 113.85 97.02 109.86 96.21 C 110.25 95.46 110.64 94.70 111.02 93.94 C 110.11 93.80 109.19 93.66 108.27 93.52 C 109.34 93.30 110.89 93.52 111.62 92.65 C 112.55 90.88 113.33 89.12 114.83 87.72 C 116.79 87.88 118.79 87.95 120.74 88.24 C 122.47 89.01 123.45 88.48 123.68 86.66 C 127.18 85.24 130.01 85.15 133.74 85.39 Z" fill="#c9c9c9" />
<path d="M 122.27 89.97 C 120.99 90.99 119.75 92.32 118.24 92.98 C 118.60 92.08 119.00 91.19 119.43 90.32 C 120.11 88.78 121.78 87.47 122.27 89.97 Z" fill="#737373" />
<path d="M 82.81 95.27 C 82.12 96.47 81.84 98.69 80.03 98.40 C 72.69 98.31 65.34 98.15 58.00 98.15 C 53.16 98.59 49.27 95.92 44.35 96.54 C 44.72 96.22 45.08 95.91 45.45 95.59 C 50.09 95.90 54.47 94.96 59.00 94.17 C 66.57 93.00 75.59 92.22 82.81 95.27 Z" fill="#e31e24" />
<path d="M 99.75 92.74 C 102.17 92.98 104.61 93.01 107.05 93.06 C 106.79 94.38 106.12 94.89 105.03 94.62 C 102.24 94.43 99.46 94.30 96.66 94.24 C 97.34 93.03 98.37 92.53 99.75 92.74 Z" fill="#f9f9f9" />
<path d="M 93.98 94.50 C 97.88 94.58 101.76 94.49 105.65 94.79 L 105.53 96.31 C 101.13 96.75 96.39 96.25 91.93 96.15 C 92.07 94.86 92.75 94.31 93.98 94.50 Z" fill="#f9f9f9" />
<path d="M 90.73 96.99 C 95.12 96.36 99.92 96.58 104.36 96.83 L 104.76 97.95 C 103.01 100.03 98.37 97.57 96.54 99.51 C 95.09 101.73 94.01 104.17 92.57 106.40 C 89.87 106.35 87.28 106.28 84.65 105.54 C 85.48 105.27 86.31 105.00 87.14 104.73 C 86.82 104.12 86.23 103.68 85.35 103.41 C 86.61 103.21 87.87 102.98 89.13 102.73 C 88.43 102.16 87.59 101.74 86.61 101.47 C 87.78 101.23 88.95 100.98 90.11 100.71 C 89.37 99.55 87.60 99.75 86.36 99.50 C 87.83 99.31 89.29 99.09 90.74 98.85 L 90.73 96.99 Z" fill="#b4b4b4" />
<path d="M 121.80 97.16 C 122.16 98.79 117.99 98.01 117.14 97.81 C 117.27 96.55 121.00 96.65 121.80 97.16 Z" fill="#fcfcfc" />
<path d="M 109.83 97.29 C 111.49 96.91 113.91 96.51 115.37 97.56 L 115.08 99.83 L 114.05 100.59 C 111.88 100.82 109.76 100.55 107.63 100.17 C 108.35 99.20 109.09 98.24 109.83 97.29 Z" fill="#bbbbbb" />
<path d="M 48.06 99.47 C 58.76 98.90 69.57 98.50 80.29 98.81 C 80.54 100.34 79.54 102.69 78.06 103.33 C 68.03 103.11 58.01 103.15 47.99 102.96 C 44.24 101.92 41.17 101.61 37.27 101.60 C 40.76 100.21 44.46 100.75 48.06 99.47 Z" fill="#e31e24" />
<path d="M 122.09 98.37 C 123.49 98.55 124.14 102.39 121.94 102.27 C 119.96 102.44 114.95 102.79 114.05 100.59 L 115.08 99.83 C 117.17 97.97 119.50 98.49 122.09 98.37 Z" fill="#989898" />
<path d="M 108.97 101.03 C 109.82 101.09 113.13 100.33 112.80 101.93 C 111.40 102.87 108.73 101.89 107.11 101.75 C 107.35 101.25 107.97 101.01 108.97 101.03 Z" fill="#fcfcfc" />
<path d="M 110.81 103.80 C 109.50 104.49 107.52 104.02 106.10 103.84 C 105.98 102.64 111.44 102.24 110.81 103.80 Z" fill="#fcfcfc" />
<path d="M 115.87 103.09 C 117.25 102.78 118.64 102.58 120.04 102.52 C 121.88 102.61 124.22 102.48 123.17 105.17 C 121.17 104.83 119.11 105.10 117.09 104.88 C 116.68 104.28 116.27 103.69 115.87 103.09 Z" fill="#c9c9c9" />
<path d="M 54.00 104.14 C 62.01 103.99 70.09 103.54 78.10 103.89 C 78.02 105.75 77.07 107.08 76.10 108.59 C 72.79 107.55 69.52 106.69 66.00 106.91 C 63.15 106.87 60.85 108.57 58.00 108.30 C 53.06 108.12 47.93 108.51 43.06 107.72 C 40.05 106.68 37.34 106.58 34.19 106.60 C 36.75 105.06 39.25 105.98 42.00 105.15 C 45.99 103.87 49.74 104.35 54.00 104.14 Z" fill="#e31e24" />
<path d="M 102.53 105.48 C 105.52 104.73 108.42 104.18 111.53 104.54 L 111.15 105.99 C 108.19 106.34 105.27 106.04 102.34 105.56 L 102.53 105.48 Z" fill="#c9c9c9" />
<path d="M 117.09 104.88 C 119.11 105.10 121.17 104.83 123.17 105.17 L 123.08 105.73 C 121.19 106.38 118.93 106.08 116.96 106.00 C 116.02 105.89 116.06 105.51 117.09 104.88 Z" fill="#f4f4f4" />
<path d="M 59.69 108.90 C 60.08 110.33 60.52 111.71 61.04 113.09 C 55.10 113.40 48.92 113.67 43.00 113.09 C 39.64 112.23 36.58 111.75 33.11 111.58 C 35.53 110.91 38.09 111.31 40.51 110.44 C 45.24 108.85 49.64 109.84 54.47 109.25 C 56.23 108.95 57.90 108.63 59.69 108.90 Z" fill="#e31e24" />
<path d="M 99.76 111.34 C 99.74 112.67 99.18 113.38 98.06 113.48 C 93.18 113.39 88.42 113.54 83.62 112.53 C 89.01 111.03 94.22 111.00 99.76 111.34 Z" fill="#9d1519" />
<path d="M 54.01 113.80 C 57.28 113.76 60.80 113.20 64.02 113.75 C 65.71 114.43 69.31 115.92 69.29 118.05 C 60.58 118.44 51.71 118.21 43.00 118.03 C 39.60 117.07 36.65 116.71 33.12 116.60 C 35.44 115.93 37.90 116.26 40.22 115.39 C 44.79 113.70 49.34 115.04 54.01 113.80 Z" fill="#e31e24" />
<path d="M 86.11 114.24 C 89.94 113.33 94.34 113.39 98.25 113.81 C 98.17 115.35 97.37 116.49 96.73 117.84 C 91.64 118.33 86.44 118.16 81.36 117.55 C 83.05 117.21 84.47 117.32 85.49 115.69 L 86.11 114.24 Z" fill="#c1191e" />
<path d="M 70.03 118.62 C 71.41 119.07 73.45 123.23 71.03 123.42 C 63.03 123.32 54.99 123.37 47.00 123.05 C 43.69 122.15 40.71 121.49 37.24 121.56 C 40.25 120.08 43.65 120.76 46.86 119.64 C 54.48 118.72 62.35 118.83 70.03 118.62 Z" fill="#e31e24" />
<path d="M 100.72 121.51 C 100.38 123.52 99.48 125.01 98.15 126.53 C 94.86 126.37 91.62 126.11 88.37 125.54 C 90.28 125.09 91.75 125.35 92.14 122.98 C 91.21 122.82 90.29 122.66 89.36 122.50 C 93.19 122.15 96.84 121.28 100.72 121.51 Z" fill="#c2191f" />
<path d="M 119.10 121.75 C 121.35 122.22 125.32 125.59 124.12 128.07 C 116.68 128.78 107.70 128.99 100.37 127.49 C 106.78 126.28 113.15 126.66 119.62 126.50 C 113.45 126.29 107.46 126.81 101.36 125.53 C 102.65 125.20 106.14 125.16 105.88 123.21 C 104.84 122.87 103.77 122.69 102.69 122.48 C 108.10 121.57 113.64 121.17 119.10 121.75 Z" fill="#b5181c" />
<path d="M 156.03 122.22 C 159.27 121.96 162.40 121.38 165.69 121.53 C 165.65 122.89 165.71 125.98 164.09 126.46 C 161.72 126.47 159.31 126.20 156.94 125.96 C 157.81 124.26 157.46 121.59 155.10 123.03 L 153.87 124.49 C 151.96 124.40 150.20 123.80 148.35 123.38 C 150.20 124.06 152.03 124.51 153.59 125.77 C 150.42 127.29 145.77 125.80 142.34 125.53 C 143.80 125.22 145.83 125.34 146.71 123.98 C 146.20 122.43 144.67 122.85 143.34 122.46 C 147.83 122.39 151.59 120.63 156.03 122.22 Z" fill="#e8454a" />
<path d="M 180.95 121.56 C 181.72 121.45 182.02 121.89 181.85 122.89 C 180.41 124.86 178.94 127.01 177.07 128.58 C 173.43 128.48 169.91 128.54 166.37 127.48 C 167.97 127.27 169.56 127.05 171.15 126.80 C 170.97 125.63 169.27 125.81 168.33 125.49 C 169.83 125.13 172.65 124.80 173.10 123.00 C 171.84 122.83 170.57 122.66 169.31 122.49 C 173.25 122.28 176.97 121.26 180.95 121.56 Z" fill="#e8474c" />
<path d="M 200.00 121.63 L 200.00 124.28 C 197.65 124.19 195.36 123.67 193.00 123.68 C 192.07 123.51 188.15 124.12 189.11 122.24 C 192.32 120.96 196.54 122.09 200.00 121.63 Z" fill="#e31f25" />
<path d="M 78.20 122.30 C 80.68 121.59 83.55 121.78 86.09 122.00 C 85.90 123.56 85.26 125.31 84.02 126.34 C 81.64 126.53 79.30 126.32 76.94 126.01 C 77.35 124.77 77.74 123.52 78.20 122.30 Z" fill="#ba181d" />
<path d="M 129.37 122.47 C 133.02 122.17 136.55 121.53 140.23 121.97 C 140.29 123.89 139.76 125.41 138.05 126.42 C 134.78 126.52 131.58 126.10 128.36 125.56 C 130.00 125.03 131.95 125.27 132.04 123.02 C 131.21 122.84 130.38 122.67 129.55 122.50 L 129.37 122.47 Z" fill="#b8181d" />
<path d="M 55.00 124.94 C 60.54 124.73 66.76 123.94 72.17 124.82 C 73.08 126.94 72.15 129.84 71.82 132.05 C 70.20 132.85 68.91 133.62 67.00 133.38 C 62.37 133.12 57.58 133.59 53.00 132.98 C 50.11 131.88 47.25 131.80 44.20 131.54 C 47.17 131.05 50.10 131.21 52.99 130.19 C 58.19 128.50 64.37 130.61 69.31 128.52 C 64.21 128.61 59.08 128.66 53.99 128.41 C 50.67 127.48 47.72 126.64 44.22 126.52 C 47.93 126.15 51.36 125.93 55.00 124.94 Z" fill="#e31e24" />
<path d="M 187.31 125.30 C 191.06 124.35 195.40 124.72 199.26 124.85 C 199.46 127.12 198.79 129.10 198.29 131.27 C 191.85 131.14 185.70 131.86 179.32 130.52 C 182.93 130.56 185.64 128.30 187.31 125.30 Z" fill="#e53035" />
<path d="M 76.17 127.21 C 78.65 126.49 81.44 126.45 83.98 126.87 C 83.37 128.35 82.78 130.94 81.08 131.46 C 78.64 131.57 76.23 131.42 73.85 130.90 C 74.80 129.74 75.65 128.64 76.17 127.21 Z" fill="#be191e" />
<path d="M 90.24 127.22 C 92.74 126.51 95.52 126.54 98.08 126.89 C 97.90 127.70 97.67 128.49 97.39 129.27 C 96.65 132.86 91.36 130.96 88.82 130.94 C 89.21 129.67 89.66 128.42 90.24 127.22 Z" fill="#b0171c" />
<path d="M 129.87 127.18 C 132.62 126.79 135.29 126.37 138.06 126.86 C 137.89 127.69 137.67 128.49 137.38 129.27 C 136.60 132.93 131.45 130.95 128.83 130.98 C 128.93 129.17 131.97 128.98 133.33 128.49 C 132.25 128.26 129.74 128.76 129.87 127.18 Z" fill="#d31c21" />
<path d="M 144.65 127.05 C 147.17 126.80 149.49 126.38 152.00 126.90 C 156.06 127.84 160.14 126.18 164.31 126.77 C 164.30 128.22 164.22 129.68 164.07 131.13 C 161.52 131.84 158.53 131.23 155.93 130.95 C 156.28 130.02 156.62 129.10 156.96 128.17 C 153.87 126.92 151.98 128.46 149.00 128.52 C 147.64 128.37 144.46 129.26 144.65 127.05 Z" fill="#e73e43" />
<path d="M 106.02 128.82 C 107.20 128.65 110.56 127.99 110.32 129.98 C 109.42 132.70 104.16 130.95 101.98 130.98 C 101.61 129.33 104.93 129.28 106.02 128.82 Z" fill="#dc1d23" />
<path d="M 121.00 128.51 C 122.78 128.45 125.87 128.47 124.14 131.11 C 121.83 131.68 119.21 131.26 116.87 131.01 C 116.93 128.67 119.16 128.50 121.00 128.51 Z" fill="#de1d23" />
<path d="M 151.81 129.06 C 151.28 129.88 150.74 130.69 150.16 131.49 C 147.81 131.25 145.35 131.35 143.05 130.83 L 143.02 129.91 C 145.76 129.40 149.15 127.94 151.81 129.06 Z" fill="#e63339" />
<path d="M 176.38 128.75 C 176.54 129.78 176.09 130.67 175.03 131.42 C 172.67 131.60 170.21 131.52 167.89 131.07 L 167.85 129.87 C 170.66 129.00 173.41 128.26 176.38 128.75 Z" fill="#e4262c" />
<path d="M 195.74 129.32 C 195.05 130.43 193.13 130.43 192.10 129.85 C 192.12 128.07 194.77 128.88 195.74 129.32 Z" fill="#e94f54" />
<path d="M 74.24 132.38 C 75.14 132.16 76.06 132.02 77.01 131.96 C 77.74 132.02 81.09 131.37 80.69 132.80 C 79.01 133.70 76.12 133.01 74.23 132.84 L 74.24 132.38 Z" fill="#e31e24" />
<path d="M 84.38 132.47 C 88.05 132.13 91.56 131.46 95.27 131.81 C 95.57 133.46 94.59 135.66 93.05 136.41 C 91.37 136.48 89.67 136.42 88.00 136.23 C 85.25 135.96 87.17 134.24 88.02 133.09 C 86.87 132.89 85.71 132.69 84.55 132.49 L 84.38 132.47 Z" fill="#bc181d" />
<path d="M 98.51 132.43 C 102.06 131.84 105.41 131.29 109.01 131.90 C 108.49 133.30 108.15 135.20 107.02 136.23 C 103.66 136.90 99.78 135.87 96.40 135.52 C 99.95 134.50 102.76 133.16 106.63 133.51 C 103.80 133.47 101.09 133.21 98.34 132.53 L 98.51 132.43 Z" fill="#ba181d" />
<path d="M 124.09 131.90 L 124.09 133.06 C 120.45 133.84 116.28 133.12 112.64 132.50 C 115.84 132.02 120.81 131.18 124.09 131.90 Z" fill="#b6181d" />
<path d="M 126.92 132.26 C 129.72 131.74 132.43 131.53 135.28 131.82 C 135.46 133.47 134.20 136.97 132.01 136.43 C 130.56 136.15 126.70 136.89 126.41 135.01 C 127.56 133.13 130.72 133.75 132.65 133.50 C 130.93 133.23 127.99 133.87 126.92 132.26 Z" fill="#d61c22" />
<path d="M 141.83 132.13 C 144.58 131.82 147.31 131.56 150.07 131.88 C 149.56 133.37 148.84 136.20 147.09 136.58 C 145.12 136.58 142.84 136.82 140.98 136.09 C 140.61 132.74 145.61 133.81 147.65 133.50 C 146.27 133.18 141.86 134.09 141.83 132.13 Z" fill="#e52f35" />
<path d="M 152.37 132.47 C 154.58 132.18 156.79 131.84 159.00 131.67 C 160.41 131.78 163.61 130.86 163.36 133.19 C 159.58 133.64 156.23 133.39 152.54 132.51 L 152.37 132.47 Z" fill="#e94c50" />
<path d="M 166.11 132.32 C 168.17 131.86 170.78 131.76 172.84 132.22 C 172.81 132.90 172.22 133.22 171.06 133.15 C 169.97 132.95 166.38 133.72 166.11 132.32 Z" fill="#e31e24" />
<path d="M 181.13 132.23 C 183.80 131.57 186.66 131.50 189.38 131.90 C 188.77 133.49 187.68 135.63 186.03 136.31 C 183.67 136.39 181.27 136.35 178.94 135.97 L 178.61 135.08 C 179.79 134.22 180.68 133.71 181.13 132.23 Z" fill="#e73f44" />
<path d="M 190.68 132.09 C 193.18 131.71 195.61 131.51 198.13 131.75 C 198.09 133.46 198.08 135.03 197.25 136.57 C 194.87 136.35 192.41 136.46 190.05 136.03 C 189.15 133.51 194.18 134.54 195.51 134.38 L 195.52 133.62 C 194.10 133.47 190.55 134.34 190.68 132.09 Z" fill="#e4272d" />
<path d="M 37.00 134.43 C 48.06 134.53 59.17 133.25 70.18 133.81 C 69.09 137.93 66.25 140.73 63.00 143.28 C 51.70 143.16 40.28 143.43 28.99 143.06 C 25.72 142.05 22.63 141.83 19.25 141.48 C 23.16 141.31 26.68 140.47 30.45 139.54 C 42.03 138.21 53.96 138.96 65.64 138.50 C 54.76 138.20 43.87 138.34 33.00 138.31 C 29.37 137.92 26.18 136.44 22.41 136.67 L 22.41 136.33 C 27.64 136.72 31.82 133.89 37.00 134.43 Z" fill="#e31e24" />
<path d="M 79.97 133.92 C 80.51 136.17 78.85 136.57 77.00 136.39 C 75.52 136.18 72.81 136.75 72.22 135.02 C 73.67 133.00 77.89 133.23 79.97 133.92 Z" fill="#dc1d23" />
<path d="M 123.93 133.93 C 124.05 135.65 122.56 136.50 121.00 136.34 C 119.34 136.13 116.23 136.64 115.27 135.00 C 117.05 133.12 121.59 133.44 123.93 133.93 Z" fill="#da1d22" />
<path d="M 162.97 133.86 C 164.21 136.63 160.78 136.59 159.00 136.35 C 157.53 136.42 156.49 135.98 155.90 135.02 C 157.28 133.25 161.00 133.33 162.97 133.86 Z" fill="#e52f34" />
<path d="M 173.15 133.75 C 172.31 135.34 170.94 138.03 169.08 138.46 C 163.08 137.99 157.28 138.88 151.33 137.51 C 157.13 136.13 162.80 136.88 168.65 136.52 C 167.29 136.18 163.90 136.91 163.92 134.89 C 166.98 133.92 169.91 133.05 173.15 133.75 Z" fill="#e63338" />
<path d="M 69.92 137.27 C 72.74 136.75 76.00 136.28 78.82 136.94 L 78.75 137.82 L 78.03 138.35 C 75.61 138.22 71.84 138.94 69.92 137.27 Z" fill="#d71c22" />
<path d="M 82.60 137.50 C 84.73 137.09 86.83 136.72 89.00 136.63 C 90.07 136.78 93.67 136.00 92.96 138.00 C 89.90 138.96 85.80 138.05 82.65 137.51 L 82.60 137.50 Z" fill="#bb191e" />
<path d="M 95.54 137.48 C 97.68 137.18 99.85 136.84 102.00 136.67 C 103.20 136.77 106.81 135.91 106.12 138.11 C 102.81 138.99 98.72 138.04 95.36 137.49 L 95.54 137.48 Z" fill="#b8181d" />
<path d="M 110.55 137.48 C 114.45 136.97 118.29 136.59 122.23 136.87 C 122.79 139.33 119.83 142.08 118.04 143.43 C 109.87 143.12 101.41 143.93 93.35 142.49 C 100.61 141.25 108.19 141.56 115.54 141.55 C 114.46 141.20 111.31 141.77 111.91 139.99 C 113.74 137.91 117.99 138.91 120.55 138.50 C 117.08 138.44 113.77 138.17 110.36 137.48 L 110.55 137.48 Z" fill="#e21e24" />
<path d="M 124.83 137.13 C 127.41 136.84 130.37 136.28 132.90 136.94 L 132.91 137.99 L 132.06 138.41 C 130.34 138.15 125.48 139.03 124.83 137.13 Z" fill="#e11e24" />
<path d="M 173.33 137.49 C 181.07 136.43 189.28 136.30 197.04 136.92 L 197.22 138.35 C 189.39 138.41 181.29 138.82 173.54 137.52 L 173.33 137.49 Z" fill="#e53136" />
<path d="M 77.01 138.64 C 78.07 138.84 78.38 139.62 77.95 140.97 C 76.12 141.43 71.20 142.00 70.25 139.99 C 71.47 138.16 75.06 138.72 77.01 138.64 Z" fill="#db1d22" />
<path d="M 91.93 138.97 C 92.46 141.00 90.75 141.74 89.00 141.56 C 87.41 141.37 84.97 141.81 84.25 139.99 C 85.76 138.27 89.87 138.47 91.93 138.97 Z" fill="#d71c22" />
<path d="M 105.11 138.91 C 105.91 141.27 103.70 141.41 102.00 141.33 C 100.46 141.17 98.08 141.66 97.27 139.99 C 98.94 138.17 102.91 138.37 105.11 138.91 Z" fill="#db1d23" />
<path d="M 124.85 139.18 C 126.23 138.88 127.61 138.70 129.00 138.62 C 130.57 138.49 133.58 138.67 132.09 141.00 C 130.06 141.39 125.21 142.18 124.85 139.18 Z" fill="#da1d22" />
<path d="M 146.29 138.73 C 146.63 139.83 146.23 140.75 145.08 141.50 C 143.33 141.31 139.76 141.98 139.00 140.00 C 140.08 137.99 144.38 138.29 146.29 138.73 Z" fill="#e4242a" />
<path d="M 151.38 139.66 C 157.31 138.42 163.11 138.51 169.13 138.89 C 168.53 140.65 167.33 142.00 166.02 143.28 C 161.76 143.56 157.29 143.25 153.02 142.87 C 153.40 142.18 153.77 141.49 154.14 140.80 C 153.27 140.64 152.40 140.48 151.53 140.31 L 151.38 139.66 Z" fill="#e6363b" />
<path d="M 174.42 139.29 C 181.17 138.18 188.20 138.77 195.03 138.57 C 197.15 138.56 198.29 140.38 196.09 141.54 C 191.75 141.56 187.35 140.79 183.02 141.07 C 181.86 141.67 181.23 142.93 180.08 143.58 C 176.48 143.53 172.91 143.12 169.37 142.52 C 171.76 141.90 174.62 142.75 174.42 139.29 Z" fill="#e9565b" />
<path d="M 66.54 142.49 C 71.35 141.44 76.12 141.66 81.00 141.48 C 83.65 141.49 86.50 141.29 89.08 141.94 C 89.89 144.04 86.11 143.16 85.00 143.35 C 78.59 143.08 72.52 143.70 66.36 142.51 L 66.54 142.49 Z" fill="#d01b21" />
<path d="M 133.01 141.51 C 136.92 141.47 141.04 141.18 144.88 141.91 L 144.84 142.93 L 144.03 143.40 C 139.90 143.39 135.77 143.12 131.63 143.34 C 128.67 143.16 125.81 143.41 122.88 142.78 C 125.15 140.77 130.07 142.05 133.01 141.51 Z" fill="#e01f24" />
<path d="M 185.54 142.49 C 188.82 141.96 192.84 140.97 196.10 141.89 L 196.35 143.17 C 192.64 143.62 189.01 143.15 185.35 142.51 L 185.54 142.49 Z" fill="#e8484d" />
<path d="M 29.00 144.41 C 39.64 144.20 50.49 143.37 61.12 143.92 C 60.88 144.63 60.36 145.17 59.56 145.56 C 50.92 150.17 39.46 149.59 29.98 148.67 C 25.52 147.48 21.79 146.66 17.11 146.59 C 19.51 145.84 22.07 146.44 24.49 145.41 C 26.01 144.80 27.33 144.36 29.00 144.41 Z" fill="#e31e24" />
<path d="M 67.00 144.51 C 74.25 143.40 81.84 143.55 89.16 143.86 C 88.73 146.28 85.22 147.73 83.11 148.30 C 77.87 149.71 73.52 148.09 68.39 147.51 C 73.08 146.33 77.71 146.57 82.49 146.50 C 76.95 146.26 72.13 147.16 66.91 144.65 L 66.70 144.55 L 67.00 144.51 Z" fill="#ba181d" />
<path d="M 91.54 144.49 C 99.72 143.45 108.08 143.46 116.30 143.86 C 116.41 144.79 115.97 145.51 115.01 146.01 C 110.14 149.04 105.44 147.99 100.00 148.20 C 96.76 148.30 93.58 147.98 90.38 147.52 C 91.86 147.19 95.11 147.36 94.85 145.09 C 93.73 144.75 92.57 144.55 91.37 144.49 L 91.54 144.49 Z" fill="#bd191e" />
<path d="M 124.26 144.36 C 126.76 143.52 129.67 143.86 132.29 143.67 C 135.98 143.84 139.66 143.52 143.35 143.85 C 143.51 145.41 141.91 146.03 140.86 146.81 C 137.33 149.10 132.21 148.84 128.20 148.46 C 126.35 147.95 124.63 147.64 122.70 147.51 C 124.28 147.26 125.70 147.35 127.05 146.41 C 125.89 145.74 123.81 146.22 124.26 144.36 Z" fill="#e2262c" />
<path d="M 152.98 144.22 C 156.96 143.65 161.19 143.46 165.20 143.90 C 164.63 145.42 163.54 147.47 162.00 148.13 C 158.65 148.35 155.28 148.27 151.94 147.90 C 152.99 146.45 153.01 146.00 152.98 144.22 Z" fill="#e74146" />
<path d="M 167.54 144.45 C 171.61 144.20 175.28 143.26 179.37 143.77 C 179.64 145.37 177.99 146.86 176.97 147.93 C 173.27 148.71 169.06 147.95 165.33 147.54 C 167.05 147.08 169.89 147.34 170.14 145.00 C 169.21 144.84 168.28 144.68 167.35 144.51 L 167.54 144.45 Z" fill="#e8484d" />
<path d="M 184.29 144.41 C 185.41 144.33 186.54 144.24 187.66 144.14 C 189.89 146.25 193.11 144.92 196.05 146.09 C 195.93 146.91 195.80 147.73 195.67 148.54 C 193.15 148.46 190.45 148.74 188.00 148.15 C 190.29 148.15 192.73 148.35 194.98 147.84 C 195.75 145.95 191.98 146.64 191.00 146.54 C 189.35 146.65 187.98 146.67 186.71 147.86 C 185.91 147.77 185.12 147.69 184.32 147.62 C 185.56 146.92 186.74 146.80 187.14 145.24 C 186.29 144.99 185.44 144.74 184.59 144.50 L 184.29 144.41 Z" fill="#f18f92" />
<path d="M 187.66 144.14 C 190.50 143.83 193.17 143.41 196.02 143.78 L 196.05 146.09 C 193.11 144.92 189.89 146.25 187.66 144.14 Z" fill="#e4242a" />
<path d="M 191.00 146.54 C 191.98 146.64 195.75 145.95 194.98 147.84 C 192.73 148.35 190.29 148.15 188.00 148.15 L 186.71 147.86 C 187.98 146.67 189.35 146.65 191.00 146.54 Z" fill="#e42328" />
<path d="M 111.41 150.41 C 111.91 151.53 112.39 152.67 112.87 153.81 C 111.57 154.37 108.33 153.75 108.23 155.56 C 109.22 155.73 110.21 155.89 111.19 156.05 C 110.73 158.76 107.81 156.21 106.97 158.84 C 108.04 158.92 109.11 159.00 110.18 159.07 L 109.75 160.74 C 106.18 160.84 102.62 160.62 99.05 160.84 C 99.00 158.27 100.52 155.67 101.36 153.27 L 103.15 152.83 C 103.05 154.90 101.94 156.91 101.15 158.82 C 102.44 158.95 103.72 159.09 105.00 159.24 C 105.75 157.24 106.50 155.23 107.28 153.23 C 109.36 152.89 109.73 150.77 111.41 150.41 Z" fill="#a6a6a6" />
<path d="M 45.11 153.96 C 44.33 155.91 43.51 157.85 42.69 159.79 C 41.31 161.54 41.29 160.63 40.74 159.01 C 39.82 160.05 38.88 160.50 37.95 160.35 C 37.91 159.23 37.84 158.12 37.76 157.01 C 36.83 158.19 36.71 160.53 34.88 160.43 C 35.00 157.90 36.54 155.49 37.28 153.07 C 38.21 152.99 39.14 152.94 40.07 152.90 C 39.94 154.51 39.74 156.10 39.45 157.69 C 40.70 156.18 41.70 154.47 43.00 153.00 C 44.02 152.12 45.15 152.41 45.11 153.96 Z" fill="#bdbdbd" />
<path d="M 78.58 152.38 C 79.21 153.75 79.03 155.49 79.22 156.98 C 81.00 155.20 81.22 152.37 84.23 152.82 C 84.21 155.47 82.57 158.19 81.55 160.61 C 80.70 160.91 80.09 160.43 79.73 159.18 C 78.98 160.00 78.29 160.52 77.26 160.96 C 77.09 159.93 76.92 158.90 76.73 157.88 C 75.56 159.03 76.25 160.78 74.26 160.80 C 73.43 159.74 74.63 158.07 74.94 156.96 C 75.99 154.91 75.83 152.74 78.58 152.38 Z" fill="#b1b1b1" />
<path d="M 86.49 152.62 C 87.99 152.50 89.43 152.69 90.87 153.07 C 90.98 154.09 91.09 155.11 91.21 156.13 C 93.17 153.62 95.45 151.12 98.81 153.18 C 100.44 156.74 96.98 161.64 93.03 160.90 C 90.88 160.17 91.12 158.88 90.78 156.94 C 89.26 157.72 87.84 158.03 86.14 158.20 C 85.17 159.41 85.08 160.86 83.23 160.74 C 83.92 157.98 84.93 155.00 86.49 152.62 Z" fill="#b4b4b4" />
<path d="M 50.28 152.83 C 50.92 155.18 50.22 157.94 50.03 160.33 C 47.19 158.61 46.62 158.47 44.16 160.77 C 43.10 159.32 45.97 156.10 47.33 155.62 L 47.52 157.82 C 50.14 157.49 48.36 155.29 47.54 154.06 C 48.23 153.16 49.15 152.75 50.28 152.83 Z" fill="#e6e6e6" />
<path d="M 59.97 154.51 C 60.57 153.79 61.24 153.20 61.99 152.74 C 64.16 152.72 62.27 155.08 61.97 156.06 C 62.41 157.03 62.86 157.99 63.32 158.95 C 65.38 157.57 65.06 153.88 67.00 152.80 C 69.54 152.41 66.66 156.76 67.06 158.00 C 68.08 157.14 68.95 156.19 70.13 155.63 C 70.29 156.92 70.79 157.60 71.62 157.68 C 72.02 155.89 69.95 154.45 71.11 153.07 L 73.29 152.76 C 74.01 155.14 73.36 157.91 73.03 160.34 C 72.04 159.88 71.03 159.45 70.01 159.04 C 68.96 159.52 68.03 160.33 67.10 161.01 C 64.81 159.55 63.48 162.06 60.97 160.18 C 59.08 160.97 57.22 160.79 55.22 160.74 C 55.35 159.94 55.47 159.14 55.60 158.34 C 54.28 158.17 53.30 157.59 52.65 156.60 C 53.97 156.01 55.41 155.72 56.97 155.72 C 56.66 152.21 54.01 157.34 52.75 154.35 C 53.91 151.88 58.74 152.24 59.97 154.51 Z" fill="#757575" />
<path d="M 87.29 154.30 C 89.11 153.13 89.93 155.94 87.99 156.42 C 86.89 156.14 86.66 155.44 87.29 154.30 Z" fill="#202020" />
<path d="M 96.80 154.18 C 98.16 156.82 96.07 159.77 93.02 158.98 C 92.43 156.99 94.59 153.41 96.80 154.18 Z" fill="#090909" />
</svg>