<?xml version="1.0" encoding="UTF-8" standalone="no"?>
<!DOCTYPE svg PUBLIC "-//W3C//DTD SVG 1.1//EN" "http://www.w3.org/Graphics/SVG/1.1/DTD/svg11.dtd">
<svg xmlns="http://www.w3.org/2000/svg" version="1.1" viewBox="0 0 200 200" width="200.0pt" height="200.0pt">
<path d="M 0.00 0.00 L 200.00 0.00 L 200.00 200.00 L 0.00 200.00 L 0.00 0.00 Z" fill="#ffffff" />
<path d="M 84.52 3.79 C 103.52 0.79 123.31 3.34 140.81 11.38 C 157.58 19.03 172.00 31.54 182.10 46.95 C 199.70 73.48 202.81 108.45 190.63 137.81 C 179.02 166.18 153.66 188.23 123.84 195.47 C 102.00 200.88 78.40 198.64 58.07 188.94 C 32.17 176.67 12.31 152.79 5.29 124.98 C -0.48 102.48 1.88 78.05 12.23 57.21 C 25.98 29.08 53.51 8.53 84.52 3.79 Z" fill="#083251" />
<path d="M 89.15 6.11 C 103.05 4.50 117.29 5.98 130.54 10.48 C 148.68 16.61 164.85 28.35 176.26 43.73 C 193.88 67.10 199.60 98.42 191.44 126.53 C 186.12 145.31 174.78 162.36 159.52 174.53 C 146.72 184.83 131.24 191.73 115.00 194.27 C 99.30 196.79 82.98 195.25 68.01 189.87 C 52.29 184.23 38.13 174.37 27.40 161.57 C 16.01 148.10 8.54 131.44 6.07 113.99 C 3.98 98.97 5.36 83.50 10.39 69.18 C 16.11 52.74 26.48 37.94 39.98 26.95 C 53.93 15.48 71.19 8.15 89.15 6.11 Z" fill="#ffffff" />
<path d="M 93.71 9.90 C 94.31 9.55 94.92 9.21 95.53 8.89 C 95.84 11.92 96.27 15.04 96.07 18.09 L 94.83 19.02 C 93.40 16.44 93.58 12.80 93.71 9.90 Z" fill="#083251" />
<path d="M 107.32 11.27 C 104.81 11.73 100.27 9.97 100.26 14.00 C 100.62 17.17 103.14 16.68 105.50 16.13 C 104.19 15.31 102.89 14.49 101.58 13.67 C 103.45 13.58 105.32 13.53 107.20 13.50 C 107.06 15.04 106.91 16.59 106.77 18.14 C 104.35 18.33 101.55 19.20 99.49 17.44 C 97.96 16.18 97.88 13.92 98.28 12.12 C 99.34 8.52 105.56 8.07 107.32 11.27 Z" fill="#083251" />
<path d="M 89.53 10.59 C 91.68 12.10 90.44 14.23 90.04 16.27 C 91.12 16.84 92.20 17.42 93.27 18.00 C 92.24 18.35 91.22 18.71 90.15 18.89 C 88.92 18.07 87.82 17.02 86.71 16.04 C 86.18 17.62 85.58 19.18 84.93 20.71 C 83.84 17.50 83.36 14.19 83.01 10.83 C 85.01 10.57 87.63 9.79 89.53 10.59 Z" fill="#083251" />
<path d="M 112.60 10.38 C 113.28 10.29 113.96 10.26 114.66 10.29 C 116.05 13.46 116.55 17.14 116.98 20.56 C 115.91 19.66 114.87 18.73 113.85 17.77 C 113.12 17.63 112.38 17.49 111.65 17.34 C 110.38 18.04 109.09 18.68 107.79 19.29 C 109.07 16.19 110.60 13.09 112.60 10.38 Z" fill="#083251" />
<path d="M 85.78 12.31 C 86.72 12.24 87.66 12.23 88.62 12.30 C 89.37 14.67 86.83 14.19 85.36 14.98 C 85.48 14.09 85.62 13.19 85.78 12.31 Z" fill="#ffffff" />
<path d="M 113.24 13.21 C 114.79 13.45 114.58 15.90 113.08 16.09 C 111.49 15.82 111.82 13.48 113.24 13.21 Z" fill="#ffffff" />
<path d="M 73.62 16.96 C 72.02 19.02 69.80 19.54 67.50 20.48 C 39.88 31.48 19.09 57.49 14.81 86.97 C 14.32 89.36 14.59 91.59 12.66 93.34 C 14.28 64.71 31.95 37.85 56.86 23.90 C 62.10 21.05 67.73 18.13 73.62 16.96 Z" fill="#083251" />
<path d="M 126.77 17.03 C 131.59 17.85 136.23 20.26 140.59 22.41 C 166.90 35.95 185.91 63.68 187.50 93.40 C 185.56 91.61 185.86 89.41 185.38 87.01 C 181.07 57.21 159.90 30.96 131.84 20.15 C 130.02 19.29 127.66 19.03 126.77 17.03 Z" fill="#083251" />
<path d="M 127.99 26.95 C 142.40 32.37 154.90 42.13 163.96 54.55 C 145.53 44.63 124.94 38.96 104.00 38.40 C 80.46 37.68 56.89 43.33 36.22 54.60 C 45.81 41.34 59.44 31.13 74.99 25.95 C 92.10 20.17 111.12 20.52 127.99 26.95 Z" fill="#083251" />
<path d="M 168.80 62.65 C 167.09 77.47 163.69 91.84 158.69 105.90 C 154.22 103.73 149.71 101.74 145.08 99.95 C 144.16 91.23 140.81 83.53 136.87 75.82 C 137.30 71.27 139.02 66.91 136.38 62.58 C 134.32 60.83 131.45 60.65 129.58 58.41 C 123.84 52.63 116.55 50.13 108.73 48.56 C 108.22 49.39 107.70 50.23 107.19 51.06 C 106.98 50.07 106.76 49.07 106.55 48.08 C 102.39 47.59 98.22 47.58 94.03 47.69 C 94.62 49.11 95.30 50.49 95.89 51.91 C 94.26 50.64 92.64 49.36 91.02 48.07 C 88.03 49.36 85.33 50.78 82.01 51.05 C 77.20 51.22 72.63 54.85 68.92 57.65 C 68.66 58.57 68.37 59.46 68.04 60.34 C 66.49 61.17 63.86 61.41 62.78 62.83 C 60.48 67.50 61.06 72.41 63.53 76.87 C 59.34 83.97 56.80 91.62 55.56 99.76 C 50.77 101.62 46.11 103.67 41.48 105.90 C 36.51 91.85 33.09 77.47 31.38 62.65 C 71.87 35.92 128.30 35.93 168.80 62.65 Z" fill="#083251" />
<path d="M 97.73 50.30 C 100.15 50.09 102.62 50.16 105.05 50.15 C 105.26 52.50 105.47 54.86 105.70 57.21 C 107.85 55.31 109.67 51.13 113.00 52.23 C 118.99 53.03 123.57 56.36 127.71 60.54 C 124.52 61.28 121.42 62.18 118.36 63.38 C 119.19 64.07 119.97 64.83 120.86 65.43 C 123.56 63.62 126.00 62.05 129.23 61.32 C 127.57 62.96 125.83 64.52 124.14 66.14 C 133.43 74.93 140.36 85.55 141.49 98.59 C 137.98 93.47 134.74 88.79 128.84 86.22 C 124.52 87.97 120.74 92.08 117.31 95.13 C 118.52 89.52 121.14 86.11 125.62 82.71 C 124.73 80.82 123.63 78.87 123.18 76.82 C 123.17 75.48 124.11 74.11 124.59 72.87 C 123.58 73.85 122.56 74.82 121.54 75.79 C 122.09 77.88 122.73 79.93 123.46 81.96 C 120.03 85.49 116.70 89.11 113.35 92.71 C 112.08 90.50 110.77 88.31 109.40 86.17 C 109.78 87.93 110.18 89.68 110.57 91.44 C 110.05 91.33 109.54 91.23 109.02 91.12 C 108.20 88.96 107.30 86.84 106.30 84.77 C 106.50 86.45 106.73 88.14 106.96 89.82 C 102.01 89.78 97.05 89.78 92.09 89.82 C 92.31 88.16 92.51 86.49 92.71 84.83 C 91.42 87.42 90.37 90.04 89.54 92.82 C 92.29 92.88 95.71 91.60 97.48 94.41 C 98.22 96.86 98.24 99.60 98.45 102.13 C 95.29 104.94 91.81 106.95 87.97 108.65 C 86.51 105.15 84.80 101.96 82.54 98.91 C 84.40 97.01 86.50 95.19 88.04 93.02 C 88.97 90.87 89.24 88.37 89.70 86.08 C 88.36 88.27 87.12 90.51 85.93 92.79 C 82.71 89.04 79.39 85.41 75.77 82.06 C 76.35 80.23 77.11 78.36 77.33 76.45 C 76.50 75.15 75.26 74.08 74.16 73.01 C 74.81 74.09 75.49 75.16 76.17 76.23 C 75.39 78.43 74.54 80.60 73.65 82.77 C 77.74 86.26 81.05 90.06 82.12 95.53 C 78.87 92.79 76.10 89.56 72.66 87.29 C 71.55 86.68 70.85 85.80 69.56 86.60 C 65.64 88.71 62.57 91.92 59.42 94.97 C 61.79 84.09 67.16 74.42 74.85 66.41 C 73.28 64.64 71.60 62.99 69.92 61.33 C 72.87 62.32 75.46 63.51 78.09 65.17 C 78.99 64.58 79.88 63.98 80.77 63.39 C 77.44 62.01 74.02 61.10 70.52 60.26 C 73.70 56.95 76.89 53.92 81.85 54.26 C 83.98 55.65 85.79 57.56 87.74 59.19 C 86.81 57.06 85.81 54.95 84.81 52.85 C 86.92 52.16 89.03 51.47 91.13 50.77 C 93.87 53.14 96.53 55.61 99.30 57.95 C 98.80 55.40 98.11 52.87 97.73 50.30 Z" fill="#083251" />
<path d="M 86.51 62.77 C 89.84 63.02 93.17 63.27 96.48 63.80 C 101.25 64.75 106.16 63.21 111.09 63.33 C 107.32 64.43 103.57 65.48 99.95 67.02 C 95.58 65.18 91.17 63.96 86.49 63.18 L 86.50 63.01 L 86.51 62.77 Z" fill="#ffffff" />
<path d="M 63.91 62.79 C 66.91 63.36 69.00 64.24 71.53 65.91 C 69.56 68.30 67.57 70.66 65.50 72.96 C 65.46 70.28 65.57 67.64 65.87 64.98 C 65.05 66.38 64.20 67.77 63.31 69.13 C 63.43 67.00 63.63 64.89 63.91 62.79 Z" fill="#083251" />
<path d="M 135.05 62.89 C 135.73 65.27 135.89 67.63 135.82 70.10 C 134.79 68.42 133.96 66.66 133.15 64.87 C 133.34 67.00 133.50 69.14 133.62 71.28 C 131.69 69.53 129.68 67.81 127.94 65.86 C 129.94 63.91 132.40 63.39 135.05 62.89 Z" fill="#083251" />
<path d="M 39.87 64.54 C 40.77 64.33 41.69 64.14 42.61 63.99 C 42.67 65.18 42.73 66.37 42.79 67.56 C 41.82 67.41 40.85 67.27 39.88 67.11 C 39.84 66.25 39.82 65.39 39.87 64.54 Z" fill="#ffffff" />
<path d="M 153.63 64.10 C 154.00 65.03 154.35 65.97 154.68 66.91 C 156.11 66.53 157.56 66.20 158.99 65.80 C 157.09 67.79 156.26 70.20 153.01 69.68 C 150.89 69.64 150.56 68.71 149.74 66.99 C 150.76 66.77 151.78 66.57 152.81 66.39 C 153.08 65.63 153.35 64.86 153.63 64.10 Z" fill="#ffffff" />
<path d="M 27.73 69.67 L 28.04 70.75 C 32.55 96.68 40.90 121.42 55.61 143.41 C 64.75 157.17 76.35 168.96 89.83 178.47 C 72.60 176.10 56.45 168.18 44.23 155.77 C 33.50 144.93 25.99 130.98 23.03 116.00 C 19.90 100.53 21.58 84.21 27.73 69.67 Z" fill="#083251" />
<path d="M 48.10 69.23 C 47.27 70.17 46.50 71.15 45.79 72.17 C 45.85 74.18 47.28 78.48 49.55 75.19 L 47.84 72.82 C 48.94 72.12 50.06 71.43 51.17 70.76 L 51.66 70.66 C 53.56 72.31 51.67 74.78 49.67 75.26 C 49.92 76.53 50.16 77.80 50.37 79.08 C 49.69 79.71 48.99 80.34 48.28 80.94 C 47.72 80.15 47.15 79.36 46.58 78.58 C 45.20 77.34 43.85 76.05 42.46 74.82 C 44.49 73.05 45.66 70.38 48.10 69.23 Z" fill="#ffffff" />
<path d="M 171.94 70.48 L 172.74 70.12 C 177.89 83.12 179.90 97.10 177.99 111.00 C 175.47 130.21 165.51 148.25 150.63 160.66 C 139.17 170.40 125.11 176.36 110.27 178.52 C 117.82 173.07 124.98 167.17 131.27 160.28 C 144.78 145.72 154.71 128.30 161.72 109.79 C 166.45 97.11 170.10 83.90 171.94 70.48 Z" fill="#083251" />
<path d="M 154.09 70.76 C 154.91 71.82 155.75 72.92 156.50 74.02 C 155.80 75.12 154.95 76.13 154.21 77.20 C 153.38 76.74 152.55 76.28 151.72 75.82 C 150.31 74.06 150.31 73.80 152.11 72.38 C 152.77 71.84 153.43 71.30 154.09 70.76 Z" fill="#ffffff" />
<path d="M 53.64 75.40 C 54.43 76.67 53.27 77.92 51.93 77.87 C 51.65 76.90 52.26 74.57 53.64 75.40 Z" fill="#ffffff" />
<path d="M 146.10 76.03 C 148.73 77.16 151.10 78.95 153.78 79.92 C 156.43 78.82 158.88 77.18 161.38 75.77 C 161.47 76.99 161.57 78.21 161.67 79.43 L 159.82 79.36 C 160.05 80.25 160.28 81.13 160.52 82.02 C 161.91 83.68 162.69 84.33 162.25 86.57 C 161.06 86.48 159.88 86.39 158.70 86.30 C 157.41 84.62 156.05 82.20 154.04 81.37 C 151.94 81.19 150.26 84.18 149.12 85.62 C 148.31 85.72 147.50 85.82 146.70 85.92 C 147.59 85.54 148.49 85.17 149.39 84.81 C 148.65 84.00 147.90 83.20 147.16 82.40 C 146.41 83.72 145.69 85.06 144.93 86.38 C 145.21 85.10 145.52 83.83 145.84 82.56 C 148.19 82.23 150.46 81.76 152.75 81.14 C 151.80 80.34 150.84 79.54 149.88 78.75 C 149.17 79.07 148.47 79.40 147.77 79.74 C 146.97 79.56 146.16 79.40 145.35 79.26 C 145.60 78.18 145.79 77.10 146.10 76.03 Z" fill="#ffffff" />
<path d="M 80.11 77.29 C 84.01 77.05 87.97 77.29 91.87 77.44 C 92.12 79.85 92.21 82.23 92.18 84.65 C 88.64 81.12 83.72 80.52 80.11 77.29 Z" fill="#ffffff" />
<path d="M 107.56 77.57 C 111.40 77.06 115.35 77.17 119.21 77.27 C 115.49 80.54 110.68 80.88 107.32 84.81 C 107.16 82.30 106.80 80.03 107.56 77.57 Z" fill="#ffffff" />
<path d="M 159.04 79.50 C 159.33 80.46 159.24 81.29 158.79 81.98 C 158.00 81.73 155.38 81.51 155.47 80.38 C 156.29 79.44 157.88 79.30 159.04 79.50 Z" fill="#083251" />
<path d="M 42.29 83.31 C 42.79 84.11 43.29 84.91 43.79 85.71 L 45.09 84.08 C 48.20 83.80 51.78 83.41 54.85 84.12 C 54.76 84.89 54.62 85.65 54.44 86.39 C 49.89 86.33 45.35 86.13 40.80 86.36 C 41.29 85.34 41.77 84.32 42.29 83.31 Z" fill="#ffffff" />
<path d="M 159.88 82.95 C 160.91 83.47 161.30 84.24 161.06 85.24 C 159.17 85.95 157.89 83.96 159.88 82.95 Z" fill="#083251" />
<path d="M 42.87 88.13 C 43.55 88.02 44.18 88.28 44.75 88.91 C 44.57 90.04 43.90 90.81 42.75 91.21 C 42.61 90.38 42.11 88.74 42.87 88.13 Z" fill="#ffffff" />
<path d="M 45.20 88.40 C 47.73 88.45 50.26 88.49 52.78 88.55 C 53.15 89.25 53.50 89.96 53.83 90.68 C 52.01 90.49 50.19 90.36 48.37 90.16 C 47.42 90.39 46.47 90.61 45.51 90.81 C 45.41 90.01 45.30 89.20 45.20 88.40 Z" fill="#ffffff" />
<path d="M 46.18 89.25 L 46.74 89.18 L 46.81 89.74 L 46.25 89.81 L 46.18 89.25 Z" fill="#083251" />
<path d="M 76.17 91.71 C 79.67 94.54 80.61 98.32 82.84 102.13 C 85.16 106.16 85.51 110.46 85.82 114.99 C 89.08 116.20 91.33 117.72 93.84 120.08 C 94.22 119.30 94.60 118.53 94.98 117.76 C 96.81 119.68 98.61 121.63 100.33 123.64 C 101.88 121.40 103.23 118.71 105.95 117.72 C 108.00 116.88 110.59 117.46 112.75 117.65 C 112.75 112.63 112.97 107.93 115.45 103.44 C 116.94 100.86 118.16 98.15 119.60 95.55 C 121.60 92.18 124.71 90.45 127.96 88.49 C 131.06 89.81 134.13 90.95 136.41 93.58 C 138.17 95.72 139.40 98.23 141.27 100.30 C 141.00 100.39 140.74 100.48 140.47 100.58 C 142.16 107.52 141.24 114.36 139.50 121.18 C 137.15 115.06 135.22 109.48 129.29 105.89 C 134.22 111.84 138.05 118.00 137.89 126.03 C 137.26 130.71 135.17 135.31 133.28 139.62 C 130.55 133.34 127.46 127.48 122.11 123.01 C 125.38 128.49 128.40 133.40 128.49 140.04 C 126.62 146.83 121.09 152.92 115.70 157.27 C 115.58 149.81 114.97 142.67 111.67 135.86 C 112.53 143.46 113.97 152.47 111.86 159.91 C 108.86 163.56 103.06 165.61 98.79 167.46 C 94.22 158.37 94.67 146.72 94.05 136.76 C 93.04 144.82 92.73 152.90 92.82 161.02 C 87.54 158.62 82.99 155.11 79.73 150.27 C 79.21 149.57 78.92 148.82 78.86 148.04 C 78.70 141.85 79.72 135.81 81.52 129.90 C 78.31 134.27 77.08 138.87 76.56 144.20 C 74.16 140.88 71.74 137.58 69.05 134.48 C 70.19 128.84 72.82 123.99 75.80 119.16 C 71.02 124.21 68.28 129.25 66.35 135.93 C 64.63 132.36 62.35 128.72 61.42 124.86 C 60.91 116.56 65.24 110.60 70.76 104.97 C 65.43 108.22 62.24 112.73 59.56 118.26 C 58.46 112.44 57.64 106.40 58.86 100.53 C 60.01 95.14 64.31 90.93 69.48 89.30 C 71.99 88.39 74.30 90.26 76.17 91.71 Z" fill="#083251" />
<path d="M 102.41 93.44 C 104.41 92.14 107.69 92.65 110.01 92.61 C 112.56 93.90 114.49 96.95 116.58 98.91 C 114.26 102.03 112.51 105.07 111.07 108.69 C 107.62 106.98 103.31 105.07 100.88 101.97 C 100.87 99.19 101.07 95.93 102.41 93.44 Z" fill="#083251" />
<path d="M 12.95 97.59 C 13.94 98.14 14.90 98.71 15.88 99.27 C 15.26 99.90 14.63 100.52 14.01 101.15 C 15.17 102.21 16.33 103.08 17.72 103.82 C 18.04 104.77 18.35 105.73 18.67 106.68 C 17.64 106.96 16.61 107.24 15.58 107.53 C 14.64 106.85 13.44 104.99 12.17 105.94 C 11.53 106.46 10.92 107.01 10.32 107.58 C 9.25 107.26 8.18 106.93 7.11 106.61 C 7.44 106.05 7.76 105.49 8.09 104.92 C 7.85 104.32 7.62 103.71 7.39 103.10 C 8.25 103.24 9.12 103.38 9.99 103.52 C 10.55 102.65 11.10 101.77 11.66 100.90 C 11.13 100.36 10.60 99.81 10.08 99.27 C 11.04 98.71 11.99 98.14 12.95 97.59 Z" fill="#083251" />
<path d="M 187.29 97.75 C 188.19 98.14 189.06 98.62 189.93 99.07 C 189.53 99.90 189.14 100.74 188.76 101.58 C 187.33 102.21 184.87 101.90 185.43 104.18 C 187.55 106.15 187.89 104.71 189.58 103.33 C 190.50 103.32 191.42 103.30 192.34 103.27 C 192.43 104.48 192.53 105.68 192.64 106.89 C 191.68 107.10 190.72 107.31 189.76 107.52 C 189.14 106.95 188.50 106.40 187.84 105.87 C 186.61 105.30 185.39 106.95 184.44 107.55 C 183.46 107.23 182.48 106.91 181.50 106.60 C 181.78 105.62 182.05 104.65 182.32 103.67 C 183.91 103.07 185.05 102.21 186.30 101.09 C 185.60 100.51 184.90 99.93 184.20 99.35 C 185.22 98.81 186.23 98.22 187.29 97.75 Z" fill="#083251" />
<path d="M 12.10 102.06 C 12.88 101.75 13.77 101.86 14.75 102.38 C 14.97 104.59 14.48 105.31 12.14 104.86 C 10.92 105.19 10.83 101.74 12.10 102.06 Z" fill="#ffffff" />
<path d="M 55.10 104.47 C 54.60 118.24 60.56 132.35 68.29 143.50 C 68.62 141.77 68.95 140.03 69.29 138.30 C 75.22 147.78 80.32 156.69 89.83 163.18 C 93.23 165.19 94.61 168.28 96.07 171.76 C 103.51 168.44 111.07 164.55 117.61 159.65 C 123.73 154.94 127.49 148.64 130.74 141.77 C 131.04 144.20 131.30 146.63 131.59 149.06 C 139.81 135.88 144.14 119.93 145.04 104.49 C 149.21 106.07 153.24 107.92 157.21 109.93 C 151.59 123.95 144.53 137.26 135.20 149.17 C 126.14 160.81 115.06 170.82 102.44 178.45 C 101.13 179.01 100.34 180.15 98.95 179.12 C 86.03 171.65 74.57 161.33 65.34 149.62 C 55.83 137.58 48.63 124.13 42.99 109.89 C 46.97 107.91 50.97 106.11 55.10 104.47 Z" fill="#083251" />
<path d="M 99.96 104.82 C 103.78 105.97 107.41 108.47 110.58 110.82 C 110.43 112.26 110.28 113.69 110.12 115.12 C 106.42 115.99 102.80 116.69 99.45 118.60 C 97.82 117.53 96.22 116.35 94.50 115.46 L 92.60 116.72 C 91.07 115.33 86.89 114.04 88.33 111.37 C 90.46 109.11 93.33 107.47 96.03 106.00 C 97.21 105.49 98.66 104.52 99.96 104.82 Z" fill="#083251" />
<path d="M 14.12 111.74 C 15.07 115.18 15.56 118.71 16.46 122.17 C 19.88 135.45 26.55 147.98 35.82 158.10 C 36.99 159.36 37.65 160.60 38.20 162.22 C 34.92 159.94 32.69 156.96 30.26 153.85 C 21.58 142.55 15.68 129.04 13.38 114.97 C 13.06 113.66 13.54 112.85 14.12 111.74 Z" fill="#083251" />
<path d="M 186.84 111.72 C 186.96 116.01 185.92 119.88 184.81 123.98 C 181.76 135.03 176.49 145.44 169.44 154.48 C 167.13 157.39 165.12 160.21 161.85 162.14 C 163.22 158.76 165.71 156.78 167.92 153.95 C 176.44 143.22 182.42 130.35 184.86 116.86 C 185.20 114.94 185.68 113.29 186.84 111.72 Z" fill="#083251" />
<path d="M 47.79 164.08 C 49.76 165.62 51.89 167.13 53.67 168.87 L 52.83 169.99 C 50.94 169.05 49.20 167.83 47.35 166.81 C 47.91 169.09 49.39 170.55 50.60 172.53 C 49.07 171.80 47.57 171.02 46.08 170.21 C 44.95 171.15 43.37 174.08 42.51 171.18 C 44.04 168.67 45.99 166.40 47.79 164.08 Z" fill="#083251" />
<path d="M 152.02 165.01 C 153.29 165.21 154.03 166.84 154.86 167.73 C 155.68 168.70 157.63 169.63 157.27 171.05 C 156.24 173.11 153.76 174.49 152.02 175.93 C 150.20 173.48 148.36 171.04 146.48 168.62 C 148.20 167.35 150.01 165.76 152.02 165.01 Z" fill="#083251" />
<path d="M 152.95 167.15 C 151.90 168.41 151.60 171.14 149.56 169.46 C 149.36 167.95 151.95 167.72 152.95 167.15 Z" fill="#ffffff" />
<path d="M 143.18 170.36 C 145.65 169.00 145.78 171.47 147.00 173.02 C 147.69 174.31 148.31 175.58 148.49 177.05 C 147.61 179.30 145.27 180.68 142.89 180.60 C 140.50 179.04 138.86 176.02 138.12 173.32 L 139.69 172.89 C 141.17 174.80 142.40 176.91 143.78 178.90 C 144.68 178.27 145.59 177.64 146.49 177.00 C 145.36 174.83 144.02 172.67 143.18 170.36 Z" fill="#083251" />
<path d="M 155.48 169.84 C 154.55 171.02 153.58 172.16 152.57 173.26 C 152.19 172.54 151.80 171.82 151.42 171.09 C 152.76 170.64 154.11 170.22 155.48 169.84 Z" fill="#ffffff" />
<path d="M 53.29 171.29 C 57.01 168.69 63.27 173.47 60.73 177.74 C 59.17 180.96 55.57 181.16 52.96 179.02 C 50.24 177.04 50.65 173.12 53.29 171.29 Z" fill="#083251" />
<path d="M 54.30 173.34 C 55.91 171.82 57.56 172.91 58.81 174.23 C 59.67 176.61 57.58 179.36 55.05 178.04 C 53.02 176.96 52.59 174.97 54.30 173.34 Z" fill="#ffffff" />
<path d="M 64.18 176.22 C 67.95 174.60 73.18 178.18 71.37 182.50 C 69.98 185.93 66.42 186.38 63.53 184.41 C 60.41 182.45 61.10 177.78 64.18 176.22 Z" fill="#083251" />
<path d="M 132.61 175.93 C 133.63 178.11 134.61 180.30 135.61 182.49 C 137.80 181.81 139.22 180.59 141.52 181.88 C 139.21 183.20 136.81 184.28 134.35 185.27 C 133.20 182.59 131.97 179.93 130.89 177.21 C 131.44 176.76 132.02 176.33 132.61 175.93 Z" fill="#083251" />
<path d="M 64.57 178.59 C 66.21 177.07 68.60 178.13 69.51 179.92 C 69.77 181.89 68.10 184.20 65.93 183.42 C 63.55 182.50 62.91 180.67 64.57 178.59 Z" fill="#ffffff" />
<path d="M 129.79 178.30 C 129.30 180.44 125.83 180.31 124.38 181.86 C 123.88 183.66 124.80 186.04 126.96 185.80 C 128.67 185.39 130.28 184.59 131.96 184.06 C 132.06 188.51 122.70 189.82 122.11 184.02 C 121.22 179.30 126.05 177.84 129.79 178.30 Z" fill="#083251" />
<path d="M 73.26 178.74 C 76.55 179.33 80.52 179.83 82.90 182.37 C 81.35 182.36 79.79 182.32 78.24 182.24 C 77.59 184.67 76.90 187.07 76.09 189.45 C 73.30 187.89 75.82 183.85 76.11 181.36 C 75.10 181.05 74.08 180.73 73.07 180.40 L 73.26 178.74 Z" fill="#083251" />
<path d="M 83.49 181.03 C 85.48 181.49 87.57 181.82 89.48 182.55 C 90.63 183.89 89.85 184.95 89.65 186.46 C 89.56 187.70 90.35 190.29 88.70 190.68 C 86.55 191.18 84.02 190.45 81.83 190.21 C 82.20 188.10 82.51 185.98 82.91 183.88 C 83.09 182.92 83.28 181.97 83.49 181.03 Z" fill="#083251" />
<path d="M 102.32 182.82 C 102.94 182.74 103.57 182.68 104.20 182.64 C 104.38 185.01 104.47 187.37 104.56 189.73 C 106.20 189.73 107.85 189.65 109.50 189.64 C 109.51 190.28 109.52 190.91 109.53 191.55 C 107.19 191.66 104.85 191.77 102.51 191.87 C 102.38 188.88 102.05 185.81 102.32 182.82 Z" fill="#083251" />
<path d="M 110.22 182.27 C 110.90 182.18 111.58 182.11 112.26 182.06 C 112.65 184.29 112.96 186.54 113.28 188.78 C 115.22 188.69 117.16 188.62 119.11 188.65 C 117.14 191.00 114.42 190.69 111.63 191.42 C 111.04 188.43 110.38 185.31 110.22 182.27 Z" fill="#083251" />
<path d="M 88.63 184.05 C 87.00 185.76 86.98 185.57 84.82 185.10 C 84.94 182.38 86.91 184.18 88.63 184.05 Z" fill="#ffffff" />
<path d="M 95.10 182.89 C 96.15 182.37 96.94 182.54 97.45 183.39 C 98.92 186.28 99.72 189.58 100.47 192.72 C 99.28 191.87 98.14 190.97 97.03 190.03 C 94.77 190.14 92.96 191.12 90.97 192.06 C 92.18 188.97 93.30 185.68 95.10 182.89 Z" fill="#083251" />
<path d="M 96.00 185.50 C 97.40 186.16 97.93 188.44 95.99 188.73 C 94.03 188.41 94.58 186.17 96.00 185.50 Z" fill="#ffffff" />
<path d="M 88.54 188.79 C 86.91 188.75 85.28 188.64 83.64 188.48 C 85.73 186.32 86.62 186.71 88.54 188.79 Z" fill="#ffffff" />
</svg>