<?xml version="1.0" encoding="UTF-8" standalone="no"?>
<!DOCTYPE svg PUBLIC "-//W3C//DTD SVG 1.1//EN" "http://www.w3.org/Graphics/SVG/1.1/DTD/svg11.dtd">
<svg xmlns="http://www.w3.org/2000/svg" version="1.1" viewBox="0 0 200 200" width="200.0pt" height="200.0pt">
<path d="M 0.00 0.00 L 200.00 0.00 L 200.00 200.00 L 0.00 200.00 L 0.00 0.00 Z" fill="#ffffff" />
<path d="M 84.85 0.24 C 86.55 3.20 88.21 6.19 89.87 9.17 C 93.13 8.44 96.40 7.74 99.67 7.04 C 97.41 9.50 95.15 11.97 92.89 14.43 C 94.55 17.44 96.24 20.44 97.96 23.43 C 94.94 21.94 91.90 20.48 88.85 19.04 C 86.59 21.57 84.35 24.13 82.12 26.70 C 82.53 23.34 82.95 19.99 83.38 16.64 C 80.34 15.17 77.29 13.72 74.25 12.25 C 77.55 11.63 80.84 10.97 84.12 10.28 C 84.32 6.93 84.56 3.59 84.85 0.24 Z" fill="#f2d523" />
<path d="M 137.28 0.17 C 137.54 3.57 137.83 6.97 138.20 10.36 C 141.43 11.01 144.66 11.64 147.90 12.25 C 144.95 13.67 142.00 15.08 139.04 16.48 C 139.30 19.84 139.58 23.19 139.88 26.55 C 137.71 24.02 135.51 21.53 133.29 19.05 C 130.24 20.49 127.20 21.94 124.17 23.42 C 125.93 20.44 127.63 17.43 129.26 14.38 C 126.99 11.96 124.76 9.51 122.52 7.06 C 125.77 7.74 129.01 8.44 132.24 9.17 C 133.96 6.19 135.64 3.19 137.28 0.17 Z" fill="#f2d523" />
<path d="M 53.43 23.48 C 52.60 26.77 51.81 30.07 51.08 33.39 C 53.96 35.14 56.84 36.88 59.74 38.59 C 56.36 38.73 52.99 38.95 49.62 39.24 C 48.86 42.51 48.10 45.79 47.35 49.07 C 46.10 45.89 44.83 42.72 43.51 39.57 C 40.27 39.73 37.03 39.86 33.79 39.98 C 36.29 37.96 38.76 35.93 41.23 33.89 C 39.89 30.74 38.55 27.59 37.18 24.44 C 40.05 26.31 42.94 28.15 45.83 29.98 C 47.65 28.44 49.47 26.91 51.27 25.35 C 51.99 24.73 52.71 24.10 53.43 23.48 Z" fill="#f2d523" />
<path d="M 171.22 23.40 C 173.76 25.63 176.32 27.82 178.92 29.99 C 181.79 28.15 184.66 26.32 187.53 24.48 C 186.17 27.61 184.83 30.74 183.51 33.89 C 185.98 35.93 188.45 37.96 190.94 39.97 C 187.68 39.86 184.42 39.74 181.17 39.61 C 179.90 42.73 178.62 45.84 177.31 48.94 C 176.59 45.73 175.87 42.52 175.19 39.30 C 171.80 38.97 168.41 38.73 165.01 38.59 C 167.95 36.87 170.85 35.08 173.74 33.26 C 173.16 30.92 172.57 28.58 171.97 26.25 C 171.72 25.30 171.47 24.35 171.22 23.40 Z" fill="#f2d523" />
<path d="M 124.01 33.77 C 150.68 38.02 174.10 56.61 184.48 81.51 C 190.96 96.71 192.49 113.91 188.89 130.03 C 185.34 146.22 176.57 161.17 164.21 172.21 C 152.02 183.21 136.34 190.33 120.01 192.13 C 105.49 193.89 90.78 191.39 77.44 185.46 C 74.35 190.28 71.31 195.14 68.19 199.95 C 61.84 189.84 55.41 179.78 49.00 169.71 C 35.50 169.73 22.00 169.72 8.50 169.72 C 15.27 159.10 21.99 148.46 28.78 137.86 C 22.03 127.20 15.19 116.60 8.51 105.90 C 15.99 105.89 23.47 105.88 30.94 105.91 C 32.11 95.64 34.66 85.65 39.42 76.43 C 48.06 59.43 62.88 45.74 80.55 38.56 C 94.21 33.03 109.48 31.23 124.01 33.77 Z" fill="#f2d523" />
<path d="M 111.00 37.08 C 127.85 36.90 144.51 42.85 157.68 53.29 C 171.45 64.14 181.28 79.82 184.81 97.01 C 187.16 107.89 187.00 119.25 184.43 130.08 C 180.45 147.21 170.26 162.67 156.19 173.20 C 142.48 183.57 125.17 188.97 108.00 188.30 C 96.78 187.93 85.85 184.91 75.85 179.87 C 73.31 183.87 70.78 187.89 68.20 191.88 C 62.63 183.01 56.97 174.19 51.37 165.35 C 39.70 165.38 28.04 165.33 16.37 165.37 C 22.27 156.22 28.03 146.99 33.94 137.84 C 28.03 128.71 22.26 119.49 16.39 110.33 C 22.61 110.36 28.82 110.35 35.04 110.35 C 35.56 102.03 36.95 93.82 39.94 86.01 C 46.05 69.71 57.96 55.73 73.05 47.07 C 84.50 40.45 97.76 36.87 111.00 37.08 Z" fill="#092677" />
<path d="M 107.38 41.10 C 109.09 41.10 111.61 40.82 112.93 42.11 C 114.43 43.96 113.41 45.81 113.09 47.88 C 113.52 48.41 113.96 48.94 114.39 49.46 C 113.99 50.66 113.67 51.97 113.04 53.08 C 111.58 54.25 109.05 54.11 107.27 54.44 C 107.26 50.01 107.01 45.52 107.38 41.10 Z" fill="#f2d523" />
<path d="M 117.63 41.34 C 118.44 41.30 119.26 41.29 120.08 41.32 C 119.82 45.68 119.46 50.03 119.20 54.39 L 116.59 54.30 C 116.88 49.99 116.98 45.61 117.63 41.34 Z" fill="#f2d523" />
<path d="M 97.68 41.84 C 98.57 41.86 99.47 41.88 100.36 41.92 C 102.24 46.16 103.93 50.57 105.33 54.99 C 103.72 54.26 102.19 53.46 100.69 52.53 C 99.32 53.70 97.96 54.88 96.55 56.02 C 96.71 51.27 97.24 46.56 97.68 41.84 Z" fill="#f2d523" />
<path d="M 109.80 43.07 C 112.50 43.24 112.27 46.32 109.78 46.71 C 109.50 45.43 109.51 44.21 109.80 43.07 Z" fill="#092677" />
<path d="M 91.94 44.48 C 90.60 46.17 87.79 47.49 88.48 50.05 C 88.95 53.81 92.97 53.89 95.54 56.01 C 93.94 56.23 92.09 56.81 90.47 56.51 C 85.86 55.04 83.90 48.05 87.67 44.74 C 89.43 43.37 89.99 43.61 91.94 44.48 Z" fill="#f2d523" />
<path d="M 132.02 44.86 C 134.42 45.48 136.65 46.34 139.01 47.16 C 137.88 48.19 136.44 49.03 135.50 50.24 C 134.12 52.88 133.34 55.88 132.37 58.69 C 131.53 58.39 130.70 58.10 129.87 57.80 C 130.92 54.86 132.12 51.87 132.81 48.82 C 132.49 47.51 132.23 46.19 132.02 44.86 Z" fill="#f2d523" />
<path d="M 99.47 45.74 C 100.04 47.33 100.61 48.92 101.18 50.51 L 99.22 50.63 C 99.30 49.00 99.38 47.37 99.47 45.74 Z" fill="#092677" />
<path d="M 83.72 47.91 C 82.61 49.20 81.25 50.47 80.40 51.95 C 80.52 53.89 80.98 56.18 83.13 56.78 C 84.58 57.69 87.60 57.22 86.71 59.64 C 81.52 61.52 77.37 56.99 77.78 51.98 C 78.05 49.23 80.75 45.78 83.72 47.91 Z" fill="#f2d523" />
<path d="M 109.85 48.25 C 112.27 48.70 112.48 51.75 109.90 52.06 C 109.60 50.87 109.58 49.60 109.85 48.25 Z" fill="#092677" />
<path d="M 140.36 48.16 C 141.93 48.68 143.44 49.42 144.95 50.09 C 144.61 50.86 144.27 51.62 143.93 52.39 C 143.10 52.03 142.27 51.67 141.45 51.32 C 141.05 52.10 140.66 52.88 140.26 53.66 C 140.97 54.09 141.67 54.51 142.37 54.94 C 141.96 55.64 141.55 56.35 141.13 57.05 C 140.48 56.68 139.82 56.31 139.16 55.94 C 138.84 56.60 138.52 57.26 138.20 57.91 C 139.13 59.35 139.59 60.41 139.85 62.13 C 138.02 61.33 136.21 60.48 134.41 59.60 C 136.39 55.80 138.06 51.77 140.36 48.16 Z" fill="#f2d523" />
<path d="M 147.18 50.72 L 148.54 52.95 C 147.32 56.00 145.23 58.76 143.58 61.59 C 144.35 62.11 145.12 62.64 145.89 63.16 C 145.46 63.83 145.03 64.50 144.61 65.17 C 143.09 64.27 141.58 63.37 140.07 62.48 C 142.41 58.52 144.71 54.59 147.18 50.72 Z" fill="#f2d523" />
<path d="M 71.42 53.49 C 74.84 56.38 78.24 59.29 81.63 62.22 C 81.04 62.66 80.44 63.10 79.85 63.54 C 78.88 63.23 77.91 62.94 76.93 62.68 C 76.42 63.81 76.05 65.01 75.81 66.26 C 75.34 66.64 74.87 67.02 74.41 67.39 C 72.66 63.28 70.94 59.16 69.19 55.05 C 69.93 54.53 70.68 54.01 71.42 53.49 Z" fill="#f2d523" />
<path d="M 72.77 58.07 C 74.32 58.00 75.71 59.99 76.35 61.22 C 75.75 61.46 75.15 61.65 74.53 61.78 C 73.76 60.85 72.58 59.34 72.77 58.07 Z" fill="#092677" />
<path d="M 64.20 59.53 C 67.55 62.28 70.70 65.28 74.01 68.09 L 72.00 69.97 C 69.86 67.86 67.71 65.76 65.50 63.71 C 67.32 66.54 69.16 69.34 70.74 72.31 C 67.25 72.52 64.47 69.20 61.71 67.38 C 63.58 69.67 65.49 71.91 67.41 74.14 C 66.71 74.78 66.02 75.41 65.32 76.04 C 62.68 72.57 60.04 69.10 57.36 65.66 C 58.20 64.86 59.04 64.06 59.88 63.27 C 61.88 64.89 63.90 66.50 65.94 68.08 C 64.48 65.91 62.99 63.76 61.49 61.62 C 62.39 60.91 63.29 60.22 64.20 59.53 Z" fill="#f2d523" />
<path d="M 158.63 60.08 C 159.27 60.66 159.90 61.26 160.52 61.86 C 158.47 66.07 156.14 70.15 153.80 74.21 C 153.18 72.40 152.64 70.56 152.11 68.72 C 150.43 68.66 148.76 68.54 147.08 68.38 C 150.76 65.41 154.67 62.67 158.63 60.08 Z" fill="#f2d523" />
<path d="M 127.83 66.78 C 125.58 68.50 123.31 70.19 121.04 71.88 C 112.62 70.08 104.61 70.94 96.57 73.86 C 93.40 73.00 90.23 72.12 87.07 71.17 C 92.41 68.28 97.96 65.95 104.00 65.03 C 112.04 63.53 120.04 64.52 127.83 66.78 Z" fill="#f2d523" />
<path d="M 157.06 63.48 C 156.01 65.30 154.88 67.02 153.64 68.71 C 153.09 65.83 155.28 65.22 157.06 63.48 Z" fill="#092677" />
<path d="M 163.98 65.40 C 164.52 66.19 165.06 66.98 165.60 67.77 C 163.81 69.95 162.01 72.13 160.21 74.30 C 162.78 73.12 165.38 71.99 167.97 70.85 C 168.56 71.57 169.15 72.29 169.75 73.00 C 165.58 74.55 161.50 76.68 157.20 77.80 L 155.75 76.85 C 158.07 72.79 161.26 69.20 163.98 65.40 Z" fill="#f2d523" />
<path d="M 116.00 72.93 C 117.67 73.18 120.17 73.15 121.31 74.58 C 124.08 77.58 126.44 80.96 129.05 84.09 C 126.30 88.49 123.56 92.90 120.78 97.29 C 114.25 97.95 107.74 98.83 101.22 99.57 C 97.65 95.41 94.14 91.20 90.56 87.05 C 92.97 83.34 94.83 79.07 97.65 75.68 C 103.15 73.01 109.98 72.49 116.00 72.93 Z" fill="#f2d523" />
<path d="M 170.73 74.51 C 171.10 75.27 171.48 76.03 171.85 76.80 C 168.19 79.10 164.54 81.42 160.91 83.77 L 159.45 81.58 C 162.31 79.74 165.16 77.91 168.05 76.13 C 168.94 75.58 169.83 75.04 170.73 74.51 Z" fill="#f2d523" />
<path d="M 145.23 77.27 C 155.17 87.02 160.24 98.63 160.70 112.58 C 158.42 111.32 156.16 110.04 153.89 108.76 C 152.65 99.83 149.91 93.24 144.47 86.09 C 144.72 83.15 144.96 80.21 145.23 77.27 Z" fill="#f2d523" />
<path d="M 172.84 78.13 C 173.16 78.94 173.47 79.76 173.76 80.59 C 171.74 82.46 169.56 84.19 167.44 85.95 C 170.14 85.37 172.83 84.78 175.53 84.20 C 175.95 85.03 176.37 85.86 176.78 86.70 C 172.01 87.54 167.27 88.50 162.44 89.05 C 163.89 84.41 169.39 81.34 172.84 78.13 Z" fill="#f2d523" />
<path d="M 73.80 83.09 C 74.74 85.64 75.67 88.19 76.60 90.74 C 75.97 91.83 75.35 92.92 74.72 94.00 C 73.36 91.89 72.00 89.77 70.64 87.65 C 71.69 86.13 72.74 84.61 73.80 83.09 Z" fill="#f2d523" />
<path d="M 130.65 85.31 C 134.74 85.64 139.41 86.28 143.20 87.84 C 148.42 93.48 150.89 101.38 152.07 108.83 C 150.22 112.35 148.35 115.85 146.45 119.34 C 140.85 118.07 135.19 117.03 129.59 115.77 C 127.22 109.90 124.79 104.06 122.36 98.21 C 125.20 93.98 127.56 89.37 130.65 85.31 Z" fill="#f2d523" />
<path d="M 89.15 88.17 C 92.70 92.39 96.29 96.58 99.84 100.81 C 99.21 104.00 98.57 107.18 97.91 110.35 C 93.65 110.36 89.38 110.36 85.11 110.36 C 81.96 105.47 78.85 100.56 75.71 95.67 C 76.96 94.00 77.81 91.59 79.98 91.07 C 82.99 89.97 86.10 89.15 89.15 88.17 Z" fill="#f2d523" />
<path d="M 68.19 91.85 C 73.19 99.34 77.86 107.05 82.75 114.61 C 92.62 114.60 102.49 114.60 112.36 114.60 C 107.31 122.29 102.50 130.14 97.49 137.85 C 102.48 145.58 107.35 153.38 112.32 161.13 C 102.47 161.07 92.62 161.16 82.78 161.07 C 77.87 168.66 73.12 176.35 68.19 183.92 C 63.39 176.29 58.54 168.69 53.69 161.09 C 43.85 161.14 34.00 161.07 24.16 161.13 C 29.07 153.36 34.00 145.60 38.96 137.86 C 34.00 130.12 29.11 122.34 24.14 114.61 C 33.99 114.61 43.84 114.60 53.69 114.62 C 58.54 107.04 63.31 99.41 68.19 91.85 Z" fill="#f2d523" />
<path d="M 180.91 96.17 C 181.05 97.76 181.18 99.36 181.31 100.95 C 180.15 100.35 178.99 99.75 177.84 99.13 C 175.71 99.39 173.57 99.67 171.44 99.96 C 173.99 100.53 176.57 100.94 179.11 101.53 C 181.17 101.77 181.63 102.80 182.84 104.35 C 180.05 104.19 177.27 103.87 174.49 103.55 C 173.02 106.52 171.07 105.97 168.22 106.52 C 169.14 104.41 170.00 103.91 171.98 102.90 C 170.83 102.86 169.69 102.80 168.55 102.74 C 168.32 101.17 168.08 99.60 167.85 98.03 C 172.20 97.40 176.55 96.78 180.91 96.17 Z" fill="#f2d523" />
<path d="M 68.21 101.21 C 71.44 106.18 74.56 111.22 77.79 116.20 C 76.26 118.54 74.73 120.88 73.21 123.21 C 71.54 121.17 69.87 119.13 68.18 117.11 C 64.82 117.14 61.45 117.15 58.09 117.16 C 60.91 112.66 63.79 108.19 66.63 103.70 C 67.16 102.87 67.69 102.04 68.21 101.21 Z" fill="#092677" />
<path d="M 182.29 108.48 C 182.28 110.81 182.24 113.14 182.13 115.46 C 179.87 114.06 179.97 112.40 179.44 110.06 C 176.94 110.21 174.44 110.34 171.95 110.46 C 171.55 112.93 172.28 114.51 169.69 115.88 C 169.42 113.35 169.24 110.82 169.09 108.29 C 173.53 107.87 177.88 107.49 182.29 108.48 Z" fill="#f2d523" />
<path d="M 168.93 117.09 C 173.35 117.76 177.70 118.47 182.19 118.17 C 181.79 120.69 181.40 123.21 181.00 125.73 L 178.47 125.25 C 178.69 123.94 178.89 122.62 179.10 121.31 C 176.49 120.90 173.88 120.46 171.27 120.03 C 171.00 121.38 170.74 122.73 170.47 124.07 C 169.65 123.95 168.83 123.82 168.01 123.69 C 168.32 121.49 168.63 119.29 168.93 117.09 Z" fill="#f2d523" />
<path d="M 129.31 117.70 C 134.96 118.69 140.56 119.97 146.17 121.14 C 146.32 125.01 146.91 129.00 146.56 132.86 C 143.04 139.80 136.44 145.12 129.74 148.82 C 125.51 147.98 121.30 147.12 117.06 146.34 C 116.27 141.10 115.61 135.84 115.06 130.56 C 119.84 126.32 124.41 121.81 129.31 117.70 Z" fill="#f2d523" />
<path d="M 33.47 119.69 C 38.25 119.49 43.05 119.67 47.84 119.63 C 47.81 123.03 48.08 126.54 47.62 129.92 C 46.78 132.19 45.19 134.24 43.93 136.31 C 43.18 135.14 42.42 133.97 41.67 132.80 C 42.23 131.89 42.79 130.97 43.35 130.05 C 42.21 130.04 41.08 130.03 39.94 130.02 C 37.81 126.56 35.44 123.24 33.47 119.69 Z" fill="#092677" />
<path d="M 56.47 119.90 C 58.09 122.37 59.86 125.06 60.67 127.92 C 61.12 133.51 60.71 139.19 60.85 144.81 L 63.14 144.78 C 63.15 148.53 63.15 152.27 63.15 156.02 C 53.22 156.04 43.29 156.02 33.36 156.03 C 35.73 152.30 38.11 148.58 40.43 144.82 C 45.62 144.74 50.81 144.77 56.00 144.77 C 56.00 139.86 56.00 134.95 56.00 130.05 C 53.97 130.05 51.95 130.05 49.92 130.05 C 52.05 126.64 54.09 123.14 56.47 119.90 Z" fill="#092677" />
<path d="M 59.83 119.64 C 62.17 119.63 64.52 119.62 66.87 119.61 C 68.99 122.15 71.10 124.71 73.23 127.24 C 74.96 124.73 76.65 122.19 78.33 119.63 C 86.60 119.64 94.87 119.64 103.14 119.63 C 99.21 125.68 95.38 131.78 91.51 137.87 C 95.40 143.91 99.21 150.01 103.11 156.04 C 95.95 156.02 88.79 156.04 81.63 156.03 C 81.64 152.34 81.64 148.65 81.64 144.96 C 83.55 144.96 85.45 144.97 87.36 144.98 C 87.29 139.80 88.02 135.16 86.31 130.20 C 81.40 130.22 76.50 130.24 71.59 130.20 C 71.58 136.74 71.59 143.27 71.59 149.81 C 69.67 152.29 67.76 154.78 65.82 157.24 C 65.79 149.49 65.83 141.73 65.85 133.98 C 66.35 128.93 61.98 124.01 59.83 119.64 Z" fill="#092677" />
<path d="M 168.16 124.97 C 170.76 125.77 172.87 125.35 173.60 128.53 C 171.35 128.15 169.13 127.66 166.90 127.15 C 167.31 126.42 167.73 125.69 168.16 124.97 Z" fill="#f2d523" />
<path d="M 108.92 127.96 C 110.36 128.85 111.76 129.80 113.17 130.75 C 113.86 136.03 114.54 141.31 115.10 146.61 C 113.40 147.61 111.71 148.61 110.02 149.61 C 107.54 145.69 105.05 141.77 102.54 137.87 C 104.66 134.56 106.67 131.18 108.92 127.96 Z" fill="#f2d523" />
<path d="M 156.97 131.47 C 151.16 144.37 141.43 153.63 128.17 158.60 C 128.91 155.89 129.69 153.20 130.46 150.50 C 138.40 146.20 143.73 141.28 148.51 133.61 C 150.15 133.19 151.79 132.77 153.43 132.36 C 154.61 132.06 155.79 131.77 156.97 131.47 Z" fill="#f2d523" />
<path d="M 74.42 133.48 C 75.89 133.27 77.38 133.20 78.86 133.10 C 78.70 141.25 79.24 149.56 78.64 157.67 C 75.70 163.51 71.61 168.88 68.23 174.50 C 64.97 169.45 61.78 164.36 58.53 159.30 C 62.29 159.28 66.16 159.59 69.89 159.13 C 71.72 157.97 73.22 155.84 74.08 153.88 C 74.77 147.14 73.89 140.24 74.42 133.48 Z" fill="#092677" />
<path d="M 164.61 133.61 C 168.64 135.38 172.68 137.13 176.73 138.88 L 175.66 141.30 C 172.42 139.92 169.19 138.53 165.98 137.09 C 165.66 137.72 165.34 138.35 165.01 138.98 C 168.31 140.37 171.58 141.79 174.86 143.21 C 174.34 144.32 173.82 145.44 173.29 146.56 C 169.81 143.66 165.77 142.06 161.62 140.40 C 162.61 138.14 163.61 135.87 164.61 133.61 Z" fill="#f2d523" />
<path d="M 48.31 135.22 C 50.82 133.06 54.64 136.10 53.30 138.95 C 52.49 141.06 49.48 141.87 48.01 139.97 C 46.51 138.48 46.75 136.56 48.31 135.22 Z" fill="#092677" />
<path d="M 160.83 142.54 C 163.54 143.86 166.04 145.72 168.32 147.68 C 170.34 149.47 170.51 150.18 170.32 152.93 C 167.48 150.46 164.64 148.03 161.59 145.84 C 160.64 147.28 159.69 148.73 158.74 150.17 C 157.64 149.33 156.55 148.49 155.49 147.59 C 156.29 146.71 157.20 145.90 158.06 145.09 C 158.98 144.23 159.87 143.34 160.83 142.54 Z" fill="#f2d523" />
<path d="M 160.25 152.53 C 160.90 152.93 161.55 153.34 162.19 153.75 C 160.85 155.08 159.50 156.40 158.15 157.72 C 157.59 157.12 157.04 156.52 156.48 155.93 C 157.73 154.78 158.95 153.62 160.25 152.53 Z" fill="#f2d523" />
<path d="M 151.11 153.54 C 152.41 155.34 153.68 157.15 154.94 158.97 C 154.69 159.88 154.43 160.79 154.18 161.69 C 155.88 162.87 157.57 164.06 159.22 165.30 C 155.54 166.63 153.85 164.20 150.84 162.67 C 152.00 164.42 153.18 166.15 154.36 167.88 C 153.62 168.44 152.88 169.00 152.14 169.56 C 150.33 166.90 148.75 164.80 148.94 161.39 C 147.58 160.39 146.22 159.41 144.85 158.42 C 145.54 157.96 146.23 157.49 146.92 157.02 C 148.81 158.25 150.71 159.47 152.63 160.66 C 151.60 159.00 150.52 157.35 149.51 155.68 C 150.03 154.96 150.57 154.25 151.11 153.54 Z" fill="#f2d523" />
<path d="M 142.11 160.00 C 144.55 163.75 146.62 167.56 149.96 170.63 C 147.76 171.98 145.57 173.34 143.37 174.68 C 142.93 173.95 142.49 173.21 142.04 172.48 C 143.20 171.77 144.35 171.06 145.50 170.34 C 144.08 168.06 142.67 165.78 141.25 163.50 C 140.11 164.23 138.97 164.97 137.83 165.70 L 136.44 163.48 C 138.32 162.31 140.19 161.10 142.11 160.00 Z" fill="#f2d523" />
<path d="M 134.88 164.43 C 135.90 165.90 136.84 167.42 137.79 168.93 C 137.11 169.37 136.43 169.80 135.74 170.23 C 134.69 168.47 133.64 166.70 132.61 164.93 C 133.36 164.76 134.12 164.59 134.88 164.43 Z" fill="#f2d523" />
<path d="M 130.86 166.31 C 133.01 170.24 135.15 174.04 138.38 177.20 C 136.34 178.38 134.31 179.78 132.10 180.63 C 131.35 180.21 130.60 179.77 129.87 179.31 C 131.20 178.44 132.53 177.58 133.87 176.74 C 132.53 174.45 131.20 172.17 129.87 169.88 C 128.69 170.56 127.50 171.23 126.32 171.90 C 125.88 171.16 125.45 170.41 125.01 169.66 C 126.96 168.55 128.92 167.43 130.86 166.31 Z" fill="#f2d523" />
</svg>