<?xml version="1.0" encoding="UTF-8" standalone="no"?>
<!DOCTYPE svg PUBLIC "-//W3C//DTD SVG 1.1//EN" "http://www.w3.org/Graphics/SVG/1.1/DTD/svg11.dtd">
<svg xmlns="http://www.w3.org/2000/svg" version="1.1" viewBox="0 0 200 200" width="200.0pt" height="200.0pt">
<path d="M 0.00 0.00 L 200.00 0.00 L 200.00 200.00 L 101.51 200.00 C 106.58 199.39 109.53 196.26 113.15 193.10 C 114.77 191.57 116.69 191.39 118.77 190.90 C 139.07 187.11 158.02 176.13 171.76 160.77 C 181.88 149.50 189.26 135.89 193.14 121.25 C 196.18 108.86 198.02 96.74 195.62 84.04 C 193.62 69.83 188.74 56.14 180.87 44.12 C 169.58 26.66 152.55 13.08 133.00 5.99 C 105.70 -4.03 74.18 -0.91 49.48 14.47 C 32.25 25.06 18.53 41.15 10.86 59.86 C 6.94 69.18 4.97 78.98 3.65 88.96 C 2.34 102.04 4.87 115.59 8.93 128.01 C 19.87 160.19 48.55 185.09 82.05 191.07 C 86.59 191.59 88.29 194.85 91.76 197.27 C 93.60 198.70 95.73 199.42 97.97 200.00 L 0.00 200.00 L 0.00 0.00 Z" fill="#ffffff" />
<path d="M 133.00 5.99 C 152.55 13.08 169.58 26.66 180.87 44.12 C 188.74 56.14 193.62 69.83 195.62 84.04 C 198.02 96.74 196.18 108.86 193.14 121.25 C 189.26 135.89 181.88 149.50 171.76 160.77 C 158.02 176.13 139.07 187.11 118.77 190.90 C 116.69 191.39 114.77 191.57 113.15 193.10 C 109.53 196.26 106.58 199.39 101.51 200.00 L 97.97 200.00 C 95.73 199.42 93.60 198.70 91.76 197.27 C 88.29 194.85 86.59 191.59 82.05 191.07 C 48.55 185.09 19.87 160.19 8.93 128.01 C 4.87 115.59 2.34 102.04 3.65 88.96 C 4.97 78.98 6.94 69.18 10.86 59.86 C 18.53 41.15 32.25 25.06 49.48 14.47 C 74.18 -0.91 105.70 -4.03 133.00 5.99 Z" fill="#a28805" />
<path d="M 130.26 9.61 C 155.99 18.47 177.06 39.20 186.39 64.76 C 193.49 83.89 193.90 105.36 187.59 124.77 C 182.35 140.99 172.53 155.56 159.55 166.59 C 147.70 176.78 133.44 183.42 118.23 186.83 C 119.70 182.56 121.00 178.56 119.81 174.02 C 119.05 170.37 116.66 168.25 114.30 165.60 C 119.78 163.08 125.66 161.90 131.03 159.04 C 150.65 149.34 165.03 130.32 168.79 108.74 C 171.09 95.59 169.65 81.85 164.44 69.55 C 158.22 54.65 146.66 42.12 132.36 34.64 C 119.78 28.01 105.08 25.35 90.98 27.25 C 75.70 29.20 61.20 36.42 50.40 47.41 C 37.87 59.91 30.44 77.29 30.17 95.00 C 29.84 107.72 33.14 120.45 39.54 131.44 C 47.15 144.56 59.10 155.09 73.10 160.93 C 77.27 162.63 81.62 163.68 85.70 165.60 C 83.34 168.25 80.94 170.37 80.19 174.02 C 79.01 178.56 80.30 182.56 81.76 186.82 C 66.79 183.47 52.72 176.98 40.98 167.04 C 27.52 155.77 17.37 140.71 12.15 123.94 C 6.19 105.00 6.60 84.16 13.34 65.49 C 22.45 39.86 43.33 18.97 68.97 9.88 C 88.56 2.81 110.61 2.72 130.26 9.61 Z" fill="#ffffff" />
<path d="M 95.96 9.12 C 98.14 9.12 97.90 10.82 99.03 12.28 C 97.10 12.14 95.17 12.02 93.23 11.91 C 94.79 14.92 100.78 16.05 99.69 19.80 C 98.42 23.78 95.26 23.25 91.82 23.38 C 91.65 22.18 91.49 20.98 91.33 19.79 C 93.64 20.05 95.12 20.72 97.10 19.10 C 95.23 17.63 92.68 16.70 91.13 14.88 C 89.77 11.50 92.54 8.67 95.96 9.12 Z" fill="#a28805" />
<path d="M 103.87 9.20 C 104.89 9.26 105.91 9.33 106.92 9.39 C 106.66 14.01 106.38 18.63 106.13 23.25 C 105.11 23.20 104.10 23.16 103.09 23.11 C 103.31 18.47 103.60 13.84 103.87 9.20 Z" fill="#a28805" />
<path d="M 118.24 10.86 C 122.03 11.91 125.80 13.01 129.58 14.09 C 129.37 15.06 129.16 16.02 128.94 16.98 C 127.49 16.60 126.05 16.22 124.60 15.84 C 123.56 19.32 122.55 22.81 121.53 26.30 C 120.54 25.99 119.55 25.67 118.57 25.36 C 119.60 21.88 120.62 18.40 121.64 14.92 C 120.24 14.55 118.84 14.17 117.45 13.80 C 117.71 12.82 117.97 11.84 118.24 10.86 Z" fill="#a28805" />
<path d="M 77.14 12.13 C 79.49 11.02 82.25 11.15 84.39 12.65 C 87.62 14.90 88.40 19.86 85.95 22.98 C 83.21 26.36 77.62 26.69 74.90 23.08 C 72.13 19.50 72.97 14.20 77.14 12.13 Z" fill="#a28805" />
<path d="M 78.55 14.67 C 82.36 12.88 85.41 17.47 83.79 20.77 C 83.01 22.40 81.06 23.11 79.37 22.64 C 76.14 21.58 75.24 16.22 78.55 14.67 Z" fill="#ffffff" />
<path d="M 67.30 17.73 C 69.47 19.37 68.48 22.04 68.48 24.36 C 70.25 25.45 72.01 26.54 73.78 27.63 C 72.75 28.13 71.71 28.63 70.67 29.13 C 68.72 27.95 66.78 26.77 64.83 25.60 C 65.60 27.33 66.38 29.06 67.16 30.80 C 66.23 31.20 65.31 31.61 64.39 32.01 C 62.38 27.81 60.39 23.60 58.40 19.38 C 60.93 18.51 64.85 15.64 67.30 17.73 Z" fill="#a28805" />
<path d="M 132.37 18.36 C 135.51 16.49 139.54 17.46 141.67 20.36 C 144.06 23.62 142.93 28.48 139.58 30.63 C 136.15 32.89 131.12 31.30 129.40 27.64 C 127.84 24.39 129.35 20.19 132.37 18.36 Z" fill="#a28805" />
<path d="M 62.50 20.13 C 64.39 19.52 65.12 20.67 66.62 21.55 C 65.65 22.35 64.69 23.14 63.72 23.93 C 63.29 22.67 62.84 21.42 62.50 20.13 Z" fill="#ffffff" />
<path d="M 52.21 21.08 C 52.19 22.72 52.17 24.36 52.15 26.00 C 51.70 25.72 51.25 25.44 50.80 25.16 C 50.57 24.25 50.33 23.33 50.10 22.41 C 50.80 21.97 51.50 21.53 52.21 21.08 Z" fill="#a28805" />
<path d="M 134.93 20.45 C 136.84 19.96 138.55 20.83 139.52 22.48 C 140.75 25.23 138.34 29.26 135.16 28.75 C 133.22 28.54 132.38 26.46 131.38 25.06 C 132.29 23.43 133.15 21.28 134.93 20.45 Z" fill="#ffffff" />
<path d="M 150.15 24.73 C 152.18 26.43 156.47 28.92 155.57 32.05 C 154.66 34.66 152.41 34.82 150.18 35.81 C 149.98 37.92 149.78 40.04 149.59 42.15 C 148.72 41.43 147.86 40.71 147.00 39.99 C 147.13 37.71 147.27 35.42 147.39 33.13 C 146.23 34.61 145.06 36.09 143.90 37.58 C 143.09 36.94 142.28 36.31 141.47 35.68 C 144.36 32.03 147.12 28.26 150.15 24.73 Z" fill="#a28805" />
<path d="M 47.90 25.62 C 52.62 28.06 57.25 30.66 61.94 33.16 C 61.17 33.80 60.40 34.43 59.63 35.07 C 58.72 34.54 57.81 34.01 56.89 33.48 C 55.69 34.45 54.49 35.42 53.30 36.41 C 53.16 38.89 52.75 39.82 51.28 41.71 C 49.88 36.41 48.87 31.01 47.90 25.62 Z" fill="#a28805" />
<path d="M 151.41 28.23 C 152.21 30.23 152.23 30.88 151.67 32.89 C 150.66 32.48 149.66 32.07 148.65 31.65 C 149.55 30.49 150.47 29.35 151.41 28.23 Z" fill="#ffffff" />
<path d="M 51.51 30.43 C 52.60 30.89 53.66 31.43 54.72 31.94 C 53.77 32.61 52.81 33.28 51.85 33.94 C 51.72 32.77 51.59 31.60 51.51 30.43 Z" fill="#ffffff" />
<path d="M 93.63 31.05 C 97.89 30.87 102.11 30.87 106.37 31.05 C 106.42 45.34 106.40 59.63 106.38 73.91 C 102.13 73.87 97.88 73.87 93.63 73.91 C 93.60 59.62 93.59 45.33 93.63 31.05 Z" fill="#34a234" />
<path d="M 40.95 31.68 C 42.85 36.50 44.73 41.33 46.61 46.16 C 41.70 44.52 36.78 42.92 31.87 41.27 C 32.60 40.52 33.34 39.78 34.07 39.03 C 36.59 39.79 39.12 40.55 41.64 41.32 C 40.71 38.96 39.72 36.57 38.96 34.15 C 39.61 33.31 40.28 32.49 40.95 31.68 Z" fill="#a28805" />
<path d="M 91.12 31.39 C 91.13 45.63 91.12 59.86 91.12 74.09 C 86.84 74.29 82.56 74.57 78.29 74.93 C 78.27 61.45 78.27 47.96 78.29 34.48 C 82.52 33.17 86.76 32.17 91.12 31.39 Z" fill="#ffffff" />
<path d="M 108.88 31.40 C 113.24 32.17 117.48 33.17 121.71 34.48 C 121.73 47.96 121.72 61.44 121.71 74.93 C 117.44 74.57 113.16 74.29 108.88 74.09 C 108.88 59.86 108.87 45.63 108.88 31.40 Z" fill="#ffffff" />
<path d="M 75.77 35.41 C 75.82 48.67 75.77 61.92 75.80 75.17 C 71.56 75.76 67.33 76.36 63.10 76.97 C 63.09 65.37 63.10 53.76 63.10 42.16 C 67.20 39.57 71.34 37.37 75.77 35.41 Z" fill="#34a234" />
<path d="M 124.23 35.41 C 128.66 37.37 132.80 39.57 136.90 42.16 C 136.90 53.76 136.91 65.37 136.90 76.97 C 132.67 76.36 128.43 75.76 124.20 75.17 C 124.23 61.92 124.18 48.66 124.23 35.41 Z" fill="#34a234" />
<path d="M 162.51 34.60 C 162.48 38.73 162.40 42.87 162.34 47.01 C 164.30 45.31 166.25 43.60 168.20 41.88 C 168.87 42.63 169.55 43.38 170.22 44.12 C 166.62 47.28 163.00 50.42 159.33 53.50 C 159.38 49.39 159.48 45.28 159.56 41.16 C 157.59 42.87 155.63 44.58 153.67 46.30 C 152.99 45.53 152.30 44.75 151.62 43.98 C 154.17 41.76 156.71 39.54 159.28 37.34 C 160.35 36.42 161.43 35.51 162.51 34.60 Z" fill="#a28805" />
<path d="M 29.67 45.19 C 30.69 45.64 31.70 46.11 32.70 46.59 C 31.55 47.77 30.22 48.93 29.29 50.30 C 27.83 53.83 33.02 57.46 35.84 54.92 C 36.85 53.55 37.39 51.78 38.05 50.22 C 38.96 50.87 39.88 51.53 40.80 52.18 C 39.43 54.68 38.62 57.64 35.58 58.52 C 31.18 59.93 26.22 56.69 26.07 52.01 C 25.77 48.89 27.65 47.19 29.67 45.19 Z" fill="#a28805" />
<path d="M 60.43 44.00 C 60.53 55.16 60.45 66.33 60.48 77.49 C 56.19 78.38 51.92 79.33 47.68 80.42 C 47.67 72.56 47.70 64.69 47.66 56.83 C 50.80 52.96 54.19 49.33 57.99 46.10 C 58.80 45.40 59.62 44.70 60.43 44.00 Z" fill="#ffffff" />
<path d="M 139.57 44.00 C 140.38 44.70 141.20 45.40 142.01 46.10 C 145.81 49.33 149.20 52.96 152.34 56.83 C 152.30 64.69 152.33 72.56 152.32 80.42 C 148.08 79.33 143.81 78.37 139.52 77.49 C 139.56 66.33 139.47 55.16 139.57 44.00 Z" fill="#ffffff" />
<path d="M 160.66 55.63 C 166.16 54.77 171.63 54.53 177.19 54.28 C 173.96 58.74 170.81 63.29 167.37 67.59 C 166.77 65.19 166.93 63.99 167.79 61.78 C 167.18 60.60 166.55 59.42 165.92 58.25 C 163.65 57.72 162.40 57.18 160.66 55.63 Z" fill="#a28805" />
<path d="M 171.59 56.74 C 171.73 57.57 171.58 58.35 171.16 59.07 C 169.93 60.43 168.65 59.13 168.33 57.77 C 169.20 57.04 170.28 56.70 171.59 56.74 Z" fill="#ffffff" />
<path d="M 21.20 59.21 C 25.65 60.41 29.86 62.55 34.19 64.14 C 30.56 66.04 26.88 67.84 23.23 69.70 C 25.66 70.66 28.09 71.62 30.52 72.59 C 30.09 73.54 29.67 74.48 29.24 75.43 C 24.82 73.63 20.36 71.91 15.94 70.09 C 19.61 68.22 23.28 66.40 26.97 64.56 C 24.42 63.53 21.87 62.49 19.35 61.39 C 19.95 60.64 20.56 59.91 21.20 59.21 Z" fill="#a28805" />
<path d="M 45.12 60.51 C 45.33 67.36 45.24 74.20 45.22 81.05 C 41.96 82.09 38.69 83.13 35.42 84.16 C 37.09 76.88 39.45 69.84 43.35 63.42 C 43.94 62.45 44.53 61.48 45.12 60.51 Z" fill="#34a234" />
<path d="M 154.88 60.51 C 155.47 61.48 156.06 62.45 156.64 63.42 C 160.54 69.84 162.91 76.87 164.58 84.16 C 161.31 83.13 158.04 82.09 154.78 81.05 C 154.76 74.20 154.67 67.36 154.88 60.51 Z" fill="#34a234" />
<path d="M 183.99 76.02 C 186.14 77.71 185.93 80.91 186.35 83.39 C 185.20 83.73 184.06 84.07 182.91 84.41 C 182.90 82.73 183.07 80.94 182.71 79.29 C 181.39 76.46 176.82 76.88 175.38 79.36 C 173.91 81.25 176.04 83.75 176.62 85.67 C 175.55 85.91 174.47 86.15 173.40 86.39 C 172.58 83.70 171.03 81.13 172.40 78.35 C 174.33 73.97 180.50 72.83 183.99 76.02 Z" fill="#a28805" />
<path d="M 15.12 75.24 L 17.36 76.59 C 17.42 78.07 17.27 79.57 17.20 81.05 C 17.94 81.19 18.69 81.34 19.43 81.48 C 19.78 79.88 20.12 78.28 20.47 76.69 C 21.31 76.89 22.15 77.09 23.00 77.29 C 22.76 78.89 22.52 80.49 22.28 82.09 L 24.98 82.45 C 25.27 80.88 25.56 79.31 25.85 77.74 C 26.78 77.97 27.71 78.21 28.65 78.44 C 28.13 80.98 27.62 83.52 27.12 86.06 C 22.56 85.19 18.01 84.30 13.46 83.40 C 14.00 80.68 14.53 77.95 15.12 75.24 Z" fill="#a28805" />
<path d="M 77.51 78.84 C 106.68 75.95 137.59 78.35 165.26 88.47 C 166.11 97.70 165.51 105.88 163.13 114.83 C 123.20 99.77 76.80 99.77 36.86 114.83 C 34.50 105.98 33.91 97.65 34.70 88.53 C 48.46 83.36 62.92 80.39 77.51 78.84 Z" fill="#ffffff" />
<path d="M 88.47 83.91 C 88.64 84.81 88.82 85.70 88.99 86.60 C 87.35 86.87 85.16 86.42 84.05 87.85 C 85.83 89.13 87.87 90.07 89.56 91.45 C 91.20 92.97 90.43 95.63 88.94 96.95 C 87.33 98.50 84.61 98.03 82.54 98.12 C 82.38 97.00 82.22 95.88 82.06 94.76 C 84.17 94.83 86.14 94.73 88.21 94.26 C 85.87 92.17 80.26 90.98 81.42 86.94 C 82.70 83.43 85.46 84.22 88.47 83.91 Z" fill="#a28805" />
<path d="M 91.79 83.67 C 95.76 83.66 99.73 83.64 103.69 83.57 L 103.71 86.58 C 102.24 86.62 100.76 86.65 99.29 86.69 C 99.33 90.31 99.38 93.93 99.41 97.55 L 96.32 97.54 C 96.32 93.92 96.30 90.30 96.24 86.67 C 94.78 86.66 93.31 86.65 91.85 86.64 C 91.83 85.65 91.81 84.66 91.79 83.67 Z" fill="#a28805" />
<path d="M 114.11 84.16 C 115.13 84.21 116.16 84.27 117.18 84.32 C 116.77 89.10 116.47 93.89 116.08 98.67 L 113.33 97.62 C 113.16 93.15 113.79 88.62 114.11 84.16 Z" fill="#a28805" />
<path d="M 76.84 85.00 C 76.98 85.80 77.12 86.60 77.26 87.40 C 75.85 87.76 74.40 88.07 73.03 88.55 L 72.27 90.92 C 74.05 90.76 75.82 90.58 77.60 90.37 C 77.69 91.29 77.79 92.21 77.89 93.13 C 76.32 93.33 74.76 93.53 73.20 93.73 L 73.60 96.53 C 75.15 96.29 76.70 96.05 78.26 95.81 L 78.72 98.62 C 76.11 98.99 73.50 99.35 70.88 99.70 C 70.29 95.09 69.66 90.48 69.09 85.86 C 71.67 85.56 74.25 85.27 76.84 85.00 Z" fill="#a28805" />
<path d="M 121.41 84.37 C 122.51 84.68 123.60 85.01 124.69 85.35 C 125.51 86.71 126.26 88.13 127.01 89.53 C 128.08 88.27 129.16 87.02 130.23 85.76 C 131.30 85.95 132.37 86.15 133.43 86.34 C 131.69 88.28 129.94 90.22 128.20 92.17 C 129.48 94.83 130.77 97.50 132.03 100.18 C 130.94 99.98 129.85 99.78 128.76 99.58 C 127.96 97.90 127.16 96.22 126.36 94.54 C 124.00 96.93 122.86 99.06 119.01 98.78 C 120.88 96.37 122.90 94.09 124.96 91.84 C 124.23 90.33 123.49 88.82 122.77 87.30 C 122.31 86.33 121.86 85.35 121.41 84.37 Z" fill="#a28805" />
<path d="M 62.06 87.45 C 65.20 87.67 66.44 92.29 64.31 94.34 C 63.12 95.29 61.66 95.96 60.33 96.68 C 60.67 98.26 61.01 99.84 61.36 101.42 C 60.35 101.62 59.35 101.83 58.34 102.03 C 57.38 97.46 56.47 92.89 55.54 88.31 C 57.68 87.95 59.88 87.46 62.06 87.45 Z" fill="#a28805" />
<path d="M 145.78 88.60 C 146.77 88.90 147.76 89.21 148.75 89.52 C 148.26 91.37 147.77 93.22 147.29 95.07 C 149.25 93.57 151.20 92.07 153.15 90.56 C 154.36 90.90 155.57 91.23 156.78 91.57 C 154.52 93.27 152.26 94.96 150.01 96.67 C 151.18 99.47 152.35 102.26 153.50 105.07 C 152.29 104.75 151.09 104.43 149.88 104.11 C 148.88 101.62 147.88 99.13 146.88 96.64 C 146.32 98.74 145.77 100.83 145.21 102.93 C 144.22 102.66 143.23 102.39 142.24 102.13 C 143.42 97.62 144.59 93.11 145.78 88.60 Z" fill="#a28805" />
<path d="M 173.40 89.55 C 177.95 88.97 182.58 88.94 187.16 88.67 C 187.21 89.68 187.26 90.70 187.31 91.71 C 183.71 91.91 180.10 92.14 176.49 92.31 C 176.56 93.66 176.62 95.00 176.69 96.35 L 173.58 96.52 C 173.47 94.21 173.29 91.86 173.40 89.55 Z" fill="#a28805" />
<path d="M 14.51 90.61 C 17.27 89.19 19.06 91.01 21.31 92.35 C 23.21 91.19 25.12 90.06 27.06 88.97 C 26.85 93.41 23.92 94.06 20.85 96.27 C 22.72 96.30 24.58 96.34 26.45 96.38 C 26.44 97.40 26.42 98.42 26.41 99.44 C 21.73 99.32 17.04 99.21 12.36 99.11 C 12.73 96.67 12.03 92.01 14.51 90.61 Z" fill="#a28805" />
<path d="M 59.31 89.87 C 60.79 90.24 61.65 90.35 62.47 91.78 C 61.60 92.71 60.70 93.60 59.77 94.47 C 59.57 92.94 59.39 91.41 59.31 89.87 Z" fill="#ffffff" />
<path d="M 49.91 90.90 C 51.06 92.06 51.21 94.17 51.65 95.69 C 52.95 97.44 54.76 98.53 54.21 100.98 C 53.26 103.96 48.42 104.43 45.89 105.43 C 44.62 100.88 43.36 96.34 42.12 91.79 C 44.52 91.35 47.56 90.07 49.91 90.90 Z" fill="#a28805" />
<path d="M 16.38 93.12 C 18.05 93.38 18.38 94.90 19.30 96.11 C 17.72 96.11 16.14 96.10 14.56 96.07 C 15.14 95.07 15.72 94.07 16.38 93.12 Z" fill="#ffffff" />
<path d="M 46.07 93.37 C 47.68 92.11 49.30 94.30 48.17 95.76 C 46.64 97.18 45.02 94.73 46.07 93.37 Z" fill="#ffffff" />
<path d="M 106.34 94.46 C 108.45 93.87 109.60 96.50 107.69 97.59 C 105.49 98.20 104.47 95.62 106.34 94.46 Z" fill="#a28805" />
<path d="M 136.32 97.75 C 137.09 97.69 137.85 98.11 138.60 99.00 C 138.08 99.79 137.53 100.56 136.95 101.29 C 135.09 100.33 133.46 98.87 136.32 97.75 Z" fill="#a28805" />
<path d="M 47.43 98.19 C 49.31 98.14 50.48 98.92 52.02 99.88 C 50.68 100.78 49.33 101.67 47.97 102.53 C 47.76 101.08 47.54 99.64 47.43 98.19 Z" fill="#ffffff" />
<path d="M 177.03 99.99 C 180.49 99.82 184.02 100.56 187.46 100.89 L 187.18 103.88 C 183.92 103.57 180.48 102.88 177.21 103.20 C 175.18 104.41 175.59 105.54 176.66 107.31 C 179.83 108.28 183.31 108.38 186.59 108.77 L 186.26 111.77 C 182.78 111.34 179.06 111.28 175.70 110.25 C 171.16 108.52 172.14 100.49 177.03 99.99 Z" fill="#a28805" />
<path d="M 24.02 102.96 C 24.89 102.88 25.76 102.80 26.63 102.71 C 27.00 105.29 27.37 107.87 27.73 110.45 C 23.13 111.11 18.53 111.74 13.94 112.40 C 13.59 109.82 13.23 107.25 12.85 104.67 C 13.76 104.50 14.66 104.32 15.56 104.15 C 15.86 105.77 16.15 107.39 16.45 109.01 C 17.27 108.86 18.10 108.72 18.93 108.57 C 18.73 106.98 18.54 105.40 18.35 103.81 L 21.10 103.49 C 21.32 105.08 21.54 106.67 21.76 108.26 L 24.41 107.83 C 24.28 106.20 24.14 104.58 24.02 102.96 Z" fill="#a28805" />
<path d="M 156.60 103.62 L 157.95 102.52 C 158.97 104.52 160.47 104.68 157.97 106.35 C 156.39 105.47 154.25 105.50 156.60 103.62 Z" fill="#a28805" />
<path d="M 106.43 107.49 C 106.34 122.84 106.42 138.18 106.39 153.53 C 102.13 153.54 97.87 153.54 93.61 153.53 C 93.58 138.18 93.65 122.84 93.57 107.49 C 97.87 107.33 102.14 107.33 106.43 107.49 Z" fill="#34a234" />
<path d="M 78.46 108.77 C 82.60 107.95 86.92 107.83 91.13 107.54 C 91.11 122.73 91.14 137.93 91.11 153.12 C 89.26 153.78 87.00 154.20 85.41 155.41 C 84.18 156.64 83.33 158.33 82.42 159.80 C 81.04 159.34 79.66 158.88 78.28 158.42 C 78.26 144.94 78.30 131.47 78.27 118.00 C 78.28 114.94 78.10 111.81 78.46 108.77 Z" fill="#ffffff" />
<path d="M 108.87 107.53 C 113.16 107.80 117.44 108.20 121.71 108.61 C 121.73 125.22 121.72 141.82 121.72 158.42 C 120.34 158.88 118.96 159.34 117.58 159.80 C 116.67 158.33 115.82 156.64 114.59 155.41 C 113.00 154.20 110.74 153.78 108.89 153.12 C 108.86 137.92 108.88 122.72 108.87 107.53 Z" fill="#ffffff" />
<path d="M 75.77 108.96 C 75.80 125.16 75.81 141.37 75.77 157.57 C 71.34 155.62 67.20 153.42 63.10 150.83 C 63.11 137.59 63.07 124.35 63.12 111.11 C 67.32 110.31 71.54 109.58 75.77 108.96 Z" fill="#34a234" />
<path d="M 124.23 108.96 C 128.46 109.59 132.68 110.31 136.88 111.11 C 136.93 124.35 136.89 137.59 136.90 150.83 C 132.80 153.42 128.66 155.62 124.23 157.58 C 124.20 141.37 124.20 125.17 124.23 108.96 Z" fill="#34a234" />
<path d="M 60.47 111.65 C 60.46 124.10 60.53 136.55 60.43 149.00 C 55.74 145.12 51.46 140.93 47.66 136.17 C 47.71 129.14 47.66 122.10 47.70 115.07 C 51.94 113.86 56.19 112.72 60.47 111.65 Z" fill="#ffffff" />
<path d="M 139.53 111.65 C 143.81 112.72 148.06 113.86 152.30 115.07 C 152.34 122.10 152.29 129.14 152.34 136.17 C 148.54 140.93 144.26 145.12 139.57 149.00 C 139.47 136.55 139.54 124.10 139.53 111.65 Z" fill="#ffffff" />
<path d="M 171.57 113.54 C 176.07 114.93 180.58 116.27 185.08 117.67 C 184.28 119.83 183.70 122.45 182.22 124.24 C 180.48 125.54 178.44 124.09 176.71 123.52 C 174.40 123.80 172.17 124.86 170.55 122.50 C 169.07 120.07 171.02 116.12 171.57 113.54 Z" fill="#a28805" />
<path d="M 20.42 116.02 L 23.03 115.35 C 23.47 116.82 23.91 118.29 24.36 119.75 C 26.05 119.35 27.74 118.84 29.47 118.58 L 31.09 121.04 C 26.53 122.49 21.93 123.84 17.35 125.23 C 16.58 122.69 15.82 120.16 15.07 117.62 C 15.96 117.42 16.86 117.23 17.75 117.03 C 18.24 118.61 18.74 120.18 19.24 121.75 C 20.01 121.27 20.80 120.79 21.59 120.33 C 21.21 118.89 20.82 117.45 20.42 116.02 Z" fill="#a28805" />
<path d="M 45.21 115.90 C 45.27 121.43 45.30 126.97 45.12 132.50 C 42.26 128.03 39.99 123.38 38.05 118.44 C 40.43 117.59 42.82 116.75 45.21 115.90 Z" fill="#34a234" />
<path d="M 154.79 115.90 C 157.18 116.75 159.57 117.59 161.95 118.44 C 160.02 123.37 157.75 128.03 154.88 132.49 C 154.70 126.96 154.73 121.43 154.79 115.90 Z" fill="#34a234" />
<path d="M 172.79 117.36 C 174.29 117.65 175.76 118.06 177.23 118.47 C 176.24 119.54 175.21 120.56 174.09 121.50 C 172.27 120.19 172.58 119.28 172.79 117.36 Z" fill="#ffffff" />
<path d="M 178.27 119.31 C 179.52 119.37 180.75 119.50 181.99 119.63 C 181.42 120.57 180.85 121.51 180.28 122.45 C 179.58 121.41 178.89 120.38 178.27 119.31 Z" fill="#ffffff" />
<path d="M 92.99 156.09 C 98.92 156.23 104.95 155.78 110.85 156.38 C 113.14 156.63 114.81 158.69 114.49 160.99 C 113.85 162.99 112.65 164.89 111.65 166.73 C 114.20 169.31 116.93 171.35 117.52 175.18 C 118.60 181.25 115.93 186.54 111.79 190.79 C 108.67 193.93 104.73 197.60 100.00 197.50 C 95.27 197.60 91.33 193.93 88.21 190.79 C 84.07 186.54 81.40 181.26 82.48 175.18 C 83.07 171.34 85.79 169.31 88.35 166.73 C 87.21 164.27 84.19 160.88 86.14 158.21 C 87.52 155.93 90.69 156.26 92.99 156.09 Z" fill="#34a234" />
<path d="M 59.52 158.41 C 61.14 159.32 62.75 160.24 64.37 161.17 C 62.01 165.25 59.71 169.35 57.17 173.32 L 55.36 171.08 C 56.51 168.18 58.36 165.51 59.84 162.76 C 59.67 161.31 59.57 159.87 59.52 158.41 Z" fill="#a28805" />
<path d="M 142.53 160.45 C 145.62 162.91 144.46 168.23 144.49 171.69 C 143.37 172.33 142.25 172.96 141.13 173.60 C 141.35 171.97 141.58 170.34 141.81 168.71 C 140.19 168.72 137.84 169.50 136.42 168.51 C 134.97 167.53 134.12 165.94 134.28 164.18 C 134.66 160.43 139.45 157.80 142.53 160.45 Z" fill="#a28805" />
<path d="M 138.52 162.61 C 139.96 161.56 141.90 163.26 141.40 164.83 C 141.12 166.24 139.10 167.15 138.10 165.88 C 137.07 164.83 137.09 163.28 138.52 162.61 Z" fill="#ffffff" />
<path d="M 75.11 167.12 C 75.61 169.09 74.09 170.59 73.23 172.22 C 73.02 173.65 72.90 175.14 72.47 176.52 C 70.01 179.96 63.55 177.25 64.14 173.14 C 64.70 171.79 65.76 170.59 66.64 169.44 C 67.15 167.94 67.11 165.34 68.77 164.68 C 71.15 163.66 73.84 165.00 75.11 167.12 Z" fill="#a28805" />
<path d="M 132.41 166.55 C 134.64 169.50 132.92 174.27 132.39 177.60 C 131.17 178.08 129.94 178.55 128.72 179.02 C 129.18 177.51 129.64 175.99 130.11 174.48 C 128.57 174.26 126.79 174.31 125.36 173.65 C 123.24 172.19 122.62 169.29 124.10 167.15 C 126.04 164.41 130.22 163.63 132.41 166.55 Z" fill="#a28805" />
<path d="M 93.33 165.87 C 94.16 165.87 95.00 165.87 95.83 165.87 C 95.89 167.47 95.95 169.07 96.01 170.68 C 96.89 170.72 97.78 170.75 98.67 170.79 C 98.68 169.30 98.68 167.81 98.69 166.32 L 101.31 166.32 C 101.32 167.81 101.32 169.30 101.33 170.79 C 102.22 170.75 103.11 170.72 103.99 170.68 C 104.05 169.07 104.11 167.47 104.17 165.87 C 105.00 165.87 105.83 165.87 106.67 165.87 C 106.68 168.25 106.69 170.63 106.70 173.01 C 108.95 174.33 111.19 175.67 113.39 177.07 L 111.15 178.44 C 109.76 178.03 108.46 177.27 107.14 176.67 C 106.78 177.41 106.42 178.15 106.05 178.89 C 107.32 179.60 108.59 180.31 109.86 181.02 C 109.41 181.82 108.97 182.62 108.52 183.41 C 107.25 182.65 105.99 181.89 104.72 181.13 L 103.27 183.38 C 104.71 184.23 106.14 185.08 107.58 185.93 C 107.08 186.69 106.59 187.44 106.10 188.20 C 104.07 187.00 102.03 185.81 100.00 184.62 C 97.96 185.81 95.93 187.00 93.90 188.20 C 93.41 187.44 92.92 186.69 92.43 185.93 C 93.86 185.08 95.29 184.23 96.73 183.38 L 95.28 181.14 C 94.01 181.90 92.75 182.65 91.48 183.41 C 91.03 182.62 90.59 181.82 90.14 181.02 C 91.40 180.31 92.67 179.60 93.94 178.89 C 93.58 178.15 93.22 177.41 92.86 176.67 C 91.55 177.27 90.24 178.03 88.85 178.44 L 86.61 177.07 C 88.81 175.67 91.05 174.34 93.30 173.02 C 93.31 170.64 93.32 168.26 93.33 165.87 Z" fill="#ffffff" />
<path d="M 70.45 166.88 C 72.41 166.49 73.19 169.13 71.29 169.83 C 69.33 170.18 68.68 167.65 70.45 166.88 Z" fill="#ffffff" />
<path d="M 128.25 167.64 C 129.20 167.44 130.62 168.41 130.48 169.41 C 130.72 170.91 128.91 172.58 127.52 171.40 C 125.74 170.64 126.36 167.70 128.25 167.64 Z" fill="#ffffff" />
<path d="M 67.45 172.62 C 68.53 171.56 69.29 171.46 69.74 172.29 C 71.22 173.27 69.90 174.81 69.05 175.68 C 67.23 174.58 66.98 174.70 67.45 172.62 Z" fill="#ffffff" />
<path d="M 93.95 173.44 C 97.99 173.42 102.03 173.42 106.07 173.44 C 104.04 176.92 102.02 180.40 100.00 183.89 C 97.99 180.40 95.98 176.92 93.95 173.44 Z" fill="#34a234" />
</svg>