<?xml version="1.0" encoding="UTF-8" standalone="no"?>
<!DOCTYPE svg PUBLIC "-//W3C//DTD SVG 1.1//EN" "http://www.w3.org/Graphics/SVG/1.1/DTD/svg11.dtd">
<svg xmlns="http://www.w3.org/2000/svg" version="1.1" viewBox="0 0 200 200" width="200.0pt" height="200.0pt">
<path d="M 0.00 0.00 L 200.00 0.00 L 200.00 200.00 L 0.00 200.00 L 0.00 0.00 Z" fill="#ffffff" />
<path d="M 51.10 4.23 C 56.19 8.36 61.31 11.86 67.97 12.80 C 74.39 13.79 80.09 12.13 86.22 10.62 C 95.58 8.30 105.17 8.38 114.50 10.78 C 120.71 12.38 126.48 13.87 132.96 12.65 C 139.26 11.55 144.10 8.16 148.95 4.20 C 151.15 10.27 153.87 16.06 157.75 21.26 C 162.30 27.46 168.04 32.40 174.31 36.79 C 168.14 45.89 163.55 56.86 164.28 68.04 C 164.97 78.58 169.85 86.98 171.88 97.23 C 174.44 109.39 174.67 122.50 171.37 134.54 C 168.94 143.30 164.20 151.31 157.27 157.25 C 146.61 166.70 132.34 171.76 120.25 179.25 C 112.61 183.96 105.84 189.92 100.03 196.74 C 95.44 191.39 90.31 186.55 84.58 182.43 C 71.38 172.90 54.94 168.03 42.77 157.23 C 36.23 151.60 31.60 144.18 29.10 135.94 C 25.27 123.53 25.53 109.64 28.21 97.02 C 30.22 86.94 35.17 78.22 35.77 68.03 C 36.48 56.87 31.89 45.88 25.75 36.80 C 36.62 29.45 45.37 19.56 49.98 7.16 C 50.36 6.18 50.73 5.20 51.10 4.23 Z" fill="#020000" />
<path d="M 51.87 7.39 C 55.40 10.03 58.95 12.41 63.22 13.71 C 67.58 15.14 71.85 15.00 76.36 14.81 C 76.35 33.34 76.32 51.88 76.40 70.40 C 77.21 68.84 77.99 67.26 78.75 65.67 C 81.71 67.50 84.30 69.42 87.96 69.40 C 91.99 69.20 95.88 67.73 100.00 67.74 C 104.15 67.70 107.98 69.18 112.02 69.41 C 115.72 69.49 118.35 67.52 121.29 65.61 C 122.06 67.23 122.85 68.85 123.68 70.45 C 123.78 66.21 123.76 61.97 123.65 57.73 C 127.54 57.71 131.40 57.58 135.29 57.96 C 134.47 57.09 133.65 56.22 132.84 55.34 C 132.87 50.31 132.80 45.28 132.91 40.25 C 134.07 41.17 135.88 42.07 136.49 43.48 C 138.17 47.43 137.57 52.57 139.67 56.30 C 140.81 58.49 144.82 57.74 146.90 58.13 C 143.11 52.98 144.31 46.88 141.47 41.53 C 140.15 39.14 138.02 38.80 135.64 38.00 C 139.05 33.05 140.86 28.01 145.65 24.17 C 142.87 24.24 140.08 24.25 137.30 24.21 C 137.84 25.10 138.38 25.99 138.93 26.87 C 136.96 30.43 134.92 33.94 132.85 37.44 C 132.90 32.83 132.40 28.63 133.78 24.16 C 130.97 24.26 128.16 24.26 125.35 24.12 C 125.94 26.06 126.42 27.95 126.36 30.00 C 126.38 36.00 126.30 42.00 126.36 48.00 C 126.29 51.27 126.90 54.13 124.98 57.06 C 124.03 56.08 123.65 56.09 123.73 54.50 C 123.71 41.28 123.74 28.04 123.72 14.82 C 127.93 14.95 131.85 15.18 135.94 13.99 C 140.56 12.76 144.38 10.25 148.15 7.41 C 148.12 58.86 148.13 110.31 148.14 161.76 C 140.27 166.73 131.87 170.50 123.73 174.98 C 123.73 159.30 123.71 143.62 123.74 127.94 C 119.28 130.65 114.51 132.67 109.87 135.03 C 106.10 136.95 103.02 139.70 100.00 142.63 C 97.02 139.65 93.91 136.92 90.13 135.00 C 85.52 132.65 80.77 130.66 76.32 127.99 C 76.38 143.67 76.32 159.34 76.35 175.02 C 68.43 170.47 59.65 166.95 52.17 161.74 C 51.63 158.23 51.96 154.55 51.89 151.00 C 51.88 103.13 51.92 55.26 51.87 7.39 Z" fill="#ffffff" />
<path d="M 54.15 24.18 C 58.92 24.25 63.87 23.83 68.59 24.49 C 73.35 26.26 75.37 33.31 72.40 37.41 C 71.53 38.43 70.31 39.20 69.24 40.01 C 72.43 41.86 74.99 44.05 75.42 47.95 C 76.06 53.20 72.49 58.05 67.04 58.14 C 62.06 57.81 57.36 56.95 52.35 57.87 C 53.17 57.11 53.99 56.35 54.81 55.59 C 54.95 47.39 54.84 39.19 54.91 31.00 C 54.96 28.67 54.56 26.45 54.15 24.18 Z" fill="#020000" />
<path d="M 93.88 24.37 C 98.84 24.37 103.81 24.45 108.77 24.28 C 107.50 28.90 107.94 33.28 107.90 38.00 C 107.96 44.44 107.71 50.91 108.16 57.31 C 102.76 58.68 96.83 60.77 91.38 58.55 C 87.66 57.09 84.57 53.22 86.14 49.10 C 87.50 45.45 93.58 45.99 93.77 50.00 C 93.54 52.63 91.25 52.63 89.40 53.91 C 91.41 55.68 93.20 57.07 96.00 57.16 C 97.89 57.23 101.01 56.54 100.79 54.05 C 100.92 44.80 100.87 35.51 100.79 26.25 C 97.86 26.28 95.13 26.77 92.30 27.48 C 92.83 26.44 93.36 25.41 93.88 24.37 Z" fill="#ffffff" />
<path d="M 61.78 26.14 C 63.28 26.55 65.09 26.73 66.41 27.60 C 67.16 29.99 67.11 34.09 66.43 36.49 C 65.81 38.48 63.35 38.24 61.72 38.79 C 61.65 34.57 61.64 30.35 61.78 26.14 Z" fill="#ffffff" />
<path d="M 61.72 41.24 C 63.84 41.76 66.25 41.24 67.33 43.52 C 68.42 46.21 68.68 49.98 67.76 52.75 C 67.04 55.38 63.86 54.95 61.77 55.46 C 61.63 50.72 61.66 45.98 61.72 41.24 Z" fill="#ffffff" />
<path d="M 79.80 69.46 C 82.51 70.20 85.11 71.67 87.99 71.57 C 92.05 71.37 95.86 69.99 100.00 70.01 C 104.14 69.99 107.94 71.37 112.00 71.57 C 115.08 71.70 117.58 70.41 120.30 69.22 C 122.85 73.65 125.56 76.71 129.63 79.79 C 127.89 83.11 126.19 86.11 126.15 89.97 C 125.98 95.28 128.84 99.60 129.76 105.02 C 130.94 111.28 130.06 118.69 125.48 123.47 C 121.41 127.81 114.89 129.95 109.68 132.68 C 106.11 134.41 103.02 136.79 100.03 139.36 C 97.19 136.98 94.33 134.70 91.01 133.00 C 85.48 130.08 79.00 128.03 74.54 123.45 C 70.20 118.90 69.36 112.22 70.11 106.22 C 70.84 100.19 74.05 95.77 73.90 89.97 C 73.86 86.09 72.13 83.14 70.42 79.79 C 74.37 76.94 77.08 73.44 79.80 69.46 Z" fill="#ed1c24" />
<path d="M 95.07 77.89 C 96.76 79.04 98.36 80.27 100.02 81.50 C 101.68 80.27 103.35 79.04 105.03 77.83 C 104.41 79.81 103.77 81.78 103.14 83.76 C 104.84 84.98 106.54 86.19 108.23 87.41 C 106.13 87.41 104.03 87.42 101.93 87.42 C 101.30 89.42 100.67 91.41 100.02 93.40 C 99.37 91.41 98.72 89.41 98.08 87.42 C 96.00 87.41 93.93 87.40 91.86 87.37 C 93.53 86.18 95.20 85.00 96.87 83.82 C 96.25 81.84 95.62 79.89 95.07 77.89 Z" fill="#ffffff" />
<path d="M 86.80 90.43 C 85.60 93.97 84.09 97.18 84.52 101.03 C 85.21 108.07 90.94 114.04 97.97 114.92 C 106.13 116.14 114.08 110.15 115.40 102.06 C 116.20 97.75 114.65 94.31 113.20 90.40 C 114.94 92.51 116.78 94.54 118.05 96.97 C 120.88 102.37 120.97 108.96 118.32 114.44 C 114.86 121.72 107.07 126.40 98.99 125.87 C 88.21 125.58 79.14 115.80 79.84 104.99 C 80.03 99.10 83.01 94.66 86.80 90.43 Z" fill="#ffffff" />
<path d="M 70.50 142.63 C 70.70 148.98 70.55 155.33 70.61 161.68 C 71.78 162.86 72.92 164.06 74.04 165.29 C 69.95 165.70 65.86 165.64 61.76 165.39 C 62.77 164.04 64.23 162.76 64.87 161.20 C 65.26 157.33 64.87 153.40 65.02 149.51 C 63.73 149.47 62.44 149.44 61.14 149.40 C 61.17 148.65 61.20 147.89 61.22 147.13 C 64.38 145.58 67.09 143.61 70.50 142.63 Z" fill="#020000" />
<path d="M 92.70 144.29 C 99.70 149.11 99.12 161.60 91.24 165.25 C 87.36 166.86 80.34 165.21 80.40 160.03 C 81.03 157.95 82.48 157.87 84.25 157.19 C 84.62 156.90 85.01 156.63 85.41 156.36 C 83.88 155.48 81.59 154.92 80.74 153.27 C 79.03 150.40 80.04 146.58 82.55 144.54 C 85.55 142.33 89.60 142.15 92.70 144.29 Z" fill="#ffffff" />
<path d="M 107.35 143.43 C 110.52 142.02 114.21 143.03 116.59 145.43 C 121.57 150.37 121.30 159.38 115.93 163.92 C 112.82 166.49 108.18 166.52 105.07 163.93 C 98.66 158.67 99.56 146.91 107.35 143.43 Z" fill="#ffffff" />
<path d="M 131.18 143.13 C 134.92 141.96 140.93 143.30 142.61 147.24 C 143.63 150.52 141.51 151.86 139.49 153.92 C 141.17 155.52 143.66 157.32 143.08 159.98 C 141.50 166.48 130.98 168.11 127.22 162.76 C 125.67 160.62 126.10 157.06 129.05 156.61 C 130.91 156.00 132.12 158.34 133.21 159.47 C 132.59 160.75 131.97 162.03 131.36 163.32 C 133.19 163.14 135.02 163.77 136.40 162.36 C 137.86 160.81 137.86 158.13 136.48 156.55 C 134.67 155.38 132.39 154.88 130.43 154.01 C 132.30 153.36 134.32 152.95 136.12 152.10 C 137.81 150.24 137.56 147.08 135.45 145.66 C 134.25 145.35 132.97 145.28 131.74 145.13 C 132.03 146.58 132.86 148.28 132.59 149.77 C 131.82 152.33 127.92 152.72 126.79 150.23 C 125.20 146.98 128.20 143.96 131.18 143.13 Z" fill="#020000" />
<path d="M 87.32 145.23 C 91.88 144.05 91.89 154.79 87.39 153.61 C 84.55 152.28 84.83 146.85 87.32 145.23 Z" fill="#020000" />
<path d="M 110.11 144.53 C 114.24 147.44 113.95 152.51 113.72 157.02 C 113.37 159.59 112.93 162.77 110.16 163.82 C 108.67 162.40 107.88 160.80 107.51 158.79 C 106.77 153.71 106.78 148.72 110.11 144.53 Z" fill="#020000" />
<path d="M 91.64 155.34 C 90.99 158.90 90.78 161.85 87.81 164.25 C 87.38 162.19 87.02 160.13 86.38 158.12 C 86.37 157.45 86.46 156.82 86.64 156.21 C 88.31 155.91 89.98 155.62 91.64 155.34 Z" fill="#020000" />
</svg>