<?xml version="1.0" encoding="UTF-8" standalone="no"?>
<!DOCTYPE svg PUBLIC "-//W3C//DTD SVG 1.1//EN" "http://www.w3.org/Graphics/SVG/1.1/DTD/svg11.dtd">
<svg xmlns="http://www.w3.org/2000/svg" version="1.1" viewBox="0 0 200 200" width="200.0pt" height="200.0pt">
<path d="M 0.00 0.00 L 200.00 0.00 L 200.00 200.00 L 100.98 200.00 C 111.92 192.41 122.31 184.15 131.84 174.83 C 138.69 167.59 145.17 160.07 151.08 152.04 C 171.07 124.34 183.18 91.11 185.37 57.00 C 185.72 46.00 185.62 34.98 185.63 23.97 C 186.01 21.58 183.71 21.08 182.15 19.91 C 165.89 10.39 146.47 5.25 127.97 2.43 C 119.01 1.21 110.06 0.20 101.00 0.26 C 70.70 -0.58 39.96 7.20 13.55 22.05 C 13.38 49.44 15.60 76.85 24.41 102.94 C 35.88 136.81 57.24 167.50 85.38 189.62 C 90.06 193.24 94.74 197.10 99.90 200.00 L 0.00 200.00 L 0.00 0.00 Z" fill="#ffffff" />
<path d="M 101.00 0.26 C 110.06 0.20 119.01 1.21 127.97 2.43 C 146.47 5.25 165.89 10.39 182.15 19.91 C 183.71 21.08 186.01 21.58 185.63 23.97 C 185.62 34.98 185.72 46.00 185.37 57.00 C 183.18 91.11 171.07 124.34 151.08 152.04 C 145.17 160.07 138.69 167.59 131.84 174.83 C 122.31 184.15 111.92 192.41 100.98 200.00 L 99.90 200.00 C 94.74 197.10 90.06 193.24 85.38 189.62 C 57.24 167.50 35.88 136.81 24.41 102.94 C 15.60 76.85 13.38 49.44 13.55 22.05 C 39.96 7.20 70.70 -0.58 101.00 0.26 Z" fill="#231f20" />
<path d="M 83.04 7.67 C 86.32 14.49 89.57 21.33 92.74 28.20 C 90.46 28.32 88.19 28.47 85.91 28.60 C 85.44 27.51 84.96 26.42 84.49 25.33 C 82.23 25.51 79.97 25.67 77.71 25.81 C 77.29 27.05 76.86 28.28 76.44 29.51 C 74.33 29.65 72.23 29.79 70.13 29.91 C 71.80 22.75 74.16 15.78 75.86 8.63 C 78.26 8.33 80.65 8.01 83.04 7.67 Z" fill="#ffffff" />
<path d="M 120.10 8.34 C 122.97 9.43 125.61 11.69 125.76 14.97 C 126.01 18.47 126.33 23.03 123.90 25.87 C 118.90 31.69 107.92 30.01 105.09 22.83 C 103.28 16.74 105.10 10.31 111.27 7.70 C 114.08 7.50 117.46 7.20 120.10 8.34 Z" fill="#ffffff" />
<path d="M 144.74 12.72 C 146.76 13.39 148.75 14.13 150.76 14.83 C 149.93 17.23 149.10 19.63 148.31 22.04 C 151.33 20.43 154.24 18.65 157.11 16.78 C 159.66 17.67 162.34 18.51 164.86 19.58 C 161.99 21.64 158.65 23.13 155.53 24.78 C 156.82 29.69 158.11 34.65 158.94 39.65 C 156.47 38.82 154.01 37.97 151.54 37.16 C 150.96 34.09 150.47 31.03 150.11 27.92 C 148.67 28.53 147.24 29.16 145.82 29.79 C 145.29 31.43 144.77 33.07 144.24 34.72 C 142.21 34.13 140.17 33.56 138.13 33.01 C 139.88 26.24 142.15 19.22 144.74 12.72 Z" fill="#ffffff" />
<path d="M 51.61 13.34 C 54.19 19.84 56.24 26.58 58.63 33.17 C 56.45 33.79 54.29 34.41 52.08 34.90 C 50.63 30.01 48.87 25.15 47.19 20.32 C 45.08 21.03 42.98 21.75 40.88 22.47 C 42.24 27.51 44.00 32.40 45.82 37.29 C 43.78 38.10 41.72 38.89 39.67 39.68 C 37.18 33.07 35.22 26.30 32.59 19.75 C 39.00 17.83 45.18 15.10 51.61 13.34 Z" fill="#ffffff" />
<path d="M 113.54 12.54 C 114.85 12.46 116.17 12.38 117.48 12.32 C 118.20 13.42 119.49 14.62 119.60 15.98 C 119.72 18.70 120.11 21.81 117.61 23.62 C 115.90 25.38 113.68 23.66 111.68 23.28 C 110.60 19.33 110.14 15.53 113.54 12.54 Z" fill="#231f20" />
<path d="M 79.95 13.77 C 81.08 16.17 82.03 18.65 82.85 21.18 C 81.31 21.25 79.78 21.32 78.24 21.38 C 78.75 18.83 79.31 16.29 79.95 13.77 Z" fill="#231f20" />
<path d="M 94.33 22.42 C 96.44 22.41 98.56 22.41 100.67 22.42 C 100.65 24.38 100.61 26.35 100.57 28.32 C 98.53 28.31 96.49 28.31 94.45 28.31 C 94.41 26.35 94.36 24.38 94.33 22.42 Z" fill="#ffffff" />
<path d="M 67.27 25.18 C 67.68 27.22 68.06 29.25 68.48 31.28 C 66.44 31.50 64.35 31.86 62.30 31.77 C 61.71 30.12 61.42 28.30 61.06 26.58 C 63.13 26.10 65.20 25.63 67.27 25.18 Z" fill="#ffffff" />
<path d="M 129.61 25.18 C 131.65 25.27 133.60 25.58 135.64 25.83 C 135.23 27.85 134.80 29.86 134.35 31.86 C 132.26 31.46 130.19 31.02 128.11 30.54 C 128.57 28.76 128.95 26.90 129.61 25.18 Z" fill="#ffffff" />
<path d="M 86.00 34.48 C 95.99 34.05 106.05 34.03 116.04 34.60 C 134.68 36.17 152.24 42.07 168.99 50.18 C 172.89 52.14 177.11 53.83 180.69 56.34 C 181.14 62.11 179.88 68.18 179.08 73.89 C 174.93 101.10 163.92 126.64 148.12 149.08 C 135.72 166.49 120.23 181.40 102.80 193.71 C 101.37 194.58 100.48 195.45 98.88 194.28 C 78.42 180.34 60.74 162.44 47.50 141.48 C 36.87 124.51 28.70 105.82 23.88 86.37 C 21.51 76.54 20.36 66.57 19.43 56.52 C 39.73 45.20 62.64 36.16 86.00 34.48 Z" fill="#ffffff" />
<path d="M 162.90 35.91 C 164.84 36.44 166.68 37.20 168.56 37.92 C 167.74 39.79 166.93 41.66 166.11 43.53 C 164.14 42.67 162.18 41.82 160.20 40.98 C 161.00 39.29 161.75 37.38 162.90 35.91 Z" fill="#ffffff" />
<path d="M 81.53 42.61 L 81.31 43.97 C 86.21 45.77 88.55 49.66 92.22 52.98 C 95.05 56.90 97.28 61.18 99.95 65.20 C 101.76 62.39 103.61 59.64 104.96 56.56 C 105.43 56.08 105.90 55.59 106.37 55.11 C 106.79 54.39 107.21 53.68 107.62 52.96 C 111.29 49.63 113.60 45.77 118.52 43.99 C 118.54 43.44 118.55 42.89 118.57 42.33 C 122.49 40.82 125.60 38.75 130.03 39.27 C 132.94 39.19 134.29 41.01 136.28 42.75 C 138.26 43.97 139.85 45.27 141.40 47.03 C 140.07 47.73 138.73 48.53 137.32 49.07 C 134.91 49.87 132.14 49.41 129.76 50.24 C 127.82 51.19 126.07 52.52 124.22 53.63 C 123.85 54.53 123.48 55.43 123.12 56.33 C 122.28 56.36 121.44 56.39 120.60 56.42 C 120.58 57.78 120.55 59.13 120.53 60.49 L 118.33 60.51 C 118.52 61.72 118.71 62.93 118.90 64.15 C 118.48 64.77 118.05 65.39 117.63 66.01 C 118.11 66.61 118.60 67.21 119.08 67.81 C 121.90 65.36 124.46 62.16 127.72 60.33 C 129.01 60.12 130.42 60.23 131.73 60.27 C 132.27 65.51 130.22 69.19 126.52 72.65 C 125.17 72.75 123.73 71.91 122.46 71.50 C 116.55 69.09 110.35 68.37 104.05 67.78 C 93.67 66.86 83.26 69.09 73.59 72.76 C 70.84 69.86 68.95 66.96 67.74 63.10 C 67.27 63.60 66.81 64.11 66.34 64.62 C 66.65 68.64 69.25 70.68 70.95 74.01 C 68.72 75.14 66.44 76.13 64.29 77.42 C 64.42 79.78 64.69 82.07 65.43 84.33 C 64.04 86.09 62.72 87.89 61.42 89.71 C 60.06 82.62 60.25 75.21 60.64 68.04 C 61.35 63.84 61.10 59.80 66.41 59.25 C 66.61 60.14 66.81 61.02 67.03 61.90 C 68.07 61.04 69.10 60.17 70.13 59.30 C 74.74 61.35 77.53 65.08 81.40 68.09 C 81.44 65.55 81.31 63.02 81.32 60.49 L 79.41 60.52 C 79.38 59.20 79.36 57.87 79.33 56.55 C 78.48 56.46 77.63 56.36 76.78 56.26 C 76.36 55.38 75.95 54.49 75.53 53.61 C 73.63 52.46 71.84 51.01 69.81 50.11 C 67.32 49.44 64.47 49.84 62.03 48.99 C 60.64 48.25 59.03 48.03 59.24 46.10 C 61.42 43.78 64.35 41.94 66.91 40.02 C 72.53 37.79 76.61 40.35 81.53 42.61 Z" fill="#231f20" />
<path d="M 133.37 58.66 C 136.04 60.21 138.44 61.99 141.41 62.94 C 146.38 64.65 148.77 70.02 148.47 75.01 C 148.54 80.69 145.35 84.77 141.32 88.36 C 142.48 80.02 142.90 69.49 138.54 61.96 C 139.66 71.34 140.17 80.51 138.37 89.85 C 137.16 87.95 135.88 86.15 134.43 84.43 C 134.96 82.31 135.91 80.14 135.32 77.94 C 134.09 75.84 130.87 75.16 128.87 73.94 C 130.26 71.52 132.44 69.12 133.28 66.47 C 133.67 63.92 133.31 61.23 133.37 58.66 Z" fill="#231f20" />
<path d="M 60.64 61.78 C 58.98 67.48 57.59 73.00 57.64 79.00 C 57.68 82.15 58.30 85.29 58.58 88.44 C 52.72 83.74 49.66 76.51 52.30 69.16 C 53.79 65.24 56.83 63.18 60.64 61.78 Z" fill="#231f20" />
<path d="M 109.79 70.82 C 116.56 71.95 123.20 73.95 129.51 76.66 C 130.67 77.25 132.33 77.85 132.95 79.07 C 132.36 82.80 130.40 86.38 129.03 89.88 C 124.26 88.19 120.01 85.74 115.02 84.57 C 101.52 81.27 86.53 82.78 74.13 89.15 C 73.24 89.59 72.33 89.77 71.40 89.71 C 69.36 86.39 68.17 82.43 66.98 78.75 C 69.08 77.47 71.21 76.28 73.51 75.39 C 85.04 70.97 97.51 69.27 109.79 70.82 Z" fill="#231f20" />
<path d="M 92.05 72.08 C 93.92 75.28 95.57 78.53 97.05 81.92 C 95.36 81.61 93.70 81.17 92.00 80.91 C 90.30 81.43 88.72 82.35 87.10 83.07 C 87.67 80.04 88.10 76.85 89.19 73.96 C 90.06 73.25 91.02 72.63 92.05 72.08 Z" fill="#ffffff" />
<path d="M 104.65 73.71 C 106.92 71.72 110.41 72.39 112.26 74.60 C 112.98 76.32 112.90 78.68 112.22 80.40 C 110.82 82.53 107.90 82.38 105.67 82.81 C 104.50 81.24 103.36 79.66 102.27 78.04 C 102.99 76.59 103.65 74.99 104.65 73.71 Z" fill="#ffffff" />
<path d="M 107.99 74.48 C 110.74 74.96 110.20 79.12 108.54 80.54 C 107.28 80.28 106.23 79.30 105.15 78.60 C 105.85 77.20 106.35 75.01 107.99 74.48 Z" fill="#231f20" />
<path d="M 77.60 76.18 C 79.00 78.84 81.14 82.34 80.55 85.42 C 77.85 86.35 77.09 81.11 76.07 79.40 C 75.05 79.48 74.04 79.55 73.03 79.62 C 73.62 82.08 74.55 84.44 75.21 86.88 L 73.00 88.13 C 71.77 85.25 70.53 82.38 69.26 79.52 C 71.88 78.24 74.70 76.62 77.60 76.18 Z" fill="#ffffff" />
<path d="M 120.09 75.68 L 122.74 75.37 C 122.40 76.74 122.02 78.10 121.62 79.45 C 123.05 78.74 124.48 77.94 126.00 77.46 C 127.12 77.82 128.20 78.38 129.27 78.88 C 127.90 79.44 126.52 80.00 125.14 80.56 C 125.36 82.90 125.57 85.25 125.74 87.60 L 122.92 86.04 C 122.63 84.66 122.40 83.26 122.23 81.85 C 120.54 82.97 118.83 84.04 117.06 85.01 C 117.50 81.73 118.49 78.57 120.09 75.68 Z" fill="#ffffff" />
<path d="M 51.73 84.94 C 54.99 88.47 59.57 92.36 60.54 97.19 C 61.89 102.38 62.53 107.85 63.37 113.15 C 60.04 112.08 58.01 110.73 56.40 107.60 C 53.05 100.92 52.56 92.28 51.73 84.94 Z" fill="#231f20" />
<path d="M 98.99 84.92 C 109.34 84.86 119.84 87.10 128.22 93.45 C 128.76 93.70 129.29 93.94 129.83 94.19 C 130.54 91.60 130.70 88.49 134.17 88.52 C 137.04 90.02 137.78 92.96 137.45 96.00 C 136.80 101.45 135.27 106.83 133.99 112.16 C 131.48 107.03 129.68 101.70 129.70 95.93 C 129.21 95.26 128.71 94.60 128.20 93.93 C 127.08 98.86 125.22 103.14 122.22 107.20 C 116.00 115.69 108.22 123.25 100.01 129.80 C 92.67 123.72 85.76 117.64 79.93 110.03 C 76.55 105.50 73.45 101.09 72.22 95.46 C 71.58 95.34 70.94 95.22 70.30 95.11 C 70.26 101.15 68.43 106.75 65.96 112.20 C 64.44 106.31 62.50 100.10 62.49 93.98 C 62.31 91.14 64.22 89.89 65.94 88.03 C 69.20 90.22 69.62 90.78 70.03 94.91 C 77.63 88.13 89.02 85.23 98.99 84.92 Z" fill="#231f20" />
<path d="M 147.83 84.94 C 147.56 92.39 146.77 100.73 143.47 107.53 C 141.90 110.70 139.81 112.05 136.51 113.20 C 137.39 107.74 137.90 102.09 139.41 96.77 C 140.73 91.79 144.63 88.91 147.83 84.94 Z" fill="#231f20" />
<path d="M 95.45 87.42 C 98.49 87.10 101.60 87.24 104.65 87.27 C 104.67 97.85 104.60 108.44 104.70 119.02 C 104.54 120.74 105.09 122.33 103.50 123.47 C 102.21 124.38 100.27 126.71 98.72 125.18 C 96.94 123.76 95.04 122.61 95.30 120.04 C 95.46 109.18 95.16 98.28 95.45 87.42 Z" fill="#ffffff" />
<path d="M 87.40 88.56 C 87.42 97.40 87.51 106.26 87.35 115.11 C 85.50 112.89 82.55 110.55 81.48 107.86 C 81.29 102.17 81.45 96.42 81.48 90.72 C 83.43 89.91 85.41 89.25 87.40 88.56 Z" fill="#ffffff" />
<path d="M 112.72 88.84 C 113.74 89.12 114.75 89.40 115.76 89.69 C 116.71 89.97 117.66 90.26 118.61 90.55 C 118.39 96.49 118.92 102.58 118.41 108.47 C 116.90 110.91 114.70 112.98 112.76 115.09 C 112.63 106.34 112.69 97.59 112.72 88.84 Z" fill="#ffffff" />
<path d="M 71.67 101.96 L 71.98 102.49 C 73.84 105.95 75.89 108.92 78.49 111.88 C 78.24 117.21 78.95 121.91 75.78 126.57 C 75.40 123.56 75.47 120.77 74.33 117.92 C 73.32 115.07 71.57 112.58 70.45 109.80 C 69.84 107.35 70.95 104.33 71.67 101.96 Z" fill="#231f20" />
<path d="M 128.19 101.94 L 128.42 102.66 C 129.21 105.77 130.53 108.53 128.66 111.56 C 126.05 116.20 124.00 120.48 124.33 125.98 C 123.81 125.71 123.30 125.44 122.78 125.17 C 121.91 121.77 121.45 118.51 121.45 114.99 C 121.53 113.58 121.16 112.29 122.14 111.15 C 124.39 108.20 126.58 105.33 128.19 101.94 Z" fill="#231f20" />
<path d="M 144.76 109.79 C 142.60 116.55 140.36 122.76 140.48 130.00 C 140.31 136.38 142.18 141.97 143.68 148.07 C 141.29 146.81 139.03 145.85 137.24 143.75 C 135.24 141.43 134.30 138.05 133.19 135.23 L 131.09 138.45 C 129.25 136.28 127.51 134.31 127.02 131.40 C 125.92 125.66 128.02 119.10 129.80 113.66 C 130.20 113.55 130.60 113.43 131.01 113.32 C 131.37 117.28 133.22 120.19 131.84 124.00 C 130.72 128.23 131.36 132.23 132.09 136.47 C 132.83 135.05 133.67 133.90 133.48 132.20 C 133.36 127.00 133.85 122.08 136.34 117.41 C 138.21 114.25 141.84 111.95 144.76 109.79 Z" fill="#231f20" />
<path d="M 55.16 109.75 C 56.15 110.48 57.13 111.22 58.10 111.97 C 60.77 114.13 63.24 116.09 64.50 119.42 C 66.91 125.90 67.19 133.41 64.92 139.96 C 63.33 144.01 60.07 146.32 56.22 148.02 C 57.57 142.35 59.29 136.97 59.43 131.00 C 59.65 125.13 58.10 119.10 56.30 113.55 C 55.91 112.29 55.53 111.02 55.16 109.75 Z" fill="#231f20" />
<path d="M 69.12 112.85 C 69.41 113.26 69.69 113.68 69.96 114.11 C 72.48 119.74 73.86 126.77 72.43 132.84 C 71.81 135.71 69.82 137.17 67.53 138.74 C 67.95 134.93 68.96 130.77 68.60 126.97 C 68.41 124.92 67.64 123.02 67.36 121.00 C 67.74 118.25 68.60 115.58 69.12 112.85 Z" fill="#231f20" />
<path d="M 80.83 115.95 C 87.43 121.19 92.94 127.96 99.95 132.61 C 107.11 127.88 112.28 121.22 119.08 115.92 C 119.52 120.85 119.65 126.07 122.85 130.13 C 125.36 133.31 126.12 137.18 128.82 140.15 C 131.96 143.68 135.77 145.68 139.80 147.97 C 137.78 151.31 135.55 154.27 131.85 155.85 C 126.99 158.21 122.24 157.69 117.03 157.29 C 114.31 159.31 112.08 160.26 108.74 160.94 C 107.86 161.75 106.99 162.57 106.12 163.39 C 100.54 164.84 95.49 165.33 91.00 161.02 C 87.88 160.25 85.45 159.26 82.90 157.29 C 77.71 157.67 72.98 158.23 68.12 155.89 C 64.40 154.30 62.10 151.35 60.10 147.97 C 64.14 145.63 67.97 143.64 71.12 140.10 C 72.94 138.13 73.72 135.86 74.85 133.50 C 75.94 131.19 77.90 129.21 78.95 126.87 C 80.31 123.24 80.43 119.75 80.83 115.95 Z" fill="#231f20" />
<path d="M 105.61 135.34 L 105.85 135.60 C 110.56 140.83 114.00 148.14 114.92 155.12 C 109.25 149.82 106.61 142.91 105.61 135.34 Z" fill="#ffffff" />
<path d="M 93.76 135.55 C 93.55 143.06 90.53 150.36 84.56 155.09 C 86.23 147.99 89.20 141.27 93.76 135.55 Z" fill="#ffffff" />
<path d="M 97.26 144.96 C 97.42 147.43 97.65 150.03 97.26 152.48 C 96.59 155.31 94.98 157.63 93.35 159.98 C 93.38 154.65 95.00 149.73 97.26 144.96 Z" fill="#ffffff" />
<path d="M 102.71 144.97 C 104.83 149.82 106.53 154.69 106.47 160.06 C 105.01 157.82 103.43 155.39 102.69 152.80 C 102.21 150.27 102.49 147.53 102.71 144.97 Z" fill="#ffffff" />
<path d="M 113.53 163.72 C 115.20 163.24 117.04 163.26 118.76 163.12 C 118.64 163.92 118.51 164.72 118.38 165.52 C 117.09 165.50 115.80 165.48 114.51 165.46 C 114.40 166.19 114.30 166.92 114.19 167.65 C 115.46 167.24 116.72 166.82 118.02 166.54 C 120.77 166.75 122.68 170.46 120.50 172.57 C 118.74 174.94 115.01 175.41 113.20 172.84 C 111.20 170.47 110.19 165.40 113.53 163.72 Z" fill="#231f20" />
<path d="M 86.77 163.32 C 85.58 167.40 83.94 171.31 82.02 175.10 C 81.37 174.38 80.74 173.63 80.14 172.87 C 80.50 170.81 81.34 168.78 82.00 166.79 L 78.42 166.49 C 80.51 163.80 83.68 163.92 86.77 163.32 Z" fill="#231f20" />
<path d="M 105.06 165.49 C 106.15 166.16 108.36 166.72 108.60 168.18 C 109.46 170.60 106.48 172.61 105.10 174.28 C 107.42 174.57 109.31 173.35 110.32 176.22 C 106.91 176.88 103.52 177.45 100.05 177.57 C 101.73 174.14 104.55 171.56 106.06 168.03 C 104.62 168.65 103.21 169.31 101.80 169.99 C 101.17 170.13 100.54 170.26 99.90 170.39 C 100.24 169.37 100.33 167.91 101.07 167.12 C 102.26 166.35 103.74 165.97 105.06 165.49 Z" fill="#231f20" />
<path d="M 93.12 165.46 C 92.62 167.00 92.10 168.53 91.55 170.06 C 91.86 170.54 92.16 171.03 92.47 171.51 C 93.28 171.45 94.09 171.39 94.91 171.33 C 94.52 170.00 94.02 168.74 93.38 167.55 C 93.96 166.92 94.54 166.31 95.12 165.69 C 98.93 168.53 98.76 175.45 94.08 177.21 C 91.38 177.84 89.85 176.00 87.74 174.73 C 90.12 173.77 90.99 174.24 93.19 175.14 C 93.67 174.52 94.15 173.89 94.63 173.26 C 93.36 173.33 92.10 173.40 90.84 173.47 C 89.97 171.84 87.88 170.06 89.02 168.09 C 89.93 166.91 91.30 166.03 93.12 165.46 Z" fill="#231f20" />
<path d="M 118.54 172.86 C 117.52 172.42 116.51 171.99 115.56 171.43 C 115.29 169.67 115.02 169.41 116.77 168.47 C 119.08 169.36 118.29 170.80 118.54 172.86 Z" fill="#ffffff" />
<path d="M 92.36 179.45 C 94.76 179.54 97.06 179.76 99.38 180.40 C 99.35 182.98 99.39 185.56 99.42 188.15 C 98.31 188.55 97.20 188.96 96.09 189.37 C 96.26 187.93 96.46 186.51 96.69 185.08 C 96.06 185.15 95.43 185.21 94.81 185.28 C 94.78 186.77 94.70 188.24 94.58 189.72 C 90.90 188.45 92.68 182.56 92.36 179.45 Z" fill="#231f20" />
<path d="M 107.40 179.36 C 107.61 180.46 107.81 181.56 108.01 182.65 C 106.49 182.55 104.97 182.44 103.45 182.34 C 103.52 183.79 103.59 185.24 103.68 186.68 C 104.94 186.34 106.19 185.98 107.45 185.61 C 107.72 186.51 107.99 187.41 108.26 188.31 C 106.25 188.70 104.19 190.22 102.49 188.44 C 100.16 186.66 99.88 183.00 101.85 180.86 C 103.19 179.11 105.44 179.69 107.40 179.36 Z" fill="#231f20" />
</svg>