<?xml version="1.0" encoding="UTF-8" standalone="no"?>
<!DOCTYPE svg PUBLIC "-//W3C//DTD SVG 1.1//EN" "http://www.w3.org/Graphics/SVG/1.1/DTD/svg11.dtd">
<svg xmlns="http://www.w3.org/2000/svg" version="1.1" viewBox="0 0 200 200" width="200.0pt" height="200.0pt">
<path d="M 0.00 0.00 L 96.74 0.00 C 86.57 0.56 76.49 2.36 66.84 5.64 C 42.02 14.32 21.11 33.06 9.78 56.78 C 3.99 68.34 1.42 80.86 0.00 93.61 L 0.00 0.00 Z" fill="#ffffff" />
<path d="M 96.74 0.00 L 103.39 0.00 L 104.53 0.07 L 105.28 0.12 C 119.44 1.16 134.02 4.61 146.51 11.52 C 172.60 25.02 191.71 50.33 197.89 79.02 C 198.91 83.88 199.49 88.73 200.00 93.67 L 200.00 106.89 C 198.44 124.82 192.50 142.35 182.07 157.07 C 167.13 178.72 143.51 193.79 117.63 198.44 C 116.54 198.61 115.43 198.54 114.29 198.23 C 114.25 197.76 114.22 197.29 114.19 196.83 C 148.16 192.36 178.11 168.61 190.84 136.89 C 196.05 123.89 198.69 110.02 198.06 96.01 C 197.11 73.82 188.43 51.96 173.66 35.34 C 162.45 22.44 147.87 12.89 131.79 7.20 C 116.99 2.20 101.19 1.04 85.75 3.07 C 67.18 5.58 49.39 13.99 35.34 26.33 C 22.01 37.96 12.09 53.19 6.58 69.98 C 0.18 90.44 0.51 113.09 7.71 133.30 C 11.64 143.64 16.98 153.42 24.06 161.95 C 37.31 178.19 55.69 189.91 76.03 195.00 C 87.58 198.29 99.20 198.12 111.08 197.48 C 112.21 197.37 113.40 198.00 112.30 199.09 C 109.05 199.87 105.48 199.72 102.14 200.00 L 97.71 200.00 C 72.54 199.41 47.66 188.99 29.85 171.15 C 19.83 161.53 12.29 149.75 6.98 136.95 C 2.95 126.49 0.73 115.52 0.00 104.34 L 0.00 93.61 C 1.42 80.86 3.99 68.34 9.78 56.78 C 21.11 33.06 42.02 14.32 66.84 5.64 C 76.49 2.36 86.57 0.56 96.74 0.00 Z" fill="#df0108" />
<path d="M 103.39 0.00 L 200.00 0.00 L 200.00 93.67 C 199.49 88.73 198.91 83.88 197.89 79.02 C 191.71 50.33 172.60 25.02 146.51 11.52 C 134.02 4.61 119.44 1.16 105.28 0.12 L 104.53 0.07 L 103.39 0.00 Z" fill="#ffffff" />
<path d="M 131.79 7.20 C 147.87 12.89 162.45 22.44 173.66 35.34 C 188.43 51.96 197.11 73.82 198.06 96.01 C 198.69 110.02 196.05 123.89 190.84 136.89 C 178.11 168.61 148.16 192.36 114.19 196.83 C 114.22 197.29 114.25 197.76 114.29 198.23 C 115.43 198.54 116.54 198.61 117.63 198.44 C 143.51 193.79 167.13 178.72 182.07 157.07 C 192.50 142.35 198.44 124.82 200.00 106.89 L 200.00 200.00 L 102.14 200.00 C 105.48 199.72 109.05 199.87 112.30 199.09 C 113.40 198.00 112.21 197.37 111.08 197.48 C 99.20 198.12 87.58 198.29 76.03 195.00 C 55.69 189.91 37.31 178.19 24.06 161.95 C 16.98 153.42 11.64 143.64 7.71 133.30 C 0.51 113.09 0.18 90.44 6.58 69.98 C 12.09 53.19 22.01 37.96 35.34 26.33 C 49.39 13.99 67.18 5.58 85.75 3.07 C 101.19 1.04 116.99 2.20 131.79 7.20 Z" fill="#ffffff" />
<path d="M 93.93 8.03 C 95.37 9.68 93.85 12.41 93.25 14.15 C 94.10 15.16 94.94 16.16 95.79 17.17 C 94.62 17.23 93.45 17.28 92.28 17.32 C 91.10 16.18 89.90 15.04 88.69 13.92 C 88.64 15.29 88.61 16.66 88.58 18.03 C 87.61 18.11 86.64 18.20 85.67 18.29 C 85.22 14.64 84.71 11.00 84.30 7.34 C 87.08 7.09 91.95 5.37 93.93 8.03 Z" fill="#df0108" />
<path d="M 102.50 5.99 L 105.10 6.50 C 106.60 8.41 107.92 10.40 109.28 12.42 C 109.42 10.46 109.57 8.50 109.72 6.54 L 112.56 6.66 C 112.52 10.63 112.35 14.52 111.43 18.39 C 108.09 16.96 106.80 14.18 104.76 11.44 C 104.63 13.37 104.50 15.31 104.37 17.24 L 101.47 17.17 C 101.58 14.72 101.64 12.25 101.92 9.82 C 102.10 8.54 102.30 7.26 102.50 5.99 Z" fill="#df0108" />
<path d="M 76.62 9.01 C 76.70 9.96 76.78 10.92 76.86 11.87 C 75.35 12.22 73.83 12.56 72.31 12.89 C 72.26 13.49 72.21 14.09 72.17 14.68 C 74.47 14.44 76.87 12.45 78.34 15.21 C 76.69 15.80 75.04 16.37 73.38 16.91 C 73.35 17.50 73.31 18.08 73.28 18.66 C 75.81 18.37 79.23 15.70 80.27 19.38 C 77.27 20.47 74.26 21.41 71.10 21.94 C 70.17 18.50 69.10 15.10 67.98 11.72 C 70.85 10.78 73.72 9.85 76.62 9.01 Z" fill="#df0108" />
<path d="M 91.06 9.53 C 91.36 10.10 91.66 10.66 91.96 11.23 C 90.79 11.68 89.62 12.13 88.45 12.59 C 88.17 11.56 87.89 10.53 87.62 9.51 C 88.76 9.50 89.92 9.49 91.06 9.53 Z" fill="#ffffff" />
<path d="M 124.78 9.56 C 125.75 9.71 126.72 9.86 127.68 10.03 C 128.26 14.14 128.75 18.25 128.88 22.40 C 126.53 21.49 126.19 21.14 125.13 18.82 C 122.39 18.28 119.82 18.81 117.09 19.15 C 119.52 15.86 122.04 12.61 124.78 9.56 Z" fill="#df0108" />
<path d="M 61.23 15.00 C 61.44 15.71 61.64 16.41 61.84 17.11 C 60.93 17.55 60.03 17.98 59.12 18.42 C 60.45 20.98 61.76 23.55 62.94 26.18 C 61.98 26.45 61.03 26.72 60.08 26.99 C 58.89 24.77 57.70 22.56 56.51 20.35 C 55.19 20.52 53.87 20.67 52.56 20.82 C 52.51 20.18 52.47 19.53 52.42 18.89 C 55.31 17.33 57.98 15.70 61.23 15.00 Z" fill="#df0108" />
<path d="M 146.63 21.16 C 144.07 21.45 142.93 19.87 141.09 18.52 C 140.21 18.96 139.33 19.40 138.46 19.84 C 138.46 21.34 138.50 22.84 138.55 24.35 C 139.87 24.41 141.18 24.47 142.50 24.52 C 142.85 25.48 143.20 26.44 143.55 27.40 C 141.16 27.21 139.05 27.61 137.04 26.03 C 133.84 23.61 134.59 18.06 138.22 16.41 C 141.62 14.35 146.39 17.33 146.63 21.16 Z" fill="#df0108" />
<path d="M 90.48 21.68 C 99.24 20.76 108.25 21.01 116.88 22.94 C 132.92 26.15 147.83 35.13 158.78 47.20 C 169.43 59.10 176.33 74.15 178.43 89.97 C 179.18 100.87 179.27 111.38 175.91 121.90 C 171.24 137.88 161.59 152.17 148.39 162.33 C 137.41 170.97 123.80 176.49 109.99 178.37 C 100.79 179.08 91.05 179.21 82.05 176.90 C 75.99 175.44 70.10 173.18 64.48 170.49 C 46.15 161.35 31.90 144.91 25.21 125.58 C 20.69 111.75 19.85 96.80 22.99 82.59 C 25.84 68.82 33.10 55.89 42.66 45.65 C 55.27 32.46 72.28 23.69 90.48 21.68 Z" fill="#df0108" />
<path d="M 91.01 23.61 C 98.10 23.06 105.25 23.17 112.32 23.93 C 111.50 24.54 110.68 25.15 109.86 25.76 C 103.17 25.07 96.18 25.06 89.50 25.76 C 76.05 27.76 62.75 33.55 52.31 42.29 C 39.64 52.47 30.81 67.28 26.97 83.00 C 24.83 91.32 25.06 100.47 25.57 108.99 C 28.25 130.96 41.05 151.43 59.89 163.15 C 83.62 178.62 116.34 178.60 140.09 163.18 C 153.35 154.96 163.50 142.46 169.47 128.11 C 175.08 113.82 176.44 97.93 172.88 82.96 C 169.85 68.75 161.90 55.55 151.45 45.55 C 140.36 35.19 125.85 27.91 110.77 25.93 C 111.58 25.32 112.39 24.71 113.21 24.10 C 133.90 27.87 152.79 40.02 164.26 57.72 C 174.95 73.72 179.19 94.07 175.86 113.01 C 173.73 124.16 169.74 134.81 163.03 144.03 C 153.08 158.43 137.84 169.33 120.93 173.93 C 105.51 178.47 88.83 177.74 73.75 172.23 C 44.26 161.89 22.85 132.41 23.25 101.00 C 22.86 88.00 25.80 75.44 32.01 64.01 C 43.48 41.91 66.26 26.31 91.01 23.61 Z" fill="#ffffff" />
<path d="M 46.03 24.08 C 48.33 26.63 50.39 29.39 52.53 32.06 C 51.79 32.61 51.05 33.15 50.30 33.70 C 47.93 33.17 45.56 32.64 43.18 32.16 C 44.34 33.74 45.51 35.32 46.66 36.90 C 45.81 37.37 44.95 37.84 44.10 38.31 C 41.90 35.48 39.65 32.69 37.34 29.95 C 38.06 29.32 38.79 28.70 39.52 28.07 C 41.92 28.63 44.31 29.22 46.70 29.84 C 45.46 28.14 44.24 26.43 43.04 24.71 C 44.03 24.49 45.03 24.28 46.03 24.08 Z" fill="#df0108" />
<path d="M 153.93 23.14 C 154.71 23.78 155.50 24.41 156.28 25.05 C 154.25 27.91 152.20 30.75 150.20 33.63 C 149.47 33.51 148.74 33.39 148.01 33.27 C 148.42 30.01 150.44 27.97 152.26 25.41 C 152.82 24.65 153.37 23.90 153.93 23.14 Z" fill="#df0108" />
<path d="M 102.86 31.34 C 104.38 32.23 105.69 33.57 107.00 34.75 C 109.87 33.93 112.31 32.74 115.12 34.55 C 117.97 36.10 118.39 38.68 119.33 41.49 C 117.85 41.10 116.45 40.66 114.94 40.46 C 112.49 40.54 110.46 42.96 110.50 45.38 C 110.24 50.79 110.49 56.24 110.43 61.66 C 104.86 61.34 99.33 61.44 93.76 61.63 C 93.70 56.09 93.96 50.53 93.68 45.00 C 93.60 43.34 93.17 42.22 91.72 41.29 C 89.48 39.64 87.22 41.12 84.79 41.54 C 85.86 38.85 86.26 36.37 88.91 34.78 C 91.74 32.65 94.32 33.91 97.31 34.72 C 98.90 33.42 100.59 31.00 102.86 31.34 Z" fill="#ffffff" />
<path d="M 160.51 32.61 C 164.90 31.15 169.34 34.25 168.76 38.99 C 168.32 43.76 161.96 45.39 158.87 42.09 C 155.93 39.23 156.70 34.27 160.51 32.61 Z" fill="#df0108" />
<path d="M 165.17 35.75 C 165.72 37.11 166.23 38.08 165.33 39.45 C 164.51 41.37 162.00 40.51 160.35 40.67 C 160.38 38.96 160.43 37.24 160.59 35.53 C 162.18 35.43 163.66 35.10 165.17 35.75 Z" fill="#ffffff" />
<path d="M 31.84 35.89 C 34.42 38.42 37.04 40.87 39.77 43.23 C 38.96 43.93 38.16 44.62 37.35 45.32 C 34.78 42.79 32.10 40.37 29.43 37.94 C 30.24 37.26 31.04 36.57 31.84 35.89 Z" fill="#df0108" />
<path d="M 176.55 45.12 C 178.76 47.49 175.98 51.39 175.41 54.08 C 177.01 53.11 178.62 52.14 180.22 51.16 C 180.67 52.07 181.13 52.98 181.58 53.89 C 178.27 55.92 175.07 58.08 171.57 59.80 C 171.12 56.34 172.22 53.37 173.32 50.18 C 171.74 51.29 170.13 52.38 168.53 53.47 C 168.00 52.62 167.46 51.76 166.93 50.91 C 170.00 48.98 173.04 46.14 176.55 45.12 Z" fill="#df0108" />
<path d="M 91.39 47.03 C 91.41 50.33 91.41 53.63 91.39 56.93 C 86.54 58.81 82.69 61.09 80.19 65.90 C 87.52 64.93 94.54 63.29 102.00 63.41 C 107.93 63.23 113.66 64.08 119.39 65.53 C 119.45 68.31 119.89 73.79 117.37 75.60 C 111.25 74.52 105.30 73.95 99.08 74.39 C 93.14 74.56 87.61 76.76 81.72 76.83 C 81.51 73.81 81.48 70.84 81.80 67.83 C 81.19 67.20 80.58 66.57 79.97 65.94 C 79.15 70.53 78.70 74.88 81.00 79.14 C 83.24 83.57 87.13 85.55 91.43 87.56 C 91.38 93.34 91.42 99.12 91.39 104.89 C 83.34 102.63 75.94 99.02 70.45 92.53 C 62.69 83.80 62.55 69.75 69.52 60.53 C 74.60 53.42 83.13 49.18 91.39 47.03 Z" fill="#ffffff" />
<path d="M 113.29 46.83 C 119.76 49.36 125.16 53.43 131.02 57.01 C 133.46 58.51 135.94 57.42 138.55 57.06 C 138.29 58.75 138.69 61.07 137.46 62.37 C 135.20 65.21 132.86 67.82 131.43 71.22 C 129.32 75.53 128.61 80.33 126.69 84.68 C 125.59 87.17 122.51 88.34 120.05 87.16 C 117.46 85.90 116.63 82.58 117.95 80.09 C 119.75 76.00 121.94 72.67 121.51 67.95 C 121.30 62.53 117.50 59.68 113.21 57.15 C 113.19 53.71 113.20 50.27 113.29 46.83 Z" fill="#ffffff" />
<path d="M 29.11 51.11 C 30.21 51.30 31.29 51.55 32.37 51.86 C 31.85 52.84 31.27 53.79 30.65 54.70 C 29.85 54.44 29.09 54.10 28.38 53.70 C 28.37 52.82 28.62 51.95 29.11 51.11 Z" fill="#df0108" />
<path d="M 20.19 52.91 C 20.54 53.81 20.89 54.71 21.24 55.61 C 20.32 56.65 19.03 57.68 18.56 59.00 C 18.86 59.86 19.26 60.67 19.75 61.43 C 21.21 61.79 22.87 61.62 24.36 61.59 C 24.41 60.21 24.46 58.83 24.50 57.45 C 25.45 57.11 26.40 56.78 27.36 56.45 C 27.30 59.51 27.51 62.11 24.87 64.17 C 21.53 65.62 17.27 64.97 16.03 61.08 C 14.63 57.39 17.74 55.04 20.19 52.91 Z" fill="#df0108" />
<path d="M 174.74 64.53 C 178.92 64.48 183.10 64.61 187.29 64.72 C 187.52 65.79 187.75 66.86 187.98 67.93 C 185.11 70.66 182.32 73.46 179.32 76.04 C 179.21 73.20 179.54 70.50 178.67 67.73 L 176.74 67.43 C 176.06 66.47 175.39 65.51 174.74 64.53 Z" fill="#df0108" />
<path d="M 143.84 66.18 C 145.40 66.67 146.96 67.17 148.52 67.66 C 148.19 75.42 148.16 82.88 151.31 90.14 C 150.18 90.56 149.05 90.98 147.92 91.39 C 142.75 86.32 137.65 82.79 130.96 79.96 C 131.41 76.48 132.49 73.45 133.96 70.30 C 135.94 70.83 137.90 71.44 139.89 71.93 C 141.19 70.01 142.52 68.09 143.84 66.18 Z" fill="#ffffff" />
<path d="M 17.95 74.27 C 18.93 74.38 19.91 74.49 20.89 74.60 C 20.75 75.69 20.60 76.79 20.46 77.88 C 19.38 77.61 18.30 77.34 17.23 77.06 C 17.47 76.13 17.71 75.20 17.95 74.27 Z" fill="#df0108" />
<path d="M 62.40 75.07 C 62.61 79.48 63.79 83.64 64.59 87.94 C 63.10 92.05 60.99 95.41 61.35 100.00 C 61.37 105.92 64.49 110.28 68.37 114.42 C 66.29 118.11 64.00 121.64 61.27 124.90 C 54.93 120.68 49.44 115.15 44.93 109.04 C 42.60 105.76 40.03 102.89 37.11 100.12 C 41.62 96.94 45.25 92.93 48.61 88.58 C 52.62 83.46 57.35 79.13 62.40 75.07 Z" fill="#ffffff" />
<path d="M 110.40 76.87 C 110.43 92.35 110.42 107.84 110.40 123.32 C 105.06 123.41 99.72 123.32 94.38 123.26 C 93.40 117.81 93.85 112.49 93.78 107.00 C 93.76 97.10 93.81 87.20 93.75 77.30 C 99.29 76.18 104.81 76.34 110.40 76.87 Z" fill="#ffffff" />
<path d="M 9.15 79.15 C 9.92 79.51 10.68 79.90 11.43 80.31 C 10.80 82.02 10.32 83.69 10.02 85.48 C 11.64 83.74 12.76 80.99 14.82 79.80 C 16.06 80.01 17.29 80.27 18.52 80.56 C 19.06 84.08 18.61 86.07 17.09 89.22 C 16.16 88.86 15.23 88.50 14.30 88.14 C 15.12 86.67 15.93 85.18 16.73 83.69 L 15.10 83.22 C 14.32 84.63 13.68 86.34 12.54 87.50 C 10.52 89.04 7.40 87.25 7.37 84.81 C 7.17 82.65 8.09 80.95 9.15 79.15 Z" fill="#df0108" />
<path d="M 191.33 79.49 C 191.70 80.43 192.07 81.37 192.44 82.30 C 189.66 82.87 186.89 83.40 184.09 83.82 C 184.31 85.65 184.54 87.49 184.77 89.33 C 183.91 89.46 183.06 89.59 182.21 89.72 C 181.69 86.99 181.32 84.24 181.01 81.48 C 184.44 80.76 187.89 80.15 191.33 79.49 Z" fill="#df0108" />
<path d="M 113.28 94.00 C 122.87 96.58 131.95 102.06 138.18 109.86 C 145.05 119.07 143.61 132.75 136.28 141.29 C 130.48 148.39 122.15 151.74 113.20 152.70 C 112.77 149.39 112.70 146.09 112.73 142.76 C 115.23 142.15 118.08 141.60 120.30 140.27 C 125.60 136.93 128.12 129.91 125.90 124.00 C 123.80 118.22 118.76 114.33 113.35 111.81 C 113.10 105.88 113.18 99.93 113.28 94.00 Z" fill="#ffffff" />
<path d="M 0.00 104.34 C 0.73 115.52 2.95 126.49 6.98 136.95 C 12.29 149.75 19.83 161.53 29.85 171.15 C 47.66 188.99 72.54 199.41 97.71 200.00 L 0.00 200.00 L 0.00 104.34 Z" fill="#ffffff" />
<path d="M 85.31 111.77 C 86.90 115.22 85.98 119.14 84.83 122.57 C 83.35 127.00 80.65 130.62 77.53 134.02 C 81.50 139.00 85.28 141.14 91.42 142.70 C 91.41 146.01 91.41 149.32 91.38 152.64 C 80.49 151.16 72.54 145.32 63.89 139.12 C 61.60 137.25 58.12 137.68 55.28 137.36 C 54.87 135.62 54.51 133.87 54.18 132.10 C 61.07 129.71 64.76 124.37 68.50 118.50 C 70.46 115.48 72.33 111.38 75.43 109.40 C 78.55 107.19 83.59 108.32 85.31 111.77 Z" fill="#ffffff" />
<path d="M 148.38 111.79 L 148.51 111.88 C 150.32 113.20 152.05 114.63 153.80 116.01 C 151.05 118.95 147.95 121.45 144.74 123.86 C 144.38 120.84 143.86 117.86 143.23 114.89 C 144.93 113.84 146.63 112.75 148.38 111.79 Z" fill="#ffffff" />
<path d="M 86.75 123.86 C 99.01 125.94 111.38 126.31 123.51 123.23 C 124.80 127.09 124.85 129.37 123.86 133.31 C 118.61 134.62 113.43 135.89 108.00 136.08 C 98.90 136.73 90.12 135.35 81.17 133.95 C 83.10 130.63 84.74 127.13 86.75 123.86 Z" fill="#ffffff" />
<path d="M 93.87 138.27 C 99.37 137.99 104.91 138.53 110.43 138.21 C 110.50 143.80 110.21 149.42 110.54 155.00 C 110.59 157.18 112.48 158.95 114.52 159.38 C 116.20 159.44 117.94 158.67 119.56 158.31 C 118.35 161.29 117.73 164.06 114.56 165.53 C 111.86 166.96 109.71 165.81 107.08 165.01 C 105.76 166.27 104.53 167.52 103.03 168.57 C 100.84 169.19 98.81 166.31 97.29 165.05 C 94.55 165.84 92.32 167.00 89.56 165.41 C 86.47 163.88 85.87 161.20 84.76 158.18 C 86.38 158.57 88.08 159.35 89.76 159.36 C 91.69 158.97 93.65 157.15 93.64 155.07 C 94.09 149.50 93.50 143.85 93.87 138.27 Z" fill="#ffffff" />
<path d="M 122.09 179.34 C 125.77 181.55 127.74 185.49 125.50 189.52 C 123.57 192.16 121.01 191.26 118.18 191.34 C 119.64 189.08 121.85 188.64 124.07 187.47 C 122.36 187.52 120.61 187.66 118.90 187.53 C 117.32 187.09 116.42 184.51 116.96 183.07 C 117.37 180.78 120.32 180.27 122.09 179.34 Z" fill="#df0108" />
<path d="M 74.76 180.33 C 76.82 180.31 78.88 180.32 80.94 180.37 C 80.10 183.93 79.14 187.47 78.14 191.00 C 77.13 190.83 76.12 190.66 75.11 190.49 C 75.74 188.02 76.38 185.55 76.95 183.07 L 74.76 180.33 Z" fill="#df0108" />
<path d="M 94.77 185.48 C 95.13 188.25 94.78 191.69 91.94 193.06 C 89.66 193.85 85.76 193.75 86.14 190.41 C 88.34 190.55 90.39 190.61 92.51 189.97 C 90.77 189.72 89.02 189.53 87.27 189.38 C 86.80 188.08 85.87 186.51 86.15 185.12 C 86.62 180.89 94.63 181.21 94.77 185.48 Z" fill="#df0108" />
<path d="M 104.50 182.55 C 107.33 181.81 109.75 182.87 110.87 185.64 C 112.50 189.15 110.28 194.07 106.03 193.80 C 100.18 194.13 99.50 184.09 104.50 182.55 Z" fill="#df0108" />
<path d="M 122.36 181.92 C 122.49 183.03 122.61 184.13 122.73 185.24 C 121.44 184.88 120.16 184.51 118.87 184.12 C 120.03 183.38 121.19 182.64 122.36 181.92 Z" fill="#ffffff" />
<path d="M 90.94 184.42 C 91.65 185.00 92.34 185.58 93.03 186.17 C 91.94 186.72 91.01 187.37 89.77 187.48 C 89.44 186.68 89.14 185.86 88.86 185.03 C 89.55 184.82 90.25 184.61 90.94 184.42 Z" fill="#ffffff" />
<path d="M 107.04 185.00 C 108.19 186.97 108.13 188.63 107.92 190.84 C 106.72 190.75 105.53 190.66 104.33 190.57 C 104.33 188.90 104.33 187.23 104.43 185.56 C 105.29 185.36 106.16 185.17 107.04 185.00 Z" fill="#ffffff" />
</svg>