<?xml version="1.0" encoding="UTF-8" standalone="no"?>
<!DOCTYPE svg PUBLIC "-//W3C//DTD SVG 1.1//EN" "http://www.w3.org/Graphics/SVG/1.1/DTD/svg11.dtd">
<svg xmlns="http://www.w3.org/2000/svg" version="1.1" viewBox="0 0 200 200" width="200.0pt" height="200.0pt">
<path d="M 0.00 0.00 L 54.54 0.00 C 53.68 2.34 52.83 4.68 51.99 7.03 C 48.85 7.13 46.08 6.53 43.34 8.43 C 45.49 10.26 47.92 11.85 49.92 13.85 C 49.72 16.06 46.69 20.47 48.94 22.04 C 51.14 20.77 53.12 19.12 55.33 17.85 C 58.32 18.96 59.97 22.01 63.38 21.53 C 62.59 18.87 61.69 16.26 60.87 13.62 C 62.97 11.97 65.13 10.40 67.23 8.75 C 66.80 8.21 66.37 7.67 65.94 7.13 C 63.50 7.04 61.05 6.96 58.61 6.87 C 57.88 4.57 57.14 2.27 56.30 0.00 L 143.81 0.00 C 142.88 2.31 142.07 4.68 141.24 7.03 C 138.89 7.41 133.98 6.08 133.00 8.69 C 134.85 10.53 137.11 12.06 139.19 13.64 C 138.41 16.28 137.54 18.88 136.70 21.49 C 139.92 22.01 142.17 19.17 144.68 17.57 C 146.54 18.97 148.47 20.45 150.50 21.60 C 150.99 21.97 151.52 21.76 152.08 20.97 C 151.78 18.40 150.77 16.09 150.19 13.61 C 152.22 11.74 154.57 10.21 156.70 8.47 C 153.93 6.52 151.12 7.11 147.92 6.92 C 147.14 4.61 146.33 2.30 145.51 0.00 L 200.00 0.00 L 200.00 200.00 L 0.00 200.00 L 0.00 0.00 Z" fill="#ffffff" />
<path d="M 54.54 0.00 L 56.30 0.00 C 57.14 2.27 57.88 4.57 58.61 6.87 C 61.05 6.96 63.50 7.04 65.94 7.13 C 66.37 7.67 66.80 8.21 67.23 8.75 C 65.13 10.40 62.97 11.97 60.87 13.62 C 61.69 16.26 62.59 18.87 63.38 21.53 C 59.97 22.01 58.32 18.96 55.33 17.85 C 53.12 19.12 51.14 20.77 48.94 22.04 C 46.69 20.47 49.72 16.06 49.92 13.85 C 47.92 11.85 45.49 10.26 43.34 8.43 C 46.08 6.53 48.85 7.13 51.99 7.03 C 52.83 4.68 53.68 2.34 54.54 0.00 Z" fill="#5f5c35" />
<path d="M 143.81 0.00 L 145.51 0.00 C 146.33 2.30 147.14 4.61 147.92 6.92 C 151.12 7.11 153.93 6.52 156.70 8.47 C 154.57 10.21 152.22 11.74 150.19 13.61 C 150.77 16.09 151.78 18.40 152.08 20.97 C 151.52 21.76 150.99 21.97 150.50 21.60 C 148.47 20.45 146.54 18.97 144.68 17.57 C 142.17 19.17 139.92 22.01 136.70 21.49 C 137.54 18.88 138.41 16.28 139.19 13.64 C 137.11 12.06 134.85 10.53 133.00 8.69 C 133.98 6.08 138.89 7.41 141.24 7.03 C 142.07 4.68 142.88 2.31 143.81 0.00 Z" fill="#5b582f" />
<path d="M 55.54 1.59 C 56.13 3.84 56.62 6.29 57.64 8.40 C 59.85 8.85 62.18 8.83 64.43 8.97 C 62.68 10.32 60.91 11.65 59.18 13.03 C 59.85 15.29 60.49 17.56 61.11 19.83 C 59.28 18.47 57.45 17.10 55.62 15.73 C 53.66 17.09 51.72 18.46 49.77 19.81 C 50.38 17.56 50.99 15.30 51.58 13.05 C 49.84 11.67 48.09 10.30 46.36 8.91 C 48.51 8.91 50.66 8.90 52.81 8.90 C 53.79 6.49 54.69 4.05 55.54 1.59 Z" fill="#ffed00" />
<path d="M 144.53 1.66 C 145.33 4.02 146.16 6.37 147.08 8.69 C 149.33 8.76 151.58 8.83 153.83 8.91 C 152.13 10.11 150.42 11.30 148.69 12.48 C 149.13 14.98 149.67 17.46 150.26 19.94 C 148.45 18.50 146.64 17.10 144.80 15.71 C 142.84 17.10 140.86 18.46 138.89 19.83 C 139.58 17.62 140.27 15.42 141.00 13.22 C 139.20 11.77 137.36 10.37 135.57 8.90 C 137.78 8.90 139.98 8.92 142.18 8.94 C 143.02 6.53 143.82 4.11 144.53 1.66 Z" fill="#ffed00" />
<path d="M 46.81 23.80 C 63.99 33.37 83.53 36.53 103.00 36.21 C 120.26 35.81 138.17 32.42 153.25 23.69 C 161.77 32.76 170.20 41.91 178.69 51.01 C 173.71 55.00 169.78 59.82 168.45 66.20 C 166.36 75.61 170.33 86.19 174.66 94.47 C 178.26 101.57 183.17 107.35 186.11 114.81 C 189.53 123.33 191.11 133.14 189.26 142.21 C 187.61 152.85 182.86 163.47 174.74 170.74 C 167.90 176.97 159.48 180.36 150.52 182.22 C 144.05 183.20 137.51 183.71 131.02 184.61 C 119.44 186.67 108.85 192.10 100.04 199.85 C 90.21 191.19 78.09 185.39 64.99 184.09 C 60.06 183.51 55.12 183.02 50.20 182.33 C 40.07 180.40 30.47 176.30 23.27 168.74 C 14.65 159.82 10.64 147.18 9.98 135.00 C 9.96 124.34 13.27 113.98 19.10 105.08 C 25.50 95.31 32.40 82.91 32.18 70.93 C 32.09 62.70 27.75 55.93 21.38 51.02 C 29.88 41.97 38.19 32.72 46.81 23.80 Z" fill="#000000" />
<path d="M 47.33 27.59 C 60.09 34.36 74.63 37.96 89.00 38.83 C 105.08 40.03 121.71 38.86 137.18 34.13 C 97.96 59.54 58.69 84.87 19.49 110.30 C 27.07 98.38 34.80 86.61 35.57 72.00 C 35.80 63.54 32.17 56.32 26.04 50.69 C 33.10 42.95 40.27 35.32 47.33 27.59 Z" fill="#ffffff" />
<path d="M 52.54 38.75 C 55.27 37.86 58.24 37.65 61.09 37.87 C 69.90 38.47 77.62 46.23 78.39 55.00 C 79.63 64.49 73.24 73.72 64.01 76.06 C 53.96 79.04 42.72 72.36 40.21 62.26 C 39.34 58.30 39.43 53.91 40.84 50.08 C 42.91 44.95 47.37 40.69 52.54 38.75 Z" fill="#000000" />
<path d="M 144.35 38.41 C 144.55 41.24 144.52 44.07 144.50 46.91 C 141.76 48.77 139.00 50.58 136.30 52.50 C 136.01 51.72 135.71 50.93 135.41 50.15 C 132.91 52.08 130.09 53.78 127.88 56.04 C 127.36 61.34 127.70 66.83 128.34 72.11 C 130.53 70.78 132.68 69.39 134.82 67.98 C 134.82 65.62 134.81 63.25 134.82 60.88 C 138.03 58.87 141.27 56.90 144.50 54.91 C 144.37 58.96 144.87 63.21 144.18 67.20 C 143.20 72.06 138.71 73.58 135.04 76.09 C 130.01 78.97 125.33 82.81 120.02 85.11 C 117.52 84.32 118.03 81.05 117.86 79.01 C 117.98 71.68 117.68 64.33 118.00 57.02 C 118.13 54.67 119.37 53.45 121.24 52.23 C 127.46 48.11 133.71 44.03 139.92 39.88 C 141.38 38.85 142.56 38.48 144.35 38.41 Z" fill="#ffffff" />
<path d="M 55.92 39.90 C 61.96 46.23 64.90 53.45 64.18 62.30 C 62.83 62.72 61.49 63.23 60.10 63.53 C 55.43 62.77 51.45 59.83 49.34 55.60 C 47.74 52.19 47.37 48.02 46.96 44.31 C 49.68 42.18 52.42 40.40 55.92 39.90 Z" fill="#ffffff" />
<path d="M 58.23 39.51 C 60.41 39.77 62.59 40.06 64.77 40.37 C 66.90 44.57 68.97 49.22 68.80 54.02 C 68.74 56.96 67.40 59.96 66.39 62.69 C 66.44 55.07 65.05 48.00 60.11 41.98 C 59.48 41.16 58.86 40.33 58.23 39.51 Z" fill="#ffffff" />
<path d="M 67.74 41.60 C 71.89 44.83 75.55 48.22 76.22 53.75 C 75.22 58.44 72.35 61.59 68.08 63.60 C 69.18 60.47 70.68 57.39 70.76 54.02 C 70.87 49.70 69.11 45.61 67.74 41.60 Z" fill="#ffffff" />
<path d="M 45.15 46.04 C 46.03 50.99 46.18 55.43 49.48 59.49 C 52.15 63.03 55.88 64.37 59.93 65.71 C 53.63 66.68 47.39 65.68 42.31 61.70 C 40.43 56.34 42.14 50.64 45.15 46.04 Z" fill="#ffffff" />
<path d="M 157.87 53.55 C 157.83 56.12 158.14 58.89 157.59 61.40 C 155.13 63.29 152.41 64.85 149.83 66.55 C 149.82 63.91 149.82 61.26 149.81 58.62 C 152.47 56.89 155.15 55.20 157.87 53.55 Z" fill="#ffffff" />
<path d="M 77.04 57.94 C 76.25 61.52 75.24 64.89 73.20 67.97 C 71.09 67.32 69.00 66.61 66.92 65.88 C 69.10 64.91 71.70 64.13 73.46 62.43 C 74.79 61.08 75.88 59.44 77.04 57.94 Z" fill="#ffffff" />
<path d="M 65.03 62.99 C 66.12 63.02 66.75 63.58 66.92 64.65 C 65.58 65.60 64.20 66.39 62.80 67.24 C 62.02 66.78 61.23 66.33 60.44 65.87 C 61.94 64.64 63.00 63.27 65.03 62.99 Z" fill="#bababa" />
<path d="M 42.98 64.60 C 45.35 65.63 47.46 66.80 50.00 67.35 C 53.34 68.12 56.70 67.71 60.04 68.56 C 55.66 70.05 51.12 71.01 46.60 69.50 C 45.12 68.17 44.03 66.28 42.98 64.60 Z" fill="#ffffff" />
<path d="M 101.67 64.51 C 101.69 67.22 101.69 69.94 101.71 72.65 C 99.15 74.12 96.75 76.68 93.57 76.07 C 91.39 77.33 89.31 78.72 87.20 80.08 C 87.20 82.24 87.21 84.40 87.22 86.56 C 88.87 85.62 90.51 84.66 92.11 83.63 C 92.60 80.43 94.89 79.67 97.20 77.92 C 97.23 82.18 97.22 86.44 97.21 90.71 C 95.52 91.81 93.85 92.94 92.18 94.08 C 92.15 92.74 92.11 91.40 92.07 90.06 C 90.48 91.06 88.88 92.05 87.30 93.05 C 87.31 95.60 87.31 98.16 87.35 100.71 C 88.94 99.69 90.52 98.66 92.10 97.62 C 92.12 99.55 92.13 101.49 92.15 103.42 C 85.97 107.43 79.73 111.38 73.44 115.23 C 73.40 113.31 73.37 111.38 73.34 109.46 C 74.65 108.63 75.96 107.81 77.27 106.97 C 77.26 100.25 77.27 93.53 77.26 86.81 C 75.90 87.53 74.54 88.25 73.18 88.97 C 73.57 86.76 72.32 82.95 74.82 81.93 C 83.74 76.08 92.74 70.34 101.67 64.51 Z" fill="#ffffff" />
<path d="M 65.77 66.94 C 67.70 67.99 69.67 68.97 71.67 69.92 C 69.40 71.46 67.09 72.88 64.65 74.13 C 65.14 71.74 65.52 69.37 65.77 66.94 Z" fill="#ffffff" />
<path d="M 64.10 67.50 C 63.59 69.68 63.36 73.79 60.89 74.78 C 56.97 75.40 53.24 73.75 49.60 72.55 C 52.41 72.16 55.47 72.04 58.16 71.15 C 60.30 70.33 62.20 68.75 64.10 67.50 Z" fill="#ffffff" />
<path d="M 158.37 67.07 C 158.39 103.62 158.32 140.18 158.34 176.73 C 153.00 178.63 147.28 179.73 141.67 180.46 C 141.63 146.26 141.67 112.06 141.65 77.86 C 147.22 74.26 152.80 70.67 158.37 67.07 Z" fill="#ffffff" />
<path d="M 112.06 82.74 C 112.09 85.26 112.10 87.78 112.14 90.30 C 109.39 92.13 106.63 93.95 103.85 95.74 C 103.84 93.11 103.84 90.48 103.83 87.85 C 106.54 86.08 109.24 84.33 112.06 82.74 Z" fill="#ffffff" />
<path d="M 125.09 88.79 C 124.85 109.76 125.03 130.04 124.90 151.00 C 125.32 161.52 124.51 172.00 125.15 182.52 C 119.31 184.51 113.69 186.69 108.34 189.78 C 108.40 159.64 108.34 129.50 108.37 99.36 C 113.98 95.90 119.39 92.09 125.09 88.79 Z" fill="#ffffff" />
<path d="M 53.21 97.42 C 55.09 99.14 54.17 102.76 54.41 105.10 C 51.36 106.91 48.33 108.75 45.37 110.70 C 45.25 109.60 45.12 108.50 45.00 107.40 C 42.39 108.68 39.25 110.08 37.34 112.34 C 36.82 114.11 37.36 116.23 37.55 118.05 C 41.45 116.11 44.92 113.23 48.96 111.62 C 51.05 110.70 52.40 111.94 54.28 112.68 C 54.24 116.80 54.56 120.96 54.23 125.06 C 54.00 127.69 52.06 128.78 50.10 130.13 C 44.60 133.62 39.12 137.13 33.68 140.70 C 32.18 141.53 30.37 143.04 28.57 142.61 C 26.88 139.83 27.92 135.40 27.68 132.20 C 30.79 130.35 33.86 128.44 36.89 126.46 C 36.97 128.37 37.05 130.28 37.16 132.19 C 39.88 130.62 42.49 128.89 45.08 127.11 C 45.06 124.56 45.05 122.00 44.94 119.44 C 39.97 120.70 36.77 123.94 32.41 126.34 C 30.79 126.99 28.87 128.29 27.89 126.10 C 27.41 121.60 27.81 117.01 27.59 112.48 C 32.52 108.00 38.85 105.10 44.36 101.35 C 47.01 99.93 50.09 96.99 53.21 97.42 Z" fill="#ffffff" />
<path d="M 175.04 101.48 C 178.65 107.12 182.21 112.49 184.31 118.92 C 189.85 134.92 186.04 153.31 175.07 166.12 C 174.93 144.58 175.00 123.03 175.04 101.48 Z" fill="#ffffff" />
<path d="M 67.52 111.37 C 67.52 113.89 67.82 116.64 67.25 119.09 C 64.83 121.10 62.03 122.65 59.43 124.41 C 59.44 121.76 59.44 119.10 59.44 116.45 C 62.10 114.70 64.77 112.96 67.52 111.37 Z" fill="#ffffff" />
<path d="M 91.69 110.19 C 91.76 136.71 91.65 163.23 91.72 189.75 C 86.42 186.76 80.94 184.56 75.17 182.66 C 75.20 162.07 75.18 141.48 75.18 120.88 C 79.75 117.89 84.38 114.98 88.96 112.00 C 89.87 111.40 90.78 110.80 91.69 110.19 Z" fill="#ffffff" />
<path d="M 58.43 131.76 C 58.44 148.00 58.47 164.23 58.42 180.46 C 52.81 179.76 47.18 178.62 41.81 176.85 C 41.80 165.40 41.84 153.95 41.79 142.49 C 47.32 138.89 52.85 135.29 58.43 131.76 Z" fill="#ffffff" />
<path d="M 25.09 153.27 C 25.10 157.56 25.12 161.84 25.06 166.13 C 22.74 163.33 20.69 160.43 18.92 157.25 C 20.97 155.91 23.04 154.61 25.09 153.27 Z" fill="#ffffff" />
</svg>