<?xml version="1.0" encoding="UTF-8" standalone="no"?>
<!DOCTYPE svg PUBLIC "-//W3C//DTD SVG 1.1//EN" "http://www.w3.org/Graphics/SVG/1.1/DTD/svg11.dtd">
<svg xmlns="http://www.w3.org/2000/svg" version="1.1" viewBox="0 0 200 200" width="200.0pt" height="200.0pt">
<path d="M 0.00 0.00 L 200.00 0.00 L 200.00 200.00 L 0.00 200.00 L 0.00 157.17 C 0.70 160.22 1.14 164.13 3.95 166.06 C 6.89 168.13 10.57 166.98 13.55 165.62 C 21.09 161.93 27.25 154.78 31.88 147.92 C 38.01 138.50 42.84 126.82 42.33 115.41 C 44.12 114.52 45.90 113.61 47.68 112.71 C 47.88 116.51 47.64 121.72 50.16 124.85 C 52.38 127.89 57.25 126.91 59.81 124.83 C 65.95 120.30 70.49 113.03 74.84 106.85 C 73.22 111.77 71.93 116.79 70.22 121.68 C 73.18 120.72 76.15 119.81 79.14 118.96 C 80.61 113.79 82.31 108.71 83.54 103.46 C 85.77 102.89 88.00 102.33 90.24 101.77 C 88.95 106.76 87.16 111.59 85.94 116.60 C 88.66 115.67 92.01 115.05 94.32 113.32 C 97.73 109.31 100.79 104.91 103.86 100.62 C 103.85 102.87 103.41 105.56 104.23 107.69 C 105.29 110.53 109.66 110.46 111.44 108.46 C 114.69 105.09 116.64 100.21 119.01 96.19 C 118.11 99.50 117.36 102.81 117.01 106.22 C 119.82 105.17 123.19 104.63 125.06 102.06 C 128.29 97.97 131.41 93.78 134.68 89.70 C 135.86 89.72 137.03 89.72 138.20 89.72 C 137.22 93.15 136.24 96.58 135.28 100.01 C 137.83 99.21 140.37 98.39 142.90 97.55 C 143.59 94.92 144.36 92.31 145.14 89.71 C 153.18 89.78 161.22 89.74 169.25 89.80 C 167.97 90.38 166.68 90.96 165.40 91.53 C 125.70 107.85 85.87 123.90 46.23 140.33 C 45.38 143.82 44.39 147.27 43.36 150.71 C 95.52 128.32 147.80 106.18 199.99 83.84 C 178.31 83.79 156.64 83.80 134.96 83.74 C 131.89 87.95 128.80 92.14 125.67 96.30 C 126.64 92.05 127.88 87.90 129.29 83.77 C 126.83 83.73 124.37 83.70 121.91 83.66 C 119.01 90.41 115.87 97.61 111.12 103.27 C 111.83 96.60 114.53 90.10 116.45 83.69 C 114.03 83.74 111.60 83.78 109.18 83.83 C 108.08 87.24 107.32 91.23 105.07 94.03 C 102.28 97.69 99.49 101.36 96.52 104.89 C 98.91 97.92 100.66 90.77 102.96 83.78 C 100.47 83.76 97.98 83.75 95.48 83.73 C 94.08 87.88 92.90 92.09 91.83 96.34 C 89.66 96.89 87.50 97.45 85.34 98.01 C 86.60 93.21 88.16 88.50 89.62 83.76 C 86.86 83.73 84.10 83.71 81.35 83.69 C 78.95 90.02 78.44 98.73 73.52 103.52 C 70.08 107.44 66.72 111.42 63.40 115.43 C 62.18 117.00 60.61 118.07 58.95 119.12 C 57.51 115.82 57.37 112.69 57.52 109.16 C 63.13 106.31 68.24 103.23 72.18 98.21 C 74.31 95.32 76.15 91.63 75.39 87.96 C 74.69 85.14 71.78 83.60 69.01 83.75 C 64.47 83.91 59.99 86.75 57.02 90.06 C 52.61 95.01 50.04 101.32 48.50 107.69 C 46.27 108.60 44.03 109.50 41.80 110.39 C 40.64 107.45 39.27 104.90 37.47 102.31 C 42.92 98.78 47.75 94.67 50.99 88.95 C 52.82 85.87 53.37 81.93 52.32 78.50 C 51.00 74.81 46.61 73.30 43.01 73.41 C 36.29 73.75 29.69 77.26 25.06 82.04 C 22.07 84.93 21.89 89.37 21.41 93.24 C 24.96 89.60 27.60 85.60 32.42 83.50 C 34.64 82.56 37.07 82.25 38.84 84.21 C 40.51 86.29 39.54 89.37 38.51 91.53 C 35.63 97.11 31.13 101.39 26.20 105.17 C 28.94 108.29 30.33 111.60 31.35 115.58 C 20.45 121.31 11.03 130.15 4.80 140.79 C 2.28 144.97 0.82 149.55 0.00 154.35 L 0.00 0.00 Z" fill="#ffffff" />
<path d="M 106.08 32.91 C 107.71 38.06 109.50 43.15 111.02 48.33 C 116.40 48.31 121.78 48.30 127.16 48.30 C 122.83 51.48 118.49 54.65 114.10 57.75 C 115.98 62.84 117.40 68.06 119.28 73.15 C 114.87 69.98 110.48 66.79 106.06 63.64 C 101.63 66.74 97.34 70.02 92.85 73.03 C 94.65 67.96 96.30 62.84 97.93 57.72 C 93.59 54.59 89.25 51.47 84.93 48.30 C 90.29 48.30 95.66 48.30 101.02 48.34 C 102.73 43.21 104.27 38.02 106.08 32.91 Z" fill="#cfaf2b" />
<path d="M 43.01 73.41 C 46.61 73.30 51.00 74.81 52.32 78.50 C 53.37 81.93 52.82 85.87 50.99 88.95 C 47.75 94.67 42.92 98.78 37.47 102.31 C 39.27 104.90 40.64 107.45 41.80 110.39 C 44.03 109.50 46.27 108.60 48.50 107.69 C 50.04 101.32 52.61 95.01 57.02 90.06 C 59.99 86.75 64.47 83.91 69.01 83.75 C 71.78 83.60 74.69 85.14 75.39 87.96 C 76.15 91.63 74.31 95.32 72.18 98.21 C 68.24 103.23 63.13 106.31 57.52 109.16 C 57.37 112.69 57.51 115.82 58.95 119.12 C 60.61 118.07 62.18 117.00 63.40 115.43 C 66.72 111.42 70.08 107.44 73.52 103.52 C 78.44 98.73 78.95 90.02 81.35 83.69 C 84.10 83.71 86.86 83.73 89.62 83.76 C 88.16 88.50 86.60 93.21 85.34 98.01 C 87.50 97.45 89.66 96.89 91.83 96.34 C 92.90 92.09 94.08 87.88 95.48 83.73 C 97.98 83.75 100.47 83.76 102.96 83.78 C 100.66 90.77 98.91 97.92 96.52 104.89 C 99.49 101.36 102.28 97.69 105.07 94.03 C 107.32 91.23 108.08 87.24 109.18 83.83 C 111.60 83.78 114.03 83.74 116.45 83.69 C 114.53 90.10 111.83 96.60 111.12 103.27 C 115.87 97.61 119.01 90.41 121.91 83.66 C 124.37 83.70 126.83 83.73 129.29 83.77 C 127.88 87.90 126.64 92.05 125.67 96.30 C 128.80 92.14 131.89 87.95 134.96 83.74 C 156.64 83.80 178.31 83.79 199.99 83.84 C 147.80 106.18 95.52 128.32 43.36 150.71 C 44.39 147.27 45.38 143.82 46.23 140.33 C 85.87 123.90 125.70 107.85 165.40 91.53 C 166.68 90.96 167.97 90.38 169.25 89.80 C 161.22 89.74 153.18 89.78 145.14 89.71 C 144.36 92.31 143.59 94.92 142.90 97.55 C 140.37 98.39 137.83 99.21 135.28 100.01 C 136.24 96.58 137.22 93.15 138.20 89.72 C 137.03 89.72 135.86 89.72 134.68 89.70 C 131.41 93.78 128.29 97.97 125.06 102.06 C 123.19 104.63 119.82 105.17 117.01 106.22 C 117.36 102.81 118.11 99.50 119.01 96.19 C 116.64 100.21 114.69 105.09 111.44 108.46 C 109.66 110.46 105.29 110.53 104.23 107.69 C 103.41 105.56 103.85 102.87 103.86 100.62 C 100.79 104.91 97.73 109.31 94.32 113.32 C 92.01 115.05 88.66 115.67 85.94 116.60 C 87.16 111.59 88.95 106.76 90.24 101.77 C 88.00 102.33 85.77 102.89 83.54 103.46 C 82.31 108.71 80.61 113.79 79.14 118.96 C 76.15 119.81 73.18 120.72 70.22 121.68 C 71.93 116.79 73.22 111.77 74.84 106.85 C 70.49 113.03 65.95 120.30 59.81 124.83 C 57.25 126.91 52.38 127.89 50.16 124.85 C 47.64 121.72 47.88 116.51 47.68 112.71 C 45.90 113.61 44.12 114.52 42.33 115.41 C 42.84 126.82 38.01 138.50 31.88 147.92 C 27.25 154.78 21.09 161.93 13.55 165.62 C 10.57 166.98 6.89 168.13 3.95 166.06 C 1.14 164.13 0.70 160.22 0.00 157.17 L 0.00 154.35 C 0.82 149.55 2.28 144.97 4.80 140.79 C 11.03 130.15 20.45 121.31 31.35 115.58 C 30.33 111.60 28.94 108.29 26.20 105.17 C 31.13 101.39 35.63 97.11 38.51 91.53 C 39.54 89.37 40.51 86.29 38.84 84.21 C 37.07 82.25 34.64 82.56 32.42 83.50 C 27.60 85.60 24.96 89.60 21.41 93.24 C 21.89 89.37 22.07 84.93 25.06 82.04 C 29.69 77.26 36.29 73.75 43.01 73.41 Z" fill="#26a4ee" />
<path d="M 65.03 89.07 C 67.47 89.11 66.78 90.96 66.76 92.71 C 65.82 97.70 62.47 101.00 58.48 103.83 C 59.59 98.91 61.25 92.63 65.03 89.07 Z" fill="#ffffff" />
<path d="M 31.63 121.14 C 30.58 132.24 27.37 144.46 20.41 153.37 C 18.65 155.45 14.59 159.34 11.71 157.38 C 9.91 153.87 11.07 148.78 12.12 145.14 C 15.21 136.45 21.83 128.79 28.98 123.11 C 29.86 122.45 30.74 121.79 31.63 121.14 Z" fill="#ffffff" />
<path d="M 132.11 126.98 C 134.03 126.74 136.01 126.79 137.94 126.77 C 138.05 132.80 137.97 138.83 137.96 144.86 C 136.45 144.82 134.94 144.79 133.43 144.77 C 133.43 140.25 133.43 135.72 133.43 131.20 C 132.14 131.16 130.84 131.12 129.55 131.08 C 130.36 129.70 131.14 128.25 132.11 126.98 Z" fill="#26a4ee" />
<path d="M 153.07 131.06 C 154.50 136.16 150.08 140.83 147.49 144.80 C 145.86 144.78 144.24 144.76 142.62 144.76 C 143.97 142.84 145.34 140.95 146.76 139.08 C 144.80 138.56 142.53 138.56 141.08 136.96 C 138.89 134.45 139.29 130.04 142.11 128.13 C 145.65 125.56 151.61 126.65 153.07 131.06 Z" fill="#26a4ee" />
<path d="M 165.69 128.24 C 167.77 129.79 167.87 132.64 167.08 134.90 C 165.94 137.28 163.65 139.22 161.81 141.08 C 163.64 141.07 165.47 141.08 167.30 141.09 C 167.30 142.32 167.30 143.56 167.30 144.80 C 162.75 144.83 158.21 144.82 153.66 144.78 C 157.31 140.57 161.03 136.58 163.98 131.82 C 163.01 131.18 162.00 130.60 160.97 130.08 C 159.38 130.58 159.07 132.06 158.15 133.34 C 156.72 133.32 155.29 133.30 153.86 133.28 C 154.56 131.69 155.01 129.48 156.40 128.35 C 158.84 126.18 163.11 126.44 165.69 128.24 Z" fill="#26a4ee" />
<path d="M 170.93 126.90 C 174.11 126.82 177.30 126.83 180.48 126.83 C 180.53 128.03 180.59 129.24 180.66 130.44 C 178.56 130.43 176.46 130.45 174.36 130.43 C 174.15 131.13 173.94 131.84 173.73 132.54 C 176.03 133.16 179.43 132.94 180.67 135.35 C 182.62 138.39 181.27 142.63 177.95 144.00 C 174.89 145.51 172.24 144.59 169.21 143.67 C 169.37 142.38 169.53 141.10 169.68 139.81 C 171.09 140.27 172.54 140.81 173.99 141.07 C 175.44 141.02 176.81 139.78 178.04 139.11 C 177.13 138.22 176.22 136.47 174.85 136.28 C 173.28 136.18 171.70 136.18 170.11 136.29 C 170.39 133.16 170.61 130.02 170.93 126.90 Z" fill="#26a4ee" />
<path d="M 145.35 130.27 C 147.03 129.94 148.62 130.31 149.16 132.12 C 150.13 134.36 146.70 137.09 144.86 135.18 C 142.89 133.84 143.38 131.33 145.35 130.27 Z" fill="#ffffff" />
</svg>