<?xml version="1.0" encoding="UTF-8" standalone="no"?>
<!DOCTYPE svg PUBLIC "-//W3C//DTD SVG 1.1//EN" "http://www.w3.org/Graphics/SVG/1.1/DTD/svg11.dtd">
<svg xmlns="http://www.w3.org/2000/svg" version="1.1" viewBox="0 0 200 200" width="200.0pt" height="200.0pt">
<path d="M 0.00 0.00 L 41.11 0.00 C 40.72 23.69 40.61 46.84 45.85 70.05 C 50.07 88.90 57.93 106.68 70.70 121.31 C 78.81 130.42 88.29 138.02 99.82 142.31 C 113.30 137.36 124.48 127.35 133.18 116.15 C 147.44 97.32 154.13 75.17 156.89 51.96 C 159.15 34.59 158.46 17.44 158.55 0.00 L 200.00 0.00 L 200.00 200.00 L 0.00 200.00 L 0.00 0.00 Z" fill="#ffffff" />
<path d="M 41.11 0.00 L 53.85 0.00 C 53.88 3.29 53.89 6.57 53.89 9.86 C 58.29 9.88 62.68 9.88 67.07 9.85 C 67.09 6.57 67.12 3.28 67.19 0.00 L 80.16 0.00 C 80.17 3.28 80.17 6.57 80.15 9.85 C 84.53 9.87 88.92 9.87 93.30 9.87 C 93.30 6.58 93.31 3.29 93.36 0.00 L 106.34 0.00 C 106.36 3.29 106.36 6.58 106.36 9.87 C 110.78 9.87 115.20 9.87 119.61 9.86 C 119.61 6.57 119.61 3.29 119.61 0.00 L 132.51 0.00 C 132.55 3.29 132.56 6.58 132.57 9.87 C 136.98 9.87 141.39 9.87 145.80 9.85 C 145.78 6.57 145.78 3.28 145.80 0.00 L 158.55 0.00 C 158.46 17.44 159.15 34.59 156.89 51.96 C 154.13 75.17 147.44 97.32 133.18 116.15 C 124.48 127.35 113.30 137.36 99.82 142.31 C 88.29 138.02 78.81 130.42 70.70 121.31 C 57.93 106.68 50.07 88.90 45.85 70.05 C 40.61 46.84 40.72 23.69 41.11 0.00 Z" fill="#1ab7ea" />
<path d="M 53.85 0.00 L 67.19 0.00 C 67.12 3.28 67.09 6.57 67.07 9.85 C 62.68 9.88 58.29 9.88 53.89 9.86 C 53.89 6.57 53.88 3.29 53.85 0.00 Z" fill="#ffffff" />
<path d="M 80.16 0.00 L 93.36 0.00 C 93.31 3.29 93.30 6.58 93.30 9.87 C 88.92 9.87 84.53 9.87 80.15 9.85 C 80.17 6.57 80.17 3.28 80.16 0.00 Z" fill="#ffffff" />
<path d="M 106.34 0.00 L 119.61 0.00 C 119.61 3.29 119.61 6.57 119.61 9.86 C 115.20 9.87 110.78 9.87 106.36 9.87 C 106.36 6.58 106.36 3.29 106.34 0.00 Z" fill="#ffffff" />
<path d="M 132.51 0.00 L 145.80 0.00 C 145.78 3.28 145.78 6.57 145.80 9.85 C 141.39 9.87 136.98 9.87 132.57 9.87 C 132.56 6.58 132.55 3.29 132.51 0.00 Z" fill="#ffffff" />
<path d="M 44.25 3.41 C 46.43 3.20 48.65 3.25 50.84 3.25 C 50.84 6.46 50.84 9.67 50.85 12.89 C 57.30 12.91 63.76 12.91 70.21 12.89 C 70.21 9.68 70.20 6.47 70.20 3.26 C 72.51 3.28 74.81 3.29 77.12 3.31 C 77.11 6.50 77.11 9.70 77.11 12.89 C 83.54 12.91 89.97 12.88 96.39 12.92 C 96.40 9.71 96.40 6.50 96.39 3.29 C 98.69 3.28 100.99 3.28 103.29 3.28 C 103.26 6.50 103.26 9.71 103.29 12.92 C 109.71 12.89 116.13 12.88 122.56 12.93 C 122.57 9.71 122.58 6.49 122.57 3.28 C 124.87 3.28 127.17 3.28 129.47 3.29 C 129.48 6.50 129.47 9.72 129.45 12.93 C 135.88 12.88 142.31 12.89 148.73 12.92 C 148.74 9.71 148.75 6.49 148.77 3.27 C 151.07 3.28 153.37 3.28 155.67 3.28 C 155.60 14.55 155.69 25.82 155.62 37.09 C 118.47 37.14 81.33 37.10 44.18 37.11 C 44.18 25.89 43.97 14.62 44.25 3.41 Z" fill="#ffffff" />
<path d="M 65.63 15.85 C 67.40 15.91 69.17 15.97 70.94 16.03 C 72.69 20.13 74.49 24.20 76.29 28.28 C 78.17 24.15 79.95 19.98 81.81 15.84 C 83.55 15.89 85.30 15.94 87.04 15.98 C 87.14 21.93 87.09 27.88 87.10 33.82 C 85.97 33.86 84.83 33.90 83.69 33.93 C 83.68 29.43 83.71 24.93 83.64 20.42 C 81.75 24.91 79.98 29.45 78.08 33.93 C 76.90 33.89 75.71 33.86 74.52 33.84 C 72.69 29.36 70.85 24.88 68.85 20.46 C 68.81 24.93 68.83 29.40 68.84 33.88 C 67.76 33.90 66.69 33.93 65.62 33.96 C 65.58 27.92 65.57 21.89 65.63 15.85 Z" fill="#1ab7ea" />
<path d="M 96.75 15.91 C 101.39 15.88 106.04 15.88 110.69 15.96 C 110.73 16.89 110.77 17.82 110.82 18.75 C 107.43 18.75 104.05 18.75 100.67 18.75 C 100.63 20.09 100.59 21.43 100.56 22.78 C 103.49 22.79 106.43 22.80 109.36 22.80 C 109.42 23.74 109.48 24.68 109.54 25.62 C 106.57 25.64 103.60 25.64 100.62 25.66 C 100.63 28.41 100.62 31.16 100.61 33.92 C 99.31 33.91 98.02 33.90 96.73 33.89 C 96.72 27.90 96.71 21.90 96.75 15.91 Z" fill="#1ab7ea" />
<path d="M 119.86 16.05 C 124.51 15.85 129.15 15.87 133.81 15.91 C 133.87 16.85 133.93 17.79 133.99 18.73 C 130.59 18.75 127.20 18.75 123.80 18.75 C 123.79 20.09 123.78 21.43 123.78 22.77 C 126.75 22.79 129.72 22.81 132.69 22.86 C 132.68 23.79 132.66 24.71 132.65 25.64 C 129.70 25.64 126.74 25.64 123.79 25.64 C 123.79 28.40 123.78 31.16 123.76 33.92 C 122.46 33.89 121.16 33.86 119.86 33.83 C 119.87 27.91 119.87 21.98 119.86 16.05 Z" fill="#1ab7ea" />
<path d="M 91.29 22.35 C 93.46 21.76 95.38 24.92 93.43 26.42 C 92.01 27.88 89.60 26.70 89.46 24.84 C 89.44 23.61 90.08 22.68 91.29 22.35 Z" fill="#1ab7ea" />
<path d="M 113.59 22.73 C 115.65 21.89 116.62 23.12 117.26 24.97 C 116.81 26.04 115.41 28.04 114.10 27.06 C 111.93 26.58 111.71 23.65 113.59 22.73 Z" fill="#1ab7ea" />
<path d="M 80.36 39.91 C 93.34 39.87 106.33 39.89 119.32 39.89 C 119.31 68.87 119.36 97.86 119.29 126.84 C 113.40 131.84 107.15 136.22 99.90 139.03 C 92.53 136.30 86.19 131.86 80.32 126.71 C 80.38 97.77 80.31 68.84 80.36 39.91 Z" fill="#ffffff" />
<path d="M 49.73 134.34 C 49.62 139.82 49.24 145.30 48.92 150.77 C 53.47 147.78 58.00 144.78 62.36 141.52 C 63.21 141.99 64.07 142.45 64.92 142.92 C 62.13 149.62 59.34 156.32 56.85 163.14 C 55.29 162.27 53.73 161.41 52.17 160.55 C 54.18 156.21 56.08 151.82 57.95 147.43 C 53.23 150.40 48.98 154.37 43.90 156.65 C 44.13 151.24 44.49 145.84 44.68 140.42 C 41.91 144.19 39.26 148.03 36.80 152.01 C 35.88 151.52 34.97 151.02 34.05 150.53 C 38.57 145.12 42.55 139.29 46.98 133.82 C 47.39 132.82 49.05 134.23 49.73 134.34 Z" fill="#1ab7ea" />
<path d="M 160.52 132.15 L 161.92 134.58 C 159.71 135.61 157.49 136.63 155.26 137.65 C 156.29 139.60 157.32 141.54 158.34 143.49 C 160.38 142.38 162.41 141.26 164.44 140.12 L 165.83 142.50 C 163.66 143.50 161.50 144.51 159.34 145.53 C 160.92 148.62 162.50 151.71 164.06 154.81 C 162.57 155.54 161.09 156.26 159.61 157.00 C 156.37 150.56 153.12 144.13 149.81 137.73 C 153.35 135.80 156.93 133.98 160.52 132.15 Z" fill="#1ab7ea" />
<path d="M 145.74 139.61 C 146.12 140.47 146.51 141.32 146.90 142.18 C 144.67 143.05 142.45 143.93 140.23 144.84 C 141.17 146.83 142.10 148.83 143.04 150.83 C 145.13 149.79 147.21 148.74 149.29 147.65 C 149.71 148.48 150.13 149.31 150.55 150.14 C 148.34 151.05 146.15 151.97 143.95 152.91 C 145.43 156.02 146.91 159.14 148.39 162.24 C 146.89 162.97 145.39 163.70 143.90 164.44 C 140.88 157.85 137.77 151.31 134.73 144.74 C 138.37 142.97 142.05 141.28 145.74 139.61 Z" fill="#1ab7ea" />
<path d="M 82.27 145.69 C 83.77 146.02 85.26 146.34 86.76 146.66 C 85.15 154.44 83.73 162.25 82.16 170.03 C 80.66 169.78 79.15 169.53 77.64 169.29 C 79.21 161.43 80.71 153.55 82.27 145.69 Z" fill="#1ab7ea" />
<path d="M 124.40 147.42 C 126.28 146.87 128.15 149.11 126.68 150.75 C 126.07 151.97 124.03 151.88 123.32 150.69 C 122.00 150.27 123.37 147.36 124.40 147.42 Z" fill="#1ab7ea" />
<path d="M 121.12 149.77 C 119.92 152.74 119.59 152.49 116.57 152.46 L 116.47 149.83 C 118.14 147.05 118.95 148.68 121.12 149.77 Z" fill="#1ab7ea" />
<path d="M 75.72 154.29 C 76.36 157.81 74.41 161.94 73.58 165.36 C 74.02 166.29 74.47 167.23 74.91 168.17 C 72.11 167.95 70.81 167.75 68.83 165.69 C 66.58 165.91 64.81 166.70 62.79 165.19 C 60.07 163.35 60.80 158.88 63.82 157.90 C 66.32 157.29 69.03 157.40 71.59 157.21 C 71.12 155.62 71.28 154.16 69.78 153.15 C 67.87 152.99 65.92 153.22 64.02 153.28 C 66.46 149.05 73.50 150.73 75.72 154.29 Z" fill="#1ab7ea" />
<path d="M 120.37 154.43 C 123.63 153.25 127.37 153.51 129.67 156.35 C 131.88 159.29 132.16 163.92 129.91 166.92 C 127.37 170.20 121.91 170.93 118.61 168.41 C 114.41 164.87 114.75 156.43 120.37 154.43 Z" fill="#1ab7ea" />
<path d="M 98.01 155.26 C 99.51 155.24 100.94 156.72 102.15 157.50 C 104.15 156.46 105.62 155.00 108.04 155.57 C 110.03 155.91 111.36 157.13 111.61 159.16 C 112.02 163.15 111.62 167.26 111.57 171.27 C 110.07 171.24 108.57 171.22 107.07 171.21 C 107.08 167.51 107.46 163.70 107.02 160.03 C 106.36 157.82 104.65 158.09 102.99 158.98 C 102.17 162.92 102.53 167.15 102.37 171.16 C 100.84 171.06 99.32 170.96 97.80 170.86 C 97.76 166.86 98.33 162.51 97.37 158.60 C 95.86 158.14 94.22 157.73 93.65 159.66 C 92.90 163.25 93.30 167.15 93.14 170.81 C 91.60 170.80 90.06 170.80 88.52 170.79 C 88.63 165.72 88.71 160.66 88.79 155.59 C 90.02 155.57 91.25 155.56 92.48 155.54 C 92.87 155.93 93.25 156.32 93.64 156.71 C 95.04 156.18 96.52 155.51 98.01 155.26 Z" fill="#1ab7ea" />
<path d="M 122.97 155.36 C 124.50 155.52 125.29 156.89 125.80 158.19 C 126.91 162.08 127.67 166.10 124.06 168.94 C 121.09 166.16 120.39 162.94 120.51 158.97 C 120.53 156.86 121.15 156.27 122.97 155.36 Z" fill="#ffffff" />
<path d="M 70.77 158.60 C 69.82 161.08 69.96 163.84 66.90 164.65 C 65.23 162.78 65.45 161.72 66.78 159.77 C 68.06 159.26 69.44 158.95 70.77 158.60 Z" fill="#ffffff" />
<path d="M 99.82 178.33 C 101.20 179.95 102.59 181.57 103.98 183.18 C 106.14 183.25 108.30 183.31 110.45 183.39 C 109.55 185.30 108.66 187.22 107.76 189.13 C 108.63 191.13 109.50 193.13 110.35 195.14 C 108.25 195.18 106.14 195.20 104.03 195.22 C 102.65 196.81 101.27 198.41 99.88 199.99 C 98.46 198.43 97.06 196.86 95.66 195.28 C 93.51 195.21 91.36 195.13 89.22 195.04 C 90.13 193.10 91.06 191.16 91.98 189.22 C 91.06 187.29 90.13 185.36 89.21 183.44 C 91.43 183.33 93.65 183.22 95.87 183.11 C 97.18 181.52 98.50 179.92 99.82 178.33 Z" fill="#1ab7ea" />
</svg>