<?xml version="1.0" encoding="UTF-8" standalone="no"?>
<!DOCTYPE svg PUBLIC "-//W3C//DTD SVG 1.1//EN" "http://www.w3.org/Graphics/SVG/1.1/DTD/svg11.dtd">
<svg xmlns="http://www.w3.org/2000/svg" version="1.1" viewBox="0 0 200 200" width="200.0pt" height="200.0pt">
<path d="M 0.00 0.00 L 200.00 0.00 L 200.00 200.00 L 0.00 200.00 L 0.00 0.00 Z" fill="#ffffff" />
<path d="M 74.97 38.43 C 75.61 39.67 76.26 40.91 76.90 42.15 C 78.33 42.50 79.75 42.84 81.17 43.19 C 80.18 44.20 79.20 45.21 78.21 46.22 C 78.47 47.64 78.73 49.06 78.99 50.48 C 77.62 49.85 76.26 49.22 74.90 48.60 C 73.60 49.22 72.30 49.84 71.00 50.45 C 71.20 49.00 71.41 47.54 71.61 46.08 C 70.64 45.13 69.67 44.17 68.69 43.22 C 70.09 42.86 71.48 42.52 72.86 42.10 C 73.60 40.90 74.28 39.66 74.97 38.43 Z" fill="#d6b482" />
<path d="M 91.21 38.44 C 91.83 39.67 92.46 40.90 93.08 42.13 C 94.50 42.49 95.92 42.84 97.34 43.20 C 96.40 44.16 95.46 45.12 94.51 46.08 C 94.70 47.52 94.89 48.97 95.08 50.42 C 93.76 49.81 92.44 49.19 91.12 48.58 C 89.81 49.22 88.50 49.86 87.18 50.50 C 87.41 49.06 87.64 47.62 87.87 46.18 C 86.87 45.19 85.87 44.21 84.87 43.23 C 86.26 42.87 87.65 42.52 89.03 42.11 L 89.82 40.87 C 90.29 40.06 90.75 39.26 91.21 38.44 Z" fill="#d6b482" />
<path d="M 108.83 38.44 C 109.51 39.66 110.14 40.97 111.00 42.07 C 112.31 42.57 113.73 42.89 115.10 43.25 C 114.10 44.23 113.12 45.21 112.13 46.20 C 112.37 47.63 112.62 49.06 112.86 50.50 C 111.52 49.86 110.19 49.22 108.85 48.58 C 107.56 49.19 106.27 49.80 104.97 50.40 C 105.14 48.95 105.32 47.49 105.49 46.03 C 104.54 45.10 103.59 44.16 102.63 43.22 C 104.04 42.86 105.44 42.51 106.83 42.09 C 107.53 40.90 108.18 39.67 108.83 38.44 Z" fill="#d6b482" />
<path d="M 125.10 38.43 C 125.74 39.67 126.39 40.91 127.04 42.14 C 128.46 42.50 129.87 42.85 131.29 43.20 C 130.33 44.17 129.37 45.13 128.41 46.10 C 128.61 47.55 128.82 49.00 129.02 50.44 C 127.70 49.83 126.38 49.21 125.06 48.59 C 123.73 49.22 122.41 49.85 121.08 50.48 C 121.31 49.06 121.55 47.63 121.78 46.21 C 120.80 45.21 119.81 44.21 118.82 43.22 C 120.22 42.86 121.61 42.52 122.99 42.10 C 123.73 40.90 124.41 39.67 125.10 38.43 Z" fill="#d6b482" />
<path d="M 99.99 55.59 C 131.05 72.46 162.07 89.68 193.10 106.65 C 162.22 123.96 130.95 140.76 100.00 157.97 C 69.06 140.76 37.74 123.98 6.90 106.62 C 37.94 89.69 68.93 72.46 99.99 55.59 Z" fill="#de1f3c" />
<path d="M 99.99 62.34 C 126.95 77.06 153.90 91.86 180.79 106.72 C 153.90 121.61 126.91 136.33 99.99 151.16 C 73.07 136.33 46.09 121.61 19.20 106.73 C 46.08 91.85 73.04 77.08 99.99 62.34 Z" fill="#ffffff" />
<path d="M 100.00 69.00 C 107.64 73.08 115.16 77.38 122.82 81.43 C 121.23 82.39 119.64 83.33 118.05 84.27 C 118.06 88.87 118.07 93.48 118.05 98.08 C 116.91 98.04 115.77 98.00 114.63 97.96 C 112.89 95.45 110.95 93.21 108.21 91.76 C 100.93 87.73 91.27 89.62 86.31 96.37 C 80.64 103.65 82.11 114.93 89.64 120.36 C 96.40 125.53 105.89 124.87 111.89 118.87 C 114.69 116.42 115.42 113.22 117.08 110.09 C 126.42 104.54 136.30 99.54 145.77 94.14 C 153.44 98.24 161.02 102.52 168.68 106.65 C 145.88 119.41 122.90 131.88 99.99 144.45 C 92.38 140.27 84.69 136.20 77.19 131.84 C 79.22 130.69 81.27 129.59 83.35 128.53 C 76.20 124.90 70.84 118.91 69.51 110.81 C 64.39 113.57 59.36 116.79 54.04 119.08 C 46.36 115.21 38.81 110.90 31.32 106.66 C 54.19 94.15 77.12 81.46 100.00 69.00 Z" fill="#de1f3c" />
<path d="M 113.39 88.09 C 114.42 87.29 115.46 86.49 116.50 85.69 C 116.63 89.53 116.66 93.37 116.36 97.21 C 113.35 93.69 110.48 90.49 105.88 89.09 C 99.32 86.58 91.50 88.69 86.65 93.64 C 81.31 98.96 79.85 107.29 82.83 114.18 C 86.44 122.53 95.92 127.11 104.73 124.69 C 110.15 123.40 113.18 119.77 116.76 115.90 C 116.89 117.98 117.52 120.60 116.78 122.58 C 105.62 133.15 86.27 132.39 75.98 121.04 C 70.71 115.22 69.77 107.16 71.75 99.77 C 74.61 91.20 82.40 85.74 91.05 84.09 C 98.71 82.29 106.78 83.93 113.39 88.09 Z" fill="#ffffff" />
<path d="M 97.43 93.60 C 105.09 91.99 113.16 98.03 113.20 105.99 C 113.84 113.55 107.51 120.16 100.00 120.08 C 92.44 120.18 86.20 113.55 86.72 106.00 C 86.95 99.87 91.50 94.85 97.43 93.60 Z" fill="#de1f3c" />
<path d="M 100.79 94.25 C 104.50 94.59 107.17 96.70 109.80 99.13 C 111.43 100.88 111.95 103.55 112.57 105.79 C 111.99 106.37 111.41 106.96 110.84 107.54 C 110.87 109.80 111.20 111.78 109.94 113.81 C 108.89 115.67 107.29 116.75 105.61 117.98 C 105.04 115.83 103.17 115.40 101.50 114.26 C 101.59 112.38 101.68 110.51 101.77 108.64 C 103.53 107.46 105.30 106.29 107.11 105.18 C 106.26 103.27 105.48 101.32 104.72 99.37 C 102.63 99.29 100.54 99.23 98.45 99.19 C 97.83 101.04 97.19 102.89 96.54 104.73 C 98.19 106.02 99.84 107.31 101.50 108.59 C 101.42 110.49 101.34 112.39 101.27 114.29 C 99.41 115.05 97.54 115.76 95.64 116.43 L 96.58 118.79 C 93.38 117.55 91.51 116.04 89.28 113.50 C 89.95 113.25 90.61 113.01 91.27 112.76 C 91.36 110.88 91.47 109.01 91.63 107.13 C 90.37 105.81 89.08 104.49 87.79 103.19 C 88.71 101.72 89.56 100.07 90.77 98.81 C 92.16 97.79 93.90 97.25 95.41 96.43 C 97.14 95.12 98.41 93.79 100.79 94.25 Z" fill="#ffffff" />
</svg>