<?xml version="1.0" encoding="UTF-8" standalone="no"?>
<svg
   xmlns:dc="http://purl.org/dc/elements/1.1/"
   xmlns:cc="http://creativecommons.org/ns#"
   xmlns:rdf="http://www.w3.org/1999/02/22-rdf-syntax-ns#"
   xmlns:svg="http://www.w3.org/2000/svg"
   xmlns="http://www.w3.org/2000/svg"
   xmlns:sodipodi="http://sodipodi.sourceforge.net/DTD/sodipodi-0.dtd"
   xmlns:inkscape="http://www.inkscape.org/namespaces/inkscape"
   version="1.1"
   viewBox="0 0 200 200"
   width="200.0pt"
   height="200.0pt"
   id="svg2495"
   sodipodi:docname="77.svg"
   inkscape:version="1.0 (4035a4f, 2020-05-01)">
  <metadata
     id="metadata2501">
    <rdf:RDF>
      <cc:Work
         rdf:about="">
        <dc:format>image/svg+xml</dc:format>
        <dc:type
           rdf:resource="http://purl.org/dc/dcmitype/StillImage" />
      </cc:Work>
    </rdf:RDF>
  </metadata>
  <defs
     id="defs2499" />
  <sodipodi:namedview
     inkscape:document-rotation="0"
     pagecolor="#ffffff"
     bordercolor="#666666"
     borderopacity="1"
     objecttolerance="10"
     gridtolerance="10"
     guidetolerance="10"
     inkscape:pageopacity="0"
     inkscape:pageshadow="2"
     inkscape:window-width="946"
     inkscape:window-height="739"
     id="namedview2497"
     showgrid="false"
     inkscape:zoom="2.42625"
     inkscape:cx="133.33333"
     inkscape:cy="133.33333"
     inkscape:window-x="0"
     inkscape:window-y="23"
     inkscape:window-maximized="0"
     inkscape:current-layer="svg2495" />
  <path
     d="M 0.00 0.00 L 12.48 0.00 C 12.03 30.74 13.92 63.06 22.20 92.80 C 27.24 110.77 35.18 127.92 45.67 143.35 C 58.14 161.70 73.34 177.42 90.13 191.84 C 93.22 194.60 96.62 197.05 99.51 200.00 L 0.00 200.00 L 0.00 0.00 Z"
     fill="#ffffff"
     id="path2349"
     style="fill:#ffffff;fill-opacity:0.00809717" />
  <path
     d="M 12.48 0.00 L 187.44 0.00 C 187.86 30.37 186.15 60.69 178.44 90.19 C 173.68 108.17 166.10 125.36 155.87 140.90 C 143.62 159.60 128.27 175.78 111.45 190.41 C 107.81 193.69 103.86 196.61 100.34 200.00 L 99.51 200.00 C 96.62 197.05 93.22 194.60 90.13 191.84 C 73.34 177.42 58.14 161.70 45.67 143.35 C 35.18 127.92 27.24 110.77 22.20 92.80 C 13.92 63.06 12.03 30.74 12.48 0.00 Z"
     fill="#030303"
     id="path2351" />
  <path
     d="M 187.44 0.00 L 200.00 0.00 L 200.00 200.00 L 100.34 200.00 C 103.86 196.61 107.81 193.69 111.45 190.41 C 128.27 175.78 143.62 159.60 155.87 140.90 C 166.10 125.36 173.68 108.17 178.44 90.19 C 186.15 60.69 187.86 30.37 187.44 0.00 Z"
     fill="#ffffff"
     id="path2353"
     style="fill:#ffffff;fill-opacity:0.00404858" />
  <path
     d="M 15.61 3.18 C 71.86 3.29 128.11 3.23 184.36 3.21 C 184.39 15.66 184.31 28.08 183.20 40.49 C 181.01 68.92 175.82 97.14 162.74 122.73 C 147.94 152.08 125.10 175.34 99.97 196.02 C 78.30 178.20 58.86 159.00 44.01 134.99 C 33.78 118.37 26.64 100.03 22.48 80.98 C 16.87 55.27 15.30 29.43 15.61 3.18 Z"
     fill="#fefefe"
     id="path2355" />
  <path
     d="M 31.10 8.96 C 32.10 9.23 32.79 9.84 33.15 10.81 C 34.82 14.27 36.39 17.82 37.50 21.50 C 35.24 20.63 34.70 18.97 33.67 17.01 C 32.24 17.00 30.80 17.00 29.36 17.01 C 28.34 18.93 27.69 20.58 25.55 21.52 C 26.89 17.20 28.71 12.80 31.10 8.96 Z"
     fill="#373737"
     id="path2357" />
  <path
     d="M 38.62 9.45 C 41.54 9.18 44.62 9.11 47.53 9.49 L 48.61 11.02 C 47.10 11.08 45.59 11.13 44.08 11.17 C 44.10 14.63 44.13 18.08 43.91 21.53 C 41.35 19.60 42.76 14.24 42.44 11.30 C 41.13 10.80 37.36 11.76 38.62 9.45 Z"
     fill="#2f2f2f"
     id="path2359" />
  <path
     d="M 51.29 9.83 L 52.83 8.80 C 52.95 10.52 53.02 12.23 53.07 13.95 C 55.08 13.91 57.10 13.87 59.11 13.84 C 59.48 11.82 58.48 9.71 60.93 8.87 C 61.04 13.04 61.08 17.23 60.91 21.39 C 58.35 20.18 59.49 18.15 59.11 15.82 C 57.09 15.80 55.07 15.79 53.04 15.77 C 53.02 17.60 52.98 19.43 52.90 21.26 L 51.24 20.31 C 50.91 16.93 50.85 13.20 51.29 9.83 Z"
     fill="#2d2d2d"
     id="path2361" />
  <path
     d="M 67.01 8.87 C 67.14 12.27 67.10 15.63 67.11 19.03 C 69.40 19.02 71.70 19.02 73.99 19.03 L 73.93 20.69 C 71.14 20.69 68.36 20.69 65.57 20.71 C 65.61 17.46 65.48 14.21 65.61 10.97 C 65.50 9.76 66.26 9.58 67.01 8.87 Z"
     fill="#000000"
     id="path2363" />
  <path
     d="M 76.24 9.55 C 79.30 9.31 82.40 9.44 85.47 9.46 C 85.37 10.01 85.28 10.57 85.19 11.12 C 82.80 11.10 80.39 11.03 78.01 11.22 L 77.59 13.70 C 79.55 14.20 81.12 13.41 82.06 15.56 C 80.64 15.63 79.22 15.68 77.81 15.72 C 77.80 16.81 77.80 17.91 77.80 19.00 C 80.60 19.00 83.38 19.00 86.17 19.23 L 85.08 20.53 C 82.18 20.93 79.10 20.64 76.17 20.67 C 76.20 16.97 76.02 13.24 76.24 9.55 Z"
     fill="#000000"
     id="path2365" />
  <path
     d="M 88.05 9.59 C 91.11 9.25 94.25 9.47 97.33 9.47 C 97.26 10.02 97.19 10.58 97.13 11.13 C 95.87 11.11 94.61 11.08 93.35 11.06 C 93.32 14.28 93.33 17.50 93.32 20.72 C 92.78 20.72 92.23 20.72 91.68 20.72 C 91.68 17.49 91.68 14.27 91.64 11.04 C 90.22 11.07 88.81 11.09 87.40 11.11 C 87.60 10.60 87.82 10.09 88.05 9.59 Z"
     fill="#000000"
     id="path2367" />
  <path
     d="M 100.24 9.79 L 101.86 8.82 C 102.10 12.95 102.06 17.11 101.91 21.25 L 100.19 20.34 C 99.84 16.95 99.77 13.17 100.24 9.79 Z"
     fill="#353535"
     id="path2369" />
  <path
     d="M 113.55 9.48 C 114.67 10.26 117.30 10.70 115.71 12.37 C 113.89 11.94 111.91 10.83 110.05 11.03 C 108.99 11.61 107.98 12.37 107.00 13.07 C 107.01 14.30 107.02 15.54 107.04 16.77 C 107.79 17.54 108.55 18.31 109.31 19.09 C 111.90 19.01 114.30 18.43 116.76 17.70 C 116.48 18.46 116.19 19.22 115.90 19.99 C 114.32 20.45 112.60 21.12 110.96 21.07 C 107.75 21.15 104.79 18.20 104.94 14.99 C 105.09 10.80 109.60 7.67 113.55 9.48 Z"
     fill="#424242"
     id="path2371" />
  <path
     d="M 135.92 12.34 C 133.56 11.84 131.22 11.23 128.85 10.76 C 127.89 11.77 126.75 12.78 126.08 14.01 C 125.56 16.34 127.10 17.36 128.23 19.13 C 130.96 19.08 133.47 18.47 136.06 17.68 C 135.69 18.48 135.33 19.27 134.97 20.06 C 132.16 20.85 129.61 21.84 126.92 20.06 C 123.53 17.79 123.34 13.08 126.45 10.46 C 129.53 7.84 133.97 8.90 135.92 12.34 Z"
     fill="#373737"
     id="path2373" />
  <path
     d="M 139.14 9.27 L 140.81 9.39 C 141.17 12.55 140.99 15.80 140.99 18.98 C 143.42 18.98 145.84 18.97 148.27 19.10 L 147.16 20.65 C 144.53 21.12 141.70 20.83 139.04 20.82 C 139.02 16.99 138.80 13.10 139.14 9.27 Z"
     fill="#353535"
     id="path2375" />
  <path
     d="M 150.14 9.24 L 151.79 9.43 C 152.09 12.24 151.81 15.13 152.12 17.93 C 152.90 19.62 156.22 19.28 157.56 18.56 C 158.54 15.95 157.70 12.59 158.29 9.83 L 159.86 8.78 C 160.03 11.79 160.22 14.89 159.86 17.89 C 159.08 22.20 150.93 22.19 150.14 17.89 C 149.79 15.05 149.87 12.09 150.14 9.24 Z"
     fill="#343434"
     id="path2377" />
  <path
     d="M 164.10 9.42 C 166.81 9.30 170.40 8.73 172.87 10.07 C 174.34 11.60 173.83 12.73 173.45 14.56 C 174.03 16.63 175.24 18.40 173.08 20.04 C 170.61 21.46 166.80 20.70 164.01 20.84 C 164.04 17.04 163.83 13.21 164.10 9.42 Z"
     fill="#333333"
     id="path2379" />
  <path
     d="M 165.98 11.05 C 167.82 11.12 169.70 11.09 171.53 11.36 C 171.77 12.17 171.98 12.99 172.18 13.82 C 170.08 13.93 167.99 13.98 165.89 14.01 C 165.92 13.02 165.95 12.04 165.98 11.05 Z"
     fill="#ffffff"
     id="path2381" />
  <path
     d="M 31.39 11.71 C 32.12 12.89 32.73 14.17 33.33 15.42 C 32.13 15.43 30.94 15.44 29.75 15.45 C 30.26 14.19 30.81 12.94 31.39 11.71 Z"
     fill="#a9a9a9"
     id="path2383" />
  <path
     d="M 165.93 15.91 C 168.51 15.95 170.96 15.81 173.36 16.98 C 171.35 19.89 168.92 18.77 165.91 19.00 C 165.92 17.97 165.92 16.94 165.93 15.91 Z"
     fill="#ffffff"
     id="path2385" />
  <path
     d="M 39.88 26.91 C 79.93 26.91 119.98 26.91 160.03 26.91 C 158.93 50.19 156.40 72.62 148.87 94.80 C 143.69 109.46 136.03 123.29 126.74 135.73 C 118.75 146.44 109.59 155.56 99.98 164.77 C 90.34 155.61 80.67 145.91 72.78 135.19 C 60.93 119.17 51.93 101.22 47.20 81.80 C 42.51 63.76 40.82 45.47 39.88 26.91 Z"
     fill="#000000"
     id="path2387" />
  <path
     d="M 43.26 30.08 C 60.06 30.15 76.87 30.21 93.67 30.05 L 93.92 30.79 C 92.01 31.61 90.10 32.41 88.18 33.20 L 87.83 33.71 C 86.16 35.74 84.65 37.81 83.36 40.12 C 82.72 40.51 82.08 40.91 81.44 41.30 C 81.45 42.47 81.47 43.63 81.48 44.80 C 82.16 44.76 82.84 44.72 83.51 44.68 L 84.25 45.84 L 84.43 47.98 C 84.24 50.02 86.85 48.93 88.01 49.09 C 87.77 49.80 87.52 50.51 87.28 51.22 C 88.02 50.93 88.77 50.63 89.51 50.34 L 91.26 51.28 C 92.58 51.49 93.94 51.50 95.27 51.58 C 95.49 53.50 95.98 55.26 96.59 57.08 C 94.10 56.37 93.38 54.88 92.09 52.86 C 91.01 53.95 89.95 55.06 88.92 56.20 C 89.88 56.01 90.84 55.82 91.80 55.63 C 91.97 56.64 92.17 57.64 92.40 58.64 C 93.07 60.34 95.12 59.26 96.52 59.37 C 96.34 60.98 96.16 62.59 95.97 64.21 C 93.60 63.06 93.81 62.43 93.16 59.90 C 91.57 60.83 90.14 61.81 88.79 63.07 L 92.47 63.16 C 92.29 65.87 90.53 66.82 88.78 68.50 C 90.32 67.60 91.86 66.70 93.45 65.89 C 93.21 67.21 92.96 68.53 92.70 69.84 C 93.62 68.20 94.18 67.19 95.63 65.77 C 95.81 67.94 95.75 70.07 95.46 72.17 C 94.56 73.10 93.46 73.57 92.25 73.96 C 89.18 70.65 84.85 67.71 82.80 63.67 C 82.26 63.53 81.72 63.40 81.18 63.26 L 81.83 65.42 C 79.07 65.39 76.32 65.46 73.57 65.61 L 73.00 63.05 C 72.39 65.41 72.46 66.72 69.88 67.81 L 68.60 67.55 C 68.60 62.20 67.71 57.54 69.04 52.42 L 69.21 51.45 L 69.14 51.00 C 68.83 49.66 68.48 48.32 68.19 46.98 L 68.11 46.27 C 68.45 44.32 68.98 43.19 67.62 41.46 C 65.49 38.48 65.08 35.17 64.47 31.66 C 64.18 35.22 63.87 38.16 61.95 41.27 C 61.17 43.50 61.13 45.70 60.83 48.02 L 60.42 49.26 C 56.44 50.89 51.96 51.34 47.82 52.50 L 47.10 52.66 C 47.76 53.25 48.43 53.84 49.10 54.44 C 48.00 55.15 46.89 55.88 45.78 56.60 C 45.55 55.37 45.33 54.15 45.13 52.92 C 44.17 45.61 43.63 38.22 43.29 30.85 L 43.26 30.08 Z"
     fill="#ede9d7"
     id="path2389" />
  <path
     d="M 93.67 30.05 C 94.97 30.02 96.28 30.03 97.59 30.07 C 101.58 31.09 105.66 32.59 109.08 34.92 C 110.76 35.93 110.73 38.14 111.20 39.85 C 110.54 40.91 109.89 41.97 109.20 43.01 C 109.18 42.21 109.08 41.41 108.89 40.61 C 108.27 40.83 107.65 41.08 107.04 41.34 C 104.93 42.20 102.73 42.66 100.49 43.03 C 101.44 40.95 102.43 38.89 103.35 36.80 C 100.85 38.15 98.48 39.70 96.16 41.33 C 94.41 40.94 92.53 40.36 90.72 40.40 C 88.85 40.45 87.71 41.94 86.23 42.94 C 85.27 42.00 84.32 41.06 83.36 40.12 C 84.65 37.81 86.16 35.74 87.83 33.71 C 87.54 35.39 87.31 37.08 87.07 38.76 C 89.23 38.73 91.40 38.70 93.56 38.68 C 94.01 36.87 94.48 35.03 94.80 33.20 C 94.52 32.39 94.22 31.59 93.92 30.79 L 93.67 30.05 Z"
     fill="#5c9962"
     id="path2391" />
  <path
     d="M 97.59 30.07 C 116.03 30.22 134.49 30.11 152.94 30.11 C 137.33 41.76 121.62 53.27 105.98 64.88 C 105.00 64.50 104.02 64.12 103.04 63.74 C 102.45 63.73 101.85 63.70 101.26 63.67 L 99.94 63.47 C 101.96 61.79 99.19 60.94 99.11 63.32 L 98.06 63.17 C 98.23 61.14 98.37 59.11 98.59 57.09 C 100.20 58.83 101.73 60.65 103.30 62.42 L 102.00 58.04 C 103.10 58.26 104.18 58.50 105.27 58.75 C 106.22 58.45 107.17 58.14 108.11 57.83 C 106.40 57.49 104.71 57.12 103.01 56.72 C 101.32 56.60 99.64 56.37 97.95 56.16 C 98.51 54.52 99.18 52.94 99.74 51.30 C 100.62 54.83 103.52 53.95 106.15 53.20 C 108.23 51.21 109.95 48.78 111.45 46.33 L 111.41 44.17 C 112.37 44.19 113.33 44.21 114.29 44.22 C 114.31 43.05 114.33 41.87 114.34 40.70 C 113.31 40.62 112.28 40.54 111.26 40.46 L 111.20 39.85 C 110.73 38.14 110.76 35.93 109.08 34.92 C 105.66 32.59 101.58 31.09 97.59 30.07 Z"
     fill="#eeead8"
     id="path2393" />
  <path
     d="M 93.92 30.79 C 94.22 31.59 94.52 32.39 94.80 33.20 C 94.48 35.03 94.01 36.87 93.56 38.68 C 91.40 38.70 89.23 38.73 87.07 38.76 C 87.31 37.08 87.54 35.39 87.83 33.71 L 88.18 33.20 C 90.10 32.41 92.01 31.61 93.92 30.79 Z"
     fill="#9ec76e"
     id="path2395" />
  <path
     d="M 64.47 31.66 C 65.08 35.17 65.49 38.48 67.62 41.46 C 68.98 43.19 68.45 44.32 68.11 46.27 C 67.03 45.80 66.27 45.94 65.84 46.68 C 66.05 47.87 66.83 47.97 68.19 46.98 C 68.48 48.32 68.83 49.66 69.14 51.00 C 67.18 51.00 65.22 51.00 63.26 51.00 C 62.90 47.75 62.29 44.52 61.95 41.27 C 63.87 38.16 64.18 35.22 64.47 31.66 Z"
     fill="#e39770"
     id="path2397" />
  <path
     d="M 156.69 31.29 C 155.42 52.74 152.68 75.28 145.19 95.55 C 145.02 76.97 145.11 58.39 145.14 39.81 C 148.14 37.61 151.13 35.40 154.12 33.18 C 154.98 32.55 155.84 31.92 156.69 31.29 Z"
     fill="#e31e24"
     id="path2399" />
  <path
     d="M 103.35 36.80 C 102.43 38.89 101.44 40.95 100.49 43.03 C 102.73 42.66 104.93 42.20 107.04 41.34 C 106.34 43.14 107.81 45.27 109.20 43.01 C 109.89 41.97 110.54 40.91 111.20 39.85 L 111.26 40.46 C 111.32 41.70 111.37 42.94 111.41 44.17 L 111.45 46.33 C 109.95 48.78 108.23 51.21 106.15 53.20 C 103.52 53.95 100.62 54.83 99.74 51.30 C 100.64 51.34 101.55 51.37 102.46 51.41 C 102.59 50.74 102.73 50.07 102.86 49.39 C 103.42 49.13 103.98 48.87 104.53 48.61 C 102.44 48.82 100.34 48.95 98.24 49.04 C 98.07 48.12 97.90 47.20 97.73 46.28 C 97.77 48.65 97.76 51.02 97.72 53.39 C 95.93 52.01 95.64 50.71 94.98 48.78 C 93.42 48.37 91.89 47.91 90.36 47.40 C 91.61 48.39 92.83 49.41 94.05 50.43 L 91.26 51.28 L 89.51 50.34 C 88.77 50.63 88.02 50.93 87.28 51.22 C 87.52 50.51 87.77 49.80 88.01 49.09 C 86.85 48.93 84.24 50.02 84.43 47.98 L 84.25 45.84 L 83.51 44.68 C 84.44 44.14 85.35 43.56 86.23 42.94 C 87.71 41.94 88.85 40.45 90.72 40.40 C 92.53 40.36 94.41 40.94 96.16 41.33 C 98.48 39.70 100.85 38.15 103.35 36.80 Z"
     fill="#4e5f52"
     id="path2401" />
  <path
     d="M 83.36 40.12 C 84.32 41.06 85.27 42.00 86.23 42.94 C 85.35 43.56 84.44 44.14 83.51 44.68 C 82.84 44.72 82.16 44.76 81.48 44.80 C 81.47 43.63 81.45 42.47 81.44 41.30 C 82.08 40.91 82.72 40.51 83.36 40.12 Z"
     fill="#f4a06e"
     id="path2403" />
  <path
     d="M 108.89 40.61 C 109.08 41.41 109.18 42.21 109.20 43.01 C 107.81 45.27 106.34 43.14 107.04 41.34 C 107.65 41.08 108.27 40.83 108.89 40.61 Z"
     fill="#87b069"
     id="path2405" />
  <path
     d="M 145.14 39.81 C 145.11 58.39 145.02 76.97 145.19 95.55 C 142.16 104.18 138.02 112.45 133.31 120.27 C 133.38 96.38 133.40 72.48 133.30 48.59 C 137.23 45.65 141.19 42.74 145.14 39.81 Z"
     fill="#fefefe"
     id="path2407" />
  <path
     d="M 111.26 40.46 C 112.28 40.54 113.31 40.62 114.34 40.70 C 114.33 41.87 114.31 43.05 114.29 44.22 C 113.33 44.21 112.37 44.19 111.41 44.17 C 111.37 42.94 111.32 41.70 111.26 40.46 Z"
     fill="#e89f6e"
     id="path2409" />
  <path
     d="M 61.95 41.27 C 62.29 44.52 62.90 47.75 63.26 51.00 C 65.22 51.00 67.18 51.00 69.14 51.00 L 69.21 51.45 L 69.04 52.42 C 67.02 52.61 65.02 52.88 63.00 53.00 C 62.11 52.47 61.23 51.91 60.37 51.34 C 60.53 50.23 60.69 49.12 60.83 48.02 C 61.13 45.70 61.17 43.50 61.95 41.27 Z"
     fill="#503830"
     id="path2411" />
  <path
     d="M 68.11 46.27 L 68.19 46.98 C 66.83 47.97 66.05 47.87 65.84 46.68 C 66.27 45.94 67.03 45.80 68.11 46.27 Z"
     fill="#9c6b4f"
     id="path2413" />
  <path
     d="M 60.83 48.02 C 60.69 49.12 60.53 50.23 60.37 51.34 C 61.23 51.91 62.11 52.47 63.00 53.00 C 62.72 53.20 62.45 53.40 62.17 53.59 C 58.00 51.52 52.41 52.89 47.82 52.50 C 51.96 51.34 56.44 50.89 60.42 49.26 L 60.83 48.02 Z"
     fill="#f4736e"
     id="path2415" />
  <path
     d="M 133.30 48.59 C 133.40 72.48 133.38 96.38 133.31 120.27 C 129.16 127.35 124.34 134.05 119.08 140.34 C 118.92 137.56 118.85 134.78 118.86 132.00 C 118.92 107.74 118.82 83.47 118.91 59.21 C 123.69 55.65 128.51 52.13 133.30 48.59 Z"
     fill="#e31e24"
     id="path2417" />
  <path
     d="M 47.10 52.66 L 47.82 52.50 C 52.41 52.89 58.00 51.52 62.17 53.59 L 60.81 54.54 C 60.20 54.33 59.60 54.12 59.00 53.89 C 57.70 53.91 56.39 53.92 55.09 53.95 C 54.56 54.72 54.04 55.49 53.52 56.26 C 53.07 55.37 52.61 54.48 52.14 53.59 C 52.14 55.22 52.13 56.84 52.14 58.46 C 51.29 57.24 50.43 55.99 49.51 54.82 L 49.10 54.44 C 48.43 53.84 47.76 53.25 47.10 52.66 Z"
     fill="#664d40"
     id="path2419" />
  <path
     d="M 69.04 52.42 C 67.71 57.54 68.60 62.20 68.60 67.55 L 69.88 67.81 C 66.97 69.53 64.06 71.24 61.20 73.04 C 61.15 69.98 61.01 66.95 60.61 63.91 C 60.67 66.29 60.75 68.67 60.82 71.05 C 59.53 71.22 58.23 71.37 56.92 71.49 C 56.41 71.52 55.90 71.55 55.38 71.57 C 54.96 68.18 55.30 64.96 53.27 62.09 C 52.95 64.96 52.82 67.85 52.73 70.74 C 51.96 70.22 51.18 69.70 50.41 69.18 C 50.00 71.65 49.54 74.11 49.17 76.59 C 48.28 72.56 47.98 68.47 48.64 64.38 C 48.91 62.69 49.98 62.50 51.48 62.18 C 51.46 61.34 51.44 60.51 51.42 59.68 C 50.35 60.34 49.48 61.17 48.80 62.16 C 48.00 62.33 47.21 62.50 46.41 62.67 C 45.99 59.42 45.54 56.17 45.13 52.92 C 45.33 54.15 45.55 55.37 45.78 56.60 C 46.89 55.88 48.00 55.15 49.10 54.44 L 49.51 54.82 C 50.43 55.99 51.29 57.24 52.14 58.46 C 52.13 56.84 52.14 55.22 52.14 53.59 C 52.61 54.48 53.07 55.37 53.52 56.26 C 54.04 55.49 54.56 54.72 55.09 53.95 C 56.39 53.92 57.70 53.91 59.00 53.89 C 59.60 54.12 60.20 54.33 60.81 54.54 L 62.17 53.59 C 62.45 53.40 62.72 53.20 63.00 53.00 C 65.02 52.88 67.02 52.61 69.04 52.42 Z"
     fill="#ec9972"
     id="path2421" />
  <path
     d="M 22.10 52.87 C 23.43 52.88 24.76 52.89 26.09 52.91 C 27.69 54.88 29.30 56.84 30.90 58.82 C 32.49 56.96 33.95 54.49 35.95 53.06 C 37.19 52.91 38.44 52.79 39.70 52.72 C 37.53 55.60 35.31 58.45 33.07 61.27 C 35.28 64.14 37.47 67.01 39.65 69.90 C 38.38 69.94 37.12 69.97 35.85 70.01 C 34.18 67.99 32.54 65.95 30.90 63.91 C 29.26 65.91 27.63 67.91 26.01 69.93 C 24.71 69.94 23.41 69.96 22.11 69.97 C 24.25 67.03 26.46 64.15 28.68 61.27 C 26.47 58.48 24.31 55.66 22.10 52.87 Z"
     fill="#000000"
     id="path2423" />
  <path
     d="M 160.21 52.88 C 161.52 52.88 162.83 52.88 164.14 52.88 C 165.79 54.84 167.41 56.83 169.01 58.82 C 170.60 56.82 172.20 54.83 173.84 52.87 C 175.15 52.87 176.46 52.88 177.76 52.88 C 175.56 55.66 173.40 58.48 171.20 61.26 C 173.40 64.15 175.61 67.03 177.77 69.94 C 176.48 69.95 175.19 69.96 173.90 69.96 C 172.26 67.94 170.63 65.92 169.00 63.90 C 167.36 65.92 165.73 67.95 164.08 69.96 C 162.79 69.96 161.50 69.95 160.22 69.94 C 162.37 67.02 164.58 64.14 166.80 61.26 C 164.58 58.49 162.42 55.66 160.21 52.88 Z"
     fill="#010101"
     id="path2425" />
  <path
     d="M 58.81 55.98 C 59.20 56.90 59.19 57.82 58.77 58.74 C 57.30 58.42 57.26 56.19 58.81 55.98 Z"
     fill="#2d1e15"
     id="path2427" />
  <path
     d="M 118.91 59.21 C 118.82 83.47 118.92 107.74 118.86 132.00 C 118.85 134.78 118.92 137.56 119.08 140.34 C 115.31 144.89 111.23 149.20 107.10 153.41 C 107.13 124.93 107.17 96.45 107.08 67.96 C 111.02 65.04 114.96 62.12 118.91 59.21 Z"
     fill="#fefefe"
     id="path2429" />
  <path
     d="M 99.94 63.47 L 99.11 63.32 C 99.19 60.94 101.96 61.79 99.94 63.47 Z"
     fill="#ede9d8"
     id="path2431" />
  <path
     d="M 53.27 62.09 C 55.30 64.96 54.96 68.18 55.38 71.57 C 55.90 71.55 56.41 71.52 56.92 71.49 C 56.43 73.08 56.05 74.30 56.46 75.97 C 54.32 77.43 52.10 78.77 49.84 80.04 C 49.60 78.89 49.38 77.74 49.17 76.59 C 49.54 74.11 50.00 71.65 50.41 69.18 C 51.18 69.70 51.96 70.22 52.73 70.74 C 52.82 67.85 52.95 64.96 53.27 62.09 Z"
     fill="#c07c72"
     id="path2433" />
  <path
     d="M 67.84 64.36 C 69.05 65.32 67.77 67.87 66.73 65.95 C 66.62 64.75 66.99 64.22 67.84 64.36 Z"
     fill="#bc675a"
     id="path2435" />
  <path
     d="M 47.09 65.00 L 47.86 65.01 L 48.23 65.78 L 47.87 66.56 L 47.09 66.56 L 46.71 65.78 L 47.09 65.00 Z"
     fill="#e29170"
     id="path2437" />
  <path
     d="M 98.82 64.17 C 100.01 65.38 101.15 66.63 102.30 67.87 C 100.71 68.94 99.11 70.00 97.51 71.04 C 97.67 68.54 97.26 66.31 98.82 64.17 Z"
     fill="#a9a399"
     id="path2439" />
  <path
     d="M 101.93 64.71 C 103.28 64.30 105.09 66.31 103.07 66.69 C 102.21 66.35 101.83 65.69 101.93 64.71 Z"
     fill="#d1cebd"
     id="path2441" />
  <path
     d="M 83.21 66.38 C 86.01 69.34 89.40 71.71 92.02 74.82 C 90.93 75.92 89.80 76.93 88.53 77.82 C 86.75 75.89 85.68 74.78 82.90 74.52 C 83.32 73.91 83.73 73.30 84.15 72.70 C 82.53 73.66 80.92 74.63 79.32 75.61 C 78.49 74.76 77.67 73.92 76.84 73.08 C 75.46 73.05 74.07 73.01 72.69 72.95 L 72.10 72.79 C 72.95 71.62 73.79 70.45 74.63 69.27 C 73.61 68.84 72.58 68.41 71.55 67.99 C 75.31 66.03 79.12 66.35 83.21 66.38 Z"
     fill="#ee9874"
     id="path2443" />
  <path
     d="M 71.55 67.99 C 72.58 68.41 73.61 68.84 74.63 69.27 C 73.79 70.45 72.95 71.62 72.10 72.79 L 72.69 72.95 C 73.74 73.44 74.79 73.94 75.80 74.49 C 72.23 75.07 71.01 76.92 69.50 79.95 C 68.77 82.85 68.45 85.84 68.45 88.83 C 63.34 88.69 58.26 88.57 53.17 89.22 L 52.53 89.20 C 51.67 86.39 50.92 83.54 50.18 80.70 C 57.30 76.44 64.27 71.97 71.55 67.99 Z"
     fill="#e48475"
     id="path2445" />
  <path
     d="M 107.08 67.96 C 107.17 96.45 107.13 124.93 107.10 153.41 C 104.75 155.79 102.36 158.12 99.97 160.45 C 97.55 158.13 95.16 155.79 92.81 153.40 C 92.81 128.43 92.78 103.46 92.82 78.49 C 97.57 74.98 102.32 71.46 107.08 67.96 Z"
     fill="#e31e24"
     id="path2447" />
  <path
     d="M 60.82 71.05 C 60.85 71.72 60.87 72.39 60.90 73.06 C 59.42 74.03 57.94 74.99 56.46 75.97 C 56.05 74.30 56.43 73.08 56.92 71.49 C 58.23 71.37 59.53 71.22 60.82 71.05 Z"
     fill="#f4af8e"
     id="path2449" />
  <path
     d="M 72.69 72.95 C 74.07 73.01 75.46 73.05 76.84 73.08 C 77.67 73.92 78.49 74.76 79.32 75.61 C 80.92 74.63 82.53 73.66 84.15 72.70 C 83.73 73.30 83.32 73.91 82.90 74.52 C 80.58 77.29 80.56 80.26 80.46 83.72 C 79.68 84.29 78.90 84.86 78.12 85.44 L 78.21 82.95 C 78.01 80.21 78.41 76.22 75.80 74.49 C 74.79 73.94 73.74 73.44 72.69 72.95 Z"
     fill="#c47860"
     id="path2451" />
  <path
     d="M 75.80 74.49 C 78.41 76.22 78.01 80.21 78.21 82.95 C 75.51 82.87 72.82 82.80 70.12 82.72 C 69.91 81.80 69.71 80.87 69.50 79.95 C 71.01 76.92 72.23 75.07 75.80 74.49 Z"
     fill="#fbfdfe"
     id="path2453" />
  <path
     d="M 82.90 74.52 C 85.68 74.78 86.75 75.89 88.53 77.82 C 85.81 79.75 83.16 81.76 80.46 83.72 C 80.56 80.26 80.58 77.29 82.90 74.52 Z"
     fill="#fefefe"
     id="path2455" />
  <path
     d="M 92.82 78.49 C 92.78 103.46 92.81 128.43 92.81 153.40 C 88.68 149.18 84.62 144.88 80.83 140.35 C 80.90 122.69 80.89 105.02 80.84 87.35 C 84.82 84.38 88.82 81.44 92.82 78.49 Z"
     fill="#fefefe"
     id="path2457" />
  <path
     d="M 69.50 79.95 C 69.71 80.87 69.91 81.80 70.12 82.72 C 72.82 82.80 75.51 82.87 78.21 82.95 L 78.12 85.44 C 75.15 87.68 72.15 89.88 69.14 92.07 L 68.51 92.03 C 68.49 90.96 68.47 89.89 68.45 88.83 C 68.45 85.84 68.77 82.85 69.50 79.95 Z"
     fill="#dce9f7"
     id="path2459" />
  <path
     d="M 80.84 87.35 C 80.89 105.02 80.90 122.69 80.83 140.35 C 75.54 134.05 70.82 127.30 66.57 120.25 C 66.59 112.79 66.55 105.33 66.58 97.86 C 71.35 94.37 76.09 90.86 80.84 87.35 Z"
     fill="#e31e24"
     id="path2461" />
  <path
     d="M 52.53 89.20 L 53.17 89.22 C 58.18 90.79 63.32 91.43 68.51 92.03 L 69.14 92.07 C 66.64 93.94 64.18 95.84 61.65 97.68 C 59.24 96.57 56.80 95.51 54.31 94.59 C 53.68 92.81 53.09 91.01 52.53 89.20 Z"
     fill="#66748a"
     id="path2463" />
  <path
     d="M 53.17 89.22 C 58.26 88.57 63.34 88.69 68.45 88.83 C 68.47 89.89 68.49 90.96 68.51 92.03 C 63.32 91.43 58.18 90.79 53.17 89.22 Z"
     fill="#565d6d"
     id="path2465" />
  <path
     d="M 54.31 94.59 C 56.80 95.51 59.24 96.57 61.65 97.68 C 60.04 98.86 58.44 100.06 56.83 101.27 C 55.97 99.05 55.10 96.83 54.31 94.59 Z"
     fill="#8197b2"
     id="path2467" />
  <path
     d="M 66.58 97.86 C 66.55 105.33 66.59 112.79 66.57 120.25 C 63.41 115.06 60.68 109.64 58.10 104.14 C 60.93 102.06 63.75 99.95 66.58 97.86 Z"
     fill="#fefefe"
     id="path2469" />
  <path
     d="M 131.54 136.66 C 133.27 135.70 134.86 136.84 135.64 138.41 C 138.52 144.43 136.95 153.38 130.90 156.90 C 128.72 158.06 127.25 156.70 126.34 154.80 C 123.84 148.76 125.39 139.93 131.54 136.66 Z"
     fill="#000000"
     id="path2471" />
  <path
     d="M 66.11 137.24 C 69.39 141.09 74.00 144.85 74.96 149.98 C 75.49 151.75 74.86 153.15 74.33 154.80 C 75.23 158.14 76.36 160.83 74.24 164.03 C 71.26 161.47 68.74 158.51 66.14 155.58 C 66.13 149.47 66.15 143.35 66.11 137.24 Z"
     fill="#000000"
     id="path2473" />
  <path
     d="M 130.53 140.60 C 131.69 139.75 132.86 140.21 133.45 141.46 C 134.93 144.58 135.05 149.01 132.91 151.87 C 132.11 152.90 130.31 154.39 129.25 152.86 C 126.81 149.49 127.02 143.22 130.53 140.60 Z"
     fill="#fefefe"
     id="path2475" />
  <path
     d="M 68.19 142.89 C 71.06 145.17 73.26 147.60 73.12 151.52 C 71.14 150.20 69.57 148.67 68.12 146.78 C 68.11 145.49 68.13 144.19 68.19 142.89 Z"
     fill="#bababa"
     id="path2477" />
  <path
     d="M 68.37 149.99 C 71.16 152.91 73.40 155.11 73.22 159.51 C 71.32 158.18 69.77 156.69 68.38 154.82 C 68.34 153.20 68.36 151.61 68.37 149.99 Z"
     fill="#ffffff"
     id="path2479" />
  <path
     d="M 120.99 151.48 C 122.57 156.14 123.90 160.87 125.56 165.50 C 124.59 166.45 123.61 167.39 122.63 168.32 L 121.78 165.34 C 119.68 167.52 117.23 168.72 116.75 171.96 C 116.36 174.25 115.08 175.53 113.54 177.17 C 114.74 170.14 116.25 163.16 117.62 156.16 C 117.94 153.95 119.54 152.98 120.99 151.48 Z"
     fill="#000000"
     id="path2481" />
  <path
     d="M 78.92 151.66 C 79.83 152.98 81.55 154.13 81.33 155.88 C 81.42 161.52 81.32 167.17 81.32 172.81 C 80.49 171.86 79.66 170.91 78.83 169.96 C 78.91 163.86 78.78 157.76 78.92 151.66 Z"
     fill="#0d0d0d"
     id="path2483" />
  <path
     d="M 119.40 157.13 C 120.10 159.04 120.75 160.97 121.36 162.91 C 120.15 163.97 118.94 165.03 117.72 166.08 C 118.16 163.07 118.74 160.10 119.40 157.13 Z"
     fill="#ababab"
     id="path2485" />
  <path
     d="M 87.47 160.45 C 88.40 161.22 89.29 162.06 90.19 162.88 C 90.13 167.78 90.15 172.68 90.16 177.59 C 92.95 180.65 97.28 182.37 96.61 187.18 C 93.49 184.39 90.48 181.49 87.44 178.63 C 87.51 172.57 87.40 166.51 87.47 160.45 Z"
     fill="#000000"
     id="path2487" />
  <path
     d="M 108.97 163.62 C 111.81 163.64 110.02 169.14 109.64 170.73 C 111.91 173.45 110.68 177.36 109.20 180.17 C 107.01 183.71 103.35 186.41 100.44 189.37 C 100.56 183.34 100.26 177.27 100.56 171.26 C 102.76 168.56 105.98 165.40 108.97 163.62 Z"
     fill="#000000"
     id="path2489" />
  <path
     d="M 108.09 167.49 C 108.29 171.64 105.64 173.25 102.99 175.79 C 102.98 174.47 102.96 173.14 102.93 171.81 C 104.56 170.26 106.23 168.77 108.09 167.49 Z"
     fill="#ffffff"
     id="path2491" />
  <path
     d="M 108.08 174.66 C 109.25 179.06 105.65 181.07 102.98 183.76 C 102.98 182.13 102.97 180.49 102.96 178.86 C 104.58 177.31 106.10 175.75 108.08 174.66 Z"
     fill="#fefefe"
     id="path2493" />
</svg>
