<?xml version="1.0" encoding="UTF-8" standalone="no"?>
<!DOCTYPE svg PUBLIC "-//W3C//DTD SVG 1.1//EN" "http://www.w3.org/Graphics/SVG/1.1/DTD/svg11.dtd">
<svg xmlns="http://www.w3.org/2000/svg" version="1.1" viewBox="0 0 200 200" width="200.0pt" height="200.0pt">
<path d="M 0.00 0.00 L 97.89 0.00 C 84.24 0.61 71.06 4.89 60.02 13.01 C 45.91 23.15 35.98 38.86 32.95 55.99 C 27.85 81.72 39.37 109.27 60.91 124.11 C 71.46 131.60 84.10 135.78 97.00 136.46 C 114.06 137.20 131.26 131.37 144.22 120.23 C 156.56 109.79 164.96 94.97 167.45 78.99 C 168.67 69.04 168.50 58.36 165.44 48.74 C 160.56 32.10 149.01 17.60 133.95 9.03 C 124.28 3.37 113.46 0.59 102.31 0.00 L 200.00 0.00 L 200.00 200.00 L 137.77 200.00 C 136.53 197.24 135.36 194.45 134.16 191.68 C 133.71 191.62 133.26 191.56 132.81 191.50 C 131.56 194.32 130.31 197.14 129.14 199.99 C 131.60 198.22 134.71 196.50 136.57 200.00 L 124.77 200.00 C 124.78 197.15 124.78 194.30 124.74 191.45 L 123.36 191.80 C 123.24 194.53 123.30 197.27 123.31 200.00 L 118.13 200.00 C 117.98 196.95 118.83 193.38 117.06 190.82 C 116.87 193.01 116.85 195.21 116.84 197.41 C 115.15 195.30 113.47 193.11 111.67 191.10 C 110.25 193.60 111.00 197.19 110.86 200.00 L 107.04 200.00 C 105.35 198.44 103.80 198.60 101.64 198.50 L 101.65 196.48 C 103.48 196.21 105.07 196.81 106.42 195.33 C 104.83 195.21 103.23 195.12 101.63 195.06 L 101.66 193.02 C 103.19 193.02 104.72 193.02 106.25 193.02 L 106.29 191.65 C 104.21 191.64 102.13 191.64 100.05 191.64 C 100.04 194.42 100.04 197.21 100.05 200.00 L 95.18 200.00 C 95.18 197.38 95.19 194.77 95.22 192.15 C 94.77 191.88 94.32 191.60 93.86 191.32 C 92.94 192.69 92.02 194.06 91.09 195.43 C 90.01 194.25 89.01 191.62 87.31 191.39 C 86.49 194.09 86.96 197.21 86.88 200.00 L 82.64 200.00 C 81.84 199.00 81.09 197.98 80.33 196.95 C 81.03 196.44 81.73 195.92 82.43 195.41 C 82.13 194.24 82.29 192.69 81.11 192.00 C 79.38 191.44 77.35 191.65 75.55 191.63 C 75.45 194.42 75.51 197.21 75.51 200.00 L 71.35 200.00 C 69.73 196.97 68.82 193.66 66.85 190.97 C 65.01 193.83 63.97 196.99 62.45 200.00 L 0.00 200.00 L 0.00 0.00 Z" fill="#ffffff" />
<path d="M 97.89 0.00 L 102.31 0.00 C 113.46 0.59 124.28 3.37 133.95 9.03 C 149.01 17.60 160.56 32.10 165.44 48.74 C 168.50 58.36 168.67 69.04 167.45 78.99 C 164.96 94.97 156.56 109.79 144.22 120.23 C 131.26 131.37 114.06 137.20 97.00 136.46 C 84.10 135.78 71.46 131.60 60.91 124.11 C 39.37 109.27 27.85 81.72 32.95 55.99 C 35.98 38.86 45.91 23.15 60.02 13.01 C 71.06 4.89 84.24 0.61 97.89 0.00 Z" fill="#000000" />
<path d="M 93.50 6.69 C 111.97 4.47 131.23 11.51 144.18 24.83 C 155.77 36.50 162.20 52.60 162.02 69.04 C 161.79 78.51 159.62 87.89 155.26 96.33 C 146.88 112.82 130.92 125.18 112.75 128.85 C 89.44 134.16 64.07 124.15 50.14 104.85 C 42.37 94.33 37.90 81.11 38.18 68.00 C 37.98 53.28 43.77 38.49 53.47 27.47 C 63.62 15.86 78.12 8.18 93.50 6.69 Z" fill="#ffffff" />
<path d="M 89.49 13.63 C 104.57 10.46 121.06 14.40 133.34 23.66 C 144.88 32.24 153.13 45.66 155.04 59.96 C 156.79 69.50 155.28 79.81 151.78 88.80 C 145.31 105.27 130.54 118.22 113.30 122.29 C 107.37 123.98 101.11 124.00 94.99 123.68 C 76.71 122.14 59.87 110.96 51.17 94.83 C 41.75 77.82 42.23 56.06 52.41 39.49 C 60.44 26.19 74.18 16.44 89.49 13.63 Z" fill="#000000" />
<path d="M 140.32 39.71 C 148.13 50.57 151.02 64.40 148.68 77.53 C 138.22 67.22 127.88 56.79 117.40 46.49 C 105.81 57.97 94.31 69.54 82.74 81.04 C 76.97 75.22 71.13 69.49 65.34 63.70 C 60.67 68.25 56.13 72.94 51.44 77.48 C 50.77 71.64 50.53 65.81 51.39 59.97 C 54.46 40.82 69.60 24.61 88.51 20.27 C 107.69 15.18 129.04 23.53 140.32 39.71 Z" fill="#ffffff" />
<path d="M 117.39 55.35 C 127.21 64.98 136.88 74.75 146.67 84.39 C 140.27 103.59 121.30 117.54 101.00 117.53 C 88.54 118.02 76.80 113.26 67.33 105.35 C 83.30 89.34 99.34 73.39 115.34 57.39 C 116.02 56.71 116.71 56.03 117.39 55.35 Z" fill="#ffffff" />
<path d="M 65.36 72.63 C 69.74 76.85 73.96 81.23 78.33 85.45 C 73.18 90.57 68.07 95.75 62.87 100.83 C 58.71 95.77 55.76 90.71 53.33 84.62 C 56.62 81.17 60.05 77.84 63.42 74.45 C 64.06 73.84 64.71 73.23 65.36 72.63 Z" fill="#ffffff" />
<path d="M 12.75 149.58 C 16.23 149.61 19.71 149.61 23.18 149.60 C 27.59 159.92 31.60 170.40 36.03 180.71 C 33.76 180.73 31.49 180.74 29.22 180.77 C 28.39 178.86 27.62 176.95 26.89 175.01 C 22.04 174.99 17.19 175.00 12.34 175.00 C 11.57 176.92 10.78 178.83 9.97 180.74 C 7.70 180.73 5.43 180.72 3.15 180.71 C 6.77 172.09 10.25 163.40 13.81 154.75 C 14.84 152.78 13.36 151.46 12.75 149.58 Z" fill="#000000" />
<path d="M 40.96 149.58 C 46.64 149.71 52.35 149.40 58.02 149.78 C 61.89 150.05 66.33 152.55 67.52 156.46 C 68.64 159.56 67.82 163.37 66.17 166.15 C 64.75 168.30 62.68 169.01 60.43 169.99 C 63.25 173.58 66.11 177.15 68.91 180.75 C 66.38 180.74 63.85 180.73 61.31 180.74 C 58.64 177.30 55.94 173.87 53.25 170.45 C 51.92 170.45 50.59 170.45 49.26 170.45 C 49.27 173.88 49.27 177.30 49.27 180.72 C 47.09 180.73 44.90 180.73 42.72 180.72 C 42.71 172.46 42.72 164.20 42.74 155.94 C 42.90 153.57 41.87 151.70 40.96 149.58 Z" fill="#000000" />
<path d="M 81.18 149.57 C 84.68 149.61 88.18 149.60 91.68 149.63 C 95.80 160.03 100.09 170.35 104.32 180.70 C 102.06 180.72 99.81 180.73 97.55 180.74 C 96.76 178.83 95.95 176.92 95.16 175.00 C 90.29 175.00 85.42 175.00 80.55 175.00 C 79.90 176.90 79.23 178.78 78.54 180.67 C 76.20 180.72 73.86 180.74 71.52 180.75 C 75.23 171.65 79.06 162.58 82.62 153.42 C 82.15 152.13 81.68 150.85 81.18 149.57 Z" fill="#000000" />
<path d="M 109.16 149.56 C 114.77 149.72 120.41 149.40 126.02 149.77 C 130.02 150.04 134.25 152.44 135.64 156.38 C 137.33 162.24 134.69 168.33 128.56 169.99 C 131.34 173.59 134.22 177.13 137.00 180.73 C 134.46 180.73 131.91 180.73 129.37 180.72 C 126.75 177.26 124.06 173.84 121.33 170.46 C 119.98 170.45 118.63 170.45 117.27 170.45 C 117.29 173.88 117.29 177.31 117.28 180.74 C 115.12 180.73 112.95 180.73 110.78 180.72 C 110.78 172.46 110.78 164.21 110.80 155.95 C 110.93 153.61 110.00 151.68 109.16 149.56 Z" fill="#000000" />
<path d="M 149.31 149.58 C 152.79 149.61 156.27 149.61 159.75 149.60 C 163.86 160.01 168.28 170.30 172.36 180.72 C 170.12 180.73 167.87 180.73 165.63 180.74 C 164.87 178.81 164.08 176.89 163.27 174.99 C 158.35 175.03 153.47 174.91 148.56 175.11 C 147.93 176.99 147.28 178.86 146.63 180.72 C 144.31 180.73 141.99 180.74 139.67 180.76 C 143.29 171.62 147.20 162.59 150.72 153.42 C 150.26 152.14 149.79 150.86 149.31 149.58 Z" fill="#000000" />
<path d="M 171.45 149.63 C 179.89 149.57 188.32 149.62 196.75 149.60 C 196.51 151.56 196.28 153.51 196.05 155.47 C 193.47 155.47 190.89 155.47 188.31 155.47 C 188.33 163.90 188.33 172.32 188.31 180.74 C 186.18 180.74 184.04 180.74 181.90 180.75 C 181.89 172.33 181.87 163.91 181.91 155.48 C 179.19 155.47 176.47 155.47 173.75 155.47 C 173.35 154.48 172.95 153.49 172.56 152.49 C 172.19 151.54 171.82 150.59 171.45 149.63 Z" fill="#000000" />
<path d="M 49.34 155.56 C 52.61 155.40 56.48 155.13 59.55 156.45 C 62.18 158.17 61.47 163.41 58.23 164.15 C 55.42 164.98 52.18 164.56 49.27 164.63 C 49.29 161.61 49.15 158.57 49.34 155.56 Z" fill="#ffffff" />
<path d="M 117.36 155.56 C 120.48 155.38 123.90 155.21 126.91 156.14 C 130.20 157.06 129.95 162.78 126.93 163.90 C 124.06 165.11 120.36 164.52 117.29 164.63 C 117.31 161.61 117.16 158.57 117.36 155.56 Z" fill="#ffffff" />
<path d="M 19.53 156.21 C 21.27 160.69 23.00 165.17 24.81 169.62 C 21.33 169.58 17.84 169.58 14.36 169.59 C 16.18 165.17 17.95 160.72 19.53 156.21 Z" fill="#ffffff" />
<path d="M 87.98 156.36 C 89.63 160.79 91.34 165.20 93.19 169.55 C 89.72 169.59 86.25 169.59 82.77 169.61 C 84.51 165.19 86.18 160.75 87.98 156.36 Z" fill="#ffffff" />
<path d="M 156.09 156.45 C 157.78 160.83 159.48 165.20 161.23 169.56 C 157.79 169.59 154.35 169.59 150.91 169.62 C 152.61 165.22 154.26 160.80 156.09 156.45 Z" fill="#ffffff" />
<path d="M 66.85 190.97 C 68.82 193.66 69.73 196.97 71.35 200.00 L 69.94 200.00 C 68.62 197.28 65.08 197.32 63.73 200.00 L 62.45 200.00 C 63.97 196.99 65.01 193.83 66.85 190.97 Z" fill="#000000" />
<path d="M 75.55 191.63 C 77.35 191.65 79.38 191.44 81.11 192.00 C 82.29 192.69 82.13 194.24 82.43 195.41 C 81.73 195.92 81.03 196.44 80.33 196.95 C 81.09 197.98 81.84 199.00 82.64 200.00 L 80.41 200.00 C 79.95 198.87 79.31 197.92 78.49 197.16 C 76.69 196.35 76.73 199.14 77.54 200.00 L 75.51 200.00 C 75.51 197.21 75.45 194.42 75.55 191.63 Z" fill="#000000" />
<path d="M 87.31 191.39 C 89.01 191.62 90.01 194.25 91.09 195.43 C 92.02 194.06 92.94 192.69 93.86 191.32 C 94.32 191.60 94.77 191.88 95.22 192.15 C 95.19 194.77 95.18 197.38 95.18 200.00 L 93.60 200.00 C 93.62 198.01 93.65 196.02 93.71 194.03 C 92.83 194.91 92.00 197.55 90.54 196.92 L 88.29 194.31 C 88.37 196.20 88.43 198.10 88.47 200.00 L 86.88 200.00 C 86.96 197.21 86.49 194.09 87.31 191.39 Z" fill="#000000" />
<path d="M 111.67 191.10 C 113.47 193.11 115.15 195.30 116.84 197.41 C 116.85 195.21 116.87 193.01 117.06 190.82 C 118.83 193.38 117.98 196.95 118.13 200.00 L 117.11 200.00 C 115.46 198.12 113.95 196.11 112.40 194.17 C 112.41 196.11 112.43 198.06 112.44 200.00 L 110.86 200.00 C 111.00 197.19 110.25 193.60 111.67 191.10 Z" fill="#000000" />
<path d="M 123.36 191.80 L 124.74 191.45 C 124.78 194.30 124.78 197.15 124.77 200.00 L 123.31 200.00 C 123.30 197.27 123.24 194.53 123.36 191.80 Z" fill="#000000" />
<path d="M 134.16 191.68 C 135.36 194.45 136.53 197.24 137.77 200.00 L 136.57 200.00 C 134.71 196.50 131.60 198.22 129.14 199.99 C 130.31 197.14 131.56 194.32 132.81 191.50 C 133.26 191.56 133.71 191.62 134.16 191.68 Z" fill="#000000" />
<path d="M 100.05 191.64 C 102.13 191.64 104.21 191.64 106.29 191.65 L 106.25 193.02 C 104.72 193.02 103.19 193.02 101.66 193.02 L 101.63 195.06 C 103.23 195.12 104.83 195.21 106.42 195.33 C 105.07 196.81 103.48 196.21 101.65 196.48 L 101.64 198.50 C 103.80 198.60 105.35 198.44 107.04 200.00 L 100.05 200.00 C 100.04 197.21 100.04 194.42 100.05 191.64 Z" fill="#000000" />
<path d="M 77.06 193.54 C 78.09 193.03 80.30 192.98 80.64 194.37 C 80.21 195.45 79.25 195.87 77.77 195.63 C 77.21 195.19 76.98 194.49 77.06 193.54 Z" fill="#ffffff" />
<path d="M 66.99 193.95 C 67.65 194.63 68.15 195.37 68.49 196.18 C 67.79 196.84 66.81 197.08 65.55 196.91 C 65.53 195.69 65.77 194.50 66.99 193.95 Z" fill="#ffffff" />
<path d="M 93.71 194.03 C 93.65 196.02 93.62 198.01 93.60 200.00 L 88.47 200.00 C 88.43 198.10 88.37 196.20 88.29 194.31 L 90.54 196.92 C 92.00 197.55 92.83 194.91 93.71 194.03 Z" fill="#ffffff" />
<path d="M 133.23 193.47 C 134.32 194.17 134.79 195.57 134.59 196.82 C 133.78 196.89 132.99 196.86 132.22 196.73 C 132.18 195.64 132.52 194.55 133.23 193.47 Z" fill="#ffffff" />
<path d="M 112.40 194.17 C 113.95 196.11 115.46 198.12 117.11 200.00 L 112.44 200.00 C 112.43 198.06 112.41 196.11 112.40 194.17 Z" fill="#ffffff" />
<path d="M 78.49 197.16 C 79.31 197.92 79.95 198.87 80.41 200.00 L 77.54 200.00 C 76.73 199.14 76.69 196.35 78.49 197.16 Z" fill="#ffffff" />
<path d="M 69.94 200.00 L 63.73 200.00 C 65.08 197.32 68.62 197.28 69.94 200.00 Z" fill="#ffffff" />
</svg>