<?xml version="1.0" encoding="UTF-8" standalone="no"?>
<svg
   xmlns:dc="http://purl.org/dc/elements/1.1/"
   xmlns:cc="http://creativecommons.org/ns#"
   xmlns:rdf="http://www.w3.org/1999/02/22-rdf-syntax-ns#"
   xmlns:svg="http://www.w3.org/2000/svg"
   xmlns="http://www.w3.org/2000/svg"
   xmlns:sodipodi="http://sodipodi.sourceforge.net/DTD/sodipodi-0.dtd"
   xmlns:inkscape="http://www.inkscape.org/namespaces/inkscape"
   inkscape:version="1.0 (4035a4f, 2020-05-01)"
   sodipodi:docname="82.svg"
   id="svg3579"
   height="200.0pt"
   width="200.0pt"
   viewBox="0 0 200 200"
   version="1.1">
  <metadata
     id="metadata3585">
    <rdf:RDF>
      <cc:Work
         rdf:about="">
        <dc:format>image/svg+xml</dc:format>
        <dc:type
           rdf:resource="http://purl.org/dc/dcmitype/StillImage" />
      </cc:Work>
    </rdf:RDF>
  </metadata>
  <defs
     id="defs3583" />
  <sodipodi:namedview
     inkscape:current-layer="svg3579"
     inkscape:cy="133.33333"
     inkscape:cx="133.33333"
     inkscape:zoom="1.16625"
     showgrid="false"
     id="namedview3581"
     inkscape:window-height="480"
     inkscape:window-width="640"
     inkscape:pageshadow="2"
     inkscape:pageopacity="0"
     guidetolerance="10"
     gridtolerance="10"
     objecttolerance="10"
     borderopacity="1"
     bordercolor="#666666"
     pagecolor="#ffffff" />
  <path
     style="fill:#ffffff;fill-opacity:0"
     id="path3467"
     fill="#ffffff"
     d="M 0.00 0.00 L 95.51 0.00 C 90.88 1.40 86.08 3.10 82.43 6.40 C 80.66 7.92 79.07 9.85 77.09 11.08 C 74.22 12.39 71.01 12.95 68.04 14.05 C 54.30 18.93 41.64 27.00 31.50 37.50 C 18.69 50.40 9.85 67.23 6.19 85.02 C 2.76 101.24 3.79 118.27 8.96 134.01 C 13.79 148.63 22.17 162.05 33.22 172.77 C 44.84 184.11 59.43 192.38 75.12 196.55 C 80.27 198.01 85.61 198.34 90.72 200.00 L 0.00 200.00 L 0.00 0.00 Z" />
  <path
     id="path3469"
     fill="#d1d3d5"
     d="M 95.51 0.00 L 104.70 0.00 L 105.58 0.27 C 109.80 1.76 114.20 3.36 117.55 6.43 C 120.05 8.55 121.69 11.12 124.99 11.96 C 149.04 18.44 170.20 34.78 182.59 56.39 C 186.76 65.66 190.90 74.75 192.91 84.79 C 196.84 104.10 194.95 124.57 186.74 142.56 C 180.03 157.11 169.82 170.43 156.86 179.95 C 146.93 187.40 135.68 193.02 123.62 196.05 C 118.44 197.64 113.54 197.21 108.76 200.00 L 90.72 200.00 C 85.61 198.34 80.27 198.01 75.12 196.55 C 59.43 192.38 44.84 184.11 33.22 172.77 C 22.17 162.05 13.79 148.63 8.96 134.01 C 3.79 118.27 2.76 101.24 6.19 85.02 C 9.85 67.23 18.69 50.40 31.50 37.50 C 41.64 27.00 54.30 18.93 68.04 14.05 C 71.01 12.95 74.22 12.39 77.09 11.08 C 79.07 9.85 80.66 7.92 82.43 6.40 C 86.08 3.10 90.88 1.40 95.51 0.00 Z" />
  <path
     style="fill:#ffffff;fill-opacity:0"
     id="path3471"
     fill="#ffffff"
     d="M 104.70 0.00 L 200.00 0.00 L 200.00 200.00 L 108.76 200.00 C 113.54 197.21 118.44 197.64 123.62 196.05 C 135.68 193.02 146.93 187.40 156.86 179.95 C 169.82 170.43 180.03 157.11 186.74 142.56 C 194.95 124.57 196.84 104.10 192.91 84.79 C 190.90 74.75 186.76 65.66 182.59 56.39 C 170.20 34.78 149.04 18.44 124.99 11.96 C 121.69 11.12 120.05 8.55 117.55 6.43 C 114.20 3.36 109.80 1.76 105.58 0.27 L 104.70 0.00 Z" />
  <path
     id="path3473"
     fill="#63ae4f"
     d="M 94.08 5.89 C 94.04 7.92 94.01 9.94 93.97 11.97 L 92.98 12.12 C 89.53 14.03 86.66 16.56 83.51 18.91 C 83.34 22.48 83.48 25.95 83.85 29.51 L 83.83 31.08 C 83.11 32.90 81.30 34.94 81.42 36.92 C 82.73 40.04 85.47 42.67 87.48 45.37 L 86.31 45.36 C 84.72 43.81 83.25 42.13 82.07 40.23 C 79.13 35.05 76.44 30.36 77.76 24.15 C 79.15 18.82 81.54 12.52 86.07 9.08 C 88.43 7.11 91.20 6.69 94.08 5.89 Z" />
  <path
     id="path3475"
     fill="#ffffff"
     d="M 112.57 8.96 C 116.76 10.71 119.49 14.77 121.05 18.87 C 121.89 22.71 122.42 26.70 122.64 30.63 C 120.24 32.35 117.83 34.04 115.35 35.65 C 115.12 34.27 114.84 32.90 114.70 31.52 C 116.44 28.70 118.10 25.86 119.56 22.88 C 119.08 22.10 118.59 21.32 118.10 20.54 C 116.71 18.29 115.16 16.16 113.74 13.94 C 113.24 12.31 112.86 10.64 112.57 8.96 Z" />
  <path
     id="path3477"
     fill="#ffffff"
     d="M 93.97 11.97 C 96.99 13.05 100.26 14.21 102.82 16.18 C 103.89 18.91 103.50 22.38 103.43 25.27 C 100.48 24.36 97.69 23.85 95.41 21.59 C 92.86 19.56 93.42 15.09 92.98 12.12 L 93.97 11.97 Z" />
  <path
     id="path3479"
     fill="#63ae4f"
     d="M 113.74 13.94 C 115.16 16.16 116.71 18.29 118.10 20.54 C 114.67 23.96 110.68 26.33 106.55 28.77 C 105.74 28.41 104.94 28.04 104.14 27.67 C 103.95 23.59 103.90 19.51 104.01 15.42 C 107.24 14.79 110.47 14.31 113.74 13.94 Z" />
  <path
     id="path3481"
     fill="#d1d3d5"
     d="M 111.72 15.11 C 111.23 16.69 110.77 18.31 110.07 19.81 C 108.79 21.54 107.03 22.95 105.52 24.47 C 105.50 21.81 105.40 19.15 105.26 16.49 C 107.41 16.02 109.56 15.55 111.72 15.11 Z" />
  <path
     id="path3483"
     fill="#ffffff"
     d="M 67.57 18.97 C 38.98 29.59 17.05 55.15 10.76 84.98 C 6.72 103.05 8.57 122.22 15.65 139.29 C 22.78 156.51 35.40 171.43 51.13 181.40 C 49.53 181.29 47.53 181.59 46.06 180.91 C 31.87 171.36 21.13 157.60 14.07 142.11 C 10.15 133.58 8.04 124.11 6.72 114.85 C 6.22 108.29 6.34 101.56 6.58 94.99 C 8.32 77.59 15.21 60.64 25.86 46.79 C 29.00 42.64 32.74 39.31 36.49 35.50 C 43.89 28.02 53.48 22.55 62.96 18.16 C 64.90 17.13 65.83 18.15 67.57 18.97 Z" />
  <path
     id="path3485"
     fill="#0d7ec0"
     d="M 76.29 16.23 C 74.70 20.76 73.37 25.14 74.00 30.01 C 74.54 35.99 77.29 41.06 81.04 45.63 C 75.82 47.38 71.17 49.55 66.55 52.57 C 63.32 55.04 58.16 53.89 54.26 54.10 C 54.26 57.03 54.26 59.97 54.24 62.90 C 48.31 69.65 43.70 77.41 41.05 86.02 C 36.45 100.68 37.57 116.96 44.25 130.80 C 50.93 144.85 63.02 156.06 77.49 161.76 C 76.63 162.49 75.78 163.21 74.93 163.94 C 72.92 163.05 70.90 162.19 68.88 161.32 C 65.98 167.47 63.70 173.97 60.41 179.92 C 58.45 181.76 58.36 182.86 58.23 185.44 C 55.83 184.16 53.46 182.80 51.13 181.40 C 35.40 171.43 22.78 156.51 15.65 139.29 C 8.57 122.22 6.72 103.05 10.76 84.98 C 17.05 55.15 38.98 29.59 67.57 18.97 C 70.46 17.99 73.38 17.13 76.29 16.23 Z" />
  <path
     id="path3487"
     fill="#2064a5"
     d="M 123.71 16.25 C 131.13 18.31 138.29 21.18 144.98 25.02 C 169.34 38.72 186.91 64.14 190.49 91.92 C 193.24 111.30 189.29 131.63 179.69 148.68 C 173.10 160.53 163.73 170.86 152.69 178.73 C 137.15 189.80 118.08 195.76 99.00 195.51 C 84.87 195.41 70.81 191.85 58.23 185.44 C 58.36 182.86 58.45 181.76 60.41 179.92 L 60.30 181.60 C 63.68 183.25 67.18 184.66 70.67 186.05 C 71.11 184.80 71.54 183.56 71.97 182.32 C 69.75 181.33 67.54 180.35 65.33 179.36 C 66.01 177.87 66.69 176.39 67.37 174.90 C 69.31 175.75 71.25 176.60 73.20 177.46 C 73.80 176.27 74.41 175.08 75.02 173.89 C 73.01 172.95 70.99 172.01 68.97 171.10 C 69.64 169.63 70.31 168.16 70.98 166.69 C 73.26 167.69 75.55 168.64 77.88 169.51 C 78.36 168.31 78.83 167.11 79.31 165.91 C 77.85 165.25 76.39 164.59 74.93 163.94 C 75.78 163.21 76.63 162.49 77.49 161.76 C 87.79 165.82 99.09 166.85 110.01 165.14 C 123.66 162.90 136.39 155.90 145.62 145.61 C 157.31 132.86 163.07 115.18 161.24 97.99 C 159.92 84.98 154.30 72.67 145.59 62.94 C 145.58 60.03 145.60 57.11 145.62 54.19 C 141.70 54.01 136.65 55.12 133.40 52.63 C 128.83 49.62 124.12 47.43 118.96 45.65 C 122.43 41.29 125.15 36.64 125.84 31.01 C 126.68 25.85 125.44 21.07 123.71 16.25 Z" />
  <path
     id="path3489"
     fill="#2064a5"
     d="M 118.10 20.54 C 118.59 21.32 119.08 22.10 119.56 22.88 C 118.10 25.86 116.44 28.70 114.70 31.52 C 111.88 30.86 109.18 29.98 106.55 28.77 C 110.68 26.33 114.67 23.96 118.10 20.54 Z" />
  <path
     id="path3491"
     fill="#2064a5"
     d="M 83.85 29.51 C 87.58 30.20 91.01 32.48 94.57 34.01 C 94.98 37.43 95.34 40.84 95.65 44.27 C 92.92 44.72 90.25 45.17 87.48 45.37 C 85.47 42.67 82.73 40.04 81.42 36.92 C 81.30 34.94 83.11 32.90 83.83 31.08 L 83.85 29.51 Z" />
  <path
     id="path3493"
     fill="#2064a5"
     d="M 114.40 41.47 C 115.84 41.30 117.35 41.54 118.80 41.63 C 115.07 45.86 110.78 48.48 105.52 50.41 C 105.55 49.32 105.57 48.23 105.58 47.14 C 108.71 45.53 111.41 43.30 114.40 41.47 Z" />
  <path
     id="path3495"
     fill="#ed4942"
     d="M 56.89 56.65 C 61.30 56.63 65.72 56.63 70.14 56.60 C 70.05 63.23 70.48 69.90 69.80 76.44 C 69.62 78.66 69.53 80.87 69.33 83.08 L 68.94 83.99 C 64.92 83.85 60.91 83.80 56.89 83.87 C 56.92 74.79 56.86 65.72 56.89 56.65 Z" />
  <path
     id="path3497"
     fill="#fff212"
     d="M 70.14 56.60 C 75.08 56.56 80.02 56.57 84.96 56.59 C 84.99 63.05 84.73 69.48 85.25 75.93 C 84.92 77.01 84.47 78.02 83.89 78.95 C 82.78 77.23 82.39 74.98 81.71 73.06 C 80.55 75.32 79.25 77.39 77.74 79.44 C 76.32 77.37 75.18 75.25 74.19 72.94 C 73.27 74.92 72.48 76.95 71.69 78.98 C 71.06 78.13 70.44 77.28 69.80 76.44 C 70.48 69.90 70.05 63.23 70.14 56.60 Z" />
  <path
     id="path3499"
     fill="#ed4942"
     d="M 84.96 56.59 C 89.31 56.61 93.66 56.60 98.01 56.63 C 97.96 65.70 97.96 74.78 98.00 83.85 C 94.20 83.81 90.41 83.85 86.62 84.03 C 85.56 81.38 85.47 78.74 85.25 75.93 C 84.73 69.48 84.99 63.05 84.96 56.59 Z" />
  <path
     id="path3501"
     fill="#63ae4f"
     d="M 102.75 56.59 C 108.92 56.59 115.10 56.57 121.28 56.57 C 121.17 57.83 121.06 59.08 120.96 60.33 C 120.48 59.61 120.01 58.87 119.56 58.13 C 118.45 60.73 116.37 59.72 114.05 60.36 C 116.43 61.74 118.80 61.95 121.49 62.10 C 121.06 63.65 120.58 65.19 120.14 66.75 C 121.75 66.67 123.37 66.60 124.98 66.53 C 124.39 65.91 123.79 65.29 123.19 64.66 C 123.15 63.81 123.12 62.96 123.08 62.11 C 125.77 61.94 128.18 61.71 130.59 60.40 C 128.55 60.00 126.61 59.95 124.85 58.72 C 124.09 58.75 123.34 58.78 122.58 58.81 C 123.00 58.09 123.44 57.38 123.89 56.68 C 129.90 56.33 135.98 56.64 142.01 56.59 C 141.99 57.81 141.96 59.04 141.94 60.26 C 141.43 59.57 140.93 58.88 140.43 58.19 C 140.17 58.70 139.91 59.20 139.65 59.71 C 137.92 59.88 136.19 60.06 134.47 60.28 C 136.87 61.72 139.26 61.93 142.00 62.08 C 141.99 62.99 141.99 63.90 141.98 64.81 C 141.37 65.34 140.75 65.88 140.14 66.42 C 141.13 66.52 142.12 66.61 143.11 66.71 C 143.51 73.20 142.86 79.06 141.71 85.42 C 141.27 84.63 140.82 83.84 140.36 83.06 C 140.15 83.64 139.94 84.21 139.73 84.79 C 137.99 84.95 136.25 85.08 134.51 85.29 C 136.88 86.87 139.24 87.02 142.00 87.15 C 141.98 88.06 141.97 88.96 141.95 89.87 C 141.38 90.48 140.81 91.09 140.24 91.70 C 141.18 91.74 142.13 91.78 143.08 91.82 C 143.47 98.19 142.76 104.20 141.71 110.45 C 141.25 109.65 140.80 108.85 140.36 108.05 C 140.16 108.64 139.96 109.24 139.76 109.84 C 138.00 109.97 136.25 110.10 134.50 110.29 C 136.85 112.14 139.40 111.99 142.24 112.18 C 141.82 113.77 141.40 115.35 140.97 116.93 L 142.98 117.14 C 142.88 123.33 142.46 129.24 139.79 134.94 C 138.02 135.02 136.25 135.13 134.48 135.29 C 135.90 136.27 137.47 136.92 139.07 137.57 C 137.57 140.16 136.01 142.70 134.45 145.26 L 134.16 144.51 L 133.32 142.30 C 131.91 144.13 132.06 146.14 131.82 148.33 C 131.39 147.51 130.98 146.68 130.56 145.85 C 130.23 146.50 129.90 147.14 129.57 147.79 C 127.93 147.92 126.30 148.06 124.67 148.23 C 126.43 148.93 128.21 149.56 129.99 150.19 C 127.69 152.41 125.32 154.33 122.39 155.68 C 119.19 158.04 115.74 159.87 111.82 160.70 C 109.61 160.91 107.25 160.20 105.06 159.89 C 104.90 159.24 104.73 158.59 104.57 157.94 C 104.10 158.81 103.62 159.67 103.14 160.54 C 101.68 154.41 101.80 148.27 101.93 142.03 L 103.85 142.02 C 103.41 140.40 102.97 138.78 102.53 137.15 C 105.36 136.90 107.80 137.50 109.91 135.19 C 108.32 135.09 106.73 135.02 105.14 134.97 C 104.86 134.24 104.59 133.50 104.34 132.75 L 103.96 135.00 L 102.99 135.00 C 101.72 129.03 101.79 123.05 101.93 116.98 L 103.87 116.99 C 103.42 115.38 102.96 113.78 102.52 112.17 C 105.29 111.95 107.73 112.21 109.92 110.20 C 108.33 110.09 106.74 110.01 105.15 109.95 C 104.88 109.21 104.61 108.47 104.33 107.72 L 103.96 110.00 L 103.01 110.00 C 101.73 103.99 101.79 97.99 101.93 91.88 L 103.87 91.81 C 103.42 90.27 102.95 88.73 102.52 87.17 C 105.27 87.00 107.64 86.96 109.92 85.21 C 108.33 85.10 106.74 85.00 105.15 84.93 C 104.94 84.23 104.73 83.52 104.52 82.81 C 104.07 83.70 103.61 84.60 103.16 85.49 C 101.92 79.55 101.42 73.24 102.15 67.21 L 103.70 66.23 C 103.31 64.85 102.92 63.47 102.53 62.09 C 105.26 61.91 107.64 61.82 109.96 60.20 C 108.39 60.08 106.81 59.99 105.23 59.91 C 104.98 59.21 104.73 58.51 104.51 57.79 C 104.02 58.68 103.53 59.56 103.04 60.44 C 102.94 59.16 102.85 57.87 102.75 56.59 Z" />
  <path
     id="path3503"
     fill="#ffffff"
     d="M 133.38 67.02 C 133.83 69.16 134.08 71.32 134.37 73.49 C 134.75 72.56 135.14 71.63 135.52 70.70 C 135.69 71.17 135.86 71.64 136.03 72.11 C 137.85 72.51 139.64 72.80 141.38 73.48 C 138.86 73.97 136.31 74.17 133.75 74.30 C 133.95 76.12 134.18 77.66 135.14 79.26 C 133.62 79.17 132.10 79.09 130.58 79.01 C 131.17 78.52 131.76 78.04 132.35 77.55 C 132.32 76.47 132.29 75.40 132.26 74.32 C 129.91 74.19 127.56 74.01 125.23 73.63 C 126.58 72.80 127.94 72.72 129.48 72.57 C 129.82 72.10 130.15 71.63 130.49 71.16 L 131.92 73.30 C 132.31 71.30 131.95 68.61 133.38 67.02 Z" />
  <path
     id="path3505"
     fill="#ffffff"
     d="M 112.75 67.10 C 113.18 69.15 113.43 71.22 113.71 73.30 L 115.31 71.48 C 115.70 71.95 116.09 72.42 116.48 72.89 C 117.55 72.77 118.63 72.65 119.70 72.53 L 119.90 73.93 C 117.71 74.05 115.52 74.15 113.33 74.23 C 113.28 75.40 113.23 76.56 113.18 77.73 C 113.88 78.17 114.58 78.62 115.28 79.07 C 113.43 79.07 111.58 79.07 109.73 79.05 C 110.41 78.59 111.09 78.13 111.78 77.67 C 111.74 76.53 111.70 75.38 111.66 74.24 C 109.47 74.16 107.27 74.06 105.08 73.96 L 105.31 72.74 C 107.14 72.61 108.34 72.93 109.64 71.36 C 110.13 72.03 110.63 72.71 111.13 73.38 C 111.44 71.13 111.65 69.11 112.75 67.10 Z" />
  <path
     id="path3507"
     fill="#ffffff"
     d="M 74.19 72.94 C 75.18 75.25 76.32 77.37 77.74 79.44 C 79.25 77.39 80.55 75.32 81.71 73.06 C 82.39 74.98 82.78 77.23 83.89 78.95 C 84.47 78.02 84.92 77.01 85.25 75.93 C 85.47 78.74 85.56 81.38 86.62 84.03 C 87.21 85.48 87.94 86.97 88.24 88.52 C 88.48 91.99 86.91 95.69 85.48 98.78 L 84.95 99.93 L 84.27 99.85 C 85.09 98.38 85.85 96.87 86.63 95.37 C 81.52 96.65 76.40 97.89 71.32 99.25 C 73.25 101.92 75.34 104.09 77.90 106.17 C 80.12 104.16 82.29 102.09 84.27 99.85 C 82.81 102.83 80.40 104.76 77.93 106.85 C 72.68 103.17 68.42 97.42 67.44 91.01 C 66.98 88.39 67.77 86.28 68.94 83.99 L 69.33 83.08 C 69.53 80.87 69.62 78.66 69.80 76.44 C 70.44 77.28 71.06 78.13 71.69 78.98 C 72.48 76.95 73.27 74.92 74.19 72.94 Z" />
  <path
     id="path3509"
     fill="#ed4942"
     d="M 73.74 74.69 C 74.40 75.62 75.05 76.55 75.68 77.50 C 76.29 78.38 76.90 79.26 77.49 80.16 C 79.01 78.45 80.51 76.73 82.04 75.03 C 82.16 76.28 82.74 79.29 82.74 80.45 C 83.49 79.79 84.21 79.12 84.93 78.43 C 85.22 81.03 85.70 83.44 86.51 85.92 C 85.51 86.17 84.50 86.42 83.50 86.67 C 78.53 87.82 73.63 89.30 68.62 90.27 L 67.72 89.99 C 68.06 87.47 68.94 85.46 70.30 83.33 C 70.22 81.74 70.13 80.14 70.05 78.55 C 70.83 79.19 71.61 79.83 72.40 80.46 C 72.81 78.53 73.27 76.61 73.74 74.69 Z" />
  <path
     id="path3511"
     fill="#ffffff"
     d="M 122.72 79.50 C 122.93 81.34 123.10 83.17 123.24 85.00 L 124.47 85.16 L 124.83 82.89 C 125.07 83.61 125.31 84.33 125.54 85.06 C 127.19 85.13 128.84 85.23 130.48 85.35 C 128.12 86.70 125.74 86.77 123.09 86.86 C 123.09 87.94 123.10 89.02 123.10 90.11 C 123.69 90.61 124.28 91.11 124.88 91.62 C 123.32 91.62 121.76 91.64 120.20 91.67 C 120.83 90.10 121.32 88.50 121.76 86.86 C 119.01 86.74 116.52 86.80 114.10 85.30 C 115.68 85.22 117.27 85.15 118.85 85.09 C 119.02 84.53 119.19 83.97 119.37 83.42 C 119.87 84.15 120.37 84.88 120.86 85.62 C 121.20 83.44 121.53 81.41 122.72 79.50 Z" />
  <path
     id="path3513"
     fill="#fff212"
     d="M 56.89 83.87 C 60.91 83.80 64.92 83.85 68.94 83.99 C 67.77 86.28 66.98 88.39 67.44 91.01 C 68.42 97.42 72.68 103.17 77.93 106.85 C 80.40 104.76 82.81 102.83 84.27 99.85 L 84.95 99.93 C 84.97 119.89 84.90 139.85 84.98 159.81 C 79.42 157.71 74.33 154.56 70.07 150.41 C 70.26 133.22 70.12 116.02 70.14 98.82 C 65.73 98.80 61.31 98.79 56.90 98.82 C 56.86 93.84 56.87 88.85 56.89 83.87 Z" />
  <path
     id="path3515"
     fill="#fff212"
     d="M 86.62 84.03 C 90.41 83.85 94.20 83.81 98.00 83.85 C 98.04 88.84 98.04 93.82 98.01 98.81 C 93.83 98.81 89.66 98.81 85.48 98.78 C 86.91 95.69 88.48 91.99 88.24 88.52 C 87.94 86.97 87.21 85.48 86.62 84.03 Z" />
  <path
     id="path3517"
     fill="#ffffff"
     d="M 83.50 86.67 C 84.50 86.42 85.51 86.17 86.51 85.92 C 86.68 86.53 86.84 87.14 87.00 87.75 C 80.87 89.82 74.59 91.25 68.27 92.60 C 68.39 91.82 68.51 91.04 68.62 90.27 C 73.63 89.30 78.53 87.82 83.50 86.67 Z" />
  <path
     id="path3519"
     fill="#ed4942"
     d="M 87.96 90.86 C 84.20 91.67 80.38 92.29 76.67 93.29 C 74.19 93.97 71.66 95.07 69.10 95.34 C 71.59 93.11 74.35 93.66 77.33 92.54 C 80.82 91.37 84.25 90.40 87.96 90.86 Z" />
  <path
     id="path3521"
     fill="#ffffff"
     d="M 112.77 92.20 C 113.19 94.22 113.42 96.25 113.68 98.29 L 115.02 96.95 C 116.90 97.42 118.82 97.91 120.61 98.67 C 118.12 99.11 115.61 99.31 113.09 99.44 C 113.32 101.52 113.12 102.67 114.96 104.05 C 113.35 104.10 111.74 104.20 110.14 104.31 C 111.27 102.73 111.69 101.42 111.97 99.48 C 109.40 99.34 106.86 99.18 104.34 98.66 C 105.71 97.85 107.08 97.77 108.63 97.63 C 108.93 97.14 109.22 96.66 109.52 96.18 L 111.12 98.45 C 111.45 96.22 111.61 94.18 112.77 92.20 Z" />
  <path
     id="path3523"
     fill="#ffffff"
     d="M 132.50 93.27 L 133.71 93.07 C 133.95 94.63 134.22 96.18 134.52 97.74 C 134.86 97.04 135.20 96.34 135.55 95.65 C 135.78 96.24 135.98 96.84 136.16 97.45 C 137.92 97.72 139.67 97.99 141.39 98.47 C 138.87 99.08 136.33 99.33 133.75 99.46 C 134.01 101.10 134.33 102.68 134.88 104.25 C 133.62 104.24 132.36 104.23 131.10 104.24 C 131.81 102.73 132.22 101.16 132.59 99.53 C 129.90 99.37 127.27 99.17 124.68 98.39 C 126.28 98.05 127.89 97.81 129.51 97.58 C 129.86 97.04 130.21 96.49 130.55 95.95 L 131.07 98.49 C 132.24 96.90 132.24 95.14 132.50 93.27 Z" />
  <path
     id="path3525"
     fill="#ed4942"
     d="M 86.63 95.37 C 85.85 96.87 85.09 98.38 84.27 99.85 C 82.29 102.09 80.12 104.16 77.90 106.17 C 75.34 104.09 73.25 101.92 71.32 99.25 C 76.40 97.89 81.52 96.65 86.63 95.37 Z" />
  <path
     id="path3527"
     fill="#ed4942"
     d="M 56.90 98.82 C 61.31 98.79 65.73 98.80 70.14 98.82 C 70.12 116.02 70.26 133.22 70.07 150.41 C 62.11 142.73 57.22 132.10 56.96 121.00 C 56.86 113.61 56.98 106.21 56.90 98.82 Z" />
  <path
     id="path3529"
     fill="#ed4942"
     d="M 85.48 98.78 C 89.66 98.81 93.83 98.81 98.01 98.81 C 97.96 120.03 97.96 141.25 98.01 162.47 C 93.55 162.08 89.18 161.38 84.98 159.81 C 84.90 139.85 84.97 119.89 84.95 99.93 L 85.48 98.78 Z" />
  <path
     id="path3531"
     fill="#ffffff"
     d="M 183.14 99.15 C 184.46 99.13 185.77 99.11 187.08 99.09 C 187.08 100.19 187.07 101.29 187.06 102.40 C 186.32 103.10 185.58 103.80 184.87 104.53 C 188.10 107.61 186.78 110.97 186.77 114.92 C 179.41 114.80 172.09 114.13 164.74 113.81 C 164.80 111.57 164.79 109.26 165.18 107.04 C 165.63 104.74 167.56 102.84 169.97 102.78 C 174.27 102.60 178.62 103.22 182.91 103.51 C 182.99 102.06 183.07 100.60 183.14 99.15 Z" />
  <path
     id="path3533"
     fill="#ffffff"
     d="M 18.10 100.58 C 22.33 100.30 26.67 100.05 30.91 100.32 C 34.82 100.89 36.89 105.49 34.84 108.86 C 33.37 111.40 31.06 111.42 28.47 111.87 C 28.40 110.65 28.34 109.44 28.28 108.22 C 29.65 107.47 31.04 106.75 32.40 105.97 C 31.62 105.27 30.79 104.74 29.92 104.37 C 25.98 104.19 21.76 104.23 17.86 104.76 C 16.00 105.98 17.17 107.82 18.98 107.86 C 21.23 107.92 21.06 107.89 22.33 106.09 C 23.46 106.09 24.60 106.09 25.74 106.10 C 25.77 107.97 25.82 109.85 25.83 111.72 C 22.00 111.59 16.01 113.24 13.74 109.18 C 11.42 105.65 13.99 100.86 18.10 100.58 Z" />
  <path
     id="path3535"
     fill="#ffffff"
     d="M 122.73 104.53 C 122.95 106.35 123.07 108.18 123.20 110.01 L 124.52 110.16 L 124.86 107.90 C 125.06 108.62 125.27 109.34 125.49 110.05 C 127.17 110.15 128.85 110.27 130.53 110.42 C 128.20 111.75 125.75 111.79 123.13 111.90 C 123.11 112.98 123.09 114.06 123.06 115.14 C 123.69 115.68 124.33 116.21 124.96 116.74 C 123.22 116.71 121.48 116.69 119.74 116.67 C 120.32 116.16 120.91 115.65 121.50 115.14 C 121.46 114.06 121.43 112.97 121.40 111.89 C 118.81 111.78 116.40 111.77 114.10 110.42 C 115.73 110.25 117.37 110.10 119.00 109.96 C 119.14 109.48 119.29 109.00 119.43 108.52 C 119.90 109.24 120.37 109.96 120.83 110.69 C 121.22 108.48 121.52 106.45 122.73 104.53 Z" />
  <path
     id="path3537"
     fill="#2064a5"
     d="M 169.82 106.73 C 173.87 106.90 177.98 107.01 182.00 107.56 C 182.71 108.39 183.20 109.43 183.48 110.67 C 178.58 110.65 173.61 110.22 168.68 109.91 C 169.04 108.84 169.42 107.78 169.82 106.73 Z" />
  <path
     id="path3539"
     fill="#ffffff"
     d="M 36.07 115.52 C 37.01 119.18 38.02 122.81 39.04 126.45 C 37.70 126.79 36.36 127.12 35.02 127.46 C 34.41 125.11 33.79 122.77 33.17 120.43 C 31.58 120.86 29.99 121.28 28.40 121.71 C 28.97 123.82 29.53 125.93 30.09 128.05 C 28.83 128.35 27.56 128.66 26.29 128.96 C 25.63 126.87 24.96 124.78 24.27 122.69 C 22.78 123.18 21.28 123.66 19.79 124.14 C 20.39 126.48 20.99 128.82 21.59 131.16 C 20.33 131.55 19.06 131.93 17.80 132.32 C 16.66 128.63 15.67 124.91 14.91 121.13 C 21.98 119.32 28.98 117.26 36.07 115.52 Z" />
  <path
     id="path3541"
     fill="#ffffff"
     d="M 112.83 117.06 C 113.04 118.90 113.20 120.74 113.33 122.59 C 115.76 122.68 118.19 122.84 120.62 123.12 C 118.28 124.42 115.91 124.46 113.31 124.52 C 113.28 125.57 113.25 126.63 113.21 127.68 C 113.82 128.19 114.44 128.70 115.06 129.20 C 113.43 129.24 111.79 129.30 110.16 129.34 C 111.18 127.80 111.66 126.44 111.98 124.60 C 109.38 124.47 106.83 124.23 104.29 123.67 C 106.17 123.05 108.01 122.69 109.61 121.46 C 110.11 122.13 110.61 122.79 111.13 123.44 C 111.47 121.21 111.80 119.09 112.83 117.06 Z" />
  <path
     id="path3543"
     fill="#ffffff"
     d="M 132.50 118.29 L 133.70 118.05 C 133.90 119.98 134.03 121.85 134.88 123.62 L 135.61 120.89 C 135.89 121.48 136.16 122.06 136.44 122.65 C 138.12 122.85 139.80 123.02 141.44 123.44 C 138.93 124.19 136.38 124.44 133.77 124.56 C 134.06 126.15 134.38 127.74 134.73 129.32 C 133.56 129.31 132.39 129.31 131.21 129.31 C 131.72 127.76 132.16 126.20 132.59 124.62 C 129.90 124.47 127.27 124.26 124.68 123.45 C 126.29 123.12 127.91 122.88 129.54 122.65 C 129.89 122.06 130.24 121.47 130.59 120.88 L 130.98 123.55 C 132.43 122.00 132.20 120.24 132.50 118.29 Z" />
  <path
     id="path3545"
     fill="#ffffff"
     d="M 181.53 121.37 C 182.80 121.48 184.09 121.74 185.35 121.96 C 184.97 123.38 184.61 124.81 184.22 126.23 C 182.94 125.77 181.66 125.32 180.38 124.86 C 180.74 123.69 181.10 122.51 181.53 121.37 Z" />
  <path
     id="path3547"
     fill="#ffffff"
     d="M 160.68 128.05 C 167.95 129.67 175.27 131.06 182.53 132.76 C 182.02 133.98 181.51 135.19 181.01 136.40 C 180.09 136.28 179.17 136.16 178.25 136.04 C 177.79 137.06 177.32 138.08 176.86 139.10 C 177.64 139.72 178.43 140.33 179.22 140.95 C 178.59 142.09 177.95 143.23 177.32 144.36 C 171.23 140.11 165.09 135.94 158.98 131.72 C 159.55 130.50 160.11 129.27 160.68 128.05 Z" />
  <path
     id="path3549"
     fill="#ffffff"
     d="M 40.05 129.65 C 42.15 132.90 43.92 136.45 45.56 139.96 C 44.38 140.49 43.20 141.02 42.02 141.55 C 41.42 140.51 40.83 139.46 40.24 138.42 C 35.06 141.32 29.76 144.00 24.57 146.88 C 23.91 145.66 23.26 144.44 22.60 143.21 C 27.91 140.53 33.10 137.64 38.36 134.88 C 37.83 133.85 37.31 132.82 36.81 131.78 C 37.86 131.03 38.95 130.33 40.05 129.65 Z" />
  <path
     id="path3551"
     fill="#ffffff"
     d="M 122.72 129.53 C 122.93 131.37 123.06 133.22 123.17 135.07 L 124.42 135.21 C 124.66 134.44 124.89 133.67 125.12 132.89 L 125.36 135.11 C 127.08 135.20 128.80 135.31 130.52 135.47 C 128.27 136.94 125.89 136.80 123.30 136.90 C 123.22 138.07 123.14 139.23 123.05 140.40 C 123.72 140.83 124.38 141.26 125.05 141.68 C 123.28 141.71 121.51 141.75 119.74 141.79 C 120.34 141.26 120.94 140.73 121.54 140.21 C 121.48 139.12 121.42 138.03 121.36 136.94 C 118.76 136.76 116.40 137.05 114.20 135.40 C 115.77 135.29 117.35 135.21 118.92 135.14 C 119.10 134.63 119.28 134.12 119.45 133.61 C 119.87 134.30 120.30 135.00 120.72 135.69 C 121.20 133.54 121.61 131.46 122.72 129.53 Z" />
  <path
     id="path3553"
     fill="#2064a5"
     d="M 168.89 133.98 C 170.57 134.24 172.29 134.44 173.92 134.90 L 174.01 137.10 C 172.27 136.12 170.57 135.07 168.89 133.98 Z" />
  <path
     id="path3555"
     fill="#ffffff"
     d="M 112.89 142.34 C 113.09 144.12 113.21 145.90 113.30 147.69 C 115.74 147.78 118.17 147.92 120.59 148.20 C 118.15 149.54 115.75 149.56 113.03 149.62 C 113.29 151.51 113.70 152.87 114.74 154.44 C 113.22 154.41 111.70 154.41 110.18 154.43 C 111.18 152.87 111.67 151.48 111.98 149.63 C 109.24 149.55 106.81 149.60 104.39 148.15 C 106.03 148.05 107.67 147.97 109.31 147.92 L 109.01 145.80 C 109.76 146.66 110.53 147.51 111.29 148.36 C 111.63 146.24 111.67 144.20 112.89 142.34 Z" />
  <path
     id="path3557"
     fill="#ffffff"
     d="M 48.84 144.01 C 49.72 144.96 50.57 145.95 51.43 146.94 C 46.63 152.72 42.02 158.66 37.11 164.34 C 36.25 163.31 35.40 162.28 34.54 161.25 C 35.11 160.53 35.68 159.82 36.24 159.11 C 35.55 158.26 34.85 157.41 34.15 156.56 C 30.93 158.08 31.15 156.62 28.85 154.77 C 35.36 151.00 42.13 147.40 48.84 144.01 Z" />
  <path
     id="path3559"
     fill="#ffffff"
     d="M 134.16 144.51 L 134.45 145.26 L 133.39 146.52 C 131.55 146.48 132.66 144.07 134.16 144.51 Z" />
  <path
     id="path3561"
     fill="#ffffff"
     d="M 156.82 148.90 C 155.89 149.95 154.96 150.99 154.03 152.03 C 153.11 151.42 152.19 150.80 151.26 150.19 C 150.64 150.91 150.01 151.62 149.39 152.34 C 152.83 155.37 159.02 153.06 162.95 155.00 C 166.80 157.56 166.34 163.42 162.01 165.16 C 158.92 166.47 157.02 164.63 154.58 163.11 C 155.43 162.12 156.27 161.14 157.12 160.16 C 158.25 160.46 160.19 162.40 160.92 160.93 C 163.05 159.78 160.48 157.99 159.02 158.26 C 155.81 157.91 151.93 158.44 148.94 157.17 C 144.91 154.80 144.87 149.23 149.06 147.00 C 152.23 145.46 154.26 147.20 156.82 148.90 Z" />
  <path
     id="path3563"
     fill="#ffffff"
     d="M 170.48 148.44 C 171.65 148.99 172.77 149.67 173.90 150.31 C 173.16 151.47 172.42 152.62 171.67 153.77 C 170.52 153.04 169.38 152.31 168.24 151.58 C 168.96 150.52 169.68 149.44 170.48 148.44 Z" />
  <path
     id="path3565"
     fill="#0d7ec0"
     d="M 42.29 151.82 C 41.16 153.24 40.07 155.31 38.28 155.90 C 36.60 153.56 40.94 152.91 42.29 151.82 Z" />
  <path
     id="path3567"
     fill="#ffffff"
     d="M 56.60 152.61 C 59.71 154.79 62.69 157.15 65.58 159.61 C 64.74 160.59 63.89 161.58 63.05 162.57 C 61.12 161.10 59.19 159.63 57.26 158.16 C 56.26 159.46 55.25 160.76 54.24 162.06 C 55.97 163.38 57.70 164.70 59.42 166.02 C 58.61 167.10 57.80 168.18 56.99 169.26 C 55.28 167.95 53.57 166.64 51.87 165.32 C 50.03 167.73 48.17 170.14 46.28 172.51 C 45.24 171.69 44.20 170.87 43.16 170.04 C 47.68 164.28 51.80 158.15 56.60 152.61 Z" />
  <path
     id="path3569"
     fill="#ffffff"
     d="M 68.88 161.32 C 70.90 162.19 72.92 163.05 74.93 163.94 C 76.39 164.59 77.85 165.25 79.31 165.91 C 78.83 167.11 78.36 168.31 77.88 169.51 C 75.55 168.64 73.26 167.69 70.98 166.69 C 70.31 168.16 69.64 169.63 68.97 171.10 C 70.99 172.01 73.01 172.95 75.02 173.89 C 74.41 175.08 73.80 176.27 73.20 177.46 C 71.25 176.60 69.31 175.75 67.37 174.90 C 66.69 176.39 66.01 177.87 65.33 179.36 C 67.54 180.35 69.75 181.33 71.97 182.32 C 71.54 183.56 71.11 184.80 70.67 186.05 C 67.18 184.66 63.68 183.25 60.30 181.60 L 60.41 179.92 C 63.70 173.97 65.98 167.47 68.88 161.32 Z" />
  <path
     id="path3571"
     fill="#ffffff"
     d="M 127.45 163.26 L 127.79 164.01 C 128.23 165.01 128.68 166.01 129.12 167.00 C 126.80 167.88 124.47 168.73 122.13 169.58 C 122.68 171.14 123.26 172.69 123.82 174.25 C 125.86 173.50 127.90 172.75 129.95 172.01 C 130.36 173.30 130.76 174.59 131.16 175.89 C 129.18 176.59 127.19 177.29 125.21 177.99 C 126.24 180.87 127.27 183.74 128.15 186.68 C 126.92 187.06 125.68 187.44 124.45 187.82 C 121.91 180.95 119.39 174.08 116.97 167.17 C 120.47 165.88 123.97 164.60 127.45 163.26 Z" />
  <path
     id="path3573"
     fill="#ffffff"
     d="M 103.04 169.93 C 105.28 171.57 105.08 173.72 105.54 176.21 C 104.28 176.21 103.03 176.20 101.77 176.19 C 100.90 174.38 101.09 171.91 98.27 173.25 C 97.59 177.58 97.63 182.57 98.10 186.93 C 101.02 188.68 100.49 185.94 101.74 184.11 C 102.96 184.11 104.19 184.12 105.41 184.12 C 105.01 186.49 105.18 188.54 103.15 190.18 C 99.96 192.90 94.58 191.30 93.93 187.02 C 93.57 182.72 93.70 178.28 93.93 173.97 C 94.18 169.54 99.55 167.18 103.04 169.93 Z" />
  <path
     id="path3575"
     fill="#ffffff"
     d="M 139.38 177.35 C 139.95 178.55 140.51 179.75 141.07 180.94 C 139.89 181.54 138.70 182.14 137.51 182.73 C 136.92 181.52 136.33 180.31 135.75 179.09 C 136.96 178.51 138.17 177.93 139.38 177.35 Z" />
  <path
     id="path3577"
     fill="#ffffff"
     d="M 115.83 185.55 C 116.24 186.85 116.60 188.18 116.96 189.50 C 115.60 189.75 114.24 190.00 112.89 190.24 C 112.64 188.92 112.38 187.60 112.13 186.28 C 113.36 186.02 114.59 185.76 115.83 185.55 Z" />
</svg>
