<?xml version="1.0" encoding="UTF-8" standalone="no"?>
<!DOCTYPE svg PUBLIC "-//W3C//DTD SVG 1.1//EN" "http://www.w3.org/Graphics/SVG/1.1/DTD/svg11.dtd">
<svg xmlns="http://www.w3.org/2000/svg" version="1.1" viewBox="0 0 200 200" width="200.0pt" height="200.0pt">
<path d="M 0.00 0.00 L 81.85 0.00 C 81.67 0.57 81.49 1.14 81.31 1.71 C 80.36 4.47 79.43 7.24 78.64 10.05 C 74.94 10.39 71.25 10.21 67.54 10.27 C 69.71 13.15 73.32 14.97 76.15 17.22 C 75.17 20.74 73.89 24.18 72.88 27.69 C 74.09 27.11 75.27 26.59 76.38 25.81 C 78.38 24.32 80.40 22.85 82.50 21.48 C 84.38 23.38 86.74 24.94 88.96 26.41 C 89.72 26.90 90.48 27.38 91.25 27.85 C 90.60 24.20 89.30 20.79 88.10 17.31 C 91.05 15.12 94.07 13.11 96.89 10.75 C 93.44 9.76 89.53 10.44 85.96 10.28 C 84.71 6.89 83.74 3.41 82.54 0.00 L 117.88 0.00 L 117.36 1.58 C 116.41 4.39 115.46 7.20 114.64 10.05 C 110.94 10.40 107.25 10.21 103.53 10.26 C 105.72 13.15 109.33 14.95 112.15 17.22 C 111.20 20.76 109.89 24.19 108.88 27.71 L 110.31 26.97 C 113.22 25.52 115.71 23.30 118.46 21.52 C 120.44 23.36 122.70 24.94 124.95 26.43 C 125.71 26.91 126.47 27.37 127.24 27.83 C 126.70 24.14 125.31 20.81 124.13 17.30 C 126.82 15.13 130.03 13.46 132.44 11.00 L 132.21 10.25 C 128.80 10.13 125.39 10.31 121.98 10.25 C 120.78 6.86 119.75 3.41 118.62 0.00 L 200.00 0.00 L 200.00 200.00 L 101.85 200.00 C 103.19 199.23 104.30 198.43 105.15 197.13 C 123.01 171.40 141.03 145.67 158.92 119.96 C 160.95 117.19 160.75 114.03 158.68 111.35 C 140.88 85.81 123.06 60.28 105.25 34.74 C 103.85 32.80 102.61 31.49 100.01 31.57 C 96.32 31.63 95.21 34.81 93.28 37.33 C 76.20 61.89 59.07 86.43 41.94 110.96 C 40.68 112.87 39.53 114.57 40.00 116.99 C 40.65 119.27 42.41 121.33 43.73 123.28 C 60.17 146.83 76.63 170.47 93.04 193.98 C 94.67 196.29 95.86 198.58 98.43 200.00 L 0.00 200.00 L 0.00 0.00 Z" fill="#ffffff" />
<path d="M 81.85 0.00 L 82.54 0.00 C 83.74 3.41 84.71 6.89 85.96 10.28 C 89.53 10.44 93.44 9.76 96.89 10.75 C 94.07 13.11 91.05 15.12 88.10 17.31 C 89.30 20.79 90.60 24.20 91.25 27.85 C 90.48 27.38 89.72 26.90 88.96 26.41 C 88.26 23.27 86.50 19.61 86.50 16.46 C 88.65 14.47 91.12 12.85 93.26 10.82 C 90.20 10.59 87.19 10.63 84.14 10.86 C 83.12 7.83 82.18 4.78 81.31 1.71 C 81.49 1.14 81.67 0.57 81.85 0.00 Z" fill="#d29d3d" />
<path d="M 117.88 0.00 L 118.62 0.00 C 119.75 3.41 120.78 6.86 121.98 10.25 C 125.39 10.31 128.80 10.13 132.21 10.25 L 132.44 11.00 C 130.03 13.46 126.82 15.13 124.13 17.30 C 125.31 20.81 126.70 24.14 127.24 27.83 C 126.47 27.37 125.71 26.91 124.95 26.43 C 124.32 23.14 122.70 19.79 122.49 16.48 C 124.69 14.51 127.15 12.87 129.29 10.82 C 126.26 10.59 123.26 10.62 120.22 10.82 C 119.21 7.77 118.15 4.69 117.36 1.58 L 117.88 0.00 Z" fill="#d39f41" />
<path d="M 81.31 1.71 C 82.18 4.78 83.12 7.83 84.14 10.86 C 87.19 10.63 90.20 10.59 93.26 10.82 C 91.12 12.85 88.65 14.47 86.50 16.46 C 86.50 19.61 88.26 23.27 88.96 26.41 C 86.74 24.94 84.38 23.38 82.50 21.48 L 81.48 20.11 C 79.64 21.51 75.53 22.95 76.38 25.81 C 75.27 26.59 74.09 27.11 72.88 27.69 C 73.89 24.18 75.17 20.74 76.15 17.22 C 73.32 14.97 69.71 13.15 67.54 10.27 C 71.25 10.21 74.94 10.39 78.64 10.05 C 79.43 7.24 80.36 4.47 81.31 1.71 Z" fill="#e9b133" />
<path d="M 117.36 1.58 C 118.15 4.69 119.21 7.77 120.22 10.82 C 123.26 10.62 126.26 10.59 129.29 10.82 C 127.15 12.87 124.69 14.51 122.49 16.48 C 122.70 19.79 124.32 23.14 124.95 26.43 C 122.70 24.94 120.44 23.36 118.46 21.52 L 117.43 20.17 C 114.34 21.94 111.77 23.54 110.31 26.97 L 108.88 27.71 C 109.89 24.19 111.20 20.76 112.15 17.22 C 109.33 14.95 105.72 13.15 103.53 10.26 C 107.25 10.21 110.94 10.40 114.64 10.05 C 115.46 7.20 116.41 4.39 117.36 1.58 Z" fill="#e9b133" />
<path d="M 81.48 20.11 L 82.50 21.48 C 80.40 22.85 78.38 24.32 76.38 25.81 C 75.53 22.95 79.64 21.51 81.48 20.11 Z" fill="#c89137" />
<path d="M 117.43 20.17 L 118.46 21.52 C 115.71 23.30 113.22 25.52 110.31 26.97 C 111.77 23.54 114.34 21.94 117.43 20.17 Z" fill="#cd9940" />
<path d="M 100.01 31.57 C 102.61 31.49 103.85 32.80 105.25 34.74 C 123.06 60.28 140.88 85.81 158.68 111.35 C 160.75 114.03 160.95 117.19 158.92 119.96 C 141.03 145.67 123.01 171.40 105.15 197.13 C 104.30 198.43 103.19 199.23 101.85 200.00 L 98.43 200.00 C 95.86 198.58 94.67 196.29 93.04 193.98 C 76.63 170.47 60.17 146.83 43.73 123.28 C 42.41 121.33 40.65 119.27 40.00 116.99 C 39.53 114.57 40.68 112.87 41.94 110.96 C 59.07 86.43 76.20 61.89 93.28 37.33 C 95.21 34.81 96.32 31.63 100.01 31.57 Z" fill="#006ebb" />
<path d="M 98.98 34.52 C 101.21 34.08 101.53 34.53 102.82 36.18 C 120.67 61.82 138.83 87.75 156.63 113.38 C 158.02 115.32 157.80 116.62 156.51 118.52 C 139.66 142.67 122.80 166.82 105.98 190.99 C 104.45 193.11 103.04 195.68 101.01 197.35 C 97.89 197.95 96.00 192.73 94.23 190.76 C 77.53 166.81 60.82 142.86 44.12 118.90 C 43.44 117.73 42.35 116.44 42.85 115.01 C 44.13 112.40 46.06 110.07 47.69 107.66 C 63.02 85.66 78.38 63.68 93.70 41.68 C 95.40 39.28 96.97 36.66 98.98 34.52 Z" fill="#ffffff" />
<path d="M 100.10 38.17 C 101.39 39.80 102.63 41.46 103.81 43.18 C 120.63 67.44 137.70 91.57 154.40 115.91 C 137.91 139.59 121.39 163.25 104.89 186.93 C 103.37 189.17 101.80 191.38 100.10 193.49 C 81.98 167.67 63.97 141.77 45.96 115.89 C 63.87 89.90 82.02 64.04 100.10 38.17 Z" fill="#14549a" />
<path d="M 100.11 41.45 C 103.23 45.00 105.53 48.83 108.28 52.68 C 120.18 69.80 132.14 86.86 144.03 103.98 C 146.76 107.96 149.71 111.73 152.14 115.90 C 136.18 139.26 119.74 162.35 103.67 185.64 C 102.55 187.25 101.34 188.79 100.10 190.32 C 98.60 188.34 97.14 186.34 95.74 184.28 C 79.94 161.47 63.93 138.78 48.17 115.94 C 49.98 112.87 52.05 109.98 54.13 107.09 C 67.02 88.65 79.87 70.17 92.75 51.72 C 95.23 48.22 97.41 44.75 100.11 41.45 Z" fill="#0071bc" />
<path d="M 103.10 70.10 C 105.65 69.11 109.76 68.89 111.43 71.51 C 113.46 74.94 111.94 79.37 110.92 82.90 C 121.20 85.44 129.46 91.68 134.00 101.33 C 138.95 115.02 134.89 131.28 123.20 140.22 C 116.10 145.73 107.22 147.33 98.42 146.21 C 96.39 145.50 94.35 144.86 92.29 144.25 C 88.01 146.12 83.68 147.54 79.01 146.07 C 76.21 145.13 73.63 143.20 73.39 140.03 C 73.12 136.83 75.83 134.12 78.97 134.07 C 83.38 133.73 87.87 137.30 91.92 138.90 C 94.28 134.85 95.22 130.67 95.20 126.00 C 95.10 117.91 93.15 109.45 92.28 101.36 C 90.75 101.77 89.23 102.18 87.71 102.59 C 87.74 101.07 87.78 99.55 87.82 98.03 C 89.12 97.61 90.43 97.19 91.74 96.77 C 91.71 94.04 91.67 91.32 91.81 88.60 L 91.98 86.85 C 86.16 88.48 81.18 92.12 78.81 97.80 C 77.11 102.01 77.15 106.82 79.52 110.77 C 81.16 112.82 83.19 113.90 85.58 114.88 C 82.51 119.53 79.07 120.75 73.55 120.17 C 70.40 118.78 67.79 116.88 66.47 113.58 C 63.84 107.09 66.19 99.66 70.29 94.33 C 75.88 87.12 84.12 83.43 92.95 81.98 C 94.98 76.85 97.85 72.34 103.10 70.10 Z" fill="#ffffff" />
<path d="M 105.13 75.73 C 107.35 77.09 106.13 79.71 105.99 81.79 C 103.23 81.67 100.47 81.58 97.70 81.51 C 99.32 78.82 101.39 75.05 105.13 75.73 Z" fill="#0069b7" />
<path d="M 103.12 86.74 C 101.53 89.64 99.27 91.86 96.78 93.99 C 96.54 91.48 96.38 88.96 96.47 86.44 C 98.71 86.25 100.91 86.47 103.12 86.74 Z" fill="#0056a1" />
<path d="M 91.98 86.85 L 91.81 88.60 C 87.10 90.54 83.12 93.13 80.86 97.88 C 78.63 102.18 79.50 106.16 79.52 110.77 C 77.15 106.82 77.11 102.01 78.81 97.80 C 81.18 92.12 86.16 88.48 91.98 86.85 Z" fill="#1e5b9e" />
<path d="M 108.11 88.53 C 108.81 88.89 109.50 89.26 110.18 89.65 C 107.55 92.55 104.99 95.44 101.97 97.96 C 100.56 99.04 100.16 100.41 99.59 102.02 C 99.05 100.86 98.55 99.68 98.04 98.51 C 102.13 95.80 105.23 92.47 108.11 88.53 Z" fill="#19589d" />
<path d="M 110.18 89.65 C 124.67 98.27 127.33 120.33 117.21 133.20 C 113.25 138.22 107.18 141.13 100.76 140.84 C 106.97 132.08 111.32 121.90 111.24 111.02 L 109.87 109.74 C 105.60 108.12 102.10 105.95 99.59 102.02 C 100.16 100.41 100.56 99.04 101.97 97.96 C 104.99 95.44 107.55 92.55 110.18 89.65 Z" fill="#0071bc" />
<path d="M 134.00 101.33 C 137.39 104.37 137.54 109.73 137.75 113.99 C 137.88 128.51 128.79 142.45 114.58 146.54 C 109.72 147.75 102.87 149.08 98.42 146.21 C 107.22 147.33 116.10 145.73 123.20 140.22 C 134.89 131.28 138.95 115.02 134.00 101.33 Z" fill="#1f5ea1" />
<path d="M 109.87 109.74 L 111.24 111.02 C 111.32 121.90 106.97 132.08 100.76 140.84 L 97.68 140.77 C 105.69 132.23 109.07 121.22 109.87 109.74 Z" fill="#0c4e97" />
<path d="M 85.58 114.88 L 86.90 115.49 C 85.12 120.69 78.24 123.42 73.55 120.17 C 79.07 120.75 82.51 119.53 85.58 114.88 Z" fill="#2160a2" />
<path d="M 80.47 138.76 C 83.00 139.50 85.18 140.83 87.27 142.39 C 84.21 143.14 80.86 144.20 78.26 141.72 C 76.73 140.09 78.84 138.35 80.47 138.76 Z" fill="#006ebb" />
<path d="M 103.21 153.12 L 103.99 152.73 L 104.75 153.10 L 104.72 153.88 L 103.95 154.27 L 103.19 153.90 L 103.21 153.12 Z" fill="#bad0e7" />
<path d="M 106.03 153.08 L 106.75 152.67 L 107.47 153.07 L 107.47 153.90 L 106.75 154.31 L 106.03 153.91 L 106.03 153.08 Z" fill="#b2c5de" />
<path d="M 87.07 155.34 L 88.62 155.36 C 88.60 156.79 88.59 158.22 88.58 159.66 C 90.28 157.75 91.34 155.71 93.90 154.92 C 93.02 156.35 92.03 157.71 91.04 159.07 C 92.22 160.93 93.32 162.80 94.08 164.88 C 91.55 164.25 91.26 161.91 89.91 159.97 C 88.85 161.41 88.59 162.68 88.38 164.41 L 87.01 164.41 C 87.05 161.38 87.05 158.36 87.07 155.34 Z" fill="#f6f8fc" />
<path d="M 95.21 155.42 L 96.96 155.24 C 96.99 157.24 97.01 159.24 97.06 161.23 C 98.64 158.85 99.54 156.28 101.98 154.79 C 102.17 158.06 102.12 161.34 102.05 164.62 L 100.56 164.49 C 100.65 162.48 100.72 160.46 100.77 158.45 C 99.01 160.44 97.90 163.92 95.35 164.90 C 95.18 161.75 95.18 158.59 95.21 155.42 Z" fill="#c9dcee" />
<path d="M 105.95 155.04 C 106.11 158.02 106.48 161.32 105.84 164.24 L 104.71 164.74 C 104.70 161.80 104.44 158.77 104.81 155.86 L 105.95 155.04 Z" fill="#ffffff" />
<path d="M 108.71 155.01 C 110.31 155.26 112.72 154.87 114.01 156.00 C 115.66 157.14 114.63 158.19 114.53 159.81 C 114.71 161.57 115.81 162.87 113.92 164.03 C 112.36 164.86 110.20 164.49 108.47 164.63 C 108.37 161.41 108.32 158.21 108.71 155.01 Z" fill="#ccdcec" />
<path d="M 112.86 157.23 C 114.09 158.98 111.15 159.43 110.05 158.80 C 109.40 156.84 111.49 156.26 112.86 157.23 Z" fill="#0457a1" />
<path d="M 110.31 160.29 C 111.48 160.42 112.58 160.78 113.69 161.16 C 113.46 161.77 113.22 162.39 112.98 163.00 C 111.93 163.00 110.88 163.00 109.83 163.00 C 109.97 162.09 110.13 161.19 110.31 160.29 Z" fill="#4884bc" />
</svg>