<?xml version="1.0" encoding="UTF-8" standalone="no"?>
<svg
   xmlns:dc="http://purl.org/dc/elements/1.1/"
   xmlns:cc="http://creativecommons.org/ns#"
   xmlns:rdf="http://www.w3.org/1999/02/22-rdf-syntax-ns#"
   xmlns:svg="http://www.w3.org/2000/svg"
   xmlns="http://www.w3.org/2000/svg"
   xmlns:sodipodi="http://sodipodi.sourceforge.net/DTD/sodipodi-0.dtd"
   xmlns:inkscape="http://www.inkscape.org/namespaces/inkscape"
   inkscape:version="1.0 (4035a4f, 2020-05-01)"
   sodipodi:docname="90.svg"
   id="svg5456"
   height="200.0pt"
   width="200.0pt"
   viewBox="0 0 200 200"
   version="1.1">
  <metadata
     id="metadata5462">
    <rdf:RDF>
      <cc:Work
         rdf:about="">
        <dc:format>image/svg+xml</dc:format>
        <dc:type
           rdf:resource="http://purl.org/dc/dcmitype/StillImage" />
      </cc:Work>
    </rdf:RDF>
  </metadata>
  <defs
     id="defs5460" />
  <sodipodi:namedview
     inkscape:current-layer="svg5456"
     inkscape:cy="133.33333"
     inkscape:cx="133.33333"
     inkscape:zoom="1.75125"
     showgrid="false"
     id="namedview5458"
     inkscape:window-height="480"
     inkscape:window-width="640"
     inkscape:pageshadow="2"
     inkscape:pageopacity="0"
     guidetolerance="10"
     gridtolerance="10"
     objecttolerance="10"
     borderopacity="1"
     bordercolor="#666666"
     pagecolor="#ffffff" />
  <path
     style="fill:#ffffff;fill-opacity:0.02024291"
     id="path5388"
     fill="#ffffff"
     d="M 0.00 0.00 L 200.00 0.00 L 200.00 200.00 L 0.00 200.00 L 0.00 82.48 C 33.14 115.43 66.35 148.56 99.42 181.60 L 100.00 181.83 C 107.68 174.67 116.40 165.57 124.07 158.08 C 145.00 137.34 165.93 116.59 186.86 95.85 C 191.00 91.90 194.88 87.61 199.20 83.86 L 199.74 82.63 C 192.85 82.44 185.89 82.91 179.02 82.34 C 161.66 82.35 144.29 82.33 126.93 82.36 C 125.66 82.32 124.72 80.92 123.68 80.26 C 114.34 72.40 101.15 69.89 89.49 73.36 C 83.58 75.07 78.64 78.35 74.04 82.32 C 49.37 82.36 24.67 82.36 0.00 82.32 L 0.00 0.00 Z" />
  <path
     id="path5390"
     fill="#e8a713"
     d="M 100.02 16.82 C 100.79 17.38 101.53 17.99 102.25 18.65 C 103.89 19.50 102.52 20.58 102.05 21.68 C 103.04 22.60 103.63 23.58 104.24 24.77 C 111.02 25.59 118.22 27.90 123.10 32.90 C 124.43 34.08 124.92 35.64 126.99 35.49 C 135.43 36.02 144.12 43.05 143.83 52.01 C 144.14 57.01 141.00 61.23 137.40 64.36 C 136.96 65.59 136.91 66.99 135.88 67.88 C 134.73 69.20 133.00 68.94 131.40 69.36 C 130.40 70.29 129.48 70.82 128.22 71.35 C 128.25 72.23 128.28 73.12 128.32 74.00 C 126.29 75.39 125.08 75.48 123.78 77.89 C 122.26 77.52 120.99 76.10 119.55 75.44 C 106.39 67.63 89.13 68.66 76.93 77.89 C 75.13 76.90 75.00 75.02 72.42 74.55 C 72.04 73.60 71.85 72.53 71.86 71.34 C 70.69 70.79 69.79 70.02 68.81 69.19 C 64.97 69.06 63.52 67.99 62.80 64.20 C 58.88 60.71 56.03 56.49 56.45 51.00 C 57.11 42.51 64.84 36.25 73.01 35.52 C 75.69 35.64 76.18 33.53 78.06 32.08 C 83.30 27.37 89.70 25.82 96.40 24.55 C 96.88 23.60 97.40 22.66 97.94 21.73 C 97.61 20.89 97.33 20.04 97.08 19.18 C 98.72 18.87 98.92 17.84 100.02 16.82 Z" />
  <path
     id="path5392"
     fill="#ffffff"
     d="M 97.64 29.47 C 97.85 32.94 97.65 36.45 97.72 39.93 C 90.12 40.48 83.82 42.27 77.05 45.74 C 76.79 42.54 77.42 39.93 79.49 37.47 C 83.91 32.29 91.06 30.07 97.64 29.47 Z" />
  <path
     id="path5394"
     fill="#ffffff"
     d="M 102.78 29.76 C 104.90 29.30 107.38 30.29 109.50 30.69 C 115.28 32.33 121.77 36.06 123.37 42.29 C 123.44 43.75 122.69 44.69 121.93 45.83 C 118.78 42.74 113.24 41.77 109.04 40.77 C 107.00 40.38 104.93 40.32 102.89 40.02 C 102.56 36.67 102.80 33.15 102.78 29.76 Z" />
  <path
     id="path5396"
     fill="#d51e47"
     d="M 97.72 39.93 C 97.72 43.16 97.95 46.47 97.64 49.69 C 96.52 51.49 95.16 52.67 95.79 55.04 C 96.35 57.00 98.18 57.44 99.34 58.97 C 98.12 61.18 95.76 62.00 93.70 60.26 C 93.16 59.03 93.93 56.59 92.03 56.70 C 89.94 56.86 91.12 59.51 90.94 60.86 C 89.02 62.80 87.09 62.78 85.20 60.82 C 86.83 58.59 88.42 57.06 86.89 54.12 C 85.43 51.69 83.50 52.23 81.08 51.86 C 79.06 50.70 77.68 47.93 77.05 45.74 C 83.82 42.27 90.12 40.48 97.72 39.93 Z" />
  <path
     id="path5398"
     fill="#ffffff"
     d="M 72.52 40.45 C 71.94 43.57 72.11 45.88 73.03 48.87 C 69.66 52.03 66.99 55.64 66.13 60.27 C 63.78 59.46 61.98 56.18 61.36 53.87 C 60.08 46.98 66.17 41.35 72.52 40.45 Z" />
  <path
     id="path5400"
     fill="#d51e47"
     d="M 102.76 40.66 C 104.46 39.64 107.12 40.73 109.04 40.77 C 113.24 41.77 118.78 42.74 121.93 45.83 C 122.69 44.69 123.44 43.75 123.37 42.29 C 124.20 46.04 122.14 49.10 119.73 51.74 C 117.49 52.73 115.45 51.27 113.72 53.72 C 111.61 56.69 113.27 58.44 114.93 60.91 C 113.44 63.13 110.67 62.80 109.09 60.83 C 109.23 59.67 109.52 58.54 109.62 57.38 C 108.65 56.71 107.83 56.62 107.17 57.10 C 106.72 58.20 106.94 60.19 105.72 60.71 C 103.65 61.38 102.05 60.80 100.93 58.97 C 101.87 57.35 103.93 57.22 104.41 55.06 C 105.25 52.38 103.13 51.38 102.68 49.04 C 102.65 46.25 102.58 43.44 102.76 40.66 Z" />
  <path
     id="path5402"
     fill="#ffffff"
     d="M 127.90 40.63 C 133.73 40.93 139.85 46.88 139.17 53.04 C 138.74 55.59 136.62 59.59 134.08 60.32 C 133.19 55.73 130.80 52.08 127.30 49.04 L 127.82 46.96 C 128.43 44.84 128.15 42.78 127.90 40.63 Z" />
  <path
     id="path5404"
     fill="#d51e47"
     d="M 127.82 46.96 L 127.30 49.04 C 130.80 52.08 133.19 55.73 134.08 60.32 C 132.00 60.14 130.34 60.27 129.05 62.09 C 127.56 64.18 128.65 65.90 129.01 68.11 C 127.02 69.37 124.63 68.05 123.99 65.94 C 124.22 64.72 125.15 63.40 124.82 62.18 C 122.33 60.73 122.42 62.93 121.46 64.53 C 119.10 65.60 117.19 64.17 116.36 61.95 C 117.26 60.60 119.43 60.78 120.47 59.49 C 121.47 57.96 121.72 56.34 123.04 55.04 C 125.49 52.52 126.80 50.34 127.82 46.96 Z" />
  <path
     id="path5406"
     fill="#d51e47"
     d="M 73.03 48.87 C 74.46 52.76 78.16 54.79 79.33 58.69 C 79.87 60.35 82.42 60.67 83.81 61.31 C 83.82 63.73 81.59 65.37 79.24 64.75 C 78.19 63.87 78.13 62.36 76.98 61.53 C 73.67 62.45 76.06 63.98 76.60 66.01 C 75.46 68.14 73.49 69.13 71.21 67.92 C 71.55 65.77 72.64 63.94 71.10 61.96 C 69.83 60.11 68.10 60.33 66.13 60.27 C 66.99 55.64 69.66 52.03 73.03 48.87 Z" />
  <path
     id="path5408"
     fill="#e8a713"
     d="M 123.68 80.26 C 124.72 80.92 125.66 82.32 126.93 82.36 C 144.29 82.33 161.66 82.35 179.02 82.34 C 185.89 82.91 192.85 82.44 199.74 82.63 L 199.20 83.86 C 194.88 87.61 191.00 91.90 186.86 95.85 C 165.93 116.59 145.00 137.34 124.07 158.08 C 116.40 165.57 107.68 174.67 100.00 181.83 L 99.42 181.60 C 66.35 148.56 33.14 115.43 0.00 82.48 L 0.00 82.32 C 24.67 82.36 49.37 82.36 74.04 82.32 C 78.64 78.35 83.58 75.07 89.49 73.36 C 101.15 69.89 114.34 72.40 123.68 80.26 Z" />
  <path
     id="path5410"
     fill="#ffffff"
     d="M 95.48 75.66 C 107.76 73.87 120.47 79.27 127.65 89.39 C 133.82 97.76 135.63 108.86 132.71 118.82 C 130.27 127.23 124.43 134.51 116.80 138.81 C 107.02 144.40 94.62 144.62 84.66 139.34 C 73.13 133.48 65.82 120.93 66.43 108.00 C 66.80 91.84 79.51 77.82 95.48 75.66 Z" />
  <path
     id="path5412"
     fill="#18ab4f"
     d="M 90.76 79.99 C 92.51 80.21 94.55 79.86 95.94 81.03 C 97.98 82.89 97.61 85.73 97.55 88.22 C 100.62 88.93 104.44 88.37 107.67 88.48 C 108.03 84.40 101.90 84.96 99.60 86.32 C 99.27 84.73 99.33 83.29 99.78 81.98 C 102.93 80.58 108.20 80.46 110.54 83.43 C 111.92 84.94 111.79 86.68 112.33 88.56 C 114.25 88.55 116.16 88.49 118.08 88.52 C 122.05 90.01 123.98 94.68 124.52 98.59 C 125.43 98.66 126.35 98.71 127.27 98.74 C 127.42 100.01 127.45 101.30 127.37 102.59 C 126.35 102.58 125.34 102.57 124.32 102.56 C 123.83 105.37 123.43 107.33 121.27 109.36 C 123.62 111.59 124.13 114.41 124.44 117.52 C 125.40 117.55 126.36 117.56 127.33 117.56 C 127.40 118.89 127.41 120.23 127.37 121.56 C 126.36 121.53 125.36 121.53 124.35 121.54 C 123.63 124.57 122.83 127.26 120.26 129.25 C 118.29 131.22 114.37 129.64 111.91 130.42 C 111.70 133.24 110.77 135.79 108.07 137.06 C 105.74 138.21 101.61 138.03 99.37 136.66 C 99.24 135.19 99.28 133.71 99.25 132.24 C 101.99 133.81 107.00 134.56 107.66 130.37 C 104.32 130.10 100.87 130.23 97.52 130.29 C 97.40 132.23 97.93 133.93 96.46 135.50 C 94.73 137.45 92.75 137.18 90.40 137.21 C 90.08 135.65 90.22 133.96 90.19 132.37 C 91.46 131.74 92.99 132.30 92.60 130.38 C 87.65 130.05 82.51 130.31 77.53 130.27 C 77.10 128.62 77.13 127.14 77.61 125.84 C 78.64 125.86 79.67 125.83 80.70 125.76 C 80.67 124.27 80.67 122.79 80.68 121.30 C 79.65 121.24 78.61 121.21 77.58 121.23 C 77.10 119.69 77.11 118.21 77.59 116.79 C 78.62 116.82 79.66 116.80 80.68 116.72 C 80.68 115.28 80.69 113.84 80.66 112.40 C 79.61 112.35 78.55 112.35 77.49 112.38 C 77.23 110.72 77.19 109.03 77.36 107.29 C 78.44 107.31 79.53 107.32 80.62 107.31 C 80.69 105.91 80.68 104.50 80.68 103.10 C 79.81 102.64 78.68 102.48 77.29 102.63 C 77.26 101.24 77.26 99.85 77.31 98.46 C 78.38 98.43 79.45 98.43 80.53 98.45 C 80.70 96.78 80.73 95.09 80.60 93.38 C 79.51 93.40 78.42 93.39 77.33 93.38 C 77.26 91.91 77.29 90.43 77.27 88.96 L 77.79 88.46 C 82.74 88.57 87.70 88.54 92.65 88.50 C 92.71 87.51 92.72 86.52 92.69 85.52 C 91.59 85.32 90.88 84.90 90.56 84.24 C 90.57 82.82 90.63 81.40 90.76 79.99 Z" />
  <path
     id="path5414"
     fill="#ffffff"
     d="M 8.90 85.86 C 13.47 85.81 18.05 85.86 22.62 85.84 C 22.60 90.56 22.59 95.27 22.64 99.98 C 18.17 95.58 13.74 91.17 9.31 86.74 L 8.90 85.86 Z" />
  <path
     id="path5416"
     fill="#18ab4f"
     d="M 22.62 85.84 C 27.32 85.84 32.03 85.83 36.73 85.85 C 36.73 95.27 36.73 104.68 36.73 114.10 C 32.00 109.42 27.33 104.69 22.64 99.98 C 22.59 95.27 22.60 90.56 22.62 85.84 Z" />
  <path
     id="path5418"
     fill="#ffffff"
     d="M 36.73 85.85 C 41.41 85.84 46.10 85.84 50.78 85.85 C 50.76 99.93 50.78 114.01 50.77 128.09 C 46.09 123.43 41.48 118.69 36.73 114.10 C 36.73 104.68 36.73 95.27 36.73 85.85 Z" />
  <path
     id="path5420"
     fill="#18ab4f"
     d="M 50.78 85.85 C 55.55 85.84 60.32 85.84 65.09 85.85 C 65.13 89.32 65.05 92.80 65.10 96.28 C 62.35 105.04 62.13 113.11 65.04 121.87 C 65.04 128.59 65.34 135.39 64.84 142.09 C 60.22 137.35 55.40 132.82 50.77 128.09 C 50.78 114.01 50.76 99.93 50.78 85.85 Z" />
  <path
     id="path5422"
     fill="#ffffff"
     d="M 65.09 85.85 C 67.05 85.88 69.06 85.71 71.01 85.95 C 68.63 89.28 66.83 92.59 65.10 96.28 C 65.05 92.80 65.13 89.32 65.09 85.85 Z" />
  <path
     id="path5424"
     fill="#ffffff"
     d="M 129.45 85.85 C 131.42 85.84 133.38 85.82 135.34 85.85 C 135.30 89.17 135.46 92.51 135.27 95.82 L 134.36 94.74 C 133.25 91.44 130.93 88.85 129.45 85.85 Z" />
  <path
     id="path5426"
     fill="#18ab4f"
     d="M 135.34 85.85 C 140.08 85.83 144.83 85.84 149.57 85.85 C 149.60 99.75 149.45 113.71 149.65 127.61 C 145.03 132.52 140.10 137.18 135.33 141.95 C 135.26 135.46 135.54 128.86 135.20 122.41 C 136.56 117.30 137.77 112.36 137.32 107.00 C 137.32 103.09 135.77 99.59 135.27 95.82 C 135.46 92.51 135.30 89.17 135.34 85.85 Z" />
  <path
     id="path5428"
     fill="#ffffff"
     d="M 149.57 85.85 C 154.22 85.84 158.87 85.84 163.52 85.85 C 163.58 95.13 163.34 104.47 163.64 113.73 C 159.10 118.46 154.43 123.12 149.65 127.61 C 149.45 113.71 149.60 99.75 149.57 85.85 Z" />
  <path
     id="path5430"
     fill="#18ab4f"
     d="M 163.52 85.85 C 168.23 85.84 172.94 85.83 177.65 85.85 C 177.71 90.48 177.48 95.15 177.77 99.77 C 173.23 104.54 168.44 109.22 163.64 113.73 C 163.34 104.47 163.58 95.13 163.52 85.85 Z" />
  <path
     id="path5432"
     fill="#ffffff"
     d="M 177.65 85.85 C 182.23 85.89 186.84 85.74 191.42 85.93 L 190.96 86.86 C 186.48 91.07 182.30 95.61 177.77 99.77 C 177.48 95.15 177.71 90.48 177.65 85.85 Z" />
  <path
     id="path5434"
     fill="#ffffff"
     d="M 92.64 93.42 C 92.71 97.91 92.61 102.41 92.69 106.91 C 90.67 107.85 87.03 107.04 84.66 107.29 C 84.59 105.77 84.60 104.26 84.69 102.75 C 85.60 102.73 86.50 102.66 87.39 102.52 C 87.41 101.19 87.41 99.86 87.39 98.53 C 86.48 98.46 85.56 98.41 84.63 98.38 C 84.64 96.87 84.62 95.35 84.58 93.84 C 86.54 92.82 90.28 93.63 92.64 93.42 Z" />
  <path
     id="path5436"
     fill="#ffffff"
     d="M 115.88 93.40 C 118.15 93.43 119.99 96.54 119.88 98.63 C 118.85 98.67 117.81 98.70 116.78 98.71 C 116.66 99.99 116.63 101.26 116.68 102.55 C 117.71 102.56 118.74 102.58 119.77 102.61 C 119.37 104.32 118.28 106.03 117.01 107.23 C 115.17 107.36 113.32 107.29 111.47 107.33 C 112.20 102.99 111.65 98.43 111.83 94.03 C 112.05 92.75 114.88 93.62 115.88 93.40 Z" />
  <path
     id="path5438"
     fill="#ffffff"
     d="M 97.56 93.48 C 100.81 93.34 104.21 93.33 107.45 93.49 C 107.28 97.62 107.66 101.88 107.25 105.99 C 106.25 108.09 104.44 107.05 102.57 107.34 C 102.08 104.91 101.95 105.34 99.73 105.41 C 99.56 107.00 98.90 107.68 97.74 107.45 C 97.43 102.82 97.74 98.13 97.56 93.48 Z" />
  <path
     id="path5440"
     fill="#ffffff"
     d="M 84.63 112.40 C 87.30 112.29 90.00 112.33 92.67 112.37 C 92.67 116.84 92.64 121.31 92.69 125.79 C 90.04 125.84 87.22 126.05 84.61 125.69 C 84.60 124.27 84.60 122.84 84.60 121.42 C 85.47 121.26 86.36 121.16 87.27 121.13 C 87.46 119.68 87.45 118.26 87.26 116.89 C 86.35 116.86 85.45 116.77 84.57 116.62 C 84.60 115.21 84.60 113.80 84.63 112.40 Z" />
  <path
     id="path5442"
     fill="#ffffff"
     d="M 97.61 112.39 C 98.54 112.09 99.19 112.37 99.56 113.24 C 100.82 114.86 101.97 113.94 102.59 112.40 C 103.93 112.27 105.30 112.31 106.64 112.42 C 107.25 113.13 107.52 113.98 107.43 114.96 C 107.26 118.50 107.73 122.45 107.21 125.88 C 104.03 125.75 100.73 126.07 97.58 125.70 C 97.65 121.27 97.58 116.83 97.61 112.39 Z" />
  <path
     id="path5444"
     fill="#ffffff"
     d="M 111.54 112.43 C 113.04 112.31 114.56 112.29 116.08 112.37 C 118.22 112.85 120.00 115.35 119.84 117.55 C 118.80 117.56 117.76 117.56 116.72 117.55 C 116.66 118.86 116.66 120.17 116.69 121.49 C 117.69 121.52 118.69 121.57 119.68 121.64 C 119.01 123.04 118.40 124.83 117.13 125.78 C 115.44 125.72 113.26 126.30 111.75 125.49 C 111.77 121.17 112.08 116.73 111.54 112.43 Z" />
  <path
     id="path5446"
     fill="#ffffff"
     d="M 65.04 121.87 C 67.95 129.16 72.57 135.57 79.11 140.01 C 79.14 145.08 79.08 150.15 79.15 155.22 L 78.51 155.78 C 73.96 151.21 69.38 146.67 64.84 142.09 C 65.34 135.39 65.04 128.59 65.04 121.87 Z" />
  <path
     id="path5448"
     fill="#ffffff"
     d="M 135.20 122.41 C 135.54 128.86 135.26 135.46 135.33 141.95 C 130.67 146.64 125.91 151.22 121.27 155.92 C 121.31 150.61 121.33 145.28 121.26 139.97 C 127.69 135.59 132.02 129.39 135.20 122.41 Z" />
  <path
     id="path5450"
     fill="#18ab4f"
     d="M 79.11 140.01 C 83.40 142.96 88.13 144.86 93.22 145.95 C 93.17 154.06 93.32 162.19 93.14 170.30 C 88.28 165.65 83.31 160.39 78.51 155.78 L 79.15 155.22 C 79.08 150.15 79.14 145.08 79.11 140.01 Z" />
  <path
     id="path5452"
     fill="#18ab4f"
     d="M 121.26 139.97 C 121.33 145.28 121.31 150.61 121.27 155.92 C 116.58 160.47 112.06 165.19 107.32 169.68 C 107.15 161.77 107.31 153.84 107.24 145.93 C 112.46 144.81 116.83 142.94 121.26 139.97 Z" />
  <path
     id="path5454"
     fill="#ffffff"
     d="M 93.22 145.95 C 97.88 146.78 102.57 146.73 107.24 145.93 C 107.31 153.84 107.15 161.77 107.32 169.68 C 104.93 172.08 102.60 174.73 100.00 176.86 C 97.60 175.18 95.31 172.39 93.14 170.30 C 93.32 162.19 93.17 154.06 93.22 145.95 Z" />
</svg>
