<?xml version="1.0" encoding="UTF-8" standalone="no"?>
<!DOCTYPE svg PUBLIC "-//W3C//DTD SVG 1.1//EN" "http://www.w3.org/Graphics/SVG/1.1/DTD/svg11.dtd">
<svg xmlns="http://www.w3.org/2000/svg" version="1.1" viewBox="0 0 200 200" width="200.0pt" height="200.0pt">
<path d="M 0.00 0.00 L 96.17 0.00 C 91.25 0.44 86.33 0.97 81.45 1.73 C 61.33 5.51 42.57 15.63 28.32 30.32 C 14.70 44.31 5.33 62.26 1.73 81.45 C 0.96 86.42 0.41 91.43 0.00 96.44 L 0.00 0.00 Z" fill="#ffffff" />
<path d="M 96.17 0.00 L 103.92 0.00 C 108.97 0.48 114.03 0.99 119.03 1.82 C 139.68 5.81 158.85 16.44 173.13 31.88 C 189.29 48.97 198.59 71.65 200.00 95.07 L 200.00 105.02 C 198.95 120.72 194.64 136.10 186.73 149.74 C 176.61 167.44 160.96 181.86 142.49 190.51 C 130.90 196.03 118.06 199.07 105.28 200.00 L 94.97 200.00 C 79.52 198.96 64.39 194.78 50.90 187.10 C 31.63 176.25 16.09 158.79 7.66 138.34 C 2.92 127.34 0.83 115.75 0.00 103.86 L 0.00 96.44 C 0.41 91.43 0.96 86.42 1.73 81.45 C 5.33 62.26 14.70 44.31 28.32 30.32 C 42.57 15.63 61.33 5.51 81.45 1.73 C 86.33 0.97 91.25 0.44 96.17 0.00 Z" fill="#d92719" />
<path d="M 103.92 0.00 L 200.00 0.00 L 200.00 95.07 C 198.59 71.65 189.29 48.97 173.13 31.88 C 158.85 16.44 139.68 5.81 119.03 1.82 C 114.03 0.99 108.97 0.48 103.92 0.00 Z" fill="#ffffff" />
<path d="M 92.24 2.22 C 116.61 0.23 141.73 7.88 160.83 23.16 C 176.16 35.27 187.77 52.03 193.54 70.71 C 198.28 85.52 199.06 101.62 196.56 116.93 C 192.96 137.83 182.31 157.35 166.75 171.77 C 153.20 184.43 136.01 193.06 117.77 196.43 C 102.14 199.08 85.86 198.38 70.71 193.55 C 52.73 187.98 36.49 177.01 24.52 162.50 C 13.96 149.81 6.63 134.35 3.69 118.09 C 0.08 100.57 2.08 81.91 8.34 65.23 C 15.17 47.20 27.43 31.30 43.16 20.16 C 57.53 9.82 74.63 3.75 92.24 2.22 Z" fill="#ffffff" />
<path d="M 91.33 9.43 C 92.87 9.14 94.45 9.00 96.00 8.83 C 96.27 14.77 96.52 20.72 96.79 26.67 C 95.14 26.77 93.49 26.87 91.83 26.97 C 91.71 21.13 91.09 15.26 91.33 9.43 Z" fill="#d92719" />
<path d="M 84.62 10.24 C 84.15 16.29 83.40 22.31 82.81 28.35 C 80.92 28.99 79.03 29.63 77.15 30.28 C 72.94 25.42 68.89 20.43 64.70 15.57 C 66.51 15.13 68.33 14.69 70.14 14.25 C 72.84 18.37 75.82 22.27 78.88 26.11 C 79.31 21.28 79.74 16.46 80.08 11.63 C 81.60 11.17 83.11 10.70 84.62 10.24 Z" fill="#d92719" />
<path d="M 117.72 11.67 C 119.92 17.83 121.54 24.17 123.69 30.35 C 121.74 30.02 119.80 29.68 117.85 29.33 C 117.64 28.07 117.43 26.80 117.21 25.53 C 114.01 25.02 110.80 24.55 107.59 24.09 C 106.81 25.11 106.03 26.13 105.25 27.15 C 103.55 26.83 101.85 26.50 100.15 26.18 C 103.74 21.73 107.09 17.09 110.67 12.65 C 112.14 9.99 115.29 11.75 117.72 11.67 Z" fill="#d92719" />
<path d="M 114.12 14.90 C 114.73 17.31 115.35 19.72 116.00 22.13 C 113.92 21.84 111.83 21.56 109.74 21.28 C 110.61 19.99 111.48 18.71 112.37 17.43 C 112.95 16.58 113.54 15.74 114.12 14.90 Z" fill="#ffffff" />
<path d="M 140.73 19.82 C 144.51 22.15 149.34 24.42 151.94 28.12 C 154.30 30.91 151.11 35.37 147.97 35.51 C 144.86 35.60 141.72 33.10 139.18 31.51 C 138.15 33.17 137.12 34.83 136.09 36.49 C 134.66 35.66 133.24 34.84 131.81 34.02 C 134.77 29.29 137.54 24.41 140.73 19.82 Z" fill="#d92719" />
<path d="M 55.09 22.29 C 60.55 25.60 65.77 29.30 71.19 32.69 C 69.59 33.64 67.98 34.59 66.37 35.53 C 65.30 34.91 64.23 34.28 63.15 33.66 C 60.45 35.25 57.77 36.87 55.09 38.50 C 55.16 39.68 55.23 40.85 55.31 42.02 C 53.94 42.92 52.58 43.82 51.21 44.72 C 50.66 38.22 50.25 31.71 49.86 25.20 C 51.60 24.22 53.32 23.20 55.09 22.29 Z" fill="#d92719" />
<path d="M 143.43 25.40 C 145.24 26.49 147.59 27.65 147.80 29.99 C 145.91 33.08 142.98 29.48 140.70 28.63 C 141.58 27.54 142.46 26.41 143.43 25.40 Z" fill="#ffffff" />
<path d="M 54.15 27.55 C 56.20 28.82 58.25 30.08 60.29 31.35 C 58.40 32.53 56.52 33.70 54.62 34.87 C 54.45 32.43 54.30 29.99 54.15 27.55 Z" fill="#ffffff" />
<path d="M 88.47 34.84 C 99.84 33.18 111.41 33.70 122.24 37.76 C 140.46 44.19 155.30 58.93 162.01 77.02 C 166.25 88.80 167.56 101.50 164.62 113.76 C 159.53 138.82 138.78 159.55 113.72 164.62 C 101.23 167.61 88.23 166.22 76.30 161.72 C 58.54 154.88 44.13 140.19 37.77 122.24 C 33.62 111.30 33.15 99.25 34.96 87.78 C 37.46 75.02 43.61 63.04 52.78 53.80 C 62.32 43.92 74.98 37.28 88.47 34.84 Z" fill="#d92719" />
<path d="M 160.34 33.95 C 162.98 36.17 165.20 38.93 167.48 41.51 C 168.96 43.43 170.60 44.91 169.65 47.54 C 168.32 49.88 166.35 49.82 163.97 50.28 C 163.46 53.44 161.63 55.60 159.75 58.05 C 158.53 56.74 157.31 55.43 156.10 54.11 C 157.32 52.52 158.68 50.91 159.64 49.15 C 158.59 47.48 157.38 45.99 156.17 44.45 C 154.55 45.92 152.93 47.40 151.30 48.87 C 150.14 47.55 148.98 46.23 147.82 44.92 C 151.99 41.29 155.89 37.23 160.34 33.95 Z" fill="#d92719" />
<path d="M 100.11 35.52 C 114.84 36.15 129.04 41.17 140.45 50.58 C 152.37 60.25 160.72 74.09 163.42 89.22 C 164.95 99.58 164.51 110.67 160.79 120.55 C 151.99 145.87 126.89 163.92 100.08 164.31 C 100.13 121.38 100.07 78.45 100.11 35.52 Z" fill="#ffffff" />
<path d="M 161.44 39.68 C 162.98 41.58 164.49 43.49 165.87 45.50 C 164.96 46.02 164.04 46.52 163.10 46.99 C 161.38 45.65 159.89 43.97 158.42 42.37 C 159.43 41.47 160.44 40.58 161.44 39.68 Z" fill="#ffffff" />
<path d="M 32.03 41.01 C 35.36 43.76 38.46 46.79 41.71 49.64 C 43.58 47.64 45.45 45.64 47.33 43.64 C 48.28 44.41 49.22 45.19 50.17 45.96 C 47.02 49.38 43.93 52.86 40.75 56.27 C 36.52 52.53 32.30 48.77 28.10 44.99 C 29.40 43.66 30.68 42.30 32.03 41.01 Z" fill="#d92719" />
<path d="M 27.41 54.43 C 26.67 55.98 25.91 57.51 25.11 59.02 C 24.05 59.66 22.96 60.30 21.96 61.03 C 21.15 62.47 20.94 64.31 20.53 65.88 C 24.34 64.14 26.25 60.85 29.20 58.14 C 31.45 56.18 35.44 56.82 36.02 60.07 C 36.59 64.04 34.49 68.88 31.71 71.70 C 29.78 73.72 27.56 73.29 25.03 73.53 C 25.80 71.85 26.60 70.18 27.40 68.50 C 28.43 68.48 29.47 68.45 30.50 68.43 C 31.74 65.99 32.37 63.95 32.45 61.16 C 28.93 63.47 26.88 67.20 23.57 69.68 C 21.52 71.10 18.78 70.65 17.67 68.32 C 16.07 64.62 18.44 59.69 20.95 56.91 C 22.68 54.87 24.98 55.02 27.41 54.43 Z" fill="#d92719" />
<path d="M 160.25 59.33 C 166.82 59.57 173.38 59.90 179.95 60.10 C 180.68 61.87 181.42 63.64 182.17 65.40 C 178.43 70.50 174.53 75.48 170.74 80.55 C 169.81 78.87 168.87 77.20 167.93 75.53 C 168.82 74.60 169.72 73.66 170.62 72.73 C 169.21 69.74 167.77 66.77 166.38 63.77 C 165.19 63.80 163.99 63.83 162.80 63.85 C 161.95 62.35 161.10 60.84 160.25 59.33 Z" fill="#d92719" />
<path d="M 169.95 63.92 C 172.61 63.90 175.26 63.89 177.91 63.88 C 176.24 65.93 174.56 67.96 172.88 70.00 C 171.87 67.99 170.89 65.97 169.95 63.92 Z" fill="#ffffff" />
<path d="M 116.61 69.06 C 120.64 71.80 124.54 74.75 128.46 77.65 C 132.43 74.67 136.43 71.74 140.51 68.90 C 138.74 73.65 137.18 78.42 135.76 83.28 C 139.77 86.18 143.71 89.18 147.76 92.02 C 142.91 92.01 138.05 92.01 133.20 92.00 C 131.55 96.72 130.22 101.52 128.70 106.27 C 127.24 101.54 125.63 96.87 124.00 92.19 C 119.13 92.15 114.26 92.17 109.39 92.18 C 113.30 89.25 117.12 86.23 120.98 83.24 C 119.62 78.47 117.83 73.87 116.61 69.06 Z" fill="#d92719" />
<path d="M 187.82 79.31 C 188.08 80.91 188.35 82.50 188.61 84.10 C 186.43 84.32 184.24 84.55 182.05 84.78 C 182.51 87.46 182.96 90.14 183.41 92.82 C 185.63 92.52 187.85 92.21 190.08 91.95 C 190.25 93.75 190.43 95.54 190.61 97.34 C 184.96 97.84 179.35 98.67 173.72 99.38 C 173.53 97.69 173.33 96.00 173.13 94.31 C 175.40 94.03 177.67 93.75 179.95 93.49 C 179.60 90.69 179.24 87.90 178.87 85.11 C 176.48 85.51 174.08 85.89 171.67 86.25 C 171.43 84.67 171.18 83.10 170.93 81.52 C 176.56 80.82 182.20 80.19 187.82 79.31 Z" fill="#d92719" />
<path d="M 11.68 81.76 C 13.76 84.62 15.79 87.51 17.85 90.39 C 21.55 88.04 25.26 85.72 28.96 83.39 C 28.70 85.40 28.43 87.41 28.17 89.42 C 24.96 91.59 21.74 93.75 18.48 95.84 C 21.31 96.13 24.15 96.44 26.98 96.77 C 26.70 98.42 26.41 100.07 26.12 101.73 C 20.35 100.95 14.54 100.39 8.76 99.61 C 9.09 97.90 9.42 96.19 9.75 94.48 C 12.05 94.80 14.36 95.12 16.66 95.45 C 14.70 92.92 12.72 90.40 10.78 87.84 C 11.09 85.82 11.39 83.79 11.68 81.76 Z" fill="#d92719" />
<path d="M 173.76 100.37 C 178.87 104.15 183.97 107.96 189.10 111.72 C 188.76 113.78 188.42 115.84 188.08 117.90 C 182.12 119.92 176.04 121.51 170.10 123.59 C 170.23 121.78 170.36 119.98 170.49 118.17 C 171.66 117.87 172.83 117.58 174.01 117.29 C 174.64 113.95 175.28 110.61 175.97 107.29 C 175.00 106.65 174.02 106.01 173.05 105.38 C 173.29 103.71 173.52 102.04 173.76 100.37 Z" fill="#d92719" />
<path d="M 0.00 103.86 C 0.83 115.75 2.92 127.34 7.66 138.34 C 16.09 158.79 31.63 176.25 50.90 187.10 C 64.39 194.78 79.52 198.96 94.97 200.00 L 0.00 200.00 L 0.00 103.86 Z" fill="#ffffff" />
<path d="M 25.40 108.52 C 28.59 111.43 29.00 117.04 28.13 120.99 C 27.60 123.39 25.21 124.16 23.38 125.39 C 23.23 123.87 23.08 122.34 22.96 120.81 C 23.74 119.62 24.94 118.40 25.25 116.99 C 24.99 114.78 25.27 112.08 22.16 112.67 C 21.13 116.15 21.84 121.52 19.17 124.14 C 16.80 126.63 13.03 125.11 11.74 122.32 C 10.57 119.44 10.08 115.98 10.78 112.92 C 11.23 110.84 13.50 109.67 15.03 108.42 C 15.16 110.00 15.28 111.58 15.39 113.17 C 13.37 116.53 13.82 117.91 15.05 121.53 C 18.02 117.88 17.33 113.87 18.78 109.69 C 19.89 107.17 23.48 106.62 25.40 108.52 Z" fill="#d92719" />
<path d="M 200.00 105.02 L 200.00 200.00 L 105.28 200.00 C 118.06 199.07 130.90 196.03 142.49 190.51 C 160.96 181.86 176.61 167.44 186.73 149.74 C 194.64 136.10 198.95 120.72 200.00 105.02 Z" fill="#ffffff" />
<path d="M 179.07 109.59 C 181.10 111.06 183.13 112.55 185.15 114.05 C 182.66 114.75 180.19 115.47 177.71 116.20 C 178.15 113.99 178.60 111.79 179.07 109.59 Z" fill="#ffffff" />
<path d="M 48.01 152.91 C 51.78 155.70 55.29 158.83 58.97 161.74 C 58.29 162.56 57.62 163.38 56.94 164.20 C 54.68 162.38 52.43 160.55 50.16 158.74 C 49.21 159.74 48.26 160.75 47.31 161.76 C 49.48 163.52 51.64 165.29 53.81 167.05 C 53.11 167.91 52.42 168.77 51.72 169.63 C 49.58 167.87 47.44 166.13 45.30 164.37 C 43.94 166.00 42.57 167.63 41.20 169.26 C 39.82 168.18 38.43 167.10 37.04 166.02 C 40.67 161.64 44.16 157.11 48.01 152.91 Z" fill="#d92719" />
<path d="M 145.89 157.97 C 148.71 161.35 151.33 164.89 154.08 168.33 C 156.44 166.45 158.78 164.53 161.12 162.63 C 161.94 163.56 162.76 164.50 163.58 165.43 C 159.86 168.37 156.17 171.36 152.47 174.32 C 148.92 169.89 145.30 165.51 141.79 161.05 C 143.14 160.01 144.50 158.96 145.89 157.97 Z" fill="#d92719" />
<path d="M 62.51 166.74 C 67.35 165.10 73.24 167.92 76.07 171.93 C 79.68 177.02 75.23 185.24 69.00 185.04 C 65.28 184.90 61.17 183.08 58.78 180.17 C 55.30 175.96 57.32 168.53 62.51 166.74 Z" fill="#d92719" />
<path d="M 131.74 166.25 C 136.92 169.96 141.83 174.04 146.95 177.83 C 145.29 178.71 143.63 179.59 141.98 180.48 C 140.98 179.57 139.98 178.66 138.98 177.76 C 136.09 179.18 133.17 180.53 130.27 181.91 C 130.27 183.20 130.28 184.48 130.28 185.76 C 128.67 186.53 127.05 187.29 125.44 188.05 C 125.94 181.54 125.94 174.99 126.48 168.49 C 128.19 167.65 129.96 166.91 131.74 166.25 Z" fill="#d92719" />
<path d="M 65.43 170.42 C 69.61 169.37 73.07 172.51 71.83 176.82 C 70.87 181.13 66.84 182.03 63.49 179.57 C 60.25 177.06 62.48 172.03 65.43 170.42 Z" fill="#ffffff" />
<path d="M 130.42 170.71 C 132.32 172.40 134.24 174.07 136.16 175.74 C 134.24 176.62 132.32 177.51 130.40 178.40 C 130.41 175.84 130.42 173.28 130.42 170.71 Z" fill="#ffffff" />
<path d="M 80.85 172.29 C 86.71 172.77 92.58 173.77 98.45 174.33 L 98.03 177.72 C 95.83 177.50 93.62 177.27 91.41 177.06 C 90.88 181.52 90.43 185.99 89.90 190.45 C 88.16 190.19 86.43 189.91 84.70 189.64 C 85.29 185.26 85.91 180.88 86.46 176.50 C 84.19 176.15 81.92 175.79 79.66 175.41 C 80.02 174.36 80.42 173.32 80.85 172.29 Z" fill="#d92719" />
<path d="M 101.98 174.39 C 106.63 174.21 112.29 172.78 116.75 174.22 C 119.66 176.08 118.65 178.51 117.35 181.02 C 118.37 182.34 120.12 183.21 119.97 185.00 C 120.15 187.24 118.11 189.36 116.02 189.82 C 111.97 190.70 107.72 190.77 103.61 191.22 C 103.15 185.60 102.65 179.99 101.98 174.39 Z" fill="#d92719" />
<path d="M 107.69 177.35 C 109.94 177.08 112.30 177.21 114.56 177.31 C 114.07 178.18 113.56 179.05 113.05 179.92 C 111.15 180.40 109.12 180.42 107.17 180.60 C 107.31 179.51 107.49 178.43 107.69 177.35 Z" fill="#ffffff" />
<path d="M 107.71 183.67 C 109.92 183.59 112.19 183.44 114.38 183.57 C 115.02 184.46 115.16 185.40 114.79 186.39 C 112.61 187.04 110.21 187.28 107.95 187.60 C 107.87 186.29 107.79 184.98 107.71 183.67 Z" fill="#ffffff" />
</svg>