<?xml version="1.0" encoding="UTF-8" standalone="no"?>
<svg
   xmlns:dc="http://purl.org/dc/elements/1.1/"
   xmlns:cc="http://creativecommons.org/ns#"
   xmlns:rdf="http://www.w3.org/1999/02/22-rdf-syntax-ns#"
   xmlns:svg="http://www.w3.org/2000/svg"
   xmlns="http://www.w3.org/2000/svg"
   xmlns:sodipodi="http://sodipodi.sourceforge.net/DTD/sodipodi-0.dtd"
   xmlns:inkscape="http://www.inkscape.org/namespaces/inkscape"
   inkscape:version="1.0 (4035a4f, 2020-05-01)"
   sodipodi:docname="94.svg"
   id="svg9663"
   height="200.0pt"
   width="200.0pt"
   viewBox="0 0 200 200"
   version="1.1">
  <metadata
     id="metadata9669">
    <rdf:RDF>
      <cc:Work
         rdf:about="">
        <dc:format>image/svg+xml</dc:format>
        <dc:type
           rdf:resource="http://purl.org/dc/dcmitype/StillImage" />
      </cc:Work>
    </rdf:RDF>
  </metadata>
  <defs
     id="defs9667" />
  <sodipodi:namedview
     inkscape:current-layer="svg9663"
     inkscape:cy="133.33333"
     inkscape:cx="133.33333"
     inkscape:zoom="1.75125"
     showgrid="false"
     id="namedview9665"
     inkscape:window-height="480"
     inkscape:window-width="640"
     inkscape:pageshadow="2"
     inkscape:pageopacity="0"
     guidetolerance="10"
     gridtolerance="10"
     objecttolerance="10"
     borderopacity="1"
     bordercolor="#666666"
     pagecolor="#ffffff" />
  <path
     style="fill:#ffffff;fill-opacity:0"
     id="path9581"
     fill="#ffffff"
     d="M 0.00 0.00 L 98.63 0.00 C 97.40 1.00 96.21 2.04 95.02 3.08 C 94.93 4.43 94.83 5.79 94.74 7.15 C 93.00 8.29 90.79 8.96 90.18 11.16 C 89.37 13.57 90.50 16.05 92.54 17.42 C 94.16 18.15 96.18 18.09 97.91 18.38 C 96.26 22.63 93.75 26.11 88.98 26.88 C 84.21 27.34 81.03 24.53 78.64 20.75 C 80.95 19.62 83.58 19.23 84.60 16.57 C 85.49 14.77 84.81 12.84 83.77 11.27 C 82.50 10.18 80.83 9.52 79.36 8.75 C 78.26 7.01 77.40 4.22 75.23 3.66 C 72.43 2.63 68.89 4.10 68.18 7.13 C 68.08 8.56 68.18 10.03 68.24 11.47 C 67.10 12.74 65.13 14.19 64.97 15.98 C 64.57 18.41 66.11 20.70 68.23 21.76 C 70.19 22.11 72.23 22.07 74.22 22.16 C 73.17 25.76 72.52 28.98 69.13 31.14 C 65.50 33.63 61.94 32.95 57.94 32.03 C 59.21 30.20 61.37 28.37 61.14 25.99 C 61.32 23.53 59.48 21.17 57.03 20.84 C 55.12 20.73 53.12 21.54 51.29 22.03 C 50.19 20.38 49.11 18.54 47.73 17.12 C 43.90 15.79 40.62 19.08 37.65 20.99 C 39.95 23.48 42.31 25.92 44.66 28.35 C 44.83 29.46 45.02 30.55 45.22 31.65 L 45.54 32.48 C 46.27 33.04 47.04 33.52 47.85 33.92 C 50.56 34.93 53.27 35.89 55.93 37.04 C 59.45 38.63 63.30 38.20 67.21 38.79 L 65.65 39.57 L 65.62 39.58 C 62.20 40.53 59.79 41.24 58.40 44.80 C 48.84 50.95 40.39 58.53 33.98 67.97 C 24.99 81.05 19.71 97.09 19.90 113.00 C 19.62 129.29 24.69 145.67 34.03 159.01 C 40.11 167.89 48.00 175.22 56.92 181.20 C 56.99 180.71 57.05 180.21 57.12 179.71 C 31.42 163.51 17.13 132.03 21.84 102.01 C 25.11 79.29 38.68 58.44 58.28 46.48 L 59.31 46.62 L 59.68 47.31 L 59.97 47.88 L 60.09 48.14 C 47.94 55.88 37.90 66.53 31.51 79.48 C 24.68 93.13 22.06 108.90 24.24 124.00 C 26.30 139.06 33.07 153.46 43.30 164.70 C 55.44 178.18 72.16 187.01 90.16 189.38 C 71.56 163.78 52.63 138.40 33.88 112.92 C 42.69 101.25 51.56 89.64 60.31 77.93 C 57.39 77.90 54.47 77.88 51.55 77.83 C 51.56 73.18 51.55 68.52 51.59 63.87 C 58.07 63.87 64.56 63.88 71.05 63.86 C 72.51 61.89 73.97 59.93 75.42 57.96 C 76.08 58.11 76.73 58.27 77.38 58.42 C 75.46 60.64 73.74 62.93 72.13 65.38 C 65.80 65.51 59.46 65.33 53.13 65.50 C 53.01 69.14 53.10 72.80 53.07 76.44 C 60.23 76.55 67.47 76.09 74.60 76.66 C 71.07 76.50 67.45 76.32 63.93 76.72 C 61.29 78.70 59.55 82.01 57.53 84.60 C 52.50 91.28 47.49 97.97 42.38 104.59 C 40.36 107.24 37.78 109.99 36.52 113.08 C 37.70 115.26 39.15 117.18 40.62 119.16 C 49.40 130.77 57.87 142.60 66.57 154.27 C 70.25 160.98 75.46 166.83 79.85 173.12 C 84.41 179.48 89.30 185.62 93.65 192.13 C 82.44 191.46 71.33 187.94 61.58 182.40 C 60.19 181.91 59.36 180.72 57.98 181.70 C 65.60 186.49 74.27 189.90 83.06 191.82 C 86.84 192.72 90.76 192.75 94.53 193.61 C 96.63 195.22 98.05 197.87 99.58 200.00 L 0.00 200.00 L 0.00 0.00 Z" />
  <path
     id="path9583"
     fill="#a4b599"
     d="M 98.63 0.00 L 101.53 0.00 L 102.34 0.68 L 102.90 1.18 C 103.61 1.81 104.31 2.45 105.00 3.09 C 105.11 4.43 105.21 5.77 105.31 7.11 C 108.28 8.81 110.68 10.01 110.03 13.98 C 108.87 18.04 105.74 17.97 102.15 18.42 C 103.77 22.36 105.84 25.58 110.22 26.68 C 115.25 27.78 118.85 24.73 121.42 20.76 C 119.83 20.04 117.96 19.50 116.59 18.40 C 114.80 16.50 114.85 13.39 116.26 11.29 C 117.59 10.24 119.22 9.52 120.72 8.72 C 121.79 7.02 122.66 4.24 124.78 3.69 C 127.27 2.72 130.61 3.85 131.60 6.43 C 132.00 7.95 132.01 9.60 132.14 11.16 C 133.14 12.67 134.55 14.22 135.04 15.98 C 135.49 18.47 133.88 20.66 131.80 21.81 C 129.93 22.09 128.00 22.02 126.12 22.06 C 126.74 25.54 127.26 28.56 130.34 30.72 C 134.03 33.57 137.84 33.08 142.08 32.01 C 140.86 30.24 138.65 28.28 138.86 25.99 C 138.68 23.20 141.16 20.58 143.99 20.82 C 145.61 21.06 147.16 21.57 148.74 22.04 C 149.84 20.41 150.92 18.61 152.30 17.20 C 156.03 15.62 159.50 19.12 162.37 21.03 C 160.08 23.52 157.72 25.94 155.34 28.35 C 155.17 29.46 154.99 30.57 154.79 31.67 L 154.45 32.51 C 154.22 31.16 154.00 29.81 153.77 28.47 C 156.19 26.06 158.49 23.54 160.75 20.99 C 158.49 19.72 155.85 17.33 153.09 18.05 C 151.41 19.60 150.22 21.82 148.99 23.74 C 146.69 22.71 144.36 22.06 141.89 21.56 C 141.04 23.42 139.27 25.64 140.27 27.74 C 141.32 29.15 142.65 30.24 143.80 31.57 C 138.33 35.91 130.24 34.17 126.76 28.25 C 125.17 25.66 125.48 23.10 125.58 20.22 C 128.91 20.55 131.61 22.28 133.66 18.55 C 135.06 15.01 132.47 14.01 130.36 11.88 C 130.59 10.31 130.86 8.69 130.88 7.11 C 129.84 5.09 127.05 3.42 124.88 4.78 C 123.18 5.59 122.51 8.15 121.65 9.71 C 118.90 10.98 115.36 11.96 116.25 15.80 C 117.35 19.03 119.97 18.63 122.75 19.46 C 121.52 22.36 120.51 24.97 117.50 26.46 C 113.46 28.78 109.13 28.39 105.50 25.50 C 102.65 23.33 102.04 20.38 100.96 17.16 C 104.32 16.70 107.56 17.92 108.93 13.89 C 109.74 10.02 106.82 9.58 104.25 7.88 C 103.77 5.67 104.33 3.16 102.11 1.88 C 100.05 0.21 97.75 1.50 96.47 3.40 C 96.10 4.86 95.96 6.38 95.75 7.87 C 94.37 8.72 92.82 9.48 91.64 10.59 C 90.18 12.73 91.21 15.49 93.42 16.61 C 95.25 17.00 97.17 17.05 99.04 17.21 C 97.85 21.56 96.47 25.16 92.02 27.02 C 85.76 29.90 79.05 25.83 77.30 19.47 C 80.41 18.63 83.25 18.81 84.01 15.01 C 83.77 11.39 81.12 11.02 78.40 9.71 C 77.53 8.14 76.89 5.54 75.15 4.76 C 73.08 3.44 70.06 5.16 69.17 7.17 C 69.11 8.73 69.48 10.33 69.72 11.86 C 68.53 12.94 67.23 14.00 66.20 15.24 C 65.37 17.53 66.85 20.26 69.11 20.91 C 70.89 20.88 72.69 20.52 74.45 20.23 C 74.51 22.55 74.89 24.83 73.91 27.00 C 71.89 32.02 66.23 34.78 61.00 33.84 C 59.29 33.34 57.65 32.34 56.08 31.51 C 57.34 30.33 58.75 29.20 59.85 27.86 C 60.59 25.35 59.16 23.66 58.15 21.53 C 55.70 22.06 53.35 22.73 51.05 23.72 C 49.82 21.82 48.68 19.50 46.92 18.05 C 44.32 17.28 41.47 19.77 39.32 20.97 C 41.57 23.54 43.85 26.07 46.26 28.50 C 46.02 29.83 45.78 31.16 45.54 32.48 L 45.22 31.65 C 45.02 30.55 44.83 29.46 44.66 28.35 C 42.31 25.92 39.95 23.48 37.65 20.99 C 40.62 19.08 43.90 15.79 47.73 17.12 C 49.11 18.54 50.19 20.38 51.29 22.03 C 53.12 21.54 55.12 20.73 57.03 20.84 C 59.48 21.17 61.32 23.53 61.14 25.99 C 61.37 28.37 59.21 30.20 57.94 32.03 C 61.94 32.95 65.50 33.63 69.13 31.14 C 72.52 28.98 73.17 25.76 74.22 22.16 C 72.23 22.07 70.19 22.11 68.23 21.76 C 66.11 20.70 64.57 18.41 64.97 15.98 C 65.13 14.19 67.10 12.74 68.24 11.47 C 68.18 10.03 68.08 8.56 68.18 7.13 C 68.89 4.10 72.43 2.63 75.23 3.66 C 77.40 4.22 78.26 7.01 79.36 8.75 C 80.83 9.52 82.50 10.18 83.77 11.27 C 84.81 12.84 85.49 14.77 84.60 16.57 C 83.58 19.23 80.95 19.62 78.64 20.75 C 81.03 24.53 84.21 27.34 88.98 26.88 C 93.75 26.11 96.26 22.63 97.91 18.38 C 96.18 18.09 94.16 18.15 92.54 17.42 C 90.50 16.05 89.37 13.57 90.18 11.16 C 90.79 8.96 93.00 8.29 94.74 7.15 C 94.83 5.79 94.93 4.43 95.02 3.08 C 96.21 2.04 97.40 1.00 98.63 0.00 Z" />
  <path
     style="fill:#ffffff;fill-opacity:0"
     id="path9585"
     fill="#ffffff"
     d="M 101.53 0.00 L 200.00 0.00 L 200.00 200.00 L 100.32 200.00 C 102.07 197.84 103.64 195.61 105.29 193.37 C 119.70 192.59 133.64 187.65 145.50 179.48 C 162.63 167.77 174.83 149.25 178.74 128.87 C 181.21 115.65 180.54 101.58 176.32 88.77 C 170.95 71.91 159.63 56.96 144.97 47.09 C 143.92 46.58 142.86 46.09 141.78 45.62 C 145.08 48.95 149.07 51.33 152.55 54.43 C 162.70 63.53 170.52 75.16 174.86 88.10 C 179.76 102.42 180.40 118.12 176.64 132.79 C 172.04 151.29 160.41 167.97 144.62 178.66 C 133.41 186.28 120.00 191.33 106.41 192.11 C 109.01 188.18 111.84 184.42 114.66 180.65 C 129.09 161.07 143.52 141.50 157.95 121.92 C 160.05 119.00 162.59 116.18 164.20 112.96 C 163.57 111.58 162.74 110.38 161.84 109.17 C 155.45 100.87 149.10 92.54 142.85 84.14 C 141.29 82.08 139.55 80.19 137.80 78.30 C 137.40 77.67 137.00 77.04 136.61 76.41 C 140.06 76.37 143.51 76.42 146.97 76.50 C 146.94 72.80 146.94 69.11 146.98 65.42 C 140.54 65.44 134.10 65.46 127.67 65.38 L 127.05 64.49 C 125.66 62.26 124.11 60.16 122.50 58.09 L 124.61 58.08 C 126.16 59.94 127.61 61.93 129.06 63.88 C 135.55 63.88 142.02 63.83 148.50 63.93 C 148.50 68.57 148.50 73.20 148.50 77.83 C 145.58 77.88 142.66 77.90 139.74 77.93 C 148.48 89.65 157.37 101.25 166.19 112.91 C 147.41 138.40 128.50 163.81 109.86 189.40 C 124.25 187.43 137.97 181.50 149.07 172.10 C 161.12 162.00 170.00 148.24 174.00 133.02 C 178.02 117.97 177.28 101.72 171.85 87.13 C 166.09 71.35 154.96 57.73 140.79 48.75 C 141.01 47.00 141.87 44.77 140.90 43.14 C 139.47 40.83 136.87 40.35 134.46 39.56 L 132.91 38.65 C 136.82 38.29 140.42 38.68 144.10 37.09 C 146.76 35.97 149.46 34.98 152.15 33.95 C 152.95 33.54 153.72 33.06 154.45 32.51 L 154.79 31.67 C 154.99 30.57 155.17 29.46 155.34 28.35 C 157.72 25.94 160.08 23.52 162.37 21.03 C 159.50 19.12 156.03 15.62 152.30 17.20 C 150.92 18.61 149.84 20.41 148.74 22.04 C 147.16 21.57 145.61 21.06 143.99 20.82 C 141.16 20.58 138.68 23.20 138.86 25.99 C 138.65 28.28 140.86 30.24 142.08 32.01 C 137.84 33.08 134.03 33.57 130.34 30.72 C 127.26 28.56 126.74 25.54 126.12 22.06 C 128.00 22.02 129.93 22.09 131.80 21.81 C 133.88 20.66 135.49 18.47 135.04 15.98 C 134.55 14.22 133.14 12.67 132.14 11.16 C 132.01 9.60 132.00 7.95 131.60 6.43 C 130.61 3.85 127.27 2.72 124.78 3.69 C 122.66 4.24 121.79 7.02 120.72 8.72 C 119.22 9.52 117.59 10.24 116.26 11.29 C 114.85 13.39 114.80 16.50 116.59 18.40 C 117.96 19.50 119.83 20.04 121.42 20.76 C 118.85 24.73 115.25 27.78 110.22 26.68 C 105.84 25.58 103.77 22.36 102.15 18.42 C 105.74 17.97 108.87 18.04 110.03 13.98 C 110.68 10.01 108.28 8.81 105.31 7.11 C 105.21 5.77 105.11 4.43 105.00 3.09 C 104.31 2.45 103.61 1.81 102.90 1.18 L 102.34 0.68 L 101.53 0.00 Z" />
  <path
     id="path9587"
     fill="#ffe676"
     d="M 102.11 1.88 C 104.33 3.16 103.77 5.67 104.25 7.88 C 106.82 9.58 109.74 10.02 108.93 13.89 C 107.56 17.92 104.32 16.70 100.96 17.16 C 102.04 20.38 102.65 23.33 105.50 25.50 C 109.13 28.39 113.46 28.78 117.50 26.46 C 120.51 24.97 121.52 22.36 122.75 19.46 C 119.97 18.63 117.35 19.03 116.25 15.80 C 115.36 11.96 118.90 10.98 121.65 9.71 C 122.51 8.15 123.18 5.59 124.88 4.78 C 127.05 3.42 129.84 5.09 130.88 7.11 C 130.86 8.69 130.59 10.31 130.36 11.88 C 132.47 14.01 135.06 15.01 133.66 18.55 C 131.61 22.28 128.91 20.55 125.58 20.22 C 125.48 23.10 125.17 25.66 126.76 28.25 C 130.24 34.17 138.33 35.91 143.80 31.57 C 142.65 30.24 141.32 29.15 140.27 27.74 C 139.27 25.64 141.04 23.42 141.89 21.56 C 144.36 22.06 146.69 22.71 148.99 23.74 C 150.22 21.82 151.41 19.60 153.09 18.05 C 155.85 17.33 158.49 19.72 160.75 20.99 C 158.49 23.54 156.19 26.06 153.77 28.47 C 151.76 28.42 149.82 27.40 148.49 29.45 C 148.22 30.84 148.41 32.34 148.47 33.75 C 143.85 36.25 139.40 38.24 133.98 37.29 C 128.65 36.65 125.40 33.32 121.92 29.62 C 117.53 30.82 113.58 32.22 108.97 31.11 C 105.41 30.37 102.93 28.16 99.93 26.29 C 97.78 27.69 95.88 29.32 93.90 30.94 L 93.12 31.25 C 87.95 31.85 83.14 31.04 78.16 29.77 C 75.56 32.11 73.42 34.74 70.14 36.15 C 65.07 38.27 58.71 37.81 54.00 34.99 C 52.75 34.30 52.22 33.27 51.73 31.99 C 51.48 30.75 51.83 29.22 50.58 28.48 C 49.43 27.78 47.57 28.46 46.26 28.50 C 43.85 26.07 41.57 23.54 39.32 20.97 C 41.47 19.77 44.32 17.28 46.92 18.05 C 48.68 19.50 49.82 21.82 51.05 23.72 C 53.35 22.73 55.70 22.06 58.15 21.53 C 59.16 23.66 60.59 25.35 59.85 27.86 C 58.75 29.20 57.34 30.33 56.08 31.51 C 57.65 32.34 59.29 33.34 61.00 33.84 C 66.23 34.78 71.89 32.02 73.91 27.00 C 74.89 24.83 74.51 22.55 74.45 20.23 C 72.69 20.52 70.89 20.88 69.11 20.91 C 66.85 20.26 65.37 17.53 66.20 15.24 C 67.23 14.00 68.53 12.94 69.72 11.86 C 69.48 10.33 69.11 8.73 69.17 7.17 C 70.06 5.16 73.08 3.44 75.15 4.76 C 76.89 5.54 77.53 8.14 78.40 9.71 C 81.12 11.02 83.77 11.39 84.01 15.01 C 83.25 18.81 80.41 18.63 77.30 19.47 C 79.05 25.83 85.76 29.90 92.02 27.02 C 96.47 25.16 97.85 21.56 99.04 17.21 C 97.17 17.05 95.25 17.00 93.42 16.61 C 91.21 15.49 90.18 12.73 91.64 10.59 C 92.82 9.48 94.37 8.72 95.75 7.87 C 95.96 6.38 96.10 4.86 96.47 3.40 C 97.75 1.50 100.05 0.21 102.11 1.88 Z" />
  <path
     id="path9589"
     fill="#ed1b24"
     d="M 98.23 9.21 C 99.99 7.82 102.59 8.94 103.05 11.06 C 103.83 13.20 101.30 15.46 99.16 14.78 C 96.63 13.89 96.06 10.91 98.23 9.21 Z" />
  <path
     id="path9591"
     fill="#ed1b23"
     d="M 72.45 12.45 C 74.35 10.68 77.01 11.84 77.62 14.15 C 77.98 16.28 76.25 18.13 74.09 17.83 C 71.51 17.58 70.43 14.17 72.45 12.45 Z" />
  <path
     id="path9593"
     fill="#ed1a23"
     d="M 123.44 12.46 C 124.83 11.33 126.23 11.23 127.60 12.45 C 129.58 14.06 128.56 17.73 125.91 17.82 C 122.89 18.28 121.09 14.47 123.44 12.46 Z" />
  <path
     id="path9595"
     fill="#aeba97"
     d="M 99.93 26.29 C 102.93 28.16 105.41 30.37 108.97 31.11 C 113.58 32.22 117.53 30.82 121.92 29.62 C 125.40 33.32 128.65 36.65 133.98 37.29 C 139.40 38.24 143.85 36.25 148.47 33.75 C 149.70 33.83 150.93 33.90 152.15 33.95 C 149.46 34.98 146.76 35.97 144.10 37.09 C 140.42 38.68 136.82 38.29 132.91 38.65 L 132.09 38.89 L 131.27 39.02 C 130.82 38.04 130.08 37.72 129.04 38.04 L 128.98 38.00 L 128.00 37.17 C 126.01 35.20 124.02 32.80 121.60 31.37 C 117.70 31.43 114.01 32.99 109.98 32.28 C 106.06 31.91 103.43 29.81 100.10 28.04 C 98.03 29.02 96.03 30.10 93.90 30.94 C 95.88 29.32 97.78 27.69 99.93 26.29 Z" />
  <path
     id="path9597"
     fill="#ed1b24"
     d="M 50.58 28.48 C 51.83 29.22 51.48 30.75 51.73 31.99 C 51.55 32.65 51.36 33.30 51.17 33.95 C 50.06 33.95 48.95 33.94 47.85 33.92 C 47.04 33.52 46.27 33.04 45.54 32.48 C 45.78 31.16 46.02 29.83 46.26 28.50 C 47.57 28.46 49.43 27.78 50.58 28.48 Z" />
  <path
     id="path9599"
     fill="#ffffff"
     d="M 100.10 28.04 C 103.43 29.81 106.06 31.91 109.98 32.28 C 114.01 32.99 117.70 31.43 121.60 31.37 C 124.02 32.80 126.01 35.20 128.00 37.17 C 116.07 32.86 102.56 32.18 90.01 33.26 C 83.83 33.97 77.49 35.10 71.60 37.16 C 74.00 35.29 76.21 32.68 78.90 31.28 C 83.96 31.91 88.10 33.52 93.12 31.25 L 93.90 30.94 C 96.03 30.10 98.03 29.02 100.10 28.04 Z" />
  <path
     id="path9601"
     fill="#ed1c24"
     d="M 153.77 28.47 C 154.00 29.81 154.22 31.16 154.45 32.51 C 153.72 33.06 152.95 33.54 152.15 33.95 C 150.93 33.90 149.70 33.83 148.47 33.75 C 148.41 32.34 148.22 30.84 148.49 29.45 C 149.82 27.40 151.76 28.42 153.77 28.47 Z" />
  <path
     id="path9603"
     fill="#afb892"
     d="M 78.16 29.77 C 83.14 31.04 87.95 31.85 93.12 31.25 C 88.10 33.52 83.96 31.91 78.90 31.28 C 76.21 32.68 74.00 35.29 71.60 37.16 C 70.58 37.78 69.55 38.39 68.51 38.98 L 67.97 39.17 L 67.21 38.79 C 63.30 38.20 59.45 38.63 55.93 37.04 C 53.27 35.89 50.56 34.93 47.85 33.92 C 48.95 33.94 50.06 33.95 51.17 33.95 C 51.36 33.30 51.55 32.65 51.73 31.99 C 52.22 33.27 52.75 34.30 54.00 34.99 C 58.71 37.81 65.07 38.27 70.14 36.15 C 73.42 34.74 75.56 32.11 78.16 29.77 Z" />
  <path
     id="path9605"
     fill="#a29561"
     d="M 90.01 33.26 C 102.56 32.18 116.07 32.86 128.00 37.17 L 128.98 38.00 C 121.48 36.53 114.66 34.42 107.00 34.08 C 102.67 33.92 98.33 33.94 94.00 34.04 C 85.02 34.33 77.09 36.76 68.51 38.98 C 69.55 38.39 70.58 37.78 71.60 37.16 C 77.49 35.10 83.83 33.97 90.01 33.26 Z" />
  <path
     id="path9607"
     fill="#ffe676"
     d="M 94.00 34.04 C 98.33 33.94 102.67 33.92 107.00 34.08 C 114.66 34.42 121.48 36.53 128.98 38.00 L 129.04 38.04 C 129.51 39.03 130.25 39.35 131.27 39.02 L 132.09 38.89 C 132.64 39.88 133.43 40.10 134.46 39.56 C 136.87 40.35 139.47 40.83 140.90 43.14 C 141.87 44.77 141.01 47.00 140.79 48.75 L 140.31 48.48 L 139.67 48.17 C 139.15 48.82 138.62 49.46 138.10 50.12 C 134.01 54.76 129.89 56.41 123.77 56.93 C 122.38 55.12 121.01 53.31 119.62 51.51 C 120.71 50.52 121.78 49.51 122.83 48.48 C 123.27 49.14 123.71 49.81 124.15 50.47 C 125.18 49.73 126.22 49.01 127.26 48.29 C 127.13 49.78 126.97 51.28 126.78 52.77 C 129.72 52.27 132.64 51.69 135.53 50.94 C 128.64 46.90 121.01 44.69 113.12 43.68 L 112.71 43.86 C 112.36 44.04 112.00 44.21 111.65 44.38 C 117.16 50.76 121.80 57.92 127.05 64.49 L 127.67 65.38 C 125.88 65.39 124.09 65.41 122.29 65.42 C 121.22 63.02 119.96 60.75 118.31 58.70 C 114.53 54.02 111.21 49.04 107.22 44.52 C 107.07 61.04 107.27 77.57 107.15 94.09 C 104.83 101.76 102.46 109.41 100.06 117.05 C 97.47 108.98 94.88 100.88 92.57 92.72 C 93.10 76.64 92.73 60.52 92.79 44.43 C 88.93 49.07 85.47 54.00 81.71 58.73 C 80.07 60.77 78.85 63.03 77.81 65.42 C 75.91 65.41 74.02 65.39 72.13 65.38 C 73.74 62.93 75.46 60.64 77.38 58.42 C 81.29 53.83 84.40 48.77 88.50 44.34 C 87.89 44.12 87.28 43.92 86.67 43.72 C 78.24 44.57 70.77 47.68 63.20 51.24 C 62.05 50.19 61.00 49.04 59.97 47.88 L 59.68 47.31 C 59.83 45.98 59.99 44.65 60.16 43.32 C 62.05 42.17 63.91 40.99 65.62 39.58 L 65.65 39.57 C 66.43 40.27 67.21 40.14 67.97 39.17 L 68.51 38.98 C 77.09 36.76 85.02 34.33 94.00 34.04 Z" />
  <path
     id="path9609"
     fill="#ed1c24"
     d="M 100.02 34.97 C 102.39 35.71 104.68 36.65 106.86 37.83 C 104.95 39.41 102.29 40.16 99.99 41.13 C 97.55 40.09 95.11 39.05 92.69 37.99 C 95.13 36.91 97.50 35.84 100.02 34.97 Z" />
  <path
     id="path9611"
     fill="#ae9c50"
     d="M 129.04 38.04 C 130.08 37.72 130.82 38.04 131.27 39.02 C 130.25 39.35 129.51 39.03 129.04 38.04 Z" />
  <path
     id="path9613"
     fill="#9f9152"
     d="M 67.21 38.79 L 67.97 39.17 C 67.21 40.14 66.43 40.27 65.65 39.57 L 67.21 38.79 Z" />
  <path
     id="path9615"
     fill="#9f9152"
     d="M 132.09 38.89 L 132.91 38.65 L 134.46 39.56 C 133.43 40.10 132.64 39.88 132.09 38.89 Z" />
  <path
     id="path9617"
     fill="#a69856"
     d="M 65.62 39.58 C 63.91 40.99 62.05 42.17 60.16 43.32 C 59.99 44.65 59.83 45.98 59.68 47.31 L 59.31 46.62 L 58.40 44.80 C 59.79 41.24 62.20 40.53 65.62 39.58 Z" />
  <path
     id="path9619"
     fill="#005188"
     d="M 68.03 41.22 C 70.64 41.04 73.31 41.36 75.91 41.54 C 73.90 43.35 71.89 45.14 69.87 46.94 C 67.18 46.78 64.48 46.62 61.79 46.44 C 63.72 44.68 65.66 42.31 68.03 41.22 Z" />
  <path
     id="path9621"
     fill="#005188"
     d="M 131.97 41.21 C 134.37 42.29 136.33 44.67 138.27 46.45 C 135.55 46.62 132.83 46.77 130.10 46.90 C 128.18 45.18 126.27 43.46 124.42 41.66 C 126.89 41.36 129.48 41.00 131.97 41.21 Z" />
  <path
     id="path9623"
     fill="#3d4e47"
     d="M 89.03 43.01 C 96.29 42.59 103.33 42.54 110.60 42.97 C 110.87 43.45 111.15 43.92 111.43 44.39 C 104.03 43.88 96.64 43.80 89.25 44.38 C 89.17 43.92 89.10 43.46 89.03 43.01 Z" />
  <path
     id="path9625"
     fill="#030000"
     d="M 86.67 43.72 C 87.28 43.92 87.89 44.12 88.50 44.34 C 84.40 48.77 81.29 53.83 77.38 58.42 C 76.73 58.27 76.08 58.11 75.42 57.96 C 69.13 56.73 63.47 53.78 60.09 48.14 L 59.97 47.88 C 61.00 49.04 62.05 50.19 63.20 51.24 C 70.77 47.68 78.24 44.57 86.67 43.72 Z" />
  <path
     id="path9627"
     fill="#020000"
     d="M 112.71 43.86 L 113.12 43.68 C 121.01 44.69 128.64 46.90 135.53 50.94 C 132.64 51.69 129.72 52.27 126.78 52.77 C 126.97 51.28 127.13 49.78 127.26 48.29 C 126.22 49.01 125.18 49.73 124.15 50.47 C 123.71 49.81 123.27 49.14 122.83 48.48 C 121.78 49.51 120.71 50.52 119.62 51.51 C 121.01 53.31 122.38 55.12 123.77 56.93 C 129.89 56.41 134.01 54.76 138.10 50.12 C 134.97 54.97 130.01 56.84 124.61 58.08 L 122.50 58.09 C 124.11 60.16 125.66 62.26 127.05 64.49 C 121.80 57.92 117.16 50.76 111.65 44.38 C 112.00 44.21 112.36 44.04 112.71 43.86 Z" />
  <path
     id="path9629"
     fill="#9bbbd1"
     d="M 58.40 44.80 L 59.31 46.62 L 58.28 46.48 C 38.68 58.44 25.11 79.29 21.84 102.01 C 17.13 132.03 31.42 163.51 57.12 179.71 C 57.05 180.21 56.99 180.71 56.92 181.20 C 48.00 175.22 40.11 167.89 34.03 159.01 C 24.69 145.67 19.62 129.29 19.90 113.00 C 19.71 97.09 24.99 81.05 33.98 67.97 C 40.39 58.53 48.84 50.95 58.40 44.80 Z" />
  <path
     id="path9631"
     fill="#ed1c24"
     d="M 92.79 44.43 C 92.73 60.52 93.10 76.64 92.57 92.72 C 89.48 83.69 86.89 74.50 83.92 65.43 C 81.88 65.43 79.84 65.43 77.81 65.42 C 78.85 63.03 80.07 60.77 81.71 58.73 C 85.47 54.00 88.93 49.07 92.79 44.43 Z" />
  <path
     id="path9633"
     fill="#ed1c24"
     d="M 107.22 44.52 C 111.21 49.04 114.53 54.02 118.31 58.70 C 119.96 60.75 121.22 63.02 122.29 65.42 C 120.24 65.43 118.18 65.43 116.12 65.43 C 113.08 74.97 110.17 84.54 107.15 94.09 C 107.27 77.57 107.07 61.04 107.22 44.52 Z" />
  <path
     id="path9635"
     fill="#a9beb6"
     d="M 141.78 45.62 C 142.86 46.09 143.92 46.58 144.97 47.09 C 159.63 56.96 170.95 71.91 176.32 88.77 C 180.54 101.58 181.21 115.65 178.74 128.87 C 174.83 149.25 162.63 167.77 145.50 179.48 C 133.64 187.65 119.70 192.59 105.29 193.37 C 103.64 195.61 102.07 197.84 100.32 200.00 L 99.58 200.00 C 98.05 197.87 96.63 195.22 94.53 193.61 C 90.76 192.75 86.84 192.72 83.06 191.82 C 74.27 189.90 65.60 186.49 57.98 181.70 C 59.36 180.72 60.19 181.91 61.58 182.40 C 71.33 187.94 82.44 191.46 93.65 192.13 C 89.30 185.62 84.41 179.48 79.85 173.12 C 75.46 166.83 70.25 160.98 66.57 154.27 C 70.38 157.97 73.20 162.33 76.34 166.57 C 84.28 177.17 91.92 187.99 100.02 198.47 C 102.74 195.04 105.35 191.52 107.93 187.98 C 126.34 162.97 144.79 137.98 163.20 112.97 C 158.29 106.20 153.06 99.65 148.07 92.93 C 144.50 88.05 140.56 83.73 137.80 78.30 C 139.55 80.19 141.29 82.08 142.85 84.14 C 149.10 92.54 155.45 100.87 161.84 109.17 C 162.74 110.38 163.57 111.58 164.20 112.96 C 162.59 116.18 160.05 119.00 157.95 121.92 C 143.52 141.50 129.09 161.07 114.66 180.65 C 111.84 184.42 109.01 188.18 106.41 192.11 C 120.00 191.33 133.41 186.28 144.62 178.66 C 160.41 167.97 172.04 151.29 176.64 132.79 C 180.40 118.12 179.76 102.42 174.86 88.10 C 170.52 75.16 162.70 63.53 152.55 54.43 C 149.07 51.33 145.08 48.95 141.78 45.62 Z" />
  <path
     id="path9637"
     fill="#ffe676"
     d="M 84.57 45.99 C 81.85 49.28 79.62 53.93 75.70 55.79 C 75.64 54.63 75.60 53.48 75.56 52.32 C 74.89 51.24 74.21 50.15 73.53 49.07 C 75.52 48.51 77.51 47.95 79.50 47.40 C 81.19 46.93 82.88 46.46 84.57 45.99 Z" />
  <path
     id="path9639"
     fill="#005389"
     d="M 139.67 48.17 L 140.31 48.48 L 140.79 48.75 C 154.96 57.73 166.09 71.35 171.85 87.13 C 177.28 101.72 178.02 117.97 174.00 133.02 C 170.00 148.24 161.12 162.00 149.07 172.10 C 137.97 181.50 124.25 187.43 109.86 189.40 C 128.50 163.81 147.41 138.40 166.19 112.91 C 157.37 101.25 148.48 89.65 139.74 77.93 C 142.66 77.90 145.58 77.88 148.50 77.83 C 148.50 73.20 148.50 68.57 148.50 63.93 C 142.02 63.83 135.55 63.88 129.06 63.88 C 127.61 61.93 126.16 59.94 124.61 58.08 C 130.01 56.84 134.97 54.97 138.10 50.12 C 138.62 49.46 139.15 48.82 139.67 48.17 Z" />
  <path
     id="path9641"
     fill="#005389"
     d="M 60.09 48.14 C 63.47 53.78 69.13 56.73 75.42 57.96 C 73.97 59.93 72.51 61.89 71.05 63.86 C 64.56 63.88 58.07 63.87 51.59 63.87 C 51.55 68.52 51.56 73.18 51.55 77.83 C 54.47 77.88 57.39 77.90 60.31 77.93 C 51.56 89.64 42.69 101.25 33.88 112.92 C 52.63 138.40 71.56 163.78 90.16 189.38 C 72.16 187.01 55.44 178.18 43.30 164.70 C 33.07 153.46 26.30 139.06 24.24 124.00 C 22.06 108.90 24.68 93.13 31.51 79.48 C 37.90 66.53 47.94 55.88 60.09 48.14 Z" />
  <path
     id="path9643"
     fill="#030000"
     d="M 53.13 65.50 C 59.46 65.33 65.80 65.51 72.13 65.38 C 74.02 65.39 75.91 65.41 77.81 65.42 C 79.84 65.43 81.88 65.43 83.92 65.43 C 86.89 74.50 89.48 83.69 92.57 92.72 C 94.88 100.88 97.47 108.98 100.06 117.05 C 102.46 109.41 104.83 101.76 107.15 94.09 C 110.17 84.54 113.08 74.97 116.12 65.43 C 118.18 65.43 120.24 65.43 122.29 65.42 C 124.09 65.41 125.88 65.39 127.67 65.38 C 134.10 65.46 140.54 65.44 146.98 65.42 C 146.94 69.11 146.94 72.80 146.97 76.50 C 143.51 76.42 140.06 76.37 136.61 76.41 C 132.94 76.40 129.26 76.37 125.59 76.35 C 124.19 80.69 122.77 85.03 121.54 89.42 C 116.59 104.79 111.78 120.22 107.07 135.66 C 104.65 142.94 102.53 150.30 100.11 157.57 C 97.37 150.37 95.45 142.88 92.96 135.59 C 88.27 120.23 83.48 104.89 78.57 89.60 C 77.34 85.26 75.99 80.95 74.60 76.66 C 67.47 76.09 60.23 76.55 53.07 76.44 C 53.10 72.80 53.01 69.14 53.13 65.50 Z" />
  <path
     id="path9645"
     fill="#ffe676"
     d="M 63.93 76.72 C 67.45 76.32 71.07 76.50 74.60 76.66 C 75.99 80.95 77.34 85.26 78.57 89.60 C 78.34 112.93 78.51 136.26 78.45 159.59 C 83.23 165.48 87.87 171.49 92.82 177.23 C 92.91 163.35 92.67 149.46 92.96 135.59 C 95.45 142.88 97.37 150.37 100.11 157.57 C 102.53 150.30 104.65 142.94 107.07 135.66 C 107.30 149.54 107.10 163.42 107.19 177.29 C 112.14 171.51 116.80 165.48 121.64 159.60 C 121.59 136.21 121.78 112.81 121.54 89.42 C 122.77 85.03 124.19 80.69 125.59 76.35 C 129.26 76.37 132.94 76.40 136.61 76.41 C 137.00 77.04 137.40 77.67 137.80 78.30 C 140.56 83.73 144.50 88.05 148.07 92.93 C 153.06 99.65 158.29 106.20 163.20 112.97 C 144.79 137.98 126.34 162.97 107.93 187.98 C 105.35 191.52 102.74 195.04 100.02 198.47 C 91.92 187.99 84.28 177.17 76.34 166.57 C 73.20 162.33 70.38 157.97 66.57 154.27 C 57.87 142.60 49.40 130.77 40.62 119.16 C 39.15 117.18 37.70 115.26 36.52 113.08 C 37.78 109.99 40.36 107.24 42.38 104.59 C 47.49 97.97 52.50 91.28 57.53 84.60 C 59.55 82.01 61.29 78.70 63.93 76.72 Z" />
  <path
     id="path9647"
     fill="#ed1c24"
     d="M 64.03 82.53 C 64.15 86.39 64.15 90.24 64.12 94.09 C 50.15 100.87 50.12 124.00 64.12 130.79 C 64.14 134.35 64.13 137.90 64.05 141.45 C 58.98 135.89 54.45 129.81 49.67 124.00 C 49.74 116.99 49.50 109.96 49.70 102.96 C 49.69 100.70 51.18 99.18 52.41 97.44 C 56.35 92.50 59.91 87.32 64.03 82.53 Z" />
  <path
     id="path9649"
     fill="#ee1b24"
     d="M 135.97 82.51 C 139.05 86.06 141.85 89.80 144.66 93.57 C 141.75 93.54 138.83 93.52 135.91 93.51 C 135.86 89.84 135.86 86.18 135.97 82.51 Z" />
  <path
     id="path9651"
     fill="#ed1c24"
     d="M 78.57 89.60 C 83.48 104.89 88.27 120.23 92.96 135.59 C 92.67 149.46 92.91 163.35 92.82 177.23 C 87.87 171.49 83.23 165.48 78.45 159.59 C 78.51 136.26 78.34 112.93 78.57 89.60 Z" />
  <path
     id="path9653"
     fill="#ed1c24"
     d="M 121.54 89.42 C 121.78 112.81 121.59 136.21 121.64 159.60 C 116.80 165.48 112.14 171.51 107.19 177.29 C 107.10 163.42 107.30 149.54 107.07 135.66 C 111.78 120.22 116.59 104.79 121.54 89.42 Z" />
  <path
     id="path9655"
     fill="#030000"
     d="M 64.12 94.09 C 69.05 92.64 72.18 92.74 76.91 94.78 C 76.89 98.46 76.87 102.13 77.00 105.80 C 74.44 104.66 72.10 102.93 69.22 104.27 C 63.00 106.93 63.01 117.95 69.15 120.64 C 72.22 121.97 74.32 120.33 76.99 119.11 C 76.88 122.77 76.89 126.43 76.88 130.09 C 72.49 131.81 68.69 132.42 64.12 130.79 C 50.12 124.00 50.15 100.87 64.12 94.09 Z" />
  <path
     id="path9657"
     fill="#030000"
     d="M 123.09 93.54 C 127.36 93.51 131.64 93.51 135.91 93.51 C 138.83 93.52 141.75 93.54 144.66 93.57 L 145.17 94.27 C 145.18 96.77 145.10 99.28 145.02 101.78 C 141.94 101.79 138.86 101.80 135.79 101.80 C 134.93 101.81 134.08 101.81 133.22 101.82 C 133.22 103.80 133.21 105.77 133.20 107.75 C 134.10 107.75 134.99 107.76 135.89 107.76 C 138.52 107.77 141.14 107.77 143.76 107.76 C 143.79 110.52 143.80 113.28 143.82 116.04 C 141.18 116.06 138.54 116.07 135.91 116.08 C 135.00 116.08 134.10 116.07 133.19 116.07 C 133.20 121.26 133.19 126.44 133.21 131.63 C 129.84 131.63 126.47 131.63 123.10 131.61 C 123.16 118.92 123.18 106.23 123.09 93.54 Z" />
  <path
     id="path9659"
     fill="#ed1c24"
     d="M 145.17 94.27 C 147.14 97.25 150.80 100.18 150.44 103.99 C 150.50 110.66 150.38 117.34 150.41 124.01 C 145.55 129.81 141.04 135.92 135.97 141.54 C 135.78 133.06 135.88 124.56 135.91 116.08 C 138.54 116.07 141.18 116.06 143.82 116.04 C 143.80 113.28 143.79 110.52 143.76 107.76 C 141.14 107.77 138.52 107.77 135.89 107.76 C 135.85 105.77 135.82 103.79 135.79 101.80 C 138.86 101.80 141.94 101.79 145.02 101.78 C 145.10 99.28 145.18 96.77 145.17 94.27 Z" />
  <path
     id="path9661"
     fill="#fff57d"
     d="M 133.22 101.82 C 134.08 101.81 134.93 101.81 135.79 101.80 C 135.82 103.79 135.85 105.77 135.89 107.76 C 134.99 107.76 134.10 107.75 133.20 107.75 C 133.21 105.77 133.22 103.80 133.22 101.82 Z" />
</svg>
