<?xml version="1.0" encoding="UTF-8"?>
<!DOCTYPE svg PUBLIC "-//W3C//DTD SVG 1.1//EN" "http://www.w3.org/Graphics/SVG/1.1/DTD/svg11.dtd">
<!-- Creator: CorelDRAW 2021.5 -->
<svg xmlns="http://www.w3.org/2000/svg" xml:space="preserve" width="100px" height="100px" version="1.1" style="shape-rendering:geometricPrecision; text-rendering:geometricPrecision; image-rendering:optimizeQuality; fill-rule:evenodd; clip-rule:evenodd"
viewBox="0 0 100 100"
 xmlns:xlink="http://www.w3.org/1999/xlink"
 xmlns:xodm="http://www.corel.com/coreldraw/odm/2003">
 <defs>
  <style type="text/css">
   <![CDATA[
    .fil1 {fill:#EBECEC;fill-rule:nonzero}
    .fil0 {fill:white;fill-rule:nonzero}
   ]]>
  </style>
 </defs>
 <g id="Layer_x0020_1">
  <metadata id="CorelCorpID_0Corel-Layer"/>
  <g id="_1051322720">
   <path id="svg_3" class="fil0" d="M18.56 21.46c-0.67,0.78 -1.12,1.62 -1.36,2.65 -0.78,3.89 -1.36,7.77 -1.53,11.67 -0.05,1.36 0.49,2.2 1.81,2.61 4.3,1.41 8.58,2.81 12.88,4.19 0.99,0.32 1.9,0.17 2.77,-0.45 4.92,-3.61 9.85,-7.17 14.77,-10.75 0.78,-0.58 1.17,-1.31 1.17,-2.31 0,-2.26 0,-4.51 0,-6.77 0,-2.31 0,-4.64 0,-6.95 -0.04,-1.27 -0.67,-2.11 -1.86,-2.43 -1.36,-0.37 -2.76,-0.78 -4.15,-1 -2.57,-0.41 -5.14,-0.77 -7.67,-1.16 -0.86,-0.13 -1.62,-0.04 -2.39,0.28 -5.54,2.52 -10.33,5.95 -14.44,10.42l0 0z"/>
   <path id="svg_4" class="fil0" d="M17.07 20.14c0.09,-0.08 0.13,-0.17 0.22,-0.28 2.07,-2.2 4.34,-4.25 6.82,-5.99 2.32,-1.62 4.8,-3.07 7.37,-4.26 0.46,-0.21 0.82,-0.49 0.82,-1.03 -0.04,-0.86 -0.82,-1.27 -1.7,-0.86 -4.52,2.07 -8.58,4.83 -12.25,8.19 -0.96,0.91 -1.86,1.86 -2.77,2.81 -0.41,0.49 -0.37,1.12 0.04,1.49 0.41,0.39 1,0.34 1.45,-0.07l0 0z"/>
   <path id="svg_5" class="fil0" d="M37.36 63.61c-1.9,-5.78 -3.8,-11.58 -5.64,-17.36 -0.32,-1 -0.91,-1.58 -1.86,-1.9 -4.3,-1.36 -8.58,-2.76 -12.88,-4.14 -1.4,-0.46 -2.35,-0.13 -3.15,1.12 -2.31,3.47 -4.19,7.2 -5.92,11 -0.13,0.32 -0.17,0.71 -0.28,1.08l0.04 0c0,0.17 0.05,0.37 0.05,0.54 0.58,6 2.35,11.58 5.29,16.83 0.54,1.03 1.27,1.85 2.35,2.43 3.35,1.9 6.79,3.61 10.4,4.97 1.4,0.54 2.35,0.28 3.26,-1.04 2.61,-3.65 5.23,-7.27 7.91,-10.87 0.6,-0.8 0.73,-1.66 0.43,-2.66l0 0z"/>
   <path id="svg_6" class="fil0" d="M52.03 31.47c0.71,0.49 1.41,0.99 2.08,1.49 4.25,3.1 8.53,6.21 12.83,9.34 0.71,0.54 1.49,0.78 2.4,0.5 4.47,-1.45 8.9,-2.9 13.37,-4.34 1.09,-0.37 1.71,-1.27 1.62,-2.4 -0.08,-1.81 -0.21,-3.6 -0.45,-5.41 -0.32,-2.27 -0.78,-4.47 -1.12,-6.67 -0.09,-0.71 -0.33,-1.31 -0.78,-1.85 -4.02,-4.56 -8.82,-8.11 -14.33,-10.68 -0.99,-0.5 -1.98,-0.71 -3.15,-0.58 -3.93,0.45 -7.78,1.07 -11.56,2.11 -1.36,0.37 -1.99,1.21 -1.99,2.61 0,2.27 0,4.51 0,6.77 0,2.27 0,4.56 0,6.95 0,0.89 0.37,1.62 1.08,2.16l0 0z"/>
   <path id="svg_7" class="fil0" d="M7.05 61.24c-0.5,-2.03 -0.78,-4.06 -1.13,-6.08 -0.17,-0.87 -0.45,-1.21 -1.12,-1.21 -0.72,0 -1.13,0.49 -1.04,1.21 0.41,3.51 1.21,6.99 2.4,10.33 0.91,2.57 2.03,5.01 3.39,7.4 0.46,0.82 1.17,0.91 1.77,0.32 0.46,-0.45 0.28,-0.9 0.05,-1.35 -1.93,-3.37 -3.42,-6.89 -4.32,-10.62l0 0z"/>
   <path id="svg_8" class="fil0" d="M76.15 11.62c-2.21,-1.53 -4.52,-2.85 -6.96,-3.93 -0.82,-0.36 -1.58,0.05 -1.62,0.87 0,0.62 0.37,0.9 0.86,1.12 4.3,1.98 8.17,4.55 11.61,7.77 0.95,0.86 1.81,1.81 2.7,2.69 0.36,0.37 0.82,0.54 1.27,0.28 0.32,-0.17 0.54,-0.58 0.82,-0.9 -0.28,-0.41 -0.41,-0.72 -0.67,-1 -2.4,-2.61 -5.08,-4.91 -8.01,-6.9l0 0z"/>
   <path id="svg_9" class="fil0" d="M83.26 40.25c-4.43,1.44 -8.82,2.85 -13.25,4.29 -0.87,0.28 -1.41,0.82 -1.66,1.62 -1.95,5.96 -3.85,11.87 -5.79,17.78 -0.22,0.82 -0.13,1.57 0.36,2.26 2.77,3.8 5.51,7.53 8.28,11.33 0.71,0.95 1.77,1.21 2.85,0.82 0.86,-0.32 1.77,-0.63 2.57,-1.04 2.7,-1.36 5.42,-2.76 8.13,-4.05 1.08,-0.5 1.77,-1.32 2.26,-2.31 0.59,-1.21 1.28,-2.44 1.86,-3.69 1.95,-4.34 3.11,-8.89 3.52,-13.66 0,-0.17 0.05,-0.41 -0.04,-0.58 -0.17,-0.49 -0.41,-0.95 -0.58,-1.4 -1.58,-3.6 -3.44,-7.03 -5.6,-10.34 -0.75,-1.07 -1.75,-1.46 -2.91,-1.03l0 0z"/>
   <path id="svg_10" class="fil0" d="M58.82 93.47c-1.9,0.28 -3.85,0.58 -5.73,0.78 -4.02,0.32 -7.99,0.04 -11.93,-0.78 -0.82,-0.17 -1.32,0.13 -1.45,0.87 -0.08,0.58 0.29,1.03 1.04,1.16 3.03,0.58 6.1,0.91 9.21,0.95 1.16,-0.04 2.4,-0.04 3.56,-0.17 1.95,-0.22 3.89,-0.5 5.84,-0.82 0.86,-0.13 1.16,-0.91 0.78,-1.58 -0.33,-0.49 -0.78,-0.49 -1.32,-0.41l0 0z"/>
   <path id="svg_11" class="fil0" d="M61.52 67.5c-0.59,-0.87 -1.41,-1.28 -2.44,-1.28 -3.03,0 -6.05,0 -9.08,0 -3.07,0 -6.14,0 -9.2,0 -0.96,0 -1.67,0.33 -2.21,1.08 -2.7,3.76 -5.46,7.49 -8.17,11.24 -0.71,0.99 -0.71,2.12 0.09,3.02 1.82,2.07 3.65,4.1 5.55,6.13 1,1.04 2.08,2.03 3.16,3.02 0.17,0.22 0.45,0.45 0.71,0.5 6.01,1.48 12.06,1.57 18.15,0.45 1.32,-0.28 2.62,-0.45 3.44,-1.7 0.04,-0.05 0.13,-0.09 0.17,-0.13 2.77,-2.49 5.29,-5.14 7.58,-7.99 1.04,-1.36 1.09,-2.2 0.05,-3.56 -2.62,-3.6 -5.23,-7.18 -7.8,-10.78l0 0z"/>
   <path id="svg_12" class="fil0" d="M88.61 71.79c-0.21,0.5 -0.41,0.95 0,1.4 0.54,0.63 1.36,0.54 1.78,-0.21 0.77,-1.49 1.57,-2.98 2.26,-4.51 1.91,-4.25 3.03,-8.7 3.57,-13.31 0.09,-0.72 -0.32,-1.21 -1.04,-1.21 -0.67,0 -0.99,0.32 -1.12,1.21 -0.37,3.43 -1.08,6.77 -2.36,9.96 -0.9,2.29 -2.05,4.45 -3.09,6.67l0 0z"/>
   <path id="svg_13" class="fil1" d="M49.55 1.65c-26.43,0.22 -48.01,21.75 -47.97,48.31 -0.09,26.79 21.91,48.63 48.83,48.39 26.43,-0.22 48.06,-21.79 48.01,-48.39 -0.04,-26.75 -21.91,-48.59 -48.87,-48.31zm1.4 13.94c0,-1.4 0.63,-2.26 1.99,-2.61 3.8,-1.04 7.63,-1.66 11.56,-2.11 1.17,-0.13 2.16,0.08 3.15,0.58 5.51,2.57 10.31,6.12 14.33,10.68 0.45,0.54 0.67,1.12 0.78,1.85 0.37,2.2 0.82,4.43 1.12,6.67 0.22,1.81 0.37,3.6 0.45,5.41 0.09,1.13 -0.53,2.03 -1.62,2.4 -4.47,1.44 -8.9,2.89 -13.37,4.34 -0.91,0.28 -1.66,0.04 -2.4,-0.5 -4.3,-3.11 -8.58,-6.21 -12.83,-9.34 -0.67,-0.5 -1.37,-1 -2.08,-1.49 -0.71,-0.54 -1.08,-1.27 -1.08,-2.16 0,-2.39 0,-4.68 0,-6.95 0,-2.26 0,-4.53 0,-6.77l0 0zm-15.58 -4.79c2.53,0.41 5.1,0.78 7.67,1.17 1.41,0.21 2.81,0.62 4.15,0.99 1.17,0.32 1.82,1.16 1.86,2.44 0,2.3 0,4.64 0,6.94 0,2.27 0,4.51 0,6.78 0,0.99 -0.41,1.7 -1.17,2.31 -4.92,3.56 -9.85,7.12 -14.78,10.74 -0.86,0.63 -1.77,0.78 -2.76,0.45 -4.3,-1.4 -8.58,-2.8 -12.88,-4.18 -1.32,-0.41 -1.86,-1.28 -1.81,-2.61 0.17,-3.93 0.77,-7.81 1.53,-11.68 0.21,-1.03 0.67,-1.89 1.36,-2.65 4.11,-4.46 8.9,-7.89 14.41,-10.38 0.78,-0.36 1.56,-0.45 2.42,-0.32l0 0zm-19.79 7.94c0.91,-0.95 1.82,-1.9 2.77,-2.8 3.65,-3.39 7.71,-6.13 12.25,-8.2 0.9,-0.41 1.66,0 1.7,0.86 0,0.54 -0.36,0.82 -0.82,1.04 -2.57,1.16 -5.05,2.61 -7.37,4.25 -2.48,1.77 -4.75,3.79 -6.82,5.99 -0.09,0.09 -0.13,0.18 -0.22,0.28 -0.45,0.41 -1.04,0.46 -1.45,0.09 -0.41,-0.37 -0.45,-1.01 -0.04,-1.51l0 0zm-4.3 54.45c-0.58,0.58 -1.32,0.5 -1.77,-0.32 -1.36,-2.4 -2.49,-4.83 -3.39,-7.4 -1.17,-3.34 -1.99,-6.82 -2.4,-10.33 -0.09,-0.72 0.32,-1.21 1.03,-1.21 0.67,0 0.95,0.36 1.13,1.21 0.37,2.02 0.62,4.05 1.12,6.08 0.91,3.75 2.4,7.27 4.3,10.59 0.26,0.48 0.43,0.93 -0.02,1.38l0 0zm14.46 5.01c-3.61,-1.36 -7.05,-3.07 -10.4,-4.96 -1.08,-0.59 -1.81,-1.41 -2.35,-2.44 -2.94,-5.22 -4.69,-10.83 -5.3,-16.83 0,-0.17 -0.04,-0.37 -0.04,-0.54l-0.04 0c0.08,-0.37 0.13,-0.78 0.28,-1.08 1.7,-3.79 3.61,-7.53 5.92,-11 0.82,-1.27 1.77,-1.57 3.15,-1.12 4.3,1.4 8.58,2.8 12.88,4.14 0.95,0.32 1.54,0.91 1.86,1.9 1.86,5.78 3.76,11.58 5.64,17.37 0.32,0.99 0.17,1.85 -0.46,2.65 -2.65,3.6 -5.29,7.2 -7.9,10.87 -0.89,1.3 -1.84,1.58 -3.24,1.04l0 0zm33.62 17.26c-1.95,0.32 -3.89,0.58 -5.84,0.82 -1.16,0.13 -2.4,0.13 -3.56,0.17 -3.11,-0.04 -6.18,-0.37 -9.21,-0.95 -0.78,-0.13 -1.12,-0.58 -1.04,-1.16 0.13,-0.72 0.63,-1.04 1.45,-0.87 3.94,0.82 7.91,1.08 11.93,0.78 1.9,-0.17 3.85,-0.5 5.73,-0.78 0.54,-0.08 0.99,-0.08 1.32,0.41 0.38,0.67 0.06,1.45 -0.78,1.58l0 0zm9.94 -13.62c-2.32,2.85 -4.84,5.51 -7.59,7.99 -0.04,0.04 -0.13,0.08 -0.17,0.13 -0.82,1.27 -2.12,1.44 -3.44,1.7 -6.09,1.12 -12.14,1.03 -18.15,-0.45 -0.28,-0.05 -0.54,-0.28 -0.71,-0.5 -1.08,-0.99 -2.16,-1.98 -3.15,-3.02 -1.91,-2.03 -3.76,-4.06 -5.56,-6.13 -0.82,-0.9 -0.82,-2.03 -0.08,-3.02 2.7,-3.75 5.46,-7.48 8.16,-11.24 0.54,-0.77 1.28,-1.08 2.21,-1.08 3.07,0 6.13,0 9.2,0 3.03,0 6.05,0 9.08,0 1.04,0 1.86,0.41 2.44,1.28 2.57,3.6 5.18,7.16 7.82,10.78 1.02,1.34 0.97,2.2 -0.06,3.56l0 0zm25.88 -27.91c0.72,0 1.13,0.49 1.04,1.21 -0.54,4.59 -1.66,9.06 -3.57,13.31 -0.67,1.53 -1.49,3.02 -2.26,4.5 -0.42,0.78 -1.21,0.87 -1.78,0.22 -0.41,-0.45 -0.21,-0.9 0,-1.4 1.04,-2.2 2.16,-4.38 3.07,-6.67 1.28,-3.19 1.99,-6.53 2.36,-9.96 0.15,-0.89 0.45,-1.21 1.14,-1.21l0 0zm-9.05 -12.69c2.16,3.3 4.02,6.71 5.6,10.34 0.17,0.45 0.4,0.9 0.58,1.4 0.08,0.17 0.04,0.41 0.04,0.58 -0.41,4.79 -1.58,9.34 -3.52,13.66 -0.58,1.27 -1.28,2.48 -1.86,3.69 -0.5,0.99 -1.17,1.81 -2.27,2.3 -2.7,1.32 -5.42,2.7 -8.12,4.06 -0.82,0.41 -1.71,0.71 -2.57,1.04 -1.08,0.41 -2.12,0.13 -2.86,-0.82 -2.76,-3.8 -5.5,-7.53 -8.27,-11.33 -0.5,-0.67 -0.58,-1.45 -0.37,-2.27 1.95,-5.91 3.85,-11.82 5.79,-17.77 0.28,-0.82 0.82,-1.36 1.67,-1.62 4.43,-1.45 8.81,-2.85 13.24,-4.29 1.21,-0.39 2.21,0 2.92,1.03l0 0zm-1.3 -21.72c-0.28,0.32 -0.5,0.71 -0.82,0.9 -0.45,0.28 -0.91,0.09 -1.27,-0.28 -0.91,-0.9 -1.78,-1.85 -2.7,-2.69 -3.44,-3.2 -7.33,-5.79 -11.61,-7.77 -0.49,-0.22 -0.86,-0.5 -0.86,-1.12 0.04,-0.82 0.82,-1.21 1.62,-0.87 2.44,1.08 4.75,2.4 6.96,3.93 2.93,1.99 5.59,4.29 7.99,6.9 0.28,0.26 0.41,0.59 0.69,1l0 0z"/>
  </g>
 </g>
</svg>
