<svg width="700" height="700" xmlns="http://www.w3.org/2000/svg" xml:space="preserve" version="1.1">

 <g>
  <title>Layer 1</title>
  <g stroke="null" id="svg_1">
   <g stroke="null" id="svg_2">
    <path stroke="null" id="svg_3" fill="#FFFFFF" d="m139.1491,157.9605c-4.46256,5.17422 -7.48558,10.77963 -9.06907,17.67859c-5.18232,25.87111 -9.06907,51.74222 -10.22069,77.75706c-0.28791,9.05489 3.31093,14.6603 12.09209,17.39114c28.64674,9.34235 57.14952,18.68469 85.79625,27.88331c6.62186,2.15593 12.6679,1.14983 18.42604,-3.0183c32.82138,-24.00264 65.64277,-47.71783 98.46415,-71.57674c5.18232,-3.88067 7.77349,-8.76743 7.77349,-15.37894c0,-15.09148 0,-30.03924 0,-45.13072c0,-15.37894 0,-30.90161 0,-46.28054c-0.28791,-8.47998 -4.46256,-14.08538 -12.38,-16.24131c-9.06907,-2.44338 -18.42604,-5.17422 -27.63906,-6.61151c-17.13046,-2.73084 -34.26092,-5.17422 -51.10347,-7.76133c-5.75814,-0.86237 -10.79651,-0.28746 -15.97883,1.86847c-36.85208,16.81622 -68.80975,39.66904 -96.1609,69.42082z" class="st0"/>
    <path stroke="null" id="svg_4" fill="#FFFFFF" d="m129.21631,149.19306c0.57581,-0.57491 0.86372,-1.14983 1.43953,-1.86847c13.81953,-14.6603 28.93464,-28.31449 45.48929,-39.95649c15.40302,-10.77963 31.95766,-20.40943 49.08812,-28.31449c3.02302,-1.43728 5.47023,-3.30575 5.47023,-6.89896c-0.28791,-5.74914 -5.47023,-8.47998 -11.37232,-5.74914c-30.08627,13.79793 -57.14952,32.19516 -81.6216,54.61679c-6.33395,6.03659 -12.38,12.36064 -18.42604,18.68469c-2.73512,3.30575 -2.44721,7.47388 0.28791,9.91726c2.73512,2.58711 6.62186,2.29965 9.64488,-0.43119z" class="st0"/>
    <path stroke="null" id="svg_5" fill="#FFFFFF" d="m264.38859,438.80579c-12.6679,-38.51921 -25.33581,-77.18215 -37.57185,-115.70136c-2.1593,-6.61151 -6.04604,-10.49217 -12.38,-12.6481c-28.64674,-9.05489 -57.14952,-18.39724 -85.79625,-27.59585c-9.35697,-3.0183 -15.69093,-0.86237 -21.0172,7.47388c-15.40302,23.14027 -27.92697,48.00529 -39.44324,73.30148c-0.86372,2.15593 -1.15163,4.74304 -1.87139,7.18642l0.28791,0c0,1.14983 0.28791,2.44338 0.28791,3.59321c3.88674,39.95649 15.69093,77.18215 35.26859,112.10815c3.59884,6.89896 8.49325,12.36064 15.69093,16.24131c22.31278,12.6481 45.20138,24.00264 69.24161,33.05753c9.35697,3.59321 15.69093,1.86847 21.73697,-6.89896c17.41837,-24.2901 34.83673,-48.43647 52.68696,-72.43911c4.0307,-5.31795 4.89442,-11.06709 2.87907,-17.67859z" class="st0"/>
    <path stroke="null" id="svg_6" fill="#FFFFFF" d="m362.13298,224.65047c4.75046,3.30575 9.35697,6.61151 13.81953,9.91726c28.35883,20.69689 56.86161,41.39378 85.50834,62.2344c4.75046,3.59321 9.93279,5.17422 15.97883,3.30575c29.79836,-9.6298 59.30882,-19.25961 89.10718,-28.88941c7.19767,-2.44338 11.37232,-8.47998 10.79651,-15.95385c-0.57581,-12.07319 -1.43953,-24.00264 -3.02302,-36.07583c-2.1593,-15.09148 -5.18232,-29.75178 -7.48558,-44.41208c-0.57581,-4.74304 -2.1593,-8.76743 -5.18232,-12.36064c-26.77534,-30.32669 -58.733,-54.04188 -95.44113,-71.14556c-6.62186,-3.30575 -13.24372,-4.74304 -21.0172,-3.88067c-26.19953,3.0183 -51.82324,7.18642 -77.01509,14.08538c-9.06907,2.44338 -13.24372,8.04879 -13.24372,17.39114c0,15.09148 0,30.03924 0,45.13072s0,30.32669 0,46.28054c0,5.89286 2.44721,10.77963 7.19767,14.37284z" class="st0"/>
    <path stroke="null" id="svg_7" fill="#FFFFFF" d="m62.42191,422.99566c-3.31093,-13.51047 -5.18232,-27.02094 -7.48558,-40.53141c-1.15163,-5.74914 -3.02302,-8.04879 -7.48558,-8.04879c-4.75046,0 -7.48558,3.30575 -6.90977,8.04879c2.73512,23.42773 8.06139,46.568 15.97883,68.8459c6.04604,17.10368 13.53162,33.34499 22.60069,49.29884c3.02302,5.46168 7.77349,6.03659 11.80418,2.15593c3.02302,-3.0183 1.87139,-6.03659 0.28791,-9.05489c-12.81186,-22.42163 -22.74464,-45.84936 -28.79069,-70.71437z" class="st0"/>
    <path stroke="null" id="svg_8" fill="#FFFFFF" d="m522.78502,92.42035c-14.68325,-10.20472 -30.08627,-18.97215 -46.35301,-26.15857c-5.47023,-2.44338 -10.5086,0.28746 -10.79651,5.74914c0,4.16812 2.44721,6.03659 5.75814,7.47388c28.64674,13.22301 54.4144,30.32669 77.303,51.74222c6.33395,5.74914 12.09209,12.07319 17.99418,17.96605c2.44721,2.44338 5.47023,3.59321 8.49325,1.86847c2.1593,-1.14983 3.59884,-3.88067 5.47023,-6.03659c-1.87139,-2.73084 -2.73512,-4.74304 -4.46256,-6.61151c-15.97883,-17.39114 -33.82906,-32.77008 -53.40673,-45.99309z" class="st0"/>
    <path stroke="null" id="svg_9" fill="#FFFFFF" d="m570.1457,283.14793c-29.51046,9.6298 -58.733,18.97215 -88.24346,28.60195c-5.75814,1.86847 -9.35697,5.46168 -11.08442,10.77963c-12.95581,39.66904 -25.62371,79.05062 -38.57952,118.4322c-1.43953,5.46168 -0.86372,10.49217 2.44721,15.09148c18.42604,25.2962 36.70813,50.16121 55.13417,75.45741c4.75046,6.32405 11.80418,8.04879 19.00185,5.46168c5.75814,-2.15593 11.80418,-4.16812 17.13046,-6.89896c17.99418,-9.05489 36.13231,-18.39724 54.12649,-27.02094c7.19767,-3.30575 11.80418,-8.76743 15.11511,-15.37894c3.88674,-8.04879 8.49325,-16.24131 12.38,-24.57756c12.95581,-28.88941 20.7293,-59.2161 23.46441,-90.98008c0,-1.14983 0.28791,-2.73084 -0.28791,-3.88067c-1.15163,-3.30575 -2.73512,-6.32405 -3.88674,-9.34235c-10.5086,-24.00264 -22.8886,-46.85546 -37.28394,-68.8459c-5.03837,-7.18642 -11.66023,-9.77353 -19.43371,-6.89896z" class="st0"/>
    <path stroke="null" id="svg_10" fill="#FFFFFF" d="m407.33436,637.72589c-12.6679,1.86847 -25.62371,3.88067 -38.14766,5.17422c-26.77534,2.15593 -53.26277,0.28746 -79.4623,-5.17422c-5.47023,-1.14983 -8.78116,0.86237 -9.64488,5.74914c-0.57581,3.88067 1.87139,6.89896 6.90977,7.76133c20.15348,3.88067 40.59487,6.03659 61.32417,6.32405c7.77349,-0.28746 15.97883,-0.28746 23.75232,-1.14983c12.95581,-1.43728 25.91162,-3.30575 38.86743,-5.46168c5.75814,-0.86237 7.77349,-6.03659 5.18232,-10.49217c-2.1593,-3.30575 -5.18232,-3.30575 -8.78116,-2.73084z" class="st0"/>
    <path stroke="null" id="svg_11" fill="#FFFFFF" d="m425.32854,464.6769c-3.88674,-5.74914 -9.35697,-8.47998 -16.26674,-8.47998c-20.15348,0 -40.30696,0 -60.46045,0c-20.44139,0 -40.88278,0 -61.32417,0c-6.33395,0 -11.08442,2.15593 -14.68325,7.18642c-17.99418,25.00874 -36.42022,49.87375 -54.4144,74.8825c-4.75046,6.61151 -4.75046,14.08538 0.57581,20.12198c12.09209,13.79793 24.32813,27.3084 36.99603,40.81887c6.62186,6.89896 13.81953,13.51047 21.0172,20.12198c1.15163,1.43728 3.02302,3.0183 4.75046,3.30575c40.01906,9.91726 80.32602,10.49217 120.92089,3.0183c8.78116,-1.86847 17.41837,-3.0183 22.8886,-11.35454c0.28791,-0.28746 0.86372,-0.57491 1.15163,-0.86237c18.42604,-16.52877 35.26859,-34.20736 50.52766,-53.17951c6.90977,-9.05489 7.19767,-14.6603 0.28791,-23.71519c-17.41837,-24.00264 -34.83673,-47.86156 -51.96719,-71.8642z" class="st0"/>
    <path stroke="null" id="svg_12" fill="#FFFFFF" d="m605.84616,493.27885c-1.43953,3.30575 -2.73512,6.32405 0,9.34235c3.59884,4.16812 9.06907,3.59321 11.80418,-1.43728c5.18232,-9.91726 10.5086,-19.83452 15.11511,-30.03924c12.6679,-28.31449 20.15348,-57.92254 23.75232,-88.68042c0.57581,-4.74304 -2.1593,-8.04879 -6.90977,-8.04879c-4.46256,0 -6.62186,2.15593 -7.48558,8.04879c-2.44721,22.85282 -7.19767,45.13072 -15.69093,66.40252c-6.04604,15.23521 -13.67558,29.60805 -20.58534,44.41208z" class="st0"/>
   </g>
   <path stroke="null" id="svg_13" d="m345.57833,26.01783c-176.05506,1.43728 -319.86455,144.87823 -319.57664,321.80789c-0.57581,178.51067 145.96879,323.96381 325.33478,322.3828c176.05506,-1.43728 320.15246,-145.16568 319.86455,-322.3828c-0.28791,-178.22322 -145.96879,-323.67636 -325.62269,-321.80789zm9.35697,92.84855c0,-9.34235 4.17465,-15.09148 13.24372,-17.39114c25.33581,-6.89896 50.81557,-11.06709 77.01509,-14.08538c7.77349,-0.86237 14.39534,0.57491 21.0172,3.88067c36.70813,17.10368 68.66579,40.81887 95.44113,71.14556c3.02302,3.59321 4.46256,7.47388 5.18232,12.36064c2.44721,14.6603 5.47023,29.46432 7.48558,44.41208c1.43953,12.07319 2.44721,24.00264 3.02302,36.07583c0.57581,7.47388 -3.59884,13.51047 -10.79651,15.95385c-29.79836,9.6298 -59.30882,19.25961 -89.10718,28.88941c-6.04604,1.86847 -11.08442,0.28746 -15.97883,-3.30575c-28.64674,-20.69689 -57.14952,-41.39378 -85.50834,-62.2344c-4.46256,-3.30575 -9.06907,-6.61151 -13.81953,-9.91726c-4.75046,-3.59321 -7.19767,-8.47998 -7.19767,-14.37284c0,-15.95385 0,-31.18906 0,-46.28054s0,-30.18296 0,-45.13072zm-103.79043,-31.9077c16.84255,2.73084 33.97301,5.17422 51.10347,7.76133c9.35697,1.43728 18.71395,4.16812 27.63906,6.61151c7.77349,2.15593 12.09209,7.76133 12.38,16.24131c0,15.37894 0,30.90161 0,46.28054c0,15.09148 0,30.03924 0,45.13072c0,6.61151 -2.73512,11.35454 -7.77349,15.37894c-32.82138,23.71519 -65.64277,47.43037 -98.46415,71.57674c-5.75814,4.16812 -11.80418,5.17422 -18.42604,3.0183c-28.64674,-9.34235 -57.14952,-18.68469 -85.79625,-27.88331c-8.78116,-2.73084 -12.38,-8.47998 -12.09209,-17.39114c1.15163,-26.15857 5.18232,-52.02968 10.22069,-77.75706c1.43953,-6.89896 4.46256,-12.6481 9.06907,-17.67859c27.35115,-29.75178 59.30882,-52.60459 96.01695,-69.13336c5.18232,-2.44338 10.36465,-3.0183 16.12279,-2.15593zm-131.86135,52.89205c6.04604,-6.32405 12.09209,-12.6481 18.42604,-18.68469c24.32813,-22.56536 51.39138,-40.81887 81.6216,-54.61679c6.04604,-2.73084 11.08442,0 11.37232,5.74914c0,3.59321 -2.44721,5.46168 -5.47023,6.89896c-17.13046,7.76133 -33.68511,17.39114 -49.08812,28.31449c-16.55465,11.78573 -31.66976,25.2962 -45.48929,39.95649c-0.57581,0.57491 -0.86372,1.14983 -1.43953,1.86847c-3.02302,2.73084 -6.90977,3.0183 -9.64488,0.57491c-2.73512,-2.44338 -3.02302,-6.75523 -0.28791,-10.06099zm-28.64674,362.77048c-3.88674,3.88067 -8.78116,3.30575 -11.80418,-2.15593c-9.06907,-15.95385 -16.55465,-32.19516 -22.60069,-49.29884c-7.77349,-22.2779 -13.24372,-45.41817 -15.97883,-68.8459c-0.57581,-4.74304 2.1593,-8.04879 6.90977,-8.04879c4.46256,0 6.33395,2.44338 7.48558,8.04879c2.44721,13.51047 4.17465,27.02094 7.48558,40.53141c6.04604,25.00874 15.97883,48.43647 28.64674,70.57064c1.72744,3.16202 2.87907,6.18032 -0.14395,9.19862zm96.30485,33.34499c-24.04022,-9.05489 -46.92882,-20.40943 -69.24161,-33.05753c-7.19767,-3.88067 -12.09209,-9.34235 -15.69093,-16.24131c-19.57767,-34.78227 -31.2379,-72.15166 -35.26859,-112.10815c0,-1.14983 -0.28791,-2.44338 -0.28791,-3.59321l-0.28791,0c0.57581,-2.44338 0.86372,-5.17422 1.87139,-7.18642c11.37232,-25.2962 24.04022,-50.16121 39.44324,-73.30148c5.47023,-8.47998 11.80418,-10.49217 21.0172,-7.47388c28.64674,9.34235 57.14952,18.68469 85.79625,27.59585c6.33395,2.15593 10.22069,6.03659 12.38,12.6481c12.38,38.51921 25.0479,77.18215 37.57185,115.70136c2.1593,6.61151 1.15163,12.36064 -3.02302,17.67859c-17.70627,24.00264 -35.26859,48.00529 -52.68696,72.43911c-5.90209,8.6237 -12.23604,10.49217 -21.59302,6.89896zm223.99156,114.98272c-12.95581,2.15593 -25.91162,3.88067 -38.86743,5.46168c-7.77349,0.86237 -15.97883,0.86237 -23.75232,1.14983c-20.7293,-0.28746 -41.17068,-2.44338 -61.32417,-6.32405c-5.18232,-0.86237 -7.48558,-3.88067 -6.90977,-7.76133c0.86372,-4.74304 4.17465,-6.89896 9.64488,-5.74914c26.19953,5.46168 52.68696,7.18642 79.4623,5.17422c12.6679,-1.14983 25.62371,-3.30575 38.14766,-5.17422c3.59884,-0.57491 6.62186,-0.57491 8.78116,2.73084c2.59116,4.45558 0.43186,9.6298 -5.18232,10.49217zm66.21858,-90.69262c-15.40302,18.97215 -32.24557,36.65074 -50.52766,53.17951c-0.28791,0.28746 -0.86372,0.57491 -1.15163,0.86237c-5.47023,8.47998 -14.10744,9.6298 -22.8886,11.35454c-40.59487,7.47388 -80.90183,6.89896 -120.92089,-3.0183c-1.87139,-0.28746 -3.59884,-1.86847 -4.75046,-3.30575c-7.19767,-6.61151 -14.39534,-13.22301 -21.0172,-20.12198c-12.6679,-13.51047 -25.0479,-27.02094 -36.99603,-40.81887c-5.47023,-6.03659 -5.47023,-13.51047 -0.57581,-20.12198c17.99418,-25.00874 36.42022,-49.87375 54.4144,-74.8825c3.59884,-5.17422 8.49325,-7.18642 14.68325,-7.18642c20.44139,0 40.88278,0 61.32417,0c20.15348,0 40.30696,0 60.46045,0c6.90977,0 12.38,2.73084 16.26674,8.47998c17.13046,24.00264 34.54883,47.71783 52.11115,71.8642c6.76581,8.91116 6.4779,14.6603 -0.43186,23.71519zm172.45622,-185.98455c4.75046,0 7.48558,3.30575 6.90977,8.04879c-3.59884,30.61415 -11.08442,60.36593 -23.75232,88.68042c-4.46256,10.20472 -9.93279,20.12198 -15.11511,30.03924c-2.73512,5.17422 -8.06139,5.74914 -11.80418,1.43728c-2.73512,-3.0183 -1.43953,-6.03659 0,-9.34235c6.90977,-14.6603 14.39534,-29.17687 20.44139,-44.41208c8.49325,-21.2718 13.24372,-43.5497 15.69093,-66.40252c1.00767,-5.89286 3.02302,-8.04879 7.62953,-8.04879zm-60.31649,-84.5123c14.39534,21.99045 26.77534,44.69953 37.28394,68.8459c1.15163,3.0183 2.73512,6.03659 3.88674,9.34235c0.57581,1.14983 0.28791,2.73084 0.28791,3.88067c-2.73512,31.9077 -10.5086,62.2344 -23.46441,90.98008c-3.88674,8.47998 -8.49325,16.52877 -12.38,24.57756c-3.31093,6.61151 -7.77349,12.07319 -15.11511,15.37894c-17.99418,8.76743 -36.13231,17.96605 -54.12649,27.02094c-5.47023,2.73084 -11.37232,4.74304 -17.13046,6.89896c-7.19767,2.73084 -14.10744,0.86237 -19.00185,-5.46168c-18.42604,-25.2962 -36.70813,-50.16121 -55.13417,-75.45741c-3.31093,-4.45558 -3.88674,-9.6298 -2.44721,-15.09148c12.95581,-39.38158 25.62371,-78.76316 38.57952,-118.4322c1.87139,-5.46168 5.47023,-9.05489 11.08442,-10.77963c29.51046,-9.6298 58.733,-18.97215 88.24346,-28.60195c8.06139,-2.58711 14.68325,0 19.43371,6.89896zm-8.63721,-144.7345c-1.87139,2.15593 -3.31093,4.74304 -5.47023,6.03659c-3.02302,1.86847 -6.04604,0.57491 -8.49325,-1.86847c-6.04604,-6.03659 -11.80418,-12.36064 -17.99418,-17.96605c-22.8886,-21.2718 -48.80022,-38.51921 -77.303,-51.74222c-3.31093,-1.43728 -5.75814,-3.30575 -5.75814,-7.47388c0.28791,-5.46168 5.47023,-8.04879 10.79651,-5.74914c16.26674,7.18642 31.66976,15.95385 46.35301,26.15857c19.57767,13.22301 37.28394,28.60195 53.26277,45.99309c1.87139,1.72474 2.73512,3.88067 4.60651,6.61151z"/>
  </g>
 </g>
</svg>