<svg width="700" height="700" xmlns="http://www.w3.org/2000/svg" version="1.1" xml:space="preserve">
 <g>
  <title>Layer 1</title>
  <g stroke="null" id="svg_1">
   <g stroke="null" id="svg_2">
    <path stroke="null" class="st0" d="m123.44374,144.61201c-4.82914,5.59187 -8.10048,11.64974 -9.81405,19.10556c-5.60802,27.95937 -9.81405,55.91873 -11.06027,84.03343c-0.31156,9.78578 3.58291,15.84365 13.08539,18.79491c30.99992,10.09644 61.84406,20.19287 92.84397,30.13399c7.16581,2.32995 13.7085,1.24264 19.93964,-3.26193c35.51749,-25.94008 71.03498,-51.5695 106.55247,-77.35425c5.60802,-4.19391 8.41204,-9.47512 8.41204,-16.62029c0,-16.30963 0,-32.46394 0,-48.77357c0,-16.62029 0,-33.39592 0,-50.0162c-0.31156,-9.16446 -4.82914,-15.22232 -13.39695,-17.55227c-9.81405,-2.6406 -19.93964,-5.59187 -29.90947,-7.14518c-18.53764,-2.95127 -37.07528,-5.59187 -55.30135,-8.38781c-6.23114,-0.93198 -11.68339,-0.31066 -17.29141,2.01929c-39.87929,18.17359 -74.46211,42.87103 -104.06002,75.02431z" fill="#FFFFFF" id="svg_3"/>
    <path stroke="null" class="st0" d="m112.69502,135.13688c0.62311,-0.62132 0.93467,-1.24264 1.55778,-2.01929c14.95473,-15.84365 31.31147,-30.59997 49.226,-43.18169c16.6683,-11.64974 34.58282,-22.05683 53.12045,-30.59997c3.27135,-1.55329 5.91958,-3.57258 5.91958,-7.45583c-0.31156,-6.2132 -5.91958,-9.16446 -12.3065,-6.2132c-32.5577,14.91167 -61.84406,34.79388 -88.32639,59.02533c-6.85425,6.52385 -13.39695,13.35836 -19.93964,20.19287c-2.9598,3.57258 -2.64824,8.07715 0.31156,10.71776c2.9598,2.79594 7.16581,2.48527 10.43716,-0.46599z" fill="#FFFFFF" id="svg_4"/>
    <path stroke="null" class="st0" d="m258.971,448.12648c-13.7085,-41.62839 -27.41702,-83.41211 -40.65818,-125.04051c-2.33668,-7.14518 -6.54269,-11.33907 -13.39695,-13.66903c-30.99992,-9.78578 -61.84406,-19.88222 -92.84397,-29.82332c-10.1256,-3.26193 -16.97986,-0.93198 -22.74365,8.07715c-16.6683,25.0081 -30.22103,51.88017 -42.6833,79.21821c-0.93467,2.32995 -1.24623,5.12589 -2.02511,7.76649l0.31156,0c0,1.24264 0.31156,2.6406 0.31156,3.88325c4.20602,43.18169 16.97986,83.41211 38.16572,121.15726c3.89447,7.45583 9.19093,13.35836 16.97986,17.55227c24.14566,13.66903 48.91444,25.94008 74.92945,35.72586c10.1256,3.88325 16.97986,2.01929 23.52255,-7.45583c18.8492,-26.25074 37.69839,-52.34615 57.01492,-78.28623c4.3618,-5.7472 5.29647,-11.9604 3.11557,-19.10556l-0.00002,-0.00001z" fill="#FFFFFF" id="svg_5"/>
    <path stroke="null" class="st0" d="m364.74458,216.68504c5.14069,3.57258 10.1256,7.14518 14.95473,10.71776c30.68836,22.36749 61.5325,44.73499 92.53241,67.25782c5.14069,3.88325 10.74872,5.59187 17.29141,3.57258c32.24614,-10.4071 64.18073,-20.8142 96.42687,-31.2213c7.78892,-2.6406 12.3065,-9.16446 11.68339,-17.24161c-0.62311,-13.04771 -1.55778,-25.94008 -3.27135,-38.98779c-2.33668,-16.30963 -5.60802,-32.15327 -8.10048,-47.99692c-0.62311,-5.12589 -2.33668,-9.47512 -5.60802,-13.35836c-28.9748,-32.77459 -63.55761,-58.40402 -103.28112,-76.88826c-7.16581,-3.57258 -14.33162,-5.12589 -22.74365,-4.19391c-28.35169,3.26193 -56.08025,7.76649 -83.34148,15.22232c-9.81405,2.6406 -14.33162,8.69847 -14.33162,18.79491c0,16.30963 0,32.46394 0,48.77357s0,32.77459 0,50.0162c0,6.36852 2.64824,11.64974 7.78892,15.53298l0,0.00001z" fill="#FFFFFF" id="svg_6"/>
    <path stroke="null" class="st0" d="m40.4138,431.04019c-3.58291,-14.601 -5.60802,-29.20201 -8.10048,-43.80301c-1.24623,-6.2132 -3.27135,-8.69847 -8.10048,-8.69847c-5.14069,0 -8.10048,3.57258 -7.47737,8.69847c2.9598,25.31876 8.72359,50.32686 17.29141,74.40298c6.54269,18.48425 14.64317,36.03652 24.45722,53.27813c3.27135,5.90253 8.41204,6.52385 12.77383,2.32995c3.27135,-3.26193 2.02511,-6.52385 0.31156,-9.78578c-13.86429,-24.23145 -24.61299,-49.55021 -31.1557,-76.42227l0.00001,0z" fill="#FFFFFF" id="svg_7"/>
    <path stroke="null" class="st0" d="m538.59335,73.78161c-15.8894,-11.02842 -32.5577,-20.50354 -50.16067,-28.27003c-5.91958,-2.6406 -11.37183,0.31066 -11.68339,6.2132c0,4.50456 2.64824,6.52385 6.23114,8.07715c30.99992,14.29034 58.88426,32.77459 83.65304,55.91873c6.85425,6.2132 13.08539,13.04771 19.47231,19.41623c2.64824,2.6406 5.91958,3.88325 9.19093,2.01929c2.33668,-1.24264 3.89447,-4.19391 5.91958,-6.52385c-2.02511,-2.95127 -2.9598,-5.12589 -4.82914,-7.14518c-17.29141,-18.79491 -36.60794,-35.4152 -57.79382,-49.70555l0.00001,0z" fill="#FFFFFF" id="svg_8"/>
    <path stroke="null" class="st0" d="m589.84447,279.90428c-31.93459,10.4071 -63.55761,20.50354 -95.4922,30.91063c-6.23114,2.01929 -10.1256,5.90253 -11.99495,11.64974c-14.02006,42.87103 -27.72856,85.4314 -41.74863,127.99177c-1.55778,5.90253 -0.93467,11.33907 2.64824,16.30963c19.93964,27.33805 39.72351,54.21011 59.66316,81.54816c5.14069,6.83451 12.77383,8.69847 20.56275,5.90253c6.23114,-2.32995 12.77383,-4.50456 18.53764,-7.45583c19.47231,-9.78578 39.10039,-19.88222 58.5727,-29.20201c7.78892,-3.57258 12.77383,-9.47512 16.35674,-16.62029c4.20602,-8.69847 9.19093,-17.55227 13.39695,-26.5614c14.02006,-31.2213 22.4321,-63.99589 25.39189,-98.32378c0,-1.24264 0.31156,-2.95127 -0.31156,-4.19391c-1.24623,-3.57258 -2.9598,-6.83451 -4.20602,-10.09644c-11.37183,-25.94008 -24.76878,-50.63752 -40.34662,-74.40298c-5.45225,-7.76649 -12.61806,-10.56243 -21.03009,-7.45583l0,0.00001z" fill="#FFFFFF" id="svg_9"/>
    <path stroke="null" class="st0" d="m413.65902,663.10295c-13.7085,2.01929 -27.72856,4.19391 -41.28129,5.59187c-28.9748,2.32995 -57.63803,0.31066 -85.98972,-5.59187c-5.91958,-1.24264 -9.50249,0.93198 -10.43716,6.2132c-0.62311,4.19391 2.02511,7.45583 7.47737,8.38781c21.80898,4.19391 43.92953,6.52385 66.36163,6.83451c8.41204,-0.31066 17.29141,-0.31066 25.70345,-1.24264c14.02006,-1.55329 28.04013,-3.57258 42.06019,-5.90253c6.23114,-0.93198 8.41204,-6.52385 5.60802,-11.33907c-2.33668,-3.57258 -5.60802,-3.57258 -9.50249,-2.95127l-0.00001,0z" fill="#FFFFFF" id="svg_10"/>
    <path stroke="null" class="st0" d="m433.13133,476.08585c-4.20602,-6.2132 -10.1256,-9.16446 -17.60297,-9.16446c-21.80898,0 -43.61797,0 -65.42696,0c-22.12054,0 -44.24109,0 -66.36163,0c-6.85425,0 -11.99495,2.32995 -15.8894,7.76649c-19.47231,27.02739 -39.41195,53.89944 -58.88426,80.92684c-5.14069,7.14518 -5.14069,15.22232 0.62311,21.74618c13.08539,14.91167 26.32656,29.51267 40.03506,44.11367c7.16581,7.45583 14.95473,14.601 22.74365,21.74618c1.24623,1.55329 3.27135,3.26193 5.14069,3.57258c43.30642,10.71776 86.92439,11.33907 130.85391,3.26193c9.50249,-2.01929 18.8492,-3.26193 24.76878,-12.27105c0.31156,-0.31066 0.93467,-0.62132 1.24623,-0.93198c19.93964,-17.86293 38.16572,-36.9685 54.67824,-57.47204c7.47737,-9.78578 7.78892,-15.84365 0.31156,-25.62943c-18.8492,-25.94008 -37.69839,-51.72483 -56.23602,-77.66491l0.00001,-0.00001z" fill="#FFFFFF" id="svg_11"/>
    <path stroke="null" class="st0" d="m628.47753,506.99648c-1.55778,3.57258 -2.9598,6.83451 0,10.09644c3.89447,4.50456 9.81405,3.88325 12.77383,-1.55329c5.60802,-10.71776 11.37183,-21.43552 16.35674,-32.46394c13.7085,-30.59997 21.80898,-62.59791 25.70345,-95.8385c0.62311,-5.12589 -2.33668,-8.69847 -7.47737,-8.69847c-4.82914,0 -7.16581,2.32995 -8.10048,8.69847c-2.64824,24.69745 -7.78892,48.77357 -16.97986,71.76238c-6.54269,16.46496 -14.79896,31.99794 -22.27632,47.99692l0.00001,-0.00001z" fill="#FFFFFF" id="svg_12"/>
   </g>
   <path stroke="null" d="m346.83005,2.01923c-190.51707,1.55329 -346.13976,156.57246 -345.8282,347.78348c-0.62311,192.91964 157.95937,350.11342 352.05934,348.40479c190.51707,-1.55329 346.45132,-156.88312 346.13976,-348.40479c-0.31156,-192.60898 -157.95937,-349.80276 -352.3709,-347.78348zm10.1256,100.34307c0,-10.09644 4.51758,-16.30963 14.33162,-18.79491c27.41702,-7.45583 54.98981,-11.9604 83.34148,-15.22232c8.41204,-0.93198 15.57784,0.62132 22.74365,4.19391c39.72351,18.48425 74.30633,44.11367 103.28112,76.88826c3.27135,3.88325 4.82914,8.07715 5.60802,13.35836c2.64824,15.84365 5.91958,31.84261 8.10048,47.99692c1.55778,13.04771 2.64824,25.94008 3.27135,38.98779c0.62311,8.07715 -3.89447,14.601 -11.68339,17.24161c-32.24614,10.4071 -64.18073,20.8142 -96.42687,31.2213c-6.54269,2.01929 -11.99495,0.31066 -17.29141,-3.57258c-30.99992,-22.36749 -61.84406,-44.73499 -92.53241,-67.25782c-4.82914,-3.57258 -9.81405,-7.14518 -14.95473,-10.71776c-5.14069,-3.88325 -7.78892,-9.16446 -7.78892,-15.53298c0,-17.24161 0,-33.70657 0,-50.0162s0,-32.61926 0,-48.77357l0,-0.00001zm-112.31627,-34.48322c18.22608,2.95127 36.76372,5.59187 55.30135,8.38781c10.1256,1.55329 20.2512,4.50456 29.90947,7.14518c8.41204,2.32995 13.08539,8.38781 13.39695,17.55227c0,16.62029 0,33.39592 0,50.0162c0,16.30963 0,32.46394 0,48.77357c0,7.14518 -2.9598,12.27105 -8.41204,16.62029c-35.51749,25.62943 -71.03498,51.25884 -106.55247,77.35425c-6.23114,4.50456 -12.77383,5.59187 -19.93964,3.26193c-30.99992,-10.09644 -61.84406,-20.19287 -92.84397,-30.13399c-9.50249,-2.95127 -13.39695,-9.16446 -13.08539,-18.79491c1.24623,-28.27003 5.60802,-56.2294 11.06027,-84.03343c1.55778,-7.45583 4.82914,-13.66903 9.81405,-19.10556c29.5979,-32.15327 64.18073,-56.85071 103.90424,-74.71364c5.60802,-2.6406 11.21605,-3.26193 17.44719,-2.32995l-0.00001,0zm-142.69308,57.16137c6.54269,-6.83451 13.08539,-13.66903 19.93964,-20.19287c26.32656,-24.38678 55.61291,-44.11367 88.32639,-59.02533c6.54269,-2.95127 11.99495,0 12.3065,6.2132c0,3.88325 -2.64824,5.90253 -5.91958,7.45583c-18.53764,8.38781 -36.45217,18.79491 -53.12045,30.59997c-17.91453,12.73705 -34.27127,27.33805 -49.226,43.18169c-0.62311,0.62132 -0.93467,1.24264 -1.55778,2.01929c-3.27135,2.95127 -7.47737,3.26193 -10.43716,0.62132c-2.9598,-2.6406 -3.27135,-7.3005 -0.31156,-10.87309l0,0.00001zm-30.99992,392.05247c-4.20602,4.19391 -9.50249,3.57258 -12.77383,-2.32995c-9.81405,-17.24161 -17.91453,-34.79388 -24.45722,-53.27813c-8.41204,-24.07612 -14.33162,-49.08422 -17.29141,-74.40298c-0.62311,-5.12589 2.33668,-8.69847 7.47737,-8.69847c4.82914,0 6.85425,2.6406 8.10048,8.69847c2.64824,14.601 4.51758,29.20201 8.10048,43.80301c6.54269,27.02739 17.29141,52.34615 30.99992,76.26694c1.86934,3.41725 3.11557,6.67918 -0.15577,9.94111l-0.00002,0zm104.21579,36.03652c-26.015,-9.78578 -50.78378,-22.05683 -74.92945,-35.72586c-7.78892,-4.19391 -13.08539,-10.09644 -16.97986,-17.55227c-21.18587,-37.58981 -33.80393,-77.97557 -38.16572,-121.15726c0,-1.24264 -0.31156,-2.6406 -0.31156,-3.88325l-0.31156,0c0.62311,-2.6406 0.93467,-5.59187 2.02511,-7.76649c12.3065,-27.33805 26.015,-54.21011 42.6833,-79.21821c5.91958,-9.16446 12.77383,-11.33907 22.74365,-8.07715c30.99992,10.09644 61.84406,20.19287 92.84397,29.82332c6.85425,2.32995 11.06027,6.52385 13.39695,13.66903c13.39695,41.62839 27.10545,83.41211 40.65818,125.04051c2.33668,7.14518 1.24623,13.35836 -3.27135,19.10556c-19.16075,25.94008 -38.16572,51.88017 -57.01492,78.28623c-6.38692,9.31979 -13.24117,11.33907 -23.36677,7.45583l0.00002,0.00001zm242.3913,124.26386c-14.02006,2.32995 -28.04013,4.19391 -42.06019,5.90253c-8.41204,0.93198 -17.29141,0.93198 -25.70345,1.24264c-22.4321,-0.31066 -44.55264,-2.6406 -66.36163,-6.83451c-5.60802,-0.93198 -8.10048,-4.19391 -7.47737,-8.38781c0.93467,-5.12589 4.51758,-7.45583 10.43716,-6.2132c28.35169,5.90253 57.01492,7.76649 85.98972,5.59187c13.7085,-1.24264 27.72856,-3.57258 41.28129,-5.59187c3.89447,-0.62132 7.16581,-0.62132 9.50249,2.95127c2.80401,4.81522 0.46734,10.4071 -5.60802,11.33907l0.00001,0zm71.65809,-98.01312c-16.6683,20.50354 -34.89438,39.6091 -54.67824,57.47204c-0.31156,0.31066 -0.93467,0.62132 -1.24623,0.93198c-5.91958,9.16446 -15.26629,10.4071 -24.76878,12.27105c-43.92953,8.07715 -87.5475,7.45583 -130.85391,-3.26193c-2.02511,-0.31066 -3.89447,-2.01929 -5.14069,-3.57258c-7.78892,-7.14518 -15.57784,-14.29034 -22.74365,-21.74618c-13.7085,-14.601 -27.10545,-29.20201 -40.03506,-44.11367c-5.91958,-6.52385 -5.91958,-14.601 -0.62311,-21.74618c19.47231,-27.02739 39.41195,-53.89944 58.88426,-80.92684c3.89447,-5.59187 9.19093,-7.76649 15.8894,-7.76649c22.12054,0 44.24109,0 66.36163,0c21.80898,0 43.61797,0 65.42696,0c7.47737,0 13.39695,2.95127 17.60297,9.16446c18.53764,25.94008 37.38684,51.5695 56.39181,77.66491c7.32159,9.63045 7.01003,15.84365 -0.46734,25.62943l-0.00002,0.00001zm186.6226,-200.99679c5.14069,0 8.10048,3.57258 7.47737,8.69847c-3.89447,33.08525 -11.99495,65.23853 -25.70345,95.8385c-4.82914,11.02842 -10.74872,21.74618 -16.35674,32.46394c-2.9598,5.59187 -8.72359,6.2132 -12.77383,1.55329c-2.9598,-3.26193 -1.55778,-6.52385 0,-10.09644c7.47737,-15.84365 15.57784,-31.53196 22.12054,-47.99692c9.19093,-22.98881 14.33162,-47.06493 16.97986,-71.76238c1.09044,-6.36852 3.27135,-8.69847 8.25626,-8.69847l-0.00001,0.00001zm-65.27118,-91.33394c15.57784,23.76547 28.9748,48.30757 40.34662,74.40298c1.24623,3.26193 2.9598,6.52385 4.20602,10.09644c0.62311,1.24264 0.31156,2.95127 0.31156,4.19391c-2.9598,34.48322 -11.37183,67.25782 -25.39189,98.32378c-4.20602,9.16446 -9.19093,17.86293 -13.39695,26.5614c-3.58291,7.14518 -8.41204,13.04771 -16.35674,16.62029c-19.47231,9.47512 -39.10039,19.41623 -58.5727,29.20201c-5.91958,2.95127 -12.3065,5.12589 -18.53764,7.45583c-7.78892,2.95127 -15.26629,0.93198 -20.56275,-5.90253c-19.93964,-27.33805 -39.72351,-54.21011 -59.66316,-81.54816c-3.58291,-4.81522 -4.20602,-10.4071 -2.64824,-16.30963c14.02006,-42.56037 27.72856,-85.12074 41.74863,-127.99177c2.02511,-5.90253 5.91958,-9.78578 11.99495,-11.64974c31.93459,-10.4071 63.55761,-20.50354 95.4922,-30.91063c8.72359,-2.79594 15.8894,0 21.03009,7.45583l0,-0.00001zm-9.34671,-156.41713c-2.02511,2.32995 -3.58291,5.12589 -5.91958,6.52385c-3.27135,2.01929 -6.54269,0.62132 -9.19093,-2.01929c-6.54269,-6.52385 -12.77383,-13.35836 -19.47231,-19.41623c-24.76878,-22.98881 -52.8089,-41.62839 -83.65304,-55.91873c-3.58291,-1.55329 -6.23114,-3.57258 -6.23114,-8.07715c0.31156,-5.90253 5.91958,-8.69847 11.68339,-6.2132c17.60297,7.76649 34.27127,17.24161 50.16067,28.27003c21.18587,14.29034 40.34662,30.91063 57.63803,49.70555c2.02511,1.86396 2.9598,4.19391 4.98491,7.14518z" id="svg_13"/>
  </g>
 </g>

</svg>