<?xml version="1.0" encoding="UTF-8"?>
<!DOCTYPE svg PUBLIC "-//W3C//DTD SVG 1.1//EN" "http://www.w3.org/Graphics/SVG/1.1/DTD/svg11.dtd">
<!-- Creator: CorelDRAW 2021.5 -->
<svg xmlns="http://www.w3.org/2000/svg" xml:space="preserve" width="100px" height="100px" version="1.1" style="shape-rendering:geometricPrecision; text-rendering:geometricPrecision; image-rendering:optimizeQuality; fill-rule:evenodd; clip-rule:evenodd"
viewBox="0 0 100 100"
 xmlns:xlink="http://www.w3.org/1999/xlink"
 xmlns:xodm="http://www.corel.com/coreldraw/odm/2003">
 <defs>
  <style type="text/css">
   <![CDATA[
    .str0 {stroke:#EBECEC;stroke-width:2.08;stroke-miterlimit:22.9256}
    .fil0 {fill:none}
    .fil3 {fill:#EBECEC;fill-rule:nonzero}
    .fil2 {fill:#EBECEC;fill-rule:nonzero}
    .fil1 {fill:white;fill-rule:nonzero}
   ]]>
  </style>
 </defs>
 <g id="Layer_x0020_1">
  <metadata id="CorelCorpID_0Corel-Layer"/>
  <path class="fil0 str0" d="M89.52 10.77l0 42.82c0,10.32 -5.03,19.98 -13.49,25.9l-23.76 16.64c-1.37,0.95 -3.18,0.95 -4.54,0l-23.77 -16.64c-8.45,-5.92 -13.48,-15.58 -13.48,-25.9l0 -42.82c25.37,-10.15 53.67,-10.15 79.04,0z"/>
  <g id="_1051322720">
   <path id="svg_3" class="fil1" d="M37.41 19.91c-0.27,0.31 -0.45,0.65 -0.54,1.06 -0.31,1.56 -0.55,3.11 -0.61,4.67 -0.02,0.55 0.19,0.89 0.72,1.05 1.72,0.56 3.44,1.13 5.16,1.68 0.39,0.13 0.76,0.07 1.11,-0.18 1.97,-1.45 3.94,-2.87 5.91,-4.31 0.31,-0.23 0.47,-0.52 0.47,-0.92 0,-0.91 0,-1.81 0,-2.71 0,-0.93 0,-1.86 0,-2.78 -0.02,-0.51 -0.27,-0.85 -0.75,-0.98 -0.54,-0.15 -1.1,-0.31 -1.66,-0.4 -1.03,-0.16 -2.06,-0.31 -3.07,-0.46 -0.34,-0.05 -0.65,-0.02 -0.96,0.11 -2.21,1.01 -4.13,2.38 -5.78,4.17l0 0z"/>
   <path id="svg_4" class="fil1" d="M36.82 19.38c0.03,-0.03 0.05,-0.07 0.08,-0.11 0.83,-0.88 1.74,-1.7 2.73,-2.4 0.93,-0.65 1.93,-1.23 2.95,-1.7 0.19,-0.09 0.33,-0.2 0.33,-0.42 -0.01,-0.34 -0.33,-0.5 -0.68,-0.34 -1.81,0.83 -3.43,1.93 -4.9,3.28 -0.39,0.36 -0.75,0.74 -1.11,1.12 -0.17,0.2 -0.15,0.45 0.02,0.6 0.16,0.16 0.4,0.14 0.58,-0.03l0 0 0 0z"/>
   <path id="svg_5" class="fil1" d="M44.94 36.79c-0.76,-2.32 -1.52,-4.64 -2.26,-6.95 -0.13,-0.4 -0.36,-0.64 -0.74,-0.76 -1.73,-0.55 -3.44,-1.11 -5.16,-1.66 -0.56,-0.19 -0.94,-0.05 -1.26,0.45 -0.93,1.39 -1.68,2.88 -2.37,4.4 -0.05,0.13 -0.07,0.28 -0.11,0.43l0.01 0c0,0.07 0.02,0.15 0.02,0.22 0.23,2.4 0.94,4.64 2.12,6.74 0.22,0.41 0.51,0.74 0.94,0.97 1.34,0.76 2.72,1.45 4.16,1.99 0.57,0.22 0.95,0.11 1.31,-0.42 1.05,-1.46 2.09,-2.91 3.17,-4.35 0.24,-0.32 0.29,-0.66 0.17,-1.06l0 0 0 0z"/>
   <path id="svg_6" class="fil1" d="M50.81 23.92c0.29,0.19 0.57,0.4 0.84,0.6 1.7,1.24 3.41,2.48 5.13,3.73 0.29,0.22 0.6,0.32 0.96,0.21 1.79,-0.58 3.57,-1.17 5.36,-1.74 0.43,-0.15 0.68,-0.51 0.64,-0.96 -0.03,-0.73 -0.08,-1.44 -0.18,-2.17 -0.12,-0.91 -0.31,-1.79 -0.44,-2.67 -0.04,-0.28 -0.14,-0.52 -0.32,-0.74 -1.61,-1.83 -3.53,-3.25 -5.73,-4.28 -0.4,-0.2 -0.8,-0.28 -1.26,-0.23 -1.58,0.18 -3.12,0.43 -4.63,0.85 -0.55,0.14 -0.8,0.48 -0.8,1.04 0,0.91 0,1.81 0,2.71 0,0.91 0,1.83 0,2.78 0,0.36 0.15,0.65 0.43,0.87l0 0 0 0z"/>
   <path id="svg_7" class="fil1" d="M32.8 35.84c-0.2,-0.81 -0.31,-1.63 -0.45,-2.44 -0.07,-0.34 -0.18,-0.48 -0.45,-0.48 -0.29,0 -0.45,0.2 -0.41,0.48 0.16,1.41 0.48,2.8 0.96,4.14 0.36,1.03 0.81,2.01 1.35,2.96 0.19,0.33 0.47,0.37 0.71,0.13 0.19,-0.18 0.12,-0.36 0.02,-0.54 -0.77,-1.35 -1.37,-2.76 -1.73,-4.25l0 0 0 0z"/>
   <path id="svg_8" class="fil1" d="M60.47 15.97c-0.89,-0.61 -1.81,-1.14 -2.79,-1.57 -0.33,-0.15 -0.63,0.02 -0.65,0.35 0,0.25 0.15,0.36 0.35,0.45 1.72,0.79 3.27,1.82 4.65,3.11 0.38,0.34 0.72,0.72 1.08,1.07 0.14,0.15 0.33,0.22 0.51,0.12 0.12,-0.07 0.21,-0.24 0.33,-0.36 -0.12,-0.17 -0.17,-0.29 -0.27,-0.41 -0.96,-1.04 -2.04,-1.96 -3.21,-2.76l0 0z"/>
   <path id="svg_9" class="fil1" d="M63.32 27.43c-1.78,0.58 -3.54,1.15 -5.31,1.72 -0.35,0.11 -0.56,0.33 -0.66,0.65 -0.78,2.39 -1.54,4.75 -2.32,7.12 -0.09,0.33 -0.05,0.63 0.14,0.9 1.11,1.53 2.21,3.02 3.32,4.54 0.28,0.38 0.71,0.48 1.14,0.33 0.34,-0.13 0.71,-0.25 1.03,-0.42 1.08,-0.54 2.17,-1.1 3.25,-1.62 0.44,-0.2 0.71,-0.53 0.91,-0.92 0.23,-0.49 0.51,-0.98 0.74,-1.48 0.78,-1.74 1.25,-3.56 1.41,-5.47 0,-0.07 0.02,-0.16 -0.01,-0.23 -0.07,-0.2 -0.17,-0.38 -0.24,-0.56 -0.63,-1.45 -1.37,-2.82 -2.24,-4.14 -0.3,-0.43 -0.7,-0.59 -1.16,-0.42l0 0 0 0z"/>
   <path id="svg_10" class="fil1" d="M53.53 48.74c-0.76,0.11 -1.54,0.23 -2.29,0.31 -1.61,0.13 -3.2,0.02 -4.78,-0.31 -0.33,-0.07 -0.53,0.05 -0.58,0.35 -0.03,0.23 0.12,0.41 0.42,0.46 1.21,0.24 2.44,0.37 3.68,0.39 0.47,-0.02 0.96,-0.02 1.43,-0.07 0.78,-0.09 1.56,-0.2 2.34,-0.33 0.34,-0.05 0.46,-0.37 0.31,-0.63 -0.13,-0.2 -0.31,-0.2 -0.53,-0.17l0 0z"/>
   <path id="svg_11" class="fil1" d="M54.61 38.34c-0.23,-0.34 -0.56,-0.51 -0.97,-0.51 -1.22,0 -2.43,0 -3.64,0 -1.23,0 -2.46,0 -3.68,0 -0.39,0 -0.67,0.13 -0.89,0.43 -1.08,1.51 -2.18,3 -3.27,4.5 -0.28,0.4 -0.28,0.85 0.04,1.21 0.73,0.83 1.46,1.65 2.22,2.46 0.4,0.41 0.83,0.81 1.26,1.21 0.07,0.09 0.18,0.18 0.29,0.2 2.4,0.59 4.83,0.63 7.27,0.18 0.52,-0.12 1.04,-0.18 1.37,-0.68 0.02,-0.02 0.05,-0.04 0.07,-0.06 1.11,-0.99 2.12,-2.05 3.04,-3.19 0.41,-0.55 0.43,-0.88 0.02,-1.43 -1.05,-1.44 -2.1,-2.87 -3.13,-4.32l0 0z"/>
   <path id="svg_12" class="fil1" d="M65.46 40.06c-0.09,0.2 -0.17,0.38 0,0.56 0.21,0.25 0.54,0.22 0.71,-0.08 0.31,-0.6 0.63,-1.19 0.91,-1.81 0.76,-1.7 1.21,-3.48 1.43,-5.33 0.03,-0.28 -0.13,-0.48 -0.42,-0.48 -0.27,0 -0.4,0.13 -0.45,0.48 -0.15,1.38 -0.43,2.71 -0.94,3.99 -0.37,0.92 -0.82,1.78 -1.24,2.67l0 0 0 0z"/>
   <path id="svg_13" class="fil2" d="M49.82 11.98c-10.58,0.09 -19.22,8.71 -19.21,19.34 -0.03,10.73 8.78,19.47 19.55,19.38 10.59,-0.09 19.25,-8.73 19.23,-19.38 -0.02,-10.71 -8.78,-19.45 -19.57,-19.34l0 0zm0.56 5.58c0,-0.56 0.25,-0.9 0.8,-1.04 1.52,-0.42 3.05,-0.67 4.63,-0.85 0.46,-0.05 0.86,0.03 1.26,0.23 2.2,1.03 4.12,2.45 5.73,4.28 0.18,0.22 0.27,0.45 0.32,0.74 0.14,0.88 0.32,1.77 0.44,2.67 0.09,0.73 0.15,1.44 0.18,2.17 0.04,0.45 -0.21,0.81 -0.64,0.96 -1.79,0.57 -3.57,1.16 -5.36,1.74 -0.36,0.11 -0.66,0.01 -0.96,-0.2 -1.72,-1.25 -3.43,-2.49 -5.13,-3.74 -0.27,-0.2 -0.55,-0.4 -0.84,-0.6 -0.28,-0.22 -0.43,-0.51 -0.43,-0.87 0,-0.95 0,-1.87 0,-2.78 0,-0.9 0,-1.81 0,-2.71l0 0 0 0zm-6.24 -1.92c1.02,0.17 2.04,0.32 3.07,0.47 0.57,0.09 1.13,0.25 1.66,0.4 0.47,0.13 0.73,0.46 0.75,0.98 0,0.92 0,1.85 0,2.77 0,0.91 0,1.81 0,2.72 0,0.39 -0.16,0.68 -0.47,0.92 -1.97,1.43 -3.94,2.85 -5.92,4.3 -0.34,0.26 -0.71,0.32 -1.1,0.18 -1.72,-0.56 -3.44,-1.12 -5.16,-1.67 -0.53,-0.16 -0.74,-0.51 -0.72,-1.05 0.07,-1.57 0.31,-3.12 0.61,-4.67 0.08,-0.41 0.27,-0.76 0.54,-1.06 1.65,-1.79 3.57,-3.16 5.77,-4.16 0.32,-0.14 0.63,-0.18 0.97,-0.13l0 0 0 0zm-7.92 3.18c0.36,-0.38 0.73,-0.76 1.11,-1.12 1.46,-1.36 3.09,-2.45 4.9,-3.28 0.36,-0.17 0.67,0 0.68,0.34 0,0.22 -0.14,0.33 -0.33,0.42 -1.02,0.46 -2.02,1.04 -2.95,1.7 -0.99,0.71 -1.9,1.52 -2.73,2.4 -0.03,0.03 -0.05,0.07 -0.08,0.11 -0.18,0.17 -0.42,0.19 -0.58,0.04 -0.17,-0.15 -0.19,-0.41 -0.02,-0.61l0 0 0 0zm-1.72 21.8c-0.23,0.23 -0.53,0.2 -0.71,-0.13 -0.55,-0.96 -1,-1.93 -1.36,-2.96 -0.47,-1.34 -0.8,-2.73 -0.96,-4.13 -0.03,-0.29 0.13,-0.49 0.41,-0.49 0.27,0 0.38,0.15 0.46,0.49 0.14,0.8 0.24,1.62 0.44,2.43 0.37,1.5 0.96,2.91 1.72,4.24 0.11,0.19 0.18,0.37 0,0.55l0 0zm5.79 2.01c-1.45,-0.55 -2.83,-1.23 -4.17,-1.99 -0.43,-0.23 -0.72,-0.56 -0.94,-0.97 -1.17,-2.09 -1.88,-4.34 -2.12,-6.74 0,-0.07 -0.02,-0.15 -0.02,-0.22l-0.01 0c0.03,-0.15 0.05,-0.31 0.11,-0.43 0.68,-1.52 1.45,-3.02 2.37,-4.4 0.33,-0.51 0.71,-0.63 1.26,-0.45 1.72,0.56 3.44,1.12 5.16,1.65 0.38,0.13 0.61,0.37 0.74,0.76 0.75,2.32 1.51,4.64 2.26,6.96 0.13,0.4 0.07,0.74 -0.18,1.06 -1.06,1.44 -2.12,2.88 -3.17,4.35 -0.35,0.52 -0.73,0.63 -1.29,0.42l0 0 0 0zm13.46 6.91c-0.78,0.13 -1.56,0.23 -2.34,0.33 -0.47,0.05 -0.96,0.05 -1.43,0.07 -1.24,-0.02 -2.47,-0.15 -3.68,-0.39 -0.32,-0.05 -0.45,-0.23 -0.42,-0.46 0.05,-0.29 0.25,-0.42 0.58,-0.35 1.58,0.33 3.17,0.43 4.78,0.32 0.76,-0.07 1.54,-0.21 2.29,-0.32 0.22,-0.03 0.4,-0.03 0.53,0.17 0.15,0.26 0.02,0.58 -0.31,0.63l0 0zm3.98 -5.45c-0.93,1.14 -1.94,2.2 -3.04,3.19 -0.02,0.02 -0.05,0.04 -0.07,0.06 -0.33,0.51 -0.85,0.57 -1.38,0.68 -2.44,0.45 -4.86,0.41 -7.26,-0.18 -0.12,-0.02 -0.22,-0.11 -0.29,-0.2 -0.43,-0.4 -0.86,-0.8 -1.26,-1.21 -0.76,-0.81 -1.5,-1.63 -2.23,-2.46 -0.32,-0.36 -0.32,-0.81 -0.03,-1.21 1.08,-1.5 2.19,-2.99 3.27,-4.5 0.22,-0.3 0.51,-0.43 0.88,-0.43 1.23,0 2.46,0 3.69,0 1.21,0 2.42,0 3.63,0 0.42,0 0.75,0.17 0.98,0.51 1.03,1.45 2.07,2.87 3.13,4.32 0.41,0.54 0.39,0.88 -0.02,1.43l0 0 0 0zm10.36 -11.18c0.29,0 0.45,0.2 0.42,0.49 -0.22,1.83 -0.67,3.62 -1.43,5.33 -0.27,0.61 -0.6,1.2 -0.91,1.8 -0.17,0.31 -0.48,0.34 -0.71,0.08 -0.17,-0.18 -0.09,-0.36 0,-0.56 0.41,-0.88 0.86,-1.75 1.23,-2.67 0.51,-1.27 0.79,-2.61 0.94,-3.98 0.06,-0.36 0.18,-0.49 0.46,-0.49l0 0 0 0zm-3.62 -5.08c0.86,1.32 1.6,2.69 2.24,4.14 0.07,0.18 0.16,0.36 0.23,0.56 0.03,0.07 0.02,0.17 0.02,0.23 -0.17,1.92 -0.64,3.74 -1.41,5.47 -0.24,0.51 -0.52,1 -0.75,1.48 -0.2,0.4 -0.47,0.72 -0.91,0.92 -1.08,0.53 -2.17,1.08 -3.25,1.63 -0.33,0.16 -0.68,0.28 -1.03,0.41 -0.43,0.17 -0.85,0.05 -1.14,-0.33 -1.11,-1.52 -2.2,-3.01 -3.31,-4.53 -0.2,-0.27 -0.24,-0.58 -0.15,-0.91 0.78,-2.37 1.54,-4.73 2.32,-7.12 0.11,-0.32 0.32,-0.54 0.66,-0.64 1.78,-0.58 3.53,-1.15 5.31,-1.72 0.48,-0.16 0.88,0 1.17,0.41l0 0 0 0zm-0.53 -8.69c-0.11,0.12 -0.2,0.28 -0.32,0.36 -0.18,0.11 -0.37,0.03 -0.51,-0.12 -0.37,-0.36 -0.71,-0.74 -1.08,-1.07 -1.38,-1.29 -2.94,-2.32 -4.65,-3.11 -0.2,-0.09 -0.35,-0.2 -0.35,-0.45 0.02,-0.33 0.33,-0.49 0.65,-0.35 0.98,0.43 1.9,0.96 2.79,1.57 1.17,0.8 2.24,1.72 3.2,2.76 0.11,0.11 0.16,0.24 0.27,0.41l0 0z"/>
  </g>
  <g id="_1236933136">
   <g>
    <path class="fil3" d="M69.79 60.25l0 0c-0.73,-0.2 -1.48,-0.25 -2.22,-0.22 -1.38,0.06 -3.82,0.71 -3.82,0.71 -0.22,0.06 -0.36,0.29 -0.3,0.52 0.03,0.08 0.08,0.16 0.15,0.22 0,0 0.59,0.48 1.36,1.02 0.77,0.54 1.7,1.15 2.48,1.44 0.82,0.29 1.79,0.56 2.75,0.33 0.68,-0.16 1.36,-0.65 1.93,-1.1 0.57,-0.45 1,-0.87 1,-0.87 0.17,-0.16 0.17,-0.43 0.01,-0.6 -0.05,-0.05 -0.13,-0.09 -0.2,-0.11 0,0 -0.57,-0.15 -0.77,-0.22 -0.71,-0.27 -1.42,-0.86 -2.36,-1.12l-0.01 0z"/>
    <path class="fil3" d="M69.57 61.07c0.71,0.2 1.4,0.76 2.29,1.1l0.1 0.02c-0.15,0.13 -0.16,0.15 -0.36,0.31 -0.53,0.42 -1.22,0.86 -1.61,0.95 -0.68,0.16 -1.49,-0.03 -2.26,-0.31 -0.6,-0.22 -1.53,-0.81 -2.28,-1.33 -0.32,-0.22 -0.34,-0.25 -0.56,-0.42 0.76,-0.18 1.86,-0.48 2.72,-0.51 0.66,-0.03 1.34,0.02 1.96,0.19z"/>
    <path class="fil3" d="M64.52 64.18c-0.22,-0.07 -0.45,-0.11 -0.7,-0.13 -0.68,-0.04 -1.29,0.2 -1.81,0.38 -1.33,0.44 -3.62,1.65 -3.62,1.65 -0.1,0.06 -0.18,0.15 -0.21,0.26 -0.05,0.17 0.01,0.36 0.16,0.46 0,0 0.48,0.34 1.09,0.7 0.61,0.37 1.35,0.77 1.99,0.91 0.92,0.21 1.9,0.14 2.79,-0.12 0.93,-0.28 1.79,-0.8 2.49,-1.46 0.21,-0.21 0.37,-0.47 0.5,-0.7 0.14,-0.23 0.23,-0.43 0.23,-0.43 0.11,-0.21 0.02,-0.46 -0.19,-0.57 -0.03,-0.01 -0.06,-0.02 -0.09,-0.03 0,0 -0.62,-0.15 -0.89,-0.23 -0.52,-0.16 -1.08,-0.51 -1.74,-0.7l0 0.01zm-0.24 0.82c0.51,0.16 1.07,0.48 1.73,0.68 0.14,0.04 0.23,0.06 0.4,0.11 -0.11,0.17 -0.24,0.37 -0.3,0.42 -0.6,0.58 -1.36,1.03 -2.14,1.26 -0.76,0.23 -1.61,0.28 -2.36,0.11 -0.44,-0.09 -1.17,-0.46 -1.75,-0.81 -0.22,-0.13 -0.23,-0.14 -0.39,-0.25 0.62,-0.32 1.88,-0.98 2.8,-1.29 0.55,-0.18 1.06,-0.36 1.5,-0.33 0.16,0.01 0.33,0.05 0.51,0.1l0 0z"/>
    <path class="fil3" d="M62.55 54.65c-0.09,-0.01 -0.17,0 -0.25,0.03 0,0 -0.2,0.08 -0.44,0.2 -0.24,0.12 -0.51,0.26 -0.73,0.46 -0.71,0.64 -1.29,1.47 -1.63,2.38 -0.32,0.87 -0.45,1.84 -0.31,2.77 0.1,0.66 0.45,1.42 0.77,2.05 0.32,0.64 0.63,1.14 0.63,1.14 0.12,0.2 0.38,0.26 0.58,0.14 0.05,-0.04 0.1,-0.09 0.14,-0.14 0,0 1.36,-2.21 1.89,-3.5 0.21,-0.51 0.49,-1.1 0.5,-1.79 0.01,-0.98 -0.49,-1.77 -0.65,-2.48 -0.06,-0.28 -0.17,-0.91 -0.17,-0.91 -0.03,-0.16 -0.14,-0.29 -0.29,-0.33 -0.01,-0.01 -0.03,-0.01 -0.04,-0.02l0 0zm-0.4 1.05c0.03,0.17 0.04,0.25 0.07,0.4 0.21,0.89 0.64,1.62 0.63,2.29 0,0.44 -0.21,0.94 -0.43,1.47 -0.37,0.9 -1.11,2.11 -1.48,2.71 -0.09,-0.17 -0.1,-0.18 -0.22,-0.41 -0.31,-0.61 -0.63,-1.36 -0.69,-1.8 -0.12,-0.76 -0.01,-1.6 0.27,-2.35 0.28,-0.76 0.79,-1.48 1.4,-2.04 0.06,-0.06 0.26,-0.18 0.45,-0.27l0 0z"/>
    <path class="fil3" d="M70.62 51.23c-0.01,0 -0.02,-0.01 -0.04,-0.01 -0.06,-0.01 -0.12,-0.01 -0.19,0 0,0 -0.58,0.15 -1.26,0.39 -0.68,0.25 -1.46,0.57 -1.96,1.06 -0.81,0.81 -1.15,1.94 -1.34,2.96 -0.14,0.75 -0.09,1.76 -0.01,2.62 0.07,0.86 0.18,1.54 0.18,1.54 0.04,0.24 0.26,0.39 0.49,0.36 0.08,-0.02 0.16,-0.06 0.22,-0.11 0,0 1.85,-1.72 2.62,-2.87 0.5,-0.74 0.93,-1.57 1.17,-2.46 0.22,-0.82 0.07,-1.58 0.18,-2.18 0.04,-0.2 0.22,-0.76 0.22,-0.76 0.07,-0.22 -0.05,-0.46 -0.27,-0.54 0,0 0,0 -0.01,0l0 0z"/>
    <path class="fil3" d="M69.88 52.27c-0.02,0.05 -0.02,0.06 -0.03,0.11 -0.15,0.81 -0.02,1.54 -0.17,2.12 -0.21,0.77 -0.59,1.51 -1.05,2.2 -0.48,0.72 -1.35,1.53 -1.9,2.07 -0.03,-0.25 -0.04,-0.27 -0.07,-0.59 -0.07,-0.83 -0.11,-1.83 0,-2.39 0.18,-0.95 0.5,-1.91 1.11,-2.51 0.28,-0.29 1.01,-0.64 1.65,-0.87 0.25,-0.09 0.26,-0.08 0.46,-0.14l0 0z"/>
    <path class="fil3" d="M77.47 56.68c-0.32,-0.09 -0.63,-0.16 -0.89,-0.22 -0.92,-0.19 -2,-0.69 -3.16,-0.4 -0.59,0.14 -1.14,0.57 -1.6,0.95 -0.46,0.38 -0.81,0.73 -0.81,0.73 -0.16,0.16 -0.16,0.42 -0.01,0.58 1.29,1.45 2.73,2.16 4.75,1.83 0.72,-0.12 1.6,-0.65 2.4,-1.15 0.79,-0.49 1.45,-0.96 1.45,-0.96 0.19,-0.14 0.23,-0.41 0.09,-0.6 -0.05,-0.07 -0.13,-0.13 -0.21,-0.15l0 0c0,0 -1.05,-0.35 -2.01,-0.61l0 0zm-0.09 0.87c0.33,0.09 0.66,0.2 0.97,0.3 -0.25,0.17 -0.3,0.21 -0.65,0.43 -0.77,0.48 -1.72,0.97 -2.09,1.03 -1.61,0.26 -2.59,-0.22 -3.65,-1.29 0.14,-0.13 0.17,-0.17 0.4,-0.36 0.42,-0.35 0.98,-0.71 1.27,-0.78 0.78,-0.19 1.74,0.19 2.78,0.41 0.31,0.07 0.64,0.16 0.97,0.26z"/>
    <path class="fil3" d="M56.26 61.23c-0.09,-0.01 -0.19,0 -0.27,0.04 -1.2,0.58 -2.05,1.32 -2.65,2.59 -0.39,0.84 -0.63,1.9 -0.31,2.87 0.14,0.43 0.38,0.93 0.71,1.35 0.33,0.42 0.81,0.79 1.42,0.75 0.61,-0.05 1.11,-0.42 1.5,-0.88 0.39,-0.45 0.67,-1 0.8,-1.54 0.34,-1.41 -0.11,-2.67 -0.73,-4.01 -0.02,-0.04 -0.07,-0.27 -0.1,-0.45 -0.03,-0.18 -0.03,-0.33 -0.03,-0.33 -0.01,-0.17 -0.13,-0.32 -0.3,-0.37 -0.01,-0.01 -0.02,-0.01 -0.04,-0.02l0 0 0 0z"/>
    <path class="fil3" d="M55.86 62.36c0.03,0.13 0.04,0.26 0.1,0.4 0.6,1.3 0.95,2.32 0.67,3.45 -0.09,0.38 -0.32,0.85 -0.62,1.19 -0.29,0.35 -0.64,0.56 -0.92,0.58 -0.22,0.02 -0.45,-0.12 -0.69,-0.42 -0.24,-0.31 -0.45,-0.74 -0.56,-1.09 -0.22,-0.67 -0.06,-1.54 0.27,-2.25 0.43,-0.91 0.99,-1.41 1.75,-1.86l0 0 0 0z"/>
    <path class="fil3" d="M71.42 57.63c-0.07,-0.02 -0.13,-0.02 -0.2,0 0,0 -1.6,0.34 -2.44,0.65 -1.8,0.68 -3.6,1.46 -5.22,2.55 -1.16,0.79 -2.07,1.82 -3.02,2.72 -1.09,1.04 -1.99,2.19 -3.06,3.07 -1,0.81 -2.05,1.56 -3.18,2.1 -1.27,0.61 -4.28,1.37 -4.28,1.37 -0.23,0.05 -0.37,0.28 -0.32,0.51 0.05,0.23 0.28,0.37 0.51,0.32 0,-0.01 0.01,-0.01 0.01,-0.01 0,0 2.96,-0.71 4.45,-1.43 1.22,-0.58 2.32,-1.37 3.34,-2.2 1.18,-0.96 2.09,-2.14 3.11,-3.11 0.99,-0.94 1.87,-1.93 2.92,-2.63 1.53,-1.04 3.27,-1.8 5.03,-2.46 0.7,-0.26 2.33,-0.62 2.33,-0.62 0.23,-0.05 0.38,-0.27 0.34,-0.5 -0.03,-0.17 -0.16,-0.3 -0.32,-0.33l0 0z"/>
   </g>
   <g>
    <path class="fil3" d="M29.59 60.25l0 0c0.72,-0.2 1.48,-0.25 2.22,-0.22 1.38,0.06 3.81,0.71 3.81,0.71 0.23,0.06 0.37,0.29 0.31,0.52 -0.03,0.08 -0.08,0.16 -0.15,0.22 0,0 -0.59,0.48 -1.36,1.02 -0.77,0.54 -1.71,1.15 -2.49,1.44 -0.81,0.29 -1.78,0.56 -2.74,0.33 -0.68,-0.16 -1.37,-0.65 -1.93,-1.1 -0.57,-0.45 -1,-0.87 -1,-0.87 -0.17,-0.16 -0.18,-0.43 -0.01,-0.6 0.05,-0.05 0.13,-0.09 0.2,-0.11 0,0 0.57,-0.15 0.77,-0.22 0.71,-0.27 1.42,-0.86 2.36,-1.12l0.01 0z"/>
    <path class="fil3" d="M29.81 61.07c-0.71,0.2 -1.4,0.76 -2.29,1.1l-0.1 0.02c0.15,0.13 0.16,0.15 0.36,0.31 0.53,0.42 1.22,0.86 1.61,0.95 0.67,0.16 1.49,-0.03 2.25,-0.31 0.61,-0.22 1.54,-0.81 2.29,-1.33 0.32,-0.22 0.34,-0.25 0.56,-0.42 -0.76,-0.18 -1.87,-0.48 -2.72,-0.51 -0.67,-0.03 -1.34,0.02 -1.96,0.19z"/>
    <path class="fil3" d="M34.86 64.18c0.22,-0.07 0.45,-0.11 0.7,-0.13 0.68,-0.04 1.29,0.2 1.81,0.38 1.33,0.44 3.62,1.65 3.62,1.65 0.1,0.06 0.18,0.15 0.21,0.26 0.05,0.17 -0.01,0.36 -0.16,0.46 0,0 -0.48,0.34 -1.09,0.7 -0.61,0.37 -1.35,0.77 -1.99,0.91 -0.93,0.21 -1.91,0.14 -2.79,-0.12 -0.93,-0.28 -1.79,-0.8 -2.49,-1.46 -0.21,-0.21 -0.37,-0.47 -0.5,-0.7 -0.14,-0.23 -0.23,-0.43 -0.23,-0.43 -0.11,-0.21 -0.02,-0.46 0.19,-0.57 0.03,-0.01 0.06,-0.02 0.09,-0.03 0,0 0.62,-0.15 0.89,-0.23 0.52,-0.16 1.08,-0.51 1.74,-0.7l0 0.01zm0.24 0.82c-0.51,0.16 -1.07,0.48 -1.73,0.68 -0.14,0.04 -0.23,0.06 -0.4,0.11 0.11,0.17 0.24,0.37 0.3,0.42 0.6,0.58 1.36,1.03 2.14,1.26 0.76,0.23 1.61,0.28 2.36,0.11 0.43,-0.09 1.16,-0.46 1.75,-0.81 0.22,-0.13 0.23,-0.14 0.39,-0.25 -0.63,-0.32 -1.88,-0.98 -2.8,-1.29 -0.55,-0.18 -1.06,-0.36 -1.5,-0.33 -0.17,0.01 -0.33,0.05 -0.51,0.1l0 0z"/>
    <path class="fil3" d="M36.83 54.65c0.08,-0.01 0.17,0 0.25,0.03 0,0 0.2,0.08 0.44,0.2 0.24,0.12 0.51,0.26 0.73,0.46 0.71,0.64 1.29,1.47 1.63,2.38 0.32,0.87 0.45,1.84 0.31,2.77 -0.1,0.66 -0.45,1.42 -0.77,2.05 -0.32,0.64 -0.63,1.14 -0.63,1.14 -0.12,0.2 -0.38,0.26 -0.58,0.14 -0.06,-0.04 -0.1,-0.09 -0.14,-0.14 0,0 -1.37,-2.21 -1.89,-3.5 -0.21,-0.51 -0.5,-1.1 -0.5,-1.79 -0.01,-0.98 0.49,-1.77 0.65,-2.48 0.06,-0.28 0.17,-0.91 0.17,-0.91 0.03,-0.16 0.14,-0.29 0.29,-0.33 0.01,-0.01 0.03,-0.01 0.04,-0.02l0 0zm0.4 1.05c-0.03,0.17 -0.04,0.25 -0.07,0.4 -0.21,0.89 -0.64,1.62 -0.63,2.29 0,0.44 0.21,0.94 0.43,1.47 0.37,0.9 1.11,2.11 1.47,2.71 0.1,-0.17 0.11,-0.18 0.23,-0.41 0.31,-0.61 0.62,-1.36 0.69,-1.8 0.12,-0.76 0.01,-1.6 -0.27,-2.35 -0.28,-0.76 -0.79,-1.48 -1.4,-2.04 -0.06,-0.06 -0.27,-0.18 -0.45,-0.27l0 0z"/>
    <path class="fil3" d="M28.76 51.23c0.01,0 0.02,-0.01 0.04,-0.01 0.06,-0.01 0.12,-0.01 0.18,0 0,0 0.59,0.15 1.27,0.39 0.68,0.25 1.46,0.57 1.96,1.06 0.81,0.81 1.15,1.94 1.34,2.96 0.14,0.75 0.09,1.76 0.01,2.62 -0.08,0.86 -0.18,1.54 -0.18,1.54 -0.04,0.24 -0.26,0.39 -0.49,0.36 -0.08,-0.02 -0.16,-0.06 -0.22,-0.11 0,0 -1.85,-1.72 -2.63,-2.87 -0.5,-0.74 -0.92,-1.57 -1.16,-2.46 -0.22,-0.82 -0.07,-1.58 -0.18,-2.18 -0.04,-0.2 -0.22,-0.76 -0.22,-0.76 -0.07,-0.22 0.04,-0.46 0.27,-0.54 0,0 0,0 0.01,0l0 0z"/>
    <path class="fil3" d="M29.5 52.27c0.02,0.05 0.02,0.06 0.03,0.11 0.15,0.81 0.02,1.54 0.17,2.12 0.21,0.77 0.59,1.51 1.05,2.2 0.48,0.72 1.35,1.53 1.9,2.07 0.03,-0.25 0.04,-0.27 0.07,-0.59 0.07,-0.83 0.1,-1.83 0,-2.39 -0.18,-0.95 -0.51,-1.91 -1.11,-2.51 -0.28,-0.29 -1.01,-0.64 -1.65,-0.87 -0.25,-0.09 -0.26,-0.08 -0.46,-0.14l0 0z"/>
    <path class="fil3" d="M21.91 56.68c0.32,-0.09 0.63,-0.16 0.89,-0.22 0.91,-0.19 2,-0.69 3.15,-0.4 0.6,0.14 1.15,0.57 1.61,0.95 0.46,0.38 0.81,0.73 0.81,0.73 0.16,0.16 0.16,0.42 0.01,0.58 -1.29,1.45 -2.73,2.16 -4.75,1.83 -0.72,-0.12 -1.6,-0.65 -2.4,-1.15 -0.79,-0.49 -1.45,-0.96 -1.45,-0.96 -0.19,-0.14 -0.23,-0.41 -0.09,-0.6 0.05,-0.07 0.12,-0.13 0.21,-0.15l0 0c0,0 1.05,-0.35 2.01,-0.61l0 0zm0.09 0.87c-0.33,0.09 -0.66,0.2 -0.97,0.3 0.25,0.17 0.29,0.21 0.65,0.43 0.77,0.48 1.72,0.97 2.09,1.03 1.61,0.26 2.59,-0.22 3.64,-1.29 -0.13,-0.13 -0.16,-0.17 -0.39,-0.36 -0.42,-0.35 -0.98,-0.71 -1.27,-0.78 -0.78,-0.19 -1.74,0.19 -2.78,0.41 -0.31,0.07 -0.64,0.16 -0.97,0.26z"/>
    <path class="fil3" d="M43.12 61.23c0.09,-0.01 0.19,0 0.27,0.04 1.2,0.58 2.05,1.32 2.65,2.59 0.39,0.84 0.63,1.9 0.31,2.87 -0.15,0.43 -0.38,0.93 -0.71,1.35 -0.33,0.42 -0.81,0.79 -1.42,0.75 -0.61,-0.05 -1.11,-0.42 -1.5,-0.88 -0.39,-0.45 -0.67,-1 -0.8,-1.54 -0.34,-1.41 0.11,-2.67 0.73,-4.01 0.02,-0.04 0.07,-0.27 0.1,-0.45 0.02,-0.18 0.03,-0.33 0.03,-0.33 0.01,-0.17 0.13,-0.32 0.3,-0.37 0.01,-0.01 0.02,-0.01 0.04,-0.02l0 0 0 0z"/>
    <path class="fil3" d="M43.52 62.36c-0.03,0.13 -0.04,0.26 -0.1,0.4 -0.6,1.3 -0.95,2.32 -0.67,3.45 0.09,0.38 0.32,0.85 0.62,1.19 0.29,0.35 0.63,0.56 0.92,0.58 0.21,0.02 0.45,-0.12 0.69,-0.42 0.24,-0.31 0.44,-0.74 0.56,-1.09 0.22,-0.67 0.06,-1.54 -0.27,-2.25 -0.43,-0.91 -0.99,-1.41 -1.75,-1.86l0 0 0 0z"/>
    <path class="fil3" d="M27.96 57.63c0.06,-0.02 0.13,-0.02 0.2,0 0,0 1.59,0.34 2.44,0.65 1.8,0.68 3.6,1.46 5.22,2.55 1.16,0.79 2.07,1.82 3.02,2.72 1.09,1.04 1.98,2.19 3.06,3.07 1,0.81 2.05,1.56 3.18,2.1 1.27,0.61 4.28,1.37 4.28,1.37 0.23,0.05 0.37,0.28 0.32,0.51 -0.06,0.23 -0.28,0.37 -0.51,0.32 -0.01,-0.01 -0.01,-0.01 -0.01,-0.01 0,0 -2.97,-0.71 -4.45,-1.43 -1.22,-0.58 -2.32,-1.37 -3.34,-2.2 -1.18,-0.96 -2.09,-2.14 -3.11,-3.11 -0.99,-0.94 -1.87,-1.93 -2.92,-2.63 -1.53,-1.04 -3.27,-1.8 -5.04,-2.46 -0.69,-0.26 -2.32,-0.62 -2.32,-0.62 -0.23,-0.05 -0.38,-0.27 -0.34,-0.5 0.03,-0.17 0.16,-0.3 0.32,-0.33l0 0z"/>
   </g>
  </g>
 </g>
</svg>
