<?xml version="1.0" encoding="iso-8859-1"?>
<!-- Generator: Adobe Illustrator 19.0.0, SVG Export Plug-In . SVG Version: 6.00 Build 0)  -->
<svg version="1.1" id="Layer_1" xmlns="http://www.w3.org/2000/svg" xmlns:xlink="http://www.w3.org/1999/xlink" x="0px" y="0px"
	 viewBox="0 0 448.35 448.35" style="enable-background:new 0 0 448.35 448.35;" xml:space="preserve">
<g id="XMLID_976_">
	<g>
		<path d="M383.75,42.566c-7.601-2.594-15.537-3.91-23.587-3.911c0.002-0.644,0.012-1.286,0.012-1.93
			c0-7.317-0.169-14.85-0.503-22.389C359.317,6.318,352.713,0,344.686,0H103.663c-8.026,0-14.63,6.317-14.985,14.335
			c-0.334,7.535-0.503,15.068-0.503,22.39c0,0.645,0.009,1.286,0.012,1.93c-8.05,0-15.986,1.316-23.587,3.911
			c-42.008,14.34-63.141,64.215-47.109,111.181c6.276,18.386,17.397,34.133,32.161,45.54c14.639,11.31,32.221,17.539,49.507,17.539
			c8.052,0,15.989-1.316,23.591-3.911c0.416-0.142,0.818-0.309,1.23-0.458c0.404,0.831,0.803,1.668,1.213,2.49
			c15.568,31.21,34.721,53.849,55.982,66.777v81.671h-35.602c-14.843,0-26.918,12.075-26.918,26.918v31.119
			c0,14.843,12.076,26.918,26.918,26.918h157.205c14.843,0,26.918-12.075,26.918-26.918v-31.119
			c0-14.843-12.075-26.918-26.918-26.918h-35.603v-81.671c21.261-12.928,40.415-35.567,55.983-66.777
			c0.41-0.822,0.809-1.659,1.212-2.49c0.412,0.149,0.814,0.316,1.23,0.458c7.602,2.595,15.539,3.911,23.59,3.911
			c0.001,0,0,0,0.001,0c17.286,0,34.869-6.229,49.507-17.539c14.763-11.407,25.884-27.154,32.161-45.54
			C446.89,106.781,425.758,56.906,383.75,42.566z M99.159,186.826c-22.772,0-44.68-17.588-53.276-42.771
			c-10.688-31.311,2.056-64.102,28.409-73.098c4.475-1.527,9.151-2.302,13.898-2.302c0.332,0,0.663,0.017,0.995,0.024
			c2.667,42.048,10.584,81.765,23.108,116.088C108.05,186.128,103.638,186.826,99.159,186.826z M299.695,393.395v24.955H148.654
			v-24.955H299.695z M211.175,363.395v-70.209c4.287,0.729,8.621,1.115,13,1.115c4.379,0,8.713-0.386,13-1.115v70.209H211.175z
			 M296.312,201.557c-19.89,39.875-46.183,62.744-72.137,62.744c-25.954,0-52.247-22.87-72.137-62.744
			C130.2,157.779,118.175,99.241,118.175,36.725c0-2.223,0.017-4.466,0.05-6.725h211.9c0.033,2.259,0.05,4.503,0.05,6.725
			C330.175,99.241,318.149,157.779,296.312,201.557z M402.467,144.055c-8.597,25.183-30.505,42.771-53.277,42.771
			c-4.478,0-8.891-0.698-13.134-2.058c12.523-34.323,20.441-74.04,23.108-116.088c0.332-0.007,0.663-0.024,0.995-0.024
			c4.747,0,9.424,0.775,13.899,2.302C400.411,79.953,413.155,112.745,402.467,144.055z"/>
	</g>
</g>
<g>
</g>
<g>
</g>
<g>
</g>
<g>
</g>
<g>
</g>
<g>
</g>
<g>
</g>
<g>
</g>
<g>
</g>
<g>
</g>
<g>
</g>
<g>
</g>
<g>
</g>
<g>
</g>
<g>
</g>
</svg>
