<?xml version="1.0" encoding="UTF-8"?>
<!DOCTYPE svg PUBLIC "-//W3C//DTD SVG 1.1//EN" "http://www.w3.org/Graphics/SVG/1.1/DTD/svg11.dtd">
<!-- Creator: CorelDRAW 2021.5 -->
<svg xmlns="http://www.w3.org/2000/svg" xml:space="preserve" width="100px" height="100px" version="1.1" style="shape-rendering:geometricPrecision; text-rendering:geometricPrecision; image-rendering:optimizeQuality; fill-rule:evenodd; clip-rule:evenodd"
viewBox="0 0 100 100"
 xmlns:xlink="http://www.w3.org/1999/xlink"
 xmlns:xodm="http://www.corel.com/coreldraw/odm/2003">
 <defs>
  <style type="text/css">
   <![CDATA[
    .fil0 {fill:#D9DADA;fill-rule:nonzero}
   ]]>
  </style>
 </defs>
 <g id="Layer_x0020_1">
  <metadata id="CorelCorpID_0Corel-Layer"/>
  <path class="fil0" d="M86.16 6.51l-12.37 0 0 -0.42c0,-1.73 -1.4,-3.13 -3.13,-3.13l-41.32 0c-1.73,0 -3.13,1.4 -3.13,3.13l0 0.42 -12.37 0c-1.73,0 -3.13,1.4 -3.13,3.13l0 17.11c0,11.8 6.39,18.39 18,18.62 1.09,2.7 2.52,5.15 4.27,7.27 2.45,2.97 5.43,5.19 8.72,6.58l0 16.06 -12.36 0c-1.73,0 -3.13,1.4 -3.13,3.13l0 15.5c0,1.73 1.4,3.13 3.13,3.13l41.32 0c1.73,0 3.13,-1.4 3.13,-3.13l0 -15.5c0,-1.73 -1.4,-3.13 -3.13,-3.13l-12.36 0 0 -16.06c3.29,-1.39 6.26,-3.61 8.72,-6.58 1.75,-2.12 3.18,-4.57 4.27,-7.27 11.61,-0.23 18,-6.82 18,-18.62l0 -17.11c0,-1.73 -1.4,-3.13 -3.13,-3.13zm-69.19 20.24l0 -13.98 9.24 0 0 19.15c0,2.44 0.22,4.81 0.64,7.08 -6.81,-0.71 -9.88,-4.57 -9.88,-12.25zm50.56 54.79l0 9.24 -35.06 0 0 -9.24 35.06 0zm-15.49 -6.26l-4.08 0 0 -14.5c0.68,0.06 1.35,0.1 2.04,0.1 0.69,0 1.36,-0.04 2.04,-0.1l0 14.5zm-2.04 -20.66c-10.16,0 -17.53,-9.55 -17.53,-22.7l0 -22.7 35.06 0 0 22.7c0,13.15 -7.37,22.7 -17.53,22.7zm33.03 -27.87c0,7.68 -3.08,11.53 -9.88,12.25 0.42,-2.27 0.64,-4.64 0.64,-7.08l0 -19.15 9.24 0 0 13.98z"/>
  <g id="_1048217696">
  </g>
  <g id="_1048217648">
  </g>
  <g id="_1048217408">
  </g>
  <g id="_1048214384">
  </g>
  <g id="_1048213664">
  </g>
  <g id="_1048211792">
  </g>
  <g id="_1048210640">
  </g>
  <g id="_1048209248">
  </g>
  <g id="_1048207088">
  </g>
  <g id="_1048207040">
  </g>
  <g id="_1048206128">
  </g>
  <g id="_1048204208">
  </g>
  <g id="_1048203344">
  </g>
  <g id="_1048202144">
  </g>
  <g id="_1048202288">
  </g>
 </g>
</svg>
