<?xml version="1.0" encoding="UTF-8"?>
<!DOCTYPE svg PUBLIC "-//W3C//DTD SVG 1.1//EN" "http://www.w3.org/Graphics/SVG/1.1/DTD/svg11.dtd">
<!-- Creator: CorelDRAW 2021.5 -->
<svg xmlns="http://www.w3.org/2000/svg" xml:space="preserve" width="8.8898mm" height="8.8898mm" version="1.1" style="shape-rendering:geometricPrecision; text-rendering:geometricPrecision; image-rendering:optimizeQuality; fill-rule:evenodd; clip-rule:evenodd"
viewBox="0 0 888.98 888.98"
 xmlns:xlink="http://www.w3.org/1999/xlink"
 xmlns:xodm="http://www.corel.com/coreldraw/odm/2003">
 <defs>
  <style type="text/css">
   <![CDATA[
    .fil0 {fill:#FEFEFE}
   ]]>
  </style>
 </defs>
 <g id="Layer_x0020_1">
  <metadata id="CorelCorpID_0Corel-Layer"/>
  <path class="fil0" d="M444.49 17.05c236.07,0 427.44,191.37 427.44,427.44 0,236.07 -191.37,427.44 -427.44,427.44 -236.07,0 -427.44,-191.37 -427.44,-427.44 0,-236.07 191.37,-427.44 427.44,-427.44zm0.96 750.73c13.27,7.48 28.22,11.15 45.02,11.15 47.27,0 70.98,-29.92 70.98,-89.61l0 -238.77 -25.03 0 0 -50.62 25.03 0 0 -199.28 67.73 0 0 199.28 195.85 0 0 50.62 -195.85 0 0 242.02c0,44.45 -12.84,79.44 -38.52,105.26 -25.69,25.83 -57.58,38.67 -95.96,38.67 -20.74,0 -37.11,-2.54 -49.25,-7.48l0 -61.24zm-4.27 -372.67c-16.64,0 -30.13,13.49 -30.13,30.13 0,16.64 13.49,30.13 30.13,30.13 16.64,0 30.13,-13.49 30.13,-30.13 0,-16.64 -13.49,-30.13 -30.13,-30.13zm4.64 -276.97c-13.27,-7.48 -28.22,-11.15 -45.02,-11.15 -47.27,0 -70.98,29.92 -70.98,89.61l0 203.33 28.92 0 0 50.62 -28.92 0 0 234.72 -67.73 0 0 -234.72 -198.04 0 0 -50.62 198.04 0 0 -206.58c0,-44.45 12.84,-79.44 38.52,-105.26 25.69,-25.83 57.58,-38.67 95.96,-38.67 20.74,0 37.11,2.54 49.25,7.48l0 61.24z"/>
 </g>
</svg>
