<svg xmlns="http://www.w3.org/2000/svg" width="8.8898mm" height="8.8898mm"
viewBox="0 0 888.98 888.98">
 <g>
  <path fill="#348C31" d="M444.49 17.05c236.07,0 427.44,191.37 427.44,427.44 0,236.07 -191.37,427.44 -427.44,427.44 -236.07,0 -427.44,-191.37 -427.44,-427.44 0,-236.07 191.37,-427.44 427.44,-427.44z"/>
  <path fill="#fff" d="M445.82 118.14c-13.27,-7.48 -28.22,-11.15 -45.02,-11.15 -47.27,0 -70.98,29.92 -70.98,89.61l0 203.33 28.92 0 0 50.62 -28.92 0 0 234.72 -67.73 0 0 -234.72 -198.04 0 0 -50.62 198.04 0 0 -206.58c0,-44.45 12.84,-79.44 38.52,-105.26 25.69,-25.83 57.58,-38.67 95.96,-38.67 20.74,0 37.11,2.54 49.25,7.48l0 61.24z"/>
  <path fill="#fff" d="M441.18 395.11c-16.64,0 -30.13,13.49 -30.13,30.13 0,16.64 13.49,30.13 30.13,30.13 16.64,0 30.13,-13.49 30.13,-30.13 0,-16.64 -13.49,-30.13 -30.13,-30.13z"/>
  <path fill="#fff" d="M445.45 767.78c13.27,7.48 28.22,11.15 45.02,11.15 47.27,0 70.98,-29.92 70.98,-89.61l0 -238.77 -25.03 0 0 -50.62 25.03 0 0 -199.28 67.73 0 0 199.28 195.85 0 0 50.62 -195.85 0 0 242.02c0,44.45 -12.84,79.44 -38.52,105.26 -25.69,25.83 -57.58,38.67 -95.96,38.67 -20.74,0 -37.11,-2.54 -49.25,-7.48l0 -61.24z"/>
 </g>
</svg>
